<?xml version="1.0" encoding="utf-8"?>
<!-- Generator: Adobe Illustrator 16.0.0, SVG Export Plug-In . SVG Version: 6.00 Build 0)  -->
<!DOCTYPE svg PUBLIC "-//W3C//DTD SVG 1.1//EN" "http://www.w3.org/Graphics/SVG/1.1/DTD/svg11.dtd">
<svg version="1.1" id="Layer_1" xmlns="http://www.w3.org/2000/svg" xmlns:xlink="http://www.w3.org/1999/xlink" x="0px" y="0px"
	 width="300px" height="100px" viewBox="0 0 300 100" enable-background="new 0 0 300 100" xml:space="preserve">
<path fill="#BE1E2D" d="M1.462,27.038c-0.22-0.218-0.329-0.494-0.329-0.823s0.218-0.493,0.658-0.493h5.674
	c0.384,0,0.794,0.22,1.234,0.658l11.514,14.639c0.109,0.111,0.165,0.247,0.165,0.411c0,0.165-0.056,0.302-0.165,0.412l-2.878,3.536
	c-0.164,0.165-0.329,0.247-0.494,0.247c-0.164,0-0.329-0.083-0.493-0.247L1.462,27.038z M26.053,49.49v17.188
	c0,0.988-0.528,1.481-1.583,1.481h-3.25c-1,0-1.5-0.493-1.5-1.481V50.065c0-0.383,0.083-0.74,0.249-1.069
	c0.167-0.328,0.361-0.629,0.584-0.904L37.238,26.38c0.329-0.438,0.712-0.658,1.152-0.658h5.51c0.439,0,0.658,0.165,0.658,0.493
	c0,0.111-0.137,0.385-0.412,0.823L26.053,49.49z M108.13,27.285c0-0.438,0.136-0.809,0.411-1.11c0.274-0.301,0.63-0.453,1.069-0.453
	h24.673c1.809,0,3.496,0.343,5.058,1.028c1.562,0.686,2.932,1.618,4.112,2.796c1.179,1.18,2.11,2.55,2.796,4.113
	c0.685,1.562,1.028,3.248,1.028,5.058c0,1.535-0.247,2.989-0.74,4.358c-0.494,1.372-1.18,2.605-2.057,3.701
	c-0.878,1.098-1.92,2.044-3.125,2.838c-1.206,0.795-2.495,1.356-3.865,1.686l11.679,15.956c0.109,0.164,0.164,0.357,0.164,0.575
	c0,0.274-0.164,0.41-0.493,0.41h-5.181c-0.385,0-0.782-0.122-1.193-0.369c-0.411-0.247-0.754-0.562-1.027-0.945l-11.185-15.215
	h-9.623c-0.44,0-0.796-0.138-1.069-0.412c-0.275-0.272-0.411-0.629-0.411-1.068v-2.55c0-0.438,0.136-0.794,0.411-1.069
	c0.273-0.273,0.629-0.411,1.069-0.411h12.83c2.083,0,3.878-0.712,5.387-2.138c1.508-1.425,2.262-3.179,2.262-5.264
	c0-2.083-0.754-3.837-2.262-5.264c-1.509-1.425-3.303-2.138-5.387-2.138h-18.998V66.68c0,0.438-0.152,0.795-0.453,1.069
	c-0.302,0.274-0.672,0.411-1.11,0.411h-3.29c-0.439,0-0.795-0.137-1.069-0.411s-0.411-0.631-0.411-1.069V27.285z"/>
<path fill="#1B7EBC" d="M201.475,66.843c0.11,0.329,0.166,0.522,0.166,0.576c0,0.494-0.275,0.74-0.824,0.74h-4.604
	c-0.439,0-0.77-0.218-0.986-0.658l-4.688-9.787H170.8c-0.385,0-0.573-0.19-0.573-0.575c0-0.164,0.025-0.301,0.08-0.412l1.811-3.617
	c0.218-0.547,0.629-0.822,1.232-0.822h14.559l-10.035-21.63l-17.928,36.845c-0.219,0.439-0.549,0.658-0.988,0.658h-4.111
	c-0.549,0-0.82-0.246-0.82-0.74c0-0.054,0.053-0.247,0.164-0.576l19.49-39.558c0.219-0.438,0.535-0.809,0.946-1.11
	c0.41-0.301,0.835-0.453,1.272-0.453h3.865c0.439,0,0.864,0.152,1.275,0.453c0.411,0.302,0.727,0.672,0.945,1.11L201.475,66.843
	L201.475,66.843z M209.861,27.285c0-0.438,0.139-0.809,0.414-1.11c0.272-0.301,0.629-0.453,1.066-0.453h24.756
	c1.811,0,3.495,0.343,5.059,1.028c1.562,0.686,2.92,1.618,4.07,2.796c1.151,1.18,2.069,2.55,2.756,4.113
	c0.686,1.562,1.027,3.248,1.027,5.058c0,1.809-0.343,3.495-1.027,5.058c-0.687,1.563-1.604,2.92-2.756,4.071
	c-1.15,1.151-2.51,2.07-4.07,2.755c-1.563,0.686-3.248,1.026-5.059,1.026h-13.734c-0.439,0-0.795-0.137-1.068-0.411
	c-0.275-0.273-0.411-0.629-0.411-1.069v-2.549c0-0.438,0.136-0.794,0.411-1.07c0.273-0.273,0.629-0.411,1.068-0.411h12.748
	c1.041,0,2.041-0.192,3.003-0.576c0.958-0.383,1.795-0.905,2.507-1.563c0.714-0.658,1.275-1.439,1.688-2.344
	c0.409-0.905,0.616-1.877,0.616-2.919c0-1.041-0.207-2.001-0.616-2.879c-0.41-0.876-0.974-1.645-1.688-2.303
	c-0.712-0.658-1.549-1.178-2.507-1.563c-0.962-0.382-1.962-0.576-3.003-0.576h-18.916v35.281c0,0.439-0.151,0.797-0.452,1.07
	c-0.302,0.275-0.673,0.411-1.11,0.411h-3.29c-0.438,0-0.794-0.136-1.067-0.411c-0.274-0.273-0.412-0.631-0.412-1.07V27.285H209.861z
	 M259.373,27.285c0-0.438,0.136-0.809,0.41-1.11c0.273-0.301,0.63-0.453,1.068-0.453h24.756c1.81,0,3.496,0.343,5.059,1.028
	c1.563,0.686,2.92,1.618,4.07,2.796c1.15,1.18,2.07,2.55,2.756,4.113c0.685,1.562,1.027,3.248,1.027,5.058
	c0,1.809-0.344,3.495-1.027,5.058c-0.686,1.563-1.604,2.92-2.756,4.071c-1.15,1.151-2.508,2.07-4.07,2.755s-3.249,1.026-5.059,1.026
	h-13.733c-0.44,0-0.796-0.137-1.069-0.411c-0.273-0.273-0.412-0.629-0.412-1.069v-2.549c0-0.438,0.139-0.794,0.412-1.07
	c0.273-0.273,0.629-0.411,1.069-0.411h12.748c1.04,0,2.041-0.192,3.002-0.576c0.957-0.383,1.794-0.905,2.508-1.563
	c0.711-0.658,1.272-1.439,1.687-2.344c0.412-0.905,0.617-1.877,0.617-2.919c0-1.041-0.205-2.001-0.617-2.879
	c-0.412-0.876-0.976-1.645-1.687-2.303c-0.714-0.658-1.551-1.178-2.508-1.563c-0.961-0.382-1.962-0.576-3.002-0.576h-18.917v35.281
	c0,0.439-0.151,0.797-0.451,1.07c-0.303,0.275-0.674,0.411-1.111,0.411h-3.291c-0.438,0-0.793-0.136-1.067-0.411
	c-0.274-0.273-0.41-0.631-0.41-1.07L259.373,27.285L259.373,27.285z"/>
<path fill="#BE1E2D" d="M74.056,14.474c-13.112,0-23.744,10.631-23.744,23.744c0,17.81,23.744,47.489,23.744,47.489
	s23.746-29.682,23.746-47.489C97.801,25.105,87.17,14.474,74.056,14.474z M74.056,51.518c-7.345,0-13.296-5.956-13.296-13.3
	c0-7.345,5.952-13.295,13.296-13.295c7.344,0,13.298,5.951,13.298,13.295C87.354,45.562,81.4,51.518,74.056,51.518z"/>
<path fill="#1B7EBC" d="M77.827,39.244l2.33,7.171l-6.099-4.433l-6.103,4.433l2.331-7.171l-6.1-4.434h7.541l2.331-7.169l2.33,7.169
	h7.539L77.827,39.244z"/>
<g>
	<path fill="#BE1E2E" d="M175.84,87.268v0.477c0,0.131-0.103,0.346-0.308,0.644c-0.206,0.299-0.364,0.448-0.477,0.448
		c-0.615,0-0.924-0.149-0.924-0.448c0-0.148,0.187-0.373,0.561-0.672c0.522-0.41,0.844-0.616,0.966-0.616
		C175.779,87.1,175.84,87.156,175.84,87.268z"/>
	<path fill="#BE1E2E" d="M180.908,87.268v0.477c0,0.131-0.103,0.346-0.308,0.644c-0.206,0.299-0.364,0.448-0.477,0.448
		c-0.615,0-0.924-0.149-0.924-0.448c0-0.148,0.187-0.373,0.561-0.672c0.522-0.41,0.844-0.616,0.966-0.616
		C180.848,87.1,180.908,87.156,180.908,87.268z"/>
	<path fill="#BE1E2E" d="M185.976,87.268v0.477c0,0.131-0.103,0.346-0.308,0.644c-0.206,0.299-0.364,0.448-0.477,0.448
		c-0.615,0-0.924-0.149-0.924-0.448c0-0.148,0.187-0.373,0.561-0.672c0.522-0.41,0.844-0.616,0.966-0.616
		C185.915,87.1,185.976,87.156,185.976,87.268z"/>
	<path fill="#BE1E2E" d="M192.304,80.66c1.438-0.131,2.311-0.196,2.618-0.196c0.309,0,0.462,0.047,0.462,0.14
		c0,0.112-0.22,0.229-0.657,0.351c-0.439,0.121-1.508,0.275-3.206,0.462c-0.094,0.168-0.206,0.364-0.336,0.588
		c-0.28,0.448-0.43,0.719-0.448,0.813c-1.064,2.128-1.624,3.481-1.681,4.06c-0.019,0.168-0.027,0.383-0.027,0.644
		c0,0.262,0.074,0.477,0.224,0.645c0.262,0.299,0.635,0.317,1.12,0.056c0.485-0.261,1.162-0.784,2.03-1.567
		c0.868-0.784,1.572-1.55,2.113-2.296c0.075-0.094,0.169-0.112,0.28-0.057c0.28,0.131-0.205,0.868-1.456,2.212
		c-1.194,1.288-2.193,2.081-2.996,2.38c-0.467,0.168-0.858,0.252-1.176,0.252c-0.747,0-1.241-0.354-1.483-1.063
		c-0.038-0.131-0.057-0.289-0.057-0.477c0-0.652,0.299-1.642,0.896-2.968c-0.094,0.206-0.458,0.672-1.093,1.4
		c-0.168,0.187-0.299,0.187-0.392,0c-0.019-0.037-0.028-0.089-0.028-0.154s0.037-0.145,0.112-0.238
		c0.914-1.138,1.633-2.1,2.156-2.884c0-0.019,0.205-0.41,0.616-1.176c-0.188,0.038-0.378,0.056-0.574,0.056s-0.341-0.06-0.435-0.182
		c-0.093-0.121-0.103-0.266-0.027-0.434c0.13-0.299,0.625-0.467,1.483-0.505c0.019-0.037,0.057-0.056,0.112-0.056l1.4-2.604
		c0.074-0.149,0.158-0.304,0.252-0.462c0.093-0.159,0.163-0.28,0.21-0.364c0.046-0.084,0.098-0.173,0.153-0.267
		c0.057-0.093,0.103-0.158,0.141-0.195c0.037-0.037,0.074-0.074,0.111-0.112c0.075-0.112,0.295-0.168,0.658-0.168
		c0.364,0,0.611,0.103,0.742,0.308c0.056,0.075,0.084,0.201,0.084,0.378c0,0.178-0.065,0.374-0.196,0.589s-0.271,0.368-0.42,0.462
		s-0.252,0.195-0.308,0.308l-1.344,2.353L192.304,80.66z"/>
	<path fill="#BE1E2E" d="M197.849,89.2c-0.952,0-1.429-0.574-1.429-1.723c0-1.147,0.821-2.562,2.464-4.241
		c0.131-0.131,0.225-0.233,0.28-0.309l0.196-0.279c0.261-0.354,0.382-0.579,0.364-0.673l-0.084-0.252
		c-0.075-0.224-0.383-0.387-0.925-0.489c-0.541-0.103-0.979-0.154-1.315-0.154c-1.68,2.371-2.651,3.724-2.912,4.06
		c-0.262,0.336-0.438,0.477-0.532,0.42c-0.094-0.056-0.14-0.121-0.14-0.195s0.056-0.187,0.168-0.336
		c1.008-1.232,1.876-2.548,2.604-3.948c-0.224-0.037-0.392-0.116-0.504-0.238c-0.111-0.121-0.121-0.326-0.027-0.616
		c0.093-0.289,0.378-0.676,0.854-1.161s0.892-0.813,1.246-0.98s0.578-0.271,0.672-0.308s0.196-0.057,0.308-0.057
		c0.225,0,0.149,0.336-0.224,1.008l-1.092,1.736c0.84,0.056,1.559,0.084,2.156,0.084l0.979-0.028c0.317,0,0.551,0.042,0.7,0.127
		c0.149,0.084,0.187,0.229,0.112,0.434c-0.131,0.354-0.458,0.831-0.98,1.428c-1.12,1.307-1.96,2.698-2.52,4.172
		c-0.131,0.355-0.196,0.663-0.196,0.924c0,0.542,0.196,0.813,0.588,0.813c0.131,0,0.378-0.103,0.742-0.308
		c0.364-0.206,0.975-0.695,1.834-1.471c0.858-0.774,1.549-1.535,2.072-2.281c0.074-0.094,0.163-0.117,0.266-0.07
		s0.154,0.094,0.154,0.14c0,0.047-0.02,0.099-0.057,0.154c-0.279,0.504-0.783,1.147-1.512,1.932
		c-0.728,0.784-1.438,1.419-2.128,1.904C199.36,88.938,198.632,89.2,197.849,89.2z"/>
	<path fill="#BE1E2E" d="M214.619,86.512c-0.728,0.784-1.381,1.391-1.96,1.82c-0.746,0.541-1.559,0.812-2.436,0.812
		c-0.168,0-0.388-0.079-0.658-0.237c-0.271-0.159-0.453-0.388-0.546-0.687c-0.094-0.298-0.14-0.588-0.14-0.868
		c0-0.97,0.187-1.932,0.56-2.884c-0.056,0.038-0.313,0.435-0.77,1.19c-0.458,0.756-1.018,1.47-1.681,2.142
		c-0.662,0.672-1.33,1.008-2.002,1.008c-0.317,0-0.682-0.084-1.092-0.252c-0.747-0.336-1.12-0.952-1.12-1.848
		c0-1.102,0.378-2.235,1.134-3.402c0.757-1.166,1.236-1.787,1.442-1.861c0.28-0.075,0.546-0.112,0.798-0.112
		s0.509,0.052,0.771,0.154c0.261,0.103,0.224,0.275-0.112,0.518c-1.288,1.176-2.203,2.482-2.744,3.92
		c-0.205,0.561-0.308,1.032-0.308,1.414c0,0.383,0.098,0.63,0.294,0.742c0.195,0.112,0.387,0.168,0.574,0.168
		c0.447,0,1.059-0.313,1.834-0.938c0.774-0.625,1.843-1.927,3.205-3.905c0.187-0.28,0.514-0.826,0.98-1.639
		c0.467-0.812,0.746-1.292,0.84-1.441c0.299,0,0.648,0.069,1.05,0.21c0.401,0.14,0.537,0.322,0.406,0.546
		c-0.896,1.493-1.526,2.595-1.89,3.304c-0.364,0.71-0.612,1.54-0.742,2.492c-0.019,0.168-0.028,0.383-0.028,0.644
		c0,0.262,0.074,0.477,0.225,0.645c0.279,0.299,0.667,0.313,1.162,0.042c0.494-0.271,1.171-0.793,2.029-1.568
		c0.858-0.774,1.55-1.535,2.072-2.281c0.074-0.094,0.163-0.117,0.266-0.07s0.154,0.094,0.154,0.14c0,0.047-0.019,0.099-0.056,0.154
		C215.852,85.084,215.348,85.728,214.619,86.512z"/>
	<path fill="#BE1E2E" d="M216.804,84.916c-0.225,0.635-0.346,1.06-0.364,1.274s-0.028,0.504-0.028,0.867
		c0,0.364,0.094,0.696,0.28,0.994c0.317,0.504,0.85,0.541,1.596,0.112c0.561-0.299,1.27-0.845,2.128-1.638
		c0.858-0.794,1.521-1.517,1.988-2.17c0.037-0.057,0.094-0.084,0.168-0.084c0.168,0,0.215,0.121,0.141,0.363
		c-0.28,0.504-0.799,1.148-1.555,1.933c-0.756,0.783-1.441,1.404-2.058,1.861s-1.232,0.687-1.848,0.687
		c-1.419,0-2.129-0.69-2.129-2.072c0-0.056,0-0.112,0-0.168c0.075-1.307,0.737-3.28,1.988-5.922s2.38-4.634,3.389-5.979l0.867-1.092
		c0.205-0.242,0.504-0.541,0.896-0.896c0.746-0.709,1.517-1.064,2.31-1.064c0.794,0,1.33,0.243,1.61,0.729
		c0.093,0.168,0.14,0.41,0.14,0.728s-0.14,0.766-0.42,1.344C223.98,78.065,220.947,81.463,216.804,84.916z M225.147,74.22
		c0.224-0.41,0.336-0.728,0.336-0.952c0-0.392-0.158-0.588-0.476-0.588c-0.262,0-0.588,0.15-0.98,0.448
		c-1.493,1.157-2.939,2.987-4.34,5.488c-1.12,2.016-1.941,3.742-2.464,5.18c1.288-0.877,2.729-2.305,4.326-4.284
		C223.146,77.533,224.345,75.77,225.147,74.22z"/>
	<path fill="#BE1E2E" d="M221.282,99.168c-0.149,0-0.336-0.028-0.56-0.084c-0.952-0.243-1.428-0.742-1.428-1.498
		s0.489-1.703,1.47-2.842c0.979-1.139,3.047-2.754,6.202-4.844c1.754-3.584,2.865-6.095,3.332-7.532
		c-0.225,0.262-0.663,0.826-1.316,1.693c-0.653,0.868-1.231,1.606-1.735,2.213c-0.505,0.606-1.111,1.181-1.82,1.722
		c-0.71,0.541-1.363,0.812-1.96,0.812c-0.598,0-1.06-0.135-1.386-0.405c-0.327-0.271-0.509-0.556-0.547-0.854
		c-0.037-0.298-0.056-0.55-0.056-0.756c0-0.69,0.187-1.381,0.561-2.072c0.56-1.138,1.315-2.118,2.268-2.939
		c0.354-0.336,0.667-0.504,0.938-0.504s0.519,0.084,0.742,0.252c0.242,0.262,0.317,0.485,0.225,0.672
		c-0.71,0.41-1.521,1.204-2.437,2.38c-0.485,0.635-0.821,1.438-1.008,2.408c-0.019,0.131-0.028,0.294-0.028,0.489
		c0,0.196,0.079,0.355,0.238,0.477c0.158,0.121,0.322,0.182,0.49,0.182c0.578,0,1.185-0.308,1.82-0.924
		c0.634-0.616,1.24-1.265,1.819-1.946c0.578-0.681,1.236-1.498,1.975-2.449c0.736-0.952,1.222-1.577,1.456-1.876
		c0.232-0.299,0.471-0.448,0.714-0.448c0.298,0,0.606,0.084,0.924,0.252s0.452,0.299,0.406,0.392
		c-0.047,0.094-0.523,1.153-1.429,3.179s-1.563,3.477-1.974,4.354c0.448-0.242,1.208-0.816,2.282-1.722
		c1.073-0.905,1.982-1.824,2.729-2.758c0.187-0.225,0.309-0.243,0.364-0.057c0.019,0.038,0.028,0.099,0.028,0.183
		s-0.057,0.2-0.168,0.35c-0.579,0.766-1.503,1.727-2.772,2.884s-2.277,1.941-3.024,2.353c-1.586,3.266-2.65,5.319-3.191,6.159
		C224.026,98.132,222.645,99.168,221.282,99.168z M226.435,90.964c-2.24,1.68-3.841,3.005-4.802,3.977
		c-0.961,0.97-1.442,1.806-1.442,2.506s0.243,1.05,0.729,1.05c0.373,0,0.802-0.191,1.288-0.574c0.484-0.383,0.951-0.892,1.399-1.525
		c0.448-0.636,0.788-1.182,1.022-1.639c0.232-0.457,0.555-1.13,0.966-2.016C226.005,91.855,226.285,91.263,226.435,90.964z"/>
	<path fill="#BE1E2E" d="M239.062,99.168c-0.149,0-0.336-0.028-0.56-0.084c-0.952-0.243-1.428-0.742-1.428-1.498
		s0.489-1.703,1.47-2.842c0.979-1.139,3.047-2.754,6.202-4.844c1.754-3.584,2.865-6.095,3.332-7.532
		c-0.225,0.262-0.663,0.826-1.316,1.693c-0.653,0.868-1.231,1.606-1.735,2.213c-0.505,0.606-1.111,1.181-1.82,1.722
		c-0.71,0.541-1.363,0.812-1.96,0.812c-0.598,0-1.06-0.135-1.386-0.405c-0.327-0.271-0.509-0.556-0.547-0.854
		c-0.037-0.298-0.056-0.55-0.056-0.756c0-0.69,0.187-1.381,0.561-2.072c0.56-1.138,1.315-2.118,2.268-2.939
		c0.354-0.336,0.667-0.504,0.938-0.504s0.519,0.084,0.742,0.252c0.242,0.262,0.317,0.485,0.225,0.672
		c-0.71,0.41-1.521,1.204-2.437,2.38c-0.485,0.635-0.821,1.438-1.008,2.408c-0.019,0.131-0.028,0.294-0.028,0.489
		c0,0.196,0.079,0.355,0.238,0.477c0.158,0.121,0.322,0.182,0.49,0.182c0.578,0,1.185-0.308,1.82-0.924
		c0.634-0.616,1.24-1.265,1.819-1.946c0.578-0.681,1.236-1.498,1.975-2.449c0.736-0.952,1.222-1.577,1.456-1.876
		c0.232-0.299,0.471-0.448,0.714-0.448c0.298,0,0.606,0.084,0.924,0.252s0.452,0.299,0.406,0.392
		c-0.047,0.094-0.523,1.153-1.429,3.179s-1.563,3.477-1.974,4.354c0.448-0.242,1.208-0.816,2.282-1.722
		c1.073-0.905,1.982-1.824,2.729-2.758c0.187-0.225,0.309-0.243,0.364-0.057c0.019,0.038,0.028,0.099,0.028,0.183
		s-0.057,0.2-0.168,0.35c-0.579,0.766-1.503,1.727-2.772,2.884s-2.277,1.941-3.024,2.353c-1.586,3.266-2.65,5.319-3.191,6.159
		C241.806,98.132,240.424,99.168,239.062,99.168z M244.214,90.964c-2.24,1.68-3.841,3.005-4.802,3.977
		c-0.961,0.97-1.442,1.806-1.442,2.506s0.243,1.05,0.729,1.05c0.373,0,0.802-0.191,1.288-0.574c0.484-0.383,0.951-0.892,1.399-1.525
		c0.448-0.636,0.788-1.182,1.022-1.639c0.232-0.457,0.555-1.13,0.966-2.016C243.784,91.855,244.064,91.263,244.214,90.964z"/>
	<path fill="#BE1E2E" d="M257.234,85.42c0.336-0.69,0.504-1.223,0.504-1.596s-0.042-0.667-0.126-0.882s-0.047-0.396,0.112-0.546
		c0.158-0.149,0.359-0.206,0.602-0.169c0.373,0.094,0.561,0.514,0.561,1.261c0,0.746-0.439,1.727-1.316,2.939
		c0.019,0.504,0.28,0.756,0.784,0.756s1.27-0.541,2.296-1.624c0.485-0.56,0.788-0.924,0.91-1.092
		c0.121-0.168,0.229-0.229,0.322-0.182c0.093,0.047,0.14,0.089,0.14,0.126c0,0.187-0.336,0.672-1.008,1.456
		c-1.064,1.307-2.007,1.96-2.828,1.96c-0.542,0-0.924-0.233-1.148-0.7c-0.373,0.392-0.737,0.756-1.092,1.092
		c-0.728,0.616-1.54,0.924-2.436,0.924c-0.504,0-0.925-0.121-1.261-0.363c-0.653-0.393-0.979-1.092-0.979-2.101
		c0-1.101,0.373-2.221,1.12-3.359c0.429-0.672,0.933-1.261,1.512-1.765c0.914-0.802,1.782-1.204,2.604-1.204
		c0.205,0,0.4,0.028,0.588,0.084c0.56,0.188,0.84,0.542,0.84,1.064c0,0.43-0.112,0.644-0.336,0.644
		c-0.094-0.037-0.141-0.177-0.141-0.42c0-0.336-0.187-0.504-0.56-0.504c-0.653,0-1.494,0.598-2.521,1.792
		c-1.026,1.195-1.643,2.399-1.848,3.612c-0.037,0.206-0.056,0.434-0.056,0.686s0.084,0.542,0.252,0.868s0.48,0.49,0.938,0.49
		s0.957-0.205,1.498-0.616c0.541-0.41,1.026-0.933,1.456-1.567l-0.084-0.168c-0.074-0.299-0.037-0.542,0.112-0.729
		S256.991,85.346,257.234,85.42z"/>
	<path fill="#BE1E2E" d="M272.913,86.512c-0.728,0.784-1.381,1.391-1.96,1.82c-0.746,0.541-1.559,0.812-2.436,0.812
		c-0.168,0-0.388-0.079-0.658-0.237c-0.271-0.159-0.453-0.388-0.546-0.687c-0.094-0.298-0.14-0.588-0.14-0.868
		c0-0.97,0.187-1.932,0.56-2.884c-0.056,0.038-0.313,0.435-0.77,1.19c-0.458,0.756-1.018,1.47-1.681,2.142
		c-0.662,0.672-1.33,1.008-2.002,1.008c-0.317,0-0.682-0.084-1.092-0.252c-0.747-0.336-1.12-0.952-1.12-1.848
		c0-1.102,0.378-2.235,1.134-3.402c0.757-1.166,1.236-1.787,1.442-1.861c0.28-0.075,0.546-0.112,0.798-0.112
		s0.509,0.052,0.771,0.154c0.261,0.103,0.224,0.275-0.112,0.518c-1.288,1.176-2.203,2.482-2.744,3.92
		c-0.205,0.561-0.308,1.032-0.308,1.414c0,0.383,0.098,0.63,0.294,0.742c0.195,0.112,0.387,0.168,0.574,0.168
		c0.447,0,1.059-0.313,1.834-0.938c0.774-0.625,1.843-1.927,3.205-3.905c0.187-0.28,0.514-0.826,0.98-1.639
		c0.467-0.812,0.746-1.292,0.84-1.441c0.299,0,0.648,0.069,1.05,0.21c0.401,0.14,0.537,0.322,0.406,0.546
		c-0.896,1.493-1.526,2.595-1.89,3.304c-0.364,0.71-0.612,1.54-0.742,2.492c-0.019,0.168-0.028,0.383-0.028,0.644
		c0,0.262,0.074,0.477,0.225,0.645c0.279,0.299,0.667,0.313,1.162,0.042c0.494-0.271,1.171-0.793,2.029-1.568
		c0.858-0.774,1.55-1.535,2.072-2.281c0.074-0.094,0.163-0.117,0.266-0.07s0.154,0.094,0.154,0.14c0,0.047-0.019,0.099-0.056,0.154
		C274.146,85.084,273.642,85.728,272.913,86.512z"/>
	<path fill="#BE1E2E" d="M277.422,89.2c-0.952,0-1.429-0.574-1.429-1.723c0-1.147,0.821-2.562,2.464-4.241
		c0.131-0.131,0.225-0.233,0.28-0.309l0.196-0.279c0.261-0.354,0.382-0.579,0.364-0.673l-0.084-0.252
		c-0.075-0.224-0.383-0.387-0.925-0.489c-0.541-0.103-0.979-0.154-1.315-0.154c-1.68,2.371-2.651,3.724-2.912,4.06
		c-0.262,0.336-0.438,0.477-0.532,0.42c-0.094-0.056-0.14-0.121-0.14-0.195s0.056-0.187,0.168-0.336
		c1.008-1.232,1.876-2.548,2.604-3.948c-0.224-0.037-0.392-0.116-0.504-0.238c-0.111-0.121-0.121-0.326-0.027-0.616
		c0.093-0.289,0.378-0.676,0.854-1.161s0.892-0.813,1.246-0.98s0.578-0.271,0.672-0.308s0.196-0.057,0.308-0.057
		c0.225,0,0.149,0.336-0.224,1.008l-1.092,1.736c0.84,0.056,1.559,0.084,2.156,0.084l0.979-0.028c0.317,0,0.551,0.042,0.7,0.127
		c0.149,0.084,0.187,0.229,0.112,0.434c-0.131,0.354-0.458,0.831-0.98,1.428c-1.12,1.307-1.96,2.698-2.52,4.172
		c-0.131,0.355-0.196,0.663-0.196,0.924c0,0.542,0.196,0.813,0.588,0.813c0.131,0,0.378-0.103,0.742-0.308
		c0.364-0.206,0.975-0.695,1.834-1.471c0.858-0.774,1.549-1.535,2.072-2.281c0.074-0.094,0.163-0.117,0.266-0.07
		s0.154,0.094,0.154,0.14c0,0.047-0.02,0.099-0.057,0.154c-0.279,0.504-0.783,1.147-1.512,1.932
		c-0.728,0.784-1.438,1.419-2.128,1.904C278.934,88.938,278.205,89.2,277.422,89.2z"/>
	<path fill="#BE1E2E" d="M282.826,88.78c-0.243,0.279-0.294,0.504-0.154,0.672s0.298,0.252,0.476,0.252s0.359-0.028,0.546-0.084
		c0.803-0.243,1.582-0.724,2.339-1.442c0.756-0.718,1.134-1.451,1.134-2.197c0-0.411-0.458-0.858-1.372-1.345
		c-0.43-0.224-0.672-0.354-0.729-0.392c-0.504-0.336-0.821-0.672-0.951-1.008c-0.262,0.447-0.682,1.092-1.261,1.932
		c-0.131,0.149-0.252,0.182-0.363,0.098c-0.112-0.084-0.122-0.2-0.028-0.35c0.765-1.045,1.27-1.923,1.512-2.632
		c0.131-1.026,0.877-1.95,2.24-2.772c1.362-0.821,2.604-1.231,3.724-1.231c0.709,0,1.209,0.126,1.498,0.378s0.435,0.499,0.435,0.742
		c0,0.242-0.07,0.522-0.21,0.84c-0.141,0.317-0.425,0.616-0.854,0.896c-0.112,0.075-0.205,0.057-0.28-0.056
		c-0.037-0.112,0.042-0.266,0.238-0.462s0.322-0.462,0.378-0.798c0.057-0.336-0.094-0.541-0.448-0.616c-0.056,0-0.111,0-0.168,0
		c-0.728,0-1.638,0.271-2.729,0.812c-1.092,0.542-1.946,1.242-2.563,2.101c-0.242,0.317-0.363,0.64-0.363,0.966
		c0,0.327,0.224,0.621,0.672,0.882c0.187,0.112,0.504,0.29,0.952,0.532c0.447,0.243,0.765,0.42,0.951,0.532
		c0.187,0.111,0.411,0.289,0.673,0.531c0.261,0.243,0.4,0.467,0.42,0.673c0.093,0.56-0.168,1.176-0.784,1.848
		c-0.878,0.971-2.185,1.652-3.92,2.044c-0.393,0.093-0.789,0.14-1.19,0.14s-0.677-0.149-0.826-0.447
		c-0.056-0.075-0.084-0.192-0.084-0.351s0.149-0.415,0.448-0.77c0.28-0.28,0.729-0.551,1.344-0.813
		c0.057-0.019,0.103-0.009,0.141,0.028c0.037,0.037,0.046,0.084,0.027,0.14c-0.019,0.057-0.116,0.122-0.294,0.196
		C283.222,88.323,283.031,88.5,282.826,88.78z"/>
</g>
</svg>
