<?xml version="1.0" encoding="utf-8"?>
<!-- Generator: Adobe Illustrator 21.0.0, SVG Export Plug-In . SVG Version: 6.00 Build 0)  -->
<svg version="1.1" id="Layer_1" xmlns="http://www.w3.org/2000/svg" xmlns:xlink="http://www.w3.org/1999/xlink" x="0px" y="0px"
	 viewBox="0 0 150 100" style="enable-background:new 0 0 150 100;" xml:space="preserve">
<style type="text/css">
	.st0{fill:#D52E32;}
	.st1{opacity:0.4;fill:#050505;enable-background:new    ;}
	.st2{fill:#FFFFFF;}
	.st3{fill:none;}
	.st4{fill:none;stroke:#FCFAFB;stroke-miterlimit:10;}
	.st5{fill:#FEFFFB;}
	.st6{enable-background:new    ;}
</style>
<rect class="st0" width="150" height="100"/>
<rect y="86.5" class="st1" width="150" height="13.5"/>
<g>
	<path class="st2" d="M74.3,10.5c-9.7,0-17.5,7.9-17.5,17.7c0,0.8,0,1.6,0.1,2.3l0,0l0,0c0.1,0.4,0.1,0.9,0.2,1.3
		c0,0.1,0,0.2,0.1,0.3c0,0,0.1,0,0.1-0.1l0,0l0,0l0,0c0.8-0.7,1.6-1.5,2.2-2.3c1.6-1.6,3-3.1,4.5-4.5c1.1-1.2,2.2-2.4,3.3-3.5
		c0.4-0.4,0.7-0.8,1.1-1.1l0.1-0.1l0,0l0.1-0.1c0.1-0.1,0.3-0.3,0.4-0.3h0.1c0.1,0,0.1,0,0.2,0c0.9,0,1.8-0.1,2.7,0
		c0.4,0,0.4,0.2,0.3,0.7c-0.2,0.6-0.6,1-0.8,1.4c0,0-0.1,0.1-0.1,0.2C71,23,70.6,23.5,70.1,24c-1.3,1.6-2.8,3.1-4.4,4.6
		c-0.3,0.3-0.7,0.5-1.1,0.2c-0.4-0.2-0.8-0.2-1.2,0c-0.8,0.5-1.3,1.1-1.9,1.8c-1,1.1-1.9,2.2-2.9,3.3L58,34.6l0,0v0.1l0,0
		c0.3,0.8,0.7,1.7,1.2,2.5l0,0c0.3,0.6,0.7,1.1,1.1,1.7c0.4-0.3,0.7-0.7,1.1-1.1c0.4-0.4,0.8-0.7,1.1-1.1c1.1-1.1,2.3-2.2,3.3-3.3
		c1-1,2.1-2,3.2-3.1c0.7-0.6,1.2-1.3,1.9-1.8c0.3-0.3,0.7-0.8,0.6-1.4c-0.3-0.9,0-1.6,0.7-2.3c1.3-1.4,2.8-2.6,4.2-3.9
		c0.1-0.1,0.2-0.1,0.3-0.1c0,0,0.1,0,0.1,0.1l0,0c0.1,0.1-0.1,0.2-0.1,0.3c-0.9,0.9-1.7,1.8-2.6,2.6c-0.2,0.2-0.3,0.5-0.1,0.7
		c0,0,0,0,0.1,0c0.3,0.2,0.4,0,0.6-0.3c0.7-0.7,1.2-1.3,1.9-1.8c0.1-0.1,0.8-0.6,0.9-0.5l0,0c0,0,0,0,0,0.1
		c-0.1,0.2-0.6,0.6-0.7,0.6c-0.6,0.3-0.8,0.9-1.2,1.3c-0.3,0.2-0.4,0.6-0.7,0.8c-0.1,0.2-0.2,0.5,0,0.7s0.4,0,0.6-0.1
		c0.7-0.7,1.2-1.3,1.9-1.9c0.3-0.3,0.7-0.6,0.9-0.9c0,0,0,0.1,0.1,0.1C78.1,22.8,78,22.9,78,23c-0.2,0.2-0.4,0.5-0.6,0.8
		c-0.1,0.1-0.1,0.1-0.2,0.2c-0.1,0.2-0.3,0.3-0.4,0.5c-0.4,0.5-0.8,0.9-1.3,1.4c-0.1,0.1-0.1,0.1-0.2,0.3c-0.1,0.1-0.1,0.2,0.1,0.3
		c0.2,0.2,0.4,0.2,0.7,0h0.1c0,0,0,0,0-0.1l0,0c0.2-0.2,0.3-0.3,0.5-0.5c0.5-0.5,0.9-0.9,1.4-1.4c0.3-0.3,0.7-0.9,1.2-1
		c-0.6,0.6-0.9,1.1-1.4,1.7C77.2,26,76.4,27,75.5,28c-0.7,0.8-1.5,1.4-2.6,1c-0.6-0.1-0.9,0.1-1.2,0.6c-0.1,0.1-0.2,0.3-0.3,0.5
		c-1.9,2.2-3.8,4.2-5.8,6.3c-0.9,1-1.9,2.1-2.9,3.2c-0.3,0.3-0.6,0.7-0.9,1c1.1,1.2,2.4,2.2,3.8,3l1.6,0.8c2.2,1,4.6,1.6,7.2,1.6
		c9.7,0,17.5-7.9,17.5-17.7C91.8,18.4,83.9,10.5,74.3,10.5z M71.7,39.8c0.1,0,0.1,0,0.2,0.1c1.5,0.4,3.1,0.5,4.6,0.3
		c0.6-0.1,1.1-0.2,1.7-0.4c1-0.3,2-0.8,2.9-1.5c1.4-1,2.6-2.3,3.5-3.9c0.1-0.1,0.2-0.3,0.2-0.4c0.1-0.3,0.3-0.6,0.4-0.9
		c0.1-0.3,0.2-0.6,0.3-0.9c0.1-0.2,0.1-0.4,0.2-0.7c0.1-0.2,0.1-0.5,0.1-0.7c0.1-0.7,0.2-1.5,0.3-2.2c0.6,1.9-0.7,6.3-2.4,8.2
		c-0.3,0.3-0.5,0.6-0.8,0.9c-0.3,0.3-0.6,0.5-0.9,0.8c-0.4,0.3-0.8,0.6-1.3,0.8c-0.2,0.1-0.4,0.3-0.7,0.4l0,0
		c-0.7,0.3-1.4,0.5-2.1,0.7c-0.5,0.1-0.9,0.2-1.4,0.2l0,0h-0.1c-0.1,0-0.1,0-0.2,0h-0.1H76h-0.1c-0.1,0-0.2,0-0.3,0
		c-0.1,0-0.1,0-0.1,0h-0.1h-0.1c-0.1,0-0.2,0-0.4,0c-0.1,0-0.2,0-0.2,0c-0.1,0-0.1,0-0.2,0s-0.1,0-0.2,0s-0.2,0-0.3,0
		c-0.2,0-0.3,0-0.5-0.1c-0.1,0-0.2,0-0.2-0.1c-0.1,0-0.1,0-0.2,0c-0.3-0.1-0.5-0.2-0.8-0.3s-0.6-0.2-0.9-0.3
		C71.4,39.8,71.5,39.8,71.7,39.8z"/>
	<path class="st2" d="M46.1,57.9c-0.1,0.6,0,1,0,1.6c0.2,2.1,0.1,4.2,0.1,6.3c0,1.8,0,3.6,0,5.6c0,0.7-0.2,0.8-0.8,0.8
		c-0.9,0-1.9,0-2.8,0c-0.7,0-0.8-0.1-0.8-0.8c0-3.2,0-6.5,0-9.7c0-2.8,0-5.8,0-8.6c0-0.7,0.1-0.9,0.8-0.9c1.2,0,2.5,0.1,3.6,0
		c0.9-0.1,1.2,0.6,1.6,1.1c0.9,1.6,1.7,3.1,2.6,4.5c1,1.9,2.1,3.6,2.8,5.7c0.2,0.6,0.6,1,0.7,1.6c0,0,0,0.1,0.1,0.1l0.1-0.1
		c0-0.1,0-0.3,0-0.5c-0.1-3.4-0.2-6.7-0.1-10.2c0-0.5,0-1,0-1.5s0.2-0.7,0.7-0.7c0.9,0,1.9,0,2.9,0c0.6,0,0.7,0.1,0.7,0.7
		c0,2.6,0,5.2,0,7.8c0,3.5,0,7,0,10.7c0,0.9,0,0.9-0.9,0.9c-1.1,0-2.2,0-3.3,0c-0.4,0-0.8-0.2-1-0.7c-1-1.9-1.9-3.7-3-5.6
		c-0.7-1.2-1.5-2.5-2.1-3.9c-0.6-1.1-1.1-2.3-1.6-3.3C46.3,58.4,46.1,58.2,46.1,57.9z"/>
	<path class="st2" d="M129.3,58.1c-0.2,0.2-0.1,0.5-0.1,0.7c0.1,4.2,0,8.3,0,12.4c0,0.8,0,0.8-0.8,0.8c-0.9,0-1.9,0-2.8,0
		c-0.4,0-0.6-0.1-0.6-0.6c0-0.3,0-0.7,0-1c0-5.9,0-11.8,0-17.7c0-0.8,0-0.8,0.8-0.8c1.2,0,2.5,0,3.6,0c0.6,0,0.9,0.1,1.1,0.7
		c1,1.8,2,3.6,3,5.4c0.6,1,1.2,2,1.7,3.1c0.7,1.4,1.5,2.7,1.9,4.2c0,0,0,0,0.1,0.1c0.2-0.2,0.1-0.3,0.1-0.6
		c-0.2-1.9-0.3-3.7-0.3-5.7c0-2.2,0-4.3,0-6.5c0-0.7,0.1-0.7,0.7-0.7c0.9,0,1.9,0,2.8,0c0.6,0,0.7,0.1,0.7,0.7c0,6.2,0,12.5,0,18.7
		c0,0.5-0.2,0.7-0.7,0.7c-1.2,0-2.6,0-3.9,0c-0.2,0-0.3-0.1-0.4-0.3c-0.6-1-1.1-1.9-1.6-2.9c-0.9-1.7-1.9-3.3-2.8-5.1
		C130.9,61.8,129.9,60.1,129.3,58.1C129.4,58.2,129.3,58.2,129.3,58.1z"/>
	<path class="st2" d="M26.7,59.5c0,1.7-0.1,3.9,0.1,5.9c0.1,1.2,0.7,2.5,1.9,2.9c1.6,0.7,3.6,0.3,4.4-1.6c0.4-1.1,0.7-2.3,0.7-3.5
		c0-3.5,0-7,0-10.4c0-0.7,0.1-0.7,0.7-0.7c1.1,0,2.1,0,3.3,0c0.3,0,0.6,0.2,0.6,0.6c0,4,0,8,0,12c0,1.6-0.6,3.2-1.5,4.6
		c-1.2,1.9-3.1,2.8-5.4,2.9c-1.1,0.1-2.2,0.1-3.3,0c-2.2-0.5-4-1.6-5-3.9c-0.8-1.7-0.9-3.5-0.9-5.4c0-3.4,0-6.9,0-10.3
		c0-0.6,0.1-0.7,0.7-0.7c1,0,2.1,0,3.1,0c0.8,0,0.9,0.1,0.9,0.9C26.7,55,26.7,57.1,26.7,59.5z"/>
	<path class="st2" d="M71.6,72.4c-1.2,0.1-2.6,0-3.8-0.5c-2.4-0.8-4.3-2.2-5.5-4.4c-1-1.9-1.2-4.1-1.1-6.2c0.1-1.5,0.4-2.8,1.1-4.2
		c0.7-1.4,1.6-2.5,2.8-3.4c1.6-1.1,3.4-1.8,5.4-1.9c1.1,0,2.1,0,3.3,0c0.9,0,1.8,0.2,2.7,0.6c0.4,0.2,0.4,0.5,0.3,0.8
		c-0.1,0.5-0.3,1-0.4,1.5c-0.1,0.3-0.2,0.8-0.3,1.1c0,0.3-0.3,0.5-0.7,0.3c-1.8-0.7-3.6-0.8-5.4-0.3c-1.6,0.5-2.6,1.4-3.4,2.8
		c-0.3,0.8-0.6,1.6-0.7,2.5c0,1-0.1,2.2,0.2,3.2c0.3,1,0.8,1.9,1.6,2.6c1.2,1,2.7,1.5,4.3,1.5c1.1,0,2.1-0.2,3.1-0.5
		c0.7-0.1,0.8,0,0.8,0.6c0,0.7,0.3,1.4,0.3,2c0.1,0.9-0.1,1.1-0.9,1.2C74.2,72.3,72.9,72.4,71.6,72.4z"/>
	<path class="st2" d="M88.2,64c0,2.5,0,5,0,7.4c0,0.7,0,0.7-0.7,0.7c-1,0-2,0-3,0c-0.8,0-1-0.1-1-1c0-4.8,0-9.6,0-14.4
		c0-0.7,0-0.7-0.7-0.7c-1.2,0-2.6,0-3.8,0c-0.7,0-0.7-0.1-0.7-0.7c0-0.8,0-1.6,0-2.4c0-0.7,0.1-0.8,0.8-0.8c3.7,0,7.3,0,11,0
		c0.9,0,1.8,0,2.7,0c0.7,0,0.8,0.1,0.8,0.8c0,0.8,0,1.6,0,2.5c0,0.7-0.1,0.7-0.8,0.7c-1.2,0-2.6,0-3.9,0c-0.7,0-0.7,0-0.7,0.7
		C88.2,59.1,88.2,61.5,88.2,64L88.2,64z"/>
	<path class="st2" d="M18.5,59.9c0,2.3,0.1,4.6-0.1,6.9c-0.2,1.8-0.9,3.5-2.6,4.5c-0.9,0.6-2,0.9-3.1,0.9s-2.2,0-3.4-0.1
		c-0.3,0-0.6-0.1-0.8-0.2s-0.3-0.3-0.3-0.6c0.1-0.9,0.1-1.9,0.3-2.7C8.6,68,8.8,68,9.4,68.1c1.2,0.3,2.4,0.3,3.5-0.3
		c0.3-0.2,0.6-0.6,0.7-0.9c0.2-0.7,0.4-1.2,0.4-2c0-4.1,0-8.2,0-12.1c0-0.7,0-0.8,0.8-0.8c1,0,2.1,0,3.1,0c0.5,0,0.7,0.1,0.7,0.6
		c0,1.6,0,3.2,0,4.8C18.5,58.2,18.5,59.1,18.5,59.9z"/>
	<path class="st2" d="M100.4,62.1c0,3.1,0,6.1,0,9.3c0,0.7,0,0.7-0.7,0.7c-1,0-2.1,0-3.1,0c-0.7,0-0.7-0.1-0.7-0.8
		c0-6.1,0-12.1,0-18.2c0-0.1,0-0.3,0-0.5c0-0.3,0.2-0.6,0.6-0.6c1.1,0,2.4,0,3.5,0c0.4,0,0.6,0.3,0.6,0.7
		C100.3,55.8,100.3,59,100.4,62.1L100.4,62.1z"/>
	<path class="st2" d="M71.6,39.8c-0.1,0-0.3,0-0.4,0.1C71.4,39.7,71.5,39.7,71.6,39.8z"/>
	<path class="st2" d="M73,40.4c0.1,0,0.3,0.1,0.4,0.1C73.3,40.5,73.1,40.5,73,40.4z"/>
	<path class="st2" d="M73.4,40.6c0.4,0.1,0.7,0.1,1.1,0.2C74.2,40.7,73.8,40.6,73.4,40.6z"/>
	<path class="st2" d="M86,28.7c-0.1,0.7-0.2,1.4-0.3,2.2c-0.2,1.2-0.6,2.4-1.2,3.5c-0.8,1.6-2,2.9-3.5,3.9l0,0
		c-0.9,0.6-1.9,1.1-2.9,1.5c-0.5,0.2-1.1,0.3-1.7,0.4c0.5-0.1,1-0.2,1.6-0.4c1.2-0.4,2.2-1,3.2-1.7l0,0l0,0c1.3-0.9,2.4-2.1,3.2-3.6
		c0.6-1,1-2.3,1.2-3.5c0.1-0.8,0.2-1.6,0.3-2.4C86,28.6,86,28.7,86,28.7z"/>
	<path class="st2" d="M121.7,58.5c-0.4-1.4-1-2.7-1.9-3.8c-1.1-1.4-2.6-2.4-4.4-2.8c-1.4-0.3-2.6-0.2-3.9-0.2
		c-2.5,0.1-4.5,1.2-6.1,3.1c-1.2,1.5-1.9,3.2-2.2,5.1c-0.3,2.8-0.1,5.4,1.2,7.9c1.2,2.4,3.1,3.8,5.7,4.3c2.3,0.4,4.5,0.3,6.6-0.7
		c2.1-0.9,3.6-2.6,4.5-4.8c0.6-1.4,0.9-2.7,0.9-4.2C122.2,61.3,122.3,60,121.7,58.5z M117.4,62.5c-0.1,1.1-0.2,2.7-1.1,4.2l0,0
		c-0.8,1.2-1.9,2-3.3,2h-0.1c-0.1,0-0.2,0-0.3,0c-0.1,0-0.1,0-0.1,0c-0.1,0-0.2,0-0.3,0h-0.1H112c-0.1,0-0.1,0-0.2-0.1
		c-0.1,0-0.1,0-0.2,0c0,0,0,0-0.1,0l0,0l0,0c-0.2-0.1-0.4-0.1-0.5-0.2c-0.1,0-0.2-0.1-0.3-0.1c-0.3-0.2-0.5-0.4-0.7-0.6
		c-0.1-0.1-0.2-0.2-0.3-0.4c-0.1-0.1-0.2-0.3-0.3-0.4c-0.1-0.1-0.2-0.3-0.3-0.5l0,0c-1.2-2.3-1.2-4.8-0.6-7.1c0-0.1,0-0.2,0.1-0.2
		c0-0.1,0-0.1,0.1-0.2c0,0,0-0.1,0.1-0.1c0,0,0-0.1,0.1-0.2c0-0.1,0.1-0.2,0.1-0.3l0,0l0,0v-0.1c0.1-0.1,0.1-0.3,0.2-0.4
		c0,0,0-0.1,0.1-0.1c0,0,0-0.1,0.1-0.1c0,0,0-0.1,0.1-0.1c0-0.1,0.1-0.1,0.1-0.2c0,0,0-0.1,0.1-0.1c0,0,0.1,0,0.1-0.1
		c0,0,0.1-0.1,0.1-0.2l0.1-0.1l0.1-0.1c0,0,0.1,0,0.1-0.1c0,0,0.1,0,0.1-0.1c0,0,0.1,0,0.1-0.1c0,0,0.1,0,0.1-0.1c0,0,0.1,0,0.1-0.1
		l0.1-0.1c0.1,0,0.1-0.1,0.2-0.1l0,0c0.1,0,0.1-0.1,0.2-0.1l0.1-0.1h0.1c0.1,0,0.1-0.1,0.2-0.1h0.1h0.1h0.1h0.1c0.1,0,0.1,0,0.2,0
		s0.2,0,0.3-0.1h0.1c0.1,0,0.2,0,0.3,0c0.1,0,0.3,0,0.4,0l0,0h0.1c0.1,0,0.1,0,0.2,0s0.1,0,0.2,0s0.2,0,0.3,0.1h0.1h0.1h0.1h0.1h0.1
		h0.1h0.1c0.1,0,0.1,0.1,0.2,0.1h0.1c0.1,0,0.1,0,0.2,0.1h0.1c0,0,0,0,0.1,0c0,0,0,0,0.1,0c0.2,0.1,0.3,0.2,0.5,0.3l0.1,0.1
		c0,0,0,0,0.1,0c0,0,0.1,0,0.1,0.1c0.1,0.1,0.1,0.1,0.2,0.2l0.1,0.1c0,0,0,0.1,0.1,0.1c0,0,0,0,0.1,0.1c0,0.1,0.1,0.1,0.1,0.2
		c0,0,0,0,0,0.1l0.1,0.1v0.1v0.1l0,0l0,0c0,0,0,0.1,0.1,0.1c0.1,0.1,0.1,0.2,0.1,0.3s0.1,0.2,0.1,0.3c0.1,0.2,0.1,0.4,0.2,0.5
		c0.1,0.3,0.2,0.6,0.2,0.8l0,0c0.1,0.3,0.1,0.6,0.1,0.9c0,0,0,0,0,0.1c0,0.2,0.1,0.5,0.1,0.7l0,0c0,0.1,0,0.1,0,0.2v0.1
		c0,0.1,0,0.2,0,0.3L117.4,62.5L117.4,62.5z"/>
	<path class="st2" d="M76.4,40.1c-1.5,0.3-3.1,0.1-4.6-0.3c-0.1,0-0.1-0.1-0.2-0.1c0.1,0,0.2,0,0.3,0.1
		C73.4,40.2,74.9,40.3,76.4,40.1z"/>
	<path class="st2" d="M83.7,36.9c-1.1,1.3-2.3,2.3-3.8,3l0,0c-0.6,0.3-1.2,0.4-1.9,0.5c-1.1,0.2-2,0.3-2.7,0.3
		c0.7,0,1.5-0.1,2.6-0.3c0.7-0.1,1.5-0.3,2.1-0.7l0,0l0,0c1.3-0.6,2.6-1.6,3.6-2.9c1.7-1.9,3-6.3,2.4-8.2c0-0.1,0-0.1,0-0.2
		C86.8,30.2,85.4,35,83.7,36.9z"/>
	<path class="st2" d="M111,55.9L111,55.9C110.9,56,110.9,56,111,55.9L111,55.9L111,55.9z"/>
	<path class="st2" d="M112.1,55.6c-0.2,0-0.4,0.1-0.6,0.1C111.7,55.7,111.9,55.6,112.1,55.6z"/>
	<path class="st2" d="M111.9,68.7L111.9,68.7c-1.2-0.2-2.3-1-2.9-2.3C109.7,67.6,110.7,68.4,111.9,68.7z"/>
	<path class="st2" d="M112.9,55.6c-0.2,0-0.4,0-0.6,0C112.4,55.6,112.6,55.6,112.9,55.6z"/>
	<path class="st2" d="M115.9,57c-0.1-0.1-0.1-0.1-0.2-0.2C115.8,56.9,115.8,56.9,115.9,57z"/>
	<path class="st2" d="M116.3,57.6L116.3,57.6L116.3,57.6C116.4,57.7,116.4,57.7,116.3,57.6C116.4,57.7,116.4,57.7,116.3,57.6z"/>
	<path class="st2" d="M117.3,61.8c-0.1-1.4-0.3-2.5-0.8-3.6c0.5,1.1,0.7,2.2,0.8,3.7C117.3,61.8,117.3,61.8,117.3,61.8z"/>
	<path class="st2" d="M117.4,62.5c0,1.2-0.2,2.8-1.1,4.2C117.1,65.2,117.2,63.6,117.4,62.5c0-0.1,0-0.3,0-0.4
		C117.4,62.3,117.4,62.4,117.4,62.5z"/>
	<g>
		<g>
			<polyline class="st3" points="60.1,39 59.2,37.1 59.2,37.1 58,34.7 58,34.7 57.9,34.5 			"/>
		</g>
		<path class="st2" d="M69.9,18.3c-6.9,0-12.5,5.4-13,12.2c0,0.3,0,0.6,0,1l0.3,0.4l0.2,0.2l0,0c0.8-0.7,1.6-1.5,2.2-2.3
			c1.6-1.6,3-3.1,4.5-4.5c1.5-1.6,2.9-3.2,4.4-4.6c0.2-0.2,0.4-0.6,0.9-0.6c0.9,0,1.8-0.1,2.7,0c0.4,0,0.4,0.2,0.3,0.7
			c-0.2,0.7-0.7,1.1-0.9,1.6c-1.7,2.3-3.6,4.2-5.7,6.2c-0.3,0.3-0.7,0.5-1.1,0.2c-0.4-0.2-0.8-0.2-1.2,0c-0.8,0.5-1.3,1.1-1.9,1.8
			c-1,1.1-1.9,2.2-2.9,3.3l2.8,3.9c1.5-1.5,3-2.9,4.5-4.4c1-1,2.1-2,3.1-3.1c0.7-0.6,1.2-1.2,1.9-1.8c0.3-0.3,0.7-0.8,0.6-1.4
			c-0.3-0.9,0-1.6,0.7-2.3c1.3-1.4,2.8-2.6,4.2-3.9c0.1-0.1,0.2-0.1,0.3,0c0.1,0.1-0.1,0.2-0.1,0.3c-0.9,0.9-1.7,1.8-2.6,2.6
			c-0.2,0.2-0.3,0.5-0.1,0.7c0.3,0.2,0.4,0,0.7-0.2c0.7-0.7,1.2-1.2,1.9-1.8c0.1-0.1,0.8-0.6,0.9-0.5s-0.6,0.7-0.7,0.7
			c-0.6,0.3-0.8,0.9-1.2,1.2c-0.3,0.2-0.4,0.6-0.7,0.8c-0.1,0.2-0.2,0.5,0,0.7s0.4,0,0.6-0.1c0.7-0.7,1.2-1.2,1.9-1.9
			c0.3-0.3,0.7-0.6,0.9-0.9c0,0,0,0.1,0.1,0.1c-0.3,0.3-0.7,0.8-1,1.2c-0.6,0.7-1.1,1.2-1.7,1.9c-0.1,0.1-0.3,0.3-0.1,0.6
			c0.2,0.2,0.4,0.2,0.7,0c0,0,0.1,0,0.1-0.1c0.7-0.7,1.2-1.2,1.9-1.9c0.3-0.3,0.7-0.9,1.2-1c-0.6,0.6-0.9,1.1-1.3,1.7
			c-0.8,0.9-1.6,1.9-2.5,2.8c-0.7,0.8-1.5,1.4-2.6,1c-0.6-0.1-0.9,0.1-1.2,0.6c-0.1,0.1-0.2,0.3-0.3,0.5c-1.9,2.2-3.8,4.2-5.8,6.3
			c-0.9,1-1.9,2.1-2.9,3.2l2.8,4l1.6,0.8c0.9,0.2,1.9,0.3,2.8,0.3c4,0,7.6-1.8,10-4.7l0,0l0.1-0.1c-0.7,0.3-1.4,0.5-2.1,0.7
			c-1,0.2-1.8,0.3-2.5,0.3h-0.1h-0.1c-0.1,0-0.2,0-0.4,0c-0.1,0-0.2,0-0.2,0c-0.1,0-0.1,0-0.2,0c-0.3,0-0.6-0.1-0.9-0.1l0,0
			c-0.1,0-0.3-0.1-0.4-0.1c-0.5-0.1-1.1-0.3-1.8-0.6c0.1-0.1,0.3-0.1,0.4-0.1c0,0,0.1,0.1,0.2,0.1c1.5,0.4,3.1,0.5,4.6,0.3
			c0.6-0.1,1.1-0.2,1.7-0.4c1-0.4,2-0.8,2.9-1.5l0,0c0.1-0.1,0.1-0.2,0.2-0.3l0,0l0,0l0,0l0,0c1.1-1.9,1.7-4.2,1.7-6.6
			C82.9,24.2,77.1,18.3,69.9,18.3z"/>
	</g>
</g>
<rect x="29.6" y="90.5" class="st3" width="91.1" height="8.7"/>
<g>
	<path class="st4" d="M146.9,85.4c-0.5,0.8-0.5,1.5-0.1,2.2c0.3,0.5,0.4,1,0.6,1.5c0.3,0.9,0.2,1.4-0.7,1.8c-0.7,0.4-1.4,0.7-2,1.1
		c-0.3,0.2-0.5,0.5-0.6,0.8c-0.2,0.8-0.3,1.5-0.4,2.3c-0.2,0.9-0.6,1.3-1.5,1.2c-0.8-0.1-1.5-0.3-2.3-0.3c-0.3,0-0.7,0.1-0.9,0.3
		c-0.6,0.5-1.1,1.1-1.7,1.6c-0.6,0.6-1.2,0.6-1.9,0c-0.6-0.5-1.1-1.1-1.7-1.6c-0.2-0.2-0.6-0.3-0.9-0.3c-0.7,0.1-1.4,0.2-2.1,0.3
		c-1,0.1-1.6-0.3-1.8-1.3c-0.1-0.5-0.2-1.1-0.2-1.6c0-0.8-0.4-1.3-1.1-1.6c-0.4-0.2-0.8-0.4-1.3-0.6c-1.1-0.6-1.3-1.2-0.8-2.3
		c0.3-0.6,0.6-1.2,0.9-1.9c0.1-0.3,0.1-0.6,0-0.9c-0.3-0.7-0.7-1.3-1-2c-0.5-0.9-0.3-1.6,0.7-2.1c0.6-0.3,1.2-0.6,1.8-0.9
		c0.5-0.2,0.8-0.6,0.8-1.2c0.1-0.7,0.2-1.4,0.3-2.2c0.2-0.8,0.6-1.1,1.5-1.1c0.7,0.1,1.5,0.2,2.3,0.4c0.5,0.1,0.8,0,1.1-0.3
		c0.6-0.6,1.2-1.1,1.8-1.7c0.6-0.5,1.2-0.5,1.8,0c0.6,0.6,1.1,1.2,1.7,1.7c0.2,0.2,0.6,0.3,0.9,0.3c0.7-0.1,1.4-0.2,2.1-0.3
		c1.1-0.2,1.6,0.3,1.8,1.3c0,0.2,0.1,0.4,0.1,0.6c-0.1,1.6,0.7,2.5,2.1,2.9c0.2,0.1,0.5,0.2,0.7,0.4c0.7,0.4,1,1.1,0.6,1.9
		C147.4,84.4,147.2,85,146.9,85.4z"/>
	<path class="st5" d="M138.6,81.4c0-0.4,0.1-0.8,0.3-1c0.2-0.3,0.5-0.4,0.9-0.4s0.7,0.1,0.9,0.4s0.4,0.6,0.4,1.1s-0.1,0.9-0.4,1.1
		s-0.5,0.4-0.9,0.4c-0.3,0-0.6-0.1-0.9-0.4S138.6,81.9,138.6,81.4z M139.8,80.4c-0.2,0-0.3,0.1-0.4,0.2c-0.1,0.2-0.2,0.4-0.2,0.8
		s0.1,0.6,0.2,0.8s0.3,0.2,0.4,0.2c0.2,0,0.3-0.1,0.4-0.2c0.1-0.2,0.2-0.4,0.2-0.8s-0.1-0.6-0.2-0.8S140,80.4,139.8,80.4z
		 M139.8,85.9l3.1-6h0.6l-3.1,6H139.8z M142.3,84.4c0-0.4,0.1-0.8,0.3-1c0.2-0.3,0.5-0.4,0.9-0.4s0.7,0.1,0.9,0.4s0.4,0.6,0.4,1.1
		s-0.1,0.9-0.4,1.1s-0.5,0.4-0.9,0.4c-0.3,0-0.6-0.1-0.9-0.4S142.3,84.9,142.3,84.4z M143.5,83.4c-0.2,0-0.3,0.1-0.4,0.2
		c-0.1,0.2-0.2,0.4-0.2,0.8s0.1,0.6,0.2,0.8s0.3,0.2,0.4,0.2c0.2,0,0.3-0.1,0.4-0.2c0.1-0.2,0.2-0.4,0.2-0.8s-0.1-0.6-0.2-0.8
		S143.7,83.4,143.5,83.4z"/>
	<path class="st5" d="M129.6,90.9c0-1,0.3-1.7,0.8-2.2s1.2-0.8,2-0.8c0.5,0,1,0.1,1.4,0.4s0.7,0.6,1,1.1s0.3,1,0.3,1.5
		c0,0.6-0.1,1.1-0.4,1.6s-0.6,0.8-1,1s-0.9,0.4-1.4,0.4s-1-0.1-1.4-0.4s-0.7-0.6-1-1.1S129.6,91.4,129.6,90.9z M130.3,91
		c0,0.7,0.2,1.2,0.6,1.6s0.8,0.6,1.4,0.6c0.6,0,1-0.2,1.4-0.6s0.6-1,0.6-1.7c0-0.5-0.1-0.9-0.2-1.2c-0.2-0.3-0.4-0.6-0.7-0.8
		c-0.3-0.2-0.6-0.3-1-0.3c-0.5,0-1,0.2-1.4,0.6S130.3,90.1,130.3,91z"/>
	<path class="st5" d="M135.3,93.7V88h3.9v0.7h-3.1v1.8h2.7v0.7h-2.7v2.6L135.3,93.7L135.3,93.7z"/>
	<path class="st5" d="M139.5,93.7V88h3.9v0.7h-3.1v1.8h2.7v0.7h-2.7v2.6L139.5,93.7L139.5,93.7z"/>
	<g>
		<path class="st2" d="M131.7,85.8H131v-4.5c-0.2,0.2-0.4,0.3-0.7,0.5s-0.5,0.3-0.7,0.4v-0.7c0.4-0.2,0.7-0.4,1-0.7s0.5-0.5,0.6-0.8
			h0.5L131.7,85.8L131.7,85.8z"/>
		<path class="st2" d="M133.5,83c0-0.7,0.1-1.2,0.2-1.6s0.3-0.7,0.6-1s0.6-0.3,1-0.3c0.3,0,0.6,0.1,0.8,0.2s0.4,0.3,0.6,0.5
			s0.3,0.5,0.4,0.9s0.1,0.8,0.1,1.4c0,0.7-0.1,1.2-0.2,1.6s-0.3,0.7-0.6,1s-0.6,0.3-1,0.3c-0.6,0-1-0.2-1.3-0.6
			C133.7,84.8,133.5,84,133.5,83z M134.2,83c0,0.9,0.1,1.6,0.3,1.9s0.5,0.5,0.8,0.5s0.6-0.2,0.8-0.5s0.3-0.9,0.3-1.9
			c0-0.9-0.1-1.6-0.3-1.9s-0.5-0.5-0.8-0.5s-0.6,0.1-0.8,0.4C134.3,81.4,134.2,82,134.2,83z"/>
	</g>
</g>
<g class="st6">
	<path class="st2" d="M24.9,95.9v-5.7h2.5c0.5,0,0.9,0.1,1.2,0.2s0.5,0.3,0.6,0.5s0.2,0.5,0.2,0.9c0,0.4-0.1,0.7-0.4,1
		s-0.7,0.5-1.2,0.5c0.2,0.1,0.4,0.2,0.5,0.3c0.2,0.2,0.4,0.5,0.6,0.8l1,1.6h-1l-0.8-1.2c-0.2-0.3-0.4-0.6-0.5-0.8s-0.3-0.3-0.4-0.4
		s-0.2-0.1-0.3-0.2c-0.1,0-0.2,0-0.4,0h-0.9v2.5H24.9z M25.7,92.7h1.6c0.3,0,0.6,0,0.8-0.1s0.3-0.2,0.4-0.3s0.2-0.3,0.2-0.5
		c0-0.3-0.1-0.5-0.3-0.7s-0.5-0.3-0.9-0.3h-1.8V92.7z"/>
	<path class="st2" d="M30.7,95.9v-5.7h4.1v0.7h-3.4v1.8h3.2v0.7h-3.2v1.9H35v0.7H30.7z"/>
	<path class="st2" d="M35.8,94.1l0.7-0.1c0,0.3,0.1,0.5,0.2,0.7s0.3,0.3,0.6,0.4s0.6,0.2,0.9,0.2c0.3,0,0.5,0,0.8-0.1
		s0.4-0.2,0.5-0.4s0.2-0.3,0.2-0.5c0-0.2-0.1-0.3-0.2-0.5s-0.3-0.2-0.5-0.3c-0.2-0.1-0.5-0.2-1-0.3S37,93,36.8,92.9
		c-0.3-0.1-0.5-0.3-0.6-0.5S36,91.9,36,91.7c0-0.3,0.1-0.6,0.2-0.8s0.4-0.4,0.7-0.6s0.7-0.2,1.1-0.2c0.4,0,0.8,0.1,1.1,0.2
		s0.6,0.3,0.7,0.6s0.3,0.6,0.3,0.9l-0.7,0.1c0-0.4-0.2-0.6-0.4-0.8s-0.6-0.3-1-0.3c-0.5,0-0.8,0.1-1,0.3s-0.3,0.4-0.3,0.6
		c0,0.2,0.1,0.4,0.2,0.5c0.1,0.1,0.5,0.3,1.1,0.4s1,0.3,1.3,0.4c0.3,0.2,0.6,0.3,0.7,0.6s0.2,0.5,0.2,0.8c0,0.3-0.1,0.6-0.3,0.9
		s-0.4,0.5-0.8,0.6S38.6,96,38.2,96c-0.5,0-1-0.1-1.3-0.2s-0.6-0.4-0.8-0.7S35.8,94.5,35.8,94.1z"/>
	<path class="st2" d="M42.8,95.9v-5.1h-1.9v-0.7h4.5v0.7h-1.9v5.1H42.8z"/>
	<path class="st2" d="M45,95.9l2.2-5.7H48l2.3,5.7h-0.9l-0.7-1.7h-2.4l-0.6,1.7H45z M46.7,93.6h1.9L48,92c-0.2-0.5-0.3-0.9-0.4-1.2
		c-0.1,0.4-0.2,0.7-0.3,1.1L46.7,93.6z"/>
	<path class="st2" d="M54.7,90.2h0.8v3.3c0,0.6-0.1,1-0.2,1.4s-0.4,0.6-0.7,0.8S53.8,96,53.3,96c-0.5,0-1-0.1-1.3-0.3
		s-0.6-0.5-0.7-0.8S51,94.1,51,93.5v-3.3h0.8v3.3c0,0.5,0,0.9,0.1,1.1s0.3,0.4,0.5,0.5s0.5,0.2,0.8,0.2c0.6,0,1-0.1,1.2-0.4
		s0.4-0.7,0.4-1.5V90.2z"/>
	<path class="st2" d="M56.8,95.9v-5.7h2.5c0.5,0,0.9,0.1,1.2,0.2s0.5,0.3,0.6,0.5s0.2,0.5,0.2,0.9c0,0.4-0.1,0.7-0.4,1
		s-0.7,0.5-1.2,0.5c0.2,0.1,0.4,0.2,0.5,0.3c0.2,0.2,0.4,0.5,0.6,0.8l1,1.6h-1l-0.8-1.2c-0.2-0.3-0.4-0.6-0.5-0.8s-0.3-0.3-0.4-0.4
		s-0.2-0.1-0.3-0.2c-0.1,0-0.2,0-0.4,0h-0.9v2.5H56.8z M57.5,92.7h1.6c0.3,0,0.6,0,0.8-0.1s0.3-0.2,0.4-0.3s0.2-0.3,0.2-0.5
		c0-0.3-0.1-0.5-0.3-0.7s-0.5-0.3-0.9-0.3h-1.8V92.7z"/>
	<path class="st2" d="M61.9,95.9l2.2-5.7h0.8l2.3,5.7h-0.9l-0.7-1.7h-2.4l-0.6,1.7H61.9z M63.6,93.6h1.9L64.9,92
		c-0.2-0.5-0.3-0.9-0.4-1.2c-0.1,0.4-0.2,0.7-0.3,1.1L63.6,93.6z"/>
	<path class="st2" d="M67.9,95.9v-5.7h0.8l3,4.5v-4.5h0.7v5.7h-0.8l-3-4.5v4.5H67.9z"/>
	<path class="st2" d="M75.1,95.9v-5.1h-1.9v-0.7h4.5v0.7h-1.9v5.1H75.1z"/>
	<path class="st2" d="M77.7,95.9v-0.8h0.8v0.8c0,0.3-0.1,0.5-0.2,0.7c-0.1,0.2-0.3,0.3-0.5,0.4l-0.2-0.3c0.1-0.1,0.3-0.2,0.3-0.3
		s0.1-0.3,0.1-0.5H77.7z"/>
	<path class="st2" d="M81.8,94.1l0.7-0.1c0,0.3,0.1,0.5,0.2,0.7c0.1,0.2,0.3,0.3,0.6,0.4c0.3,0.1,0.6,0.2,0.9,0.2
		c0.3,0,0.5,0,0.8-0.1c0.2-0.1,0.4-0.2,0.5-0.4c0.1-0.1,0.2-0.3,0.2-0.5c0-0.2-0.1-0.3-0.2-0.5c-0.1-0.1-0.3-0.2-0.5-0.3
		c-0.2-0.1-0.5-0.2-1-0.3c-0.5-0.1-0.9-0.2-1.1-0.4c-0.3-0.1-0.5-0.3-0.6-0.5c-0.1-0.2-0.2-0.5-0.2-0.7c0-0.3,0.1-0.6,0.2-0.8
		s0.4-0.4,0.7-0.6c0.3-0.1,0.7-0.2,1.1-0.2c0.4,0,0.8,0.1,1.1,0.2s0.6,0.3,0.7,0.6c0.2,0.3,0.3,0.6,0.3,0.9l-0.7,0.1
		c0-0.4-0.2-0.6-0.4-0.8c-0.2-0.2-0.6-0.3-1-0.3c-0.5,0-0.8,0.1-1,0.3c-0.2,0.2-0.3,0.4-0.3,0.6c0,0.2,0.1,0.4,0.2,0.5
		c0.1,0.1,0.5,0.3,1.1,0.4c0.6,0.1,1,0.3,1.3,0.4c0.3,0.2,0.6,0.3,0.7,0.6c0.2,0.2,0.2,0.5,0.2,0.8c0,0.3-0.1,0.6-0.3,0.9
		c-0.2,0.3-0.4,0.5-0.8,0.6c-0.3,0.1-0.7,0.2-1.1,0.2c-0.5,0-1-0.1-1.3-0.2c-0.4-0.2-0.6-0.4-0.8-0.7S81.8,94.5,81.8,94.1z"/>
	<path class="st2" d="M86.8,95.9l2.2-5.7h0.8l2.3,5.7h-0.9l-0.7-1.7h-2.4l-0.6,1.7H86.8z M88.5,93.6h1.9L89.8,92
		c-0.2-0.5-0.3-0.9-0.4-1.2c-0.1,0.4-0.2,0.7-0.3,1.1L88.5,93.6z"/>
	<path class="st2" d="M92.7,95.9v-5.7h0.8V93l2.8-2.8h1L95,92.5l2.5,3.4h-1l-2-2.9l-0.9,0.9v2H92.7z"/>
	<path class="st2" d="M102.2,93.9l0.8,0.2c-0.2,0.6-0.4,1.1-0.9,1.4c-0.4,0.3-0.9,0.5-1.5,0.5c-0.6,0-1.1-0.1-1.5-0.4
		s-0.7-0.6-0.9-1.1c-0.2-0.5-0.3-1-0.3-1.5c0-0.6,0.1-1.1,0.3-1.6c0.2-0.4,0.6-0.8,1-1c0.4-0.2,0.9-0.3,1.4-0.3
		c0.6,0,1.1,0.1,1.4,0.4s0.7,0.7,0.8,1.2l-0.7,0.2c-0.1-0.4-0.3-0.7-0.6-0.9c-0.3-0.2-0.6-0.3-1-0.3c-0.4,0-0.8,0.1-1.1,0.3
		c-0.3,0.2-0.5,0.5-0.6,0.8c-0.1,0.4-0.2,0.7-0.2,1.1c0,0.5,0.1,0.9,0.2,1.3c0.1,0.4,0.4,0.6,0.7,0.8c0.3,0.2,0.6,0.3,1,0.3
		c0.4,0,0.8-0.1,1.1-0.4C101.9,94.7,102.1,94.4,102.2,93.9z"/>
	<path class="st2" d="M103.9,95.9v-5.7h0.8v2.4h3v-2.4h0.8v5.7h-0.8v-2.7h-3v2.7H103.9z"/>
	<path class="st2" d="M109.8,95.9v-5.7h0.8v5.7H109.8z"/>
</g>
</svg>
