<?xml version="1.0" encoding="utf-8"?>
<!-- Generator: Adobe Illustrator 21.0.0, SVG Export Plug-In . SVG Version: 6.00 Build 0)  -->
<svg version="1.1" id="Layer_1" xmlns="http://www.w3.org/2000/svg" xmlns:xlink="http://www.w3.org/1999/xlink" x="0px" y="0px"
	 viewBox="0 0 150 100" style="enable-background:new 0 0 150 100;" xml:space="preserve">
<style type="text/css">
	.st0{fill:#F7F7F5;}
	.st1{fill:url(#SVGID_1_);}
	.st2{fill:url(#SVGID_2_);}
	.st3{fill:url(#SVGID_3_);}
	.st4{fill:url(#SVGID_4_);}
	.st5{fill:url(#SVGID_5_);}
	.st6{fill:url(#SVGID_6_);}
	.st7{fill:url(#SVGID_7_);}
	.st8{fill:url(#SVGID_8_);}
	.st9{fill:url(#SVGID_9_);}
	.st10{fill:url(#SVGID_10_);}
	.st11{fill:url(#SVGID_11_);}
	.st12{fill:url(#SVGID_12_);}
	.st13{fill:url(#SVGID_13_);}
	.st14{fill:url(#SVGID_14_);}
	.st15{fill:url(#SVGID_15_);}
	.st16{fill:url(#SVGID_16_);}
	.st17{fill:url(#SVGID_17_);}
	.st18{fill:url(#SVGID_18_);}
	.st19{fill:url(#SVGID_19_);}
	.st20{fill:url(#SVGID_20_);}
	.st21{fill:url(#SVGID_21_);}
	.st22{fill:url(#SVGID_22_);}
	.st23{fill:url(#SVGID_23_);}
	.st24{fill:url(#SVGID_24_);}
	.st25{fill:url(#SVGID_25_);}
	.st26{fill:url(#SVGID_26_);}
	.st27{fill:url(#SVGID_27_);}
	.st28{fill:url(#SVGID_28_);}
	.st29{opacity:0.4;fill:#606060;enable-background:new    ;}
	.st30{fill:none;stroke:#020202;stroke-miterlimit:10;}
	.st31{fill:#020202;}
	.st32{enable-background:new    ;}
</style>
<rect class="st0" width="150" height="100"/>
<g>
	
		<linearGradient id="SVGID_1_" gradientUnits="userSpaceOnUse" x1="28.1" y1="-286" x2="28.1" y2="-286" gradientTransform="matrix(1 0 0 -1 0 -248)">
		<stop  offset="0" style="stop-color:#FBB315"/>
		<stop  offset="0.2849" style="stop-color:#F9C013"/>
		<stop  offset="0.3978" style="stop-color:#FBF17F"/>
		<stop  offset="0.8333" style="stop-color:#D99127"/>
	</linearGradient>
	<path class="st1" d="M28.1,38L28.1,38z"/>
	<g>
		
			<linearGradient id="SVGID_2_" gradientUnits="userSpaceOnUse" x1="29.186" y1="-290.3" x2="40.06" y2="-290.3" gradientTransform="matrix(1 0 0 -1 0 -248)">
			<stop  offset="0" style="stop-color:#FBB315"/>
			<stop  offset="0.2849" style="stop-color:#F9C013"/>
			<stop  offset="0.3978" style="stop-color:#FBF17F"/>
			<stop  offset="0.8333" style="stop-color:#D99127"/>
		</linearGradient>
		<path class="st2" d="M33.1,46.5L33,33h-3.8v3.2h1v11.6c0,0,1.5,3.9,4.5,4c0-0.1,3.2,0.7,4.4-4.3c-0.1-0.2,0-11.5,0-11.5H40v-3.2
			h-3.4v12.8c0,0-1.6,3.9-3.5,0.5V46.5z"/>
		
			<linearGradient id="SVGID_3_" gradientUnits="userSpaceOnUse" x1="40.987" y1="-290.1" x2="49.2" y2="-290.1" gradientTransform="matrix(1 0 0 -1 0 -248)">
			<stop  offset="0" style="stop-color:#FBB315"/>
			<stop  offset="0.2849" style="stop-color:#F9C013"/>
			<stop  offset="0.3978" style="stop-color:#FBF17F"/>
			<stop  offset="0.8333" style="stop-color:#D99127"/>
		</linearGradient>
		<polygon class="st3" points="41,33 41,36.3 42.1,36.3 42.1,51.2 49.2,51.2 49.2,46.3 47.2,46.3 47.2,47.5 44.7,47.5 44.7,44.3 
			47.8,44.1 47.8,40.5 44.7,40.2 44.7,36.4 46.4,36.4 46.5,38.4 48.9,38.3 49,33.2 		"/>
		
			<linearGradient id="SVGID_4_" gradientUnits="userSpaceOnUse" x1="50.01" y1="-289.95" x2="58.11" y2="-289.95" gradientTransform="matrix(1 0 0 -1 0 -248)">
			<stop  offset="0" style="stop-color:#FBB315"/>
			<stop  offset="0.2849" style="stop-color:#F9C013"/>
			<stop  offset="0.3978" style="stop-color:#FBF17F"/>
			<stop  offset="0.8333" style="stop-color:#D99127"/>
		</linearGradient>
		<polygon class="st4" points="50,32.8 50,36.2 51.2,36.2 51.2,51.1 58.1,51.1 58.1,46.1 56.1,46.1 56.1,47.4 53.7,47.4 53.7,44.2 
			56.8,43.9 56.8,40.2 53.7,40.1 53.7,36.3 55.4,36.3 55.6,38.3 57.9,38 57.9,33.1 		"/>
		
			<linearGradient id="SVGID_5_" gradientUnits="userSpaceOnUse" x1="135.619" y1="-289.95" x2="143.719" y2="-289.95" gradientTransform="matrix(1 0 0 -1 0 -248)">
			<stop  offset="0" style="stop-color:#FBB315"/>
			<stop  offset="0.2849" style="stop-color:#F9C013"/>
			<stop  offset="0.3978" style="stop-color:#FBF17F"/>
			<stop  offset="0.8333" style="stop-color:#D99127"/>
		</linearGradient>
		<polygon class="st5" points="135.6,32.8 135.6,36.2 136.8,36.2 136.8,51.1 143.7,51.1 143.7,46.1 141.8,46.1 141.8,47.4 
			139.2,47.4 139.2,44.2 142.3,43.9 142.4,40.2 139.2,40.1 139.2,36.3 140.9,36.3 141.2,38.3 143.5,38 143.5,32.8 		"/>
		
			<linearGradient id="SVGID_6_" gradientUnits="userSpaceOnUse" x1="59.15" y1="-290.1" x2="70.025" y2="-290.1" gradientTransform="matrix(1 0 0 -1 0 -248)">
			<stop  offset="0" style="stop-color:#FBB315"/>
			<stop  offset="0.2849" style="stop-color:#F9C013"/>
			<stop  offset="0.3978" style="stop-color:#FBF17F"/>
			<stop  offset="0.8333" style="stop-color:#D99127"/>
		</linearGradient>
		<polygon class="st6" points="62.6,51.2 62.7,41.3 66.8,51.2 69.1,51.2 69.1,36.9 70,36.7 70,33 66.4,33 66.6,43.5 62.6,33 
			60.2,33 60.2,47.5 59.2,47.5 59.2,51.2 		"/>
		
			<linearGradient id="SVGID_7_" gradientUnits="userSpaceOnUse" x1="71.2729" y1="-283.4445" x2="73.958" y2="-283.4445" gradientTransform="matrix(1 0 0 -1 0 -248)">
			<stop  offset="0" style="stop-color:#FBB315"/>
			<stop  offset="0.2849" style="stop-color:#F9C013"/>
			<stop  offset="0.3978" style="stop-color:#FBF17F"/>
			<stop  offset="0.8333" style="stop-color:#D99127"/>
		</linearGradient>
		<path class="st7" d="M74,32.4h-1.7c0,0-0.7,5.7-0.9,6c-0.2,0.2,1.3,0,1.3,0S73.1,37.7,74,32.4z"/>
		
			<linearGradient id="SVGID_8_" gradientUnits="userSpaceOnUse" x1="98.947" y1="-289.9" x2="108.664" y2="-289.9" gradientTransform="matrix(1 0 0 -1 0 -248)">
			<stop  offset="0" style="stop-color:#FBB315"/>
			<stop  offset="0.2849" style="stop-color:#F9C013"/>
			<stop  offset="0.3978" style="stop-color:#FBF17F"/>
			<stop  offset="0.8333" style="stop-color:#D99127"/>
		</linearGradient>
		<polygon class="st8" points="101.1,36.4 101.1,38.5 98.9,38.5 98.9,32.6 108.5,32.6 108.7,38.3 106.3,38.5 106.1,36.3 105.1,36.3 
			105.1,51.2 102.5,51.2 102.4,36.3 		"/>
		
			<linearGradient id="SVGID_9_" gradientUnits="userSpaceOnUse" x1="109.473" y1="-290.25" x2="119.306" y2="-290.25" gradientTransform="matrix(1 0 0 -1 0 -248)">
			<stop  offset="0" style="stop-color:#FBB315"/>
			<stop  offset="0.2849" style="stop-color:#F9C013"/>
			<stop  offset="0.3978" style="stop-color:#FBF17F"/>
			<stop  offset="0.8333" style="stop-color:#D99127"/>
		</linearGradient>
		<polygon class="st9" points="111.8,36.7 111.8,38.6 109.5,38.6 109.5,32.8 119.2,32.8 119.3,38.4 117,38.6 116.8,36.4 115.7,36.4 
			115.7,51.7 113.1,51.7 113.1,36.5 		"/>
		
			<linearGradient id="SVGID_10_" gradientUnits="userSpaceOnUse" x1="119.769" y1="-289.8" x2="124.744" y2="-289.8" gradientTransform="matrix(1 0 0 -1 0 -248)">
			<stop  offset="0" style="stop-color:#FBB315"/>
			<stop  offset="0.2849" style="stop-color:#F9C013"/>
			<stop  offset="0.3978" style="stop-color:#FBF17F"/>
			<stop  offset="0.8333" style="stop-color:#D99127"/>
		</linearGradient>
		<polygon class="st10" points="119.8,32.4 119.8,36.3 120.8,36.3 120.8,47.5 119.8,47.5 119.8,51.2 124.7,51.2 124.7,47.5 
			123.6,47.5 123.6,36.7 124.7,36.4 124.7,32.4 		"/>
		
			<linearGradient id="SVGID_11_" gradientUnits="userSpaceOnUse" x1="125.784" y1="-289.75" x2="135.04" y2="-289.75" gradientTransform="matrix(1 0 0 -1 0 -248)">
			<stop  offset="0" style="stop-color:#FBB315"/>
			<stop  offset="0.2849" style="stop-color:#F9C013"/>
			<stop  offset="0.3978" style="stop-color:#FBF17F"/>
			<stop  offset="0.8333" style="stop-color:#D99127"/>
		</linearGradient>
		<path class="st11" d="M134.2,47.6l-1.3-3.5l0.1-1.2c0,0,1.2-0.8,1.3-4.6c0.2-0.7-0.6-5.4-2.9-6.2c0,0.5-5.7,0.3-5.7,0.3v3.8h0.7
			v15.2h2.9c0,0-0.1-5.6,0-6c0.1-0.3,1.2-0.3,1.2-0.3l1.9,6.2h2.7v-3.7C135,47.6,134.2,47.6,134.2,47.6z M131.7,38.4
			c0,4.4-2.3,3.2-2.3,3.2v-5.4C131.1,35.2,131.9,38.7,131.7,38.4z"/>
		
			<linearGradient id="SVGID_12_" gradientUnits="userSpaceOnUse" x1="88.766" y1="-289.9" x2="100.566" y2="-289.9" gradientTransform="matrix(1 0 0 -1 0 -248)">
			<stop  offset="0" style="stop-color:#FBB315"/>
			<stop  offset="0.2849" style="stop-color:#F9C013"/>
			<stop  offset="0.3978" style="stop-color:#FBF17F"/>
			<stop  offset="0.8333" style="stop-color:#D99127"/>
		</linearGradient>
		<path class="st12" d="M94.8,32.6l-6,18.6h11.8L94.8,32.6z M94.7,39.4l2.4,8.3h-5L94.7,39.4z"/>
		
			<linearGradient id="SVGID_13_" gradientUnits="userSpaceOnUse" x1="74.761" y1="-289.8451" x2="82.287" y2="-289.8451" gradientTransform="matrix(1 0 0 -1 0 -248)">
			<stop  offset="0" style="stop-color:#FBB315"/>
			<stop  offset="0.2849" style="stop-color:#F9C013"/>
			<stop  offset="0.3978" style="stop-color:#FBF17F"/>
			<stop  offset="0.8333" style="stop-color:#D99127"/>
		</linearGradient>
		<path class="st13" d="M82.3,38.3H80c0.1,0,0-1.6,0-1.7c-0.2-0.5-0.9-0.3-1.3-0.3c-0.8,0-1.2,1-0.6,2.1c0.6,1.2,1.6,2.1,2.3,2.8
			c1,0.9,1.5,2,1.7,3.9c0.3,3.1-0.7,6.7-2.5,6.7c-1,0-2.1,0-3-0.8c-0.3-0.2-0.6-0.6-0.9-0.9c-0.2-0.2-0.8-0.7-0.9-1.2
			c0.1,0.2,1.6-3.1,1.6-3.1s0.9,1.7,1.9,1.7c0.5,0,0.6,0.1,0.9-0.1c0.5-0.2,0.6-1.2,0.3-1.9c-0.2-0.5-0.3-0.7-0.7-0.9
			c-0.9-0.7-1.6-1.5-2.3-2.7c-0.5-0.7-0.7-1.6-1-2.8V36c0-0.8,0.3-2.2,0.7-2.7c1-1.6,2.4-1.5,3.6-1.3s2.1,1.3,2.3,3.4
			C82.2,35.8,82.3,38.3,82.3,38.3z"/>
	</g>
	
		<linearGradient id="SVGID_14_" gradientUnits="userSpaceOnUse" x1="7.668" y1="-274.6063" x2="28.144" y2="-274.6063" gradientTransform="matrix(1 0 0 -1 0 -248)">
		<stop  offset="0" style="stop-color:#FBB315"/>
		<stop  offset="0.2849" style="stop-color:#F9C013"/>
		<stop  offset="0.3978" style="stop-color:#FBF17F"/>
		<stop  offset="0.8333" style="stop-color:#D99127"/>
	</linearGradient>
	<path class="st14" d="M8.1,25.1c1.4,1.4,2.9,2.9,4.3,4.4c0-2.2,0-4.2,0-6.2c0.6,0.2,0.9,1.2,1.3,1.9c1.6,2.9,1.6,2.9,2.8-0.7
		c0.5-1.5,1-3.1,1.6-4.9c1.5,2.7,2,5.9,3.4,8.6c0.9-1.7,1.7-3.4,2.8-5.2c0.5,2.3-0.3,4.2,0.1,6.5c1.3-1.4,2.4-2.7,3.6-3.9
		c0.1,0.1,0.2,0.2,0.2,0.2c-1,2.4-2.2,4.7-3.2,7.2c-0.3,0.8-0.8,0.3-1.3,0.2c-3.7-1.3-7.4-1.5-11.1,0.3c-0.7,0.3-1.2,0-1.5-0.9
		c-1-2.4-2.2-4.7-3.4-7.2C8,25.3,8.1,25.2,8.1,25.1z"/>
	
		<linearGradient id="SVGID_15_" gradientUnits="userSpaceOnUse" x1="11.5763" y1="-303.5709" x2="30.8145" y2="-303.5709" gradientTransform="matrix(1 0 0 -1 0 -248)">
		<stop  offset="0" style="stop-color:#FBB315"/>
		<stop  offset="0.2849" style="stop-color:#F9C013"/>
		<stop  offset="0.3978" style="stop-color:#FBF17F"/>
		<stop  offset="0.8333" style="stop-color:#D99127"/>
	</linearGradient>
	<path class="st15" d="M11.6,57.5c-0.3-3.5,2.3-7.9,4.9-8c1.9-0.1,3.5,1,5,2.5c1,1,2.1,2.3,3.1,3.2c2.5,2.2,4.3,1.4,5.8-2.4
		c0.1-0.2,0.3-0.5,0.5-0.9c0.1,4.9-2.7,9.3-5.9,9.7c-2.7,0.3-5.1-0.8-7.2-3.4c-0.3-0.5-0.7-0.9-1.2-1.4
		C13.7,53.1,13.7,53.1,11.6,57.5z"/>
	
		<linearGradient id="SVGID_16_" gradientUnits="userSpaceOnUse" x1="10.5469" y1="-289.923" x2="19.816" y2="-289.923" gradientTransform="matrix(1 0 0 -1 0 -248)">
		<stop  offset="0" style="stop-color:#FBB315"/>
		<stop  offset="0.2849" style="stop-color:#F9C013"/>
		<stop  offset="0.3978" style="stop-color:#FBF17F"/>
		<stop  offset="0.8333" style="stop-color:#D99127"/>
	</linearGradient>
	<path class="st16" d="M19.2,33.4c-3.1,5.4-2,10.3,0.6,15.3c-1-0.2-1.9-0.3-2.5-0.6c-1.4-0.2-2.8,0.1-3.8,1.7
		c-0.9,1.5-1.3,0.6-1.7-0.7c-1-3-1.4-6.2-1-9.6c0.3-3.2,1.4-5.2,3.6-5.7C15.9,33.6,17.4,33,19.2,33.4z"/>
	
		<linearGradient id="SVGID_17_" gradientUnits="userSpaceOnUse" x1="17.039" y1="-265.7" x2="19.006" y2="-265.7" gradientTransform="matrix(1 0 0 -1 0 -248)">
		<stop  offset="0" style="stop-color:#FBB315"/>
		<stop  offset="0.2849" style="stop-color:#F9C013"/>
		<stop  offset="0.3978" style="stop-color:#FBF17F"/>
		<stop  offset="0.8333" style="stop-color:#D99127"/>
	</linearGradient>
	<path class="st17" d="M19,17.7c-0.1,0.8-0.3,1.4-0.9,1.4s-1-0.5-1-1.5c0-0.8,0.5-1.3,1-1.3C18.8,16.3,19,16.8,19,17.7z"/>
	<g>
		
			<linearGradient id="SVGID_18_" gradientUnits="userSpaceOnUse" x1="20.627" y1="-282.1869" x2="23.866" y2="-282.1869" gradientTransform="matrix(1 0 0 -1 0 -248)">
			<stop  offset="0" style="stop-color:#FBB315"/>
			<stop  offset="0.2849" style="stop-color:#F9C013"/>
			<stop  offset="0.3978" style="stop-color:#FBF17F"/>
			<stop  offset="0.8333" style="stop-color:#D99127"/>
		</linearGradient>
		<path class="st18" d="M20.6,34.8c0,0,2.3-2.3,3.2-0.6L20.6,34.8z"/>
		
			<linearGradient id="SVGID_19_" gradientUnits="userSpaceOnUse" x1="22.5" y1="-285.2" x2="22.5" y2="-285.2" gradientTransform="matrix(1 0 0 -1 0 -248)">
			<stop  offset="0" style="stop-color:#FBB315"/>
			<stop  offset="0.2849" style="stop-color:#F9C013"/>
			<stop  offset="0.3978" style="stop-color:#FBF17F"/>
			<stop  offset="0.8333" style="stop-color:#D99127"/>
		</linearGradient>
		<path class="st19" d="M22.5,37.2"/>
		
			<linearGradient id="SVGID_20_" gradientUnits="userSpaceOnUse" x1="23.287" y1="-290.15" x2="27.1185" y2="-290.15" gradientTransform="matrix(1 0 0 -1 0 -248)">
			<stop  offset="0" style="stop-color:#FBB315"/>
			<stop  offset="0.2849" style="stop-color:#F9C013"/>
			<stop  offset="0.3978" style="stop-color:#FBF17F"/>
			<stop  offset="0.8333" style="stop-color:#D99127"/>
		</linearGradient>
		<path class="st20" d="M23.5,50.9c1.5,0,2.3-0.7,2.9-2.9c0.5-1.9,0.7-3.8,0.7-5.8c0.1-2.8-0.5-6-1.9-7.9c-0.3-0.5-0.7-0.7-1.2-0.9
			c0.1,1.3-0.2,2.8,0,4c0.1,1.2,0.7,1.7,1,2.7c0.6,1.7-0.2,1.2-0.9,1.4c0,0.2-0.1,0.9,0,1.3c0.2,0.5,0.8,0.2,0.7,1.2
			c-0.2,0-1,0.2-1.2,0.6c-0.5,1.2,0.7,1.3,1.2,1.3c-0.1,0.5-0.3,1-0.3,1.6c0,0.7,0.2,0.6,0.3,1.2c0.2,1.4-1,1.3-1.6,1.4
			c0,0,0.1,0.5,0.2,0.6c-0.1-0.2-0.1-0.3-0.2-0.6L23.5,50.9z"/>
	</g>
	
		<linearGradient id="SVGID_21_" gradientUnits="userSpaceOnUse" x1="23.2" y1="-286.5" x2="23.2" y2="-286.5" gradientTransform="matrix(1 0 0 -1 0 -248)">
		<stop  offset="0" style="stop-color:#FBB315"/>
		<stop  offset="0.2849" style="stop-color:#F9C013"/>
		<stop  offset="0.3978" style="stop-color:#FBF17F"/>
		<stop  offset="0.8333" style="stop-color:#D99127"/>
	</linearGradient>
	<path class="st21" d="M23.2,38.5"/>
	
		<linearGradient id="SVGID_22_" gradientUnits="userSpaceOnUse" x1="22.592" y1="-285.1405" x2="23.286" y2="-285.1405" gradientTransform="matrix(1 0 0 -1 0 -248)">
		<stop  offset="0" style="stop-color:#FBB315"/>
		<stop  offset="0.2849" style="stop-color:#F9C013"/>
		<stop  offset="0.3978" style="stop-color:#FBF17F"/>
		<stop  offset="0.8333" style="stop-color:#D99127"/>
	</linearGradient>
	<path class="st22" d="M23.3,37.1c0,0.5-0.1,0.9-0.3,0.9s-0.3-0.3-0.3-0.9c0-0.5,0.1-0.8,0.3-0.8C23.2,36.2,23.3,36.5,23.3,37.1z"/>
	
		<linearGradient id="SVGID_23_" gradientUnits="userSpaceOnUse" x1="23.865" y1="-269.2" x2="25.832" y2="-269.2" gradientTransform="matrix(1 0 0 -1 0 -248)">
		<stop  offset="0" style="stop-color:#FBB315"/>
		<stop  offset="0.2849" style="stop-color:#F9C013"/>
		<stop  offset="0.3978" style="stop-color:#FBF17F"/>
		<stop  offset="0.8333" style="stop-color:#D99127"/>
	</linearGradient>
	<path class="st23" d="M25.8,21.2c-0.1,0.8-0.3,1.4-0.9,1.4s-1-0.5-1-1.5c0-0.8,0.5-1.3,1-1.3C25.5,19.8,25.7,20.3,25.8,21.2z"/>
	
		<linearGradient id="SVGID_24_" gradientUnits="userSpaceOnUse" x1="27.799" y1="-271.9" x2="29.765" y2="-271.9" gradientTransform="matrix(1 0 0 -1 0 -248)">
		<stop  offset="0" style="stop-color:#FBB315"/>
		<stop  offset="0.2849" style="stop-color:#F9C013"/>
		<stop  offset="0.3978" style="stop-color:#FBF17F"/>
		<stop  offset="0.8333" style="stop-color:#D99127"/>
	</linearGradient>
	<path class="st24" d="M29.8,23.9c-0.1,0.8-0.3,1.4-0.9,1.4s-1-0.5-1-1.5c0-0.8,0.5-1.3,1-1.3C29.4,22.7,29.8,23.1,29.8,23.9z"/>
	
		<linearGradient id="SVGID_25_" gradientUnits="userSpaceOnUse" x1="11.486" y1="-269.3" x2="13.452" y2="-269.3" gradientTransform="matrix(1 0 0 -1 0 -248)">
		<stop  offset="0" style="stop-color:#FBB315"/>
		<stop  offset="0.2849" style="stop-color:#F9C013"/>
		<stop  offset="0.3978" style="stop-color:#FBF17F"/>
		<stop  offset="0.8333" style="stop-color:#D99127"/>
	</linearGradient>
	<path class="st25" d="M13.5,21.3c-0.1,0.8-0.3,1.4-0.9,1.4c-0.6,0-1-0.5-1-1.5c0-0.8,0.5-1.3,1-1.3S13.3,20.5,13.5,21.3z"/>
	
		<linearGradient id="SVGID_26_" gradientUnits="userSpaceOnUse" x1="23.1" y1="-286" x2="23.1" y2="-286" gradientTransform="matrix(1 0 0 -1 0 -248)">
		<stop  offset="0" style="stop-color:#FBB315"/>
		<stop  offset="0.2849" style="stop-color:#F9C013"/>
		<stop  offset="0.3978" style="stop-color:#FBF17F"/>
		<stop  offset="0.8333" style="stop-color:#D99127"/>
	</linearGradient>
	<path class="st26" d="M23.1,38"/>
	
		<linearGradient id="SVGID_27_" gradientUnits="userSpaceOnUse" x1="21.551" y1="-284.9" x2="23.055" y2="-284.9" gradientTransform="matrix(1 0 0 -1 0 -248)">
		<stop  offset="0" style="stop-color:#FBB315"/>
		<stop  offset="0.2849" style="stop-color:#F9C013"/>
		<stop  offset="0.3978" style="stop-color:#FBF17F"/>
		<stop  offset="0.8333" style="stop-color:#D99127"/>
	</linearGradient>
	<path class="st27" d="M23.1,38h-1.5c0,0,1.4-1.7,1.5-2.2"/>
	
		<linearGradient id="SVGID_28_" gradientUnits="userSpaceOnUse" x1="6.282" y1="-271.6" x2="8.248" y2="-271.6" gradientTransform="matrix(1 0 0 -1 0 -248)">
		<stop  offset="0" style="stop-color:#FBB315"/>
		<stop  offset="0.2849" style="stop-color:#F9C013"/>
		<stop  offset="0.3978" style="stop-color:#FBF17F"/>
		<stop  offset="0.8333" style="stop-color:#D99127"/>
	</linearGradient>
	<path class="st28" d="M8.2,23.6C8.1,24.4,7.9,25,7.3,25s-1-0.5-1-1.5c0-0.8,0.5-1.3,1-1.3C7.9,22.3,8.2,22.8,8.2,23.6z"/>
</g>
<rect y="85.5" class="st29" width="150" height="14.5"/>
<g>
	<path class="st30" d="M147.2,85.1c-0.5,0.8-0.5,1.5-0.1,2.2c0.3,0.5,0.4,1,0.6,1.5c0.3,0.9,0.2,1.4-0.7,1.8c-0.7,0.4-1.4,0.7-2,1.1
		c-0.3,0.2-0.5,0.5-0.6,0.8c-0.2,0.8-0.3,1.5-0.4,2.3c-0.2,0.9-0.6,1.3-1.5,1.2c-0.8-0.1-1.5-0.3-2.3-0.3c-0.3,0-0.7,0.1-0.9,0.3
		c-0.6,0.5-1.1,1.1-1.7,1.6c-0.6,0.6-1.2,0.6-1.9,0c-0.6-0.5-1.1-1.1-1.7-1.6c-0.2-0.2-0.6-0.3-0.9-0.3c-0.7,0.1-1.4,0.2-2.1,0.3
		c-1,0.1-1.6-0.3-1.8-1.3c-0.1-0.5-0.2-1.1-0.2-1.6c0-0.8-0.4-1.3-1.1-1.6c-0.4-0.2-0.8-0.4-1.3-0.6c-1.1-0.6-1.3-1.2-0.8-2.3
		c0.3-0.6,0.6-1.2,0.9-1.9c0.1-0.3,0.1-0.6,0-0.9c-0.3-0.7-0.7-1.3-1-2c-0.5-0.9-0.3-1.6,0.7-2.1c0.6-0.3,1.2-0.6,1.8-0.9
		c0.5-0.2,0.8-0.6,0.8-1.2c0.1-0.7,0.2-1.4,0.3-2.2c0.2-0.8,0.6-1.1,1.5-1.1c0.7,0.1,1.5,0.2,2.3,0.4c0.5,0.1,0.8,0,1.1-0.3
		c0.6-0.6,1.2-1.1,1.8-1.7c0.6-0.5,1.2-0.5,1.8,0c0.6,0.6,1.1,1.2,1.7,1.7c0.2,0.2,0.6,0.3,0.9,0.3c0.7-0.1,1.4-0.2,2.1-0.3
		c1.1-0.2,1.6,0.3,1.8,1.3c0,0.2,0.1,0.4,0.1,0.6c-0.1,1.6,0.7,2.5,2.1,2.9c0.2,0.1,0.5,0.2,0.7,0.4c0.7,0.4,1,1.1,0.6,1.9
		C147.7,84.1,147.5,84.7,147.2,85.1z"/>
	<path class="st31" d="M138.9,81.1c0-0.4,0.1-0.8,0.3-1c0.2-0.3,0.5-0.4,0.9-0.4s0.7,0.1,0.9,0.4s0.4,0.6,0.4,1.1s-0.1,0.9-0.4,1.1
		s-0.5,0.4-0.9,0.4c-0.3,0-0.6-0.1-0.9-0.4S138.9,81.6,138.9,81.1z M140.1,80.1c-0.2,0-0.3,0.1-0.4,0.2c-0.1,0.2-0.2,0.4-0.2,0.8
		s0.1,0.6,0.2,0.8s0.3,0.2,0.4,0.2c0.2,0,0.3-0.1,0.4-0.2c0.1-0.2,0.2-0.4,0.2-0.8s-0.1-0.6-0.2-0.8S140.3,80.1,140.1,80.1z
		 M140.1,85.6l3.1-6h0.6l-3.1,6H140.1z M142.6,84.1c0-0.4,0.1-0.8,0.3-1c0.2-0.3,0.5-0.4,0.9-0.4s0.7,0.1,0.9,0.4s0.4,0.6,0.4,1.1
		s-0.1,0.9-0.4,1.1s-0.5,0.4-0.9,0.4c-0.3,0-0.6-0.1-0.9-0.4S142.6,84.6,142.6,84.1z M143.8,83.1c-0.2,0-0.3,0.1-0.4,0.2
		c-0.1,0.2-0.2,0.4-0.2,0.8s0.1,0.6,0.2,0.8s0.3,0.2,0.4,0.2c0.2,0,0.3-0.1,0.4-0.2c0.1-0.2,0.2-0.4,0.2-0.8s-0.1-0.6-0.2-0.8
		S144,83.1,143.8,83.1z"/>
	<path class="st31" d="M129.9,90.6c0-1,0.3-1.7,0.8-2.2s1.2-0.8,2-0.8c0.5,0,1,0.1,1.4,0.4s0.7,0.6,1,1.1s0.3,1,0.3,1.5
		c0,0.6-0.1,1.1-0.4,1.6s-0.6,0.8-1,1s-0.9,0.4-1.4,0.4s-1-0.1-1.4-0.4s-0.7-0.6-1-1.1S129.9,91.1,129.9,90.6z M130.6,90.7
		c0,0.7,0.2,1.2,0.6,1.6s0.8,0.6,1.4,0.6c0.6,0,1-0.2,1.4-0.6s0.6-1,0.6-1.7c0-0.5-0.1-0.9-0.2-1.2c-0.2-0.3-0.4-0.6-0.7-0.8
		c-0.3-0.2-0.6-0.3-1-0.3c-0.5,0-1,0.2-1.4,0.6S130.6,89.8,130.6,90.7z"/>
	<path class="st31" d="M135.6,93.3v-5.7h3.9v0.7h-3.1v1.8h2.7v0.7h-2.7v2.6L135.6,93.3L135.6,93.3z"/>
	<path class="st31" d="M139.8,93.3v-5.7h3.9v0.7h-3.1v1.8h2.7v0.7h-2.7v2.6L139.8,93.3L139.8,93.3z"/>
	<g>
		<path class="st31" d="M133,84.2l0.7-0.1c0.1,0.4,0.2,0.6,0.4,0.8s0.4,0.3,0.7,0.3s0.6-0.1,0.9-0.4s0.4-0.6,0.4-1s-0.1-0.7-0.3-0.9
			s-0.5-0.3-0.9-0.3c-0.2,0-0.4,0.1-0.6,0.2s-0.3,0.2-0.4,0.4l-0.7-0.1l0.6-2.9h2.8v0.7h-2.3l-0.3,1.5c0.3-0.2,0.7-0.4,1.1-0.4
			c0.5,0,0.9,0.2,1.3,0.5s0.5,0.8,0.5,1.3s-0.2,1-0.5,1.3c-0.4,0.5-0.9,0.7-1.5,0.7c-0.5,0-0.9-0.1-1.3-0.4S133,84.7,133,84.2z"/>
	</g>
</g>
<g class="st32">
	<path d="M31.7,96.4v-5.7h3.9v0.7h-3.1v1.8h2.7v0.7h-2.7v2.6H31.7z"/>
	<path d="M35.4,96.4l2.2-5.7h0.8l2.3,5.7h-0.9l-0.7-1.7h-2.4l-0.6,1.7H35.4z M37.1,94.1H39l-0.6-1.6c-0.2-0.5-0.3-0.9-0.4-1.2
		c-0.1,0.4-0.2,0.7-0.3,1.1L37.1,94.1z"/>
	<path d="M41.1,94.6l0.7-0.1c0,0.3,0.1,0.5,0.2,0.7s0.3,0.3,0.6,0.4s0.6,0.2,0.9,0.2c0.3,0,0.5,0,0.8-0.1s0.4-0.2,0.5-0.4
		S45,95,45,94.9c0-0.2-0.1-0.3-0.2-0.5s-0.3-0.2-0.5-0.3c-0.2-0.1-0.5-0.2-1-0.3s-0.9-0.2-1.1-0.4c-0.3-0.1-0.5-0.3-0.6-0.5
		s-0.2-0.5-0.2-0.7c0-0.3,0.1-0.6,0.2-0.8s0.4-0.4,0.7-0.6s0.7-0.2,1.1-0.2c0.4,0,0.8,0.1,1.1,0.2s0.6,0.3,0.7,0.6s0.3,0.6,0.3,0.9
		l-0.7,0.1c0-0.4-0.2-0.6-0.4-0.8s-0.6-0.3-1-0.3c-0.5,0-0.8,0.1-1,0.3s-0.3,0.4-0.3,0.6c0,0.2,0.1,0.4,0.2,0.5
		c0.1,0.1,0.5,0.3,1.1,0.4s1,0.3,1.3,0.4c0.3,0.2,0.6,0.3,0.7,0.6s0.2,0.5,0.2,0.8c0,0.3-0.1,0.6-0.3,0.9s-0.4,0.5-0.8,0.6
		s-0.7,0.2-1.1,0.2c-0.5,0-1-0.1-1.3-0.2s-0.6-0.4-0.8-0.7S41.2,95,41.1,94.6z"/>
	<path d="M46.8,96.4v-5.7h0.8V93h3v-2.4h0.8v5.7h-0.8v-2.7h-3v2.7H46.8z"/>
	<path d="M52.6,96.4v-5.7h0.8v5.7H52.6z"/>
	<path d="M54.5,93.6c0-1,0.3-1.7,0.8-2.2s1.2-0.8,2-0.8c0.5,0,1,0.1,1.4,0.4s0.7,0.6,1,1.1s0.3,1,0.3,1.5c0,0.6-0.1,1.1-0.4,1.6
		s-0.6,0.8-1,1s-0.9,0.4-1.4,0.4c-0.5,0-1-0.1-1.4-0.4s-0.7-0.6-1-1.1S54.5,94.1,54.5,93.6z M55.3,93.6c0,0.7,0.2,1.2,0.6,1.6
		s0.8,0.6,1.4,0.6c0.6,0,1-0.2,1.4-0.6s0.6-1,0.6-1.7c0-0.5-0.1-0.9-0.2-1.2s-0.4-0.6-0.7-0.8s-0.6-0.3-1-0.3c-0.5,0-1,0.2-1.4,0.6
		S55.3,92.8,55.3,93.6z"/>
	<path d="M60.9,96.4v-5.7h0.8l3,4.5v-4.5h0.7v5.7h-0.8l-3-4.5v4.5H60.9z"/>
	<path d="M66.8,96.4v-0.8h0.8v0.8c0,0.3-0.1,0.5-0.2,0.7s-0.3,0.3-0.5,0.4l-0.2-0.3c0.1-0.1,0.3-0.2,0.3-0.3s0.1-0.3,0.1-0.5H66.8z"
		/>
	<path d="M71.1,96.4v-5.7h2.1c0.4,0,0.8,0.1,1.1,0.2c0.3,0.1,0.5,0.3,0.6,0.5c0.2,0.2,0.2,0.5,0.2,0.8c0,0.2-0.1,0.5-0.2,0.7
		s-0.3,0.4-0.6,0.5c0.3,0.1,0.6,0.3,0.8,0.5c0.2,0.2,0.3,0.5,0.3,0.9c0,0.3-0.1,0.5-0.2,0.7S75,95.9,74.9,96
		c-0.2,0.1-0.4,0.2-0.6,0.3c-0.3,0.1-0.6,0.1-0.9,0.1H71.1z M71.9,93.1h1.2c0.3,0,0.6,0,0.7-0.1c0.2-0.1,0.3-0.2,0.4-0.3
		s0.1-0.3,0.1-0.5c0-0.2,0-0.4-0.1-0.5c-0.1-0.1-0.2-0.2-0.4-0.3c-0.2-0.1-0.5-0.1-0.9-0.1h-1.1V93.1z M71.9,95.7h1.4
		c0.2,0,0.4,0,0.5,0c0.2,0,0.3-0.1,0.4-0.2s0.2-0.2,0.3-0.3c0.1-0.1,0.1-0.3,0.1-0.5c0-0.2-0.1-0.4-0.2-0.6s-0.3-0.3-0.5-0.3
		c-0.2-0.1-0.5-0.1-0.8-0.1h-1.3V95.7z"/>
	<path d="M76.6,96.4v-5.7h0.8v5.7H76.6z"/>
	<path d="M78.5,94.6l0.7-0.1c0,0.3,0.1,0.5,0.2,0.7c0.1,0.2,0.3,0.3,0.6,0.4c0.3,0.1,0.6,0.2,0.9,0.2c0.3,0,0.5,0,0.8-0.1
		c0.2-0.1,0.4-0.2,0.5-0.4c0.1-0.1,0.2-0.3,0.2-0.5c0-0.2-0.1-0.3-0.2-0.5c-0.1-0.1-0.3-0.2-0.5-0.3c-0.2-0.1-0.5-0.2-1-0.3
		c-0.5-0.1-0.9-0.2-1.1-0.4c-0.3-0.1-0.5-0.3-0.6-0.5c-0.1-0.2-0.2-0.5-0.2-0.7c0-0.3,0.1-0.6,0.2-0.8s0.4-0.4,0.7-0.6
		c0.3-0.1,0.7-0.2,1.1-0.2c0.4,0,0.8,0.1,1.1,0.2s0.6,0.3,0.7,0.6c0.2,0.3,0.3,0.6,0.3,0.9l-0.7,0.1c0-0.4-0.2-0.6-0.4-0.8
		c-0.2-0.2-0.6-0.3-1-0.3c-0.5,0-0.8,0.1-1,0.3c-0.2,0.2-0.3,0.4-0.3,0.6c0,0.2,0.1,0.4,0.2,0.5c0.1,0.1,0.5,0.3,1.1,0.4
		c0.6,0.1,1,0.3,1.3,0.4c0.3,0.2,0.6,0.3,0.7,0.6c0.2,0.2,0.2,0.5,0.2,0.8c0,0.3-0.1,0.6-0.3,0.9c-0.2,0.3-0.4,0.5-0.8,0.6
		c-0.3,0.1-0.7,0.2-1.1,0.2c-0.5,0-1-0.1-1.3-0.2c-0.3-0.2-0.6-0.4-0.8-0.7S78.5,95,78.5,94.6z"/>
	<path d="M85.5,96.4v-5.1h-1.9v-0.7h4.5v0.7h-1.9v5.1H85.5z"/>
	<path d="M92.7,90.7h0.8V94c0,0.6-0.1,1-0.2,1.4c-0.1,0.3-0.4,0.6-0.7,0.8s-0.8,0.3-1.3,0.3c-0.5,0-1-0.1-1.3-0.3
		c-0.3-0.2-0.6-0.5-0.7-0.8C89,95.1,89,94.6,89,94v-3.3h0.8V94c0,0.5,0,0.9,0.1,1.1c0.1,0.2,0.3,0.4,0.5,0.5
		c0.2,0.1,0.5,0.2,0.8,0.2c0.6,0,1-0.1,1.2-0.4c0.2-0.3,0.4-0.7,0.4-1.5V90.7z"/>
	<path d="M94.7,96.4v-5.7h2.2c0.4,0,0.7,0,0.9,0.1c0.3,0,0.5,0.1,0.7,0.3c0.2,0.1,0.3,0.3,0.5,0.6c0.1,0.2,0.2,0.5,0.2,0.8
		c0,0.5-0.2,0.9-0.5,1.2c-0.3,0.3-0.9,0.5-1.7,0.5h-1.5v2.3H94.7z M95.5,93.4H97c0.5,0,0.8-0.1,1-0.3c0.2-0.2,0.3-0.4,0.3-0.8
		c0-0.2-0.1-0.4-0.2-0.6s-0.3-0.3-0.5-0.3c-0.1,0-0.4-0.1-0.7-0.1h-1.5V93.4z"/>
	<path d="M103.8,90.7h0.8V94c0,0.6-0.1,1-0.2,1.4c-0.1,0.3-0.4,0.6-0.7,0.8s-0.8,0.3-1.3,0.3c-0.5,0-1-0.1-1.3-0.3
		c-0.3-0.2-0.6-0.5-0.7-0.8c-0.1-0.4-0.2-0.8-0.2-1.4v-3.3h0.8V94c0,0.5,0,0.9,0.1,1.1c0.1,0.2,0.3,0.4,0.5,0.5
		c0.2,0.1,0.5,0.2,0.8,0.2c0.6,0,1-0.1,1.2-0.4c0.2-0.3,0.4-0.7,0.4-1.5V90.7z"/>
	<path d="M105.9,96.4v-5.7h2.5c0.5,0,0.9,0.1,1.2,0.2s0.5,0.3,0.6,0.5c0.2,0.3,0.2,0.5,0.2,0.9c0,0.4-0.1,0.7-0.4,1
		c-0.3,0.3-0.7,0.5-1.2,0.5c0.2,0.1,0.4,0.2,0.5,0.3c0.2,0.2,0.4,0.5,0.6,0.8l1,1.6h-1l-0.8-1.2c-0.2-0.3-0.4-0.6-0.5-0.8
		c-0.1-0.2-0.3-0.3-0.4-0.4s-0.2-0.1-0.3-0.2c-0.1,0-0.2,0-0.4,0h-0.9v2.5H105.9z M106.6,93.2h1.6c0.3,0,0.6,0,0.8-0.1
		s0.3-0.2,0.4-0.3s0.2-0.3,0.2-0.5c0-0.3-0.1-0.5-0.3-0.7c-0.2-0.2-0.5-0.3-0.9-0.3h-1.8V93.2z"/>
</g>
</svg>
