<?xml version="1.0" encoding="utf-8"?>
<!-- Generator: Adobe Illustrator 21.0.0, SVG Export Plug-In . SVG Version: 6.00 Build 0)  -->
<svg version="1.1" id="Layer_1" xmlns="http://www.w3.org/2000/svg" xmlns:xlink="http://www.w3.org/1999/xlink" x="0px" y="0px"
	 viewBox="0 0 150 100" style="enable-background:new 0 0 150 100;" xml:space="preserve">
<style type="text/css">
	.st0{fill:#362823;}
	.st1{fill:#F0A6AE;}
	.st2{fill:#D9A064;}
	.st3{fill:#FCFCFC;}
	.st4{fill:#DD4F78;}
	.st5{fill:#825543;}
	.st6{fill:#EFABB0;}
	.st7{fill:#A46895;}
	.st8{fill:#BC527E;}
	.st9{fill:none;}
	.st10{fill:#7C4C5E;}
	.st11{fill:#964C61;}
	.st12{fill:#F9F9F9;}
	.st13{fill:#FFFBF8;}
	.st14{fill:#E8DACF;}
	.st15{opacity:0.3;enable-background:new    ;}
	.st16{fill:none;stroke:#FFFFFF;stroke-miterlimit:10;}
	.st17{fill:#FCFAFA;}
	.st18{enable-background:new    ;}
	.st19{fill:#FFFFFF;}
</style>
<rect class="st0" width="150" height="100"/>
<g>
	<path class="st1" d="M51.9,56c0-0.2,0.1-0.3,0.3-0.3h0.1c0.1,0,0.1-0.1,0.1-0.1c0-0.1-0.1-0.1-0.1-0.1h-0.1c-0.4,0-0.8,0-1.3,0
		c-0.1,0-0.1,0-0.2,0c0,0-0.1,0-0.1,0.1s0,0.1,0.1,0.1h0.1c0.2,0,0.3,0.1,0.3,0.3c0,0.7,0,1.5,0,2.2c0,0.2,0,0.4,0,0.6
		s-0.1,0.3-0.3,0.3h-0.1c-0.1,0-0.1,0-0.1,0.1s0,0.1,0.1,0.1c0,0,0.1,0,0.2,0h0.7l0,0c0,0,0.1,0,0.2,0c0.2,0,0.3,0,0.5,0
		c0.1,0,0.1,0,0.1-0.1s-0.1-0.1-0.1-0.1c-0.1,0-0.1,0-0.2,0c-0.1,0-0.2-0.1-0.2-0.2c0-0.1,0-0.1,0-0.2c0-0.8,0-1.5,0-2.3
		C51.9,56.3,51.9,56.1,51.9,56z M78.2,58.4c-0.1,0-0.2,0-0.2,0.1s0,0.2-0.1,0.3c0,0.2-0.1,0.2-0.3,0.2c-0.3,0-0.7,0.1-1,0
		c-0.2,0-0.2,0-0.2-0.2c0-0.6,0-1.3,0-1.9c0-0.3,0-0.6,0-0.9c0-0.3,0-0.3,0.3-0.3h0.1c0.1,0,0.1,0,0.1-0.1s-0.1-0.1-0.1-0.1
		s0,0-0.1,0c-0.5,0-0.9,0-1.4,0c-0.1,0-0.2-0.1-0.2,0.1c0,0.1,0.1,0.1,0.2,0.1c0.2,0,0.3,0.1,0.3,0.3c0,0.4,0,0.8,0,1.3s0,1.1,0,1.6
		c0,0.2,0,0.3-0.2,0.3c0,0-0.1,0-0.1,0.1s0,0.1,0,0.1h0.1c0.7,0,1.5,0,2.2,0c0.1,0,0.2,0,0.3,0s0.1-0.1,0.1-0.2
		c0-0.2,0.1-0.4,0.1-0.6C78.3,58.5,78.3,58.4,78.2,58.4z M56.6,58.3c-0.1,0-0.1,0-0.2,0.1c0,0.1-0.1,0.2-0.1,0.3s-0.1,0.2-0.2,0.2
		c-0.4,0.1-0.7,0-1.1,0c-0.1,0-0.1,0-0.1-0.1v-0.1c0-0.6,0-1.2,0-1.7c0-0.4,0-0.7,0-1c0-0.2,0.1-0.3,0.3-0.3l0,0
		c0.1,0,0.2,0,0.2-0.1s-0.2-0.1-0.2-0.1c-0.5,0-0.9,0-1.4,0h-0.1c0,0-0.1,0-0.1,0.1s0,0.1,0.1,0.1h0.1c0.3,0,0.3,0,0.3,0.3v0.1
		c0,0.9,0,1.8,0,2.8c0,0.1,0,0.2-0.2,0.3c-0.1,0-0.1,0-0.1,0.1s0.1,0.1,0.2,0.1c0,0,0.1,0,0.2,0c0.3,0,0.7,0,1,0c0.4,0,0.7,0,1.1,0
		c0.1,0,0.2,0,0.3,0s0.1,0,0.1-0.1c0-0.2,0.1-0.5,0.1-0.7C56.7,58.4,56.7,58.4,56.6,58.3z M61.3,55.5c-0.1,0-0.2,0-0.3,0
		s-0.1,0.1-0.1,0.2c-0.2,0.4-0.4,0.7-0.6,1.1c-0.1,0.2-0.2,0.4-0.4,0.5c-0.1,0-0.1-0.1-0.1-0.2c-0.2-0.4-0.4-0.9-0.7-1.3
		c-0.1-0.1-0.2-0.3-0.3-0.4c-0.1,0-0.1-0.1-0.2-0.1c-0.3,0.1-0.5,0.1-0.8,0.2c0,0-0.1,0-0.1,0.1s0,0.1,0.1,0.1
		c0.2,0,0.3,0.1,0.4,0.2l0.1,0.1c0.3,0.5,0.6,0.9,0.9,1.4c0.1,0.1,0.1,0.3,0.1,0.5c0,0.3,0,0.6,0,0.9c0,0.2-0.1,0.2-0.2,0.2
		c-0.1,0-0.1,0-0.2,0c-0.1,0-0.1,0-0.1,0.1s0,0.1,0.1,0.1s0.2,0,0.3,0c0.4,0,0.8,0,1.2,0h0.2c0,0,0.1,0,0.1-0.1s0-0.1-0.1-0.1
		s-0.1,0-0.2,0c-0.2,0-0.3-0.1-0.3-0.3c0-0.4,0-0.7,0-1.1c0-0.1,0-0.2,0.1-0.3C60.5,56.7,60.9,56.1,61.3,55.5
		C61.3,55.5,61.4,55.5,61.3,55.5C61.4,55.5,61.4,55.5,61.3,55.5z M36.1,58.7V58c0-0.1,0-0.3,0-0.4s0-0.1,0.1-0.1c0.2,0,0.5,0,0.7,0
		c0.1,0,0.2,0.1,0.2,0.2s0,0.1,0,0.2c0,0.1,0.1,0.1,0.1,0.1c0.1,0,0.1,0,0.1-0.1c0-0.3,0-0.6,0-0.9c0-0.1,0-0.1-0.1-0.1
		s-0.1,0-0.1,0.1s0,0.1,0,0.1c0,0.2-0.1,0.2-0.2,0.2c-0.2,0-0.4,0-0.6,0c-0.1,0-0.2,0-0.2-0.2c0-0.4,0-0.7,0-1.1
		c0-0.1,0.1-0.2,0.2-0.2c0.3,0,0.6,0,0.9,0c0.2,0,0.2,0.1,0.2,0.2c0,0.1,0,0.1,0,0.2s0,0.1,0.1,0.1s0.1,0,0.1-0.1
		c0-0.2,0-0.4,0.1-0.6c0-0.1,0-0.1-0.1-0.1s-0.2,0-0.3,0c-0.7,0-1.4,0-2.2,0H35c-0.1,0-0.1,0-0.1,0.1c0,0,0,0.1,0.1,0.1s0.1,0,0.2,0
		s0.2,0.1,0.2,0.2c0,0.1,0,0.1,0,0.1c0,0.5,0,0.9,0,1.4c0,0.3,0,0.5,0,0.7s0,0.5,0,0.7s-0.1,0.2-0.2,0.3c-0.1,0-0.1,0-0.2,0
		c0,0,0,0,0,0.1c0,0,0,0.1,0.1,0.1s0.1,0,0.2,0c0.4,0,0.9,0,1.4,0h0.1c0.1,0,0.1,0,0.1-0.1s0-0.1-0.1-0.1s-0.1,0-0.2,0 M115,59.1
		c-0.3,0-0.3-0.2-0.4-0.4c-0.4-1-0.8-2-1.3-3c0-0.1-0.1-0.2-0.1-0.2c-0.1-0.1-0.2-0.1-0.3-0.1c-0.1,0-0.2,0-0.2,0.1
		s-0.1,0.2-0.1,0.4c-0.4,0.9-0.7,1.9-1.1,2.8c-0.1,0.2-0.2,0.3-0.4,0.3c0,0-0.1,0-0.1,0.1s0.1,0.1,0.1,0.1c0.1,0,0.1,0,0.2,0
		c0.3,0,0.5,0,0.7,0c0.1,0,0.2,0,0.2-0.1S112.1,59,112,59c-0.2,0-0.3-0.1-0.2-0.3c0-0.2,0.1-0.4,0.2-0.5c0-0.1,0.1-0.1,0.2-0.1
		c0.4,0,0.8,0,1.2,0c0.1,0,0.1,0,0.2,0.1c0.1,0.2,0.2,0.4,0.3,0.7c0,0.1,0,0.2-0.2,0.2c-0.1,0-0.1,0-0.2,0c0,0,0,0,0,0.1
		c0,0,0,0.1,0.1,0.1s0.1,0,0.2,0c0.2,0,0.6,0,0.6,0v0.1h0.4c0.1,0,0.3,0,0.4,0C115,59.3,115,59.2,115,59.1
		C115.1,59.1,115,59.1,115,59.1z M113.3,57.8c-0.1,0-0.4,0-0.4,0l0,0c-0.3,0-0.4,0-0.5,0s-0.2-0.1-0.1-0.2c0.1-0.4,0.3-0.8,0.4-1.2
		c0,0,0-0.1,0.1-0.1s0.1,0,0.1,0.1c0.2,0.4,0.4,0.8,0.5,1.2C113.4,57.8,113.4,57.8,113.3,57.8z M105.4,57.9c0-0.4-0.2-0.7-0.6-0.8
		c-0.2-0.1-0.3-0.1-0.5-0.1s-0.5-0.1-0.6-0.1s-0.2-0.1-0.3-0.2c-0.2-0.3,0-0.7,0.3-0.9c0.3-0.1,0.5-0.1,0.8,0s0.5,0.2,0.5,0.5l0,0
		c0,0.1,0,0.1,0.1,0.1s0.1-0.1,0.1-0.1c0-0.2,0-0.3,0-0.5s0-0.2-0.2-0.3c-0.3-0.1-0.5-0.1-0.8-0.1c-0.1,0-0.3,0-0.4,0
		c-0.7,0.1-1,0.5-1.1,1s0.2,1,0.7,1.1c0.2,0,0.3,0.1,0.5,0.1s0.4,0.1,0.5,0.1c0.2,0.1,0.3,0.2,0.3,0.4c0.1,0.4-0.2,0.8-0.6,0.9
		c-0.3,0-0.6,0-0.8-0.1c-0.2-0.1-0.4-0.3-0.4-0.5c0-0.1,0-0.1,0-0.2c0-0.1,0-0.1-0.1-0.1s-0.1,0-0.1,0.1s0,0.1,0,0.2
		c0,0.2,0,0.3,0,0.5c0,0.1,0,0.2,0.1,0.2c0.6,0.2,1.2,0.3,1.8,0.1C105.1,59,105.4,58.5,105.4,57.9z M42.9,59.1
		C42.8,59.1,42.8,59.1,42.9,59.1c-0.2,0-0.3-0.1-0.4-0.3c0-0.1-0.1-0.1-0.1-0.2c-0.4-1-0.8-2-1.3-3c-0.1-0.1-0.1-0.2-0.3-0.2
		s-0.2,0-0.3,0.2c-0.1,0.3-0.3,0.6-0.4,0.9c-0.3,0.7-0.6,1.5-1,2.2C39,58.9,39,59,38.8,59c-0.1,0-0.1,0-0.1,0.1s0.1,0.1,0.1,0.1
		c0.3,0,0.5,0,0.8,0c0.1,0,0.1,0,0.2,0c0.1,0,0.1,0,0.1-0.1s0-0.1-0.1-0.1s-0.1,0-0.2,0c-0.2,0-0.2-0.1-0.1-0.3
		c0-0.2,0.1-0.4,0.2-0.6c0-0.1,0.1-0.1,0.1-0.1c0.4,0,0.8,0,1.2,0c0,0,0.1,0,0.1,0.1c0.1,0.3,0.2,0.5,0.3,0.7c0,0.1,0,0.2-0.1,0.2
		s-0.1,0-0.2,0C41,59,41,59.1,41,59.1c0,0.1,0,0.1,0.1,0.1s0.1,0,0.2,0H42l0,0c0,0,0.2,0,0.3,0s0.2,0,0.4,0S42.9,59.2,42.9,59.1
		C43,59.1,42.9,59.1,42.9,59.1z M41.1,57.8c-0.3,0-0.6,0-0.9,0c-0.1,0-0.1,0-0.1-0.1c0.2-0.4,0.3-0.8,0.5-1.2l0,0
		c0.1,0,0.1,0.1,0.1,0.1C40.9,57,41,57.3,41.1,57.8C41.2,57.8,41.2,57.8,41.1,57.8z M109.8,56.1c0-0.2-0.2-0.4-0.4-0.5
		s-0.4-0.1-0.6-0.1c-0.6,0-1.3,0-2,0h-0.1c0,0,0,0-0.1,0.1v0.1c0.1,0,0.1,0,0.2,0.1c0.2,0,0.2,0.1,0.2,0.2s0,0.1,0,0.2
		c0.1,0.8,0,1.6,0,2.4c0,0.1,0,0.3,0,0.4c0,0.2-0.1,0.2-0.2,0.2s-0.1,0-0.2,0c0,0-0.1,0-0.1,0.1c0,0,0,0.1,0.1,0.1s0.2,0,0.2,0
		c0.4,0,0.8,0,1.3,0h0.1c0.1,0,0.1,0,0.1-0.1s0-0.1-0.1-0.1h-0.1c-0.3,0-0.3-0.1-0.3-0.3c0-0.1,0.1-0.1,0.1-0.2c0-0.4,0-0.9,0-1.1
		v-1.5c0-0.3,0-0.3,0.3-0.3c0.1,0,0.1,0,0.2,0c0.3,0,0.5,0.2,0.5,0.5c0.1,0.2,0,0.4,0,0.6c-0.1,0.3-0.3,0.4-0.6,0.4h-0.1
		c-0.1,0-0.1,0-0.1,0.1c0,0,0,0.1,0.1,0.1h0.1c0.1,0,0.3,0,0.4,0C109.4,57.4,109.9,56.8,109.8,56.1z M68.6,57.9
		c-0.1-0.4-0.3-0.6-0.6-0.7c-0.2-0.1-0.4-0.1-0.6-0.1S67,57,66.8,57c-0.2-0.1-0.3-0.2-0.3-0.4c-0.1-0.3,0.1-0.6,0.3-0.7
		c0.3-0.2,0.6-0.1,1,0c0.2,0.1,0.3,0.2,0.3,0.4v0.1c0,0.1,0,0.1,0.1,0.1s0.1-0.1,0.1-0.1c0-0.2,0-0.4,0.1-0.5s0-0.2-0.1-0.2
		c-0.3-0.1-0.6-0.2-0.9-0.2s-0.5,0-0.7,0.1c-0.5,0.2-0.9,0.7-0.8,1.3c0.1,0.4,0.3,0.6,0.6,0.7c0.2,0.1,0.4,0.1,0.6,0.1
		s0.4,0.1,0.5,0.1c0.2,0.1,0.3,0.2,0.3,0.4c0.1,0.4-0.1,0.7-0.4,0.9c-0.4,0.1-0.7,0.1-1-0.1c-0.2-0.1-0.4-0.3-0.4-0.5v-0.1
		c0-0.1,0-0.1-0.1-0.1s-0.1,0.1-0.1,0.1c0,0.2,0,0.4-0.1,0.6c0,0.2,0,0.2,0.2,0.3c0.6,0.2,1.2,0.3,1.8,0.1
		C68.4,59,68.7,58.5,68.6,57.9z M74,59.1c-0.2,0-0.3-0.1-0.4-0.3c0-0.1-0.1-0.2-0.1-0.3c-0.4-1-0.8-1.9-1.2-2.9
		c-0.1-0.2-0.1-0.2-0.3-0.2s-0.2,0-0.3,0.2c-0.2,0.4-0.3,0.8-0.5,1.2c-0.3,0.7-0.5,1.4-0.9,2.1c-0.1,0.2-0.2,0.3-0.3,0.3
		c0,0-0.1,0-0.1,0.1s0,0.1,0.1,0.1c0.3,0,0.5,0,0.8,0c0.1,0,0.2,0,0.3,0c0.1,0,0.1,0,0.1-0.1s0-0.1-0.1-0.1s-0.1,0-0.2,0
		c-0.2,0-0.2-0.1-0.2-0.3s0.1-0.4,0.2-0.6c0-0.1,0.1-0.1,0.2-0.1c0.4,0,0.8,0,1.2,0c0.1,0,0.2,0,0.2,0.1c0.1,0.2,0.1,0.3,0.2,0.5
		c0.1,0.3,0.1,0.3-0.2,0.4l0,0c-0.1,0-0.1,0-0.1,0.1s0.1,0.1,0.1,0.1h0.7c0.3,0,0.5,0,0.7,0c0.1,0,0.1,0,0.1-0.1
		C74.1,59.2,74.1,59.1,74,59.1z M72.2,57.9c-0.3,0-0.5,0-0.8,0c-0.1,0-0.2,0-0.1-0.2c0.2-0.4,0.3-0.8,0.5-1.2c0,0,0-0.1,0.1-0.1
		s0.1,0.1,0.1,0.2c0.1,0.4,0.3,0.7,0.4,1C72.4,57.8,72.4,57.9,72.2,57.9z M89.4,55.5c0,0-0.1,0-0.2,0h-0.8c-0.1,0-0.1,0-0.2,0
		c0,0-0.1,0-0.1,0.1s0,0.1,0.1,0.1s0.1,0,0.2,0c0.2,0,0.2,0,0.3,0.2c0,0.1,0,0.1,0,0.2c0,0.6,0,1.3,0,1.9c0,0.1,0,0.2,0,0.3
		c-0.1,0-0.1-0.1-0.2-0.2c-0.2-0.3-0.4-0.5-0.6-0.7c-0.5-0.6-0.9-1.1-1.4-1.7c-0.1-0.1-0.2-0.2-0.3-0.2c-0.2,0-0.5,0-0.7,0
		c-0.1,0-0.2,0-0.2,0.1s0.1,0.1,0.2,0.1c0.2,0,0.3,0.1,0.3,0.3c0,0.9,0,1.8,0,2.7c0,0.1,0,0.1,0,0.2c0,0.2-0.1,0.2-0.2,0.2
		s-0.1,0-0.2,0s-0.1,0.1-0.1,0.1c0,0.1,0,0.1,0.1,0.1c0.4,0,0.7,0,1.1,0c0.1,0,0.1,0,0.1-0.1s0-0.1-0.1-0.1h-0.1
		c-0.4,0.1-0.4,0-0.4-0.2c-0.1-0.7,0-1.5,0-2.2c0-0.1,0-0.1,0-0.2c0.1,0,0.1,0.1,0.2,0.2c0.7,0.9,1.4,1.7,2.2,2.5
		c0.2,0.2,0.3,0.3,0.5,0.3s0.2,0,0.2-0.2c-0.1-0.8,0-1.6,0-2.5c0-0.3,0-0.5,0-0.8c0-0.2,0-0.2,0.2-0.3c0.1,0,0.1,0,0.2,0l0.1-0.1
		C89.4,55.5,89.4,55.5,89.4,55.5z M83.8,57c-0.1-0.6-0.4-1.1-1-1.4c-0.6-0.3-1.2-0.2-1.8-0.1c-0.6,0.2-1,0.5-1.2,1.1
		c-0.1,0.3-0.1,0.5-0.1,0.8c0,0.1,0,0.2,0,0.3c0,0.8,0.5,1.3,1.2,1.6c0.6,0.2,1.2,0.2,1.8,0c0.6-0.2,1-0.7,1.2-1.3
		C83.8,57.6,83.8,57.3,83.8,57z M82.9,58.3c-0.2,0.5-0.5,0.7-1,0.8c-0.5,0-1-0.1-1.2-0.6c-0.2-0.4-0.3-0.9-0.3-1.4
		c0-0.3,0-0.5,0.1-0.7c0.2-0.5,0.5-0.7,1-0.7h0.2c0.6,0,0.9,0.3,1.1,0.8c0.1,0.3,0.1,0.6,0.1,0.9C83,57.8,83,58.1,82.9,58.3z
		 M98.2,58.7C98.1,58.7,98.1,58.7,98.2,58.7c-0.2,0.1-0.3,0.1-0.4,0.1c-0.3,0-0.5-0.1-0.8-0.2c-0.1,0-0.1-0.1-0.1-0.2l0.1-0.1
		c0.2-0.2,0.3-0.5,0.2-0.8c0-0.1,0-0.1,0.1-0.1c0.2,0,0.3,0,0.5,0c0.1,0,0.2,0,0.2-0.2v-0.1c0-0.1,0-0.2-0.1-0.1c-0.3,0-0.5,0-0.8,0
		c-0.2,0-0.5,0-0.7,0c-0.1,0-0.2,0.2-0.2,0.3s0.1,0,0.2,0.1c0.1,0,0.1,0,0.2,0s0.1,0,0.1,0.1c0.1,0.3,0.1,0.5-0.1,0.8
		c0,0.1-0.1,0.1-0.2,0c-0.4-0.3-0.7-0.7-1-1.1c-0.1-0.1-0.1-0.1,0-0.2c0.2-0.1,0.3-0.2,0.4-0.4c0.1-0.1,0.2-0.3,0.3-0.4
		c0.1-0.4,0-0.7-0.4-0.8c-0.3-0.1-0.5,0-0.7,0.2c-0.2,0.1-0.3,0.3-0.4,0.4c-0.1,0.1-0.1,0.2-0.1,0.3c0,0.2,0,0.4,0.1,0.6
		c0.1,0.2,0.1,0.2-0.1,0.3s-0.3,0.2-0.4,0.3c-0.4,0.4-0.4,1,0,1.4c0.2,0.2,0.4,0.3,0.6,0.3c0.5,0.1,0.9,0,1.3-0.2
		c0.1-0.1,0.3-0.1,0.4,0c0.3,0.2,0.5,0.3,0.8,0.3c0.2,0,0.4,0,0.5-0.2c0.1-0.1,0.1-0.1,0.2-0.2l0.1-0.1
		C98.2,58.8,98.2,58.7,98.2,58.7z M95.2,55.9c0.1-0.1,0.2-0.2,0.4-0.2c0.1,0,0.3,0.1,0.3,0.3c0,0.1,0,0.2,0,0.4
		c-0.1,0.2-0.2,0.4-0.4,0.5c-0.1,0.1-0.1,0-0.2-0.1c-0.1-0.2-0.1-0.4-0.1-0.6C95.2,56.1,95.2,56,95.2,55.9z M96,58.9
		c-0.3,0.1-0.5,0.2-0.8,0c-0.4-0.2-0.6-0.5-0.6-1c0-0.2,0.1-0.4,0.2-0.5s0.1-0.1,0.2,0c0.2,0.3,0.4,0.6,0.6,0.8
		c0.1,0.1,0.3,0.3,0.4,0.4C96.1,58.8,96.1,58.9,96,58.9z M49.2,55.7C49.2,55.7,49.3,55.7,49.2,55.7c0.2,0,0.2-0.1,0.2-0.1
		c0-0.1,0-0.1-0.1-0.1s-0.1,0-0.1,0c-0.3,0-0.6,0-0.9,0c-0.1,0-0.2,0.1-0.3,0.2c-0.4,0.8-0.7,1.6-1.2,2.4c0,0.1,0,0.1-0.1,0.2
		c-0.1,0-0.1-0.1-0.1-0.2c-0.4-0.8-0.7-1.6-1.1-2.3c-0.1-0.1-0.1-0.2-0.3-0.2c-0.3,0-0.6,0-0.9,0c-0.1,0-0.1,0-0.2,0
		c-0.1,0-0.1,0-0.1,0.1s0.1,0.1,0.1,0.1c0.1,0,0.1,0,0.2,0c0.2,0,0.2,0.1,0.2,0.2s0,0.1,0,0.2c0,0.7,0,1.4,0,2.2c0,0.2,0,0.4,0,0.6
		c0,0.2-0.1,0.2-0.2,0.3h-0.1c-0.1,0-0.1,0-0.1,0.1s0,0.1,0.1,0.1h0.1c0.3,0,0.6,0,0.9,0h0.1c0,0,0.1,0,0.1-0.1s0-0.1-0.1-0.1
		s-0.1,0-0.2,0c-0.2,0-0.2-0.1-0.2-0.2V59c0-0.8,0-1.5,0-2.3v-0.1c0.1,0,0.1,0.1,0.1,0.1c0.4,0.8,0.7,1.6,1.1,2.4
		c0.1,0.2,0.1,0.3,0.2,0.5c0.1,0.1,0.2,0.1,0.2,0v-0.1c0.4-0.9,0.9-1.8,1.3-2.7c0-0.1,0.1-0.1,0.1-0.2c0.1,0.1,0,0.1,0,0.2
		c0,0.7,0,1.4,0,2.1c0,0.1,0,0.2,0,0.3c0,0.2-0.1,0.2-0.2,0.2s-0.1,0-0.2,0c-0.1,0-0.1,0-0.1,0.1s0,0.1,0.1,0.1s0.1,0,0.2,0
		c0.4,0,0.8,0,1.2,0c0.1,0,0.1,0,0.2,0c0,0,0.1,0,0.1-0.1s0-0.1,0-0.1c-0.1,0-0.1,0-0.2,0c-0.2,0-0.2-0.1-0.2-0.2s0-0.1,0-0.2
		c0-0.4,0-0.9,0-1.3c0-0.4,0-0.9,0-1.3C48.9,55.7,48.9,55.7,49.2,55.7z"/>
	<path class="st2" d="M74.1,48.1c-0.2,0-0.3-0.1-0.5-0.1c-0.2-0.1-0.4-0.2-0.4-0.4c-0.5-1.1-1-2.2-1.5-3.3c-0.2-0.5-0.5-0.8-0.9-1.1
		s-0.8-0.4-1.3-0.5c0.1-0.1,0.2-0.1,0.3-0.1c0.7-0.1,1.3-0.3,1.9-0.7c0.4-0.3,0.8-0.6,1-1.1c0.4-0.7,0.4-1.5,0.3-2.3
		c-0.2-0.8-0.7-1.4-1.4-1.9c-0.3-0.2-0.7-0.3-1-0.4c-0.9-0.3-1.8-0.4-2.8-0.4c-1.6,0-3.2,0-4.8,0c-0.1,0-0.3,0-0.4,0
		c-0.1,0-0.1,0.1-0.1,0.1c0,0.2,0,0.3,0.2,0.3c0.2,0.1,0.5,0.1,0.7,0.2c0.1,0,0.2,0.1,0.2,0.2s0,0.1,0,0.2c0,2.1,0,4.2,0,6.4
		c0,1.4,0,2.9,0,4.3c0,0.3,0,0.3-0.3,0.3c-0.2,0.1-0.4,0.1-0.6,0.2c-0.2,0-0.2,0-0.2,0.2s0.1,0.1,0.2,0.1h0.1c1.3,0,2.6,0.1,3.9,0.1
		c0.3,0,0.7,0,1,0c0.2,0,0.2,0,0.2-0.2c0-0.1,0-0.2-0.2-0.3c-0.3-0.1-0.7-0.1-0.9-0.2c-0.3-0.1-0.5-0.1-0.5-0.4v-2.7
		c0-0.5,0.2-1.1,0.2-1.6c0-0.2,0.1-0.2,0.3-0.2c0.2,0,0.4,0,0.6,0s0.3,0.1,0.4,0.2c0.5,1.2,1,2.4,1.6,3.6c0.1,0.3,0.2,0.5,0.4,0.7
		c0.4,0.6,1,1,1.7,1c0.9,0,1.7,0,2.6,0c0.1,0,0.2,0,0.2-0.1C74.3,48.3,74.2,48.2,74.1,48.1z M67.5,42.4c-0.2,0-0.4,0-0.6,0
		s-0.4,0-0.4-0.2c0-0.3-0.2-0.7-0.2-1v-4.4c0-0.1,0.2-0.1,0.2-0.2s0.1-0.1,0.2-0.1c0.7,0,1.4,0,2.1,0.4c0.5,0.4,0.8,0.9,1,1.4
		c0.2,0.7,0.2,1.4,0,2.1C69.4,41.7,68.6,42.3,67.5,42.4z"/>
	<path class="st3" d="M126.6,48.1c-0.9-1.3-1.8-2.6-2.7-3.9c-0.4-0.5-0.7-1-1.2-1.4c-0.2-0.2-0.2-0.2,0-0.3c0.7-0.4,1.2-0.9,1.5-1.6
		c0.2-0.4,0.2-0.9,0.2-1.3c0-1.3-0.8-2.4-2.1-2.9c-0.6-0.3-1.3-0.3-1.9-0.3c-0.9,0-1.8,0-2.6,0c-0.5,0-0.4,0.1-0.4,0.5
		c0,1.9,0,3.8,0.1,5.8l0,0c0,0,0,0.8,0,1.3c0,1.4,0,2.9,0.1,4.3c0,0.3,0,0.3,0.3,0.3c0.4,0,0.7,0,1.1,0s0.4,0,0.4-0.4
		c0-1.4,0-2.9-0.1-4.4c0-0.1,0-0.2,0-0.3s0-0.2,0.2-0.2c0.1,0,0.3,0,0.4,0c0.8,0,1.4,0.3,1.9,0.8l1.3,1.8c0.5,0.8,1.1,1.6,1.6,2.4
		c0.1,0.1,0.2,0.2,0.4,0.2c0.5,0,1,0,1.4,0c0.1,0,0.2,0,0.3,0C126.7,48.3,126.6,48.2,126.6,48.1z M119,41.6v-3.9
		c3.9-1.1,3.6,1.6,3.7,2C122.4,42.8,119,41.6,119,41.6z"/>
	<path class="st3" d="M80.7,45.3c0.1,0.1,0.2,0.2,0.2,0.3c0.5,0.6,1.1,1.1,1.9,1.3c0.6,0.2,1.2,0.2,1.8,0c1.1-0.4,1.4-1.7,0.6-2.6
		c-0.3-0.3-0.6-0.5-0.9-0.7c-0.6-0.5-1.3-0.8-2-1.3c-0.3-0.3-0.6-0.5-1-0.8c-0.5-0.4-0.8-1-0.9-1.6c-0.1-0.5-0.1-1.1,0.1-1.6
		c0.3-0.9,0.9-1.4,1.7-1.8c0.6-0.3,1.3-0.4,1.9-0.4c0.9,0,1.7,0.3,2.4,0.7c0.2,0.1,0.2,0.2,0.2,0.4c0,0.5,0,1,0,1.4
		c0,0.1,0,0.1,0,0.2c-0.1,0-0.1-0.1-0.2-0.1c-0.7-0.6-1.5-1-2.5-1c-0.4,0-0.9,0-1.3,0.3c-0.9,0.5-1,1.5-0.4,2.2
		c0.4,0.4,0.8,0.6,1.2,0.9c0.6,0.4,1.2,0.7,1.8,1.2c0.3,0.3,0.6,0.5,0.9,0.8c0.7,0.7,0.9,1.5,0.9,2.4c0,0.6-0.2,1.3-0.5,1.8
		c-0.5,0.8-1.3,1.3-2.2,1.3c-1.3,0.2-2.6-0.1-3.7-0.9c-0.2-0.1-0.2-0.2-0.2-0.4c0-0.6,0-1.1,0-1.7C80.6,45.4,80.6,45.3,80.7,45.3z"
		/>
	<path class="st2" d="M59.7,47.7c-0.2-0.1-0.5-0.1-0.7-0.2c-0.1,0-0.2-0.1-0.2-0.3c0-0.1,0-0.2,0-0.3c0-1.5,0-3.1,0-4.6
		c0-2,0-4,0-5.9c0-0.3,0-0.3,0.3-0.4c0.2-0.1,0.5-0.1,0.6-0.2c0.1,0,0.2-0.1,0.2-0.3c0-0.1-0.1-0.1-0.2-0.1h-1c-1.3,0-2.5,0-3.8,0
		c-0.2,0-0.3,0.1-0.2,0.3c0,0.1,0.1,0.1,0.2,0.2c0.2,0.1,0.1,0.1,0.3,0.2s-0.1,0.1-0.1,0.3v10.8c0,0.3,0.3,0.3,0,0.4
		c-0.2,0.1-0.3,0.1-0.4,0.2c-0.1,0-0.1,0.1-0.1,0.3c0,0.1,0.1,0.2,0.2,0.2c0.1,0,0.2,0,0.2,0c1.5,0,3.1,0,4.6,0c0.1,0,0.1,0,0.2,0
		c0.1,0,0.1,0,0.1-0.1C59.9,47.9,59.9,47.7,59.7,47.7z"/>
	<path class="st2" d="M31.2,36.2c0.2-0.1,0.4-0.1,0.6-0.2c0.2-0.1,0.2-0.1,0.2-0.3s-0.1-0.2-0.2-0.2s-0.1-0.1-0.2-0.1h-2.2
		c-0.8,0-1.6,0.1-2.3,0.1c-0.1,0-0.3,0-0.3,0.2s0,0.2,0.2,0.3c0.2,0,0.3,0.1,0.5,0.1c0.5,0.1,0.4,0.1,0.4,0.5c0,1.5,0,3-0.1,4.4
		c0,0.5,0,0.9,0,1.4c0,0.8,0,1.6,0,2.3l0,0v2.5c0,0.3,0,0.3-0.3,0.3c-0.2,0.1-0.5,0.1-0.6,0.2c-0.2,0-0.2,0.2-0.2,0.4
		c0,0.1,0.1,0.2,0.2,0.2H27c1.5,0,3-0.1,4.4-0.1c0.1,0,0.2,0,0.3,0s0.2-0.1,0.2-0.2c0-0.2,0-0.2-0.2-0.3s-0.4-0.1-0.6-0.2
		c-0.3-0.1-0.3-0.1-0.3-0.3c0-0.1,0-0.2,0-0.3c0-1.5,0-3,0.1-4.5c0-0.5,0-1,0-1.5c0-1.5,0-3.1,0-4.6C31,36.3,31,36.3,31.2,36.2z"/>
	<path class="st3" d="M94.5,43.1c0,1.6,0,3.3,0,4.9c0,0.3,0,0.3-0.3,0.3c-0.4,0-0.8,0-1.2,0c-0.3,0-0.3,0-0.3-0.3c0-1.2,0-2.4,0-3.6
		c0-2.1,0-4.2,0-6.3c0,0,0,0,0-0.1c0-0.3,0-0.3-0.3-0.3c-1.2,0-2.3,0-3.5,0c-0.1,0-0.1,0-0.2,0s-0.2-0.1-0.2-0.2c0-0.4,0-0.8,0-1.3
		c0-0.1,0.1-0.1,0.2-0.1s0.2,0,0.3,0c3.1,0,6.2,0,9.3,0c0.4,0,0.4,0,0.4,0.4c0,0.3,0,0.6,0,0.9c0,0.3,0,0.3-0.3,0.3
		c-0.7,0-1.4,0-2.2,0c-0.4,0-0.9,0-1.3,0c-0.3,0-0.3,0-0.3,0.3C94.4,39.8,94.4,41.5,94.5,43.1C94.4,43.1,94.5,43.1,94.5,43.1z"/>
	<path class="st3" d="M126.7,36.3c0.3,0,0.5,0,0.7,0s0.3,0.1,0.4,0.2c0.7,0.9,1.4,1.9,2.2,2.8c0.3,0.3,0.5,0.6,0.7,1
		c0.1,0.2,0.1,0.2,0.3,0c0.4-0.5,0.8-1,1.2-1.5c0.5-0.7,1.1-1.5,1.7-2.2c0.1-0.2,0.2-0.2,0.4-0.2c0.5,0,1,0,1.4,0c0.1,0,0.1,0,0.2,0
		s0.1,0.1,0.1,0.1c0,0.1-0.1,0.2-0.2,0.2c-1.3,1.7-2.6,3.4-3.9,5.1c-0.1,0.2-0.2,0.3-0.2,0.5c0,1.9,0.1,3.8,0.1,5.8
		c0,0.1,0,0.1,0,0.2c0,0.1-0.1,0.2-0.2,0.2c-0.2,0-0.3,0-0.5,0c-0.3,0-0.5,0-0.8,0c-0.2,0-0.3,0-0.3-0.3c0-1,0-2,0-3s0-2,0-3
		c0-0.2-0.1-0.3-0.2-0.5c-1-1.3-2-2.5-3-3.8c-0.4-0.4-0.7-0.9-1.1-1.3l-0.1-0.1c-0.1-0.1-0.1-0.2,0.1-0.2
		C126,36.3,126.3,36.3,126.7,36.3L126.7,36.3z"/>
	<path class="st2" d="M38.4,41.9c0-0.4,0-0.9,0-1.4c0-1.3,0-2.6,0-3.9c0-0.3,0-0.3,0.2-0.3c0.2-0.1,0.5-0.1,0.6-0.2
		c0.1,0,0.2,0,0.2-0.2s0-0.2-0.3-0.2c-0.8,0-1.6,0-2.5,0c-0.7,0-1.5,0-2.2,0c-0.2,0-0.2,0-0.2,0.3c0,0.1,0.1,0.1,0.2,0.2
		c0.2,0.1,0.5,0.1,0.7,0.2c0.1,0,0.2,0.1,0.2,0.2v0.1c0,1.9,0,3.8-0.1,5.7c0,0.3,0,0.4,0.3,0.4c0.4,0.1,0.8,0.2,1.2,0.3
		s0.9,0.2,1.4,0.3c0.2,0,0.2,0,0.2-0.2s0-0.4,0-0.5"/>
	<path class="st2" d="M53.4,47.7c-0.2-0.1-0.3-0.1-0.5-0.1s-0.3-0.2-0.4-0.3c-0.9-2.2-1.8-4.3-2.7-6.5c-0.1-0.2-0.1-0.2-0.3-0.1
		c-0.8,0.5-1.6,0.9-2.4,1.2C47,42,46.9,42,47,42.1c0.1,0.2,0.2,0.5,0.3,0.7c0,0.1,0.1,0.2,0,0.2c-0.1,0.1-0.1,0.2,0,0.3
		c0,0.1,0.1,0.1,0.2,0c0.1,0,0.1,0.1,0.2,0.2c0.4,1.1,0.9,2.2,1.3,3.3c0.4,1,1.3,1.7,2.4,1.7h2.1c0.1,0,0.2-0.1,0.2-0.3
		C53.6,47.9,53.6,47.7,53.4,47.7z"/>
	<path class="st2" d="M46,39.5c-0.1,0.2-0.1,0.3-0.2,0.5c-0.2,0.6-0.5,1.1-0.7,1.7c0,0.1-0.1,0.2-0.2,0.2c-0.2,0-0.3,0.1-0.4,0.1
		c-0.1,0-0.1,0-0.1-0.1c0.1-0.2,0.1-0.4,0.2-0.5c0.8-1.9,1.6-3.9,2.4-5.8c0.1-0.2,0.2-0.3,0.4-0.3h0.1c0.2,0,0.3,0.1,0.4,0.2
		c0.1,0.4,0.3,0.7,0.4,1.1c0.5,1.2,1,2.4,1.5,3.6c0.1,0.2,0.1,0.2-0.1,0.3c-0.8,0.3-1.7,0.6-2.5,0.9c-0.2,0.1-0.2,0.1-0.3-0.2
		c-0.2-0.5-0.4-1-0.6-1.5C46.1,39.7,46.1,39.6,46,39.5z"/>
	<path class="st2" d="M39.2,48c-0.2-0.1-0.4-0.1-0.6-0.2c-0.3-0.1-0.3-0.1-0.3-0.4c0-0.6,0-1.3,0-1.9c0-0.4,0-0.4-0.3-0.4
		c-0.8-0.1-1.6-0.3-2.4-0.4c-0.3-0.1-0.3,0-0.3,0.3c0,0.8,0,1.7,0,2.5c0,0.3,0,0.3-0.3,0.4c-0.2,0-0.4,0.1-0.6,0.1
		c-0.2,0.1-0.2,0.1-0.2,0.3s0.1,0.1,0.2,0.2h0.1H39c0.1,0,0.2,0,0.3,0s0.1-0.1,0.2-0.2C39.4,48.1,39.4,48,39.2,48z"/>
	<path class="st2" d="M42.3,48.1c-0.5,0-0.9,0-1.4,0c-0.1,0-0.3,0.1-0.3-0.1c0-0.2,0-0.3,0.2-0.4c0.3-0.1,0.6-0.3,1-0.4
		c0.2-0.1,0.3-0.2,0.3-0.3c0.3-0.7,0.5-1.3,0.8-2c0.1-0.1,0.1-0.2,0.3-0.2c0.1,0,0.3,0,0.4-0.1c0.1,0,0.1,0,0.1,0.1
		s-0.1,0.1-0.1,0.2c-0.3,0.6-0.5,1.3-0.8,1.9c0,0,0,0.1-0.1,0.1c-0.1,0.1,0,0.2,0.1,0.2c0.3,0.1,0.6,0.3,1,0.4
		c0.1,0,0.2,0.1,0.2,0.2c0,0.2,0,0.3-0.3,0.3C43.3,48.1,42.8,48.1,42.3,48.1L42.3,48.1z"/>
	<path class="st3" d="M21.9,37.3c0.1-0.1,0.2-0.2,0.4-0.2c0.5-0.2,0.8,0.1,0.9,0.5c0,0.1,0,0.1,0,0.2c0,0.4,0,0.7,0,1.1
		c0,0.2,0,0.2-0.2,0.2s-0.2,0-0.2-0.2c0-0.3,0-0.7,0-1c0-0.1,0-0.2,0-0.4c-0.1-0.2-0.2-0.3-0.4-0.3c-0.3,0-0.5,0.2-0.5,0.5
		c0,0.4,0,0.7,0,1.1c0,0.1,0,0.2-0.1,0.2s-0.2,0-0.3,0v-0.1c0-0.1,0-0.1,0-0.2c0-0.8,0-1.6,0-2.5v-0.1c0-0.2,0-0.2,0.2-0.2
		s0.2,0.1,0.2,0.2c0,0.3,0,0.5,0,0.8C21.8,37.1,21.8,37.2,21.9,37.3z"/>
	<path class="st3" d="M19.5,37.8c0-0.4,0-0.7,0-1.1c0-0.2,0-0.3-0.3-0.3c-0.2,0-0.4,0-0.6,0c-0.1,0-0.2,0-0.2-0.2s0-0.2,0.2-0.2
		c0.7,0,1.5,0,2.2,0c0.2,0,0.2,0,0.2,0.2s0,0.2-0.2,0.2s-0.3,0-0.5,0c-0.4,0-0.4,0-0.4,0.4c0,0.6,0,1.3,0,2c0,0.1,0,0.1,0,0.2
		c0,0.2,0,0.3-0.3,0.2c-0.2,0-0.2,0-0.2-0.2C19.5,38.5,19.5,38.2,19.5,37.8L19.5,37.8z"/>
	<g>
		<path class="st4" d="M14,44.3c0,0,5.2-6.3,13.7-4.2v2.1C27.7,42.2,19.3,38.7,14,44.3z"/>
		<path class="st4" d="M30.9,40.9c0,0,7.4,2.5,7.7,2.3c0,0,6.9,2.2,13.3-2.5c0,0-3.1,2.9-5.5,3.5c0,0.1-4.1,1.7-7.8,1
			c0,0-3.4-0.4-7.6-2.2C30.9,43.1,30.9,40.9,30.9,40.9z"/>
		<path class="st4" d="M37.3,41.6c0,0,3.1,1.1,6.9,0.5c0,0,1.7,0,6.6-2.1c0.1,0.1-3.8,2.5-6.4,2.9C44.4,42.9,41.1,43.4,37.3,41.6z"
			/>
	</g>
	<g>
		<g>
			<ellipse class="st5" cx="107.3" cy="42.3" rx="8.1" ry="8.3"/>
			<path class="st6" d="M105.6,44.7c0,0-1.7-0.7-5.8,0.8c0,0,1,3,5,4.6c0.1,0,3.7,1.5,7.4-1.2c0,0.1,4-2.4,3.2-7.9
				c0,0-0.4-2.3-1.3-3.4c0,0-2.9,1.7-3.5,4.1"/>
			<path class="st7" d="M101.8,41.4c0,0,0.3,3.2,3.1,5.9c0,0,3.1,3.2,6.5,1.6c0,0-0.2-4.7-4.3-6.5C107,42.5,104.8,41.1,101.8,41.4z"
				/>
			<path class="st7" d="M110,37.3c0,0-2.2,2.5-2.2,6.3c0,0,0,4.1,3.4,5.4c0,0,3.3-3.1,1.6-7.3C112.9,41.7,112.3,39.2,110,37.3z"/>
			<path class="st8" d="M105.5,38.5c0,0-1.1,2.5,0.1,5.9c0.8,2.4,3.2,3.9,5.7,4.5c0,0,0.3-1.4,0.3-1.5c0.1-1.2,0.1-2.3-0.1-3.5
				c-0.5-2.2-1.4-3.6-3.4-4.6C107.8,39.3,105.6,38.4,105.5,38.5z"/>
			<ellipse class="st9" cx="107.4" cy="42.1" rx="8.2" ry="8.3"/>
			<path class="st10" d="M102.7,44.5c0,0,2.8,6.3,8.5,4.5C111.2,49,108.1,43.4,102.7,44.5z"/>
			<path class="st11" d="M104.9,41.7c0,0,0.3,3.6,1.7,4.9c0,0,2.1,2,4.5,2.4c0,0.1,0.2-3.6-3.4-6.1
				C107.8,42.9,106.1,41.9,104.9,41.7z"/>
			<path class="st11" d="M108.5,39.7c0,0-1.6,3.1,0,6.8c0,0,1.1,2.1,2.7,2.4c0,0,0.7-2,0.1-5.2C111.2,43.8,111,41.1,108.5,39.7z"/>
			<path class="st10" d="M111.7,39.4c0,0-3.4,3.4-0.6,9.5C111.2,49,115.4,45.7,111.7,39.4z"/>
		</g>
		<g>
			<path class="st12" d="M108,47.2c-0.1-0.2-0.3-0.4-0.6-0.4c-0.2,0-0.4,0-0.6-0.1c-0.2,0-0.4-0.1-0.5-0.2c-0.2-0.2-0.3-0.3-0.2-0.5
				c0-0.1,0.1-0.1,0.1-0.2c0-0.1,0-0.1,0-0.2c-0.1-0.1-0.1-0.2,0.1-0.3c0.1-0.1,0.1-0.1,0-0.2c-0.1-0.1-0.1-0.2,0-0.3
				c0.2-0.2,0.2-0.2,0-0.4s-0.1-0.4,0.1-0.5s0.4-0.2,0.5-0.3c0.2-0.1,0.3-0.2,0.3-0.4c0.1-0.5,0.4-0.9,0.6-1.3
				c0.2-0.3,0.6-0.5,1-0.6s0.7-0.1,1.1-0.1h0.1"/>
			<path class="st12" d="M112.8,45c0,0,0,2.1-1.8,2.7c0,0,0.4,1.6,1,1.4c0,0-2.1,1.6-4.7,1.5c0,0,0.2-0.9,0.8-1.2
				c0,0,0.4,0.3,0.2-0.9L108,48c0,0-0.2-0.4-0.2-0.6c0-0.3-0.3-0.7-0.5-0.6c-0.2,0.1,2.4-5.5,2.4-5.5s1,0,2.2,1.2
				c0,0,0.1-0.4,0.7-0.1c0,0,1.3,1,0.7,2.3C113.4,44.6,113.4,45.3,112.8,45"/>
		</g>
	</g>
	<path class="st13" d="M24.8,37.2c-0.4-0.2-0.8,0-1,0.3s-0.2,0.7,0,1c0.1,0.2,0.3,0.4,0.5,0.4c0.3,0.1,0.5,0,0.7-0.1
		s0.2-0.1,0.2-0.4c-0.1,0.1-0.3,0.1-0.4,0.2c-0.3,0.1-0.6,0-0.7-0.2C24,38.3,24,38.2,24,38.1s0.2,0,0.3,0c0.2,0,0.5,0,0.7,0
		c0.1,0,0.1,0,0.2,0s0.1,0,0.1-0.1C25.3,37.7,25.1,37.3,24.8,37.2z M24.9,37.8C24.9,37.8,24.9,37.9,24.9,37.8c-0.2,0,0,0-0.3,0v-0.1
		h-0.1c-0.1,0-0.2,0-0.3,0l0,0l0,0l0,0l0,0c0,0,0,0,0-0.1s0-0.1,0.1-0.2c0,0,0,0,0.1-0.1c0,0,0,0,0.1,0h0.1h0.1l0,0h0.1l0,0h0.1l0,0
		l0,0l0,0c0,0,0,0.1,0.1,0.1l0,0l0,0C24.8,37.7,24.8,37.7,24.9,37.8C24.9,37.7,24.9,37.8,24.9,37.8z"/>
	<g>
		<path class="st14" d="M46.9,66c-0.2-0.3-0.3-0.5-0.3-0.8c-0.2-0.6-0.4-1.3-0.7-1.8c0-0.1-0.1-0.3-0.1-0.4c-0.1-0.1-0.2-0.1-0.3,0
			s-0.1,0.3-0.2,0.4c-0.1,0.4-0.3,0.9-0.4,1.3c-0.1,0.4-0.2,0.9-0.6,1.3H45c0-0.1-0.2-0.1-0.1-0.4c0-0.4,0.1-0.5,0.4-0.5
			c0.1,0,0.2,0,0.2,0c0.3,0,0.4,0.1,0.6,0.5c0,0.3-0.1,0.3-0.1,0.4H46.9z M45.6,64.8c-0.6,0-0.6,0-0.3-0.5c0-0.1,0.1-0.3,0.2-0.4
			c0.1,0.3,0.2,0.5,0.2,0.9C45.7,64.7,45.6,64.8,45.6,64.8z"/>
		<path class="st14" d="M72.4,64.3c-0.1,0.6-0.2,1.1-0.1,1.6c0,0.1,0.1,0.3-0.1,0.3s-0.3,0-0.3-0.2c0.2-0.9,0.2-1.8,0-2.7
			c0-0.1,0-0.2,0.2-0.2c0.3,0,0.5,0.1,0.5,0.3c0.2,0.5,0.4,1.1,0.6,1.7c0.4-0.5,0.4-1.1,0.6-1.5c0.1-0.2,0.1-0.5,0.5-0.4
			c0.5,0.1,0.1,0.3,0.1,0.5c0.1,0.8-0.1,1.7,0.1,2.5c-0.5,0.1-0.8,0.1-0.7-0.5c0.1-0.4,0-0.8,0-1.3c-0.5,0.6-0.5,1.3-0.9,1.9
			C72.9,65.5,72.7,64.9,72.4,64.3z"/>
		<path class="st14" d="M67.8,64.9c0.2-0.6,0.3-1.1,0.3-1.6c0-0.1-0.1-0.3,0.2-0.3c0.3,0,0.3,0.1,0.2,0.3c-0.2,0.8-0.3,1.6-0.5,2.4
			c0,0.1,0,0.3-0.3,0.3c-0.2,0-0.2-0.2-0.2-0.3c-0.2-0.5-0.3-1-0.5-1.6c-0.3,0.3-0.3,0.7-0.4,1s-0.1,0.6-0.5,1c-0.4-1-0.3-2-0.6-3
			c0-0.2,0.1-0.2,0.3-0.2c0.2,0,0.4,0.1,0.3,0.3c-0.1,0.5,0,0.9,0.2,1.4c0.5-0.5,0.4-1.1,0.8-1.7C67.5,63.6,67.5,64.3,67.8,64.9z"/>
		<path class="st14" d="M90.8,65.7c-0.3-0.6-0.6-1.1-0.2-1.8c0.2-0.3,0.1-0.7-0.3-0.9s-0.9-0.1-1.3,0c-0.2,0-0.1,0.2-0.1,0.3
			c0.2,0.8,0.1,1.6,0,2.5c0,0.3,0,0.4,0.3,0.4s0.3-0.1,0.3-0.3c-0.1-0.3-0.1-0.6,0.1-1c0.2,0.5,0.4,0.8,0.6,1.1
			c0.1,0.2,0.3,0.3,0.5,0.2C91.1,66,90.9,65.8,90.8,65.7z M89.7,64.5c-0.2-0.3-0.1-0.6-0.1-0.8c0-0.1,0-0.3,0.2-0.3s0.3,0.1,0.3,0.3
			C90.2,64,90.2,64.3,89.7,64.5z"/>
		<path class="st14" d="M96.4,63.6c-0.3-0.8-1.1-0.6-1.8-0.6c-0.3,0-0.4,0-0.4,0.4c0.1,0.6,0.1,1.1,0.1,1.5s0,0.7-0.1,0.9
			c0,0.2,0,0.3,0.2,0.3c0.5,0,0.9,0.1,1.4-0.2C96.5,65.5,96.7,64.4,96.4,63.6z M96,64.8L96,64.8C96,64.9,96,64.9,96,64.8
			C96,64.9,96,64.9,96,64.8C96,64.9,96,64.9,96,64.8L96,64.8L96,64.8L96,64.8L96,64.8c0,0.1,0,0.1,0,0.2c0,0,0,0,0,0.1
			s0,0.1-0.1,0.2l0,0v0.1l0,0c0,0,0,0,0,0.1l0,0l0,0l0,0c-0.1,0.2-0.3,0.3-0.6,0.2c-0.3-0.1-0.2-0.3-0.2-0.4c0-0.6,0-1.1,0-1.7
			c0-0.2,0-0.4,0.2-0.4c0.2-0.1,0.5,0.1,0.6,0.2c0.1,0.2,0.2,0.3,0.3,0.5c0,0.2,0,0.4,0,0.6C96,64.7,96,64.7,96,64.8z"/>
		<path class="st14" d="M79.3,65.1c0.1-0.7,0.1-1.2,0-1.7c-0.1-0.2,0-0.3,0.2-0.3s0.3,0.1,0.2,0.3c-0.2,0.8,0,1.6-0.1,2.5
			c0,0.1,0.1,0.3-0.2,0.4c-0.2,0-0.3-0.1-0.3-0.2c-0.4-0.6-0.7-1.1-1.2-1.9c0,0.7,0,1.3,0,1.8c0,0.1,0.1,0.2,0,0.3
			c-0.1,0-0.2,0-0.3,0c-0.2-0.1-0.1-0.2-0.1-0.3c0.1-0.8,0.1-1.6,0-2.4c0-0.1-0.2-0.3,0-0.3c0.2-0.1,0.4,0,0.5,0.2
			c0.3,0.4,0.5,0.9,0.8,1.3C79.1,64.7,79.1,64.8,79.3,65.1z"/>
		<path class="st14" d="M52.9,66.1c-0.6-0.6-0.8-1.3-1.4-2c-0.2,0.6-0.1,1.1-0.1,1.6c0,0.1,0.1,0.3-0.2,0.3S51,65.8,51,65.7
			c0.1-0.8,0.1-1.6,0-2.3c0-0.1-0.3-0.3,0-0.4c0.3-0.1,0.5,0,0.6,0.2c0.3,0.5,0.5,0.9,0.8,1.4c0,0.1,0.1,0.2,0.3,0.2
			c0-0.5,0.1-1-0.1-1.6c0-0.1,0-0.2,0.1-0.2s0.3,0,0.3,0.2c-0.2,1,0.1,2-0.2,2.9C53,66.1,53,66.1,52.9,66.1z"/>
		<path class="st14" d="M71.1,63.5c-0.4-0.7-1.4-0.7-1.9,0c-0.2,0.3-0.3,0.7-0.3,1.1s0,0.7,0.2,1s0.5,0.6,1,0.6c0.4,0,0.8-0.2,1-0.5
			C71.5,65,71.5,64.2,71.1,63.5z M70.7,65.5c-0.1,0.2-0.2,0.5-0.6,0.5c-0.3,0-0.5-0.2-0.6-0.5c-0.2-0.6-0.2-1.1,0-1.7
			c0.1-0.2,0.2-0.5,0.6-0.5s0.5,0.2,0.6,0.4c0.1,0.3,0.2,0.6,0.2,1C70.8,64.9,70.8,65.2,70.7,65.5z"/>
		<path class="st14" d="M61.4,63.5c-0.4-0.7-1.4-0.7-1.9-0.1c-0.4,0.5-0.5,1.8,0,2.4s1.3,0.6,1.8,0c0.3-0.4,0.4-0.8,0.4-1.3
			C61.6,64.2,61.5,63.8,61.4,63.5z M60.9,65.6c-0.1,0.2-0.2,0.4-0.5,0.3c-0.3,0-0.4-0.2-0.5-0.3c-0.2-0.3-0.2-0.7-0.2-1.1
			c0-0.2,0-0.5,0.1-0.8c0.1-0.2,0.2-0.3,0.5-0.4c0.3,0,0.5,0.2,0.6,0.4C61.1,64.3,61.2,64.9,60.9,65.6z"/>
		<path class="st14" d="M49,64.2c0,0.3,0,0.7,0,1s0.2,0.5,0.5,0.5c0.4,0,0.5-0.2,0.5-0.5c0.1-0.6,0.1-1.3,0-1.9
			c0-0.2-0.1-0.3,0.2-0.3c0.2,0,0.2,0.1,0.2,0.3c0,0.7-0.1,1.3-0.1,2c0,0.5-0.3,0.8-0.9,0.8c-0.6,0-0.9-0.4-0.9-0.8
			c0-0.7-0.1-1.4-0.1-2.1c0-0.2,0.1-0.2,0.3-0.2s0.4,0,0.3,0.3C49,63.5,49,63.9,49,64.2L49,64.2z"/>
		<path class="st14" d="M85.7,63.4C85.6,63,85.2,63,84.9,63c-0.7,0-0.7,0-0.7,0.5c0,0.7,0,1.3,0,2c0,0.2-0.3,0.4,0.1,0.5
			c0.1,0.1,0.4,0.1,0.5,0c0.3-0.1,0-0.3,0-0.5c0-0.4-0.2-0.8,0.6-1C85.9,64.4,85.9,63.9,85.7,63.4z M85.3,63.9
			c0,0.2-0.1,0.5-0.4,0.5s-0.2-0.3-0.2-0.5c0.2-0.2-0.1-0.6,0.3-0.6C85.3,63.4,85.3,63.7,85.3,63.9z"/>
		<path class="st14" d="M76.9,63.5c-0.3,0-0.5-0.3-0.8-0.1S76,63.9,76,64.2c0,0.2,0.1,0.2,0.3,0.2c0.4,0,0.4,0,0.4,0.4
			c-0.2,0.1-0.5-0.4-0.7,0c-0.1,0.3-0.2,0.7,0.1,1c0.2,0.2,0.5,0,0.7-0.3c0.1,0.2,0.1,0.5-0.1,0.5c-0.4,0.2-0.8,0.1-1.2,0
			c-0.3-0.1-0.1-0.3-0.1-0.4c0-0.8,0.1-1.6-0.1-2.3c0-0.1,0-0.2,0-0.2c0.4-0.2,0.8-0.1,1.2-0.1C77,63.1,77,63.3,76.9,63.5z"/>
		<path class="st14" d="M98.6,65.4c0.3,0.2,0.3,0.6,0.8,0.5c0.3-0.1,0.3-0.3,0.3-0.5c0-0.3-0.2-0.5-0.5-0.6
			c-0.7-0.2-0.7-0.7-0.6-1.1s0.3-0.7,0.8-0.7s0.7,0.1,0.5,0.7c-0.2-0.2-0.3-0.5-0.6-0.4c-0.2,0.1-0.3,0.3-0.3,0.4
			c0,0.3,0.2,0.4,0.5,0.5c0.8,0.3,0.9,1.3,0.3,1.7c-0.3,0.2-0.6,0.3-0.9,0.1C98.5,66,98.4,65.7,98.6,65.4z"/>
		<path class="st14" d="M63.6,63.5c-0.2,0-0.4-0.4-0.6-0.2c-0.3,0.2-0.1,0.5-0.1,0.8c0,0.3,0.3,0.1,0.5,0.1c0.4,0,0,0.4,0.2,0.6
			c-0.5-0.3-0.7-0.2-0.7,0.2c0,0.2,0,0.5,0.1,0.7c0.1,0.3,0,0.3-0.3,0.3c-0.2,0-0.4,0-0.4-0.3c0.1-0.9,0.1-1.7,0-2.6
			c0-0.5,0.5-0.2,0.8-0.3C63.4,63,63.8,63,63.6,63.5z"/>
		<path class="st14" d="M80.4,65.4c0.2,0.3,0.3,0.6,0.7,0.5c0.3,0,0.3-0.2,0.4-0.4c0.1-0.3-0.2-0.5-0.5-0.6
			c-0.7-0.3-0.9-1.1-0.4-1.6c0.2-0.2,0.6-0.3,0.9-0.2c0.4,0.1,0.3,0.3,0.3,0.6c-0.3-0.1-0.3-0.5-0.7-0.4c-0.2,0.1-0.3,0.3-0.3,0.4
			c0,0.4,0.2,0.5,0.6,0.6c0.5,0.1,0.6,0.5,0.6,0.8c0,0.4-0.1,0.8-0.6,1C80.8,66.4,80.4,66.1,80.4,65.4z"/>
		<path class="st14" d="M102.3,65.6c0.1,0.7-0.4,0.6-0.8,0.6s-0.7,0-0.7-0.5c0-0.8,0.1-1.6-0.1-2.4v-0.1c0.4-0.2,0.8-0.1,1.1-0.1
			c0.4,0,0.5,0.1,0.4,0.5c-0.3,0-0.5-0.3-0.8-0.1c-0.2,0.2-0.1,0.5-0.1,0.7s0.1,0.3,0.4,0.3c0.5-0.2,0.3,0.2,0.3,0.3
			c0,0.3-0.2,0.1-0.3,0.1c-0.2-0.1-0.4,0-0.4,0.2c0,0.3-0.2,0.6,0.1,0.9C101.7,65.9,102,65.8,102.3,65.6z"/>
		<path class="st14" d="M57.2,63.6c-0.2-0.1-0.2-0.3-0.5-0.3c-0.3,0.1-0.2,0.3-0.2,0.5c0,0.6,0,1.3,0,1.9c0,0.2,0,0.4-0.3,0.4
			c-0.4,0-0.3-0.2-0.3-0.4c0-0.6,0.1-1.3,0.1-1.9c0-0.2,0-0.6-0.5-0.4c-0.2,0.1-0.2,0-0.2-0.1s0-0.3,0.3-0.3c0.5,0,0.9,0,1.4,0
			C57.4,63,57.2,63.3,57.2,63.6z"/>
		<path class="st14" d="M54,64.4c0-0.3,0.1-0.7,0-1s0-0.3,0.3-0.3s0.4,0.1,0.3,0.4c-0.1,0.8-0.1,1.6,0,2.3c0,0.1,0.1,0.3-0.1,0.4
			c-0.1,0.1-0.3,0.1-0.5,0c-0.3-0.1,0-0.3,0-0.4C54,65.2,54,64.8,54,64.4L54,64.4z"/>
		<path class="st14" d="M97.7,64.2c0.1,0.6-0.1,1.1,0.1,1.6c0,0.1,0.1,0.2-0.1,0.3c-0.2,0-0.4,0-0.5,0c-0.2,0-0.1-0.2,0-0.3
			c0.1-0.8,0.1-1.6,0-2.5c0-0.1-0.1-0.3,0.1-0.3c0.1,0,0.3,0,0.5,0s0.1,0.2,0.1,0.3C97.8,63.7,97.7,64,97.7,64.2z"/>
		<path class="st14" d="M93.8,66c-0.2-0.3-0.3-0.5-0.3-0.8c-0.2-0.6-0.4-1.3-0.6-1.8c0-0.1-0.1-0.3-0.1-0.4c-0.1-0.1-0.2-0.1-0.3,0
			c-0.1,0.1-0.1,0.2-0.2,0.4c-0.1,0.4-0.3,0.9-0.4,1.3s-0.2,0.9-0.5,1.3H92c0-0.1-0.2-0.1-0.1-0.4c0-0.4,0.1-0.5,0.4-0.5
			c0.1,0,0.2,0,0.2,0c0.3,0,0.4,0.1,0.5,0.5c0,0.3-0.1,0.3-0.1,0.4H93.8z M92.5,64.9c-0.5,0-0.5,0-0.3-0.5c0-0.1,0.1-0.3,0.2-0.4
			C92.5,64.3,92.6,64.5,92.5,64.9C92.6,64.7,92.5,64.9,92.5,64.9z"/>
		<path class="st14" d="M88.5,66c-0.2-0.3-0.3-0.5-0.3-0.8c-0.2-0.6-0.4-1.3-0.6-1.8c0-0.1-0.1-0.3-0.1-0.4c-0.1-0.1-0.2-0.1-0.3,0
			s-0.1,0.3-0.2,0.4c-0.1,0.4-0.3,0.9-0.4,1.3s-0.2,0.9-0.5,1.3h0.6c0-0.1-0.2-0.1-0.1-0.4c0-0.4,0.1-0.5,0.4-0.5c0.1,0,0.2,0,0.2,0
			c0.3,0,0.4,0.1,0.5,0.5c0,0.3-0.1,0.3-0.1,0.4H88.5z M87.2,64.9c-0.5,0-0.5,0-0.3-0.5c0-0.1,0.1-0.3,0.2-0.4
			C87.2,64.3,87.3,64.5,87.2,64.9C87.3,64.7,87.2,64.9,87.2,64.9z"/>
	</g>
</g>
<rect y="86" class="st15" width="150" height="14"/>
<g>
	<path class="st16" d="M143.7,86.1c-0.5,0.8-0.5,1.5-0.1,2.2c0.3,0.5,0.4,1,0.6,1.5c0.3,0.9,0.2,1.4-0.7,1.8c-0.7,0.4-1.4,0.7-2,1.1
		c-0.3,0.2-0.5,0.5-0.6,0.8c-0.2,0.8-0.3,1.5-0.4,2.3c-0.2,0.9-0.6,1.3-1.5,1.2c-0.8-0.1-1.5-0.3-2.3-0.3c-0.3,0-0.7,0.1-0.9,0.3
		c-0.6,0.5-1.1,1.1-1.7,1.6c-0.6,0.6-1.2,0.6-1.9,0c-0.6-0.5-1.1-1.1-1.7-1.6c-0.2-0.2-0.6-0.3-0.9-0.3c-0.7,0.1-1.4,0.2-2.1,0.3
		c-1,0.1-1.6-0.3-1.8-1.3c-0.1-0.5-0.2-1.1-0.2-1.6c0-0.8-0.4-1.3-1.1-1.6c-0.4-0.2-0.8-0.4-1.3-0.6c-1.1-0.6-1.3-1.2-0.8-2.3
		c0.3-0.6,0.6-1.2,0.9-1.9c0.1-0.3,0.1-0.6,0-0.9c-0.3-0.7-0.7-1.3-1-2c-0.5-0.9-0.3-1.6,0.7-2.1c0.6-0.3,1.2-0.6,1.8-0.9
		c0.5-0.2,0.8-0.6,0.8-1.2c0.1-0.7,0.2-1.4,0.3-2.2c0.2-0.8,0.6-1.1,1.5-1.1c0.7,0.1,1.5,0.2,2.3,0.4c0.5,0.1,0.8,0,1.1-0.3
		c0.6-0.6,1.2-1.1,1.8-1.7c0.6-0.5,1.2-0.5,1.8,0c0.6,0.6,1.1,1.2,1.7,1.7c0.2,0.2,0.6,0.3,0.9,0.3c0.7-0.1,1.4-0.2,2.1-0.3
		c1.1-0.2,1.6,0.3,1.8,1.3c0,0.2,0.1,0.4,0.1,0.6c-0.1,1.6,0.7,2.5,2.1,2.9c0.2,0.1,0.5,0.2,0.7,0.4c0.7,0.4,1,1.1,0.6,1.9
		C144.2,85.1,144,85.7,143.7,86.1z"/>
	<g>
		<path class="st17" d="M130.3,85.3V86h-3.8c0-0.2,0-0.3,0.1-0.5c0.1-0.3,0.3-0.5,0.5-0.8s0.5-0.5,0.9-0.9c0.6-0.5,1-0.9,1.3-1.2
			s0.3-0.6,0.3-0.8c0-0.3-0.1-0.5-0.3-0.7s-0.5-0.3-0.8-0.3s-0.6,0.1-0.8,0.3s-0.3,0.5-0.3,0.8l-0.7-0.1c0-0.5,0.2-1,0.6-1.2
			s0.8-0.4,1.3-0.4s1,0.2,1.3,0.5s0.5,0.7,0.5,1.1c0,0.2,0,0.5-0.1,0.7s-0.2,0.5-0.5,0.7s-0.6,0.6-1.1,1c-0.4,0.4-0.7,0.6-0.8,0.7
			s-0.2,0.3-0.3,0.4C127.6,85.3,130.3,85.3,130.3,85.3z"/>
		<path class="st17" d="M130.8,83.1c0-0.7,0.1-1.2,0.2-1.6s0.3-0.7,0.6-1s0.6-0.3,1-0.3c0.3,0,0.6,0.1,0.8,0.2s0.4,0.3,0.6,0.5
			s0.3,0.5,0.4,0.9s0.1,0.8,0.1,1.4c0,0.7-0.1,1.2-0.2,1.6s-0.3,0.7-0.6,1s-0.6,0.3-1,0.3c-0.6,0-1-0.2-1.3-0.6
			C131,85,130.8,84.2,130.8,83.1z M131.5,83.1c0,0.9,0.1,1.6,0.3,1.9s0.5,0.5,0.8,0.5s0.6-0.2,0.8-0.5s0.3-0.9,0.3-1.9
			c0-0.9-0.1-1.6-0.3-1.9s-0.5-0.5-0.8-0.5s-0.6,0.1-0.8,0.4C131.6,81.5,131.5,82.2,131.5,83.1z"/>
		<path class="st17" d="M135.1,81.6c0-0.4,0.1-0.8,0.3-1s0.5-0.4,0.9-0.4s0.7,0.1,0.9,0.4s0.4,0.6,0.4,1.1s-0.1,0.9-0.4,1.1
			s-0.5,0.4-0.9,0.4c-0.3,0-0.6-0.1-0.9-0.4S135.1,82.1,135.1,81.6z M136.3,80.6c-0.2,0-0.3,0.1-0.4,0.2s-0.2,0.4-0.2,0.8
			s0.1,0.6,0.2,0.8s0.3,0.2,0.4,0.2c0.2,0,0.3-0.1,0.4-0.2s0.2-0.4,0.2-0.8s-0.1-0.6-0.2-0.8S136.5,80.6,136.3,80.6z M136.3,86.2
			l3.1-6h0.6l-3.1,6H136.3z M138.8,84.6c0-0.4,0.1-0.8,0.3-1s0.5-0.4,0.9-0.4s0.7,0.1,0.9,0.4s0.4,0.6,0.4,1.1s-0.1,0.9-0.4,1.1
			s-0.5,0.4-0.9,0.4c-0.3,0-0.6-0.1-0.9-0.4S138.8,85.1,138.8,84.6z M140,83.6c-0.2,0-0.3,0.1-0.4,0.2s-0.2,0.4-0.2,0.8
			s0.1,0.6,0.2,0.8s0.3,0.2,0.4,0.2c0.2,0,0.3-0.1,0.4-0.2s0.2-0.4,0.2-0.8s-0.1-0.6-0.2-0.8S140.2,83.6,140,83.6z"/>
		<path class="st17" d="M126.7,90.2c0-1,0.3-1.7,0.8-2.2s1.2-0.8,2-0.8c0.5,0,1,0.1,1.4,0.4s0.7,0.6,1,1.1s0.3,1,0.3,1.5
			c0,0.6-0.1,1.1-0.4,1.6s-0.6,0.8-1,1s-0.9,0.4-1.4,0.4s-1-0.1-1.4-0.4s-0.7-0.6-1-1.1S126.7,90.7,126.7,90.2z M127.5,90.2
			c0,0.7,0.2,1.2,0.6,1.6s0.8,0.6,1.4,0.6c0.6,0,1-0.2,1.4-0.6s0.6-1,0.6-1.7c0-0.5-0.1-0.9-0.2-1.2s-0.4-0.6-0.7-0.8
			s-0.6-0.3-1-0.3c-0.5,0-1,0.2-1.4,0.6S127.5,89.3,127.5,90.2z"/>
		<path class="st17" d="M132.9,92.9v-5.7h3.9v0.7h-3.1v1.8h2.7v0.7h-2.7V93L132.9,92.9L132.9,92.9z"/>
		<path class="st17" d="M137.5,92.9v-5.7h3.9v0.7h-3.1v1.8h2.7v0.7h-2.7V93L137.5,92.9L137.5,92.9z"/>
	</g>
</g>
<g class="st18">
	<path class="st19" d="M35.3,94.6l0.7-0.1c0,0.3,0.1,0.5,0.2,0.7s0.3,0.3,0.6,0.4s0.6,0.2,0.9,0.2c0.3,0,0.5,0,0.8-0.1
		s0.4-0.2,0.5-0.4s0.2-0.3,0.2-0.5c0-0.2-0.1-0.3-0.2-0.5s-0.3-0.2-0.5-0.3c-0.2-0.1-0.5-0.2-1-0.3s-0.9-0.2-1.1-0.4
		c-0.3-0.1-0.5-0.3-0.6-0.5s-0.2-0.5-0.2-0.7c0-0.3,0.1-0.6,0.2-0.8s0.4-0.4,0.7-0.6s0.7-0.2,1.1-0.2c0.4,0,0.8,0.1,1.1,0.2
		s0.6,0.3,0.7,0.6s0.3,0.6,0.3,0.9L39,92.4c0-0.4-0.2-0.6-0.4-0.8s-0.6-0.3-1-0.3c-0.5,0-0.8,0.1-1,0.3s-0.3,0.4-0.3,0.6
		c0,0.2,0.1,0.4,0.2,0.5c0.1,0.1,0.5,0.3,1.1,0.4s1,0.3,1.3,0.4c0.3,0.2,0.6,0.3,0.7,0.6s0.2,0.5,0.2,0.8c0,0.3-0.1,0.6-0.3,0.9
		s-0.4,0.5-0.8,0.6s-0.7,0.2-1.1,0.2c-0.5,0-1-0.1-1.3-0.2s-0.6-0.4-0.8-0.7S35.3,95,35.3,94.6z"/>
	<path class="st19" d="M40.3,96.4l2.2-5.7h0.8l2.3,5.7h-0.9l-0.7-1.7h-2.4l-0.6,1.7H40.3z M41.9,94.1h1.9l-0.6-1.6
		c-0.2-0.5-0.3-0.9-0.4-1.2c-0.1,0.4-0.2,0.7-0.3,1.1L41.9,94.1z"/>
	<path class="st19" d="M46.2,96.4v-5.7H47v5.1h2.8v0.7H46.2z"/>
	<path class="st19" d="M50.5,93.6c0-1,0.3-1.7,0.8-2.2s1.2-0.8,2-0.8c0.5,0,1,0.1,1.4,0.4s0.7,0.6,1,1.1s0.3,1,0.3,1.5
		c0,0.6-0.1,1.1-0.4,1.6s-0.6,0.8-1,1s-0.9,0.4-1.4,0.4c-0.5,0-1-0.1-1.4-0.4s-0.7-0.6-1-1.1S50.5,94.1,50.5,93.6z M51.2,93.6
		c0,0.7,0.2,1.2,0.6,1.6s0.8,0.6,1.4,0.6c0.6,0,1-0.2,1.4-0.6s0.6-1,0.6-1.7c0-0.5-0.1-0.9-0.2-1.2s-0.4-0.6-0.7-0.8s-0.6-0.3-1-0.3
		c-0.5,0-1,0.2-1.4,0.6S51.2,92.8,51.2,93.6z"/>
	<path class="st19" d="M56.9,96.4v-5.7h0.8l3,4.5v-4.5h0.7v5.7h-0.8l-3-4.5v4.5H56.9z"/>
	<path class="st19" d="M62.8,96.4v-0.8h0.8v0.8c0,0.3-0.1,0.5-0.2,0.7s-0.3,0.3-0.5,0.4l-0.2-0.3c0.1-0.1,0.3-0.2,0.3-0.3
		s0.1-0.3,0.1-0.5H62.8z"/>
	<path class="st19" d="M67.1,96.4v-5.7h2.1c0.4,0,0.8,0.1,1.1,0.2s0.5,0.3,0.6,0.5s0.2,0.5,0.2,0.8c0,0.2-0.1,0.5-0.2,0.7
		s-0.3,0.4-0.6,0.5c0.3,0.1,0.6,0.3,0.8,0.5s0.3,0.5,0.3,0.9c0,0.3-0.1,0.5-0.2,0.7S71,95.9,70.8,96s-0.4,0.2-0.6,0.3
		s-0.6,0.1-0.9,0.1H67.1z M67.9,93.1h1.2c0.3,0,0.6,0,0.7-0.1c0.2-0.1,0.3-0.2,0.4-0.3s0.1-0.3,0.1-0.5c0-0.2,0-0.4-0.1-0.5
		s-0.2-0.2-0.4-0.3s-0.5-0.1-0.9-0.1h-1.1V93.1z M67.9,95.7h1.4c0.2,0,0.4,0,0.5,0c0.2,0,0.3-0.1,0.4-0.2s0.2-0.2,0.3-0.3
		s0.1-0.3,0.1-0.5c0-0.2-0.1-0.4-0.2-0.6s-0.3-0.3-0.5-0.3s-0.5-0.1-0.8-0.1h-1.3V95.7z"/>
	<path class="st19" d="M72.6,96.4v-5.7h0.8v5.7H72.6z"/>
	<path class="st19" d="M74.4,94.6l0.7-0.1c0,0.3,0.1,0.5,0.2,0.7c0.1,0.2,0.3,0.3,0.6,0.4c0.3,0.1,0.6,0.2,0.9,0.2
		c0.3,0,0.5,0,0.8-0.1c0.2-0.1,0.4-0.2,0.5-0.4c0.1-0.1,0.2-0.3,0.2-0.5c0-0.2-0.1-0.3-0.2-0.5c-0.1-0.1-0.3-0.2-0.5-0.3
		c-0.2-0.1-0.5-0.2-1-0.3c-0.5-0.1-0.9-0.2-1.1-0.4c-0.3-0.1-0.5-0.3-0.6-0.5c-0.1-0.2-0.2-0.5-0.2-0.7c0-0.3,0.1-0.6,0.2-0.8
		s0.4-0.4,0.7-0.6c0.3-0.1,0.7-0.2,1.1-0.2c0.4,0,0.8,0.1,1.1,0.2s0.6,0.3,0.7,0.6c0.2,0.3,0.3,0.6,0.3,0.9l-0.7,0.1
		c0-0.4-0.2-0.6-0.4-0.8c-0.2-0.2-0.6-0.3-1-0.3c-0.5,0-0.8,0.1-1,0.3c-0.2,0.2-0.3,0.4-0.3,0.6c0,0.2,0.1,0.4,0.2,0.5
		c0.1,0.1,0.5,0.3,1.1,0.4c0.6,0.1,1,0.3,1.3,0.4c0.3,0.2,0.6,0.3,0.7,0.6c0.2,0.2,0.2,0.5,0.2,0.8c0,0.3-0.1,0.6-0.3,0.9
		c-0.2,0.3-0.4,0.5-0.8,0.6c-0.3,0.1-0.7,0.2-1.1,0.2c-0.5,0-1-0.1-1.3-0.2c-0.3-0.2-0.6-0.4-0.8-0.7S74.4,95,74.4,94.6z"/>
	<path class="st19" d="M81.5,96.4v-5.1h-1.9v-0.7h4.5v0.7h-1.9v5.1H81.5z"/>
	<path class="st19" d="M88.7,90.7h0.8V94c0,0.6-0.1,1-0.2,1.4c-0.1,0.3-0.4,0.6-0.7,0.8s-0.8,0.3-1.3,0.3c-0.5,0-1-0.1-1.3-0.3
		c-0.3-0.2-0.6-0.5-0.7-0.8c-0.1-0.4-0.2-0.8-0.2-1.4v-3.3h0.8V94c0,0.5,0,0.9,0.1,1.1c0.1,0.2,0.3,0.4,0.5,0.5
		c0.2,0.1,0.5,0.2,0.8,0.2c0.6,0,1-0.1,1.2-0.4c0.2-0.3,0.4-0.7,0.4-1.5V90.7z"/>
	<path class="st19" d="M90.7,96.4v-5.7h2.2c0.4,0,0.7,0,0.9,0.1c0.3,0,0.5,0.1,0.7,0.3c0.2,0.1,0.3,0.3,0.5,0.6
		c0.1,0.2,0.2,0.5,0.2,0.8c0,0.5-0.2,0.9-0.5,1.2c-0.3,0.3-0.9,0.5-1.7,0.5h-1.5v2.3H90.7z M91.5,93.4h1.5c0.5,0,0.8-0.1,1-0.3
		c0.2-0.2,0.3-0.4,0.3-0.8c0-0.2-0.1-0.4-0.2-0.6s-0.3-0.3-0.5-0.3c-0.1,0-0.4-0.1-0.7-0.1h-1.5V93.4z"/>
	<path class="st19" d="M99.8,90.7h0.8V94c0,0.6-0.1,1-0.2,1.4c-0.1,0.3-0.4,0.6-0.7,0.8s-0.8,0.3-1.3,0.3c-0.5,0-1-0.1-1.3-0.3
		c-0.3-0.2-0.6-0.5-0.7-0.8C96.1,95.1,96,94.6,96,94v-3.3h0.8V94c0,0.5,0,0.9,0.1,1.1c0.1,0.2,0.3,0.4,0.5,0.5
		c0.2,0.1,0.5,0.2,0.8,0.2c0.6,0,1-0.1,1.2-0.4c0.2-0.3,0.4-0.7,0.4-1.5V90.7z"/>
	<path class="st19" d="M101.8,96.4v-5.7h2.5c0.5,0,0.9,0.1,1.2,0.2s0.5,0.3,0.6,0.5c0.2,0.3,0.2,0.5,0.2,0.9c0,0.4-0.1,0.7-0.4,1
		c-0.3,0.3-0.7,0.5-1.2,0.5c0.2,0.1,0.4,0.2,0.5,0.3c0.2,0.2,0.4,0.5,0.6,0.8l1,1.6h-1l-0.8-1.2c-0.2-0.3-0.4-0.6-0.5-0.8
		c-0.1-0.2-0.3-0.3-0.4-0.4s-0.2-0.1-0.3-0.2c-0.1,0-0.2,0-0.4,0h-0.9v2.5H101.8z M102.6,93.2h1.6c0.3,0,0.6,0,0.8-0.1
		s0.3-0.2,0.4-0.3s0.2-0.3,0.2-0.5c0-0.3-0.1-0.5-0.3-0.7c-0.2-0.2-0.5-0.3-0.9-0.3h-1.8V93.2z"/>
</g>
</svg>
