<?xml version="1.0" encoding="utf-8"?>
<!-- Generator: Adobe Illustrator 21.0.0, SVG Export Plug-In . SVG Version: 6.00 Build 0)  -->
<svg version="1.1" id="Layer_1" xmlns="http://www.w3.org/2000/svg" xmlns:xlink="http://www.w3.org/1999/xlink" x="0px" y="0px"
	 viewBox="0 0 150 100" style="enable-background:new 0 0 150 100;" xml:space="preserve">
<style type="text/css">
	.st0{opacity:0.98;fill:#9B9A9A;enable-background:new    ;}
	.st1{fill:#020202;}
	.st2{fill:#E56B87;}
	.st3{fill:#FFFAFB;}
	.st4{fill:none;}
	.st5{fill:none;stroke:#000000;stroke-miterlimit:10;}
	.st6{enable-background:new    ;}
</style>
<rect y="86" class="st0" width="150" height="14"/>
<g>
	<path class="st1" d="M63.2,29.9c1.6-2.7,3.8-4.8,6.7-6.3c2.1-1.1,4.6-1.7,7-1.7c1.6,0,3,0.1,4.4,0.6c1,0.3,0.9,0.4,1.6-0.6
		c1.3-2.1,2.7-4.4,4-6.6c0.1-0.1,0.1-0.4,0.3-0.6c0-0.1,0-0.1-0.1-0.1c-0.3,0-0.4,0-0.7,0.1c-1.4,0.4-1.1,0.4-2.4-0.3
		c-0.7-0.4-1.6-1-2.3-1.4c-0.1-0.1-0.3-0.1-0.4-0.3c-0.1-0.1-0.1-0.3,0-0.4c0.3-0.1,0.6-0.3,0.9-0.4c1.6-0.6,3-1,4.6-1.6
		c2.6-0.9,5.1-1.9,7.5-2.7c0.6-0.1,1-0.4,1.6-0.6c0.6-0.1,0.7-0.1,0.9,0.6c0,0.3,0.1,0.7,0.1,1c0.4,3.4,1,7,1.6,10.4
		c0.1,1.1,0.4,2.4,0.6,3.6c0,0.3,0.1,0.6-0.1,0.9c-0.3,0.1-0.4-0.1-0.7-0.3c-1-0.6-1.9-1.1-2.8-1.7c-0.4-0.3-0.6-0.6-0.7-1
		c-0.1-0.6-0.3-1.1-0.4-1.9c0-0.1-0.3-0.3-0.4-0.1c-0.1,0.3-0.3,0.4-0.4,0.7c-1.3,2.1-2.7,4.3-4,6.6c-0.7,1.1-0.6,1,0.1,1.9
		c1.3,1.4,2.3,3,3,4.8c0.6,1.3,1,2.7,1.1,4.1c0.3,2.4,0.1,4.7-0.7,7.1c-0.9,2.4-2,4.4-3.7,6.3c-0.9,0.9-1.7,1.6-2.7,2.1
		c-1.4,0.9-2.8,1.6-4.6,2c-0.9,0.3-1.7,0.4-2.6,0.4c-2.6,0.3-5.1,0-7.5-1c-2.4-0.9-4.6-2.3-6.4-4.3c-0.6-0.7-1.1-1.3-1.7-2
		c-0.1-0.1-0.1-0.3-0.3-0.4 M82.8,36.7c-0.9-3-3.8-4.6-6.4-4C74,33.1,71.8,35.3,72,38c0,0.3,0,0.7,0,1c0.4,2.8,3,5.1,6.3,4.7
		C81.7,43.1,83.7,40,82.8,36.7z"/>
	<path class="st2" d="M44.5,23.5c-0.4,0.1-1,0.3-1.4,0.4c-3.8,1.6-6.7,4.3-8.7,7.8c-1,1.9-1.6,4-1.9,6.1c0,0.3,0,0.6-0.1,0.9
		l7.7,14.2c0.3,0.1,0.4,0.3,0.7,0.4c2.1,1.1,4.4,1.9,6.7,2c1.4,0.1,2.8,0,4.3-0.1c1.6-0.3,3-0.7,4.4-1.4c1-0.6,2-1.1,2.8-1.7
		c1.9-1.4,3.4-3.1,4.6-5.1c0.9-1.6,1.6-3.4,1.9-5.3c0.4-2.1,0.3-4.4-0.1-6.6c-0.4-1.9-1.1-3.6-2.3-5.3c-0.7-1.1-1.6-2.1-2.6-3
		c-1.6-1.4-3.3-2.4-5.1-3.3c-0.7-0.3-1.4-0.6-2.1-0.7"/>
	<path d="M5,39c0-2,0.1-3.6,0.1-5.1c0-2.6,0-5.1,0-7.7c0-0.3,0-0.7,0-1s0.1-0.4,0.4-0.4c0.1,0,0.4,0,0.7,0c5.4,0,10.8,0,16.2,0
		c0.9,0,1.7,0.1,2.4,0.3c2,0.4,3.3,1.7,3.7,3.8c0.1,0.9,0.3,1.7,0.3,2.6c0,2.1,0,4.1,0,6.3c0,0.7-0.1,1.3-0.3,1.9
		c-0.3,1.1-1,2-2,2.6c-0.3,0.1-0.6,0.3-0.9,0.4s-0.3,0.3-0.1,0.4l0,0c0.6,0.4,0.9,1.1,1.1,1.7c0.9,2.3,1.6,4.6,2.4,6.8
		c0,0.1,0,0.1,0.1,0.3c0.1,0.3,0,0.6-0.4,0.6s-0.9,0-1.4,0c-2.4,0-4.8,0-7.1,0c-0.9,0-1,0-1.4-1c-0.7-2.1-1.4-4.3-2.3-6.3
		c-0.3-1-1.1-1.4-2.1-1.1c-0.1,0-0.3,0.1-0.3,0.3c0,0.3,0,0.6,0,0.9c0,2,0,4.1,0,6.1c0,0.3,0,0.6,0,0.9c0,0.3-0.1,0.4-0.4,0.4
		c-0.1,0-0.4,0-0.7,0c-1.3,0-2.7,0-4,0c-1,0-1.9,0-2.8,0c-0.3,0-0.6,0-0.9,0c-0.7,0-0.7-0.1-0.7-0.7c0-0.3,0-0.4,0-0.7
		c0-2.1,0-4.3,0-6.4C5,42.4,5,40.4,5,39z M14.4,34.3L14.4,34.3c0,0.1,0,0.4,0,0.6c0,0.6,0,1.1,0,1.7c0,0.4,0.1,0.6,0.6,0.6
		c0,0,0,0,0.1,0c0.9,0,1.9,0,2.7,0c0.3,0,0.7,0,1-0.1c0.7-0.1,1.1-0.6,1.1-1.3c0-0.9,0-1.9,0-2.7c0-0.9-0.4-1.3-1.3-1.3
		c-1.3,0-2.4,0-3.7,0c-0.4,0-0.6,0.1-0.6,0.6C14.4,33,14.4,33.7,14.4,34.3z"/>
	<path d="M133.2,51.2c-3.3,0-6.5,0-9.8,0c-0.3,0-0.6,0-0.9,0s-0.4-0.1-0.6-0.6c0-0.1,0-0.4,0-0.7c0-0.6,0-1.1,0-1.7
		c0-1.1-0.1-2.1-0.1-3.3c0-0.6,0.1-1.1,0.6-1.6c1.6-1.7,3-3.3,4.6-5c1.3-1.4,2.7-3,4-4.4c0.3-0.3,0.6-0.6,0.9-1
		c0.1-0.1,0.3-0.3,0.4-0.6c0.1-0.1,0-0.3-0.1-0.3s-0.4,0-0.6,0c-1.9,0-3.8,0-5.7,0c-1,0-2,0-3,0c-0.1,0-0.3,0-0.3,0
		c-0.9,0-1-0.1-1-1c0-1.4-0.1-2.8-0.1-4.3c0-0.4,0-1,0-1.4s0.1-0.6,0.6-0.6c0.1,0,0.3,0,0.4,0c6.5,0,13,0,19.5,0c0.3,0,0.4,0,0.7,0
		c0.6,0,0.7,0.1,0.7,0.7c0,0.9,0.1,1.6,0.1,2.4c0,1,0,2,0.1,3c0.1,0.6-0.1,1-0.4,1.4c-2.7,3.1-5.4,6.1-8.1,9.3
		c-0.4,0.4-0.7,0.9-1.1,1.3c-0.1,0.1-0.1,0.3-0.3,0.4c-0.1,0.1,0,0.3,0.1,0.3c0.3,0,0.6,0,0.9,0c1.7,0,3.6,0,5.3,0
		c1.1,0,2.3,0,3.4,0c0.1,0,0.1,0,0.3,0c0.6,0,0.7,0.1,0.7,0.7v0.1c0,1.7,0.1,3.4,0.1,5.1c0,0.1,0,0.3,0,0.3c0,0.7-0.1,0.9-0.9,0.9
		C140.1,51.2,136.6,51.2,133.2,51.2z"/>
	<path d="M106.6,24.9c3.1,0,6.3,0,9.4,0c0.3,0,0.4,0,0.7,0c0.3,0,0.4,0.1,0.6,0.4c0,0.3,0.1,0.4,0.1,0.7c0,1.7,0.1,3.3,0.1,5
		c0,0.1,0,0.4,0,0.7c0,0.1-0.1,0.3-0.3,0.3c-0.3,0-0.4,0-0.7,0c-1.3,0-2.4,0-3.7,0c-0.3,0-0.4,0-0.7,0c-0.3,0-0.4,0.1-0.4,0.4
		c0,0.4,0,0.9,0,1.4c0.1,1.1,0.1,2.1,0.1,3.3c0.1,2,0.1,4,0.1,5.8c0,1.7,0.1,3.4,0.3,5.1c0,0.7,0,1.4,0,2.1c0,0.1,0,0.3,0,0.4
		c0,0.1-0.1,0.3-0.4,0.4c-0.1,0-0.4,0-0.6,0c-2.6,0-5,0-7.6,0c-0.7,0-0.9-0.1-0.9-0.9c-0.1-1.3-0.1-2.6-0.1-3.8
		c-0.1-2.1-0.1-4.3-0.1-6.4c0-1.3,0-2.7-0.1-4c0-1.1-0.1-2.1-0.1-3.3c0-0.1,0-0.3,0-0.3c0-0.1-0.1-0.3-0.3-0.4
		c-0.1,0-0.3-0.1-0.4-0.1c-0.9,0-1.6,0-2.4,0c-0.7,0-1.6,0-2.3,0c-0.3,0-0.4-0.1-0.6-0.4c0-0.3-0.1-0.6-0.1-0.9c0-1.7,0-3.4-0.1-5.1
		c0-0.1,0-0.3,0-0.3c0-0.1,0.1-0.3,0.3-0.3c0.3,0,0.6,0,0.9,0c2.4,0,4.7,0,7.1,0C105,24.9,105.9,24.9,106.6,24.9L106.6,24.9z"/>
	<path d="M101.8,22.9c-0.1,0-0.1,0-0.1-0.1v-0.1c0,0,0-0.1,0.1-0.1c0.9-1,1.6-2,2.4-3c0.3-0.3,0.6-0.4,1-0.4c2,0,4,0,6,0
		c0.1,0,0.3,0,0.3,0c0.1,0,0.3,0,0.3,0.1s0,0.1-0.1,0.3c-0.3,0.1-0.4,0.1-0.7,0.3c-2.8,1-5.7,2-8.7,3
		C102,22.9,101.9,22.9,101.8,22.9z"/>
	<path d="M34.4,19.9c0.4,0,0.9,0,1.1,0c0.1,0,0.3,0.1,0.1,0.3c-0.1,0.1-0.1,0.4-0.3,0.6c-0.9,1.6-1.9,3.1-2.7,4.7
		c-0.3,0.4-0.6,0.6-1,0.6s-0.9,0-1.1,0s-0.3-0.1-0.3-0.4c0-0.1,0.1-0.3,0.1-0.4c0.7-1.6,1.4-3.1,2.1-4.7c0-0.1,0.1-0.3,0.1-0.4
		c0.1-0.3,0.3-0.3,0.6-0.3C33.8,19.9,34.1,19.9,34.4,19.9L34.4,19.9z"/>
	<path d="M99.9,22.9L99.9,22.9C99.8,23,99.8,22.9,99.9,22.9C99.8,22.9,99.9,22.9,99.9,22.9L99.9,22.9z"/>
	<path class="st3" d="M47.1,47.4c-0.4,0-0.9,0-1.4,0c-0.1,0-0.4,0-0.6,0c-0.1,0-0.1-0.1-0.1-0.3c0,0,0-0.1,0.1-0.1
		c0.6-0.3,1.1-0.7,1.9-0.6c0.3,0,0.6,0,0.9,0c0.6,0,1,0.3,1.4,0.6c0,0,0,0.1,0,0.3l-0.1,0.1C48.5,47.2,47.8,47.2,47.1,47.4
		L47.1,47.4z"/>
	<path class="st3" d="M47.3,47.5c0.4,0,0.7,0,1.1,0c0.1,0,0.3,0,0.4,0.3c0,0.1,0,0.3-0.1,0.4c-0.1,0.1-0.1,0.1-0.3,0.3
		c-0.7,0.3-1.4,0.3-2.1,0c-0.1,0-0.3-0.1-0.4-0.3c-0.1-0.1-0.1-0.4,0.1-0.4c0.1,0,0.4,0,0.6,0C46.8,47.5,47.1,47.5,47.3,47.5
		L47.3,47.5z"/>
	<path class="st4" d="M14.4,34.3c0-0.7,0-1.4,0-2.1c0-0.4,0.1-0.6,0.6-0.6c1.3,0,2.4,0,3.7,0c0.9,0,1.3,0.4,1.3,1.3s0,1.9,0,2.7
		c0,0.7-0.4,1.1-1.1,1.3c-0.3,0-0.6,0.1-1,0.1c-0.9,0-1.9,0-2.7,0c0,0,0,0-0.1,0c-0.4,0-0.6-0.1-0.6-0.6c0-0.6,0-1.1,0-1.7
		C14.4,34.7,14.4,34.6,14.4,34.3L14.4,34.3z"/>
	<path class="st2" d="M62.6,29.9c-0.1-0.1-0.3-0.4-0.6-0.6c-1.4-2-3.1-3.6-5.3-4.7c-1.3-0.7-2.6-1.3-4-1.6c-1.6-0.4-3-0.6-4.6-0.6
		c-1.1,0-2.3,0.1-3.4,0.4c-0.1,0-0.1,0-0.3,0c-2.1,0.6-4.1,1.4-6,2.7c-1.6,1.1-2.8,2.4-4,4c-1.3,1.9-2.1,3.8-2.6,6
		c-0.4,1.9-0.4,3.8-0.1,5.7c0.1,1.3,0.6,2.6,1.1,3.8c0.9,1.9,1.9,3.6,3.3,5.1c0.6,0.6,1,1.1,1.7,1.6c0.6,0.4,0.6,0.6,0.3,1.1
		c-0.4,1.1-1,2.1-1.4,3.3c-0.3,0.7-0.4,0.9-1.1,0.4c-1.4-0.6-2.7-1.1-4.1-1.9c-0.1,0-0.3-0.1-0.4-0.1c-0.3-0.1-0.4,0-0.4,0.1
		c-0.1,0.1-0.3,0.4-0.3,0.6c-0.3,0.4-0.4,1-0.7,1.4c-0.6,1.3-1.1,2.6-1.7,3.8c-0.3,0.7-0.3,0.7,0.4,1c0.1,0,0.1,0.1,0.1,0.1
		c1.3,0.6,2.4,1.1,3.7,1.6c1.1,0.4,1.1,0.4,0.6,1.6c-0.6,1.3-1.1,2.7-1.9,4c-0.1,0.1-0.1,0.4-0.3,0.6c-0.1,0.3,0,0.4,0.1,0.6
		c0.3,0.1,0.6,0.3,0.9,0.4c1.4,0.6,2.7,1.1,4.1,1.9c0.4,0.1,0.9,0.4,1.3,0.6c0.3,0.1,0.4,0,0.6-0.3c0.3-0.6,0.6-1.3,0.9-1.9
		c0.4-1.1,1-2.1,1.4-3.3c0.1-0.4,0.3-0.4,0.7-0.3c0.1,0.1,0.4,0.1,0.6,0.3c1.3,0.6,2.7,1.1,4,1.7c0.6,0.3,0.7,0.3,1-0.4l0,0
		c0.4-1,1-2.1,1.4-3.1c0.4-0.9,0.7-1.6,1-2.4c0.1-0.3,0.1-0.4,0-0.6c0-0.1-0.1-0.1-0.4-0.3c-0.1-0.1-0.3-0.1-0.4-0.1
		c-1-0.4-2-0.9-3.1-1.3c-0.1,0-0.3-0.1-0.4-0.1c-0.3-0.1-0.4-0.3-0.7-0.3c-0.3-0.1-0.3-0.3-0.3-0.6c0-0.1,0-0.1,0.1-0.3
		c0.3-0.7,0.6-1.3,0.9-2c0.3-0.6,0.6-1.1,0.9-1.9c0.1-0.3,0.3-0.4,0.7-0.3c0.4,0,1,0.1,1.4,0.1c4.1,0.3,7.8-1,11.1-3.4
		c1.7-1.3,3.1-3,4.3-4.8c0.1-0.1,0.1-0.3,0.3-0.4c0-0.1,0.1-0.3,0.3-0.4l0.1-7.7 M48.8,48.5c-0.1,0-0.1,0.1-0.3,0.1
		c-0.7,0.3-1.4,0.3-2.1,0c-0.1,0-0.3-0.1-0.4-0.3c-0.1-0.1-0.1-0.6,0.1-0.7c0.1,0,0.4-0.3,0.6-0.3h1v0.4c0,0,0.7,0,1,0
		c0.1,0,0.3,0,0.3,0.3C49.1,48.4,48.9,48.4,48.8,48.5z M49.5,47.7c-0.7,0-1.9,0-1.9,0v-0.1h-1.7c-0.1,0-0.4,0.1-0.6,0.1
		c-0.1,0-0.1-0.1-0.1-0.1s0-0.1,0.1-0.1c0.6-0.4,1.1-0.7,1.9-0.6c0.3,0,0.6,0,0.9,0c0.6,0,1,0.3,1.4,0.6
		C49.5,47.4,49.6,47.5,49.5,47.7L49.5,47.7z"/>
	<g>
		<path d="M41.8,33.9c0,0-7.3,5.4-3.8,10C37.9,43.8,37.4,39.8,41.8,33.9z"/>
		<g>
			<path d="M48.8,26c0,0,10.4-0.1,11.8,11c0,0,2.3,8.4-5.4,14.7c0.1,0,4.7-6.1,0.6-15.4c0,0,3,1.4,3,7.1C58.9,43.4,62.2,30,48.8,26z
				"/>
			<path d="M43.9,26.3c0,0-5.8,3.8-6.8,10.3C37.1,36.4,35.4,29,43.9,26.3z"/>
			<path d="M43.1,35.6c0,0-10.1,10.1,0.6,15.5C43.6,51.2,37.2,44.4,43.1,35.6z"/>
			<path d="M43.9,30.9c0,0-1.4,3.8,5,10.7c0.1,0,8.4,7.4,0,13.5c0.3-0.1,0.7-0.3,1-0.4c0.9-0.4,1.6-0.9,2.3-1.4
				c1.3-1,2.4-2.3,2.8-3.8c0.7-2.6-1.4-5.1-3-6.8c-0.3-0.3-0.6-0.7-0.9-1c-1.1-1.3-2.6-2.3-3.7-3.6c-1-1.1-1.9-2.6-2.6-4
				C44.4,32.9,44.1,31.9,43.9,30.9z"/>
			<path d="M44.5,28.2c0,0.7-0.1,1.4,0,2c0.1,1.9,0.9,3.6,2.1,5.1c2.3,2.8,5.7,4.6,7.5,7.7c0.3,0.4,0.6,1,0.7,1.4
				c0.1,0.4,0.3,1.1,0.4,1.6c0-0.1,0-0.4,0.1-0.6c0-0.4,0-1,0-1.4c-0.1-2.1-1.4-3.8-2.8-5.3c-2.6-2.6-6-4-7.4-7.4
				C44.8,30.4,44.5,29.3,44.5,28.2z"/>
		</g>
	</g>
</g>
<path class="st5" d="M144.7,85.1c-0.5,0.8-0.5,1.5-0.1,2.2c0.3,0.5,0.4,1,0.6,1.5c0.3,0.9,0.2,1.4-0.7,1.8c-0.7,0.4-1.4,0.7-2,1.1
	c-0.3,0.2-0.5,0.5-0.6,0.8c-0.2,0.8-0.3,1.5-0.4,2.3c-0.2,0.9-0.6,1.3-1.5,1.2c-0.8-0.1-1.5-0.3-2.3-0.3c-0.3,0-0.7,0.1-0.9,0.3
	c-0.6,0.5-1.1,1.1-1.7,1.6c-0.6,0.6-1.2,0.6-1.9,0c-0.6-0.5-1.1-1.1-1.7-1.6c-0.2-0.2-0.6-0.3-0.9-0.3c-0.7,0.1-1.4,0.2-2.1,0.3
	c-1,0.1-1.6-0.3-1.8-1.3c-0.1-0.5-0.2-1.1-0.2-1.6c0-0.8-0.4-1.3-1.1-1.6c-0.4-0.2-0.8-0.4-1.3-0.6c-1.1-0.6-1.3-1.2-0.8-2.3
	c0.3-0.6,0.6-1.2,0.9-1.9c0.1-0.3,0.1-0.6,0-0.9c-0.3-0.7-0.7-1.3-1-2c-0.5-0.9-0.3-1.6,0.7-2.1c0.6-0.3,1.2-0.6,1.8-0.9
	c0.5-0.2,0.8-0.6,0.8-1.2c0.1-0.7,0.2-1.4,0.3-2.2c0.2-0.8,0.6-1.1,1.5-1.1c0.7,0.1,1.5,0.2,2.3,0.4c0.5,0.1,0.8,0,1.1-0.3
	c0.6-0.6,1.2-1.1,1.8-1.7c0.6-0.5,1.2-0.5,1.8,0c0.6,0.6,1.1,1.2,1.7,1.7c0.2,0.2,0.6,0.3,0.9,0.3c0.7-0.1,1.4-0.2,2.1-0.3
	c1.1-0.2,1.6,0.3,1.8,1.3c0,0.2,0.1,0.4,0.1,0.6c-0.1,1.6,0.7,2.5,2.1,2.9c0.2,0.1,0.5,0.2,0.7,0.4c0.7,0.4,1,1.1,0.6,1.9
	C145.2,84.1,145,84.7,144.7,85.1z"/>
<g>
	<path d="M131.3,84.3V85h-3.8c0-0.2,0-0.3,0.1-0.5c0.1-0.3,0.3-0.5,0.5-0.8c0.2-0.3,0.5-0.5,0.9-0.9c0.6-0.5,1-0.9,1.3-1.2
		s0.3-0.6,0.3-0.8c0-0.3-0.1-0.5-0.3-0.7s-0.5-0.3-0.8-0.3s-0.6,0.1-0.8,0.3s-0.3,0.5-0.3,0.8l-0.7-0.1c0-0.5,0.2-1,0.6-1.2
		s0.8-0.4,1.3-0.4s1,0.2,1.3,0.5s0.5,0.7,0.5,1.1c0,0.2,0,0.5-0.1,0.7s-0.2,0.5-0.5,0.7s-0.6,0.6-1.1,1c-0.4,0.4-0.7,0.6-0.8,0.7
		s-0.2,0.3-0.3,0.4C128.6,84.3,131.3,84.3,131.3,84.3z"/>
	<path d="M131.8,82.1c0-0.7,0.1-1.2,0.2-1.6s0.3-0.7,0.6-1s0.6-0.3,1-0.3c0.3,0,0.6,0.1,0.8,0.2s0.4,0.3,0.6,0.5s0.3,0.5,0.4,0.9
		s0.1,0.8,0.1,1.4c0,0.7-0.1,1.2-0.2,1.6s-0.3,0.7-0.6,1s-0.6,0.3-1,0.3c-0.6,0-1-0.2-1.3-0.6C132,84,131.8,83.2,131.8,82.1z
		 M132.5,82.1c0,0.9,0.1,1.6,0.3,1.9s0.5,0.5,0.8,0.5s0.6-0.2,0.8-0.5s0.3-0.9,0.3-1.9c0-0.9-0.1-1.6-0.3-1.9s-0.5-0.5-0.8-0.5
		s-0.6,0.1-0.8,0.4C132.6,80.5,132.5,81.2,132.5,82.1z"/>
	<path d="M136.1,80.6c0-0.4,0.1-0.8,0.3-1s0.5-0.4,0.9-0.4s0.7,0.1,0.9,0.4s0.4,0.6,0.4,1.1s-0.1,0.9-0.4,1.1s-0.5,0.4-0.9,0.4
		c-0.3,0-0.6-0.1-0.9-0.4S136.1,81.1,136.1,80.6z M137.3,79.6c-0.2,0-0.3,0.1-0.4,0.2s-0.2,0.4-0.2,0.8s0.1,0.6,0.2,0.8
		s0.3,0.2,0.4,0.2c0.2,0,0.3-0.1,0.4-0.2s0.2-0.4,0.2-0.8s-0.1-0.6-0.2-0.8S137.5,79.6,137.3,79.6z M137.3,85.2l3.1-6h0.6l-3.1,6
		H137.3z M139.8,83.6c0-0.4,0.1-0.8,0.3-1s0.5-0.4,0.9-0.4s0.7,0.1,0.9,0.4s0.4,0.6,0.4,1.1s-0.1,0.9-0.4,1.1s-0.5,0.4-0.9,0.4
		c-0.3,0-0.6-0.1-0.9-0.4S139.8,84.1,139.8,83.6z M141,82.6c-0.2,0-0.3,0.1-0.4,0.2s-0.2,0.4-0.2,0.8s0.1,0.6,0.2,0.8
		s0.3,0.2,0.4,0.2c0.2,0,0.3-0.1,0.4-0.2s0.2-0.4,0.2-0.8s-0.1-0.6-0.2-0.8S141.2,82.6,141,82.6z"/>
	<path d="M127.7,89.2c0-1,0.3-1.7,0.8-2.2s1.2-0.8,2-0.8c0.5,0,1,0.1,1.4,0.4s0.7,0.6,1,1.1s0.3,1,0.3,1.5c0,0.6-0.1,1.1-0.4,1.6
		s-0.6,0.8-1,1s-0.9,0.4-1.4,0.4s-1-0.1-1.4-0.4s-0.7-0.6-1-1.1S127.7,89.7,127.7,89.2z M128.5,89.2c0,0.7,0.2,1.2,0.6,1.6
		s0.8,0.6,1.4,0.6c0.6,0,1-0.2,1.4-0.6s0.6-1,0.6-1.7c0-0.5-0.1-0.9-0.2-1.2s-0.4-0.6-0.7-0.8s-0.6-0.3-1-0.3c-0.5,0-1,0.2-1.4,0.6
		S128.5,88.3,128.5,89.2z"/>
	<path d="M133.9,91.9v-5.7h3.9v0.7h-3.1v1.8h2.7v0.7h-2.7V92L133.9,91.9L133.9,91.9z"/>
	<path d="M138.5,91.9v-5.7h3.9v0.7h-3.1v1.8h2.7v0.7h-2.7V92L138.5,91.9L138.5,91.9z"/>
</g>
<g class="st6">
	<path d="M33.7,94.2l0.7-0.1c0,0.3,0.1,0.5,0.2,0.7s0.3,0.3,0.6,0.4s0.6,0.2,0.9,0.2c0.3,0,0.5,0,0.8-0.1s0.4-0.2,0.5-0.4
		s0.2-0.3,0.2-0.5c0-0.2-0.1-0.3-0.2-0.5s-0.3-0.2-0.5-0.3c-0.2-0.1-0.5-0.2-1-0.3s-0.9-0.2-1.1-0.4c-0.3-0.1-0.5-0.3-0.6-0.5
		s-0.2-0.5-0.2-0.7c0-0.3,0.1-0.6,0.2-0.8s0.4-0.4,0.7-0.6s0.7-0.2,1.1-0.2c0.4,0,0.8,0.1,1.1,0.2s0.6,0.3,0.7,0.6s0.3,0.6,0.3,0.9
		L37.4,92c0-0.4-0.2-0.6-0.4-0.8s-0.6-0.3-1-0.3c-0.5,0-0.8,0.1-1,0.3s-0.3,0.4-0.3,0.6c0,0.2,0.1,0.4,0.2,0.5
		c0.1,0.1,0.5,0.3,1.1,0.4s1,0.3,1.3,0.4c0.3,0.2,0.6,0.3,0.7,0.6s0.2,0.5,0.2,0.8c0,0.3-0.1,0.6-0.3,0.9s-0.4,0.5-0.8,0.6
		s-0.7,0.2-1.1,0.2c-0.5,0-1-0.1-1.3-0.2s-0.6-0.4-0.8-0.7S33.7,94.6,33.7,94.2z"/>
	<path d="M38.7,96.1l2.2-5.7h0.8l2.3,5.7h-0.9l-0.7-1.7h-2.4l-0.6,1.7H38.7z M40.3,93.7h1.9l-0.6-1.6c-0.2-0.5-0.3-0.9-0.4-1.2
		c-0.1,0.4-0.2,0.7-0.3,1.1L40.3,93.7z"/>
	<path d="M44.6,96.1v-5.7h0.8v5.1h2.8v0.7H44.6z"/>
	<path d="M48.8,93.3c0-1,0.3-1.7,0.8-2.2s1.2-0.8,2-0.8c0.5,0,1,0.1,1.4,0.4s0.7,0.6,1,1.1s0.3,1,0.3,1.5c0,0.6-0.1,1.1-0.4,1.6
		s-0.6,0.8-1,1s-0.9,0.4-1.4,0.4c-0.5,0-1-0.1-1.4-0.4s-0.7-0.6-1-1.1S48.8,93.8,48.8,93.3z M49.6,93.3c0,0.7,0.2,1.2,0.6,1.6
		s0.8,0.6,1.4,0.6c0.6,0,1-0.2,1.4-0.6s0.6-1,0.6-1.7c0-0.5-0.1-0.9-0.2-1.2s-0.4-0.6-0.7-0.8s-0.6-0.3-1-0.3c-0.5,0-1,0.2-1.4,0.6
		S49.6,92.4,49.6,93.3z"/>
	<path d="M55.3,96.1v-5.7h0.8l3,4.5v-4.5h0.7v5.7H59l-3-4.5v4.5H55.3z"/>
	<path d="M61.2,96.1v-0.8H62v0.8c0,0.3-0.1,0.5-0.2,0.7s-0.3,0.3-0.5,0.4l-0.2-0.3c0.1-0.1,0.3-0.2,0.3-0.3s0.1-0.3,0.1-0.5H61.2z"
		/>
	<path d="M65.5,96.1v-5.7h2.1c0.4,0,0.8,0.1,1.1,0.2s0.5,0.3,0.6,0.5s0.2,0.5,0.2,0.8c0,0.2-0.1,0.5-0.2,0.7S69,92.9,68.7,93
		c0.3,0.1,0.6,0.3,0.8,0.5s0.3,0.5,0.3,0.9c0,0.3-0.1,0.5-0.2,0.7s-0.3,0.4-0.4,0.5s-0.4,0.2-0.6,0.3s-0.6,0.1-0.9,0.1H65.5z
		 M66.2,92.8h1.2c0.3,0,0.6,0,0.7-0.1c0.2-0.1,0.3-0.2,0.4-0.3s0.1-0.3,0.1-0.5c0-0.2,0-0.4-0.1-0.5s-0.2-0.2-0.4-0.3
		S67.8,91,67.4,91h-1.1V92.8z M66.2,95.4h1.4c0.2,0,0.4,0,0.5,0c0.2,0,0.3-0.1,0.4-0.2s0.2-0.2,0.3-0.3s0.1-0.3,0.1-0.5
		c0-0.2-0.1-0.4-0.2-0.6s-0.3-0.3-0.5-0.3s-0.5-0.1-0.8-0.1h-1.3V95.4z"/>
	<path d="M71,96.1v-5.7h0.8v5.7H71z"/>
	<path d="M72.8,94.2l0.7-0.1c0,0.3,0.1,0.5,0.2,0.7s0.3,0.3,0.6,0.4s0.6,0.2,0.9,0.2c0.3,0,0.5,0,0.8-0.1c0.2-0.1,0.4-0.2,0.5-0.4
		c0.1-0.1,0.2-0.3,0.2-0.5c0-0.2-0.1-0.3-0.2-0.5c-0.1-0.1-0.3-0.2-0.5-0.3c-0.2-0.1-0.5-0.2-1-0.3s-0.9-0.2-1.1-0.4
		c-0.3-0.1-0.5-0.3-0.6-0.5S73,92.1,73,91.8c0-0.3,0.1-0.6,0.2-0.8s0.4-0.4,0.7-0.6s0.7-0.2,1.1-0.2c0.4,0,0.8,0.1,1.1,0.2
		s0.6,0.3,0.7,0.6c0.2,0.3,0.3,0.6,0.3,0.9L76.5,92c0-0.4-0.2-0.6-0.4-0.8c-0.2-0.2-0.6-0.3-1-0.3c-0.5,0-0.8,0.1-1,0.3
		s-0.3,0.4-0.3,0.6c0,0.2,0.1,0.4,0.2,0.5c0.1,0.1,0.5,0.3,1.1,0.4s1,0.3,1.3,0.4c0.3,0.2,0.6,0.3,0.7,0.6c0.2,0.2,0.2,0.5,0.2,0.8
		c0,0.3-0.1,0.6-0.3,0.9c-0.2,0.3-0.4,0.5-0.8,0.6c-0.3,0.1-0.7,0.2-1.1,0.2c-0.5,0-1-0.1-1.3-0.2s-0.6-0.4-0.8-0.7
		S72.8,94.6,72.8,94.2z"/>
	<path d="M79.9,96.1V91H78v-0.7h4.5V91h-1.9v5.1H79.9z"/>
	<path d="M87.1,90.4h0.8v3.3c0,0.6-0.1,1-0.2,1.4c-0.1,0.3-0.4,0.6-0.7,0.8s-0.8,0.3-1.3,0.3c-0.5,0-1-0.1-1.3-0.3
		c-0.3-0.2-0.6-0.5-0.7-0.8c-0.1-0.4-0.2-0.8-0.2-1.4v-3.3h0.8v3.3c0,0.5,0,0.9,0.1,1.1c0.1,0.2,0.3,0.4,0.5,0.5
		c0.2,0.1,0.5,0.2,0.8,0.2c0.6,0,1-0.1,1.2-0.4c0.2-0.3,0.4-0.7,0.4-1.5V90.4z"/>
	<path d="M89.1,96.1v-5.7h2.2c0.4,0,0.7,0,0.9,0.1c0.3,0,0.5,0.1,0.7,0.3c0.2,0.1,0.3,0.3,0.5,0.6c0.1,0.2,0.2,0.5,0.2,0.8
		c0,0.5-0.2,0.9-0.5,1.2c-0.3,0.3-0.9,0.5-1.7,0.5h-1.5v2.3H89.1z M89.8,93.1h1.5c0.5,0,0.8-0.1,1-0.3c0.2-0.2,0.3-0.4,0.3-0.8
		c0-0.2-0.1-0.4-0.2-0.6s-0.3-0.3-0.5-0.3c-0.1,0-0.4-0.1-0.7-0.1h-1.5V93.1z"/>
	<path d="M98.2,90.4h0.8v3.3c0,0.6-0.1,1-0.2,1.4c-0.1,0.3-0.4,0.6-0.7,0.8s-0.8,0.3-1.3,0.3c-0.5,0-1-0.1-1.3-0.3
		c-0.3-0.2-0.6-0.5-0.7-0.8c-0.1-0.4-0.2-0.8-0.2-1.4v-3.3h0.8v3.3c0,0.5,0,0.9,0.1,1.1c0.1,0.2,0.3,0.4,0.5,0.5
		c0.2,0.1,0.5,0.2,0.8,0.2c0.6,0,1-0.1,1.2-0.4c0.2-0.3,0.4-0.7,0.4-1.5V90.4z"/>
	<path d="M100.2,96.1v-5.7h2.5c0.5,0,0.9,0.1,1.2,0.2s0.5,0.3,0.6,0.5c0.2,0.3,0.2,0.5,0.2,0.9c0,0.4-0.1,0.7-0.4,1
		c-0.3,0.3-0.7,0.5-1.2,0.5c0.2,0.1,0.4,0.2,0.5,0.3c0.2,0.2,0.4,0.5,0.6,0.8l1,1.6h-1l-0.8-1.2c-0.2-0.3-0.4-0.6-0.5-0.8
		c-0.1-0.2-0.3-0.3-0.4-0.4s-0.2-0.1-0.3-0.2c-0.1,0-0.2,0-0.4,0H101v2.5H100.2z M101,92.9h1.6c0.3,0,0.6,0,0.8-0.1s0.3-0.2,0.4-0.3
		s0.2-0.3,0.2-0.5c0-0.3-0.1-0.5-0.3-0.7c-0.2-0.2-0.5-0.3-0.9-0.3H101V92.9z"/>
</g>
</svg>
