<?xml version="1.0" encoding="utf-8"?>
<!-- Generator: Adobe Illustrator 21.0.0, SVG Export Plug-In . SVG Version: 6.00 Build 0)  -->
<svg version="1.1" id="Layer_1" xmlns="http://www.w3.org/2000/svg" xmlns:xlink="http://www.w3.org/1999/xlink" x="0px" y="0px"
	 viewBox="0 0 150 100" style="enable-background:new 0 0 150 100;" xml:space="preserve">
<style type="text/css">
	.st0{fill:#847A6F;}
	.st1{fill:#504336;}
	.st2{opacity:0.3;enable-background:new    ;}
	.st3{fill:none;stroke:#FEFEFE;stroke-miterlimit:10;}
	.st4{fill:#FEFEFE;}
	.st5{fill:#FFFFFF;}
</style>
<rect class="st0" width="150" height="100"/>
<g>
	<polygon class="st1" points="24.6,37.4 24.6,61.4 32.7,61.4 32.8,53.5 40.7,53.4 40.7,39.2 44.8,39.2 44.8,59.3 38.8,59.3 
		38.8,61.4 46.9,61.4 46.9,37.2 38.8,37.2 38.8,51.2 30.6,51.3 30.6,59.3 26.6,59.3 26.7,39.3 30.5,39.2 30.5,44.9 32.8,44.9 
		32.8,37.4 	"/>
	<polygon class="st1" points="50.6,37.2 50.6,61.4 73,61.4 73,37.2 59.1,37.2 59.1,51.5 66.8,51.5 66.8,49.3 61.2,49.3 61.2,39.5 
		70.7,39.5 70.7,59.2 52.9,59.2 52.9,39.6 56,39.5 56,37.2 	"/>
	<polygon class="st1" points="77.5,37.2 77.5,55.6 103.4,55.6 103.4,79.2 105.6,79.2 105.6,53.3 79.5,53.3 79.5,39.5 91,39.5 91,43 
		88,43 88,45.4 93.4,45.4 93.4,37.2 	"/>
	<polygon class="st1" points="103.2,36.8 103.2,45.5 108.3,45.5 108.3,43.6 105.6,43.6 105.6,39.2 110.8,39.2 110.9,62.1 
		119.4,62.1 119.4,45.6 125.4,45.5 125.4,37.2 117.1,37.2 117.1,39.5 123,39.6 123,43.6 117.1,43.6 117.1,59.9 113.2,59.9 
		113.1,36.8 	"/>
	<polygon class="st1" points="77.5,59.4 77.5,61.4 97.5,61.4 97.5,77.2 67.3,77.2 67.3,67.5 73,67.5 73,65.5 65.3,65.5 65.3,79.5 
		99.6,79.5 99.6,59.4 	"/>
	<polygon class="st1" points="103.2,9.1 103.2,33.6 125.1,33.7 125.1,25.5 108.8,25.5 108.8,27.7 123,27.7 123,31.3 105.2,31.2 
		105.2,11.4 118.9,11.5 118.9,15 109.2,15 109.2,17.4 121.2,17.3 121.2,9.1 	"/>
	<polygon class="st1" points="108.9,19.5 109,23.5 113.3,23.5 113.3,19.5 	"/>
	<polygon class="st1" points="50.7,8.5 50.7,17.2 55.8,17.2 55.8,15.2 53.1,15.2 53.1,10.9 58.4,10.9 58.4,33.8 67,33.8 67,17.3 
		73,17.3 73,8.9 64.7,8.9 64.7,11.2 70.6,11.2 70.6,15.2 64.6,15.2 64.6,31.6 60.7,31.6 60.7,8.5 	"/>
	<polygon class="st1" points="76.9,9.5 76.9,33.5 85.1,33.5 85.1,25.6 93.1,25.6 93.1,11.3 97.2,11.3 97.2,31.4 91.1,31.4 
		91.1,33.5 99.2,33.5 99.2,9.3 91.2,9.3 91.1,23.3 83,23.4 83,31.4 79,31.4 79,11.4 82.8,11.4 82.8,17 85.2,17 85.1,9.5 	"/>
</g>
<rect y="86" class="st2" width="150" height="14"/>
<g>
	<path class="st3" d="M148.2,84.9c-0.5,0.8-0.5,1.5-0.1,2.2c0.3,0.5,0.4,1,0.6,1.5c0.3,0.9,0.2,1.4-0.7,1.8c-0.7,0.4-1.4,0.7-2,1.1
		c-0.3,0.2-0.5,0.5-0.6,0.8c-0.2,0.8-0.3,1.5-0.4,2.3c-0.2,0.9-0.6,1.3-1.5,1.2c-0.8-0.1-1.5-0.3-2.3-0.3c-0.3,0-0.7,0.1-0.9,0.3
		c-0.6,0.5-1.1,1.1-1.7,1.6c-0.6,0.6-1.2,0.6-1.9,0c-0.6-0.5-1.1-1.1-1.7-1.6c-0.2-0.2-0.6-0.3-0.9-0.3c-0.7,0.1-1.4,0.2-2.1,0.3
		c-1,0.1-1.6-0.3-1.8-1.3c-0.1-0.5-0.2-1.1-0.2-1.6c0-0.8-0.4-1.3-1.1-1.6c-0.4-0.2-0.8-0.4-1.3-0.6c-1.1-0.6-1.3-1.2-0.8-2.3
		c0.3-0.6,0.6-1.2,0.9-1.9c0.1-0.3,0.1-0.6,0-0.9c-0.3-0.7-0.7-1.3-1-2c-0.5-0.9-0.3-1.6,0.7-2.1c0.6-0.3,1.2-0.6,1.8-0.9
		c0.5-0.2,0.8-0.6,0.8-1.2c0.1-0.7,0.2-1.4,0.3-2.2c0.2-0.8,0.6-1.1,1.5-1.1c0.7,0.1,1.5,0.2,2.3,0.4c0.5,0.1,0.8,0,1.1-0.3
		c0.6-0.6,1.2-1.1,1.8-1.7c0.6-0.5,1.2-0.5,1.8,0c0.6,0.6,1.1,1.2,1.7,1.7c0.2,0.2,0.6,0.3,0.9,0.3c0.7-0.1,1.4-0.2,2.1-0.3
		c1.1-0.2,1.6,0.3,1.8,1.3c0,0.2,0.1,0.4,0.1,0.6c-0.1,1.6,0.7,2.5,2.1,2.9c0.2,0.1,0.5,0.2,0.7,0.4c0.7,0.4,1,1.1,0.6,1.9
		C148.7,83.9,148.5,84.5,148.2,84.9z"/>
	<path class="st4" d="M139.9,80.9c0-0.4,0.1-0.8,0.3-1c0.2-0.3,0.5-0.4,0.9-0.4s0.7,0.1,0.9,0.4s0.4,0.6,0.4,1.1s-0.1,0.9-0.4,1.1
		s-0.5,0.4-0.9,0.4c-0.3,0-0.6-0.1-0.9-0.4S139.9,81.4,139.9,80.9z M141.1,79.9c-0.2,0-0.3,0.1-0.4,0.2c-0.1,0.2-0.2,0.4-0.2,0.8
		s0.1,0.6,0.2,0.8s0.3,0.2,0.4,0.2c0.2,0,0.3-0.1,0.4-0.2c0.1-0.2,0.2-0.4,0.2-0.8s-0.1-0.6-0.2-0.8S141.3,79.9,141.1,79.9z
		 M141.1,85.4l3.1-6h0.6l-3.1,6H141.1z M143.6,83.9c0-0.4,0.1-0.8,0.3-1c0.2-0.3,0.5-0.4,0.9-0.4s0.7,0.1,0.9,0.4s0.4,0.6,0.4,1.1
		s-0.1,0.9-0.4,1.1s-0.5,0.4-0.9,0.4c-0.3,0-0.6-0.1-0.9-0.4S143.6,84.4,143.6,83.9z M144.8,82.9c-0.2,0-0.3,0.1-0.4,0.2
		c-0.1,0.2-0.2,0.4-0.2,0.8s0.1,0.6,0.2,0.8s0.3,0.2,0.4,0.2c0.2,0,0.3-0.1,0.4-0.2c0.1-0.2,0.2-0.4,0.2-0.8s-0.1-0.6-0.2-0.8
		S145,82.9,144.8,82.9z"/>
	<path class="st4" d="M130.9,90.4c0-1,0.3-1.7,0.8-2.2s1.2-0.8,2-0.8c0.5,0,1,0.1,1.4,0.4s0.7,0.6,1,1.1s0.3,1,0.3,1.5
		c0,0.6-0.1,1.1-0.4,1.6s-0.6,0.8-1,1s-0.9,0.4-1.4,0.4s-1-0.1-1.4-0.4s-0.7-0.6-1-1.1S130.9,90.9,130.9,90.4z M131.6,90.5
		c0,0.7,0.2,1.2,0.6,1.6s0.8,0.6,1.4,0.6c0.6,0,1-0.2,1.4-0.6s0.6-1,0.6-1.7c0-0.5-0.1-0.9-0.2-1.2c-0.2-0.3-0.4-0.6-0.7-0.8
		c-0.3-0.2-0.6-0.3-1-0.3c-0.5,0-1,0.2-1.4,0.6S131.6,89.6,131.6,90.5z"/>
	<path class="st4" d="M136.6,93.1v-5.7h3.9v0.7h-3.1v1.8h2.7v0.7h-2.7v2.6L136.6,93.1L136.6,93.1z"/>
	<path class="st4" d="M140.8,93.1v-5.7h3.9v0.7h-3.1v1.8h2.7v0.7h-2.7v2.6L140.8,93.1L140.8,93.1z"/>
	<g>
		<path class="st4" d="M134,84l0.7-0.1c0.1,0.4,0.2,0.6,0.4,0.8s0.4,0.3,0.7,0.3s0.6-0.1,0.9-0.4s0.4-0.6,0.4-1s-0.1-0.7-0.3-0.9
			s-0.5-0.3-0.9-0.3c-0.2,0-0.4,0.1-0.6,0.2s-0.3,0.2-0.4,0.4l-0.7-0.1l0.6-2.9h2.8v0.7h-2.3l-0.3,1.5c0.3-0.2,0.7-0.4,1.1-0.4
			c0.5,0,0.9,0.2,1.3,0.5s0.5,0.8,0.5,1.3s-0.2,1-0.5,1.3c-0.4,0.5-0.9,0.7-1.5,0.7c-0.5,0-0.9-0.1-1.3-0.4S134,84.5,134,84z"/>
	</g>
</g>
<g>
	<path class="st5" d="M19.6,95.2v-5.7h2.5c0.5,0,0.9,0.1,1.2,0.2s0.5,0.3,0.6,0.5s0.2,0.5,0.2,0.9c0,0.4-0.1,0.7-0.4,1
		s-0.7,0.5-1.2,0.5c0.2,0.1,0.4,0.2,0.5,0.3c0.2,0.2,0.4,0.5,0.6,0.8l1,1.6h-1L23,94c-0.2-0.3-0.4-0.6-0.5-0.8s-0.3-0.3-0.4-0.4
		s-0.2-0.1-0.3-0.2c-0.1,0-0.2,0-0.4,0h-0.9v2.5H19.6z M20.4,92H22c0.3,0,0.6,0,0.8-0.1s0.3-0.2,0.4-0.3s0.2-0.3,0.2-0.5
		c0-0.3-0.1-0.5-0.3-0.7s-0.5-0.3-0.9-0.3h-1.8V92z"/>
	<path class="st5" d="M25.4,95.2v-5.7h4.1v0.7h-3.4v1.8h3.2v0.7h-3.2v1.9h3.5v0.7H25.4z"/>
	<path class="st5" d="M30.5,93.4l0.7-0.1c0,0.3,0.1,0.5,0.2,0.7s0.3,0.3,0.6,0.4s0.6,0.2,0.9,0.2c0.3,0,0.5,0,0.8-0.1
		s0.4-0.2,0.5-0.4s0.2-0.3,0.2-0.5c0-0.2-0.1-0.3-0.2-0.5s-0.3-0.2-0.5-0.3c-0.2-0.1-0.5-0.2-1-0.3s-0.9-0.2-1.1-0.4
		c-0.3-0.1-0.5-0.3-0.6-0.5s-0.2-0.5-0.2-0.7c0-0.3,0.1-0.6,0.2-0.8s0.4-0.4,0.7-0.6s0.7-0.2,1.1-0.2c0.4,0,0.8,0.1,1.1,0.2
		s0.6,0.3,0.7,0.6s0.3,0.6,0.3,0.9l-0.7,0.1c0-0.4-0.2-0.6-0.4-0.8s-0.6-0.3-1-0.3c-0.5,0-0.8,0.1-1,0.3s-0.3,0.4-0.3,0.6
		c0,0.2,0.1,0.4,0.2,0.5c0.1,0.1,0.5,0.3,1.1,0.4s1,0.3,1.3,0.4c0.3,0.2,0.6,0.3,0.7,0.6s0.2,0.5,0.2,0.8c0,0.3-0.1,0.6-0.3,0.9
		S34.3,95,34,95.1s-0.7,0.2-1.1,0.2c-0.5,0-1-0.1-1.3-0.2s-0.6-0.4-0.8-0.7S30.5,93.8,30.5,93.4z"/>
	<path class="st5" d="M37.5,95.2v-5.1h-1.9v-0.7h4.5v0.7h-1.9v5.1H37.5z"/>
	<path class="st5" d="M39.7,95.2l2.2-5.7h0.8l2.3,5.7h-0.9l-0.7-1.7h-2.4l-0.6,1.7H39.7z M41.4,92.9h1.9l-0.6-1.6
		c-0.2-0.5-0.3-0.9-0.4-1.2c-0.1,0.4-0.2,0.7-0.3,1.1L41.4,92.9z"/>
	<path class="st5" d="M49.5,89.5h0.8v3.3c0,0.6-0.1,1-0.2,1.4s-0.4,0.6-0.7,0.8s-0.8,0.3-1.3,0.3c-0.5,0-1-0.1-1.3-0.3
		s-0.6-0.5-0.7-0.8s-0.2-0.8-0.2-1.4v-3.3h0.8v3.3c0,0.5,0,0.9,0.1,1.1s0.3,0.4,0.5,0.5s0.5,0.2,0.8,0.2c0.6,0,1-0.1,1.2-0.4
		s0.4-0.7,0.4-1.5V89.5z"/>
	<path class="st5" d="M51.5,95.2v-5.7H54c0.5,0,0.9,0.1,1.2,0.2s0.5,0.3,0.6,0.5s0.2,0.5,0.2,0.9c0,0.4-0.1,0.7-0.4,1
		s-0.7,0.5-1.2,0.5c0.2,0.1,0.4,0.2,0.5,0.3c0.2,0.2,0.4,0.5,0.6,0.8l1,1.6h-1L54.8,94c-0.2-0.3-0.4-0.6-0.5-0.8s-0.3-0.3-0.4-0.4
		s-0.2-0.1-0.3-0.2c-0.1,0-0.2,0-0.4,0h-0.9v2.5H51.5z M52.2,92h1.6c0.3,0,0.6,0,0.8-0.1s0.3-0.2,0.4-0.3s0.2-0.3,0.2-0.5
		c0-0.3-0.1-0.5-0.3-0.7s-0.5-0.3-0.9-0.3h-1.8V92z"/>
	<path class="st5" d="M56.6,95.2l2.2-5.7h0.8l2.3,5.7h-0.9l-0.7-1.7h-2.4l-0.6,1.7H56.6z M58.3,92.9h1.9l-0.6-1.6
		c-0.2-0.5-0.3-0.9-0.4-1.2c-0.1,0.4-0.2,0.7-0.3,1.1L58.3,92.9z"/>
	<path class="st5" d="M62.6,95.2v-5.7h0.8l3,4.5v-4.5h0.7v5.7h-0.8l-3-4.5v4.5H62.6z"/>
	<path class="st5" d="M69.8,95.2v-5.1h-1.9v-0.7h4.5v0.7h-1.9v5.1H69.8z"/>
	<path class="st5" d="M72.5,95.2v-0.8h0.8v0.8c0,0.3-0.1,0.5-0.2,0.7s-0.3,0.3-0.5,0.4l-0.2-0.3c0.1-0.1,0.3-0.2,0.3-0.3
		s0.1-0.3,0.1-0.5H72.5z"/>
	<path class="st5" d="M76.8,95.2v-5.7h2.1c0.4,0,0.8,0.1,1.1,0.2s0.5,0.3,0.6,0.5s0.2,0.5,0.2,0.8c0,0.2-0.1,0.5-0.2,0.7
		S80.3,92,80,92.2c0.3,0.1,0.6,0.3,0.8,0.5s0.3,0.5,0.3,0.9c0,0.3-0.1,0.5-0.2,0.7s-0.3,0.4-0.4,0.5s-0.4,0.2-0.6,0.3
		s-0.6,0.1-0.9,0.1H76.8z M77.5,91.9h1.2c0.3,0,0.6,0,0.7-0.1c0.2-0.1,0.3-0.2,0.4-0.3s0.1-0.3,0.1-0.5c0-0.2,0-0.4-0.1-0.5
		s-0.2-0.2-0.4-0.3s-0.5-0.1-0.9-0.1h-1.1V91.9z M77.5,94.6H79c0.2,0,0.4,0,0.5,0c0.2,0,0.3-0.1,0.4-0.2s0.2-0.2,0.3-0.3
		s0.1-0.3,0.1-0.5c0-0.2-0.1-0.4-0.2-0.6s-0.3-0.3-0.5-0.3s-0.5-0.1-0.8-0.1h-1.3V94.6z"/>
	<path class="st5" d="M82.3,95.2v-5.7H83v5.7H82.3z"/>
	<path class="st5" d="M84.1,93.4l0.7-0.1c0,0.3,0.1,0.5,0.2,0.7s0.3,0.3,0.6,0.4s0.6,0.2,0.9,0.2c0.3,0,0.5,0,0.8-0.1
		s0.4-0.2,0.5-0.4s0.2-0.3,0.2-0.5c0-0.2-0.1-0.3-0.2-0.5s-0.3-0.2-0.5-0.3c-0.2-0.1-0.5-0.2-1-0.3s-0.9-0.2-1.1-0.4
		c-0.3-0.1-0.5-0.3-0.6-0.5s-0.2-0.5-0.2-0.7c0-0.3,0.1-0.6,0.2-0.8s0.4-0.4,0.7-0.6s0.7-0.2,1.1-0.2c0.4,0,0.8,0.1,1.1,0.2
		s0.6,0.3,0.7,0.6s0.3,0.6,0.3,0.9l-0.7,0.1c0-0.4-0.2-0.6-0.4-0.8s-0.6-0.3-1-0.3c-0.5,0-0.8,0.1-1,0.3s-0.3,0.4-0.3,0.6
		c0,0.2,0.1,0.4,0.2,0.5c0.1,0.1,0.5,0.3,1.1,0.4s1,0.3,1.3,0.4c0.3,0.2,0.6,0.3,0.7,0.6s0.2,0.5,0.2,0.8c0,0.3-0.1,0.6-0.3,0.9
		S88,95,87.7,95.1s-0.7,0.2-1.1,0.2c-0.5,0-1-0.1-1.3-0.2s-0.6-0.4-0.8-0.7S84.1,93.8,84.1,93.4z"/>
	<path class="st5" d="M91.2,95.2v-5.1h-1.9v-0.7h4.5v0.7h-1.9v5.1H91.2z"/>
	<path class="st5" d="M98.3,89.5h0.8v3.3c0,0.6-0.1,1-0.2,1.4s-0.4,0.6-0.7,0.8s-0.8,0.3-1.3,0.3c-0.5,0-1-0.1-1.3-0.3
		s-0.6-0.5-0.7-0.8s-0.2-0.8-0.2-1.4v-3.3h0.8v3.3c0,0.5,0,0.9,0.1,1.1s0.3,0.4,0.5,0.5s0.5,0.2,0.8,0.2c0.6,0,1-0.1,1.2-0.4
		s0.4-0.7,0.4-1.5V89.5z"/>
	<path class="st5" d="M100.4,95.2v-5.7h2.2c0.4,0,0.7,0,0.9,0.1c0.3,0,0.5,0.1,0.7,0.3s0.3,0.3,0.5,0.6s0.2,0.5,0.2,0.8
		c0,0.5-0.2,0.9-0.5,1.2s-0.9,0.5-1.7,0.5h-1.5v2.3H100.4z M101.1,92.2h1.5c0.5,0,0.8-0.1,1-0.3s0.3-0.4,0.3-0.8
		c0-0.2-0.1-0.4-0.2-0.6s-0.3-0.3-0.5-0.3c-0.1,0-0.4-0.1-0.7-0.1h-1.5V92.2z"/>
	<path class="st5" d="M109.5,89.5h0.8v3.3c0,0.6-0.1,1-0.2,1.4s-0.4,0.6-0.7,0.8s-0.8,0.3-1.3,0.3c-0.5,0-1-0.1-1.3-0.3
		s-0.6-0.5-0.7-0.8s-0.2-0.8-0.2-1.4v-3.3h0.8v3.3c0,0.5,0,0.9,0.1,1.1s0.3,0.4,0.5,0.5s0.5,0.2,0.8,0.2c0.6,0,1-0.1,1.2-0.4
		s0.4-0.7,0.4-1.5V89.5z"/>
	<path class="st5" d="M111.5,95.2v-5.7h2.5c0.5,0,0.9,0.1,1.2,0.2s0.5,0.3,0.6,0.5s0.2,0.5,0.2,0.9c0,0.4-0.1,0.7-0.4,1
		s-0.7,0.5-1.2,0.5c0.2,0.1,0.4,0.2,0.5,0.3c0.2,0.2,0.4,0.5,0.6,0.8l1,1.6h-1l-0.8-1.2c-0.2-0.3-0.4-0.6-0.5-0.8s-0.3-0.3-0.4-0.4
		s-0.2-0.1-0.3-0.2c-0.1,0-0.2,0-0.4,0h-0.9v2.5H111.5z M112.3,92h1.6c0.3,0,0.6,0,0.8-0.1s0.3-0.2,0.4-0.3s0.2-0.3,0.2-0.5
		c0-0.3-0.1-0.5-0.3-0.7s-0.5-0.3-0.9-0.3h-1.8V92z"/>
</g>
</svg>
