<?xml version="1.0" encoding="utf-8"?>
<!-- Generator: Adobe Illustrator 21.0.0, SVG Export Plug-In . SVG Version: 6.00 Build 0)  -->
<svg version="1.1" id="Layer_1" xmlns="http://www.w3.org/2000/svg" xmlns:xlink="http://www.w3.org/1999/xlink" x="0px" y="0px"
	 viewBox="0 0 150 100" style="enable-background:new 0 0 150 100;" xml:space="preserve">
<style type="text/css">
	.st0{fill:#F2F2F0;}
	.st1{fill:#053B9F;}
	.st2{fill:#D21920;}
	.st3{opacity:0.4;fill:#606060;enable-background:new    ;}
	.st4{fill:none;stroke:#000000;stroke-miterlimit:10;}
	.st5{fill:#020202;}
</style>
<g>
	<rect class="st0" width="150" height="100"/>
	<g>
		<path class="st1" d="M73.7,52c0-3-0.1-6.1,0-9.1c0.1-4.5,1.5-6.8,4.1-7c1.4-0.1,2.8-0.1,4.1,0.2c3.9,1,5.3,7,2.9,12
			c-0.4,0.8-0.5,1,0.1,1.8c2.8,4.1,2.4,9.7-0.8,12.5c-1.8,1.6-3.8,1.6-5.7,1.5c-0.9-0.1-0.9-1.2-0.9-2.3c0-1.3,0.2-2,1.1-2
			c1,0.1,2.1-0.1,3.1-0.6c1.1-0.6,1.8-1.5,1.8-3.7c-0.1-2.1-0.9-3.1-2-3.3c-0.8-0.2-1.7-0.2-2.6-0.2s-1.3-0.7-1.3-2.3
			c0-1.5,0.3-2.4,1.3-2.3c0.8,0.1,1.6,0,2.4-0.2c1-0.3,1.5-1.4,1.6-3c0.1-1.7-0.4-2.7-1.4-3.3c-2.7-1.6-4.6,0.5-4.6,5.2
			c0,5.1,0,10.2,0,15.3c0,1.7-0.2,2.8-1.4,2.7c-1.2-0.1-1.7-0.9-1.6-2.9C73.7,58,73.6,55,73.7,52C73.6,52,73.7,52,73.7,52z"/>
		<path class="st2" d="M35.7,45.2c1.4-1.7,2.7-2.4,4.1-2.2c2.3,0.3,3.8,2.7,3.8,6.6c0.1,4.1,0,8.2,0,12.4c0,2-0.6,2.3-1.5,2.2
			c-0.9-0.1-1.8,0.1-1.8-2.2c0-3.5,0-7.1,0-10.6c0-2.3-0.5-3.8-1.9-4c-1.4-0.1-2.8,1.9-2.8,4.1c0,3.3-0.1,6.5,0,9.7
			c0.1,2.3-0.6,2.8-1.7,2.9c-1.2,0.1-1.6-0.7-1.6-2.7c0.1-8.4,0.1-16.8,0-25.3c0-2,0.4-2.8,1.6-2.8c1.3,0,1.8,0.7,1.7,2.9
			C35.6,39,35.7,41.8,35.7,45.2z"/>
		<path class="st1" d="M117,55.4c-0.9,0-1.7-0.1-2.6,0s-1.2-0.7-1.2-2.2c0-1.6,0.5-2,1.3-1.9c0.6,0.1,1.1,0.1,1.7,0
			c0.4-0.1,1,0.3,1.2-0.7c0.2-0.9-0.2-1.7-0.5-2.4c-1-1.9-3-1.3-3.7,1.3c-1.7,6.1,0.2,11,4.1,10.6c0.6-0.1,1.3-0.2,1.9-0.3
			c0.5-0.1,1.1-0.7,1.2,0.7c0.1,1.1,0.3,2.3-0.6,3.1c-2,1.8-6.8,0.8-8.4-1.8c-1.8-2.9-2.4-8.9-1.1-13.4c1.2-4.2,3.9-6.3,6.6-5.3
			c2.5,0.9,3.8,4.1,3.9,9.1c0,2.3-0.4,3.3-1.8,3C118.3,55.3,117.6,55.4,117,55.4L117,55.4z"/>
		<path class="st2" d="M23.2,35.8c1.9,0,3.9,0.1,5.9,0c1-0.1,1.4,0.7,1.4,2.5s-0.5,2.2-1.4,2.1c-0.1,0-0.1,0-0.2,0
			c-3.9,0.2-3.9,0.2-3.9,7c0,4.8,0,9.6,0,14.4c0,2-0.4,2.5-1.5,2.5c-1-0.1-1.9,0.2-1.9-2.4c0.1-6.1,0-12.1,0-18.2
			c0-2.4-0.5-3.4-1.9-3.1c-0.7,0.2-1.5-0.1-2.2,0.1c-1,0.2-1.4-0.6-1.5-2.3c0-1.8,0.5-2.4,1.5-2.4C19.4,35.9,21.3,35.8,23.2,35.8
			C23.2,35.7,23.2,35.8,23.2,35.8z"/>
		<path class="st1" d="M107.2,51.4c0,1.7,0,3.3,0,5c-0.2,5-2,7.8-5.1,8.1c-3.6,0.3-5.7-2-6.1-7.1c-0.4-4-0.2-8-0.1-12
			c0-2.5,1.2-1.7,2.1-1.9c1-0.2,1.1,0.9,1.1,2.2c0,3.3-0.1,6.5,0,9.7c0.1,3.4,0.8,4.7,2.5,4.7c1.6,0,2.4-1.5,2.5-4.9
			c0-3.3,0.1-6.5,0-9.7c0-1.8,0.5-2.2,1.4-2c0.8,0.1,1.8-0.3,1.8,2C107.2,47.5,107.2,49.5,107.2,51.4z"/>
		<path class="st1" d="M125.9,64.5c-0.5-0.1-1.4-0.1-2.2-0.5c-1.1-0.6-1-2-0.9-3.3c0.2-1.5,0.8-0.8,1.4-0.7c1.1,0.3,2.2,0.4,3.3,0.1
			c0.6-0.2,1.3-0.7,1.3-2c0-1.2-0.5-1.7-1.1-2c-0.8-0.4-1.6-0.7-2.3-1.2c-1.5-0.8-2.4-2.3-2.4-5.1c0-3,0.7-5.1,2.4-6.2
			c1.8-1.2,3.6-0.8,5.4,0c1,0.4,0.9,1.8,0.8,3.1c-0.2,1.5-0.8,1-1.4,0.9c-0.8-0.2-1.7-0.4-2.6-0.4c-0.7-0.1-1.5,0.3-1.6,1.8
			s0.6,1.9,1.3,2.3c0.6,0.3,1.3,0.6,2,0.9c1.5,0.8,2.5,2.5,2.5,5.3c0,2.9-0.8,5.1-2.4,6.2C128.5,64.4,127.4,64.5,125.9,64.5z"/>
		<path class="st1" d="M92.7,48.7c0,4.2,0,8.4,0,12.6c0,1.9-0.4,2.6-1.5,2.6s-1.7-0.4-1.7-2.6c0-8.4,0-16.8,0-25.3
			c0-2.2,0.6-2.6,1.7-2.6s1.5,0.7,1.5,2.6C92.7,40.3,92.7,44.5,92.7,48.7z"/>
		<path class="st2" d="M54,55.3c-0.9,0-1.7-0.1-2.6,0s-1.2-0.7-1.2-2.2c0-1.6,0.5-2,1.3-1.9c0.6,0.1,1.1,0.1,1.7,0
			c0.4-0.1,1,0.3,1.2-0.7c0.2-0.9-0.2-1.7-0.5-2.4c-1-1.9-3-1.3-3.7,1.3c-1.7,6.1,0.2,11,4.1,10.7c0.6-0.1,1.3-0.2,1.9-0.3
			c0.5-0.1,1.1-0.7,1.2,0.7c0.1,1.1,0.3,2.3-0.6,3.1c-2,1.8-6.8,0.8-8.4-1.8c-1.8-2.9-2.4-8.9-1.1-13.4c1.2-4.2,3.9-6.3,6.6-5.3
			c2.5,0.9,3.8,4.1,3.9,9.1c0,2.3-0.4,3.3-1.8,3C55.3,55.2,54.6,55.3,54,55.3L54,55.3z"/>
	</g>
</g>
<rect y="85.5" class="st3" width="150" height="14.5"/>
<g>
	<path class="st4" d="M147,84.4c-0.5,0.8-0.5,1.5-0.1,2.2c0.3,0.5,0.4,1,0.6,1.5c0.3,0.9,0.2,1.4-0.7,1.8c-0.7,0.4-1.4,0.7-2,1.1
		c-0.3,0.2-0.5,0.5-0.6,0.8c-0.2,0.8-0.3,1.5-0.4,2.3c-0.2,0.9-0.6,1.3-1.5,1.2c-0.8-0.1-1.5-0.3-2.3-0.3c-0.3,0-0.7,0.1-0.9,0.3
		c-0.6,0.5-1.1,1.1-1.7,1.6c-0.6,0.6-1.2,0.6-1.9,0c-0.6-0.5-1.1-1.1-1.7-1.6c-0.2-0.2-0.6-0.3-0.9-0.3c-0.7,0.1-1.4,0.2-2.1,0.3
		c-1,0.1-1.6-0.3-1.8-1.3c-0.1-0.5-0.2-1.1-0.2-1.6c0-0.8-0.4-1.3-1.1-1.6c-0.4-0.2-0.8-0.4-1.3-0.6c-1.1-0.6-1.3-1.2-0.8-2.3
		c0.3-0.6,0.6-1.2,0.9-1.9c0.1-0.3,0.1-0.6,0-0.9c-0.3-0.7-0.7-1.3-1-2c-0.5-0.9-0.3-1.6,0.7-2.1c0.6-0.3,1.2-0.6,1.8-0.9
		c0.5-0.2,0.8-0.6,0.8-1.2c0.1-0.7,0.2-1.4,0.3-2.2c0.2-0.8,0.6-1.1,1.5-1.1c0.7,0.1,1.5,0.2,2.3,0.4c0.5,0.1,0.8,0,1.1-0.3
		c0.6-0.6,1.2-1.1,1.8-1.7c0.6-0.5,1.2-0.5,1.8,0c0.6,0.6,1.1,1.2,1.7,1.7c0.2,0.2,0.6,0.3,0.9,0.3c0.7-0.1,1.4-0.2,2.1-0.3
		c1.1-0.2,1.6,0.3,1.8,1.3c0,0.2,0.1,0.4,0.1,0.6c-0.1,1.6,0.7,2.5,2.1,2.9c0.2,0.1,0.5,0.2,0.7,0.4c0.7,0.4,1,1.1,0.6,1.9
		C147.5,83.4,147.3,84,147,84.4z"/>
	<path class="st5" d="M138.7,80.4c0-0.4,0.1-0.8,0.3-1c0.2-0.3,0.5-0.4,0.9-0.4s0.7,0.1,0.9,0.4s0.4,0.6,0.4,1.1s-0.1,0.9-0.4,1.1
		s-0.5,0.4-0.9,0.4c-0.3,0-0.6-0.1-0.9-0.4S138.7,80.9,138.7,80.4z M139.9,79.4c-0.2,0-0.3,0.1-0.4,0.2c-0.1,0.2-0.2,0.4-0.2,0.8
		s0.1,0.6,0.2,0.8s0.3,0.2,0.4,0.2c0.2,0,0.3-0.1,0.4-0.2c0.1-0.2,0.2-0.4,0.2-0.8s-0.1-0.6-0.2-0.8S140.1,79.4,139.9,79.4z
		 M139.9,84.9l3.1-6h0.6l-3.1,6H139.9z M142.4,83.4c0-0.4,0.1-0.8,0.3-1c0.2-0.3,0.5-0.4,0.9-0.4s0.7,0.1,0.9,0.4s0.4,0.6,0.4,1.1
		s-0.1,0.9-0.4,1.1S144,85,143.6,85c-0.3,0-0.6-0.1-0.9-0.4S142.4,83.9,142.4,83.4z M143.6,82.4c-0.2,0-0.3,0.1-0.4,0.2
		c-0.1,0.2-0.2,0.4-0.2,0.8s0.1,0.6,0.2,0.8s0.3,0.2,0.4,0.2c0.2,0,0.3-0.1,0.4-0.2c0.1-0.2,0.2-0.4,0.2-0.8s-0.1-0.6-0.2-0.8
		S143.8,82.4,143.6,82.4z"/>
	<path class="st5" d="M129.7,89.9c0-1,0.3-1.7,0.8-2.2s1.2-0.8,2-0.8c0.5,0,1,0.1,1.4,0.4s0.7,0.6,1,1.1s0.3,1,0.3,1.5
		c0,0.6-0.1,1.1-0.4,1.6s-0.6,0.8-1,1s-0.9,0.4-1.4,0.4s-1-0.1-1.4-0.4s-0.7-0.6-1-1.1S129.7,90.4,129.7,89.9z M130.4,90
		c0,0.7,0.2,1.2,0.6,1.6s0.8,0.6,1.4,0.6c0.6,0,1-0.2,1.4-0.6s0.6-1,0.6-1.7c0-0.5-0.1-0.9-0.2-1.2c-0.2-0.3-0.4-0.6-0.7-0.8
		c-0.3-0.2-0.6-0.3-1-0.3c-0.5,0-1,0.2-1.4,0.6S130.4,89.1,130.4,90z"/>
	<path class="st5" d="M135.4,92.7V87h3.9v0.7h-3.1v1.8h2.7v0.7h-2.7v2.6L135.4,92.7L135.4,92.7z"/>
	<path class="st5" d="M139.6,92.7V87h3.9v0.7h-3.1v1.8h2.7v0.7h-2.7v2.6L139.6,92.7L139.6,92.7z"/>
	<g>
		<path class="st5" d="M132.7,84.8H132v-4.5c-0.2,0.2-0.4,0.3-0.7,0.5s-0.5,0.3-0.7,0.4v-0.7c0.4-0.2,0.7-0.4,1-0.7s0.5-0.5,0.6-0.8
			h0.5L132.7,84.8L132.7,84.8z"/>
		<path class="st5" d="M134.5,83.3l0.7-0.1c0.1,0.4,0.2,0.6,0.4,0.8s0.4,0.3,0.7,0.3s0.6-0.1,0.9-0.4s0.4-0.6,0.4-1
			s-0.1-0.7-0.3-0.9s-0.5-0.3-0.9-0.3c-0.2,0-0.4,0.1-0.6,0.2s-0.3,0.2-0.4,0.4l-0.7-0.1l0.6-2.9h2.8V80h-2.3l-0.3,1.5
			c0.3-0.2,0.7-0.4,1.1-0.4c0.5,0,0.9,0.2,1.3,0.5s0.5,0.8,0.5,1.3s-0.2,1-0.5,1.3c-0.4,0.5-0.9,0.7-1.5,0.7c-0.5,0-0.9-0.1-1.3-0.4
			S134.6,83.8,134.5,83.3z"/>
	</g>
</g>
<g>
	<path d="M26.5,95.1v-5.7H29c0.5,0,0.9,0.1,1.2,0.2s0.5,0.3,0.6,0.5s0.2,0.5,0.2,0.9c0,0.4-0.1,0.7-0.4,1s-0.7,0.5-1.2,0.5
		c0.2,0.1,0.4,0.2,0.5,0.3c0.2,0.2,0.4,0.5,0.6,0.8l1,1.6h-1l-0.8-1.2c-0.2-0.3-0.4-0.6-0.5-0.8s-0.3-0.3-0.4-0.4s-0.2-0.1-0.3-0.2
		c-0.1,0-0.2,0-0.4,0h-0.9v2.5H26.5z M27.3,91.9h1.6c0.3,0,0.6,0,0.8-0.1s0.3-0.2,0.4-0.3s0.2-0.3,0.2-0.5c0-0.3-0.1-0.5-0.3-0.7
		S29.5,90,29.1,90h-1.8V91.9z"/>
	<path d="M32.3,95.1v-5.7h4.1v0.7H33v1.8h3.2v0.7H33v1.9h3.5v0.7H32.3z"/>
	<path d="M37.3,93.3l0.7-0.1c0,0.3,0.1,0.5,0.2,0.7s0.3,0.3,0.6,0.4s0.6,0.2,0.9,0.2c0.3,0,0.5,0,0.8-0.1s0.4-0.2,0.5-0.4
		s0.2-0.3,0.2-0.5c0-0.2-0.1-0.3-0.2-0.5s-0.3-0.2-0.5-0.3c-0.2-0.1-0.5-0.2-1-0.3s-0.9-0.2-1.1-0.4c-0.3-0.1-0.5-0.3-0.6-0.5
		s-0.2-0.5-0.2-0.7c0-0.3,0.1-0.6,0.2-0.8s0.4-0.4,0.7-0.6s0.7-0.2,1.1-0.2c0.4,0,0.8,0.1,1.1,0.2s0.6,0.3,0.7,0.6s0.3,0.6,0.3,0.9
		L41,91.1c0-0.4-0.2-0.6-0.4-0.8s-0.6-0.3-1-0.3c-0.5,0-0.8,0.1-1,0.3s-0.3,0.4-0.3,0.6c0,0.2,0.1,0.4,0.2,0.5
		c0.1,0.1,0.5,0.3,1.1,0.4s1,0.3,1.3,0.4c0.3,0.2,0.6,0.3,0.7,0.6s0.2,0.5,0.2,0.8c0,0.3-0.1,0.6-0.3,0.9s-0.4,0.5-0.8,0.6
		s-0.7,0.2-1.1,0.2c-0.5,0-1-0.1-1.3-0.2s-0.6-0.4-0.8-0.7S37.4,93.7,37.3,93.3z"/>
	<path d="M44.4,95.1v-5.1h-1.9v-0.7h4.5v0.7h-1.9v5.1H44.4z"/>
	<path d="M46.6,95.1l2.2-5.7h0.8l2.3,5.7h-0.9l-0.7-1.7H48l-0.6,1.7H46.6z M48.3,92.8h1.9l-0.6-1.6c-0.2-0.5-0.3-0.9-0.4-1.2
		c-0.1,0.4-0.2,0.7-0.3,1.1L48.3,92.8z"/>
	<path d="M56.3,89.4h0.8v3.3c0,0.6-0.1,1-0.2,1.4s-0.4,0.6-0.7,0.8s-0.8,0.3-1.3,0.3c-0.5,0-1-0.1-1.3-0.3s-0.6-0.5-0.7-0.8
		s-0.2-0.8-0.2-1.4v-3.3h0.8v3.3c0,0.5,0,0.9,0.1,1.1s0.3,0.4,0.5,0.5s0.5,0.2,0.8,0.2c0.6,0,1-0.1,1.2-0.4s0.4-0.7,0.4-1.5V89.4z"
		/>
	<path d="M58.4,95.1v-5.7h2.5c0.5,0,0.9,0.1,1.2,0.2s0.5,0.3,0.6,0.5s0.2,0.5,0.2,0.9c0,0.4-0.1,0.7-0.4,1s-0.7,0.5-1.2,0.5
		c0.2,0.1,0.4,0.2,0.5,0.3c0.2,0.2,0.4,0.5,0.6,0.8l1,1.6h-1l-0.8-1.2c-0.2-0.3-0.4-0.6-0.5-0.8s-0.3-0.3-0.4-0.4s-0.2-0.1-0.3-0.2
		c-0.1,0-0.2,0-0.4,0h-0.9v2.5H58.4z M59.1,91.9h1.6c0.3,0,0.6,0,0.8-0.1s0.3-0.2,0.4-0.3s0.2-0.3,0.2-0.5c0-0.3-0.1-0.5-0.3-0.7
		S61.4,90,60.9,90h-1.8V91.9z"/>
	<path d="M63.5,95.1l2.2-5.7h0.8l2.3,5.7H68l-0.7-1.7h-2.4l-0.6,1.7H63.5z M65.1,92.8h1.9l-0.6-1.6c-0.2-0.5-0.3-0.9-0.4-1.2
		c-0.1,0.4-0.2,0.7-0.3,1.1L65.1,92.8z"/>
	<path d="M69.5,95.1v-5.7h0.8l3,4.5v-4.5H74v5.7h-0.8l-3-4.5v4.5H69.5z"/>
	<path d="M76.7,95.1v-5.1h-1.9v-0.7h4.5v0.7h-1.9v5.1H76.7z"/>
	<path d="M79.3,95.1v-0.8h0.8v0.8c0,0.3-0.1,0.5-0.2,0.7s-0.3,0.3-0.5,0.4L79.3,96c0.1-0.1,0.3-0.2,0.3-0.3s0.1-0.3,0.1-0.5H79.3z"
		/>
	<path d="M83.4,93.3l0.7-0.1c0,0.3,0.1,0.5,0.2,0.7s0.3,0.3,0.6,0.4s0.6,0.2,0.9,0.2c0.3,0,0.5,0,0.8-0.1s0.4-0.2,0.5-0.4
		s0.2-0.3,0.2-0.5c0-0.2-0.1-0.3-0.2-0.5s-0.3-0.2-0.5-0.3c-0.2-0.1-0.5-0.2-1-0.3s-0.9-0.2-1.1-0.4c-0.3-0.1-0.5-0.3-0.6-0.5
		s-0.2-0.5-0.2-0.7c0-0.3,0.1-0.6,0.2-0.8s0.4-0.4,0.7-0.6s0.7-0.2,1.1-0.2c0.4,0,0.8,0.1,1.1,0.2s0.6,0.3,0.7,0.6s0.3,0.6,0.3,0.9
		l-0.7,0.1c0-0.4-0.2-0.6-0.4-0.8s-0.6-0.3-1-0.3c-0.5,0-0.8,0.1-1,0.3s-0.3,0.4-0.3,0.6c0,0.2,0.1,0.4,0.2,0.5
		c0.1,0.1,0.5,0.3,1.1,0.4s1,0.3,1.3,0.4c0.3,0.2,0.6,0.3,0.7,0.6s0.2,0.5,0.2,0.8c0,0.3-0.1,0.6-0.3,0.9S87.3,94.9,87,95
		s-0.7,0.2-1.1,0.2c-0.5,0-1-0.1-1.3-0.2s-0.6-0.4-0.8-0.7S83.4,93.7,83.4,93.3z"/>
	<path d="M88.4,95.1l2.2-5.7h0.8l2.3,5.7h-0.9l-0.7-1.7h-2.4l-0.6,1.7H88.4z M90,92.8H92l-0.6-1.6c-0.2-0.5-0.3-0.9-0.4-1.2
		c-0.1,0.4-0.2,0.7-0.3,1.1L90,92.8z"/>
	<path d="M94.3,95.1v-5.7h0.8v2.8l2.8-2.8h1l-2.4,2.3l2.5,3.4h-1l-2-2.9l-0.9,0.9v2H94.3z"/>
	<path d="M103.8,93.1l0.8,0.2c-0.2,0.6-0.4,1.1-0.9,1.4s-0.9,0.5-1.5,0.5c-0.6,0-1.1-0.1-1.5-0.4s-0.7-0.6-0.9-1.1s-0.3-1-0.3-1.5
		c0-0.6,0.1-1.1,0.3-1.6s0.6-0.8,1-1s0.9-0.3,1.4-0.3c0.6,0,1.1,0.1,1.4,0.4s0.7,0.7,0.8,1.2l-0.7,0.2c-0.1-0.4-0.3-0.7-0.6-0.9
		s-0.6-0.3-1-0.3c-0.4,0-0.8,0.1-1.1,0.3s-0.5,0.5-0.6,0.8s-0.2,0.7-0.2,1.1c0,0.5,0.1,0.9,0.2,1.3s0.4,0.6,0.7,0.8s0.6,0.3,1,0.3
		c0.4,0,0.8-0.1,1.1-0.4S103.7,93.6,103.8,93.1z"/>
	<path d="M105.5,95.1v-5.7h0.8v2.4h3v-2.4h0.8v5.7h-0.8v-2.7h-3v2.7H105.5z"/>
	<path d="M111.4,95.1v-5.7h0.8v5.7H111.4z"/>
</g>
</svg>
