<?xml version="1.0" encoding="utf-8"?>
<!-- Generator: Adobe Illustrator 21.0.0, SVG Export Plug-In . SVG Version: 6.00 Build 0)  -->
<svg version="1.1" id="Layer_1" xmlns="http://www.w3.org/2000/svg" xmlns:xlink="http://www.w3.org/1999/xlink" x="0px" y="0px"
	 viewBox="0 0 150 100" style="enable-background:new 0 0 150 100;" xml:space="preserve">
<style type="text/css">
	.st0{fill:#571902;}
	.st1{fill:#FFFFFF;}
	.st2{fill:#F6C215;}
	.st3{fill:#FCFBFA;}
	.st4{fill:#FFFEFD;}
	.st5{fill:none;}
	.st6{opacity:0.36;fill:#020202;enable-background:new    ;}
	.st7{fill:none;stroke:#FFFFFF;stroke-miterlimit:10;}
</style>
<rect class="st0" width="150" height="100"/>
<g>
	<path class="st1" d="M106.5,34.1c-0.9-0.1-1.8,0-2.6,0.2c-1,0.2-2,0.5-2.9-0.1c1.2,1,2.5,1.5,4,1.2c0.6-0.1,1.3-0.3,1.9-0.4
		c0.6-0.1,1.2-0.1,1.4,0.6c0.2,0.8-0.3,1.3-0.9,1.6c-1.6,0.6-3.2,0.3-4.7-0.3c-3-1.1-6-2.3-8.9-3.5c-0.4-0.1-0.8-0.3-1.3-0.5
		c1.4-1.5,1.8-3.3,1.2-5.2c-0.5-2-2-2.8-3.9-3.4c0.4-0.2,0.7-0.3,0.9-0.5C92,23.1,93,22,93.1,20c0-1.9-0.8-3.3-2.3-4
		c-3-1.4-6-1-8.9,0.5c-1.2,0.6-2.1,1.6-3.2,2.3c-0.6,0.4-1.1,0.9-1.8,1c-0.4,0.1-1-0.2-1.2-0.6c-0.3-0.6,0.1-1.1,0.6-1.4
		c0.4-0.1,0.7-0.1,1.1-0.2c1.2-0.1,2-0.8,2.6-1.7c-0.8,0.2-1.8,0.3-2.6,0.6c-0.6,0.2-1.1,0.3-1.7,1h-0.3c-0.1,0-0.5,0-0.5,0.1v2
		c1.3,0.9,2.3,0.7,3.2,0.3c1.1-0.5,2.3-1.2,3.3-2c1.4-1,2.9-2.4,4.6-2.5c1.2-0.1,2.4,0.1,3.5,0.4c1.6,0.5,2.3,2.4,2.1,4.6
		c-0.3,2-1.3,3.2-3,3.4c-1.2,0.1-2.4,0.1-3.7,0.1c-0.5,0-0.6-0.4-0.6-0.8c0-1.6,0-3.2,0-4.8c0-0.2,0-0.5-0.1-0.8
		c-0.5,1.6-1.7,1.8-3,2.1c0.2,0,0.4,0.1,0.5,0.1c0.9,0.1,1.3,0.7,1.3,1.8c0,2.9,0,5.9,0,8.8c0,0.6-0.2,0.8-0.7,0.8
		c-1,0.1-1.9,0.2-2.9,0.3c-0.2,0-0.4,0-0.5,0.1c-0.4,0.4-0.8,0.8-1.1,1.2c0.4,0.4,0.7,0.9,1.1,1c0.9,0.3,1.9,0.4,2.9,0.4
		c3,0.1,5.9,0.2,8.8-0.8c0.3-0.1,0.7,0,1,0.2c2,0.9,3.9,2,5.9,2.8c2.9,1.4,5.9,1.4,8.9,0.9c1.2-0.2,2-0.9,2-1.7
		C108.6,35,107.7,34.1,106.5,34.1z M89.6,33.6c-2.8,0.6-5.5,0.8-8.3,0.5c-0.8-0.1-1.6-0.3-2.4-0.5c-0.2-0.1-0.5-0.4-0.5-0.6
		s0.3-0.6,0.5-0.7c1.4-0.6,2.9-0.6,4.4-0.4c-0.2,0.5-0.4,0.9-0.7,1.1c-0.3,0.2-0.8,0.2-1.2,0.3l0,0h4.9c-0.7-0.3-1.8-0.1-1.8-1.7
		c2.1,0,3.9,0.7,5.7,1.6C90.1,33.4,89.8,33.5,89.6,33.6z M90.9,32.3c-2-0.3-3.9-0.7-5.8-1.1c-0.2,0-0.6-0.4-0.6-0.7
		c-0.1-0.9,0-1.8,0-2.7s0-1.8,0-2.7c0-0.3,0.4-0.7,0.6-0.7c1.4,0,2.8-0.1,4.1,0.1c2.9,0.5,4.3,4.5,2.6,7.3
		C91.6,32.2,91.2,32.4,90.9,32.3z"/>
	<path class="st2" d="M75,18.1c-0.2-0.1,0.1-0.3-0.1-0.3h-0.3c-0.6-0.7-1.1-0.8-1.7-1c-0.9-0.3-1.8-0.5-2.7-0.6
		c0.6,0.8,1.4,1.5,2.6,1.6c0.4,0,0.8,0,1.1,0.2c0.6,0.2,1,0.7,0.7,1.3c-0.2,0.3-0.8,0.7-1.2,0.6c-0.6-0.2-1.2-0.6-1.8-1
		c-1.1-0.7-2.1-1.6-3.3-2.2c-2.9-1.5-6-1.8-9-0.5C57.8,16.8,57,18.1,57,20c0,1.8,1,2.8,2.5,3.5c0.3,0.1,0.5,0.2,1,0.4
		c-1.9,0.6-3.4,1.3-3.9,3.2c-0.5,1.8-0.2,3.5,1.3,4.9c-0.5,0.2-0.9,0.3-1.3,0.5c-3,1.1-6,2.3-9.1,3.3c-1.5,0.5-3.2,0.8-4.8,0.2
		c-0.6-0.2-1.2-0.7-0.9-1.5c0.2-0.7,0.8-0.7,1.4-0.6c0.6,0.1,1.3,0.3,1.9,0.4c1.5,0.2,2.9-0.2,4-1.1c-1,0.6-2,0.3-3,0.1
		c-0.9-0.2-1.8-0.3-2.6-0.2c-1.3,0.1-2.1,0.8-2.1,1.7c0,0.8,0.8,1.5,2,1.6c3.1,0.4,6.2,0.3,9.1-0.9c2-0.8,4-1.8,6-2.7
		c0.3-0.1,0.7-0.3,1-0.2c2.9,0.9,5.9,0.8,8.9,0.7c1,0,2-0.1,2.9-0.4c0.4-0.1,0.8-0.6,1.2-1c-0.4-0.4-0.7-0.8-1.2-1.1
		c-0.1-0.1-0.4-0.1-0.5-0.1c-1-0.1-2-0.2-2.9-0.3c-0.5,0-0.8-0.2-0.7-0.7c0-2.8,0-5.6,0-8.3c0-0.9,0.4-1.6,1.3-1.7
		c0.2,0,0.4-0.1,0.5-0.1c-1.3-0.2-2.5-0.5-3-2c-0.1,0.3-0.1,0.5-0.1,0.8c0,1.5,0,3,0,4.5c0,0.4-0.1,0.8-0.6,0.8
		c-1.3,0-2.5,0-3.8-0.1c-1.8-0.2-2.8-1.3-3.1-3.2c-0.3-2,0.5-3.8,2.1-4.3c1.1-0.4,2.4-0.5,3.6-0.4c1.8,0.1,3.2,1.4,4.7,2.4
		c1,0.7,2.1,1.4,3.3,1.8c1,0.4,1.9,0.5,2.9-0.4c0.1,0.1,0.1,0.2,0.1,0.3v-2.2C75,17.8,75.1,18,75,18.1z M69,32.3L69,32.3
		c-0.4-0.1-0.8-0.1-1.2-0.3c-0.3-0.2-0.5-0.6-0.7-1.1c1.6-0.2,3.1-0.2,4.5,0.4c0.2,0.1,0.5,0.4,0.5,0.7c0,0.2-0.3,0.5-0.5,0.6
		c-0.8,0.2-1.6,0.4-2.4,0.5c-2.9,0.2-5.7,0.1-8.5-0.5c-0.3,0-0.5-0.2-0.7-0.4c1.9-0.8,3.7-1.6,5.8-1.5c0,1.5-1.1,1.3-1.8,1.6
		C64,32.3,69,32.3,69,32.3z M65.2,24c0.2,0,0.5,0.4,0.6,0.7c0.1,0.8,0,1.7,0,2.5s0,1.7,0,2.5c0,0.2-0.4,0.6-0.6,0.7
		c-2,0.4-3.9,0.7-5.9,1c-0.3,0-0.7-0.2-0.9-0.4c-1.8-2.6-0.3-6.4,2.7-6.9C62.4,23.9,63.9,24,65.2,24z"/>
	<path class="st1" d="M24.6,48.9c1.4,1.2,2.1,2.7,1.9,4.6c-0.2,2.5-2.1,4.6-4.6,4.7c-0.7,0-1.4,0-2.1,0c-1.5,0-1.7-0.1-2.6-1.5
		c-0.6,1.3-1.7,1.5-2.8,1.6c0.1-0.9,0.2-1.7,0.2-2.5c0-4.1,0-8.2,0-12.3c0-1.9,0.9-2.8,2.7-2.9c1.1,0,2.1,0,3.2,0
		c4,0.1,6.3,4.2,4.3,7.9C24.7,48.6,24.7,48.7,24.6,48.9z M19.6,50.3C19.6,50.3,19.6,50.2,19.6,50.3c-0.5,0-1.1-0.1-1.6,0
		c-0.2,0-0.6,0.4-0.6,0.6c0,1.1-0.1,2.2,0,3.3s0.6,1.8,1.7,2c0.7,0.1,1.3,0.2,2,0.2c1.5-0.1,2.6-1.5,2.6-3c0-1.6-1.2-2.8-2.7-3
		C20.6,50.2,20.1,50.3,19.6,50.3z M17.4,47.9c1.3,0,2.5-0.1,3.7,0c0.9,0.1,1.3-0.4,1.5-1.2c0.4-1.2,0.1-2.5-0.8-3.2s-2.9-1-3.7-0.5
		c-0.3,0.2-0.7,0.6-0.7,1C17.4,45.3,17.4,46.5,17.4,47.9z"/>
	<path class="st2" d="M88.2,56.9c-0.6,1.1-1.4,1.6-2.4,1.6c0-4.4,0-8.8,0-13.2c0-2,0.7-2.8,2.7-2.8c1,0,2,0,3,0
		c3.2,0.1,5.2,3.6,3.8,6.6c-0.3,0.7-0.3,1,0.2,1.6c1.2,1.4,1.6,3.1,0.9,4.9c-0.7,1.8-2.1,2.8-3.9,2.9c-0.5,0-1.1,0-1.6,0
		C89.6,58.5,88.7,58.3,88.2,56.9z M90.2,51L90.2,51c-0.5,0-1-0.1-1.4,0c-0.2,0-0.6,0.4-0.6,0.6c0,1.1,0,2.2,0.1,3.3
		c0.1,0.9,0.7,1.5,1.5,1.7c0.5,0.1,1.1,0.2,1.7,0.2c1.6,0,2.8-1.1,2.8-2.7c0.1-1.6-1-2.9-2.6-3C91.1,51,90.6,51,90.2,51z M88.2,47.1
		L88.2,47.1c0,0.3,0,0.7,0,1c-0.1,0.8,0.2,1.1,1,1.1c1-0.1,2,0,3-0.1c0.2,0,0.5-0.2,0.7-0.4c0.6-0.8,0.7-2.4,0.2-3.3
		c-0.6-1-2.4-1.6-3.7-1.2c-0.9,0.3-1.1,0.8-1.1,2.4C88.2,46.8,88.2,46.9,88.2,47.1z"/>
	<path class="st1" d="M49.1,58.1c-2.6,0.6-4-0.5-4-3c0-1,0-1.9,0-2.9c0-0.9-0.5-1.5-1.2-1.5s-1.2,0.5-1.2,1.5c0,1.5,0,3,0,4.5
		c0,0.5,0.2,1,0.3,1.5c-1.6,0.2-2.7-0.7-2.8-2.5c0-1.1,0-2.3,0-3.5c0-0.9-0.5-1.5-1.3-1.5c-0.7,0-1.1,0.5-1.1,1.5c0,1.3,0,2.6,0,4
		c0,0.6,0.2,1.3,0.3,2c-1.4,0.3-2.7-0.7-2.7-2.4c0-1.5,0-3,0-4.5c-0.1-1-0.3-2-0.4-3c0.9-0.2,1.8,0.2,2.3,0.9
		c0.9-0.4,1.7-0.9,2.6-0.9c0.8,0,1.6,0.5,2.6,0.9c0.5-0.7,1.4-1,2.5-0.9c1.4,0.1,2.4,1,2.4,2.6c0,1.5,0,2.9,0,4.3
		C47.5,56.3,47.7,57.4,49.1,58.1z"/>
	<path class="st2" d="M111.1,49.4c-0.1,0.6-0.2,1.3-0.2,1.9c0,1.2,0,2.4,0,3.7c0,0.8,0.5,1.4,1.2,1.4s1.2-0.5,1.2-1.4
		c0-1.1,0-2.3,0-3.4c0.1-1.4,1-2.2,2.2-2.2c-0.1,0.9-0.2,1.9-0.2,2.8c0,3.5,0,7.1,0,10.6c0,1.9-0.9,2.8-2.7,2.8c-0.4,0-0.8,0-1.2,0
		c-2.1,0-2.8-0.9-2.6-3.3c0.7,1.4,1.8,1.6,3,1.5c0.9,0,1.3-0.4,1.3-1.3s0-1.8,0-2.7c0-0.8-0.4-1.4-1.2-1.3c-2.5,0.2-3.4-0.9-3.2-3.7
		c0.1-1,0-2.1,0-3.2C109,50.1,109.8,49.3,111.1,49.4z"/>
	<path class="st1" d="M60.8,46.5c0.7,1.5,1.9,1.6,3.3,1.6c3.2,0,3.8,0.6,3.8,4c0,1.1,0,2.3,0,3.4c-0.1,1.8-1,2.8-2.7,2.8
		c-0.8,0-1.5,0-2.3,0c-1.3-0.1-2.2-1.2-2.2-2.6s1-2.4,2.3-2.5c0.4,0,0.9,0,1.3,0c0.7-0.1,1.1-0.4,1.1-1.2c0-0.7-0.4-1.1-1.1-1.2
		c-0.3,0-0.6,0-0.9,0c-1.9,0-2.8-1-2.8-3c0-0.3,0-0.7,0-1C60.7,46.6,60.8,46.6,60.8,46.5z M64.4,55.8c-0.4-0.4-0.8-0.9-1-0.9
		c-0.3,0-0.6,0.5-0.9,0.7c0.3,0.3,0.5,0.8,0.8,0.9C63.5,56.6,63.9,56.1,64.4,55.8z"/>
	<path class="st1" d="M34.7,54c-0.1,0.8,0,1.5-0.2,2.3c-0.2,1.1-1,1.8-2.1,1.9c-0.9,0.1-1.9,0.1-2.9,0c-1.3-0.1-2.1-1-2.2-2.4
		c0-1.8,0-3.5,0-5.3c0-1.3,0.9-2.3,2.1-2.4c0.9-0.1,1.9-0.1,2.9,0c1.3,0.1,2.3,1.3,2.2,2.6c0,1.3-1.1,2.4-2.4,2.4
		c-0.4,0-0.9,0-1.3,0c-0.7,0.1-1.1,0.5-1.1,1.3c0,0.7,0.4,1.2,1.1,1.2c1.5,0.1,2.9,0.1,3.6-1.8C34.5,53.9,34.6,54,34.7,54z
		 M32.8,50.7c-0.5-0.4-0.9-0.9-1.2-0.8c-0.3,0.1-0.6,0.5-0.9,0.8c0.3,0.3,0.5,0.8,0.8,0.8C31.9,51.5,32.3,51.1,32.8,50.7z"/>
	<path class="st1" d="M69,46.6c0.7,1.2,1.7,1.6,2.9,1.5c0.6,0,1.3,0,2,0c1.3,0.1,2.3,0.9,2.3,2.4c0.1,1.8,0.1,3.6,0,5.3
		c-0.1,1.4-1,2.3-2.3,2.4c-0.9,0.1-1.8,0.1-2.7,0C69.9,58.1,69,57,69,55.7c0-1.4,1-2.4,2.3-2.5c0.4,0,0.8,0,1.3,0
		c0.7,0,1.2-0.4,1.2-1.2s-0.5-1.2-1.2-1.2c-0.3,0-0.6,0-0.9,0c-1.7,0-2.6-1-2.7-2.8C69,47.4,69,47,69,46.6z M72.8,55.7
		c-0.5-0.4-0.9-0.9-1.2-0.8c-0.3,0.1-0.7,0.5-0.8,0.8c0,0.2,0.4,0.8,0.7,0.8C71.9,56.5,72.3,56.1,72.8,55.7z"/>
	<path class="st1" d="M53,59.7c-0.2-1.6-0.4-2.9,0.8-3.5c0.9-0.5,2.1-0.5,3.3-0.8c-0.5-0.5-1.1-1-1.6-1.5c-0.7-0.7-1.4-1.4-2-2.2
		c-0.5-0.6-0.8-1.5-0.4-2.3c0.4-0.8,1.1-1.3,2.1-1.3c0.4,0,0.7,0,1.1,0c1.4,0.1,2.8,0.1,3.6-1.6c0.2,1.3,0.4,2.7-0.7,3.4
		c-0.9,0.6-2.1,0.7-3.2,1c0.1,0.1,0.3,0.3,0.5,0.5c0.9,0.9,1.9,1.8,2.7,2.7c0.6,0.7,1,1.6,0.5,2.6c-0.4,1-1.3,1.4-2.2,1.4
		c-0.3,0-0.6,0-0.9,0C55.2,58.3,53.8,58,53,59.7z"/>
	<path class="st2" d="M117,48.1c0.8,1.2,1.9,1.3,3,1.3c2.9,0,3.3,0.4,3.3,3.5c0,1,0,2.1,0,3.2c0,1.6-0.8,2.4-2.3,2.4
		c-0.7,0-1.4,0-2.1,0c-1.2-0.1-2-1-2-2.2s0.7-2.1,1.9-2.3c0.4-0.1,0.9,0,1.3-0.1c0.7-0.1,1.1-0.5,1.1-1.2s-0.4-1.1-1.1-1.2
		c-0.2,0-0.4,0-0.6,0C117.5,51.4,116.8,50.5,117,48.1z M120.2,56.4c0-0.1,0-0.3,0-0.4c-0.3-0.2-0.7-0.7-1-0.6
		c-0.3,0-0.6,0.5-0.9,0.8c0.3,0.3,0.5,0.8,0.8,0.8C119.5,57.1,119.9,56.7,120.2,56.4z"/>
	<path class="st1" d="M81.3,40.7c-1.5,0.8-1.5,2.2-1.5,3.6c0,3.7,0,7.5,0,11.3c0,1.7-1.1,2.7-2.6,2.5c0.1-0.8,0.2-1.6,0.2-2.5
		c0-4,0-8.1,0-12.1C77.4,41.2,78.8,40.1,81.3,40.7z"/>
	<path class="st2" d="M131.4,58.4c-1.5-0.1-2.2-0.8-2.2-2.4c0-1,0-2.1,0-3.1c0-0.9-0.6-1.5-1.3-1.5s-1.1,0.6-1.1,1.5
		c0,1.2,0,2.4,0,3.6c0,0.6,0.1,1.1,0.2,1.7c-1.3,0.1-2.2-0.7-2.2-2.2c0-1.3,0-2.6,0-4c0-0.9-0.2-1.8-0.3-2.8
		c0.8-0.2,1.5,0.3,2.3,1.3c0.1-0.3,0.2-0.6,0.4-0.7c1.5-1.4,3.7-0.7,3.9,1.4c0.2,1.8,0.1,3.7,0.2,5.5
		C131.2,57.3,131.3,57.8,131.4,58.4z"/>
	<path class="st2" d="M101.7,58.4c0-1.4,0-2.6,0-3.9c0-0.9,0-1.9,0-2.8c0-1.6,0.8-2.4,2.3-2.4c0.4,0,0.8,0,1.2,0
		c1.1,0.1,2.2-0.1,2.9-1.2c0.5,2-0.4,3.3-2.2,3.4c-0.3,0-0.6,0-0.9,0c-0.8,0-1.2,0.5-1.2,1.3c0,1.1,0,2.2,0,3.3
		C103.7,57.5,102.9,58.4,101.7,58.4z"/>
	<path class="st1" d="M52,58.2c-1.5,0.1-2.6-0.8-2.7-2.4c0-1.5-0.1-2.9,0-4.3c0-1.3-0.2-2.4-1.4-3.1c1.9-0.8,3.7,0.4,3.8,2.4
		c0.1,1.9,0,3.7,0,5.5C51.8,56.9,51.9,57.5,52,58.2z"/>
	<path class="st2" d="M97,49.3c2.6-0.1,3.4,0.6,3.4,3c0,1.4,0,2.9,0,4.3c0,0.6,0.1,1.1,0.2,1.7c-1.1,0.1-2-0.6-2.1-1.9
		c-0.1-1.1,0-2.2,0-3.3C98.4,51.7,98.7,50.3,97,49.3z"/>
	<path class="st2" d="M132.3,49.2c0.4,0,0.8,0,1.2,0.1c1.3,0.2,2,0.9,2,2.3c0,1.6,0,3.2,0,4.9c0,0.6,0.1,1.2,0.2,1.8
		c-1.1,0.2-2.1-0.7-2.2-2.2c0-1.2,0-2.4,0-3.6c0-1.3,0-2.5-1.3-3.1C132.1,49.3,132.2,49.3,132.3,49.2z"/>
	<path class="st2" d="M77,14.5c0,1.2-0.8,2.1-2,2.1c-1.1,0-2-0.9-2.1-2.1c0-1.2,0.9-2.1,2-2.1C76.1,12.3,77,13.3,77,14.5z"/>
	<path class="st3" d="M86.2,60.5c0,0,0.1-0.1,0.2-0.2c1.7-1.9,1.9-1.8,3.4,0.4c-0.6,0.6-1.2,1.2-1.9,1.9
		C87.4,61.9,86.8,61.3,86.2,60.5z"/>
	<path class="st4" d="M124,62.5c-0.5-0.6-1.1-1.2-1.7-1.8c0.6-0.6,1.2-1.2,1.9-1.9c0.4,0.6,1,1.3,1.6,2
		C125.4,61.3,124.7,61.8,124,62.5z"/>
	<path class="st2" d="M29.2,45.2c0.5-0.6,1.1-1.1,1.6-1.8c0.5,0.6,1.1,1.2,1.6,1.9c-0.5,0.5-1.1,1-1.8,1.7
		C30.3,46.4,29.8,45.8,29.2,45.2z"/>
	<path class="st2" d="M73.7,47c-0.5-0.6-1-1.2-1.6-1.9c0.6-0.5,1.2-1,1.9-1.6c0.4,0.4,0.9,1,1.5,1.8C74.9,45.9,74.3,46.4,73.7,47z"
		/>
	<path class="st1" d="M50.5,44.4c0.7,0,1.3,0.6,1.2,1.4c0,0.7-0.6,1.2-1.3,1.2s-1.3-0.6-1.2-1.3C49.3,44.9,49.9,44.4,50.5,44.4z"/>
	<path class="st2" d="M99.6,45.7c0.3,0.4,0.6,0.8,0.7,1.3c0.1,0.6-0.4,1-1,1s-1.1-0.4-0.9-1.1c0.1-0.4,0.5-0.8,0.8-1.2
		C99.3,45.7,99.5,45.7,99.6,45.7z"/>
	<path class="st2" d="M135.5,47.2c-0.4,0.3-0.8,0.7-1.2,0.7c-0.5,0.1-0.9-0.3-1-0.9c0-0.6,0.5-1.3,1-1.1c0.4,0.1,0.8,0.6,1.2,0.8
		C135.5,46.9,135.5,47.1,135.5,47.2z"/>
	<path class="st5" d="M65.8,27.2c0,0.8,0,1.7,0,2.5c0,0.2-0.4,0.6-0.6,0.7c-2,0.4-3.9,0.7-5.9,1c-0.3,0-0.7-0.2-0.9-0.4
		c-1.8-2.6-0.3-6.4,2.7-6.9c1.4-0.2,2.8-0.1,4.2-0.1c0.2,0,0.5,0.4,0.6,0.7C65.9,25.6,65.8,26.4,65.8,27.2z"/>
	<path class="st5" d="M65.7,30.8c0,1.5-1.1,1.4-1.8,1.7c1.7,0,3.4,0,5,0v-0.1c-0.4-0.1-0.9-0.1-1.2-0.4c-0.3-0.2-0.5-0.6-0.7-1.1
		c1.6-0.2,3.1-0.2,4.5,0.4c0.2,0.1,0.5,0.4,0.5,0.7c0,0.2-0.3,0.5-0.5,0.6c-0.8,0.2-1.6,0.4-2.4,0.5c-2.9,0.2-5.7,0.1-8.5-0.5
		c-0.3,0-0.5-0.2-0.7-0.4C61.8,31.4,63.6,30.8,65.7,30.8z"/>
	<path class="st5" d="M19.6,50.3c0.5,0,1,0,1.5,0c1.5,0.1,2.7,1.4,2.7,3s-1.1,2.9-2.6,3c-0.7,0.1-1.4,0-2-0.2
		c-1.1-0.2-1.6-0.8-1.7-2c-0.1-1.1-0.1-2.2,0-3.3c0-0.2,0.4-0.5,0.6-0.6C18.5,50.2,19,50.2,19.6,50.3C19.6,50.2,19.6,50.3,19.6,50.3
		z"/>
	<path class="st5" d="M17.4,47.9c0-1.4-0.1-2.6,0-3.9c0-0.4,0.4-0.8,0.7-1c0.8-0.6,2.8-0.3,3.7,0.5c0.9,0.7,1.2,2,0.8,3.2
		C22.4,47.5,22,48,21.1,48C19.9,47.9,18.7,47.9,17.4,47.9z"/>
	<path class="st5" d="M90.2,51c0.5,0,1,0,1.4,0c1.6,0.1,2.7,1.4,2.6,3s-1.2,2.7-2.8,2.7c-0.5,0-1.1-0.1-1.7-0.2
		c-0.8-0.2-1.4-0.8-1.5-1.7c-0.1-1.1-0.1-2.2-0.1-3.3c0-0.2,0.4-0.5,0.6-0.6C89.2,51,89.7,51,90.2,51L90.2,51z"/>
	<path class="st5" d="M88.2,47.1c0-0.2,0-0.3,0-0.5c0-1.6,0.2-2.1,1.1-2.4c1.3-0.4,3,0.2,3.7,1.2c0.5,0.9,0.5,2.5-0.2,3.3
		c-0.2,0.2-0.4,0.3-0.7,0.4c-1,0.1-2,0-3,0.1c-0.8,0.1-1.1-0.3-1-1.1C88.2,47.8,88.2,47.4,88.2,47.1L88.2,47.1z"/>
	<path class="st5" d="M64.4,55.8c-0.5,0.3-0.9,0.8-1.2,0.7s-0.5-0.6-0.8-0.9c0.3-0.3,0.6-0.7,0.9-0.7C63.7,54.9,63.9,55.4,64.4,55.8
		z"/>
	<path class="st5" d="M32.8,50.7c-0.6,0.4-0.9,0.8-1.2,0.8c-0.3,0-0.5-0.5-0.8-0.8c0.3-0.3,0.5-0.7,0.9-0.8
		C31.9,49.8,32.3,50.3,32.8,50.7z"/>
	<path class="st5" d="M72.8,55.7c-0.6,0.4-0.9,0.8-1.2,0.8c-0.3,0-0.8-0.6-0.7-0.8c0.1-0.3,0.5-0.8,0.8-0.8
		C71.9,54.8,72.3,55.3,72.8,55.7z"/>
	<path class="st5" d="M120.2,56.4c-0.3,0.2-0.7,0.6-1,0.6s-0.6-0.5-0.8-0.8c0.3-0.3,0.5-0.8,0.9-0.8c0.3,0,0.6,0.4,1,0.6
		C120.2,56.2,120.2,56.3,120.2,56.4z"/>
</g>
<rect y="85.5" class="st6" width="150" height="14.5"/>
<g>
	<path class="st7" d="M146.2,84.7c-0.5,0.8-0.5,1.5-0.1,2.2c0.3,0.5,0.4,1,0.6,1.5c0.3,0.9,0.2,1.4-0.7,1.8c-0.7,0.4-1.4,0.7-2,1.1
		c-0.3,0.2-0.5,0.5-0.6,0.8c-0.2,0.8-0.3,1.5-0.4,2.3c-0.2,0.9-0.6,1.3-1.5,1.2c-0.8-0.1-1.5-0.3-2.3-0.3c-0.3,0-0.7,0.1-0.9,0.3
		c-0.6,0.5-1.1,1.1-1.7,1.6c-0.6,0.6-1.2,0.6-1.9,0c-0.6-0.5-1.1-1.1-1.7-1.6c-0.2-0.2-0.6-0.3-0.9-0.3c-0.7,0.1-1.4,0.2-2.1,0.3
		c-1,0.1-1.6-0.3-1.8-1.3c-0.1-0.5-0.2-1.1-0.2-1.6c0-0.8-0.4-1.3-1.1-1.6c-0.4-0.2-0.8-0.4-1.3-0.6c-1.1-0.6-1.3-1.2-0.8-2.3
		c0.3-0.6,0.6-1.2,0.9-1.9c0.1-0.3,0.1-0.6,0-0.9c-0.3-0.7-0.7-1.3-1-2c-0.5-0.9-0.3-1.6,0.7-2.1c0.6-0.3,1.2-0.6,1.8-0.9
		c0.5-0.2,0.8-0.6,0.8-1.2c0.1-0.7,0.2-1.4,0.3-2.2c0.2-0.8,0.6-1.1,1.5-1.1c0.7,0.1,1.5,0.2,2.3,0.4c0.5,0.1,0.8,0,1.1-0.3
		c0.6-0.6,1.2-1.1,1.8-1.7c0.6-0.5,1.2-0.5,1.8,0c0.6,0.6,1.1,1.2,1.7,1.7c0.2,0.2,0.6,0.3,0.9,0.3c0.7-0.1,1.4-0.2,2.1-0.3
		c1.1-0.2,1.6,0.3,1.8,1.3c0,0.2,0.1,0.4,0.1,0.6c-0.1,1.6,0.7,2.5,2.1,2.9c0.2,0.1,0.5,0.2,0.7,0.4c0.7,0.4,1,1.1,0.6,1.9
		C146.7,83.7,146.5,84.3,146.2,84.7z"/>
	<path class="st1" d="M138.9,80.7c0-0.4,0.1-0.8,0.3-1c0.2-0.3,0.5-0.4,0.9-0.4s0.7,0.1,0.9,0.4s0.4,0.6,0.4,1.1s-0.1,0.9-0.4,1.1
		s-0.5,0.4-0.9,0.4c-0.3,0-0.6-0.1-0.9-0.4S138.9,81.2,138.9,80.7z M140.1,79.7c-0.2,0-0.3,0.1-0.4,0.2c-0.1,0.2-0.2,0.4-0.2,0.8
		s0.1,0.6,0.2,0.8s0.3,0.2,0.4,0.2c0.2,0,0.3-0.1,0.4-0.2c0.1-0.2,0.2-0.4,0.2-0.8s-0.1-0.6-0.2-0.8S140.3,79.7,140.1,79.7z
		 M140.1,85.2l3.1-6h0.6l-3.1,6H140.1z M142.6,83.7c0-0.4,0.1-0.8,0.3-1c0.2-0.3,0.5-0.4,0.9-0.4s0.7,0.1,0.9,0.4s0.4,0.6,0.4,1.1
		s-0.1,0.9-0.4,1.1s-0.5,0.4-0.9,0.4c-0.3,0-0.6-0.1-0.9-0.4S142.6,84.2,142.6,83.7z M143.8,82.7c-0.2,0-0.3,0.1-0.4,0.2
		c-0.1,0.2-0.2,0.4-0.2,0.8s0.1,0.6,0.2,0.8s0.3,0.2,0.4,0.2c0.2,0,0.3-0.1,0.4-0.2c0.1-0.2,0.2-0.4,0.2-0.8s-0.1-0.6-0.2-0.8
		S144,82.7,143.8,82.7z"/>
	<path class="st1" d="M129.9,90.2c0-1,0.3-1.7,0.8-2.2s1.2-0.8,2-0.8c0.5,0,1,0.1,1.4,0.4s0.7,0.6,1,1.1s0.3,1,0.3,1.5
		c0,0.6-0.1,1.1-0.4,1.6s-0.6,0.8-1,1s-0.9,0.4-1.4,0.4s-1-0.1-1.4-0.4s-0.7-0.6-1-1.1S129.9,90.7,129.9,90.2z M130.6,90.3
		c0,0.7,0.2,1.2,0.6,1.6s0.8,0.6,1.4,0.6c0.6,0,1-0.2,1.4-0.6s0.6-1,0.6-1.7c0-0.5-0.1-0.9-0.2-1.2c-0.2-0.3-0.4-0.6-0.7-0.8
		c-0.3-0.2-0.6-0.3-1-0.3c-0.5,0-1,0.2-1.4,0.6S130.6,89.4,130.6,90.3z"/>
	<path class="st1" d="M135.6,93v-5.7h3.9V88h-3.1v1.8h2.7v0.7h-2.7v2.6L135.6,93L135.6,93z"/>
	<path class="st1" d="M139.8,93v-5.7h3.9V88h-3.1v1.8h2.7v0.7h-2.7v2.6L139.8,93L139.8,93z"/>
	<g>
		<path class="st1" d="M132.9,85.1h-0.7v-4.5c-0.2,0.2-0.4,0.3-0.7,0.5s-0.5,0.3-0.7,0.4v-0.7c0.4-0.2,0.7-0.4,1-0.7
			s0.5-0.5,0.6-0.8h0.5L132.9,85.1L132.9,85.1z"/>
		<path class="st1" d="M134.7,83.6l0.7-0.1c0.1,0.4,0.2,0.6,0.4,0.8s0.4,0.3,0.7,0.3s0.6-0.1,0.9-0.4s0.4-0.6,0.4-1
			s-0.1-0.7-0.3-0.9S137,82,136.6,82c-0.2,0-0.4,0.1-0.6,0.2s-0.3,0.2-0.4,0.4l-0.7-0.1l0.6-2.9h2.8v0.7H136l-0.3,1.5
			c0.3-0.2,0.7-0.4,1.1-0.4c0.5,0,0.9,0.2,1.3,0.5s0.5,0.8,0.5,1.3s-0.2,1-0.5,1.3c-0.4,0.5-0.9,0.7-1.5,0.7c-0.5,0-0.9-0.1-1.3-0.4
			S134.8,84.1,134.7,83.6z"/>
	</g>
</g>
<g>
	<path class="st1" d="M23.7,95.8v-5.7h2.5c0.5,0,0.9,0.1,1.2,0.2c0.3,0.1,0.5,0.3,0.6,0.5c0.2,0.3,0.2,0.5,0.2,0.9
		c0,0.4-0.1,0.7-0.4,1c-0.3,0.3-0.7,0.5-1.2,0.5c0.2,0.1,0.4,0.2,0.5,0.3c0.2,0.2,0.4,0.5,0.6,0.8l1,1.6h-1L27,94.6
		c-0.2-0.3-0.4-0.6-0.5-0.8c-0.1-0.2-0.3-0.3-0.4-0.4c-0.1-0.1-0.2-0.1-0.3-0.2c-0.1,0-0.2,0-0.4,0h-0.9v2.5H23.7z M24.5,92.6h1.6
		c0.3,0,0.6,0,0.8-0.1c0.2-0.1,0.3-0.2,0.4-0.3c0.1-0.2,0.2-0.3,0.2-0.5c0-0.3-0.1-0.5-0.3-0.7c-0.2-0.2-0.5-0.3-0.9-0.3h-1.8V92.6z
		"/>
	<path class="st1" d="M29.5,95.8v-5.7h4.1v0.7h-3.4v1.8h3.2v0.7h-3.2v1.9h3.5v0.7H29.5z"/>
	<path class="st1" d="M34.6,93.9l0.7-0.1c0,0.3,0.1,0.5,0.2,0.7s0.3,0.3,0.6,0.4s0.6,0.2,0.9,0.2c0.3,0,0.5,0,0.8-0.1
		s0.4-0.2,0.5-0.4c0.1-0.2,0.2-0.3,0.2-0.5c0-0.2-0.1-0.3-0.2-0.5c-0.1-0.1-0.3-0.2-0.5-0.3c-0.2-0.1-0.5-0.2-1-0.3
		c-0.5-0.1-0.9-0.2-1.1-0.4c-0.3-0.1-0.5-0.3-0.6-0.5c-0.1-0.2-0.2-0.5-0.2-0.7c0-0.3,0.1-0.6,0.2-0.8c0.2-0.3,0.4-0.4,0.7-0.6
		c0.3-0.1,0.7-0.2,1.1-0.2c0.4,0,0.8,0.1,1.1,0.2s0.6,0.3,0.7,0.6s0.3,0.6,0.3,0.9l-0.7,0.1c0-0.4-0.2-0.6-0.4-0.8
		c-0.2-0.2-0.6-0.3-1-0.3c-0.5,0-0.8,0.1-1,0.3s-0.3,0.4-0.3,0.6c0,0.2,0.1,0.4,0.2,0.5c0.1,0.1,0.5,0.3,1.1,0.4
		c0.6,0.1,1,0.3,1.3,0.4c0.3,0.2,0.6,0.3,0.7,0.6c0.2,0.2,0.2,0.5,0.2,0.8c0,0.3-0.1,0.6-0.3,0.9s-0.4,0.5-0.8,0.6
		c-0.3,0.1-0.7,0.2-1.1,0.2c-0.5,0-1-0.1-1.3-0.2c-0.4-0.2-0.6-0.4-0.8-0.7C34.7,94.7,34.6,94.3,34.6,93.9z"/>
	<path class="st1" d="M41.6,95.8v-5.1h-1.9v-0.7h4.5v0.7h-1.9v5.1H41.6z"/>
	<path class="st1" d="M43.8,95.8l2.2-5.7h0.8l2.3,5.7h-0.9L47.6,94h-2.4l-0.6,1.7H43.8z M45.5,93.4h1.9l-0.6-1.6
		c-0.2-0.5-0.3-0.9-0.4-1.2c-0.1,0.4-0.2,0.7-0.3,1.1L45.5,93.4z"/>
	<path class="st1" d="M53.5,90.1h0.8v3.3c0,0.6-0.1,1-0.2,1.4c-0.1,0.3-0.4,0.6-0.7,0.8c-0.3,0.2-0.8,0.3-1.3,0.3
		c-0.5,0-1-0.1-1.3-0.3c-0.3-0.2-0.6-0.5-0.7-0.8c-0.1-0.4-0.2-0.8-0.2-1.4v-3.3h0.8v3.3c0,0.5,0,0.9,0.1,1.1
		c0.1,0.2,0.3,0.4,0.5,0.5c0.2,0.1,0.5,0.2,0.8,0.2c0.6,0,1-0.1,1.2-0.4c0.2-0.3,0.4-0.7,0.4-1.5V90.1z"/>
	<path class="st1" d="M55.6,95.8v-5.7h2.5c0.5,0,0.9,0.1,1.2,0.2c0.3,0.1,0.5,0.3,0.6,0.5c0.2,0.3,0.2,0.5,0.2,0.9
		c0,0.4-0.1,0.7-0.4,1c-0.3,0.3-0.7,0.5-1.2,0.5c0.2,0.1,0.4,0.2,0.5,0.3c0.2,0.2,0.4,0.5,0.6,0.8l1,1.6h-1l-0.8-1.2
		c-0.2-0.3-0.4-0.6-0.5-0.8c-0.1-0.2-0.3-0.3-0.4-0.4c-0.1-0.1-0.2-0.1-0.3-0.2c-0.1,0-0.2,0-0.4,0h-0.9v2.5H55.6z M56.3,92.6H58
		c0.3,0,0.6,0,0.8-0.1c0.2-0.1,0.3-0.2,0.4-0.3c0.1-0.2,0.2-0.3,0.2-0.5c0-0.3-0.1-0.5-0.3-0.7c-0.2-0.2-0.5-0.3-0.9-0.3h-1.8V92.6z
		"/>
	<path class="st1" d="M60.7,95.8l2.2-5.7h0.8l2.3,5.7h-0.9L64.5,94h-2.4l-0.6,1.7H60.7z M62.4,93.4h1.9l-0.6-1.6
		c-0.2-0.5-0.3-0.9-0.4-1.2c-0.1,0.4-0.2,0.7-0.3,1.1L62.4,93.4z"/>
	<path class="st1" d="M66.7,95.8v-5.7h0.8l3,4.5v-4.5h0.7v5.7h-0.8l-3-4.5v4.5H66.7z"/>
	<path class="st1" d="M73.9,95.8v-5.1H72v-0.7h4.5v0.7h-1.9v5.1H73.9z"/>
	<path class="st1" d="M76.5,95.8V95h0.8v0.8c0,0.3-0.1,0.5-0.2,0.7c-0.1,0.2-0.3,0.3-0.5,0.4l-0.2-0.3c0.1-0.1,0.3-0.2,0.3-0.3
		c0.1-0.1,0.1-0.3,0.1-0.5H76.5z"/>
	<path class="st1" d="M80.6,93.9l0.7-0.1c0,0.3,0.1,0.5,0.2,0.7s0.3,0.3,0.6,0.4s0.6,0.2,0.9,0.2c0.3,0,0.5,0,0.8-0.1
		s0.4-0.2,0.5-0.4c0.1-0.2,0.2-0.3,0.2-0.5c0-0.2-0.1-0.3-0.2-0.5c-0.1-0.1-0.3-0.2-0.5-0.3c-0.2-0.1-0.5-0.2-1-0.3
		c-0.5-0.1-0.9-0.2-1.1-0.4c-0.3-0.1-0.5-0.3-0.6-0.5c-0.1-0.2-0.2-0.5-0.2-0.7c0-0.3,0.1-0.6,0.2-0.8c0.2-0.3,0.4-0.4,0.7-0.6
		c0.3-0.1,0.7-0.2,1.1-0.2c0.4,0,0.8,0.1,1.1,0.2s0.6,0.3,0.7,0.6s0.3,0.6,0.3,0.9l-0.7,0.1c0-0.4-0.2-0.6-0.4-0.8
		c-0.2-0.2-0.6-0.3-1-0.3c-0.5,0-0.8,0.1-1,0.3s-0.3,0.4-0.3,0.6c0,0.2,0.1,0.4,0.2,0.5c0.1,0.1,0.5,0.3,1.1,0.4
		c0.6,0.1,1,0.3,1.3,0.4c0.3,0.2,0.6,0.3,0.7,0.6c0.2,0.2,0.2,0.5,0.2,0.8c0,0.3-0.1,0.6-0.3,0.9s-0.4,0.5-0.8,0.6
		c-0.3,0.1-0.7,0.2-1.1,0.2c-0.5,0-1-0.1-1.3-0.2c-0.4-0.2-0.6-0.4-0.8-0.7C80.7,94.7,80.6,94.3,80.6,93.9z"/>
	<path class="st1" d="M85.6,95.8l2.2-5.7h0.8l2.3,5.7h-0.9L89.4,94H87l-0.6,1.7H85.6z M87.3,93.4h1.9l-0.6-1.6
		c-0.2-0.5-0.3-0.9-0.4-1.2c-0.1,0.4-0.2,0.7-0.3,1.1L87.3,93.4z"/>
	<path class="st1" d="M91.5,95.8v-5.7h0.8v2.8l2.8-2.8h1l-2.4,2.3l2.5,3.4h-1l-2-2.9l-0.9,0.9v2H91.5z"/>
	<path class="st1" d="M101,93.8l0.8,0.2c-0.2,0.6-0.4,1.1-0.9,1.4c-0.4,0.3-0.9,0.5-1.5,0.5c-0.6,0-1.1-0.1-1.5-0.4
		c-0.4-0.3-0.7-0.6-0.9-1.1s-0.3-1-0.3-1.5c0-0.6,0.1-1.1,0.3-1.6c0.2-0.4,0.6-0.8,1-1s0.9-0.3,1.4-0.3c0.6,0,1.1,0.1,1.4,0.4
		c0.4,0.3,0.7,0.7,0.8,1.2l-0.7,0.2c-0.1-0.4-0.3-0.7-0.6-0.9c-0.3-0.2-0.6-0.3-1-0.3c-0.4,0-0.8,0.1-1.1,0.3s-0.5,0.5-0.6,0.8
		s-0.2,0.7-0.2,1.1c0,0.5,0.1,0.9,0.2,1.3s0.4,0.6,0.7,0.8s0.6,0.3,1,0.3c0.4,0,0.8-0.1,1.1-0.4C100.7,94.6,100.9,94.3,101,93.8z"/>
	<path class="st1" d="M102.7,95.8v-5.7h0.8v2.4h3v-2.4h0.8v5.7h-0.8v-2.7h-3v2.7H102.7z"/>
	<path class="st1" d="M108.6,95.8v-5.7h0.8v5.7H108.6z"/>
</g>
</svg>
