<?xml version="1.0" encoding="utf-8"?>
<!-- Generator: Adobe Illustrator 21.0.0, SVG Export Plug-In . SVG Version: 6.00 Build 0)  -->
<svg version="1.1" id="Layer_1" xmlns="http://www.w3.org/2000/svg" xmlns:xlink="http://www.w3.org/1999/xlink" x="0px" y="0px"
	 viewBox="0 0 150 100" style="enable-background:new 0 0 150 100;" xml:space="preserve">
<style type="text/css">
	.st0{fill:#020202;}
	.st1{fill:#FFCC6E;}
	.st2{fill:#FFFFFF;}
	.st3{opacity:0.98;fill:#606060;enable-background:new    ;}
	.st4{fill:none;stroke:#FFFDFD;stroke-miterlimit:10;}
	.st5{enable-background:new    ;}
</style>
<rect class="st0" width="150" height="100"/>
<g>
	<path class="st1" d="M33,24.9c-0.1-1.4-0.8-2.6-1.5-3.8c-1-1.5-2.4-2.6-3.7-3.8c-0.4-0.4-0.9-0.8-1.4-1.2c1-0.2,2.3,0.5,3.3,1.8
		c0.1-0.2,0.1-0.5,0.2-0.7c0.1-0.4,0.2-0.7,0.4-1.1c0.3-0.6,0.8-0.8,1.2-0.7c0.5,0.1,0.9,0.9,0.8,1.4c-0.1,0.4-0.2,0.5-0.6,0.3
		c-0.2-0.1-0.6-0.2-0.7,0c-0.2,0.3-0.4,0.6-0.5,1c0,0.1,0.3,0.4,0.5,0.5c0.4,0.1,0.8,0.1,1.2,0.2c0,0.1,0,0.1,0,0.2
		c-0.4,0.2-0.8,0.3-1.2,0.5c0,0.1,0.1,0.3,0.2,0.4c0.9,0.7,1.8,1.3,3,1.3c1,0,1.7-0.5,2-1.4c0.3-1.1,0.4-2.2,0.6-3.3
		c0-0.3-0.2-0.5-0.3-0.8c-0.4,0.4-0.7,0.7-1,1c-0.1,0-0.1-0.1-0.2-0.1c0.1-0.4,0.2-0.8,0.2-1.2c0-0.2-0.1-0.7-0.2-0.7
		c-0.4,0-0.8,0-1.1,0.1c-0.1,0.1-0.2,0.4-0.2,0.7c0,0.4-0.1,0.5-0.5,0.4c-0.5-0.1-1.1-0.8-1-1.3c0.1-0.4,0.6-0.9,1.3-0.9
		c0.5,0,1,0.1,1.7,0.2c-0.9-1.2-0.8-2.5-0.5-3.9c1.2,0.9,2,1.9,2,3.5c0.3-0.3,0.4-0.5,0.6-0.6c0.3-0.3,0.5-0.6,0.9-0.7
		c0.4-0.2,0.9-0.4,1.3,0c0.3,0.2,0.4,1,0.2,1.5c-0.1,0.2-0.3,0.3-0.5,0.4c-0.1-0.1-0.2-0.3-0.3-0.4c-0.1-0.1-0.4-0.3-0.5-0.3
		c-0.4,0.1-0.7,0.3-1,0.6c-0.1,0.1,0,0.5,0.1,0.6c0.3,0.3,0.7,0.6,1.1,0.9c-0.5,0.5-0.9,0.1-1.4-0.1c0,0.4,0,0.7,0.1,0.9
		c0.6,1,1.4,1.8,2.6,2.2c0.9,0.3,1.7,0.1,2.3-0.5c1.2-1.2,1.7-2.7,2.1-4.3c0.1-0.6,0.5-1.2,0.1-1.8l-0.1-0.1
		c-0.4,0.2-0.8,0.4-1.2,0.5c0-0.1-0.1-0.1-0.1-0.2c0.2-0.3,0.5-0.6,0.6-0.9c0.1-0.2,0.2-0.7,0.1-0.8c-0.3-0.2-0.7-0.3-1.1-0.3
		c-0.1,0-0.4,0.4-0.4,0.6c-0.1,0.4-0.3,0.4-0.6,0.3c-0.4-0.2-0.7-1-0.5-1.5s0.6-0.6,1.1-0.6c0.4,0.1,0.7,0.2,1.1,0.4
		c0.3,0.1,0.5,0.3,0.7,0.3c0.1-0.8,0.1-1.6,0.3-2.3c0.1-0.5,0.4-0.9,0.7-1.5C46,7.1,46.4,8.3,46,9.7c0.6-0.3,1.1-0.5,1.6-0.7
		s1-0.1,1.3,0.4c0.2,0.4,0.1,1.1-0.3,1.5c-0.1,0.1-0.4,0.2-0.6,0.2c-0.1,0-0.1-0.3-0.2-0.4c-0.1-0.2-0.3-0.5-0.5-0.5
		c-0.3,0-0.7,0.1-1,0.3c-0.1,0.1-0.1,0.5,0,0.7c0.2,0.4,0.5,0.7,0.7,1c0,0.1-0.1,0.1-0.1,0.2c-0.4-0.2-0.8-0.3-1.2-0.6
		c0,0.2-0.2,0.4-0.2,0.6c0.3,2,0.9,3.9,2.3,5.4c0.2,0.2,0.5,0.4,0.8,0.6c0.5,0.4,1.1,0.4,1.7,0.1c1-0.5,1.8-1.4,2.4-2.3
		c0.1-0.2,0.1-0.5,0.1-0.7c-0.5,0.1-0.9,0.1-1.3,0.2c0-0.1-0.1-0.2-0.1-0.2c0.3-0.2,0.6-0.4,0.8-0.6c0.2-0.2,0.4-0.5,0.4-0.7
		c-0.1-0.5-0.5-0.7-0.9-0.7c-0.3,0-0.6,0.1-0.6,0.5c-0.1,0.4-0.4,0.2-0.5,0c-0.4-0.4-0.4-1.2-0.1-1.6c0.2-0.3,1-0.4,1.4-0.1
		c0.3,0.2,0.6,0.5,0.9,0.8c0.1,0.1,0.3,0.3,0.5,0.6c0-1.6,0.8-2.6,1.9-3.5c0.4,1.4,0.6,2.7-0.3,3.9c0.2,0,0.4-0.1,0.6-0.1
		c0.5,0,1.1,0,1.6,0.1s0.7,0.5,0.6,1.1c-0.1,0.5-0.7,1-1.1,1c-0.1,0-0.3-0.3-0.3-0.4c0.1-0.4,0-0.7-0.3-0.8s-0.8-0.1-1.1,0
		c-0.1,0.1-0.2,0.5-0.1,0.8c0,0.3,0.2,0.7,0.3,1c-0.1,0-0.1,0.1-0.2,0.1c-0.3-0.3-0.6-0.6-1-1c-0.1,0.2-0.3,0.4-0.3,0.7
		c0,1.2,0.1,2.4,0.6,3.5c0.7,1.5,1.9,1.9,3.4,1.3c0.5-0.2,1-0.6,1.4-0.9c0.2-0.2,0.4-0.5,0.5-0.7c-0.5-0.2-0.9-0.3-1.3-0.5
		c0-0.1,0-0.2,0-0.2c0.3-0.1,0.7-0.1,1-0.2s0.7-0.3,0.7-0.5c0-0.3-0.2-0.7-0.4-1c-0.2-0.2-0.6-0.2-0.8,0.1c-0.2,0.3-0.4,0.1-0.5-0.2
		c-0.1-0.5,0.2-1.3,0.6-1.4c0.4-0.2,1,0,1.3,0.6c0.3,0.5,0.5,1.1,0.7,1.7c0.7-1.3,1.9-1.7,3.3-1.8c-0.4,0.4-0.8,0.8-1.3,1.1
		c-2.1,1.6-3.7,3.6-4.7,5.9c-0.2,0.4-0.3,0.9-0.4,1.4c-0.1,0.3-0.2,0.4-0.5,0.4c-0.1,0-0.2,0-0.2,0c-7.7,0-15.4,0-23.1,0
		C33.5,24.9,33.3,24.9,33,24.9z"/>
	<path class="st2" d="M56.5,41.4C56.4,45,54.3,48.8,50,51c-4.6,2.3-9.9,1.2-13.4-2.5c-4.7-5-4.7-14.3,2.7-18.8
		c3.9-2.3,9.2-1.9,12.7,1C55,33.2,56.5,36.4,56.5,41.4z M45.1,49c4.2,0.2,8.4-3.7,8.4-8.7c0-4.9-3.7-8.8-8.6-8.9
		c-4.7,0-8.5,3.9-8.5,8.8C36.3,45.1,40.1,49,45.1,49z"/>
	<path class="st2" d="M26.2,51.4c-0.9,0-1.7,0-2.5,0c-0.1,0-0.3-0.3-0.4-0.5c-0.5-2.1-1.1-4.3-1.6-6.4c-0.6-2.3-1.1-4.6-1.7-6.9
		c0-0.1-0.1-0.1-0.1-0.3c-2,5.1-3.9,10-5.9,15.1c-2-5.1-4-10.1-5.9-15.1H8c-0.3,1.1-0.5,2.2-0.8,3.3c-1,3.4-1.8,6.8-2.6,10.3
		c-0.1,0.5-0.3,0.6-0.8,0.6c-0.7,0-1.4,0-2.2,0C3.5,43.7,5.4,36,7.3,28.2h0.1c2.1,5.5,4.3,10.9,6.5,16.6c2.2-5.6,4.3-11.1,6.4-16.5
		h0.1C22.4,35.9,24.3,43.6,26.2,51.4z"/>
	<path class="st2" d="M65.8,28.9c2.5,0.2,5-0.3,7.5,0.5c5.4,1.7,5.8,7.3,3.1,10.2c-0.9,1-2.1,1.6-3.5,2c-0.2,0.1-0.4,0.1-0.6,0.2
		c2,3.2,4,6.3,6,9.6c-0.8,0-1.5-0.1-2.2,0c-0.8,0.1-1.2-0.2-1.6-0.9c-1.6-2.7-3.3-5.3-5-8c-0.2-0.4-0.5-0.5-0.9-0.3c0,3,0,6,0,9.1
		c-1,0-1.9,0-2.8,0C65.8,44,65.8,36.5,65.8,28.9z M68.6,39.5c1.3,0,2.5,0,3.7-0.4c2.4-0.8,3.4-3.6,1.9-5.6C74,33,73.5,32.6,73,32.3
		c-1.4-0.7-2.9-0.6-4.3-0.6C68.6,34.3,68.6,36.9,68.6,39.5z"/>
	<path class="st2" d="M85.2,51.4c3.3-7.8,6.6-15.5,9.9-23.3c3.3,7.8,6.6,15.5,9.9,23.3c-1,0-1.9,0-2.8,0c-0.1,0-0.3-0.3-0.4-0.5
		c-0.7-1.6-1.4-3.2-2-4.7c-0.1-0.3-0.3-0.5-0.7-0.5c-2.7,0-5.3,0-8,0c-0.3,0-0.5,0.1-0.7,0.4c-0.6,1.6-1.3,3.2-2,4.8
		c-0.2,0.4-0.3,0.5-0.8,0.5C86.9,51.4,86.1,51.4,85.2,51.4z M95.1,35.2c-1.1,2.7-2.2,5.3-3.3,7.9c2.3,0,4.5,0,6.7,0
		C97.3,40.5,96.2,37.9,95.1,35.2z"/>
	<path class="st2" d="M138.5,28.1c3.3,7.8,6.6,15.5,9.9,23.3c-1,0-1.9,0-2.8,0c-0.1,0-0.3-0.2-0.3-0.4c-0.7-1.6-1.4-3.2-2.1-4.8
		c-0.1-0.4-0.3-0.5-0.7-0.5c-2.7,0-5.3,0-8,0c-0.4,0-0.5,0.1-0.7,0.5c-0.7,1.6-1.3,3.2-2,4.8c-0.1,0.3-0.3,0.5-0.7,0.5
		c-0.8,0-1.6,0-2.5,0C132,43.7,135.2,36,138.5,28.1z M138.5,35.2c-1.1,2.7-2.2,5.3-3.3,7.9c2.3,0,4.4,0,6.7,0
		C140.8,40.5,139.7,37.9,138.5,35.2z"/>
	<path class="st2" d="M62.6,24.9c0-0.4,0-0.8,0-1.3c28.6,0,57.1,0,85.7,0c0,0.4,0,0.8,0,1.3C119.8,24.9,91.2,24.9,62.6,24.9z"/>
	<path class="st2" d="M1.7,56c0-0.5,0-0.9,0-1.3c18,0,35.9,0,53.9,0c0,0.4,0,0.8,0,1.3C37.7,56,19.7,56,1.7,56z"/>
	<path class="st2" d="M117.5,29c1,0,1.9,0,2.8,0c0,0.2,0,0.4,0,0.6c0,5.3,0,10.7,0,16c0,1.1-0.2,2.3-0.5,3.4
		c-0.5,1.8-1.8,2.8-3.7,3.1c-1.6,0.2-3.1-0.1-4.6-0.9c0.5-0.8,0.9-1.6,1.3-2.3c0-0.1,0.3-0.1,0.4,0c0.5,0.1,0.9,0.3,1.4,0.3
		c1.5,0.2,2.4-0.5,2.6-1.9c0.1-0.5,0.1-1,0.1-1.5c0-5.3,0-10.6,0-15.9C117.5,29.5,117.5,29.3,117.5,29z"/>
	<path class="st2" d="M54.7,64.7c0,2.6-2,4.7-4.6,4.7s-4.6-2.1-4.7-4.7c0-2.6,2.1-4.7,4.6-4.7C52.6,60,54.7,62.1,54.7,64.7z
		 M50,67.6c1.5,0,2.7-1.2,2.8-2.8c0-1.6-1.2-2.9-2.7-2.9s-2.7,1.3-2.7,2.9C47.3,66.3,48.5,67.6,50,67.6z"/>
	<path class="st2" d="M67.4,60.2c0.7,0,1.2,0,1.8,0c0,3,0,6,0,9.1c-2.1-1.8-4.1-3.5-6.3-5.2c0,1.8,0,3.4,0,5.1c-0.7,0-1.2,0-1.9,0
		c0-3,0-6,0-9.1c2.1,1.8,4.2,3.5,6.3,5.3C67.4,63.6,67.4,61.9,67.4,60.2z"/>
	<path class="st2" d="M122.8,69.2c-0.7,0-1.3,0-1.9,0c0-3,0-6,0-9c1.6,0.1,3.1-0.3,4.6,0.3c1.7,0.7,2.5,2.3,2.1,4.2
		c-0.3,1.7-1.7,2.8-3.5,2.9c-0.4,0-0.9,0-1.4,0C122.8,68.2,122.8,68.7,122.8,69.2z M122.9,61.9c0,1.4,0,2.7,0,4c1,0,2.1,0.2,2.7-0.9
		c0.5-0.8,0.5-1.7,0-2.4C124.9,61.7,123.8,61.9,122.9,61.9z"/>
	<path class="st2" d="M1.7,24.9c0-0.4,0-0.8,0-1.3c9,0,18.1,0,27.1,0c0,0.2,0,0.4,0,0.6s0,0.4,0,0.7C19.8,24.9,10.8,24.9,1.7,24.9z"
		/>
	<path class="st2" d="M24.4,60c1.6,3.1,3.2,6.1,4.7,9.2c-0.7,0-1.2,0-1.8,0c-0.2,0-0.4-0.3-0.5-0.5c-0.2-0.6-0.5-0.8-1.2-0.7
		c-1,0.1-2.1,0-3.1,0c-0.4,0-0.6,0.1-0.7,0.4c-0.2,0.7-0.6,0.9-1.3,0.8c-0.3,0-0.6,0-1,0C21.3,66.2,22.8,63.2,24.4,60z M23,66.3
		c0.9,0,1.7,0,2.7,0c-0.5-0.9-0.9-1.8-1.3-2.7C23.9,64.5,23.5,65.3,23,66.3z"/>
	<path class="st2" d="M136.5,60c1.6,3.1,3.2,6.1,4.7,9.2c-0.7,0-1.2,0-1.8,0c-0.2,0-0.4-0.3-0.5-0.5c-0.2-0.5-0.5-0.7-1.1-0.7
		c-1,0.1-2.1,0-3.1,0c-0.4,0-0.7,0.1-0.8,0.5c-0.2,0.6-0.6,0.8-1.2,0.7c-0.3,0-0.6,0-1.1,0C133.4,66.2,134.9,63.2,136.5,60z
		 M137.8,66.3c-0.4-0.9-0.9-1.8-1.3-2.8c-0.5,1-0.9,1.9-1.3,2.8C136.1,66.3,136.9,66.3,137.8,66.3z"/>
	<path class="st2" d="M87.6,63c-0.5-0.9-0.9-1.8-1.4-2.8c0.2,0,0.4,0,0.5,0c1.4,0,2.8,0,4.2,0c0,0.5,0,1,0,1.6c-0.7,0-1.3,0-2.1,0
		c0.5,1,1,1.9,1.5,2.9c-0.6,0-1,0-1.5,0c-0.7,0-1.1,0.5-1.3,1.1c-0.1,0.7,0.2,1.3,0.8,1.7c0.6,0.3,1.3,0.2,1.7-0.2
		c0.2-0.3,0.3-0.6,0.4-1c0.1-0.3,0-0.6,0-1c0.9,0,1.7,0,2.7,0c0,0.3,0,0.5,0,0.8c0,0.5-0.1,0.7-0.6,0.7c-0.1,0-0.4,0.2-0.4,0.4
		c-0.4,1.3-1.4,2.2-2.7,2.3c-1.4,0.1-2.5-0.4-3.2-1.7c-0.7-1.2-0.5-2.7,0.3-3.6C86.8,63.7,87.2,63.4,87.6,63z"/>
	<path class="st2" d="M108.8,68c0.5-0.3,0.9-0.7,1.3-1c0.6,0.2,1,0.4,1.5,0.5s0.9-0.3,1.1-0.8s0-1.1-0.5-1.3c-0.3-0.2-0.7-0.2-1-0.3
		c-1.1-0.2-2-0.8-2.2-2c-0.2-1.1,0.2-2.1,1.2-2.7c0.9-0.6,2.2-0.6,3.1,0.1c0.2,0.2,0.4,0.4,0.7,0.6c-0.5,0.4-1,0.7-1.4,1.1
		c-0.3-0.1-0.5-0.3-0.8-0.4c-0.4-0.1-0.9,0.1-1,0.5c-0.1,0.5,0.1,0.8,0.5,0.9c0.3,0.1,0.6,0.1,0.8,0.2c1.8,0.3,2.9,1.7,2.6,3.4
		c-0.3,1.6-1.9,2.7-3.6,2.4C110.1,69.2,109.3,68.7,108.8,68z"/>
	<path class="st2" d="M13.9,61.2c-0.5,0.4-1,0.7-1.4,1c-0.3-0.1-0.5-0.3-0.8-0.4c-0.5-0.1-0.9,0.1-1,0.5s0,0.8,0.5,1
		c0.3,0.1,0.6,0.1,0.8,0.2c1.8,0.3,2.9,1.6,2.6,3.4c-0.3,1.6-1.9,2.8-3.5,2.5c-0.9-0.2-1.7-0.5-2.3-1.3c0.5-0.4,1-0.7,1.3-1
		c0.6,0.2,1,0.4,1.5,0.5s1-0.3,1.1-0.8s0-1-0.5-1.3c-0.2-0.1-0.5-0.2-0.8-0.2c-1-0.2-1.9-0.6-2.3-1.6c-0.4-1.1-0.1-2.2,0.8-3
		c1-0.8,2.3-0.8,3.3-0.1C13.4,60.7,13.6,60.9,13.9,61.2z"/>
	<path class="st2" d="M35,60.2c0.6,0,1.2,0,1.8,0c0,2.4,0,4.8,0,7.3c1.2,0,2.4,0,3.6,0c0,0.6,0,1.1,0,1.7c-1.8,0-3.6,0-5.4,0
		C35,66.2,35,63.3,35,60.2z"/>
	<path class="st2" d="M148.3,54.7c0,0.5,0,0.9,0,1.3c-1.4,0-2.7,0-4,0c0-0.4,0-0.9,0-1.3C145.6,54.7,146.9,54.7,148.3,54.7z"/>
	<path class="st1" d="M68.8,55.3c0,1-0.8,1.8-1.7,1.8c-1,0-1.8-0.8-1.8-1.8s0.8-1.8,1.8-1.8C68,53.6,68.7,54.3,68.8,55.3z
		 M65.9,55.3c0,0.7,0.4,1.2,1.1,1.2c0.6,0,1.1-0.5,1.1-1.1s-0.4-1.1-1-1.1C66.4,54.2,66,54.7,65.9,55.3z"/>
	<path class="st1" d="M83.4,56.3c0.2,0.2,0.4,0.4,0.5,0.6c-0.7,0.5-1-0.5-1.6-0.5c0,0.2-0.1,0.4-0.1,0.6c-0.2,0-0.3,0-0.6,0
		c0-1.1,0-2.2,0-3.2c0-0.1,0.2-0.2,0.2-0.2c0.5,0,1,0,1.4,0.1c0.9,0.3,1.2,1.5,0.6,2.2C83.7,56.1,83.6,56.2,83.4,56.3z M82.3,54.1
		c0,0.8,0,1.3,0,2c0.4-0.2,0.8-0.3,1-0.5s0.2-0.7,0-0.9C83.1,54.4,82.7,54.3,82.3,54.1z"/>
	<path class="st1" d="M73.6,54.8c0-0.3,0-0.6,0-0.9c0-0.1,0.2-0.2,0.3-0.4c0.1,0.1,0.3,0.2,0.3,0.4c0,0.5,0,1.1,0,1.6
		c0,0.7,0.3,0.9,0.8,0.9s0.7-0.3,0.8-0.9c0-0.5,0-1.1,0-1.6c0-0.1,0.2-0.2,0.3-0.4c0.1,0.1,0.3,0.2,0.4,0.4c0,0.6,0,1.2,0,1.8
		c-0.1,0.9-0.6,1.4-1.5,1.3c-0.8,0-1.3-0.5-1.4-1.3C73.6,55.5,73.7,55.2,73.6,54.8C73.7,54.8,73.6,54.8,73.6,54.8z"/>
	<path class="st1" d="M132.2,56.5c0.2,0,0.5-0.1,0.7,0c0.3,0,0.6,0.1,0.7-0.3c0-0.2-0.3-0.4-0.4-0.6h-0.1c-0.5-0.1-0.8-0.3-0.9-0.8
		c-0.1-0.5,0.1-0.8,0.6-1s0.9-0.1,1.4,0.4c-0.4,0.1-0.6,0.1-0.8,0.2c-0.1,0-0.3,0.1-0.4,0.2c0.1,0.1,0.2,0.3,0.3,0.4
		c0,0,0.1,0,0.2,0.1c0.5,0.1,0.9,0.3,1,0.9c0.1,0.5-0.1,0.9-0.5,1.2c-0.5,0.3-0.9,0.2-1.4-0.1c-0.1-0.1-0.1-0.1-0.2-0.2
		C132.2,56.7,132.2,56.6,132.2,56.5z"/>
	<path class="st1" d="M98.3,56.5c0.2,0,0.5-0.1,0.7-0.1c0.3,0,0.6,0.1,0.7-0.3c0.1-0.4-0.1-0.6-0.5-0.7c-0.5-0.1-0.8-0.3-0.9-0.7
		c-0.1-0.5,0.1-0.9,0.5-1.1c0.5-0.2,0.9-0.1,1.4,0.4c-0.3,0.1-0.6,0.1-0.8,0.2c-0.2,0.1-0.3,0.1-0.5,0.2c0.1,0.1,0.2,0.3,0.3,0.4
		c0,0,0.1,0,0.2,0.1c0.5,0.1,0.9,0.4,1,0.9s-0.1,0.9-0.5,1.1c-0.4,0.3-0.9,0.3-1.4,0c-0.1-0.1-0.2-0.2-0.3-0.2
		C98.3,56.7,98.3,56.6,98.3,56.5z"/>
	<path class="st1" d="M111.8,53.7c0.6-0.3,0.8,0.1,1,0.5s0.4,0.7,0.6,1.1c0.7-0.4,0.5-1.6,1.7-1.7c-0.4,1.2-1.6,2-1.3,3.5
		c-0.2,0-0.4,0-0.7,0C113.4,55.7,112.2,54.8,111.8,53.7z"/>
	<path class="st1" d="M57.6,53.6c1.2,0,1.1,1.2,1.8,1.7c0.3-0.4,0.5-0.9,0.8-1.3c0.2-0.4,0.4-0.4,0.8-0.3c-0.4,1.2-1.6,2-1.3,3.4
		c-0.2,0-0.4,0-0.6,0C59.2,55.7,58.1,54.9,57.6,53.6z"/>
	<path class="st1" d="M138.8,54.2c0-0.2,0-0.4,0-0.6c0.8,0,1.5,0,2.3,0c0,0.2,0,0.4,0,0.5c-0.3,0-0.6,0-0.9,0.1c0,0.9,0,1.9,0,2.8
		c-0.3,0-0.4,0-0.7,0c0-0.9,0-1.9,0-2.8C139.3,54.2,139.1,54.2,138.8,54.2z"/>
	<path class="st1" d="M105.7,54.3c-0.3,0-0.5,0-0.8-0.1c0-0.2,0-0.4,0-0.6c0.8,0,1.5,0,2.3,0c0,0.2,0,0.4,0,0.5
		c-0.3,0-0.6,0-0.9,0.1c0,0.9,0,1.9,0,2.8c-0.3,0-0.4,0-0.7,0C105.7,56.1,105.7,55.2,105.7,54.3z"/>
	<path class="st1" d="M120.5,56.5c0.5,0,0.9,0,1.3,0c0,0.2,0,0.4,0,0.6c-0.7,0-1.3,0-2,0c0-1.1,0-2.3,0-3.4c0.4-0.1,0.6-0.1,0.6,0.4
		C120.5,54.9,120.5,55.6,120.5,56.5z"/>
	<path class="st1" d="M127.3,53.7c0,1.1,0,2.2,0,3.4c-0.2,0-0.4,0-0.6,0c0-1.1,0-2.1,0-3.2C126.7,53.8,127,53.7,127.3,53.7
		C127.2,53.6,127.2,53.6,127.3,53.7z"/>
</g>
<rect x="0.1" y="86" class="st3" width="150" height="14"/>
<g>
	<path class="st4" d="M144.8,85.1c-0.5,0.8-0.5,1.5-0.1,2.2c0.3,0.5,0.4,1,0.6,1.5c0.3,0.9,0.2,1.4-0.7,1.8c-0.7,0.4-1.4,0.7-2,1.1
		c-0.3,0.2-0.5,0.5-0.6,0.8c-0.2,0.8-0.3,1.5-0.4,2.3c-0.2,0.9-0.6,1.3-1.5,1.2c-0.8-0.1-1.5-0.3-2.3-0.3c-0.3,0-0.7,0.1-0.9,0.3
		c-0.6,0.5-1.1,1.1-1.7,1.6c-0.6,0.6-1.2,0.6-1.9,0c-0.6-0.5-1.1-1.1-1.7-1.6c-0.2-0.2-0.6-0.3-0.9-0.3c-0.7,0.1-1.4,0.2-2.1,0.3
		c-1,0.1-1.6-0.3-1.8-1.3c-0.1-0.5-0.2-1.1-0.2-1.6c0-0.8-0.4-1.3-1.1-1.6c-0.4-0.2-0.8-0.4-1.3-0.6c-1.1-0.6-1.3-1.2-0.8-2.3
		c0.3-0.6,0.6-1.2,0.9-1.9c0.1-0.3,0.1-0.6,0-0.9c-0.3-0.7-0.7-1.3-1-2c-0.5-0.9-0.3-1.6,0.7-2.1c0.6-0.3,1.2-0.6,1.8-0.9
		c0.5-0.2,0.8-0.6,0.8-1.2c0.1-0.7,0.2-1.4,0.3-2.2c0.2-0.8,0.6-1.1,1.5-1.1c0.7,0.1,1.5,0.2,2.3,0.4c0.5,0.1,0.8,0,1.1-0.3
		c0.6-0.6,1.2-1.1,1.8-1.7c0.6-0.5,1.2-0.5,1.8,0c0.6,0.6,1.1,1.2,1.7,1.7c0.2,0.2,0.6,0.3,0.9,0.3c0.7-0.1,1.4-0.2,2.1-0.3
		c1.1-0.2,1.6,0.3,1.8,1.3c0,0.2,0.1,0.4,0.1,0.6c-0.1,1.6,0.7,2.5,2.1,2.9c0.2,0.1,0.5,0.2,0.7,0.4c0.7,0.4,1,1.1,0.6,1.9
		C145.3,84.1,145.1,84.7,144.8,85.1z"/>
	<g>
		<path class="st2" d="M131.4,84.3V85h-3.8c0-0.2,0-0.3,0.1-0.5c0.1-0.3,0.3-0.5,0.5-0.8c0.2-0.3,0.5-0.5,0.9-0.9
			c0.6-0.5,1-0.9,1.3-1.2s0.3-0.6,0.3-0.8c0-0.3-0.1-0.5-0.3-0.7s-0.5-0.3-0.8-0.3s-0.6,0.1-0.8,0.3s-0.3,0.5-0.3,0.8l-0.7-0.1
			c0-0.5,0.2-1,0.6-1.2s0.8-0.4,1.3-0.4s1,0.2,1.3,0.5s0.5,0.7,0.5,1.1c0,0.2,0,0.5-0.1,0.7s-0.2,0.5-0.5,0.7s-0.6,0.6-1.1,1
			c-0.4,0.4-0.7,0.6-0.8,0.7s-0.2,0.3-0.3,0.4C128.7,84.3,131.4,84.3,131.4,84.3z"/>
		<path class="st2" d="M131.9,82.1c0-0.7,0.1-1.2,0.2-1.6s0.3-0.7,0.6-1s0.6-0.3,1-0.3c0.3,0,0.6,0.1,0.8,0.2s0.4,0.3,0.6,0.5
			s0.3,0.5,0.4,0.9s0.1,0.8,0.1,1.4c0,0.7-0.1,1.2-0.2,1.6s-0.3,0.7-0.6,1s-0.6,0.3-1,0.3c-0.6,0-1-0.2-1.3-0.6
			C132.1,84,131.9,83.2,131.9,82.1z M132.6,82.1c0,0.9,0.1,1.6,0.3,1.9s0.5,0.5,0.8,0.5s0.6-0.2,0.8-0.5s0.3-0.9,0.3-1.9
			c0-0.9-0.1-1.6-0.3-1.9s-0.5-0.5-0.8-0.5s-0.6,0.1-0.8,0.4C132.7,80.5,132.6,81.2,132.6,82.1z"/>
		<path class="st2" d="M136.1,80.6c0-0.4,0.1-0.8,0.3-1s0.5-0.4,0.9-0.4s0.7,0.1,0.9,0.4s0.4,0.6,0.4,1.1s-0.1,0.9-0.4,1.1
			s-0.5,0.4-0.9,0.4c-0.3,0-0.6-0.1-0.9-0.4S136.1,81.1,136.1,80.6z M137.4,79.6c-0.2,0-0.3,0.1-0.4,0.2s-0.2,0.4-0.2,0.8
			s0.1,0.6,0.2,0.8s0.3,0.2,0.4,0.2c0.2,0,0.3-0.1,0.4-0.2s0.2-0.4,0.2-0.8s-0.1-0.6-0.2-0.8S137.5,79.6,137.4,79.6z M137.4,85.2
			l3.1-6h0.6l-3.1,6H137.4z M139.8,83.6c0-0.4,0.1-0.8,0.3-1s0.5-0.4,0.9-0.4s0.7,0.1,0.9,0.4s0.4,0.6,0.4,1.1s-0.1,0.9-0.4,1.1
			s-0.5,0.4-0.9,0.4c-0.3,0-0.6-0.1-0.9-0.4S139.8,84.1,139.8,83.6z M141.1,82.6c-0.2,0-0.3,0.1-0.4,0.2s-0.2,0.4-0.2,0.8
			s0.1,0.6,0.2,0.8s0.3,0.2,0.4,0.2c0.2,0,0.3-0.1,0.4-0.2s0.2-0.4,0.2-0.8s-0.1-0.6-0.2-0.8S141.2,82.6,141.1,82.6z"/>
		<path class="st2" d="M127.8,89.2c0-1,0.3-1.7,0.8-2.2s1.2-0.8,2-0.8c0.5,0,1,0.1,1.4,0.4s0.7,0.6,1,1.1s0.3,1,0.3,1.5
			c0,0.6-0.1,1.1-0.4,1.6s-0.6,0.8-1,1S131,92,130.5,92s-1-0.1-1.4-0.4s-0.7-0.6-1-1.1S127.8,89.7,127.8,89.2z M128.6,89.2
			c0,0.7,0.2,1.2,0.6,1.6s0.8,0.6,1.4,0.6c0.6,0,1-0.2,1.4-0.6s0.6-1,0.6-1.7c0-0.5-0.1-0.9-0.2-1.2s-0.4-0.6-0.7-0.8
			s-0.6-0.3-1-0.3c-0.5,0-1,0.2-1.4,0.6S128.6,88.3,128.6,89.2z"/>
		<path class="st2" d="M134,91.9v-5.7h3.9v0.7h-3.1v1.8h2.7v0.7h-2.7V92L134,91.9L134,91.9z"/>
		<path class="st2" d="M138.5,91.9v-5.7h3.9v0.7h-3.1v1.8h2.7v0.7h-2.7V92L138.5,91.9L138.5,91.9z"/>
	</g>
</g>
<g class="st5">
	<path class="st2" d="M38.7,93.4l0.7-0.1c0,0.3,0.1,0.5,0.2,0.7c0.1,0.2,0.3,0.3,0.6,0.4c0.3,0.1,0.6,0.2,0.9,0.2
		c0.3,0,0.5,0,0.8-0.1c0.2-0.1,0.4-0.2,0.5-0.4c0.1-0.1,0.2-0.3,0.2-0.5c0-0.2-0.1-0.3-0.2-0.5c-0.1-0.1-0.3-0.2-0.5-0.3
		c-0.2-0.1-0.5-0.2-1-0.3c-0.5-0.1-0.9-0.2-1.1-0.4c-0.3-0.1-0.5-0.3-0.6-0.5c-0.1-0.2-0.2-0.5-0.2-0.7c0-0.3,0.1-0.6,0.2-0.8
		s0.4-0.4,0.7-0.6c0.3-0.1,0.7-0.2,1.1-0.2c0.4,0,0.8,0.1,1.1,0.2s0.6,0.3,0.7,0.6c0.2,0.3,0.3,0.6,0.3,0.9l-0.7,0.1
		c0-0.4-0.2-0.6-0.4-0.8c-0.2-0.2-0.6-0.3-1-0.3c-0.5,0-0.8,0.1-1,0.3c-0.2,0.2-0.3,0.4-0.3,0.6c0,0.2,0.1,0.4,0.2,0.5
		c0.1,0.1,0.5,0.3,1.1,0.4c0.6,0.1,1,0.3,1.3,0.4c0.3,0.2,0.6,0.3,0.7,0.6c0.2,0.2,0.2,0.5,0.2,0.8c0,0.3-0.1,0.6-0.3,0.9
		c-0.2,0.3-0.4,0.5-0.8,0.6c-0.3,0.1-0.7,0.2-1.1,0.2c-0.5,0-1-0.1-1.3-0.2c-0.4-0.2-0.6-0.4-0.8-0.7S38.7,93.8,38.7,93.4z"/>
	<path class="st2" d="M43.7,95.2l2.2-5.7h0.8l2.3,5.7h-0.9l-0.7-1.7h-2.4l-0.6,1.7H43.7z M45.3,92.9h1.9l-0.6-1.6
		c-0.2-0.5-0.3-0.9-0.4-1.2c-0.1,0.4-0.2,0.7-0.3,1.1L45.3,92.9z"/>
	<path class="st2" d="M49.6,95.2v-5.7h0.8v5.1h2.8v0.7H49.6z"/>
	<path class="st2" d="M53.8,92.4c0-1,0.3-1.7,0.8-2.2c0.5-0.5,1.2-0.8,2-0.8c0.5,0,1,0.1,1.4,0.4c0.4,0.3,0.7,0.6,1,1.1
		s0.3,1,0.3,1.5c0,0.6-0.1,1.1-0.4,1.6s-0.6,0.8-1,1s-0.9,0.4-1.4,0.4c-0.5,0-1-0.1-1.4-0.4c-0.4-0.3-0.7-0.6-1-1.1
		S53.8,92.9,53.8,92.4z M54.6,92.4c0,0.7,0.2,1.2,0.6,1.6s0.8,0.6,1.4,0.6c0.6,0,1-0.2,1.4-0.6c0.4-0.4,0.6-1,0.6-1.7
		c0-0.5-0.1-0.9-0.2-1.2c-0.2-0.3-0.4-0.6-0.7-0.8c-0.3-0.2-0.6-0.3-1-0.3c-0.5,0-1,0.2-1.4,0.6S54.6,91.6,54.6,92.4z"/>
	<path class="st2" d="M60.3,95.2v-5.7h0.8l3,4.5v-4.5h0.7v5.7H64l-3-4.5v4.5H60.3z"/>
	<path class="st2" d="M66.2,95.2v-0.8H67v0.8c0,0.3-0.1,0.5-0.2,0.7c-0.1,0.2-0.3,0.3-0.5,0.4L66.1,96c0.1-0.1,0.3-0.2,0.3-0.3
		s0.1-0.3,0.1-0.5H66.2z"/>
	<path class="st2" d="M70.3,93.4l0.7-0.1c0,0.3,0.1,0.5,0.2,0.7c0.1,0.2,0.3,0.3,0.6,0.4c0.3,0.1,0.6,0.2,0.9,0.2
		c0.3,0,0.5,0,0.8-0.1c0.2-0.1,0.4-0.2,0.5-0.4c0.1-0.1,0.2-0.3,0.2-0.5c0-0.2-0.1-0.3-0.2-0.5c-0.1-0.1-0.3-0.2-0.5-0.3
		c-0.2-0.1-0.5-0.2-1-0.3c-0.5-0.1-0.9-0.2-1.1-0.4c-0.3-0.1-0.5-0.3-0.6-0.5c-0.1-0.2-0.2-0.5-0.2-0.7c0-0.3,0.1-0.6,0.2-0.8
		s0.4-0.4,0.7-0.6c0.3-0.1,0.7-0.2,1.1-0.2c0.4,0,0.8,0.1,1.1,0.2s0.6,0.3,0.7,0.6c0.2,0.3,0.3,0.6,0.3,0.9l-0.7,0.1
		c0-0.4-0.2-0.6-0.4-0.8c-0.2-0.2-0.6-0.3-1-0.3c-0.5,0-0.8,0.1-1,0.3c-0.2,0.2-0.3,0.4-0.3,0.6c0,0.2,0.1,0.4,0.2,0.5
		c0.1,0.1,0.5,0.3,1.1,0.4c0.6,0.1,1,0.3,1.3,0.4c0.3,0.2,0.6,0.3,0.7,0.6c0.2,0.2,0.2,0.5,0.2,0.8c0,0.3-0.1,0.6-0.3,0.9
		c-0.2,0.3-0.4,0.5-0.8,0.6c-0.3,0.1-0.7,0.2-1.1,0.2c-0.5,0-1-0.1-1.3-0.2c-0.4-0.2-0.6-0.4-0.8-0.7S70.3,93.8,70.3,93.4z"/>
	<path class="st2" d="M75.2,95.2l2.2-5.7h0.8l2.3,5.7h-0.9l-0.7-1.7h-2.4L76,95.2H75.2z M76.9,92.9h1.9l-0.6-1.6
		c-0.2-0.5-0.3-0.9-0.4-1.2c-0.1,0.4-0.2,0.7-0.3,1.1L76.9,92.9z"/>
	<path class="st2" d="M81.2,95.2v-5.7h0.8v2.8l2.8-2.8h1l-2.4,2.3l2.5,3.4h-1l-2-2.9l-0.9,0.9v2H81.2z"/>
	<path class="st2" d="M90.6,93.2l0.8,0.2c-0.2,0.6-0.4,1.1-0.9,1.4c-0.4,0.3-0.9,0.5-1.5,0.5c-0.6,0-1.1-0.1-1.5-0.4
		s-0.7-0.6-0.9-1.1c-0.2-0.5-0.3-1-0.3-1.5c0-0.6,0.1-1.1,0.3-1.6c0.2-0.4,0.6-0.8,1-1c0.4-0.2,0.9-0.3,1.4-0.3
		c0.6,0,1.1,0.1,1.4,0.4s0.7,0.7,0.8,1.2l-0.7,0.2c-0.1-0.4-0.3-0.7-0.6-0.9c-0.3-0.2-0.6-0.3-1-0.3c-0.4,0-0.8,0.1-1.1,0.3
		c-0.3,0.2-0.5,0.5-0.6,0.8c-0.1,0.4-0.2,0.7-0.2,1.1c0,0.5,0.1,0.9,0.2,1.3c0.1,0.4,0.4,0.6,0.7,0.8c0.3,0.2,0.6,0.3,1,0.3
		c0.4,0,0.8-0.1,1.1-0.4C90.3,94,90.5,93.7,90.6,93.2z"/>
	<path class="st2" d="M92.3,95.2v-5.7h0.8v2.4h3v-2.4h0.8v5.7h-0.8v-2.7h-3v2.7H92.3z"/>
	<path class="st2" d="M98.2,95.2v-5.7H99v5.7H98.2z"/>
</g>
</svg>
