<?xml version="1.0" encoding="utf-8"?>
<!-- Generator: Adobe Illustrator 21.0.0, SVG Export Plug-In . SVG Version: 6.00 Build 0)  -->
<svg version="1.1" id="Layer_1" xmlns="http://www.w3.org/2000/svg" xmlns:xlink="http://www.w3.org/1999/xlink" x="0px" y="0px"
	 viewBox="0 0 150 100" style="enable-background:new 0 0 150 100;" xml:space="preserve">
<style type="text/css">
	.st0{fill:#050505;}
	.st1{fill:#FCFCFC;}
	.st2{opacity:0.4;fill:#6D2323;enable-background:new    ;}
	.st3{fill:none;}
	.st4{fill:none;stroke:#FCFAFB;stroke-miterlimit:10;}
	.st5{fill:#FCFAFB;}
	.st6{fill:#FFFFFF;}
</style>
<rect class="st0" width="150" height="100"/>
<g>
	<g>
		<path class="st1" d="M25.7,63.9L25.7,63.9c0.1,0.3,0.3,0.5,0.4,0.7c0.3,0.7,0.5,1.2,0.8,1.9c0.3,0.5,0.4,1.1,0.7,1.6l0.1,0.1
			c0.3,0,0.5,0,0.7,0c0.4,0,0.4-0.1,0.4-0.4c0-0.8,0-1.6,0-2.4c0-0.5,0-1.1,0-1.6c0-0.3,0-0.7,0-1.1c0-0.5,0-1.1,0-1.6
			c0-0.9,0-1.9,0-2.8c0-0.4,0.1-0.7,0.4-0.8c0.4-0.3,0.8-0.3,1.2-0.4c0.3,0,0.7,0,0.9,0l0.1-0.1c0-0.4,0-0.8,0-1.1
			c0-0.1-0.1-0.3-0.3-0.3c-0.7,0-1.3,0-2,0c-0.9,0-1.9,0-2.8,0c-0.8,0-1.7,0-2.5,0c-1.1,0-2,0-2.9,0c-0.3,0-0.5,0.1-0.4,0.4
			c0,0.3,0,0.7,0,0.9c0,0.3,0.1,0.3,0.3,0.3c0.7,0,1.5,0,2.1,0c0.5,0,1.1,0.4,1.1,0.8s0.1,0.7,0,1.1c-0.1,0.9,0,1.9-0.1,2.8
			c-0.1,0.4-0.1,0.8-0.3,1.2c-0.1,0.7-0.5,1.2-0.9,1.7s-0.9,0.9-1.5,1.3c-0.7,0.4-1.2,0.5-2,0.5c-0.4,0-0.9,0-1.3-0.1
			c-0.4,0-0.8-0.1-1.1-0.4c-0.8-0.4-1.3-0.9-1.9-1.6c-0.4-0.5-0.7-1.1-0.8-1.7c0-0.1-0.1-0.4-0.1-0.7c-0.3-0.5-0.4-1.2-0.4-1.9
			c-0.1-0.8-0.1-1.7-0.3-2.5c0-1.3-0.1-2.7-0.1-4.1c0-0.4,0-0.8,0-1.2c0-0.8,0.1-1.7,0.1-2.5c0.1-0.9,0.3-1.9,0.5-2.8
			c0.3-0.9,0.7-1.9,1.2-2.7c0.4-0.7,1.1-1.3,1.7-1.7c0.7-0.4,1.3-0.7,2.1-0.8c0.5,0,1.1,0,1.6,0.1c0.8,0.1,1.6,0.5,2.1,1.1
			c0.5,0.5,1.1,1.1,1.5,1.6c0.3,0.4,0.5,0.7,0.7,1.1c0.1,0.4,0.4,0.7,0.5,1.1c0.1,0.5,0.4,1.1,0.5,1.6c0.1,0.7,0.4,1.3,0.5,2
			c0,0.1,0.1,0.1,0.3,0.1c0.3,0,0.5,0,0.8,0c0.1,0,0.3,0,0.3-0.1c0-0.3,0-0.5,0-0.7c0-0.7,0-1.3,0-2c0-0.9-0.1-1.7-0.1-2.7
			c0-1.5-0.1-2.8-0.1-4.3c0-0.5,0-0.7-0.7-0.7c-0.1,0-0.3,0-0.4,0s-0.1,0.1-0.3,0.1c-0.3,0.7-0.7,1.5-0.9,2.1
			c-0.1,0.3-0.3,0.3-0.4,0.1c-0.3-0.3-0.7-0.5-0.9-0.8c-0.8-0.4-2-0.9-3.5-1.1c-0.4,0-0.8-0.1-1.2-0.1s-0.8,0-1.2,0.1
			c-0.8,0.1-1.6,0.3-2.4,0.7c-0.9,0.4-1.7,0.9-2.5,1.5c-0.9,0.8-1.7,1.7-2.4,2.7c-0.7,0.8-1.1,1.9-1.5,2.8c-0.4,0.8-0.5,1.5-0.8,2.4
			C8.2,51,8.2,51.4,8,51.8c0.1,0.7,0,1.2,0,1.8c0,0.5,0,1.1,0,1.6s0,1.2,0,1.7c0,0.7,0.1,1.3,0.1,2c0,0.4,0.1,0.8,0.3,1.2
			c0.1,0.5,0.3,1.1,0.5,1.5C9,62,9.2,62.4,9.4,62.8c0.3,0.4,0.5,0.9,0.8,1.3c0.3,0.4,0.5,0.8,0.9,1.2c0.4,0.4,0.8,0.8,1.3,1.2
			c0.4,0.4,0.8,0.7,1.3,0.8c0.4,0.3,0.9,0.4,1.3,0.5c0.7,0.3,1.3,0.4,2.1,0.5c0.4,0,0.8,0.1,1.2,0.1c0.4,0,0.8,0,1.2-0.1
			c0.5-0.1,1.1-0.1,1.5-0.3c0.5-0.1,1.1-0.5,1.6-0.8c0.4-0.3,0.8-0.7,1.2-0.9c0.3-0.1,0.4-0.5,0.5-0.7c0.4-0.4,0.5-0.7,0.8-1.2
			C25.4,64.2,25.4,64.1,25.7,63.9z M139.5,49.3c0.1,0,0.1,0,0.3,0c0.5,0,0.5,0,0.5-0.5c0-0.3,0-0.5,0-0.8c0-0.8,0-1.5,0-2.3
			c0-0.5,0-0.9,0-1.5c0-0.4,0-0.9,0-1.3c0-0.5,0-0.9,0-1.5c0-0.4,0-0.7,0-1.1s0.1-0.5-0.5-0.5l0,0c-0.4,0-0.7,0.1-0.9,0.4
			c-0.4,0.5-0.7,1.2-1.1,1.7c-0.1,0.1-0.1,0.1-0.4,0c-0.3-0.1-0.4-0.4-0.7-0.5c-0.5-0.3-1.1-0.7-1.5-0.9c-0.5-0.3-1.1-0.5-1.6-0.7
			c-0.8-0.1-1.6-0.4-2.4-0.4c-0.7,0-1.3,0.1-2,0.3c-0.9,0.1-1.7,0.5-2.5,1.1c-0.5,0.4-0.9,0.8-1.3,1.2c-0.4,0.5-0.8,1.1-1.1,1.6
			c-0.4,0.8-0.8,1.7-0.8,2.7c-0.1,0.7-0.1,1.3-0.1,2c0,0.8,0,1.5,0.3,2.1c0.1,0.4,0.3,0.8,0.4,1.1c0.1,0.4,0.4,0.7,0.7,1.1
			c0.1,0.1,0.1,0.3,0.4,0.4c0.4,0.4,0.9,0.8,1.3,1.1s0.8,0.5,1.2,0.7c0.4,0.1,0.9,0.4,1.5,0.5c0.4,0.1,0.8,0.4,1.3,0.5
			c0.7,0.1,1.3,0.4,2,0.5c0.8,0.1,1.5,0.4,2.3,0.7c0.5,0.1,1.1,0.3,1.5,0.5c0.7,0.3,1.1,0.8,1.5,1.3c0.1,0.1,0.3,0.4,0.4,0.5
			c0.3,0.5,0.4,1.2,0.4,1.9c0,0.4,0,0.8-0.1,1.2c-0.1,0.7-0.5,1.2-0.8,1.7c-0.1,0.4-0.5,0.7-0.8,0.8c-0.4,0.3-0.8,0.5-1.2,0.7
			c-0.7,0.3-1.3,0.4-2,0.4c-0.9,0-2,0-2.9-0.3c-0.5-0.1-1.1-0.4-1.6-0.7c-0.4-0.3-0.8-0.5-1.2-0.9c-0.3-0.1-0.4-0.4-0.5-0.7
			c-0.4-0.4-0.7-0.9-0.9-1.3c-0.4-0.5-0.5-1.1-0.8-1.6s-0.4-1.1-0.5-1.7c-0.1-0.4-0.1-0.7-0.3-1.1c0-0.3-0.1-0.4-0.4-0.4
			c-0.1,0-0.4,0-0.5,0c-0.4,0-0.5,0.1-0.5,0.4c0,0.7,0,1.3,0,2c0,0.5,0,1.1,0,1.6c0,0.7,0,1.5,0,2.1c0,0.5,0,1.1,0,1.6
			c0,0.7,0,1.2,0,1.9c0,0.1,0,0.4,0.3,0.4s0.7,0,0.9,0c0,0,0.1,0,0.1-0.1c0.1-0.1,0.3-0.4,0.4-0.5c0-0.1,0.1-0.1,0.3-0.3
			c0.4-0.5,0.7-1.1,1.1-1.5c0,0,0.1,0,0.3,0c0.1,0,0.1,0.1,0.3,0.1c0.1,0.1,0.4,0.4,0.7,0.5c0.3,0.1,0.5,0.4,0.9,0.5
			c0.4,0.3,0.8,0.5,1.2,0.7c0.7,0.3,1.3,0.5,2,0.7c0.7,0.1,1.3,0.1,1.9,0.1c0.1,0,0.4,0,0.5,0c0.3,0,0.7-0.1,0.9-0.1
			c0.4,0,0.7-0.1,0.9-0.1c0.7-0.1,1.2-0.4,1.9-0.7c0.4-0.1,0.7-0.3,0.9-0.5c0.3-0.1,0.5-0.3,0.7-0.5c0.3-0.3,0.5-0.5,0.8-0.8
			c0.5-0.4,0.8-1.1,1.2-1.6c0.3-0.4,0.5-0.8,0.7-1.3c0-0.1,0-0.3,0.1-0.4c0.1-0.3,0.1-0.5,0.3-0.7c0-0.4,0-0.7,0-1.1
			c0-0.1,0-0.3,0-0.4c0.1-0.3,0-0.4,0-0.7c0-0.1,0-0.1,0-0.3c0-0.4,0-0.8,0-1.2s-0.1-0.8-0.3-1.3c0-0.1,0-0.3-0.1-0.4
			c-0.3-0.5-0.5-0.9-0.8-1.5c-0.1-0.1-0.1-0.4-0.4-0.4c-0.3-0.3-0.5-0.4-0.7-0.7c-0.4-0.3-0.7-0.5-1.1-0.8c-0.3-0.1-0.5-0.3-0.8-0.4
			c-0.4-0.1-0.7-0.4-0.9-0.4c-0.4-0.1-0.8-0.3-1.2-0.4c-0.7-0.1-1.2-0.4-1.9-0.5s-1.3-0.4-2-0.5c-0.5-0.1-1.2-0.4-1.7-0.5
			c-0.4-0.1-0.7-0.3-1.1-0.5c-0.1-0.1-0.4-0.3-0.5-0.4c-0.3-0.3-0.7-0.5-0.9-0.8c-0.4-0.4-0.7-0.9-0.7-1.5c0-0.5-0.3-1.1,0-1.7
			c0-0.1,0.1-0.1,0.1-0.3c0-0.4,0.1-0.8,0.4-1.2c0.3-0.5,0.5-1.1,1.1-1.3c0.3-0.1,0.5-0.4,0.8-0.7c0.7-0.4,1.3-0.5,2.1-0.5
			c0.4,0,0.8,0,1.2,0c0.5,0.1,1.1,0.3,1.6,0.4c0.3,0.1,0.5,0.4,0.8,0.5c0.7,0.4,1.2,0.8,1.6,1.3c0.5,0.5,0.8,1.1,1.3,1.6
			c0,0,0,0.1,0.1,0.1c0.1,0.3,0.1,0.5,0.3,0.8c0.1,0.4,0.4,0.7,0.5,1.1c0.1,0.5,0.4,1.2,0.5,1.7c0,0.1,0.1,0.3,0.4,0.3
			C139.2,49.3,139.4,49.3,139.5,49.3z M105.4,62.2c-0.1-0.1-0.1-0.1-0.3-0.3c-0.1-0.3-0.3-0.5-0.4-0.8c-0.1-0.4-0.3-0.8-0.5-1.2
			c-0.1-0.4-0.3-0.7-0.4-0.9c-0.1-0.4-0.4-0.7-0.5-1.1s-0.3-0.7-0.4-0.9c-0.1-0.3-0.3-0.5-0.4-0.8c-0.1-0.5-0.4-0.9-0.7-1.5
			c0-0.1,0-0.1-0.1-0.3c-0.3-0.4-0.4-0.9-0.5-1.3c0-0.3,0.4-0.8,0.7-0.8c0.4,0,0.8-0.1,1.3-0.1c0.1,0,0.3-0.1,0.3-0.3
			c0-0.4,0-0.8,0-1.1l-0.1-0.1c-0.1,0-0.4,0-0.7,0c-0.5,0-1.2,0-1.7,0c-0.8,0-1.6,0-2.4,0c-0.7,0-1.3,0-2.1,0c-0.5,0-1.1,0-1.6,0
			l-0.1,0.1c0,0.3,0,0.7,0,1.1c0,0.3,0.1,0.4,0.4,0.4c0.5,0,1.1,0.1,1.3,0.7c0.1,0.5,0.5,0.9,0.7,1.3c0.1,0.1,0.1,0.4,0.1,0.5
			c0.1,0.3,0.3,0.5,0.4,0.8s0.1,0.5,0.3,0.7c0.3,0.5,0.5,1.1,0.7,1.5c0.1,0.3,0.1,0.5,0.3,0.7c0.1,0.4,0.3,0.7,0.4,0.9
			c0.1,0.3,0.3,0.7,0.4,1.1c0.3,0.5,0.5,0.9,0.7,1.5c0.1,0.4,0.4,0.8,0.5,1.3c0.3,0.5,0.5,1.1,0.7,1.5c0.1,0.4,0.4,0.9,0.5,1.3
			c0.1,0.3,0.3,0.5,0.4,0.8c0.1,0.4,0.3,0.7,0.1,1.1c-0.3,0.5-0.5,1.2-0.8,1.7c-0.1,0.4-0.4,0.7-0.5,0.9c-0.3,0.4-0.5,0.8-0.8,1.2
			c-0.3,0.3-0.5,0.5-0.7,0.8c-0.1,0.3-0.5,0.5-0.8,0.5c-0.5,0.1-0.7-0.1-0.7-0.7c0-0.4,0.1-0.8,0.1-1.3c0-0.8-0.4-1.3-1.1-1.7
			c-0.9-0.4-2-0.2-2.4,0.6c-0.1,0.3-0.3,0.5-0.4,0.8c-0.1,0.5,0,1.1,0.1,1.6c0.1,0.7,0.5,1.1,1.1,1.5c0.4,0.4,0.9,0.5,1.5,0.7
			c0.3,0,0.5,0,0.8,0s0.5,0,0.7,0c0.5-0.1,1.1-0.4,1.5-0.7c0.5-0.4,0.9-0.7,1.2-1.2c0.1-0.3,0.5-0.5,0.7-0.9
			c0.3-0.4,0.4-0.8,0.7-1.2c0.3-0.4,0.5-0.8,0.7-1.3c0.1-0.4,0.4-0.8,0.5-1.2c0.1-0.3,0.3-0.5,0.4-0.8c0.1-0.4,0.3-0.8,0.4-1.1
			c0.1-0.4,0.3-0.7,0.5-1.1c0-0.1,0-0.3,0.1-0.4c0.1-0.4,0.3-0.7,0.4-0.9c0.1-0.4,0.3-0.7,0.4-1.1c0.3-0.5,0.5-1.1,0.7-1.5
			c0.1-0.3,0.1-0.5,0.3-0.7c0.3-0.5,0.5-1.1,0.7-1.6c0.3-0.5,0.5-1.2,0.7-1.7v-0.1c0.1-0.1,0.1-0.4,0.3-0.5c0.1-0.3,0.1-0.5,0.3-0.8
			c0.1-0.4,0.4-0.7,0.5-0.9c0.1-0.3,0.3-0.7,0.4-1.1s0.4-0.7,0.5-0.9c0.3-0.3,0.5-0.5,0.9-0.7c0.3-0.1,0.5-0.1,0.7-0.1
			s0.4-0.1,0.3-0.4c0-0.3,0-0.5,0-0.8c0-0.4,0-0.4-0.4-0.4s-0.7,0-0.9,0c-0.7,0-1.2,0-1.9,0c-0.8,0-1.5,0-2.3,0c-0.3,0-0.5,0-0.8,0
			c-0.1,0-0.3,0.1-0.3,0.1c0,0.4,0,0.8,0,1.3l0.1,0.1c0.1,0,0.4,0,0.5,0s0.4,0.1,0.5,0.1s0.9,0.5,0.9,0.7c0.3,0.9,0,1.7-0.4,2.5
			c-0.1,0.3-0.3,0.5-0.4,0.8s-0.1,0.5-0.3,0.8c-0.3,0.7-0.7,1.5-0.9,2.1c-0.1,0.4-0.3,0.8-0.5,1.3C105.8,61,105.6,61.5,105.4,62.2z
			 M91.4,49.6C91.3,49.6,91.3,49.6,91.4,49.6c-0.4,0-0.8,0-0.9,0.1s-0.1,0.3-0.1,0.4c-0.1,0.3-0.4,0.4-0.5,0.7
			c-0.1,0.1-0.1,0.1-0.4,0c-0.4-0.3-0.8-0.5-1.3-0.8c-0.4-0.1-0.7-0.1-1.1-0.4c-0.4-0.3-0.7-0.1-1.1-0.1c-0.1,0-0.3,0-0.4,0
			c-0.4,0-0.7,0-0.9,0.1c-0.1,0-0.3,0-0.4,0c-0.3,0.1-0.5,0.3-0.9,0.3c-0.3,0-0.5,0.1-0.8,0.4c-0.3,0.1-0.4,0.3-0.5,0.4
			c-0.3,0.3-0.5,0.5-0.8,0.7c-0.1,0.3-0.4,0.5-0.5,0.7l-0.1,0.1c-0.1,0.4-0.3,0.7-0.4,0.9C80,53.3,80,53.6,79.8,54
			c0,0.1,0,0.4-0.1,0.7c0,0.1,0,0.3,0,0.4c0,0.5,0,1.1,0.1,1.5s0.1,0.8,0.3,1.2c0.1,0.4,0.4,0.7,0.5,1.1c0.4,0.5,0.8,0.9,1.3,1.3
			c0.5,0.3,1.1,0.7,1.6,0.7c0.3,0,0.4,0.1,0.7,0.3c0.3,0.1,0.7,0.1,0.9,0.1c0.8,0.3,1.7,0.4,2.5,0.7c0.4,0.1,0.7,0.3,1.1,0.4
			c0.5,0.3,0.8,0.7,0.8,1.2c0.1,0.7,0,1.2-0.4,1.7c-0.5,0.7-1.1,0.9-1.7,1.1c-0.5,0.1-1.1,0.1-1.6,0.1s-1.1-0.1-1.6-0.3
			c-0.3-0.1-0.5-0.4-0.8-0.5c-0.4-0.1-0.8-0.5-1.1-0.8c-0.4-0.4-0.7-0.8-0.9-1.3c-0.1-0.3-0.3-0.5-0.4-0.8s-0.1-0.5-0.4-0.8
			c0,0-0.1-0.1-0.3-0.1c-0.3,0-0.5,0-0.9,0c-0.1,0-0.1,0.1-0.1,0.3c0,0.4,0,0.8,0,1.2c0,1.1,0.1,2.1,0.1,3.1c0,0.5,0,0.9,0,1.5
			c0,0.4,0,0.4,0.4,0.4c0.1,0,0.4,0,0.5,0s0.3-0.1,0.3-0.1c0.3-0.4,0.5-0.7,0.8-1.1c0.1-0.3,0.1-0.3,0.5,0c0,0,0,0,0.1,0
			c0.1,0.1,0.3,0.1,0.4,0.3c0.1,0.1,0.4,0.3,0.5,0.4c0.4,0.1,0.7,0.3,1.1,0.4c0.5,0.1,0.9,0.3,1.5,0.3c0.5,0,1.1,0,1.6-0.1
			c0.5,0,0.9-0.1,1.3-0.4c0.4-0.1,0.8-0.4,1.2-0.7c0.4-0.3,0.7-0.7,1.1-1.1c0.1-0.1,0.4-0.3,0.4-0.5c0.3-0.5,0.5-1.1,0.7-1.6
			c0-0.3,0.3-0.7,0.1-0.9c0-0.5,0.1-1.1-0.1-1.6c-0.1-0.4-0.1-0.8-0.4-1.2c-0.1-0.7-0.5-1.2-0.9-1.6c-0.1-0.1-0.1-0.4-0.4-0.4
			c-0.4-0.3-0.7-0.5-1.1-0.7c-0.4-0.3-0.8-0.4-1.3-0.5c-0.4-0.1-0.8-0.1-1.2-0.3c-0.5-0.1-1.2-0.3-1.7-0.5c-0.1,0-0.3,0-0.5-0.1
			c-0.5-0.1-1.2-0.4-1.7-0.7c-0.5-0.1-0.8-0.5-0.9-1.1c-0.1-0.4-0.1-0.9,0-1.3c0.1-0.4,0.3-0.7,0.5-0.8c0.1-0.1,0.5-0.4,0.7-0.5
			c0.1-0.1,0.4-0.3,0.7-0.3c0.4,0,0.9-0.1,1.3-0.1s0.8,0,1.3,0.1s0.9,0.4,1.3,0.7c0.5,0.4,0.9,0.9,1.2,1.5c0.3,0.4,0.5,0.9,0.7,1.3
			c0.1,0.3,0.3,0.5,0.7,0.4c0.1,0,0.3,0,0.4,0c0.3,0,0.5-0.1,0.4-0.5c0-0.3,0-0.5-0.1-0.8c0-0.5,0-1.1,0-1.6c0-0.4,0-0.8-0.1-1.2
			C91.5,50.8,91.7,50.3,91.4,49.6z M71.9,52c0.5,0.3,0.9,0.7,1.3,1.2c0.3,0.4,0.5,0.7,0.7,1.1c0.1,0.4,0.4,0.7,0.5,1.1
			c0,0.1,0.3,0.4,0.4,0.4c0.3,0,0.7,0,0.9,0l0.1-0.1c0-0.1,0-0.4,0-0.7c0-0.7-0.1-1.5-0.1-2.1c0-0.3,0-0.7,0-0.9c0-0.5,0-1.1,0-1.6
			c0-0.3-0.1-0.4-0.4-0.4l0,0c-0.5-0.1-0.7,0-0.9,0.4c-0.1,0.3-0.4,0.5-0.7,0.8c0,0-0.1,0-0.3,0c0-0.1-0.1-0.3-0.3-0.3
			c-0.3-0.1-0.5-0.3-0.7-0.4c-0.1-0.1-0.4-0.1-0.5-0.3c-0.4-0.1-0.9-0.1-1.3-0.3c-0.1,0-0.4-0.1-0.7-0.1c-0.4,0-0.7,0-1.1,0.1
			S68,50,67.5,50.2c-0.1,0-0.4,0.3-0.5,0.3c-0.5,0.1-0.9,0.5-1.2,0.9c-0.1,0.3-0.4,0.5-0.5,0.8c-0.4,0.4-0.5,0.9-0.7,1.5
			c-0.1,0.3-0.1,0.5-0.1,0.8s-0.1,0.5-0.1,0.8c0,0.4,0,0.7,0.1,0.9c0,0.1,0.1,0.3,0.1,0.4c0,0.5,0.1,1.1,0.4,1.5
			c0.3,0.7,0.7,1.2,1.2,1.6c0.5,0.5,1.2,0.8,2,1.2c0.4,0.1,0.7,0.3,1.1,0.4s0.8,0.1,1.2,0.3c0.4,0.1,0.7,0.1,1.1,0.3
			c0.5,0.1,1.2,0.3,1.7,0.5c0.4,0.1,0.8,0.4,1.1,0.7c0.4,0.7,0.4,1.5,0,2.1c-0.1,0.4-0.4,0.7-0.8,0.8c-0.4,0.3-0.8,0.5-1.3,0.7
			c-0.5,0.1-1.1,0.1-1.5,0.1c-0.5,0-1.2-0.1-1.7-0.4c-0.4-0.1-0.8-0.4-1.2-0.8c-0.4-0.3-0.5-0.7-0.9-1.1c-0.5-0.4-0.7-1.1-0.9-1.6
			c-0.1-0.3-0.1-0.5-0.4-0.8c0-0.1-0.1-0.3-0.3-0.3c-0.3,0-0.5,0-0.8,0c-0.1,0-0.3,0.1-0.3,0.3s0,0.3,0,0.4c0,0.8,0.1,1.7,0.1,2.7
			c0,0.7,0,1.2,0,1.9c0,0.4,0,0.7,0,0.9c0,0.1,0.1,0.3,0.1,0.3c0.4,0,0.9,0.3,1.2-0.3c0.1-0.4,0.5-0.5,0.7-0.8s0.3-0.4,0.5,0
			c0.4,0.4,0.9,0.5,1.5,0.8c0.4,0.1,0.7,0.3,1.1,0.3c0.5,0.1,1.1,0.3,1.7,0.1c0.3,0,0.5,0,0.8,0s0.5,0,0.8-0.1
			c0.3,0,0.4-0.1,0.7-0.3c0.4-0.1,0.8-0.4,1.2-0.7c0.1-0.1,0.4-0.1,0.4-0.4c0.4-0.4,0.7-0.8,0.9-1.2c0.7-0.7,0.7-1.6,0.9-2.5
			c0.1-0.5,0.1-1.1-0.1-1.7c0-0.1,0-0.4,0-0.5c-0.1-0.3-0.1-0.5-0.3-0.8c-0.1-0.4-0.3-0.7-0.5-0.9c-0.3-0.4-0.5-0.7-0.8-1.1
			c-0.1-0.1-0.4-0.4-0.5-0.5h-0.1c-0.5-0.3-1.1-0.5-1.6-0.7l0,0c-0.3-0.1-0.5-0.1-0.8-0.3c-0.3-0.1-0.5-0.1-0.8-0.1
			c-0.4-0.1-0.7-0.3-1.1-0.3c-0.8-0.1-1.9-0.5-2.5-0.9l0,0c-0.1-0.1-0.3-0.1-0.3-0.3c-0.1-0.3-0.3-0.5-0.3-0.7c0-0.3-0.1-0.7,0-0.9
			c0.1-0.4,0.3-0.8,0.5-1.2c0.5-0.5,1.1-0.7,1.7-0.8c0.4,0,0.8,0,1.2,0c0.5,0,0.9,0.1,1.3,0.3c0.1,0,0.3,0.1,0.1,0.3c0,0,0,0,0,0.1
			C71.9,52,71.9,52,71.9,52z M35.9,61.9c0,0.8,0,1.7,0,2.5c0,0.4-0.1,0.8-0.4,1.1c-0.4,0.3-0.8,0.4-1.2,0.4c-0.1,0-0.3,0-0.4,0
			c-0.1,0-0.1,0-0.1,0.1c0,0.4,0,0.8,0,1.2c0,0.1,0,0.3,0.3,0.3c0.4,0,0.8,0,1.2,0c0.7,0,1.3,0,2,0c0.4,0,0.8,0,1.3,0s1.2,0,1.7,0
			c0.7,0,1.2,0,1.9,0c0.3,0,0.4-0.1,0.4-0.4c0-0.4,0-0.7,0-1.1c0-0.1-0.1-0.3-0.3-0.3c-0.1,0-0.4,0-0.5,0c-0.8,0-1.3-0.4-1.5-1.3
			c0-0.9,0-2,0-2.9c0-0.8,0-1.5,0-2.3c0-1.2,0-2.3,0-3.3c0-0.8,0-1.5,0-2.3c0-0.9,0-1.9,0-2.7s0-1.7,0-2.5c0-0.7,0-1.3,0-2
			c0-0.4,0-0.9,0-1.3c0-0.5,0-1.1,0-1.5s0-0.8,0-1.3s0-1.1,0-1.6c0-0.1,0-0.3-0.3-0.3s-0.5,0-0.7,0c-0.5,0-1.1,0-1.6,0.1
			c-0.7,0-1.3,0.1-2,0.1S34.6,41,33.9,41c-0.1,0-0.1,0.1-0.1,0.1c0,0.4,0,0.8,0,1.2c0,0.3,0.1,0.4,0.4,0.4c0.3,0,0.7,0,0.9,0
			c0.4,0,0.7,0.1,0.8,0.4c0.4,0.4,0.5,0.7,0.5,1.2s0,0.9,0,1.3c0,0.7,0,1.2,0,1.9s0,1.2,0,1.9c0,0.5,0,0.9,0,1.3c0,0.4,0,0.7,0,1.1
			c0,0.3,0.1,0.7-0.3,0.8c0,0.1,0.1,0.1,0.1,0.3c0,0.1,0,0.4,0,0.5c0,0.8,0,1.5,0,2.3c0,0.4,0,0.8,0,1.2c0,0.7,0,1.5,0,2.1
			 M120.2,43.9c0-0.3-0.1-0.7-0.1-0.9c-0.1-0.9-0.7-1.6-1.3-2.3c-0.5-0.5-1.2-0.8-2-0.8c-0.1,0-0.1,0-0.3,0S116.1,40,116,40
			c-0.7,0.1-1.2,0.7-1.5,1.2c-0.4,0.5-0.5,1.2-0.5,2c0,0.5,0.1,1.1,0.4,1.5s0.5,0.7,0.9,0.9c0.4,0.3,0.8,0.5,1.3,0.4
			c0.3,0,0.5,0,0.8-0.1c0.4,0,0.7,0.1,0.5,0.5c0,0.3,0,0.7-0.1,0.9c-0.3,0.5-0.5,1.1-1.1,1.6c-0.1,0.1-0.3,0.3-0.4,0.4
			s-0.1,0.3-0.4,0.4c-0.3,0.3-0.5,0.4-0.8,0.7c-0.1,0.1-0.4,0.3-0.5,0.4c-0.4,0.3-0.4,0.4-0.3,0.8c0,0.1,0.1,0.3,0.1,0.4
			c0,0.1,0.1,0.1,0.4,0.1c0.5-0.3,0.9-0.7,1.5-0.9c0.4-0.3,0.7-0.5,1.1-0.9s0.8-0.9,1.1-1.3c0.1-0.1,0.3-0.4,0.4-0.7
			c0.1-0.1,0.3-0.4,0.4-0.5c0.1-0.4,0.3-0.8,0.4-1.2s0.3-0.8,0.3-1.3C120.2,44.8,120.2,44.4,120.2,43.9z M60.7,56.2
			c-0.1-0.5-0.3-1.1-0.5-1.6c-0.1-0.5-0.5-0.9-0.7-1.3c-0.1-0.4-0.4-0.7-0.7-0.9c-0.4-0.4-0.7-0.7-1.1-0.9c-0.5-0.4-1.1-0.8-1.6-0.9
			c-0.4-0.1-0.9-0.4-1.3-0.5C54.4,50,54,50,53.6,49.8c-0.4,0-0.9,0-1.3,0s-0.8,0-1.2,0.1c-0.3,0-0.5,0.1-0.7,0.1
			c-0.3,0-0.5,0.1-0.8,0.3c-0.5,0.3-0.9,0.5-1.5,0.8c-0.1,0-0.3,0.1-0.3,0.1c-0.3,0.3-0.4,0.5-0.7,0.7c-0.4,0.4-0.8,0.8-1.2,1.3
			c-0.1,0.1-0.3,0.3-0.3,0.4c-0.1,0.4-0.4,0.8-0.5,1.3c0,0.1-0.1,0.3-0.1,0.4c-0.1,0.4-0.1,0.8-0.3,1.3c-0.1,0.4-0.1,0.8-0.3,1.2
			c-0.1,0.8-0.1,1.7,0,2.5c0,0.4,0.1,0.8,0.1,1.2c0.1,0.4,0.3,0.8,0.4,1.3c0.1,0.5,0.4,0.9,0.7,1.3c0.4,0.7,0.9,1.3,1.5,1.9
			c0.5,0.4,1.1,0.8,1.6,1.1c0.5,0.3,0.9,0.5,1.5,0.5c0.5,0.1,1.1,0.1,1.6,0.1s1.2,0,1.6,0c0.8-0.1,1.6-0.4,2.3-0.7
			c0.3-0.1,0.5-0.3,0.7-0.4c0.1-0.1,0.4-0.3,0.5-0.4c0.1,0,0.3,0,0.5-0.1c0,0,0.1-0.1,0.1-0.3c0.1-0.1,0.4-0.3,0.5-0.4
			c0.3-0.3,0.5-0.5,0.8-0.8c0.3-0.4,0.4-0.7,0.7-1.1s0.4-0.9,0.7-1.3c0.1-0.3,0.1-0.5,0.3-0.8c0-0.1,0.1-0.4,0.1-0.5
			c0-0.4,0.1-0.7,0.1-1.1v-2.4C61,57.2,60.9,56.6,60.7,56.2z M56.2,60c0,0.7,0,1.3-0.1,2s-0.3,1.2-0.4,1.9c-0.1,0.4-0.3,0.7-0.4,1.1
			c-0.3,0.5-0.7,0.9-1.1,1.3c-0.7,0.5-1.5,0.7-2.3,0.5c-0.7-0.1-1.3-0.5-1.7-1.2c-0.4-0.5-0.7-1.2-0.7-1.9c0-0.4-0.1-0.7-0.1-1.1
			c0-0.3,0-0.5,0-0.7c0-0.3-0.1-0.4-0.1-0.7c0-1.1,0-2,0-3.1c0-0.8,0.1-1.6,0.3-2.4c0-0.5,0.1-1.1,0.3-1.6c0-0.3,0.1-0.4,0.3-0.7
			c0.3-0.5,0.7-0.9,1.2-1.3c0.4-0.5,0.9-0.7,1.6-0.7c0.7,0,1.3,0.3,1.9,0.8c0.4,0.5,0.8,1.1,1.1,1.7c0.1,0.5,0.3,1.2,0.4,1.7
			c0.1,0.5,0,1.1,0.1,1.5c0,0.5,0,0.9,0,1.5c0,0.3,0,0.5,0,0.8C56.2,59.8,56.3,59.8,56.2,60z"/>
		<g>
			<path class="st1" d="M91.3,24.8c0,0.1,0,0.1,0,0.3s0,0.4,0,0.7c0,0.4,0,0.8,0,1.2l0,0c0,0-0.1,0-0.1-0.1S91,26.6,91,26.5v-0.1
				c0.1-0.4,0-0.7,0-0.9v-0.1c0-0.1-0.1-0.3-0.4-0.4c-0.1,0,0,0,0-0.1s0-0.3-0.1-0.3s-0.1-0.1-0.1-0.1c-0.1,0-0.1,0-0.1,0.1
				s-0.1,0.4,0,0.5c0,0,0,0.1,0,0.3c0.1,0.4,0.1,0.8,0.1,1.2c0,0.1-0.1,0.3,0,0.4c0,0.1,0,0.1,0,0.3c0,0.4-0.1,0.7-0.1,1.1
				c0,0.3-0.1,0.5-0.3,0.8c-0.1,0.1-0.1,0.3-0.1,0.4s-0.1,0.1-0.3,0.3c0,0.1-0.1,0.1-0.1,0.3c-0.1,0.3-0.4,0.5-0.7,0.7
				c-0.1,0.1-0.3,0.3-0.4,0.4c0,0-0.1,0.1-0.1,0v-0.1c0.1-0.1,0.1-0.3,0.1-0.4s0.1-0.3,0.1-0.4c0,0,0,0,0-0.1
				c0.1-0.4,0.4-0.7,0.5-1.1c0-0.1,0.1-0.3,0-0.4l0,0c0,0,0.1,0,0.1-0.1s0.1-0.4,0.1-0.5c0-0.3,0-0.5,0-0.8v-0.1
				c-0.1-0.1-0.1-0.1,0-0.4c0,0,0-0.1,0-0.3c0-0.3,0-0.5-0.1-0.8s-0.1-0.5-0.3-0.7c0-0.1,0-0.1-0.1-0.3c0,0,0,0,0-0.1
				c-0.1-0.4-0.4-0.5-0.5-0.8c0-0.1-0.1,0-0.1,0C88,23.9,88,24,88,24c0,0.3-0.1,0.5-0.1,0.7s-0.1,0.4-0.1,0.5c0,0.4-0.1,0.7-0.1,0.9
				s0,0.5,0,0.8c0,0,0,0.1-0.1,0.1c-0.1,0.1,0,0.3,0,0.4s0,0.4,0,0.7c0,0.1,0,0.3,0.1,0.4v0.1c-0.1,0.3-0.1,0.5-0.1,0.7
				c0,0.1,0,0.4,0,0.5s0,0.4,0.1,0.5c0,0.1,0,0.1,0.1,0.3c0,0.4,0.1,0.7,0.4,1.1c0,0,0,0.1,0.1,0.3c0,0,0.1,0.1,0,0.1
				c0,0-0.1,0-0.3,0L87.9,32c-0.3-0.3-0.5-0.5-0.7-0.8c-0.1-0.3-0.4-0.5-0.4-0.8c-0.1-0.3-0.1-0.5-0.1-0.7c0-0.1-0.1-0.4-0.1-0.5
				s0-0.4-0.1-0.5c0-0.1,0-0.4,0-0.5s0-0.4,0-0.5s0-0.4-0.1-0.7c0,0,0-0.1-0.1-0.1c0,0-0.1,0-0.1,0.1c0,0.3-0.1,0.5-0.1,0.7
				c0,0.3,0,0.5,0,0.9c0,0.3,0,0.5,0,0.8c0,0.4,0,0.8,0.1,1.2c0,0,0,0.1,0,0.3c0,0.3,0.3,0.5,0.3,0.8c0.1,0.3,0.3,0.4,0.4,0.7
				c0.1,0.1,0.3,0.4,0.4,0.5s0.1,0.1,0.3,0.3c0.1,0.1,0.3,0.3,0.4,0.3s0.1,0.1,0.3,0.3v0.1h-0.1c-0.1,0-0.3-0.1-0.4-0.1
				c-0.3,0-0.5-0.1-0.7-0.3s-0.4-0.3-0.7-0.1c-0.1,0-0.1,0-0.3,0H86c-0.3,0-0.5,0-0.7,0c-0.3,0-0.5,0-0.8,0c-0.1,0-0.4,0-0.5,0h-0.1
				c0-0.1-0.1-0.3-0.3-0.4c0-0.1-0.1-0.1-0.1-0.3s-0.1-0.4-0.3-0.5c-0.1-0.1-0.3-0.4-0.4-0.5c0-0.1-0.1-0.1-0.3-0.1c0,0,0,0,0-0.1
				s0-0.3-0.1-0.4s-0.1-0.3-0.3-0.4c-0.1-0.3-0.4-0.7-0.7-0.8c-0.1-0.1-0.3-0.4-0.4-0.5s0-0.3,0.1-0.3s0.4,0.1,0.5,0.1
				c0.4,0,0.8,0.1,1.2,0.3c0.1,0,0.4,0.1,0.5,0.1c0,0,0,0,0.1,0c0.1-0.1,0.3,0,0.4,0s0.4,0,0.5,0s0.1,0,0.3-0.1
				c0.4-0.1,0.5-0.5,0.5-0.8s0-0.5,0-0.7s0-0.4,0-0.5s0.1-0.3,0.3-0.5c0.1-0.3,0.5-0.4,0.5-0.7s0-0.5-0.4-0.8
				c-0.1-0.1-0.3-0.1-0.5-0.3l-0.1-0.1c0-0.1,0.1-0.3,0.3-0.3c0.1,0,0.1,0,0.1-0.1c0.1-0.1,0.5-0.3,0.7-0.4c0.1-0.1,0.1-0.3,0.4-0.3
				l0,0c0-0.1,0-0.3,0-0.5c-0.1-0.1-0.1-0.4-0.3-0.5c-0.1-0.3,0-0.5,0.4-0.7c0.1,0,0.3-0.1,0.4-0.3c0.3-0.1,0.5-0.4,0.7-0.5l0,0
				c0-0.1,0-0.4,0-0.5s-0.1-0.3-0.3-0.3c0,0-0.1,0-0.1-0.1s-0.1-0.4-0.3-0.4c-0.1,0-0.1-0.1-0.1-0.3s-0.1-0.1-0.3-0.3
				c-0.1,0-0.1-0.1-0.1-0.3l0,0c-0.1-0.1-0.1-0.3-0.4-0.4l0,0c-0.1,0-0.1,0-0.1-0.1s-0.1-0.3-0.3-0.4c-0.1-0.1-0.1-0.1-0.3-0.4
				C85,17.2,85,16.9,85,16.8c0-0.5,0-1.1,0-1.6c0-0.3,0-0.5,0-0.8c0-0.1,0-0.4,0-0.5s-0.1-0.3,0-0.4l0,0c-0.3-0.1-0.1-0.4-0.1-0.5
				c0-0.3,0-0.5-0.1-0.7c-0.1-0.1-0.1-0.4-0.3-0.7c-0.1-0.3-0.3-0.5-0.3-0.7c-0.1-0.3-0.3-0.5-0.5-0.8c-0.1-0.1-0.1-0.3-0.4-0.5
				c-0.1-0.1-0.1-0.3-0.4-0.4c-0.1-0.1-0.1-0.3-0.4-0.3c-0.3-0.1-0.5,0-0.7,0.3c-0.1,0.3,0,0.5-0.1,0.8s-0.1,0.7-0.1,0.9
				c0,0.3-0.1,0.5-0.1,0.8c0,0.4-0.1,0.7,0,1.1c0.1,0.1,0.1,0.3,0,0.4l0,0c0.1,0.1,0,0.4,0,0.5s0,0.4,0,0.5s0,0.3,0,0.4s0,0.4,0,0.7
				c0,0.1,0,0.4,0,0.5s0,0.3,0,0.5v0.1c0.1,0.3,0,0.5,0.1,0.7c0,0.3,0,0.5,0,0.8s0,0.7,0,0.9c0,0.4,0,0.8,0,1.2c0,0.5,0,1.2-0.1,1.7
				c0,0.1,0,0.4-0.1,0.5s0,0.3,0,0.4s0,0.1,0,0.3c-0.1,0.3-0.1,0.5-0.1,0.7c-0.1,0.3-0.3,0.7-0.4,0.9c-0.1,0.4-0.3,0.7-0.4,1.1
				s-0.4,0.7-0.5,1.1c-0.1,0.3-0.3,0.4-0.4,0.5c0,0.1-0.1,0.1-0.3,0.1c-0.1,0,0-0.1,0-0.1c0-0.1,0-0.4-0.3-0.4c0,0,0,0,0-0.1
				c-0.1-0.3-0.3-0.5-0.4-0.7c-0.1-0.3-0.3-0.5-0.4-0.8c0-0.1,0-0.1-0.1-0.1l0,0c0-0.3-0.1-0.5,0-0.8c0.1-0.1,0.1-0.4,0.1-0.5v-0.1
				c0-0.1,0-0.3,0-0.3s0,0,0-0.1s0-0.3,0-0.4s0.1-0.4,0.1-0.5s0-0.3,0-0.5s0.1-0.5,0.1-0.8c0.1-0.4,0.1-0.8,0.3-1.2
				c0-0.1,0-0.4,0.1-0.5c0.1-0.3,0.1-0.5,0.3-0.7c0-0.3,0.1-0.5,0.1-0.8c0-0.1,0-0.3,0.1-0.5c0.1-0.3,0.1-0.3,0.1-0.4
				c0-0.3,0-0.4,0.1-0.7v-0.1c0,0-0.1,0-0.1-0.1h0.1c0-0.1,0-0.3,0.1-0.3v-0.1c0.1-0.5,0.1-1.1,0.4-1.5c0.1-0.4,0.3-0.8,0.3-1.2
				c0,0,0,0.1-0.1,0v-0.1c0.3-0.3,0.4-0.5,0.4-0.9s0.1-0.7,0.1-0.9c0-0.1,0-0.3,0.1-0.4l0,0c0-0.3,0.1-0.5,0.1-0.7V9.9
				c-0.1-0.1,0-0.4,0.1-0.5c0,0,0.1-0.1,0-0.1c0-0.3,0.1-0.5,0.1-0.8c0-0.1,0-0.3,0.1-0.4c0,0,0.1,0,0.1-0.1c0.1,0,0.1,0,0.3-0.1
				c0.1-0.1,0.1,0,0.1,0s0,0.1,0.1,0.1s0.3,0.1,0.4,0.3c0,0.1,0.1,0,0.3,0.1c0.1,0.1,0.4,0.4,0.5,0.5L83.1,9
				c0.1,0.1,0.4,0.4,0.5,0.7s0.5,0.5,0.8,0.8c0.1,0.1,0.1,0.1,0.1,0.3c0.1,0.1,0.3,0.3,0.4,0.4c0.1,0.1,0.1,0.1,0.1,0.3
				c0.1,0.3,0.4,0.5,0.5,0.8v0.1c0.1,0.1,0.1,0.1,0.1,0.3c0.1,0,0.1,0.1,0.1,0.3c0,0.1,0,0.1,0.1,0.1c0.1,0.1,0.4,0.4,0.4,0.7
				c0,0,0,0.1,0.1,0.1c0.7-0.2,0.7,0,0.7,0.1c0.1,0.3,0.1,0.5,0.3,0.7v0.1c0,0.1,0.1,0.4,0.1,0.5s0,0.3,0.1,0.4v0.1
				c0,0.3,0.1,0.5,0.3,0.9c0,0.1,0,0.1,0.1,0.3c0.1,0.1,0.1,0.3,0.1,0.4s0.1,0.4,0.1,0.7c0,0.1,0,0.4,0.1,0.5v0.1
				c0.1,0.3,0.1,0.5,0.1,0.8c0,0.1,0.1,0.3,0.1,0.4s0.1,0.3,0.1,0.5l0,0c0.1,0.1,0.3,0.4,0.3,0.7c0,0.4,0.3,0.5,0.4,0.8
				c0.1,0.1,0.3,0.1,0.3,0.3c0.1,0,0.1,0.1,0.3,0.3c0.1,0.1,0.3,0.3,0.5,0.4c0.1,0,0.3,0.1,0.4,0.4c0,0,0,0.1,0.1,0.1
				c0.1,0.1,0.1,0.3,0.3,0.4c0,0.1,0,0.1,0.1,0.3c0,0,0,0,0,0.1C91.1,24,91.3,24.4,91.3,24.8z"/>
			<path class="st1" d="M87,35.8c0.1,0.5,0,0.9-0.1,1.3v0.1c-0.1,0-0.1,0.1-0.1,0.3c0,0.1,0,0.1-0.1,0.3c-0.1,0.3-0.4,0.5-0.7,0.7
				c-0.1,0-0.4,0-0.4,0.1l0,0c-0.3,0-0.5,0-0.7,0c-0.1,0-0.1,0-0.3,0l-0.1-0.1v-0.1c0-0.1,0-0.1,0.1-0.1l0,0
				c0.1-0.1,0.3-0.4,0.5-0.7c0,0,0,0,0-0.1c0-0.3,0-0.4,0.3-0.7c0,0,0.1-0.1,0.1-0.3s0.1-0.4,0.1-0.5c0.1-0.3,0.1-0.5,0.3-0.8
				c0-0.3,0-0.5,0-0.8c0-0.1,0-0.1,0.1-0.1s0.1,0,0.3,0.1c0,0.1,0.1,0.3,0.3,0.4c0.1,0.1,0.3,0.3,0.3,0.4s0.1,0.3,0.1,0.4
				C86.9,35.4,87,35.5,87,35.8z"/>
			<path class="st1" d="M79.1,33.1C79,33.4,79,33.6,79,33.9s0,0.7,0,0.9c0,0.1,0,0.3,0,0.4c0,0.4,0,0.7-0.1,1.1c0,0.1,0,0.3,0,0.4
				c-0.1,0.4-0.4,0.8-0.5,1.1c-0.1,0.1-0.3,0.4-0.3,0.5s-0.1,0.1-0.3,0.3c0,0.1-0.1,0.1-0.1,0.3l0,0c-0.3,0-0.4,0.4-0.5,0.4
				s-0.1,0.1-0.3,0.1h-0.1h-0.1v-0.1c0.1-0.1,0.3-0.4,0.5-0.5l0,0c0.1-0.3,0.4-0.5,0.4-0.8l0,0c0.4-0.4,0.4-0.8,0.5-1.3
				s0.1-0.9,0.3-1.3c0-0.1,0-0.4,0-0.5c0.1-0.1,0.1-0.4,0.1-0.7c0-0.4,0-0.7-0.1-1.1V33v-0.1c0,0-0.1,0-0.1,0.1
				c0,0.3-0.1,0.5-0.1,0.8c0,0.1,0,0.3,0,0.4l0,0c-0.3,0.1-0.1,0.4-0.3,0.7c-0.1,0.3-0.1,0.5-0.3,0.7c0,0.3-0.3,0.5-0.4,0.7
				c-0.1,0.3-0.3,0.5-0.4,0.8V37c-0.3,0-0.3,0.3-0.4,0.4c0,0,0,0.1-0.1,0.1c0,0-0.1,0-0.1,0.1c-0.1,0.1-0.3,0.3-0.4,0.4
				c-0.1,0.1-0.3,0.4-0.5,0.5c-0.3,0.1-0.5,0.3-0.8,0.4h-0.1v-0.1c0.1-0.3,0.3-0.4,0.4-0.5c0.1,0,0.1-0.1,0.1-0.3
				c0.1-0.1,0.4-0.3,0.5-0.5l0.1-0.1c0,0,0,0,0.1,0l0,0c0.1-0.3,0.4-0.5,0.5-0.8v-0.1c0.3-0.5,0.4-1.1,0.5-1.6v-0.1
				c0-0.1,0-0.3,0-0.4v-0.1c-0.1-0.1,0-0.4,0-0.5c0-0.5,0-1.1-0.1-1.5c-0.1-0.3-0.1-0.7-0.3-0.9c0,0,0-0.1-0.1-0.1c0,0,0,0-0.1,0
				c0-0.1-0.1-0.4-0.3-0.5c-0.1-0.1-0.1-0.4-0.4-0.7c-0.1-0.1-0.3-0.4-0.4-0.5c0,0,0-0.1-0.1-0.1c-0.1-0.1-0.1-0.3-0.4-0.3l-0.1-0.1
				C74,28.7,74,28.6,74,28.5c0-0.3,0.1-0.5,0.3-0.7c0.1-0.1,0.3-0.3,0.4-0.4s0.3-0.1,0.4-0.1c0.3,0,0.5,0,0.7,0s0.4,0,0.7,0.1
				s0.5,0.3,0.7,0.4c0.1,0.1,0.3,0.3,0.5,0.5l0.1,0.1c0.1,0.3,0.4,0.4,0.4,0.7c0,0.1,0.1,0.3,0.3,0.4c0.1,0.1,0.1,0.3,0.3,0.4
				l0.1,0.1c0,0,0.1,0.1,0.1,0.3c0.1,0.1,0.3,0.3,0.3,0.4s0.1,0.1,0.3,0.3c0.1,0.1,0.1,0.3,0.3,0.4c0.1,0.1,0.3,0.3,0.4,0.5
				c0,0.1,0.1,0.1,0.1,0.3l0,0c0.1,0,0.1,0.1,0.1,0.1c0.1,0.3,0.3,0.4,0.4,0.7c0.1,0.1,0.3,0.4,0.4,0.5c0,0.1,0.1,0.5,0,0.7
				c0,0.3-0.1,0.5-0.1,0.8c0,0.4,0,0.7,0,0.9c0,0.5,0.1,0.9,0.4,1.3c0,0.1,0.1,0.3,0.4,0.3c0.1,0,0.1,0,0,0.1v0.1
				c0.1,0.1,0.3,0.3,0.4,0.5c0,0,0,0,0.1,0s0.1,0.1,0.1,0.1c0,0.1,0,0.3-0.1,0.4c0,0-0.1,0-0.1,0.1c-0.1,0.1-0.1,0.1-0.3,0.1
				c-0.1,0-0.3,0.1-0.4,0.3c-0.1,0.1-0.4,0.3-0.5,0.4c-0.1,0.1-0.4,0.1-0.5,0.3c0,0.1-0.1,0.1-0.4,0.3s-0.5,0.3-0.8,0.4
				c0,0,0,0-0.1,0.1c0,0.1-0.1,0.1-0.1,0c-0.1,0-0.3,0-0.4,0.1l0,0c-0.1-0.1-0.3,0.1-0.4,0.1s-0.3,0-0.4,0.1c-0.5,0-0.9,0.1-1.5,0.1
				c-0.3,0-0.5,0-0.8,0h-0.1c0,0,0-0.1,0.1-0.1s0.1,0,0.3-0.1l0,0c0.1,0,0.4-0.1,0.5-0.1s0.3-0.1,0.4-0.1c0.3-0.1,0.4-0.3,0.7-0.4
				c0.4-0.3,0.7-0.7,0.9-1.1c0.1-0.1,0.3-0.4,0.3-0.5v-0.1v-0.1c0.1,0,0.1-0.1,0.1-0.3c0.1-0.3,0.1-0.5,0.1-0.8
				c0.1-0.4,0.1-0.7,0.1-1.2c0-0.4,0-0.8,0-1.3s-0.1-0.9-0.3-1.5C79.2,33.4,79.1,33.3,79.1,33.1z"/>
			<path class="st1" d="M73.1,10c0,0.3,0,0.4,0.1,0.7s0.1,0.5,0.3,0.7v0.1c0.1,0,0,0,0,0.1h-0.1c-0.1-0.1-0.1-0.1-0.3-0.1
				c0,0-0.1,0-0.1-0.1s-0.1-0.1-0.3-0.1c0,0-0.1,0-0.1-0.1c-0.1-0.1-0.3-0.1-0.4-0.3c-0.1,0-0.3-0.1-0.4-0.1s-0.4-0.1-0.5-0.1
				s-0.1-0.1-0.1-0.1c0,0.1,0,0.1,0,0.1l0,0c0,0.3,0.1,0.5,0.3,0.8c0,0.1,0,0.1-0.1,0.1s-0.3,0-0.4-0.1l-0.1-0.1
				c-0.3-0.1-0.5-0.4-0.7-0.7c-0.1-0.1-0.3-0.1-0.4-0.3c-0.3-0.3-0.5-0.5-0.8-0.8s-0.5-0.7-0.7-1.1C68.2,8.2,68,8,68,7.7
				c0-0.1-0.1-0.4,0-0.7c0-0.1,0-0.1,0.1-0.3c0.1-0.1,0.3-0.3,0.4-0.4C68.8,6,69,5.9,69.3,5.8c0,0,0-0.1,0,0c0.1,0.1,0.3,0,0.5,0
				c0.1,0,0.1,0,0.3-0.1c0,0,0.1-0.1,0.1,0c0,0,0.1,0,0.3,0c0.3-0.1,0.5-0.1,0.8-0.1c0.1,0,0.3,0,0.4,0l0,0c0.3,0.1,0.5,0,0.8,0l0,0
				c0.1-0.1,0.3,0,0.5,0c0.1,0,0.4,0,0.5,0c0.5,0,0.9,0,1.5,0.1c0.3,0,0.5,0.1,0.8,0c0.1,0,0.3,0,0.4,0s0.1,0,0.3,0.1c0,0,0,0,0.1,0
				c0.3-0.1,0.5,0.1,0.7,0l0,0c0.1,0.1,0.4,0,0.7,0.1C78.3,6,78.5,6,78.8,6.2c0.3,0,0.5,0.1,0.7,0.1s0.4,0,0.4,0.3
				c0,0.1,0,0.3,0,0.4l0,0c0,0.3-0.1,0.7-0.3,0.9c0,0.1,0,0.4-0.1,0.5s-0.1,0.4-0.1,0.5s0,0.4-0.1,0.4c0,0.1,0,0.1,0,0.1
				c0,0.1-0.1,0.3-0.1,0.4V10c0,0.1-0.1,0.1-0.1,0.3v0.1c0,0.4-0.1,0.7-0.3,0.8c-0.1,0.1-0.1,0.3-0.1,0.5v0.1
				c-0.1,0.1-0.1,0.3-0.1,0.5l0,0c-0.1,0.1-0.1,0.1-0.3,0.4c-0.1,0.3-0.1,0.7-0.4,0.9c-0.1,0.3-0.1,0.5-0.3,0.8v0.1
				c-0.1,0.1-0.1,0.4-0.1,0.5s-0.1,0.3-0.1,0.4h-0.1c-0.1-0.1-0.1-0.4-0.1-0.5s0-0.1,0-0.3l0,0c0,0-0.1,0-0.1-0.1s0-0.3,0-0.4
				s0-0.1-0.1-0.1h-0.1l0,0c0.1,0,0,0,0-0.1s-0.1-0.3-0.1-0.4l0,0c-0.1,0-0.1-0.1-0.1-0.3c0,0,0-0.1-0.1-0.1c0,0-0.1-0.1-0.1-0.3
				l0,0c-0.1-0.1-0.1-0.3-0.3-0.5c-0.1-0.1-0.3-0.4-0.5-0.5c0,0,0,0,0-0.1c-0.1-0.1-0.1-0.3-0.4-0.4c-0.1,0-0.1-0.3-0.4-0.4
				c-0.1-0.1-0.3-0.4-0.5-0.4C73.5,10.4,73.3,10.1,73.1,10L73.1,10C73.2,10.1,73.2,10.1,73.1,10z"/>
			<path class="st1" d="M78.5,12.8L78.5,12.8L78.5,12.8C78.4,12.8,78.4,12.8,78.5,12.8z"/>
			<path class="st1" d="M73.9,24.1c0,0.5,0,1.1-0.1,1.5s-0.3,0.8-0.5,1.2c0,0.1-0.1,0.1-0.1,0.3c0,0.3-0.1,0.5-0.3,0.7
				c-0.1,0.1-0.1,0.4-0.1,0.5c0,0.3-0.1,0.5-0.3,0.8c0,0.1-0.1,0.3-0.1,0.4v0.1c-0.1,0.1-0.3,0.3-0.3,0.5s-0.1,0.4-0.3,0.7
				c-0.1,0.1-0.1,0.4-0.1,0.5c0,0.3-0.1,0.4-0.3,0.5c-0.1,0.1-0.1,0.4-0.3,0.7l0,0C71,32.6,71,32.9,70.8,33v0.1
				c-0.1,0.1-0.3,0.4-0.4,0.7c0,0.1-0.1,0.1-0.3,0c-0.1-0.1-0.1-0.1-0.3-0.4c-0.3-0.3-0.4-0.7-0.7-0.8c-0.1-0.1-0.1-0.1-0.3-0.3
				c-0.1-0.3-0.5-0.4-0.7-0.5c-0.1-0.1-0.4-0.1-0.5-0.1c-0.3,0-0.5-0.1-0.8-0.1s-0.5,0-0.8,0c-0.1,0-0.1,0-0.3,0
				c-0.4,0-0.8,0.1-1.3,0.1c-0.1,0-0.1,0-0.3,0c-0.3,0-0.4,0-0.7,0c-0.1,0-0.3,0-0.5,0c-0.3-0.1-0.5-0.1-0.7-0.4c0,0,0,0-0.1,0l0,0
				c0.1-0.1-0.1-0.1-0.1-0.1c0-0.2,0-0.3,0-0.5s0-0.4,0-0.5s0-0.3,0-0.4l0,0c0.1-0.1,0.1-0.4,0.1-0.7s0-0.5,0-0.8
				c0-0.1,0-0.3-0.3-0.3c-0.1,0-0.1-0.1-0.3-0.1c-0.3-0.1-0.3-0.5-0.3-0.7c0-0.3-0.1-0.5-0.3-0.7c-0.1,0-0.1-0.3-0.1-0.4
				c0.1-0.3,0.1-0.5,0.3-0.7c0-0.1,0-0.3,0.1-0.4c0-0.4-0.1-0.7-0.5-0.7s-0.7-0.1-0.9-0.4c-0.1-0.1-0.1-0.4-0.1-0.7
				c0.1-0.4,0.4-0.7,0.4-0.9l0,0c0.1-0.1,0.3-0.4,0.3-0.5s0-0.3,0.3-0.3c0,0,0,0,0-0.1s0.1-0.4,0.1-0.5l0,0c0.3-0.1,0.1-0.5,0.4-0.7
				c0.1-0.1,0.1-0.4,0.3-0.5c0,0,0,0,0-0.1s0-0.4,0.1-0.4c0.1-0.1,0.1-0.3,0.1-0.4s0-0.3-0.1-0.4c0,0,0,0,0-0.1s0-0.3-0.1-0.4
				c0-0.1,0-0.4,0-0.7c0-0.1,0-0.4,0-0.5s0.1-0.1,0.1-0.3c0-0.1,0-0.4,0-0.5c0,0,0-0.1,0.1-0.1l0,0c0-0.1,0.1-0.3,0-0.4v-0.1
				c0.1-0.3,0.1-0.5,0.3-0.7c0.1-0.3,0.1-0.7,0.3-0.8v-0.1c0,0,0-0.1,0.1-0.1c0,0,0.1,0,0.1-0.1c0,0,0-0.1-0.1-0.1s-0.4,0-0.5,0.1
				l0,0c-0.3,0.1-0.4,0.3-0.7,0.4c0,0-0.1,0-0.1,0.1c-0.1,0.1-0.4,0.4-0.5,0.5s-0.3,0.3-0.5,0.4H60v-0.1c0,0,0-0.1,0.1,0l0,0
				c0.1-0.1,0.1-0.4,0.3-0.5v-0.1c0.3,0,0.3-0.1,0.3-0.3c0-0.1,0.1-0.3,0.4-0.4l0,0c0.1,0,0.1-0.1,0.1-0.3c0-0.1,0.3,0,0.3-0.3
				c0,0,0,0,0-0.1c0.1,0,0-0.1,0-0.3c0,0-0.1,0-0.3,0v0.1c-0.3,0-0.5,0.1-0.7,0.3c-0.3,0.1-0.5,0.3-0.8,0.5c0,0,0,0-0.1,0l0,0
				c0,0,0,0,0.1-0.1s0.3-0.1,0.3-0.4l0,0c0.3-0.1,0.3-0.4,0.5-0.5c0.1-0.1,0.3-0.3,0.5-0.4c0,0,0.1,0,0.1-0.1c0,0,0-0.1,0.1-0.1
				c0,0,0.1,0,0.1-0.1c0,0,0,0,0.1-0.1c0.3,0,0.4-0.1,0.4-0.4c-0.4-0.1-0.8,0-1.2,0c-0.1,0-0.3,0.1-0.4,0c0-0.1,0.1-0.1,0.3-0.1
				c0.1-0.1,0.4-0.1,0.5-0.3c0,0,0.1-0.1,0.3-0.1s0.4,0,0.4-0.1c0.1,0,0.1-0.1,0.3-0.1s0.1-0.1,0.3-0.1c0.1,0,0.1,0.1,0.3,0.1
				s0.1-0.1,0.1-0.1L62.6,10l0,0c-0.1,0-0.4-0.1-0.7,0c-0.1,0-0.1,0-0.3,0l0,0c0,0,0-0.1,0.1-0.1s0.4,0,0.5,0c0.3,0,0.4,0,0.7-0.1
				c0.1,0,0.1,0,0.3,0c0.1,0,0.4,0,0.5,0S64,9.7,64,9.5c0-0.1-0.1-0.1-0.1-0.1c-0.1,0-0.3,0-0.3-0.1c-0.1-0.1-0.3-0.1-0.4-0.1
				c0,0-0.1,0-0.1-0.1S63.2,9,63.2,9c0.1,0,0.4,0,0.5,0c0.3,0,0.4,0.1,0.7,0.1s0.5,0.1,0.8,0.1h0.1V9.1C65.2,9,65,8.8,64.9,8.7l0,0
				c-0.1,0-0.1-0.1-0.4-0.3c-0.1,0-0.3-0.1-0.4-0.3c0,0,0-0.1-0.1-0.1c0.1,0,0.1,0,0.3,0c0.1,0.1,0.4,0.1,0.5,0.1
				c0.3,0.1,0.4,0.1,0.7,0.3c0.1,0.1,0.4,0.1,0.7,0.3c0.1,0,0.3,0.1,0.4,0.1h0.1c0,0,0.1-0.1,0-0.1c0,0,0,0-0.1-0.1
				c0-0.3-0.1-0.5-0.4-0.7C66,7.6,66,7.6,66,7.5S65.6,7,65.5,6.8c0,0,0,0-0.1-0.1V6.6h0.1c0.3,0,0.4,0.1,0.5,0.3
				c0.3,0.1,0.4,0.4,0.7,0.5c0,0,0,0.1,0.1,0.1c0.1,0.3,0.3,0.5,0.5,0.8l0.1,0.1c0,0.3,0.1,0.4,0.3,0.7c0,0.1,0.1,0.4,0.3,0.5
				c0,0.3,0.1,0.4,0.3,0.7c0,0.1,0,0.3,0.1,0.4c0.1,0.1,0.3,0.4,0.3,0.5s0,0.1,0,0.3c0,0.1,0.1,0.1,0.1,0.3c0.1,0.3,0.3,0.5,0.4,0.8
				c0,0.1,0,0.1,0.1,0.3c0,0,0,0,0,0.1l0,0c0,0.3,0.1,0.5,0.3,0.7c0.1,0.3,0.1,0.5,0.3,0.8c0.1,0.1,0.1,0.4,0.3,0.5
				c0.1,0.1,0,0.3,0.1,0.4s0.1,0.3,0.1,0.4l0,0c0.1,0.1,0.1,0.3,0.1,0.4c0,0.3,0.1,0.4,0.3,0.7c0,0.1,0.1,0.1,0.1,0.3
				c0,0.3,0.1,0.4,0.3,0.7c0.1,0.3,0.3,0.5,0.3,0.7c0,0.1,0.1,0.3,0.1,0.4c0.1,0.1,0.1,0.4,0.3,0.5c0,0.1,0.1,0.3,0.1,0.4
				c0.1,0.1,0.1,0.3,0.1,0.4s0.1,0.4,0.3,0.5c0.1,0.1,0.1,0.3,0.1,0.4c0,0.3,0.1,0.4,0.3,0.7c0,0.1,0.1,0.1,0.1,0.4
				c0,0.1,0.1,0.4,0.3,0.5c0.1,0.1,0.1,0.4,0.3,0.7c0,0.1,0.1,0.3,0.1,0.4c0.1,0.1,0.1,0.3,0.1,0.4C73.9,24,73.9,24.1,73.9,24.1z"/>
		</g>
		<path class="st1" d="M78.4,12.8L78.4,12.8c0.1,0,0.1,0,0.2,0h0.1c0-0.1,0-0.1,0.1-0.1c0,0,0,0,0-0.1s0-0.1,0-0.3
			c0,0,0.1-0.1,0-0.1c0,0,0,0,0-0.1c0.1-0.1,0.1-0.3,0.3-0.4c0.1-0.1,0-0.4,0.1-0.5c0-0.1,0.1-0.3,0.1-0.4s0-0.1,0.1-0.3
			c0.1-0.1,0.1-0.3,0.1-0.4c0.1-0.3,0.1-0.5,0.3-0.9c0,0,0-0.1,0.1-0.1C80,9,80,9,80,8.8c0,0,0,0,0-0.1l0,0c0,0.1,0,0.4,0,0.5
			s0,0.1-0.1,0.3c-0.1,0.3-0.1,0.5,0,0.7l0,0c-0.3,0.3,0,0.5-0.3,0.8c0,0,0,0.1,0,0.3c0,0.1-0.1,0.4-0.1,0.7c0,0.1,0,0.1,0.1,0
			c-0.1,0.1-0.1,0.4-0.3,0.5c0,0.1,0,0.3-0.1,0.4V13c0,0.3-0.1,0.5-0.1,0.7s0,0.3-0.1,0.4c0,0.1,0,0.3,0,0.4s0,0.4-0.1,0.5l0,0
			c0,0.1,0,0.3,0,0.4l0,0c0,0.1,0,0.1-0.1,0.3c0,0.1,0,0.3,0,0.4c0,0.1,0,0.3,0,0.4c-0.1,0.1-0.1,0.4-0.1,0.5s-0.1,0.3-0.1,0.5
			c0,0.1,0,0.1,0,0.4c0,0.1,0,0.1,0,0.3v0.1c0,0.3,0,0.5-0.3,0.8c0,0.1,0.1,0,0,0.1c-0.1,0-0.1,0.1-0.1,0.3c0,0.1,0,0.3,0,0.4
			s-0.1,0.1,0,0.3l0,0c-0.1,0.1-0.1,0.4-0.1,0.5C78,20.6,78,21,78,21.2c0,0.1,0,0.3-0.1,0.4v0.1c0,0.1,0.1,0.3,0.1,0.3l0,0
			c-0.1,0.1-0.1,0.1-0.1,0.3c-0.1,0.1-0.1,0.4-0.1,0.7s0,0.5-0.1,0.7c-0.1,0.4,0,0.7,0.1,0.9c0.1,0.1,0.3,0.4,0.4,0.5
			c0,0.1,0,0.4,0.3,0.4c0,0,0.1,0,0.1,0.1c0,0.4,0.4,0.5,0.5,0.8c0,0.1,0.1,0.3,0.3,0.4c0,0,0,0.1,0.1,0.1V27
			c0.3,0.4,0.5,0.8,0.8,1.2s0.5,0.7,0.8,1.1c0.1,0.3,0.4,0.5,0.5,0.8c0.1,0.1,0.3,0.4,0.4,0.5c0,0,0,0.1,0.1,0.1
			c0.1,0.1,0.1,0.3,0.3,0.4c0,0.1,0,0.1,0.1,0.1l0,0c0,0.4,0.4,0.7,0.5,0.8l0,0c0,0.1,0.3,0.3,0.3,0.4l0,0c0,0.3,0.3,0.3,0.4,0.3
			s0.4,0,0.7,0c0.1,0,0.3,0,0.4,0s0.3,0,0.4,0c0,0,0,0,0.1,0c0.3-0.1,0.4,0,0.5,0H86l0,0c0,0,0,0,0.1,0.1c0,0,0.1,0.1,0.1,0l0,0
			c0.1,0.1,0.4,0.3,0.5,0.4c0.3,0.1,0.4,0.3,0.5,0.5c0,0.1,0.1,0.3,0.1,0.3c0.3,0.3,0.3,0.5,0.4,0.8C88,35,88,35.2,88,35.5
			c0,0.1,0,0.4,0,0.5c0,0.4,0,0.7-0.3,0.9c-0.1,0.1-0.1,0.1-0.1,0.3c-0.3,0.4-0.7,0.7-1.1,0.9h-0.1c-0.1,0-0.4,0-0.5,0.1
			c-0.1,0-0.3,0-0.4,0c-0.3,0-0.5,0-0.7-0.1c-0.3-0.1-0.4-0.3-0.7-0.4v-0.1l0.1-0.1l0,0c0,0.1,0.1,0.1,0.3,0.1c0.1,0,0.1,0,0.1,0
			c0,0.1,0.1,0.1,0.3,0.1l0,0c0.1,0,0.1,0.1,0.1,0.1c0.1,0,0.1,0.1,0.3,0c0.3,0,0.5,0,0.7,0l0,0c0.1-0.1,0.3-0.1,0.4-0.1
			c0.3-0.1,0.5-0.4,0.7-0.7c0-0.1,0.1-0.1,0.1-0.3s0-0.3,0.1-0.3c0,0,0,0,0-0.1c0-0.4,0.1-0.9,0.1-1.3c0-0.1-0.1-0.3-0.1-0.4
			s-0.5,0.5-0.5,0.4s-0.1-0.4-0.3-0.4c-0.1-0.1-0.1-0.1-0.3-0.4c0-0.1-0.1-0.1-0.3-0.1c-0.1,0-0.1,0.1-0.1,0.1c0,0.3,0,0.5,0,0.8
			s-0.1,0.5-0.3,0.8c0,0.1-0.1,0.3-0.1,0.5c0,0.1,0,0.1-0.1,0.3c-0.1,0.1-0.1,0.4-0.3,0.7c0,0,0,0,0,0.1c-0.1,0.1-0.3,0.4-0.5,0.7
			l0,0c-0.1,0-0.1,0.1-0.1,0.1c-0.3-0.3-0.5-0.5-0.8-0.8c-0.1-0.3-0.3-0.5-0.4-0.7v-0.1c0-0.1,0-0.4,0-0.5s0-0.4,0-0.7
			c0-0.1,0-0.4,0.1-0.5c0.1-0.4,0.4-0.7,0.8-0.8c0.1,0,0.3-0.1,0.1-0.4c0.1,0,0.1,0,0.1,0c0.1,0.1,0.1,0.1,0.3,0c0,0,0,0,0.1,0
			c0,0,0,0,0.1,0s0.3-0.1,0.3-0.3c0,0,0,0-0.1,0s-0.4,0-0.7,0s-0.4,0-0.7,0c0,0,0,0-0.1,0c-0.1,0.1-0.4,0.3-0.5,0.3
			s-0.1,0.3-0.4,0.4c-0.1,0.1-0.3,0.4-0.3,0.5s0,0.1-0.1,0.3c-0.1,0.1-0.1,0.1-0.1,0.4c0.1,0.3,0,0.5,0,0.8c0,0.1,0,0.3,0.1,0.4
			c0.1,0.1,0.1,0.4,0.3,0.7c0,0.1,0.1,0.1,0.1,0.1c0.1,0.1,0.1,0.3,0.1,0.4c-0.1-0.1-0.1-0.1-0.1-0.3s-0.1-0.1-0.1-0.3
			c-0.1-0.1-0.3-0.3-0.3-0.5c0-0.1,0-0.1-0.1-0.3v-0.1c0-0.4,0-0.7,0-0.9c0-0.3,0.1-0.7,0.1-0.9c0-0.1,0.1-0.1,0-0.3V34
			c0-0.1,0.1-0.4-0.1-0.5c0,0-0.1-0.1-0.1-0.3c0-0.3-0.1-0.4-0.4-0.7c-0.1-0.1-0.3-0.4-0.4-0.5s-0.1-0.1-0.3-0.4
			c-0.1-0.3-0.3-0.4-0.5-0.7c-0.1-0.1-0.1-0.1-0.1-0.3c-0.3-0.3-0.4-0.5-0.5-0.8c-0.1-0.1-0.3-0.3-0.3-0.4s-0.1-0.1-0.1-0.3
			c0,0,0,0,0-0.1c-0.1-0.3-0.3-0.4-0.4-0.5v-0.1c0-0.1-0.1-0.3-0.3-0.4l0,0c-0.1-0.1-0.3-0.4-0.4-0.5s-0.1-0.4-0.4-0.4
			c-0.1,0-0.1-0.1-0.3-0.1l-0.1-0.1c-0.3-0.1-0.5-0.1-0.8-0.3h-0.1c-0.3,0-0.5,0-0.7,0h-0.1c0,0-0.1,0-0.1,0.1
			c-0.4,0.1-0.8,0.4-0.9,0.8c0,0.1-0.1,0.3-0.3,0.4c-0.1,0-0.1,0.1-0.1,0.3s-0.1,0.3-0.3,0.5c0,0,0,0.1-0.1,0.1
			c0,0.1-0.1,0.4-0.3,0.5c-0.1,0.1-0.1,0.4-0.1,0.5c-0.1,0.3-0.3,0.7-0.4,0.9c0,0.1-0.1,0.1-0.1,0.3c0,0.1,0,0.1,0,0.3
			c-0.1,0.1-0.1,0.3-0.3,0.5c0,0,0,0.1-0.1,0.1c0,0.4-0.3,0.5-0.4,0.8s-0.3,0.5-0.4,0.8c-0.1,0.4-0.1,0.8-0.1,1.3
			c0,0.1,0.1,0.4,0.1,0.5s0.1,0.3,0.1,0.4c0,0,0,0.1,0.1,0.1h0.1c0,0.3,0,0.5,0.1,0.8V37v0.1c0,0.4,0,0.7-0.3,0.9c0,0,0,0,0,0.1
			s-0.1,0.4-0.3,0.4l0,0c-0.1,0.1-0.1,0.3-0.1,0.4c-0.1,0.1-0.3,0.4-0.5,0.5c-0.1,0.1-0.1,0.4-0.4,0.4c-0.1,0.1-0.4,0.3-0.7,0.3
			c-0.1,0-0.3,0-0.4,0.1h-0.1c-0.1,0-0.3,0-0.4,0c-0.3,0-0.5,0.1-0.7,0.4c-0.1,0.3-0.1,0.4-0.4,0.7c-0.1,0.3-0.3,0.5-0.4,0.7
			c-0.1,0.1-0.1,0.3-0.3,0.5c-0.1,0.1-0.3,0.1-0.4,0.1c0,0-0.1,0-0.1-0.1s0-0.3,0-0.5c0.1-0.3,0.4-0.5,0.5-0.8
			c0.1-0.1,0.1-0.3,0.3-0.3c0.1-0.1,0.3-0.1,0.3-0.4c0,0,0-0.1,0.1-0.1c0.1-0.1,0.1-0.4,0.1-0.5c0,0,0-0.1-0.1-0.1s-0.1-0.1-0.3-0.3
			c0-0.1-0.1-0.1-0.3-0.3c-0.7,0.1-0.7,0-0.7-0.1c0-0.3,0-0.5-0.1-0.8c0-0.1,0-0.4,0-0.5c0-0.4,0-0.7,0.3-0.9
			c0.3-0.4,0.5-0.8,0.8-1.2c0.3-0.3,0.5-0.5,0.9-0.5c0.3-0.1,0.5-0.3,0.9-0.1c0.1,0,0.3-0.1,0.5-0.1c0.1,0,0.1-0.1,0.1-0.1
			c0-0.1,0.1-0.1,0.1,0h0.1c0,0,0-0.1,0.1-0.1c0.1-0.1,0.1-0.3,0.3-0.4c0.1,0,0.1-0.1,0-0.3V34c0.1,0,0.1,0,0.1-0.1
			c0-0.3,0.1-0.4,0.3-0.7v-0.1c0.1,0,0.1,0,0.1-0.1v-0.1c0-0.1,0-0.1,0-0.1s-0.1,0,0-0.1h0.1l0,0c0.1-0.3,0.3-0.5,0.4-0.8
			c0-0.1,0.1-0.1,0.1-0.3l0,0c0.3,0,0.1-0.1,0.1-0.3s0.1-0.4,0.3-0.5c0.1-0.1,0.1-0.3,0.1-0.4s0.1-0.4,0.3-0.4
			c0.1-0.1,0.1-0.3,0.1-0.4s0.1-0.3,0.1-0.4v-0.1c0.1-0.1,0.3-0.4,0.3-0.7v-0.1c0,0,0,0,0-0.1c0.1-0.1,0.1-0.4,0.3-0.5
			c0.1-0.1,0.1-0.3,0.1-0.4c0-0.3,0.3-0.4,0.3-0.5v-0.1l0,0c0.1,0,0.1-0.3,0.1-0.4C74,26.2,74,26.2,74,26s0.1-0.3,0-0.5
			c0-0.1,0-0.4,0-0.5s0-0.1-0.1-0.1l0,0l0,0c0-0.1,0-0.1,0-0.3c-0.1,0-0.1-0.1-0.1-0.3c0-0.3-0.1-0.4-0.3-0.5
			c-0.1-0.3-0.1-0.5-0.4-0.8v-0.1c-0.1-0.3-0.3-0.5-0.3-0.8c0-0.1-0.1-0.4-0.3-0.5c-0.1-0.1-0.1-0.3-0.1-0.4s-0.1-0.1-0.1-0.3
			c-0.1-0.1-0.1-0.1-0.1-0.4c0-0.1-0.1-0.4-0.3-0.5l-0.1-0.1c0-0.1-0.1-0.4-0.1-0.5c0,0,0-0.1-0.1-0.1c-0.1-0.1-0.3-0.4-0.3-0.7
			c0-0.1-0.1-0.3-0.1-0.4c-0.1-0.1-0.1-0.4-0.3-0.5c-0.1-0.1-0.1-0.4-0.1-0.5c-0.1-0.1-0.3-0.4-0.3-0.5s-0.1-0.3-0.3-0.4
			c-0.1-0.1-0.1-0.4-0.3-0.7c0-0.1-0.1-0.1-0.1-0.3c0.2-0.8,0.2-0.9,0.2-1s0-0.1,0-0.3c0,0,0-0.1-0.1-0.1v-0.1c-0.1,0-0.1,0-0.1,0
			l0,0c0-0.3,0-0.4-0.1-0.7s-0.3-0.5-0.3-0.7c0-0.3-0.3-0.5-0.4-0.8v-0.1c0-0.1,0-0.1-0.1-0.3c0,0-0.1-0.1-0.1-0.3
			c0.1,0,0.1,0,0.1,0.1c0.1,0.1,0.3,0.4,0.4,0.7c0,0.1,0.1,0.3,0.3,0.4c0,0,0,0,0,0.1c0,0.3,0.1,0.5,0.4,0.8
			c0.1,0.1,0.1,0.4,0.4,0.5c0.1,0.1,0.1,0.3,0.1,0.4s0,0.3,0.1,0.3c0,0.1,0.1,0.3,0.1,0.4s0,0.4,0.3,0.4l0,0
			c0.1,0.4,0.4,0.7,0.7,1.1c0.1,0.1,0.3,0.4,0.3,0.5s0,0.1,0.1,0.1s0.1,0.1,0.1,0.3c0,0,0,0.1,0.1,0.1l0,0c0,0.1,0,0.1,0,0.3
			c0.1,0.1,0.1,0.3,0.3,0.4c0,0.1,0.1,0.3,0.3,0.4c0.1,0.4,0.4,0.7,0.7,1.1c0.1,0.3,0.3,0.4,0.4,0.7c0.1,0.3,0.3,0.4,0.4,0.7
			c0.3,0.4,0.4,0.7,0.5,0.9c0.1,0.1,0.1,0.4,0.4,0.5c0.1,0,0.1,0.1,0.3,0.1c0.1,0,0.1,0,0.1-0.1c0.1-0.3,0.3-0.5,0.3-0.8
			c0.1-0.4,0.4-0.7,0.4-1.1v-0.1c0-0.3,0.1-0.5,0.3-0.8c0.1-0.1,0-0.4,0.1-0.5l0,0c0.1-0.1,0.1-0.5,0.3-0.7c0-0.1,0.1-0.1,0.1-0.4
			c0-0.1,0.1-0.3,0.1-0.4c0.1-0.3,0.1-0.5,0.3-0.8v-0.1c0.3-0.1,0.1-0.5,0.3-0.7c0-0.1,0-0.1,0.1-0.3c0.1-0.3,0.1-0.5,0.3-0.8
			c0-0.3,0.1-0.4,0.3-0.7c0.1-0.1,0.1-0.4,0.1-0.5c0,0,0-0.1-0.1-0.1C78.4,12.8,78.4,12.8,78.4,12.8L78.4,12.8"/>
	</g>
	<circle class="st1" cx="75.7" cy="24.5" r="0.8"/>
</g>
<rect y="86" class="st2" width="150" height="14"/>
<rect x="42.9" y="89.2" class="st3" width="63.4" height="8.7"/>
<g>
	<path class="st4" d="M145.5,84.9c-0.5,0.8-0.5,1.5-0.1,2.2c0.3,0.5,0.4,1,0.6,1.5c0.3,0.9,0.2,1.4-0.7,1.8c-0.7,0.4-1.4,0.7-2,1.1
		c-0.3,0.2-0.5,0.5-0.6,0.8c-0.2,0.8-0.3,1.5-0.4,2.3c-0.2,0.9-0.6,1.3-1.5,1.2c-0.8-0.1-1.5-0.3-2.3-0.3c-0.3,0-0.7,0.1-0.9,0.3
		c-0.6,0.5-1.1,1.1-1.7,1.6c-0.6,0.6-1.2,0.6-1.9,0c-0.6-0.5-1.1-1.1-1.7-1.6c-0.2-0.2-0.6-0.3-0.9-0.3c-0.7,0.1-1.4,0.2-2.1,0.3
		c-1,0.1-1.6-0.3-1.8-1.3c-0.1-0.5-0.2-1.1-0.2-1.6c0-0.8-0.4-1.3-1.1-1.6c-0.4-0.2-0.8-0.4-1.3-0.6c-1.1-0.6-1.3-1.2-0.8-2.3
		c0.3-0.6,0.6-1.2,0.9-1.9c0.1-0.3,0.1-0.6,0-0.9c-0.3-0.7-0.7-1.3-1-2c-0.5-0.9-0.3-1.6,0.7-2.1c0.6-0.3,1.2-0.6,1.8-0.9
		c0.5-0.2,0.8-0.6,0.8-1.2c0.1-0.7,0.2-1.4,0.3-2.2c0.2-0.8,0.6-1.1,1.5-1.1c0.7,0.1,1.5,0.2,2.3,0.4c0.5,0.1,0.8,0,1.1-0.3
		c0.6-0.6,1.2-1.1,1.8-1.7c0.6-0.5,1.2-0.5,1.8,0c0.6,0.6,1.1,1.2,1.7,1.7c0.2,0.2,0.6,0.3,0.9,0.3c0.7-0.1,1.4-0.2,2.1-0.3
		c1.1-0.2,1.6,0.3,1.8,1.3c0,0.2,0.1,0.4,0.1,0.6c-0.1,1.6,0.7,2.5,2.1,2.9c0.2,0.1,0.5,0.2,0.7,0.4c0.7,0.4,1,1.1,0.6,1.9
		C146.1,83.9,145.9,84.5,145.5,84.9z"/>
	<g>
		<path class="st5" d="M132.2,84.1v0.7h-3.8c0-0.2,0-0.3,0.1-0.5c0.1-0.3,0.3-0.5,0.5-0.8s0.5-0.5,0.9-0.9c0.6-0.5,1-0.9,1.3-1.2
			s0.3-0.6,0.3-0.8c0-0.3-0.1-0.5-0.3-0.7s-0.5-0.3-0.8-0.3s-0.6,0.1-0.8,0.3s-0.3,0.5-0.3,0.8l-0.7-0.1c0-0.5,0.2-1,0.6-1.2
			s0.8-0.4,1.3-0.4s1,0.2,1.3,0.5s0.5,0.7,0.5,1.1c0,0.2,0,0.5-0.1,0.7s-0.2,0.5-0.5,0.7s-0.6,0.6-1.1,1c-0.4,0.4-0.7,0.6-0.8,0.7
			s-0.2,0.3-0.3,0.4C129.5,84.1,132.2,84.1,132.2,84.1z"/>
		<path class="st5" d="M132.6,81.9c0-0.7,0.1-1.2,0.2-1.6s0.3-0.7,0.6-1s0.6-0.3,1-0.3c0.3,0,0.6,0.1,0.8,0.2s0.4,0.3,0.6,0.5
			s0.3,0.5,0.4,0.9s0.1,0.8,0.1,1.4c0,0.7-0.1,1.2-0.2,1.6s-0.3,0.7-0.6,1s-0.6,0.3-1,0.3c-0.6,0-1-0.2-1.3-0.6
			C132.8,83.8,132.6,83,132.6,81.9z M133.4,81.9c0,0.9,0.1,1.6,0.3,1.9s0.5,0.5,0.8,0.5s0.6-0.2,0.8-0.5s0.3-0.9,0.3-1.9
			c0-0.9-0.1-1.6-0.3-1.9s-0.5-0.5-0.8-0.5s-0.6,0.1-0.8,0.4C133.5,80.3,133.4,81,133.4,81.9z"/>
		<path class="st5" d="M136.9,80.4c0-0.4,0.1-0.8,0.3-1s0.5-0.4,0.9-0.4s0.7,0.1,0.9,0.4s0.4,0.6,0.4,1.1s-0.1,0.9-0.4,1.1
			s-0.5,0.4-0.9,0.4c-0.3,0-0.6-0.1-0.9-0.4S136.9,80.9,136.9,80.4z M138.1,79.4c-0.2,0-0.3,0.1-0.4,0.2s-0.2,0.4-0.2,0.8
			s0.1,0.6,0.2,0.8s0.3,0.2,0.4,0.2c0.2,0,0.3-0.1,0.4-0.2s0.2-0.4,0.2-0.8s-0.1-0.6-0.2-0.8S138.3,79.4,138.1,79.4z M138.1,85
			l3.1-6h0.6l-3.1,6H138.1z M140.6,83.4c0-0.4,0.1-0.8,0.3-1s0.5-0.4,0.9-0.4s0.7,0.1,0.9,0.4s0.4,0.6,0.4,1.1s-0.1,0.9-0.4,1.1
			s-0.5,0.4-0.9,0.4c-0.3,0-0.6-0.1-0.9-0.4S140.6,83.9,140.6,83.4z M141.8,82.4c-0.2,0-0.3,0.1-0.4,0.2s-0.2,0.4-0.2,0.8
			s0.1,0.6,0.2,0.8s0.3,0.2,0.4,0.2c0.2,0,0.3-0.1,0.4-0.2s0.2-0.4,0.2-0.8s-0.1-0.6-0.2-0.8S142,82.4,141.8,82.4z"/>
		<path class="st5" d="M128.6,89c0-1,0.3-1.7,0.8-2.2s1.2-0.8,2-0.8c0.5,0,1,0.1,1.4,0.4s0.7,0.6,1,1.1s0.3,1,0.3,1.5
			c0,0.6-0.1,1.1-0.4,1.6s-0.6,0.8-1,1s-0.9,0.4-1.4,0.4s-1-0.1-1.4-0.4s-0.7-0.6-1-1.1S128.6,89.5,128.6,89z M129.3,89
			c0,0.7,0.2,1.2,0.6,1.6s0.8,0.6,1.4,0.6c0.6,0,1-0.2,1.4-0.6s0.6-1,0.6-1.7c0-0.5-0.1-0.9-0.2-1.2s-0.4-0.6-0.7-0.8
			s-0.6-0.3-1-0.3c-0.5,0-1,0.2-1.4,0.6S129.3,88.1,129.3,89z"/>
		<path class="st5" d="M134.7,91.7V86h3.9v0.7h-3.1v1.8h2.7v0.7h-2.7v2.6L134.7,91.7L134.7,91.7z"/>
		<path class="st5" d="M139.3,91.7V86h3.9v0.7h-3.1v1.8h2.7v0.7h-2.7v2.6L139.3,91.7L139.3,91.7z"/>
	</g>
</g>
<g>
	<path class="st6" d="M40.6,94.1l0.7-0.1c0,0.3,0.1,0.5,0.2,0.7s0.3,0.3,0.6,0.4s0.6,0.2,0.9,0.2c0.3,0,0.5,0,0.8-0.1
		s0.4-0.2,0.5-0.4c0.1-0.2,0.2-0.3,0.2-0.5c0-0.2-0.1-0.3-0.2-0.5c-0.1-0.1-0.3-0.2-0.5-0.3c-0.2-0.1-0.5-0.2-1-0.3
		c-0.5-0.1-0.9-0.2-1.1-0.4c-0.3-0.1-0.5-0.3-0.6-0.5c-0.1-0.2-0.2-0.5-0.2-0.7c0-0.3,0.1-0.6,0.2-0.8c0.2-0.3,0.4-0.4,0.7-0.6
		c0.3-0.1,0.7-0.2,1.1-0.2c0.4,0,0.8,0.1,1.1,0.2s0.6,0.3,0.7,0.6s0.3,0.6,0.3,0.9l-0.7,0.1c0-0.4-0.2-0.6-0.4-0.8
		c-0.2-0.2-0.6-0.3-1-0.3c-0.5,0-0.8,0.1-1,0.3s-0.3,0.4-0.3,0.6c0,0.2,0.1,0.4,0.2,0.5c0.1,0.1,0.5,0.3,1.1,0.4
		c0.6,0.1,1,0.3,1.3,0.4c0.3,0.2,0.6,0.3,0.7,0.6c0.2,0.2,0.2,0.5,0.2,0.8c0,0.3-0.1,0.6-0.3,0.9s-0.4,0.5-0.8,0.6
		c-0.3,0.1-0.7,0.2-1.1,0.2c-0.5,0-1-0.1-1.3-0.2c-0.4-0.2-0.6-0.4-0.8-0.7C40.7,94.8,40.6,94.5,40.6,94.1z"/>
	<path class="st6" d="M45.6,95.9l2.2-5.7h0.8l2.3,5.7h-0.9l-0.7-1.7H47l-0.6,1.7H45.6z M47.3,93.6h1.9L48.6,92
		c-0.2-0.5-0.3-0.9-0.4-1.2c-0.1,0.4-0.2,0.7-0.3,1.1L47.3,93.6z"/>
	<path class="st6" d="M51.5,95.9v-5.7h0.8v5.1h2.8v0.7H51.5z"/>
	<path class="st6" d="M55.8,93.1c0-1,0.3-1.7,0.8-2.2c0.5-0.5,1.2-0.8,2-0.8c0.5,0,1,0.1,1.4,0.4c0.4,0.3,0.7,0.6,1,1.1
		c0.2,0.5,0.3,1,0.3,1.5c0,0.6-0.1,1.1-0.4,1.6c-0.2,0.5-0.6,0.8-1,1C59.5,95.9,59,96,58.5,96c-0.5,0-1-0.1-1.4-0.4
		c-0.4-0.3-0.7-0.6-1-1.1C55.9,94.1,55.8,93.6,55.8,93.1z M56.6,93.1c0,0.7,0.2,1.2,0.6,1.6c0.4,0.4,0.8,0.6,1.4,0.6
		c0.6,0,1-0.2,1.4-0.6c0.4-0.4,0.6-1,0.6-1.7c0-0.5-0.1-0.9-0.2-1.2s-0.4-0.6-0.7-0.8s-0.6-0.3-1-0.3c-0.5,0-1,0.2-1.4,0.6
		C56.8,91.7,56.6,92.3,56.6,93.1z"/>
	<path class="st6" d="M62.2,95.9v-5.7H63l3,4.5v-4.5h0.7v5.7H66l-3-4.5v4.5H62.2z"/>
	<path class="st6" d="M68.1,95.9v-0.8h0.8v0.8c0,0.3-0.1,0.5-0.2,0.7c-0.1,0.2-0.3,0.3-0.5,0.4l-0.2-0.3c0.1-0.1,0.3-0.2,0.3-0.3
		c0.1-0.1,0.1-0.3,0.1-0.5H68.1z"/>
	<path class="st6" d="M72.4,95.9v-5.7h0.8V93l2.8-2.8h1l-2.4,2.3l2.5,3.4h-1l-2-2.9l-0.9,0.9v2H72.4z"/>
	<path class="st6" d="M77.2,95.9l2.2-5.7h0.8l2.3,5.7h-0.9L81,94.2h-2.4L78,95.9H77.2z M78.8,93.6h1.9L80.2,92
		c-0.2-0.5-0.3-0.9-0.4-1.2c-0.1,0.4-0.2,0.7-0.3,1.1L78.8,93.6z"/>
	<path class="st6" d="M83.1,95.9v-5.7h2c0.4,0,0.8,0,1,0.1c0.3,0.1,0.6,0.2,0.8,0.4c0.3,0.3,0.5,0.6,0.7,1c0.1,0.4,0.2,0.9,0.2,1.4
		c0,0.4-0.1,0.8-0.2,1.2s-0.2,0.6-0.4,0.8c-0.2,0.2-0.3,0.4-0.5,0.5c-0.2,0.1-0.4,0.2-0.7,0.3c-0.3,0.1-0.6,0.1-0.9,0.1H83.1z
		 M83.9,95.2h1.2c0.4,0,0.7,0,0.9-0.1s0.4-0.2,0.5-0.3c0.2-0.2,0.3-0.4,0.4-0.7c0.1-0.3,0.2-0.7,0.2-1.1c0-0.6-0.1-1.1-0.3-1.4
		c-0.2-0.3-0.4-0.5-0.7-0.6c-0.2-0.1-0.5-0.1-1-0.1h-1.2V95.2z"/>
	<path class="st6" d="M88.9,95.9v-5.7H90l1.4,4.1c0.1,0.4,0.2,0.7,0.3,0.8c0.1-0.2,0.2-0.5,0.3-0.9l1.4-4h1v5.7h-0.7v-4.8L92,95.9
		h-0.7L89.6,91v4.9H88.9z"/>
	<path class="st6" d="M94.9,95.9l2.2-5.7H98l2.3,5.7h-0.9l-0.7-1.7h-2.4l-0.6,1.7H94.9z M96.6,93.6h1.9L97.9,92
		c-0.2-0.5-0.3-0.9-0.4-1.2c-0.1,0.4-0.2,0.7-0.3,1.1L96.6,93.6z"/>
</g>
</svg>
