<?xml version="1.0" encoding="utf-8"?>
<!-- Generator: Adobe Illustrator 21.0.0, SVG Export Plug-In . SVG Version: 6.00 Build 0)  -->
<svg version="1.1" id="Layer_1" xmlns="http://www.w3.org/2000/svg" xmlns:xlink="http://www.w3.org/1999/xlink" x="0px" y="0px"
	 viewBox="0 0 150 100" style="enable-background:new 0 0 150 100;" xml:space="preserve">
<style type="text/css">
	.st0{fill:#050505;stroke:#000000;stroke-miterlimit:10;}
	.st1{fill:#A48749;}
	.st2{fill:#A48749;stroke:#A48749;stroke-miterlimit:10;}
	.st3{opacity:0.4;fill:#6D2323;enable-background:new    ;}
	.st4{fill:none;}
	.st5{fill:none;stroke:#FCFCFC;stroke-miterlimit:10;}
	.st6{fill:#FFFFFF;}
	.st7{enable-background:new    ;}
</style>
<rect class="st0" width="150" height="100"/>
<g>
	<g>
		<path class="st1" d="M65.1,39.4c3.4,3.2,6.9,6.4,10.4,9.7c6.4-5.9,12.7-11.8,19.3-17.9c-6.5-6.1-12.9-12-19.3-18
			C69.1,19.1,62.8,25,56.3,31c1.9,1.8,3.7,3.5,5.5,5.3c-1.8,1.2-3.1,0.8-4.4-0.6c-1.5-1.6-3.1-3-4.9-4.6
			c7.8-7.2,15.3-14.2,22.9-21.3c7.7,7.1,15.3,14.2,23,21.4c-7.6,7.1-15.1,14.1-22.9,21.3c-2.4-2.2-4.7-4.4-7-6.5
			c-1.3-1.2-2.4-2.4-3.8-3.5C63.6,41.5,63.4,40.6,65.1,39.4z"/>
		<circle class="st1" cx="73.8" cy="36.9" r="1.9"/>
		<path class="st1" d="M85.9,22.9c-3.5-3.1-6.9-6.4-10.4-9.6c-6.4,5.9-12.7,11.8-19.3,17.9c6.5,6.1,12.9,12,19.3,18
			c6.4-5.9,12.7-11.8,19.2-17.8c-1.9-1.8-3.7-3.5-5.5-5.3c1.8-1.1,3.1-0.8,4.4,0.6c1.5,1.6,3.1,3,4.9,4.6
			c-7.8,7.2-15.3,14.2-22.9,21.3c-7.7-7.1-15.3-14.2-23-21.4c7.6-7.1,15.2-14.1,22.9-21.3c2.4,2.2,4.7,4.4,7,6.5
			c1.3,1.1,2.4,2.4,3.8,3.5C87.4,20.8,87.6,21.7,85.9,22.9z"/>
		<path class="st2" d="M54.9,37.8c0,0-2.7,0.6-1.5,2.7c0.1,0.1,2.2,0,2.2,0s-6.2,4.2-6.7,5.6c0.1,0.1,5.7,0,5.7,0s2.9,0.2,8.1-7.8
			c0,0,7.7-0.3,7.5-2.5c0.2-0.1-5,0-5,0s4.7-8.7,9.5-7c0,0.1,3,2.6,5.5,1.1c0,0.1,2.5-2.8-2.3-3.3c0,0-10.1-3.2-18.5,10.1
			C59.4,36.8,56.9,37.5,54.9,37.8z"/>
	</g>
	<g>
		<g>
			<path class="st1" d="M62.7,64.7c-0.5-0.2-0.5-0.6-0.5-0.9c-0.2-1.8-0.5-3.5-0.6-5.3c-0.1-1.6-0.9-1.2-1.6-1.3
				c-0.8-0.1-1.1,0.3-1.1,1.4c0,2.6,0,5.1,0,7.7c0,0.6,0,1.4,0.7,1.3c0.7,0,0.7-0.8,0.7-1.4c0-2,0-4,0-6.5c0.7,2.3,0.7,4.4,1,6.3
				c0.1,1,0.3,1.5,1.2,1.6c0.9,0,1-0.6,1.2-1.6c0.4-2.1,0.4-4.4,1.1-6.6c0,2.4,0,4.6,0,6.8c0,0.6-0.1,1.3,0.6,1.4
				c0.7,0,0.9-0.4,0.9-1.3c0-2.6,0-5.1,0-7.7c0-0.8,0.1-1.6-0.8-1.5c-0.7,0.1-1.7-0.5-1.9,1.3C63.4,60.5,63,62.5,62.7,64.7z"/>
			<path class="st1" d="M40.4,60.4c0.1,0,0.2,0,0.2-0.1c0.2,0.7,0.3,1.4,0.5,2.1c0.3,1.4,0.5,2.8,0.7,4.2c0.3,1.6,1.2,0.9,1.9,1
				c0.8,0.1,0.7-0.7,0.7-1.4c0-2.5,0-5,0-7.5c0-0.7,0.1-1.5-0.7-1.5S43,57.9,43,58.6c0,1.8,0.1,3.6-0.1,5.5
				c-0.5-0.2-0.4-0.7-0.5-1.1c-0.3-1.6-0.6-3.3-0.8-4.9c-0.3-1.5-1.1-0.9-1.8-1S39,57.8,39,58.5c0,2.6,0,5.1,0,7.7
				c0,0.6-0.1,1.3,0.6,1.3c0.8,0,0.8-0.7,0.8-1.4C40.4,64.3,40.4,62.3,40.4,60.4z"/>
			<path class="st1" d="M133.1,57.4c-1.9,0-2.4,0.2-2.5,2.1c-0.1,2-0.1,4,0,6c0,1.9,0.6,2.3,2.5,2.3c1.6,0,2,0.2,2-1.8
				c0.1-1,0.1-2.2,0.1-2.2v-3.6C135.2,58.3,134.7,57.5,133.1,57.4z M133.5,64L133.5,64v1.8c0,0.4-0.1,0.5-0.5,0.6s-0.5-0.6-0.6-0.9
				v-5.8c0-0.4,0.2-0.7,0.5-0.7c0.4,0,0.6,0.9,0.6,1.4V64z"/>
			<path class="st1" d="M125.6,62.9V61c0-3.2-1.8-4.9-4.1-3.8c-0.4,0.2-0.4,0.6-0.4,1.1v8.2c0,0.8,0.2,1.1,0.8,1.1
				C125,67.6,125.8,67.7,125.6,62.9z M124,63.7c0,0,0,0.2,0,0.6v1.1c-0.1,0.7-0.2,0.5-0.7,0.5s-0.5-0.5-0.5-1v-5
				c0-0.5,0.1-0.9,0.6-0.9s0.5,1.2,0.6,1.6V63.7L124,63.7z"/>
			<path class="st1" d="M54.3,66.2c-0.6-1.2-0.5-2.5-0.5-3.8c0-1.4-0.5-1.5-1.2-0.7c-0.3,0.4-0.5,0.4-0.7-0.1
				c-0.3-0.6-0.5-1.2-0.7-1.8c-0.1-0.4-0.1-0.9,0.2-1.1c0.3-0.2,0.6,0,0.7,0.5c0.2,1,0.9,0.9,1.2,0.5c0.4-0.5,0.2-1.3-0.1-1.9
				c-0.4-0.7-2.3-0.9-2.9-0.2c-0.8,0.8-0.9,1.8-0.4,2.9c0.3,0.7,0.3,1.2-0.2,1.9c-0.9,1.2-0.6,2.9-0.3,4.3c0.1,1.1,1.1,1,2.1,1
				c0.6,0.4,1.3-0.5,2.1-0.3C53.9,67.5,54.7,66.9,54.3,66.2z M51.4,66.1c-0.8,0-0.8-0.8-0.8-1.6c0-0.5,0-1.3,0.5-1.1
				c0.6,0.2,0.9,1.2,1.1,2C52.3,66.1,51.8,66.1,51.4,66.1z"/>
			<path class="st1" d="M93.4,61.8L93.4,61.8c0.1-1.2,0-2.4,0.1-3.6c0-1-0.4-1-0.9-1C91.9,57.3,92,58,92,58.6c0,2.1,0,4.2,0,6.3
				c0,0.6-0.1,1.1-0.6,1.1s-0.6-0.5-0.6-1.1c0-0.4,0-0.8,0-1.2c0-1.8,0-3.6,0-5.4c0-0.7-0.2-1.1-0.7-1.1c-0.4,0-1-0.1-1,0.7
				c0,2.7-0.1,5.3,0.1,8c0.2,2,1.5,1.9,2.6,1.8c1,0,1.6-0.7,1.6-2.1C93.4,64.3,93.4,63,93.4,61.8z"/>
			<path class="st1" d="M119.4,61.6c0-1.1,0-2.2,0-3.3c0-0.8-0.1-1.2-0.8-1.2c-0.7,0-0.8,0.5-0.8,1.2c0,2,0,3.9,0,5.9
				c0,0.7,0.1,1.6-0.6,1.6c-0.8,0-0.6-0.9-0.6-1.6c0-2.1,0-4.2,0-6.3c0-0.7-0.2-1-0.7-0.9c-0.4,0-1-0.1-1,0.7c0,2.7-0.2,5.5,0.1,8.2
				c0.2,1.8,1.4,1.6,2.3,1.6c1,0,1.7-0.4,1.8-1.9C119.4,64.4,119.3,63,119.4,61.6z"/>
			<path class="st1" d="M72.6,66.6c-0.3-2.8-0.6-5.5-0.9-8.2c-0.2-1.6-1.1-1.1-1.8-1.2c-0.7-0.1-1.1,0.1-1.2,1.2
				c-0.2,2.5-0.6,5-0.9,7.4c0.2,0.6-0.3,1.3,0.2,1.7c0.3,0.2,0.8,0.2,1.1-0.1c0.3-0.3,0.4-0.9,0.4-1.4c0-0.6,0.1-1,0.7-1
				c0.5,0,0.7,0.4,0.8,0.9c0,0.3,0.1,0.7,0.1,1c0.2,0.9,0.8,0.6,1.2,0.6C72.7,67.6,72.7,67,72.6,66.6z M70,63.4
				c-0.4,0-0.3-0.5-0.3-0.9c0.1-1.1,0.1-2.2,0.6-3.3c0.1,1.1,0.1,2.2,0.2,3.2C70.6,62.9,70.5,63.4,70,63.4z"/>
			<path class="st1" d="M26.5,66.7c-0.3-2.7-0.6-5.5-0.9-8.2c-0.1-1.5-0.9-1.3-1.6-1.3s-1.4-0.1-1.5,1.3c-0.3,2.8-0.6,5.5-0.9,8.2
				c-0.1,0.8,0.2,0.9,0.6,1c0.9,0.2,1-0.6,1.1-1.4c0.1-0.5,0.1-1.2,0.7-1.2s0.7,0.6,0.8,1.1c0.1,0.3,0.1,0.7,0.2,1
				c0.2,0.7,0.7,0.4,1.1,0.4C26.6,67.5,26.6,67.1,26.5,66.7z M24,63.4c-0.4,0-0.4-0.3-0.4-0.8c0.1-0.9,0.2-1.9,0.3-2.8
				c0.6,0.9,0.5,1.9,0.6,2.8C24.6,63.1,24.4,63.4,24,63.4z"/>
			<path class="st1" d="M98.9,57.6c-1.1-0.6-2.3-0.7-3.4-0.3c-0.3,0.1-0.3,0.7-0.3,1.1v7.8c0,0.8,0,1.4,0.8,1.4
				c0.7,0,0.9-0.6,0.8-1.4c-0.1-1.3,0.4-1.7,1.3-1.8c1.1-0.1,1.6-1,1.6-2.4v-1.9C99.8,59.1,99.6,58,98.9,57.6z M97.2,62.8
				c-1,0-0.7-1.4-0.7-1.9v-1.2c0-0.5,0.4-0.7,0.7-0.7s0.6,0.2,0.6,0.7c0,0.3,0,0.7-0.1,1C97.7,61.5,98.2,62.8,97.2,62.8z"/>
			<path class="st1" d="M18.1,67.7c1,0.2,1.8-0.4,2-2.1c0.3-2.3-0.2-3.4-1.6-4.1c-0.3-0.2-0.6-0.3-0.9-0.6c-0.4-0.4-0.4-1-0.3-1.6
				c0.1-0.4,0.3-0.6,0.6-0.6c0.4,0,0.6,0.5,0.6,1c0.1,0.7,0.5,0.5,0.8,0.5s0.5-0.1,0.5-0.5c0-1,0-1.9-0.8-2.3
				c-2.1-1.1-3.4,0.1-3.4,3.1c0,1.4,0.4,2.3,1.5,2.6c0.3,0.1,0.6,0.3,0.8,0.4c0.6,0.4,0.5,1.2,0.5,1.9c0,0.5-0.2,0.8-0.6,0.8
				c-0.6,0.1-0.6-0.6-0.7-1.2c-0.1-0.7-0.6-0.6-0.9-0.6c-0.5,0-0.5,0.4-0.6,0.9C15.7,67,16.3,67.7,18.1,67.7z"/>
			<path class="st1" d="M106.1,57.1c-1,0-1.8,0.1-2,1.8c-0.3,2.5,0,3.4,1.4,4c0.3,0.1,0.6,0.3,0.8,0.4c0.6,0.4,0.5,1.1,0.5,1.8
				c0,0.4-0.1,0.8-0.5,0.9c-0.6,0.1-0.6-0.6-0.7-1.2c-0.1-0.7-0.6-0.6-0.9-0.6c-0.5,0-0.5,0.5-0.5,1c0,1.2,0.2,2.2,1.2,2.4
				c1.6,0.4,2.7-0.1,3-1.4c0.5-2.3,0-3.9-1.7-4.9c-0.2-0.1-0.3-0.2-0.5-0.3c-0.5-0.4-0.5-1-0.5-1.7c0-0.4,0.2-0.7,0.5-0.7
				c0.6-0.1,0.5,0.6,0.7,1c0.2,0.7,0.8,0.4,1.1,0.3c0.5-0.1,0.4-0.7,0.3-1.1C108.2,57.1,107.2,57,106.1,57.1z"/>
			<path class="st1" d="M75.8,63.3c0.7,1,0.9,2.1,1.1,3.1c0.3,1.1,0.8,1.4,1.5,1c0.9-0.4,0.2-1.2,0-1.7c-0.9-2.3-1.4-4.6-0.2-7
				c0.2-0.4,0.9-1.2,0-1.6c-0.6-0.3-1.1,0-1.4,1c-0.2,0.9-0.3,2-1.1,3c0-1.2,0-2,0-2.9c0-0.6-0.1-1.1-0.7-1.2
				c-0.6,0-0.8,0.4-0.8,1.2c0,2.7,0,5.4,0,8.2c0,0.8,0.2,1.1,0.8,1.1c0.6,0,0.7-0.5,0.7-1.1C75.6,65.5,75.5,64.6,75.8,63.3z"/>
			<path class="st1" d="M80.1,62.3c0,0.7,0,1.4,0,2.1c0,3.4,0.1,3.5,2.6,3.1c0.4-0.1,0.8-0.1,0.8-0.8c0-0.8-0.4-0.8-0.8-0.8
				c-0.6,0-1-0.2-1-1.2c0-0.8-0.2-1.8,0.9-1.8c0.4,0,0.6-0.2,0.6-0.8c0-0.5-0.3-0.7-0.6-0.7c-0.8,0.1-0.9-0.5-0.9-1.4
				c0-1,0.4-1.1,1-1.1c0.3,0,0.6,0,0.7-0.6c0-0.3,0.1-0.8-0.2-1c-0.9-0.5-1.8-0.4-2.6-0.2c-0.7,0.2-0.4,1.1-0.4,1.8
				C80.1,60.1,80.1,61.2,80.1,62.3z"/>
			<path class="st1" d="M110.9,63.1L110.9,63.1c0,0.9,0,1.9,0,2.8c0,0.7-0.2,1.7,0.8,1.7s0.8-0.8,0.8-1.6c0-1.9,0-3.8,0-5.7
				c0-0.7,0-1.3,0.7-1.3c0.5,0,0.5-0.5,0.5-1c0-0.6-0.3-0.8-0.7-0.8c-0.9,0-1.9,0-2.8,0c-0.4,0-0.6,0.3-0.5,0.8c0,0.4,0,1,0.4,0.9
				c1,0,0.9,0.9,0.9,1.8C110.9,61.5,110.9,62.3,110.9,63.1z"/>
			<path class="st1" d="M29.6,61.6L29.6,61.6c0-1.2,0-2.3,0-3.5c0-0.8-0.3-1-0.8-1S28,57.2,28,58c0,2.8,0,5.7,0,8.5
				c0,0.6,0.2,1,0.7,1c0.7,0,1.4,0,2.1,0c0.3,0,0.6-0.1,0.6-0.7c0-0.5-0.1-1-0.6-0.9c-1.2,0.1-1.1-1-1.1-2.1
				C29.7,63.1,29.6,62.4,29.6,61.6z"/>
			<path class="st1" d="M128.9,62.5L128.9,62.5c0-1.4,0-2.9,0-4.3c0-0.7-0.2-1.1-0.8-1.1c-0.5,0-0.8,0.2-0.8,1c0,2.8,0,5.7,0,8.5
				c0,0.7,0.3,1,0.8,1s0.8-0.3,0.8-1.1C128.9,65.2,128.9,63.9,128.9,62.5z"/>
			<path class="st1" d="M86.2,64.7c0.4-0.2,1.2,0.3,1.2-1c-0.1-1.3-0.8-0.7-1.3-0.7s-1.3-0.5-1.3,0.7C84.8,65.1,85.7,64.5,86.2,64.7
				z"/>
		</g>
		<g>
			<path class="st1" d="M36.8,63.9v-4.6c-0.1-1-0.3-1.8-1.1-2c-0.7-0.2-1.5-0.2-2.3,0c-0.5,0.1-0.9,0.5-1,1.4
				c-0.2,2.4-0.2,4.9,0,7.3c0,0.8,0.4,1.3,1,1.4C36.3,67.8,36.9,67.4,36.8,63.9z M34.9,62.5v2.7c0,0.4-0.1,0.6-0.5,0.6
				c-0.2,0-0.4-0.3-0.4-0.6v-5.7c0-0.3,0.2-0.5,0.4-0.5c0.3,0,0.4,0.3,0.4,0.7C35,60.6,35,61.5,34.9,62.5z"/>
		</g>
	</g>
</g>
<rect x="-0.6" y="86.5" class="st3" width="151.2" height="14"/>
<rect x="42.2" y="89.5" class="st4" width="65.5" height="8.7"/>
<g>
	<path class="st5" d="M146.9,85.4c-0.5,0.8-0.5,1.5-0.1,2.2c0.3,0.5,0.4,1,0.6,1.5c0.3,0.9,0.2,1.4-0.7,1.8c-0.7,0.4-1.4,0.7-2,1.1
		c-0.3,0.2-0.5,0.5-0.6,0.8c-0.2,0.8-0.3,1.5-0.4,2.3c-0.2,0.9-0.6,1.3-1.5,1.2c-0.8-0.1-1.5-0.3-2.3-0.3c-0.3,0-0.7,0.1-0.9,0.3
		c-0.6,0.5-1.1,1.1-1.7,1.6c-0.6,0.6-1.2,0.6-1.9,0c-0.6-0.5-1.1-1.1-1.7-1.6c-0.2-0.2-0.6-0.3-0.9-0.3c-0.7,0.1-1.4,0.2-2.1,0.3
		c-1,0.1-1.6-0.3-1.8-1.3c-0.1-0.5-0.2-1.1-0.2-1.6c0-0.8-0.4-1.3-1.1-1.6c-0.4-0.2-0.8-0.4-1.3-0.6c-1.1-0.6-1.3-1.2-0.8-2.3
		c0.3-0.6,0.6-1.2,0.9-1.9c0.1-0.3,0.1-0.6,0-0.9c-0.3-0.7-0.7-1.3-1-2c-0.5-0.9-0.3-1.6,0.7-2.1c0.6-0.3,1.2-0.6,1.8-0.9
		c0.5-0.2,0.8-0.6,0.8-1.2c0.1-0.7,0.2-1.4,0.3-2.2c0.2-0.8,0.6-1.1,1.5-1.1c0.7,0.1,1.5,0.2,2.3,0.4c0.5,0.1,0.8,0,1.1-0.3
		c0.6-0.6,1.2-1.1,1.8-1.7c0.6-0.5,1.2-0.5,1.8,0c0.6,0.6,1.1,1.2,1.7,1.7c0.2,0.2,0.6,0.3,0.9,0.3c0.7-0.1,1.4-0.2,2.1-0.3
		c1.1-0.2,1.6,0.3,1.8,1.3c0,0.2,0.1,0.4,0.1,0.6c-0.1,1.6,0.7,2.5,2.1,2.9c0.2,0.1,0.5,0.2,0.7,0.4c0.7,0.4,1,1.1,0.6,1.9
		C147.4,84.4,147.2,85,146.9,85.4z"/>
	<g>
		<path class="st6" d="M131.9,85.4h-0.7v-4.5c-0.2,0.2-0.4,0.3-0.7,0.5s-0.5,0.3-0.7,0.4v-0.7c0.4-0.2,0.7-0.4,1-0.7
			s0.5-0.5,0.6-0.8h0.5L131.9,85.4L131.9,85.4z"/>
		<path class="st6" d="M133,83.9l0.7-0.1c0.1,0.4,0.2,0.6,0.4,0.8s0.4,0.3,0.7,0.3s0.6-0.1,0.9-0.4s0.4-0.6,0.4-1s-0.1-0.7-0.3-0.9
			s-0.5-0.3-0.9-0.3c-0.2,0-0.4,0.1-0.6,0.2s-0.3,0.2-0.4,0.4l-0.7-0.1l0.6-2.9h2.8v0.7h-2.3L134,82c0.3-0.2,0.7-0.4,1.1-0.4
			c0.5,0,0.9,0.2,1.3,0.5s0.5,0.8,0.5,1.3s-0.2,1-0.5,1.3c-0.4,0.5-0.9,0.7-1.5,0.7c-0.5,0-0.9-0.1-1.3-0.4S133.1,84.4,133,83.9z"/>
		<path class="st6" d="M137,81c0-0.4,0.1-0.8,0.3-1s0.5-0.4,0.9-0.4s0.7,0.1,0.9,0.4s0.4,0.6,0.4,1.1s-0.1,0.9-0.4,1.1
			s-0.5,0.4-0.9,0.4c-0.3,0-0.6-0.1-0.9-0.4S137,81.6,137,81z M138.2,80.1c-0.2,0-0.3,0.1-0.4,0.2s-0.2,0.4-0.2,0.8s0.1,0.6,0.2,0.8
			s0.3,0.2,0.4,0.2c0.2,0,0.3-0.1,0.4-0.2s0.2-0.4,0.2-0.8s-0.1-0.6-0.2-0.8S138.4,80.1,138.2,80.1z M138.2,85.6l3.1-6h0.6l-3.1,6
			H138.2z M140.7,84.1c0-0.4,0.1-0.8,0.3-1s0.5-0.4,0.9-0.4s0.7,0.1,0.9,0.4s0.4,0.6,0.4,1.1s-0.1,0.9-0.4,1.1s-0.5,0.4-0.9,0.4
			c-0.3,0-0.6-0.1-0.9-0.4S140.7,84.6,140.7,84.1z M141.9,83.1c-0.2,0-0.3,0.1-0.4,0.2s-0.2,0.4-0.2,0.8s0.1,0.6,0.2,0.8
			s0.3,0.2,0.4,0.2c0.2,0,0.3-0.1,0.4-0.2s0.2-0.4,0.2-0.8s-0.1-0.6-0.2-0.8S142.1,83.1,141.9,83.1z"/>
		<path class="st6" d="M129.3,89.6c0-1,0.3-1.7,0.8-2.2s1.2-0.8,2-0.8c0.5,0,1,0.1,1.4,0.4s0.7,0.6,1,1.1s0.3,1,0.3,1.5
			c0,0.6-0.1,1.1-0.4,1.6s-0.6,0.8-1,1s-0.9,0.4-1.4,0.4s-1-0.1-1.4-0.4s-0.7-0.6-1-1.1S129.3,90.1,129.3,89.6z M130,89.6
			c0,0.7,0.2,1.2,0.6,1.6s0.8,0.6,1.4,0.6c0.6,0,1-0.2,1.4-0.6s0.6-1,0.6-1.7c0-0.5-0.1-0.9-0.2-1.2s-0.4-0.6-0.7-0.8
			s-0.6-0.3-1-0.3c-0.5,0-1,0.2-1.4,0.6S130,88.8,130,89.6z"/>
		<path class="st6" d="M135.1,92.4v-5.7h3.9v0.7h-3.1v1.8h2.7v0.7h-2.7v2.6L135.1,92.4L135.1,92.4z"/>
		<path class="st6" d="M139.4,92.4v-5.7h3.9v0.7h-3.1v1.8h2.7v0.7h-2.7v2.6L139.4,92.4L139.4,92.4z"/>
	</g>
</g>
<rect x="39.6" y="89.6" transform="matrix(1 -4.010487e-03 4.010487e-03 1 -0.3724 0.2877)" class="st4" width="63.9" height="6.8"/>
<g class="st7">
	<path class="st6" d="M40,93.4l0.7-0.1c0,0.3,0.1,0.5,0.2,0.7s0.3,0.3,0.6,0.4s0.6,0.2,0.9,0.2c0.3,0,0.5,0,0.8-0.1s0.4-0.2,0.5-0.4
		s0.2-0.3,0.2-0.5c0-0.2-0.1-0.3-0.2-0.5s-0.3-0.2-0.5-0.3c-0.2-0.1-0.5-0.2-1-0.3s-0.9-0.2-1.1-0.4c-0.3-0.1-0.5-0.3-0.6-0.5
		s-0.2-0.5-0.2-0.7c0-0.3,0.1-0.6,0.2-0.8s0.4-0.4,0.7-0.6s0.7-0.2,1.1-0.2c0.4,0,0.8,0.1,1.1,0.2s0.6,0.3,0.7,0.6s0.3,0.6,0.3,0.9
		l-0.7,0.1c0-0.4-0.2-0.6-0.4-0.8s-0.6-0.3-1-0.3c-0.5,0-0.8,0.1-1,0.3s-0.3,0.4-0.3,0.6c0,0.2,0.1,0.4,0.2,0.5
		c0.1,0.1,0.5,0.3,1.1,0.4s1,0.3,1.3,0.4c0.3,0.2,0.6,0.3,0.7,0.6s0.2,0.5,0.2,0.8c0,0.3-0.1,0.6-0.3,0.9s-0.4,0.5-0.8,0.6
		s-0.7,0.2-1.1,0.2c-0.5,0-1-0.1-1.3-0.2s-0.6-0.4-0.8-0.7S40,93.8,40,93.4z"/>
	<path class="st6" d="M44.9,95.2l2.2-5.7H48l2.3,5.7h-0.9l-0.7-1.7h-2.4l-0.6,1.7H44.9z M46.6,92.9h1.9l-0.6-1.6
		c-0.2-0.5-0.3-0.9-0.4-1.2c-0.1,0.4-0.2,0.7-0.3,1.1L46.6,92.9z"/>
	<path class="st6" d="M50.9,95.2v-5.7h0.8v5.1h2.8v0.7H50.9z"/>
	<path class="st6" d="M55.1,92.5c0-1,0.3-1.7,0.8-2.2s1.2-0.8,2-0.8c0.5,0,1,0.1,1.4,0.4s0.7,0.6,1,1.1s0.3,1,0.3,1.5
		c0,0.6-0.1,1.1-0.4,1.6s-0.6,0.8-1,1s-0.9,0.4-1.4,0.4c-0.5,0-1-0.1-1.4-0.4s-0.7-0.6-1-1.1S55.1,93,55.1,92.5z M55.9,92.5
		c0,0.7,0.2,1.2,0.6,1.6s0.8,0.6,1.4,0.6c0.6,0,1-0.2,1.4-0.6s0.6-1,0.6-1.7c0-0.5-0.1-0.9-0.2-1.2s-0.4-0.6-0.7-0.8s-0.6-0.3-1-0.3
		c-0.5,0-1,0.2-1.4,0.6S55.9,91.6,55.9,92.5z"/>
	<path class="st6" d="M61.6,95.2v-5.7h0.8l3,4.5v-4.5h0.7v5.7h-0.8l-3-4.5v4.5H61.6z"/>
	<path class="st6" d="M67.4,95.2v-0.8h0.8v0.8c0,0.3-0.1,0.5-0.2,0.7s-0.3,0.3-0.5,0.4l-0.2-0.3c0.1-0.1,0.3-0.2,0.3-0.3
		s0.1-0.3,0.1-0.5H67.4z"/>
	<path class="st6" d="M71.5,93.4l0.7-0.1c0,0.3,0.1,0.5,0.2,0.7s0.3,0.3,0.6,0.4s0.6,0.2,0.9,0.2c0.3,0,0.5,0,0.8-0.1
		s0.4-0.2,0.5-0.4s0.2-0.3,0.2-0.5c0-0.2-0.1-0.3-0.2-0.5s-0.3-0.2-0.5-0.3c-0.2-0.1-0.5-0.2-1-0.3s-0.9-0.2-1.1-0.4
		c-0.3-0.1-0.5-0.3-0.6-0.5s-0.2-0.5-0.2-0.7c0-0.3,0.1-0.6,0.2-0.8s0.4-0.4,0.7-0.6s0.7-0.2,1.1-0.2c0.4,0,0.8,0.1,1.1,0.2
		s0.6,0.3,0.7,0.6s0.3,0.6,0.3,0.9l-0.7,0.1c0-0.4-0.2-0.6-0.4-0.8s-0.6-0.3-1-0.3c-0.5,0-0.8,0.1-1,0.3s-0.3,0.4-0.3,0.6
		c0,0.2,0.1,0.4,0.2,0.5c0.1,0.1,0.5,0.3,1.1,0.4s1,0.3,1.3,0.4c0.3,0.2,0.6,0.3,0.7,0.6c0.2,0.2,0.2,0.5,0.2,0.8
		c0,0.3-0.1,0.6-0.3,0.9c-0.2,0.3-0.4,0.5-0.8,0.6s-0.7,0.2-1.1,0.2c-0.5,0-1-0.1-1.3-0.2s-0.6-0.4-0.8-0.7S71.6,93.8,71.5,93.4z"/>
	<path class="st6" d="M76.5,95.2l2.2-5.7h0.8l2.3,5.7H81l-0.7-1.7h-2.4l-0.6,1.7H76.5z M78.2,92.9h1.9l-0.6-1.6
		c-0.2-0.5-0.3-0.9-0.4-1.2c-0.1,0.4-0.2,0.7-0.3,1.1L78.2,92.9z"/>
	<path class="st6" d="M82.4,95.2v-5.7h0.8v2.8l2.8-2.8h1l-2.4,2.3l2.5,3.4h-1l-2-2.9l-0.9,0.9v2H82.4z"/>
	<path class="st6" d="M91.9,93.2l0.8,0.2c-0.2,0.6-0.4,1.1-0.9,1.4c-0.4,0.3-0.9,0.5-1.5,0.5c-0.6,0-1.1-0.1-1.5-0.4
		s-0.7-0.6-0.9-1.1c-0.2-0.5-0.3-1-0.3-1.5c0-0.6,0.1-1.1,0.3-1.6c0.2-0.4,0.6-0.8,1-1c0.4-0.2,0.9-0.3,1.4-0.3
		c0.6,0,1.1,0.1,1.4,0.4s0.7,0.7,0.8,1.2l-0.7,0.2c-0.1-0.4-0.3-0.7-0.6-0.9c-0.3-0.2-0.6-0.3-1-0.3c-0.4,0-0.8,0.1-1.1,0.3
		c-0.3,0.2-0.5,0.5-0.6,0.8c-0.1,0.4-0.2,0.7-0.2,1.1c0,0.5,0.1,0.9,0.2,1.3c0.1,0.4,0.4,0.6,0.7,0.8c0.3,0.2,0.6,0.3,1,0.3
		c0.4,0,0.8-0.1,1.1-0.4C91.6,94.1,91.8,93.7,91.9,93.2z"/>
	<path class="st6" d="M93.6,95.2v-5.7h0.8v2.4h3v-2.4h0.8v5.7h-0.8v-2.7h-3v2.7H93.6z"/>
	<path class="st6" d="M99.5,95.2v-5.7h0.8v5.7H99.5z"/>
</g>
</svg>
