<?xml version="1.0" encoding="utf-8"?>
<!-- Generator: Adobe Illustrator 21.0.0, SVG Export Plug-In . SVG Version: 6.00 Build 0)  -->
<svg version="1.1" id="Layer_1" xmlns="http://www.w3.org/2000/svg" xmlns:xlink="http://www.w3.org/1999/xlink" x="0px" y="0px"
	 viewBox="0 0 150 100" style="enable-background:new 0 0 150 100;" xml:space="preserve">
<style type="text/css">
	.st0{fill:#211E1F;}
	.st1{fill:#3BB3C2;}
	.st2{fill:#FAC201;}
	.st3{fill:#F7C906;}
	.st4{fill:none;}
	.st5{fill:#FFFFFF;}
	.st6{fill:#FABF11;}
	.st7{opacity:0.4;fill:#B5B4B4;enable-background:new    ;}
	.st8{fill:none;stroke:#FCFCFC;stroke-miterlimit:10;}
	.st9{fill:#FCFCFC;}
	.st10{enable-background:new    ;}
</style>
<rect class="st0" width="150" height="100"/>
<g>
	<path class="st1" d="M98.8,34.9c-1.2,0-2.3,0-3.5,0c-0.7,0-0.6-0.1-0.7,0.7c0,0.2,0,0.3,0,0.5c0,1.5-0.1,3,0,4.6
		c0,0.3,0.1,0.5,0.5,0.5c2.3,0.1,4.6,0.1,7,0c0.5,0,0.5-0.1,0.6-0.5c0.1-1.8,0.1-3.6,0-5.4c0-0.2-0.1-0.3-0.3-0.3
		C101.2,34.8,100,34.9,98.8,34.9z"/>
	<path class="st1" d="M109.4,34.9L109.4,34.9c-1.2-0.1-2.4-0.1-3.6-0.1c-0.4,0-0.5,0-0.5,0.5c0,1,0,2,0,3c0,0.7,0,1.4,0,2.1
		c0,0.5,0.1,0.6,0.6,0.7c0.3,0.1,0.7,0.1,1,0.1c2,0,4-0.1,6.1-0.1c0.3,0,0.4-0.1,0.4-0.4c0-1.8,0-3.7,0-5.5c0-0.3-0.1-0.4-0.4-0.4
		C111.8,35,110.6,34.9,109.4,34.9z"/>
	<path class="st2" d="M79,41.2c1.2,0,2.3,0,3.5,0c0.5,0,0.5,0,0.5-0.5c0-1.7,0-3.5,0-5.2c0-0.6,0.2-0.6-0.6-0.6
		c-2.2-0.1-4.3,0.1-6.5,0c-0.9-0.1-1,0-1,0.9c0,1.7,0,3.3,0,5c0,0.3,0.1,0.3,0.4,0.4C76.6,41.3,77.8,41.2,79,41.2z"/>
	<path class="st2" d="M68,34.2L68,34.2c1.2,0,2.4,0,3.7,0c0.2,0,0.4,0,0.4-0.3c0-1.9,0-3.8,0-5.6c0-0.2-0.1-0.3-0.3-0.3
		c-0.5,0-1.1,0-1.6,0c-1.9,0-3.7,0-5.6,0c-0.4,0-0.5,0.1-0.5,0.5c0,1.8,0,3.7,0,5.5c0,0.2,0.1,0.3,0.3,0.3
		C65.6,34.2,66.8,34.2,68,34.2z"/>
	<path class="st1" d="M20.2,34.2L20.2,34.2c1.2,0,2.4,0,3.6,0c0.3,0,0.4-0.1,0.4-0.3c0-1.9,0-3.8,0-5.6c0-0.2-0.1-0.3-0.3-0.3
		c-2.4-0.1-4.8-0.2-7.3,0c-0.3,0-0.4,0.1-0.4,0.4c-0.1,1.9-0.1,3.7,0,5.6c0,0.2,0.1,0.3,0.3,0.3C17.8,34.2,19,34.2,20.2,34.2z"/>
	<path class="st1" d="M48.6,41.1c1.1,0,2.3,0,3.4,0c0.2,0,0.3,0,0.3-0.3c0-1.9,0-3.8,0-5.7c0-0.2-0.1-0.3-0.3-0.3c-0.3,0-0.6,0-1,0
		c-2,0-4,0-6-0.1c-0.7,0-0.8,0.1-0.8,0.8c0,1.7,0,3.4,0,5.1c0,0.3,0.1,0.4,0.3,0.4C46,41.2,47.3,41.2,48.6,41.1z"/>
	<path class="st2" d="M68.1,34.9C68.1,34.8,68.1,34.8,68.1,34.9c-1.2-0.1-2.3-0.1-3.5-0.1c-0.6,0-0.7,0.1-0.7,0.7
		c0,0.9,0.1,1.8,0,2.8c0,0.8,0,1.6,0.1,2.4c0,0.5,0.1,0.5,0.5,0.5s0.8,0,1.1-0.1c1.9-0.3,3.6-1.2,5-2.6c0.8-0.9,1.3-1.9,1.4-3.1
		c0-0.3-0.1-0.4-0.4-0.4C70.5,34.9,69.3,34.9,68.1,34.9z"/>
	<path class="st2" d="M78.9,41.8L78.9,41.8c-1.1,0-2.2,0-3.4,0c-0.7,0-0.7,0-0.7,0.7c-0.1,1.8,0.1,3.5,0,5.3c0,0.3,0.1,0.4,0.4,0.4
		c0.6-0.1,1.2-0.1,1.8-0.3c2.2-0.5,4-1.6,5.2-3.5c0.4-0.7,0.7-1.4,0.7-2.2c0-0.3-0.1-0.4-0.4-0.4C81.4,41.8,80.2,41.8,78.9,41.8z"/>
	<path class="st2" d="M87.8,34.9c-1.2,0-2.4,0-3.7,0.1c-0.3,0-0.4,0.1-0.4,0.4c0,1.8,0,3.7,0,5.5c0,0.3,0.1,0.4,0.4,0.4
		c1,0,1.9-0.2,2.8-0.6c1.7-0.6,3.1-1.5,4.1-3c0.5-0.7,0.8-1.5,0.8-2.4c0-0.2-0.1-0.3-0.3-0.3C90.2,34.8,89,34.9,87.8,34.9z"/>
	<path class="st1" d="M48.2,34.3c1.2,0,2.4,0,3.7,0c0.4,0,0.5-0.2,0.5-0.5c0.1-1.8,0.1-3.6,0-5.5c0-0.2-0.1-0.3-0.4-0.3
		c-0.8,0-1.5,0.1-2.2,0.3c-1.9,0.5-3.5,1.5-4.6,3.2c-0.5,0.7-0.8,1.5-0.8,2.3c0,0.3,0.1,0.4,0.4,0.4C45.9,34.2,47,34.3,48.2,34.3z"
		/>
	<path class="st2" d="M87.8,34.3c1.1,0,2.2-0.1,3.4,0c0.6,0,0.7-0.1,0.6-0.7c-0.1-0.9-0.5-1.8-1.1-2.5c-1.7-2.1-3.9-3-6.5-3.2
		c-0.3,0-0.4,0.1-0.4,0.4c0,0.5,0,1,0,1.5c0,1.3,0,2.5,0,3.8c0,0.4,0.1,0.5,0.5,0.6c0.3,0,0.5,0,0.8,0
		C85.9,34.3,86.9,34.3,87.8,34.3z"/>
	<path class="st2" d="M68,27.3L68,27.3c1.1,0,2.3,0,3.4,0c0.6,0,0.6,0,0.7-0.6c0.1-1.8,0.1-3.6,0-5.4c0-0.2-0.1-0.3-0.3-0.3
		c-0.7-0.1-1.3-0.1-2,0.2c-0.5,0.2-1.1,0.4-1.6,0.6c-1.5,0.7-2.7,1.7-3.6,3C64.2,25.4,64,26,64,26.7c0,0.4,0,0.5,0.5,0.5
		C65.7,27.3,66.9,27.3,68,27.3z"/>
	<path class="st1" d="M117.9,34.9c-0.8,0-1.9,0-3.1,0c-0.6,0-0.7,0-0.7,0.7c0,1.7,0,3.4,0,5.2c0,0.5,0,0.5,0.5,0.5
		c2.9-0.1,5.2-1.4,6.9-3.8c0.4-0.6,0.6-1.3,0.6-2.1c0-0.3-0.1-0.4-0.4-0.4C120.6,34.9,119.4,34.9,117.9,34.9z"/>
	<path class="st1" d="M109.1,41.7C109.1,41.8,109.1,41.8,109.1,41.7c-1.1,0-2.2,0-3.3,0c-0.5,0-0.6,0.1-0.6,0.6c0.1,1,0,1.9,0,2.9
		c0,0.8,0,1.5,0,2.3c0.1,0.5,0.1,0.6,0.6,0.5c0.7,0,1.4-0.2,2.1-0.4c1.6-0.5,3-1.2,4-2.5c0.6-0.8,1-1.6,1.3-2.6
		c0.1-0.5,0-0.7-0.6-0.8c-0.3,0-0.5-0.1-0.8-0.1C111.1,41.7,110.1,41.7,109.1,41.7z"/>
	<path class="st1" d="M128.9,34.3c0.4,0,0.8,0,1.1,0c0.9,0,1.8,0.1,2.6,0c0.3,0,0.4-0.1,0.4-0.5c0.1-1.6,0.1-3.3,0.1-4.9
		c0-0.9,0-1-1-0.9c-3.1,0.3-5.4,1.7-6.8,4.6c-0.2,0.4-0.3,0.8-0.3,1.3c0,0.3,0.1,0.4,0.4,0.4C126.6,34.4,127.8,34.3,128.9,34.3z"/>
	<path class="st1" d="M109.7,34.3c1,0,2.1,0,3.2,0c0.4,0,0.5-0.2,0.5-0.5c0.1-1.8,0.1-3.6,0-5.4c0-0.3-0.1-0.4-0.5-0.4
		c-2.2,0-4.1,0.9-5.7,2.4c-0.9,0.9-1.6,1.9-1.8,3.2c-0.1,0.6,0.1,0.8,0.7,0.8C107.3,34.3,108.4,34.3,109.7,34.3z"/>
	<path class="st1" d="M39.5,34.3c1.3,0,2.5,0,3.7-0.1c0.3,0,0.4-0.1,0.4-0.4c0-0.5-0.2-1-0.4-1.5c-0.8-1.6-2-2.8-3.7-3.5
		c-1.1-0.5-2.3-0.9-3.6-0.9c-0.3,0-0.4,0.1-0.4,0.4c0,1.8,0,3.7,0,5.5c0,0.3,0.1,0.4,0.4,0.4C37.2,34.3,38.4,34.3,39.5,34.3z"/>
	<path class="st1" d="M39,34.8c-0.6,0-1.8,0-2.9,0c-0.4,0-0.5,0.2-0.5,0.5c0,0.6,0.1,1.1,0.4,1.6c1.6,2.7,4.1,4,7.3,4.1
		c0.3,0,0.3-0.1,0.3-0.3c0-0.7,0-1.4,0-2.1c0-1.1,0-2.3-0.1-3.4c0-0.3-0.2-0.4-0.5-0.4C41.9,34.8,40.7,34.8,39,34.8z"/>
	<path class="st1" d="M129.1,34.9c-1.2,0-2.4,0-3.6,0c-0.4,0-0.4,0.1-0.4,0.4c0,0.5,0.2,0.9,0.3,1.3c0.9,2,2.4,3.2,4.4,4
		c0.9,0.3,1.8,0.6,2.8,0.6c0.3,0,0.5-0.1,0.5-0.5c0.1-1.8,0.1-3.6,0-5.4c0-0.3-0.1-0.4-0.4-0.4C131.5,34.9,130.3,34.9,129.1,34.9z"
		/>
	<path class="st2" d="M78.8,34.3c1.3,0,2.5,0.1,3.8,0c0.4,0,0.4-0.2,0.4-0.5c0-1.7,0-3.4,0-5c0-0.8,0-0.8-0.8-0.7
		c-2.3,0.2-4.2,1.2-5.8,2.8c-0.7,0.8-1.2,1.7-1.4,2.7c-0.1,0.7-0.1,0.7,0.6,0.8C76.7,34.3,77.7,34.3,78.8,34.3z"/>
	<path class="st1" d="M118.3,34.3L118.3,34.3c1.1,0,2.2,0,3.4,0c0.5,0,0.5,0,0.5-0.5c-0.1-1.1-0.5-2-1.2-2.8c-1.7-1.9-3.8-2.8-6.3-3
		c-0.4,0-0.5,0.1-0.5,0.5s0,0.7,0,1.1c0,1.4,0,2.7,0,4.1c0,0.5,0.1,0.6,0.5,0.6C115.9,34.3,117.1,34.3,118.3,34.3z"/>
	<path class="st2" d="M59.2,34.9L59.2,34.9c-1,0-2.1,0-3.1,0c-0.9,0-1,0.1-0.8,1c0,0.1,0,0.2,0.1,0.4c0.4,1.1,1.1,2,2,2.8
		c1.6,1.4,3.4,2.1,5.5,2.1c0.3,0,0.4-0.1,0.4-0.4c0.1-1.9,0.1-3.7,0-5.6c0-0.3-0.1-0.3-0.4-0.3C61.6,34.9,60.4,34.9,59.2,34.9z"/>
	<path class="st1" d="M137.3,34.3L137.3,34.3c0.4,0.1,0.9,0.1,1.4,0.1c0.9,0,1.7,0,2.6-0.1c0.6,0,0.7-0.2,0.7-0.8
		c0-0.3-0.1-0.6-0.3-0.9c-1.5-3-4-4.3-7.2-4.6c-0.5,0-0.5,0-0.5,0.5c-0.1,1.8-0.1,3.6,0,5.4c0,0.3,0.1,0.4,0.4,0.4
		C135.3,34.3,136.3,34.3,137.3,34.3z"/>
	<path class="st1" d="M29.1,34.9L29.1,34.9c-1.2,0-2.3,0-3.5,0c-0.6,0-0.6,0-0.5,0.6v0.1c0.2,1.2,0.8,2.2,1.7,3
		c1.6,1.6,3.7,2.3,5.9,2.4c0.3,0,0.4-0.1,0.4-0.4c0-1.8,0-3.6,0-5.3c0-0.4-0.1-0.5-0.5-0.5C31.4,34.9,30.2,34.9,29.1,34.9z"/>
	<path class="st1" d="M20.3,34.9c-1.3,0-2.5-0.1-3.8,0c-0.2,0-0.3,0.1-0.3,0.4c0,1.7,0,3.3,0,5c0,0.9,0,0.9,0.9,0.8
		c2.2-0.3,4.1-1,5.6-2.7c0.8-0.9,1.4-1.9,1.5-3.1c0-0.4,0-0.5-0.4-0.5C22.7,34.9,21.5,34.9,20.3,34.9z"/>
	<path class="st1" d="M98.6,34.3L98.6,34.3c0.3,0,0.6,0,0.8,0c0.9,0,1.9,0,2.8,0c0.3,0,0.4-0.2,0.4-0.4c-0.1-0.8-0.3-1.5-0.8-2.2
		c-1.5-2.2-3.7-3.3-6.3-3.6c-0.2,0-0.3,0-0.5,0s-0.4,0.1-0.4,0.4c0,1.7,0,3.4-0.1,5.2c0,0.7,0.1,0.7,0.7,0.7
		C96.5,34.3,97.6,34.3,98.6,34.3z"/>
	<path class="st1" d="M11.5,34.9c-1.2-0.1-2.4-0.1-3.6,0c-0.3,0-0.4,0.1-0.4,0.4c0,1.8,0,3.6-0.1,5.4c0,0.3,0.1,0.4,0.4,0.4
		c2.3,0,4.3-0.8,6-2.4c0.9-0.9,1.5-2,1.6-3.3c0-0.3-0.1-0.4-0.4-0.4C13.9,34.9,12.7,34.9,11.5,34.9z"/>
	<path class="st1" d="M29.4,34.2c0.9,0,2.1,0,3.3,0c0.3,0,0.3-0.1,0.3-0.3c0-0.4,0-0.7-0.1-1.1c-0.4-1.1-1.1-2-2-2.8
		c-1.6-1.3-3.4-2.1-5.4-2.1c-0.3,0-0.4,0.1-0.4,0.4c-0.1,1.8-0.1,3.5,0,5.3c0,0.6,0.1,0.7,0.7,0.7C26.9,34.2,28,34.2,29.4,34.2z"/>
	<path class="st1" d="M11.5,34.2L11.5,34.2c1.2,0,2.4,0,3.6,0c0.3,0,0.4-0.1,0.4-0.4c0-1.8,0-3.6,0-5.4c0-0.4-0.1-0.5-0.4-0.5
		c-2.7,0.1-5,1.2-6.6,3.3C8,32,7.6,32.9,7.6,33.8c0,0.3,0.1,0.4,0.4,0.4C9.2,34.2,10.4,34.2,11.5,34.2z"/>
	<path class="st2" d="M59.3,34.2L59.3,34.2c1.2,0,2.4,0,3.7,0c0.2,0,0.3,0,0.3-0.2c0-1.9,0-3.9,0-5.8c0-0.2-0.1-0.3-0.3-0.3
		c-0.4,0-0.8,0-1.2,0.1c-1,0.2-2,0.6-2.9,1.1c-1.6,0.8-2.7,2-3.3,3.7c-0.1,0.3-0.2,0.7-0.2,1s0.1,0.4,0.4,0.4
		C56.9,34.2,58.1,34.2,59.3,34.2z"/>
	<g>
		<path class="st3" d="M134.6,43.7c-0.1-0.1-0.4-0.1-0.4,0.1c-0.2,0.4-0.5,0.6-0.9,0.8c-0.1,0-0.1,0.1-0.1,0.2
			c0.4,0,1.2-0.4,1.4-0.6C134.6,44,134.8,43.9,134.6,43.7z M133.4,45.4c-0.1-0.2-0.2-0.3-0.4-0.3c-0.8,0-1.5,0.3-2,0.9
			c-0.2,0.2-0.3,0.6-0.1,0.9c0.1,0.2,0.6,0.4,0.9,0.3c0.5-0.1,0.9-0.3,1.4-0.6c-0.1-0.1-0.1,0-0.2,0c-0.4,0.2-0.7,0.4-1.2,0.5
			c-0.1,0-0.3,0.1-0.4-0.1c-0.1-0.2,0-0.3,0-0.5c0-0.1,0.1-0.1,0.2-0.2c0.3,0,0.5-0.1,0.8-0.2c0.3-0.1,0.6-0.2,0.8-0.4
			C133.4,45.8,133.5,45.6,133.4,45.4z M132.8,45.7c-0.3,0.3-0.7,0.5-1.2,0.6c0.3-0.4,0.5-0.8,0.9-1c0.1-0.1,0.3-0.1,0.4,0
			C133.1,45.5,132.9,45.6,132.8,45.7z M93.4,43.1L93.4,43.1L93.4,43.1C93.1,43,93,43,92.9,43c0,0,0,0-0.1,0l0,0c-0.1,0-0.2,0-0.3,0
			c-0.4,0-0.7,0.1-1.1,0.1l0,0c-0.6,0.1-1.1,0.3-1.6,0.5c-0.1,0-0.2,0.1-0.3,0.1l0,0c-0.2,0.1-0.4,0.2-0.6,0.4
			c-0.4,0.3-0.8,0.6-1.1,1.1c-0.4,0.7-0.2,1.6,0.5,1.9c0.1,0,0.2,0.1,0.3,0.2c0.5,0.4,1.7,0.1,2.1-0.4c-1.3,0.6-1.5,0.6-1.8,0.3
			c0.3,0,0.7-0.1,1-0.2c0.7-0.3,1.3-0.7,1.5-1.6c0.1-0.5-0.1-0.8-0.6-0.8c-0.6,0-1.1,0.1-1.6,0.5s-0.9,0.9-1,1.6
			c-0.2-0.3-0.1-0.6,0-0.8c0.4-0.8,1-1.4,1.7-1.9c0.4-0.3,0.7-0.3,1.1-0.3c0.1,0,0.1,0,0.2,0h0.1c0,0,0,0,0.1,0h0.1
			c0.1,0,0.1,0,0.2,0h0.1l0,0c0.1,0,0.2,0,0.3,0h0.1l0,0c0,0,0,0,0.1,0l0,0l0,0l0,0h0.1c0,0,0,0,0.1,0l0,0h0.1l0,0l0,0l0,0l0,0l0,0
			c-0.5,0-1,0-1.6-0.1l0,0c-0.1,0-0.1,0-0.2,0l0,0c-0.1,0-0.1,0-0.2-0.1C91.6,43.3,92.3,42.9,93.4,43.1z M88.4,46.6
			c0.1-0.9,1.3-1.9,2.2-1.8c0.4,0,0.6,0.4,0.4,0.8c-0.4,0.7-0.9,1.2-1.7,1.5c-0.1,0-0.3,0-0.4,0.1C88.5,47.2,88.4,47,88.4,46.6z
			 M121.5,43.3c-0.1-0.2-0.3-0.2-0.5-0.1l0,0c0.3,0.1,0.3,0.3,0.2,0.5c-0.3,0.5-0.7,0.9-1.2,1.2c-0.2,0.2-0.5,0.3-0.7,0.4
			c0.5-0.8,1-1.5,1.7-2.1l0,0l0,0l0,0c-0.2,0-0.4,0.1-0.6,0.3c-0.6,0.4-1.1,0.9-1.5,1.4c-0.2,0.3-0.5,0.6-0.9,0.5c0,0,0,0,0,0.1
			c0.4,0,0.4,0.1,0.3,0.2c-0.7,1-1.3,2.1-2,3c-0.6,0.8-1.1,0.9-2,0.4c0.2,0.3,0.5,0.4,0.8,0.4c0.6,0,1.1-0.3,1.6-0.7
			c0.8-0.7,1.3-1.6,2-2.5c0.3-0.4,0.5-1,1.2-0.7c0-0.2-0.2-0.1-0.2-0.2c0.1-0.1,0.2-0.1,0.3-0.2c0.6-0.4,1.3-0.7,1.7-1.4
			C121.5,43.6,121.6,43.4,121.5,43.3z M115.4,48.4c-0.1-0.2-0.4-0.2-0.6-0.2c-0.1,0-0.2,0.1-0.4,0.1c-0.3,0.2-0.4,0.5-0.2,0.7
			c0-0.2,0.1-0.4,0.3-0.6c0.1-0.1,0.3-0.2,0.4-0.1c0.2,0.2-0.1,0.2-0.2,0.3c0.3,0.1,0.5,0.1,0.6,0C115.4,48.6,115.4,48.5,115.4,48.4
			z M114.2,49.1L114.2,49.1L114.2,49.1L114.2,49.1L114.2,49.1z M104.7,45.8c-0.6,0.4-1.1,0.9-1.7,1.2c-0.1,0.1-0.3,0.2-0.5,0
			s0-0.3,0.1-0.4c0.4-0.5,0.7-1,1.1-1.5c-0.3,0.1-0.6,0.1-0.9,0.1c-0.7-0.2-1.9,0.2-2.3,0.9c-0.2,0.3-0.2,0.6,0,0.9
			c0.2,0.3,0.5,0.3,0.8,0.1c-0.5,0-0.6-0.1-0.4-0.6s0.6-0.9,1-1.2c0.1-0.1,0.2-0.1,0.4-0.1c0.1,0,0.2-0.1,0.3,0.1
			c0.1,0.1,0,0.2-0.1,0.3c-0.4,0.5-0.8,1.1-1.3,1.5l0,0c0.1,0,0.2-0.1,0.3-0.2c0.1-0.1,0.2-0.1,0.3,0c0.3,0.3,0.6,0.3,0.9,0.2
			c0.5-0.2,0.9-0.5,1.3-0.9c0.2-0.2,0.5-0.3,0.6-0.6C104.8,45.7,104.7,45.8,104.7,45.8z"/>
		<path class="st3" d="M133.4,45.4c-0.1-0.2-0.2-0.3-0.4-0.3c-0.8,0-1.5,0.3-2,0.9c-0.2,0.2-0.3,0.6-0.1,0.9
			c0.1,0.2,0.6,0.4,0.9,0.3c0.5-0.1,0.9-0.3,1.4-0.6c-0.1-0.1-0.1,0-0.2,0c-0.4,0.2-0.7,0.4-1.2,0.5c-0.1,0-0.3,0.1-0.4-0.1
			c-0.1-0.2,0-0.3,0-0.5c0-0.1,0.1-0.1,0.2-0.2c0.3,0,0.5-0.1,0.8-0.2c0.3-0.1,0.6-0.2,0.8-0.4C133.4,45.8,133.5,45.6,133.4,45.4z
			 M132.8,45.7c-0.3,0.3-0.7,0.5-1.2,0.6c0.3-0.4,0.5-0.8,0.9-1c0.1-0.1,0.3-0.1,0.4,0C133.1,45.5,132.9,45.6,132.8,45.7z"/>
		<path class="st3" d="M133.2,44.8c0-0.1,0.1-0.2,0.1-0.2c0.4-0.2,0.7-0.4,0.9-0.8c0.1-0.2,0.3-0.2,0.4-0.1c0.2,0.1,0,0.3-0.1,0.4
			C134.3,44.4,133.5,44.8,133.2,44.8z"/>
		<path class="st3" d="M94.3,48.8c0,0.1,0,0.3-0.1,0.4C94,49.3,94,49.1,94,49c0.3-1-1.7-1.1-1.7-1.1h-1.2c-0.7,0-2.7,0.7-2.8,0.7
			c-1.3,0.4-2.5,0.3-2.5,0.3c-0.3-0.1-0.6-0.2-0.8-0.3c-0.4-0.2-0.7-0.5-0.9-0.8c-0.1-0.1-0.2-0.3-0.2-0.4c-0.2-0.3-0.1-0.6-0.1-1
			c0-0.3,0.1-0.6,0.2-0.9c0.1-0.2,0.2-0.4,0.3-0.5c0.4-0.5,1-0.8,1.5-1.1c0.2-0.1,0.4-0.2,0.6-0.3c0.1-0.1,0.3-0.1,0.4-0.1
			c0.2,0,0.3,0,0.5,0c0.5,0,1,0,1.6,0.1c0.3,0,0.5,0.1,0.8,0.1l0,0c0.6-0.2,1.2-0.4,1.6-0.5l0,0c1.1-0.3,1.7-0.3,1.7-0.3
			c0.2,0,0.4,0.1,0.5,0.2c0.1,0.1,0.1,0.3,0,0.4c-0.1,0.1-0.2,0.2-0.4,0.3c-0.1,0-0.2,0.1-0.3,0.1l0,0h-0.2c0.2,0,0.3-0.1,0.5-0.1
			c0,0,0.3-0.2,0.3-0.4c0-0.1-0.1-0.2-0.1-0.2c-1-0.2-1.8,0.2-2.6,0.6c0.1,0,0.1,0,0.2,0.1l0,0c0.1,0,0.1,0,0.2,0H91l0,0h-1.6l0,0
			l0,0c-0.9-0.2-2.4-0.2-2.4-0.2c-2.7,0.4-3.2,2.4-3.2,2.4s0,0.8,0,0.9c0.8,2.5,3.9,1.7,3.9,1.7c0.3-0.1,0.6-0.2,0.9-0.3
			s0.7-0.2,1-0.3c0.5-0.1,1.1-0.3,1.6-0.3c0.1,0,0.1,0,0.2,0c0.2,0,0.4,0,0.6,0c0.1,0,0.2,0,0.3,0c0.1,0,0.3,0,0.4,0.1
			c0.1,0,0.2,0,0.3,0.1c0.2,0,0.4,0.1,0.6,0.2C94,48.1,94.3,48.4,94.3,48.8z"/>
		<path class="st4" d="M91.1,46.7"/>
		<path class="st3" d="M93.5,43.4c-0.1,0.2-0.3,0.4-0.3,0.4c-0.1,0.1-0.3,0.1-0.5,0.1h-1.5l0,0c-0.1,0-0.1,0-0.2,0l0,0
			c-0.1,0-0.1,0-0.2-0.1c0.8-0.4,1.6-0.9,2.6-0.6l-0.1-0.1l0,0C93.1,43,93,43,92.9,43c0,0,0,0-0.1,0l0,0c-0.1,0-0.2,0-0.3,0
			c-0.4,0-0.7,0.1-1.1,0.1l0,0c-0.6,0.1-1.1,0.3-1.6,0.5c-0.1,0-0.2,0.1-0.3,0.1l0,0c-0.2,0.1-0.4,0.2-0.6,0.4
			c-0.4,0.3-0.8,0.6-1.1,1.1c-0.4,0.7-0.2,1.6,0.5,1.9c0.1,0,0.2,0.1,0.3,0.2c0.5,0.4,1.7,0.1,2.1-0.4c-1.3,0.6-1.5,0.6-1.8,0.3
			c0.3,0,0.7-0.1,1-0.2c0.7-0.3,1.3-0.7,1.5-1.6c0.1-0.5-0.1-0.8-0.6-0.8c-0.6,0-1.1,0.1-1.6,0.5s-0.9,0.9-1,1.6
			c-0.2-0.3-0.1-0.6,0-0.8c0.4-0.8,1-1.4,1.7-1.9c0.4-0.3,0.7-0.3,1.1-0.3c0.1,0,0.1,0,0.2,0h0.1c0,0,0,0,0.1,0h0.1
			c0.1,0,0.1,0,0.2,0h0.1l0,0c0.1,0,0.2,0,0.3,0h0.1l0,0c0,0,0,0,0.1,0l0,0l0,0l0,0h0.1c0,0,0,0,0.1,0l0,0h0.1l0,0l0,0l0,0l0,0
			c0.1,0,0.1,0,0.2-0.1C93.4,43.7,93.5,43.5,93.5,43.4z M88.4,46.6c0.1-0.9,1.3-1.9,2.2-1.8c0.4,0,0.6,0.4,0.4,0.8
			c-0.4,0.7-0.9,1.2-1.7,1.5c-0.1,0-0.3,0-0.4,0.1C88.5,47.2,88.4,47,88.4,46.6z"/>
		<path class="st3" d="M90.8,43.8L90.8,43.8z"/>
	</g>
	<g>
		<g>
			<path class="st5" d="M22,61.3c-0.1-0.9-0.2-1.9-0.2-2.8c0-0.1,0.1-0.3-0.1-0.3s-0.3,0.1-0.3,0.2c-0.2,0.4-0.5,0.7-0.7,1
				s-0.4,0.7-0.7,1.1c0-0.1-0.1-0.1-0.1-0.2c-0.4-0.9-0.8-1.8-1.2-2.7c0-0.1-0.1-0.2-0.2-0.2s-0.2,0.1-0.2,0.2
				c-0.1,0.4-0.3,0.9-0.4,1.3c-0.1,0.4-0.2,0.7-0.3,1.1c-0.2-1.2-1.1-2.4-2-2.4c-1.1-0.1-2.1,0.8-2.5,2c-0.4-0.3-0.9-0.6-1.3-0.9
				c-0.1-0.1-0.4-0.3-0.2-0.5s0.4-0.3,0.6-0.1c0.2,0.1,0.3,0.2,0.4,0.3c0.1,0.1,0.2,0.3,0.4,0.4c0.1-0.4,0.1-0.6,0.1-0.9
				c0-0.1,0-0.2-0.1-0.2c-0.7-0.2-1.4-0.3-2,0.2c-0.6,0.4-0.6,0.6-0.2,1.1c0.4,0.4,0.9,0.8,1.3,1.3c0.1,0.1,0.2,0.2,0.2,0.4
				c-0.1,0.2-0.2,0.3-0.4,0.2c-0.3,0-0.5-0.2-0.8-0.3c-0.2-0.1-0.4-0.4-0.6-0.3c-0.2,0.1-0.3,0.5-0.4,0.7l0,0
				c-0.1,0.1,0,0.2,0.1,0.2c0.4,0.1,0.9,0.3,1.3,0.4c0.4,0.1,0.7,0,1-0.2c0.3-0.3,0.6-0.5,0.9-0.9c0.5,0.9,1.5,1.1,2.4,1.3
				c0.1,0,0.2-0.1,0.3-0.1c0.5-0.3,0.9-0.5,1.3-1c-0.1,0.6-0.1,0.6,0.4,0.7c0.1,0,0.2,0,0.3,0.1c0.3,0.1,0.6-0.1,0.9-0.2
				c-0.9-0.2-0.9-0.8-0.8-1.5c0-0.1,0-0.3,0-0.4c0-0.3,0-0.5,0.2-0.8c0.6,1,1,2.1,1.4,3.3c0.4-0.9,0.8-1.7,1.4-2.5
				c0,0.9,0.7,1.8-0.1,2.8c0.6,0.1,1.1,0.4,1.7,0C22,62.1,22,61.7,22,61.3z M16.2,60.6L16.2,60.6L16.2,60.6c0,0.1,0,0.1,0,0.2l0,0
				l0,0l0,0l0,0l0,0l0,0l0,0l0,0l0,0l0,0l0,0l0,0l0,0l0,0l0,0l0,0l0,0l0,0l0,0l0,0c0,0,0,0-0.1,0l0,0l0,0l0,0l0,0l0,0H16l0,0l0,0
				c0,0,0,0-0.1,0s-0.1,0-0.2-0.1l0,0l0,0l0,0c0,0-0.1-0.1-0.2-0.1c-0.5-0.3-0.9-0.6-1-1.2c-0.1-0.4,0-0.8,0.4-1.1
				c0.3-0.3,0.6-0.1,0.9,0l0,0l0,0c0,0,0,0,0.1,0l0,0l0,0l0,0l0,0l0,0l0,0l0,0l0,0l0,0l0,0l0,0l0,0c0,0,0,0,0.1,0.1l0,0l0,0l0,0
				c0,0,0,0,0,0.1l0,0l0,0l0,0l0,0l0,0l0,0l0,0v0.1l0,0l0,0l0,0c0,0,0,0,0,0.1l0,0v0.1l0,0l0,0l0,0l0,0l0,0l0,0c0,0,0,0,0,0.1l0,0
				l0,0V59c0,0,0,0,0,0.1l0,0l0,0c0,0,0,0,0,0.1C16.2,60.4,16.2,60.4,16.2,60.6C16.2,60.5,16.2,60.5,16.2,60.6z"/>
		</g>
	</g>
	<g>
		<path class="st5" d="M81.5,61.4c-0.1-1-0.2-2-0.2-2.9c0-0.1,0.1-0.3-0.1-0.3c-0.1,0-0.2,0-0.3,0.2c0,0.1-0.1,0.2-0.2,0.2
			c-0.4,0.6-0.8,1.2-1.2,1.8c-0.1,0-0.1-0.1-0.1-0.1c-0.4-0.9-0.8-1.7-1.2-2.6c0-0.1-0.1-0.3-0.2-0.2c-0.2,0-0.2,0.2-0.2,0.3
			c-0.1,0.3-0.2,0.6-0.3,0.9c-0.1,0.5-0.3,0.9-0.4,1.4c-0.1-0.7-0.4-1.3-0.9-1.8c-0.7-0.7-1.5-0.8-2.3-0.3c-0.6,0.4-1.1,0.9-1.2,1.7
			c-0.3-0.2-0.5-0.3-0.7-0.5s-0.4-0.3-0.6-0.5c-0.1-0.1-0.2-0.2-0.1-0.4s0.3-0.2,0.5-0.2s0.4,0.2,0.6,0.4c0.1,0.1,0.2,0.3,0.4,0.5
			c0.1-0.4,0.1-0.7,0.1-0.9c0-0.1,0-0.2-0.1-0.2c-0.6-0.1-1.1-0.3-1.7,0c-1,0.4-1.1,0.8-0.3,1.6c0.4,0.3,0.7,0.7,1.1,1
			c0.1,0.1,0.2,0.2,0.1,0.3S71.8,61,71.6,61c-0.2,0-0.3,0-0.5-0.1c-0.4-0.1-0.7-0.3-1-0.6c-0.2,0.3-0.3,0.6-0.4,0.8
			c-0.1,0.1,0,0.2,0.1,0.2c0.5,0.1,0.9,0.3,1.4,0.4c0.3,0.1,0.6,0,0.9-0.2c0.3-0.3,0.6-0.6,0.9-0.9c0.5,0.9,1.4,1.1,2.3,1.3
			c0.1,0,0.2,0,0.3-0.1c0.5-0.3,1-0.5,1.3-0.9c0.1,0.2-0.2,0.4,0.1,0.5c0.5,0.1,1,0.3,1.6-0.1c-0.2-0.1-0.3-0.1-0.4-0.2
			c-0.2-0.1-0.4-0.2-0.4-0.4c0-0.7,0-1.4,0.2-2.1c0.7,1.1,1.1,2.1,1.4,3.4c0.4-1,0.8-1.8,1.4-2.6c0,0.5,0.1,0.9,0.2,1.3
			c0.1,0.5,0.2,1.1-0.3,1.5c0.6,0.1,1.1,0.4,1.7,0C81.6,62.1,81.5,61.8,81.5,61.4z M74.7,61c-0.6-0.3-1-0.7-1.1-1.3
			c-0.1-0.5,0.2-0.8,0.5-1s0.6-0.1,0.9,0c0.6,0.3,0.8,0.8,0.8,1.7C75.7,61.1,75.4,61.3,74.7,61z"/>
	</g>
	<path class="st5" d="M39.3,61.8c-0.9-0.5-1.5-1.4-2.1-2.1c-0.2-0.2-0.1-0.3,0.1-0.4c0.5-0.3,0.9-0.7,1.3-1c0.1-0.1,0.2-0.1,0.2-0.2
		c-0.4-0.2-0.8-0.2-1.3-0.2c-0.1,0-0.2,0-0.2,0.2c-0.1,0.7-0.7,1-1.3,1.4c0-0.2,0-0.3,0-0.5c0-0.4,0.1-0.8,0.1-1.2
		c0-0.1,0-0.3-0.2-0.2c-0.6,0.1-1.1,0.2-1.7,0.4c0.3,0.2,0.6,0.5,0.7,0.8c0.2,0.7,0.2,1.4,0,2.1c-0.1,0.5-0.2,0.5-0.7,0.4
		c-0.1,0-0.3-0.1-0.4-0.1c-0.2-0.1-0.3-0.2-0.4-0.5c0-0.7,0-1.5,0.1-2.2c0-0.2,0.1-0.5,0.1-0.7c0-0.1,0-0.2-0.2-0.2
		c-0.5,0.2-1,0.4-1.6,0.6c0.4,0.1,0.5,0.3,0.6,0.6c0.2,0.8,0.2,1.7-0.1,2.5c-0.1,0.2,0,0.3,0.2,0.4c0.5,0.2,1.1,0.2,1.6,0.1
		c0.3-0.1,0.6-0.1,0.9,0c0.5,0.1,1,0.2,1.6,0.3c-0.1-0.2-0.3-0.2-0.4-0.3c-0.1-0.1-0.3-0.2-0.3-0.4c0-0.4,0-0.9,0-1.3
		c0.6,0.6,1.1,1.1,1.4,1.8c0.3,0.6,0.8,0.6,1.4,0.6c0.2,0,0.4-0.2,0.6-0.3C39.4,61.9,39.4,61.9,39.3,61.8z"/>
	<path class="st6" d="M121.2,61.5c-0.1-1-0.2-2-0.3-3c0-0.1,0.1-0.2-0.1-0.2c-0.1,0-0.2,0-0.3,0.1c-0.1,0.1-0.1,0.2-0.2,0.2
		c-0.4,0.6-0.7,1.1-1.1,1.7c0,0.1-0.1,0.2-0.2,0.2s-0.1-0.1-0.1-0.2c-0.4-0.8-0.7-1.6-1.1-2.5c-0.1-0.1-0.1-0.3-0.2-0.3
		c-0.2,0-0.2,0.2-0.2,0.3c-0.2,0.8-0.5,1.6-0.8,2.5c-0.2-0.6-0.6-0.9-1.1-1.2c-0.2-0.1-0.4-0.3-0.6-0.5c-0.2-0.3-0.2-0.5,0.1-0.6
		c0.2-0.1,0.4,0,0.6,0.1c0.2,0.2,0.4,0.4,0.6,0.6c0-0.3,0.1-0.5,0.1-0.7c0-0.1,0-0.2-0.2-0.3c-0.6-0.2-1.2-0.2-1.8,0.1
		c-0.7,0.4-0.8,0.7-0.2,1.2c0.4,0.4,0.8,0.7,1.2,1.1c0.1,0.1,0.3,0.3,0.2,0.5c-0.1,0.2-0.3,0.2-0.6,0.2c-0.4-0.1-0.8-0.2-1.1-0.5
		c-0.2-0.1-0.2-0.1-0.3,0.1c-0.1,0.3-0.4,0.4-0.2,0.8l0,0c0.4,0.1,0.8,0.3,1.2,0.4c0.3,0.1,0.6,0.1,0.9-0.2s0.6-0.5,0.9-0.8
		c-0.1,0.2-0.1,0.4-0.1,0.5s-0.1,0.2,0.1,0.2c0.5,0.1,1,0.3,1.4,0c-0.2-0.1-0.4-0.2-0.5-0.3s-0.2-0.2-0.2-0.4c0-0.6,0.1-1.3,0.2-1.9
		c0-0.1,0-0.1,0.1-0.1s0.1,0.1,0.2,0.1c0.1,0.3,0.3,0.6,0.4,0.8c0.3,0.7,0.6,1.4,0.8,2.2c0.4-0.9,0.8-1.7,1.4-2.4
		c0,0.9,0.7,1.9,0,2.8c0.5,0.1,1,0.4,1.5,0C121.3,62.1,121.2,61.8,121.2,61.5z"/>
	<path class="st5" d="M108.8,57.5c-0.4-0.1-0.7-0.2-1.1-0.3c-0.1,0-0.3-0.1-0.3,0.1c-0.1,0.3-0.3,0.6-0.3,1c0.2,0,0.4,0,0.6,0
		c0.3,0,0.4,0.1,0.4,0.4c0,0.5,0.1,1,0.1,1.5c0,1-0.8,1.4-1.6,0.9c-0.2-0.1-0.3-0.2-0.3-0.5c0-0.7,0-1.5,0.1-2.2
		c0.1-0.3,0.1-0.5,0.1-0.8c0-0.2,0-0.3-0.2-0.2c-0.5,0.2-1,0.3-1.5,0.5c0.4,0.1,0.5,0.4,0.6,0.7c0.2,0.8,0.2,1.6-0.1,2.4
		c-0.1,0.3,0,0.3,0.2,0.4c0.5,0.2,1.1,0.2,1.6,0.1c0.7-0.2,1.4-0.1,2.1-0.1c0.2,0,0.4,0,0.6,0.1v-0.1c-0.2-0.1-0.4-0.2-0.7-0.3
		c-0.1,0-0.2-0.1-0.1-0.2c0.2-0.7,0.3-1.5,0.4-2.2c0-0.2,0.1-0.2,0.3-0.3c0.5,0,1-0.1,1.5-0.1c0.2,0,0.4,0,0.6-0.2
		C110.6,58.1,109.7,57.9,108.8,57.5z"/>
	<path class="st5" d="M98.8,61.8c-0.9-0.5-1.5-1.4-2.1-2.2c-0.1-0.2,0-0.2,0.1-0.3c0.3-0.2,0.7-0.5,1-0.7c0.2-0.1,0.4-0.3,0.6-0.5
		c-0.4-0.2-0.9-0.2-1.3-0.2c-0.1,0-0.2,0-0.2,0.2c-0.1,0.7-0.7,1-1.2,1.4c0-0.6,0.1-1.1,0.1-1.6c0-0.2,0-0.3-0.2-0.3
		c-0.5,0.1-1.1,0.2-1.6,0.4c0.9,0.8,1.1,2.3,0.4,3.5c0.7,0.2,1.4,0.3,2,0.5c-0.1-0.1-0.2-0.2-0.3-0.3c-0.2-0.1-0.4-0.2-0.4-0.4
		c0-0.5,0-0.9,0-1.4c0.5,0.5,1,1.1,1.3,1.7c0.3,0.6,0.8,0.7,1.3,0.7c0.3,0,0.5-0.1,0.7-0.3C98.9,61.9,98.8,61.9,98.8,61.8z"/>
	<path class="st6" d="M129.7,61.5c-0.6-0.5-1-1.1-1.5-1.7c-0.2-0.2-0.2-0.3,0.1-0.4c0.5-0.4,1-0.7,1.6-1.2c-0.5-0.1-0.9-0.2-1.3-0.2
		c-0.1,0-0.1,0-0.2,0.1c-0.1,0.6-0.5,0.9-1,1.2c-0.1,0.1-0.2,0.2-0.3,0.1c-0.1-0.1-0.1-0.2,0-0.3c0-0.4,0.1-0.8,0.1-1.2
		c0-0.2,0-0.3-0.2-0.3c-0.5,0-1,0.1-1.6,0.3c0.6,0.4,0.8,1,0.8,1.6s0,1.3-0.4,1.8c0.7,0.1,1.3,0.3,1.9,0.4c0,0,0.1,0,0.1-0.1
		c-0.7-0.2-0.7-0.7-0.7-1.3c0-0.1,0-0.3,0-0.4c0-0.1,0-0.2,0.1-0.3s0.1,0.1,0.2,0.2c0.5,0.6,0.9,1.2,1.3,1.8
		c0.4,0.6,1.3,0.6,1.8,0.1C130.2,61.8,129.9,61.6,129.7,61.5z"/>
	<g>
		<g>
			<path class="st6" d="M62.4,59.8c-0.1-0.5-0.4-1-0.7-1.4c-0.6-0.7-1.2-0.9-2-0.6c-1,0.4-1.6,1.1-1.6,2c0,0.3,0,0.6,0.2,0.9
				c0.3,0.6,1.7,1.3,2.4,1.2h0.1c0.4-0.2,0.8-0.4,1.2-0.8C62.4,60.7,62.5,60.3,62.4,59.8z M60.2,61c-0.5-0.3-0.9-0.7-1.1-1.2
				C59,59.5,59,59.2,59.2,59c0.2-0.3,0.4-0.6,0.8-0.5c0.5,0.1,1,0.4,1.1,1c0.1,0.3,0.1,0.5,0.1,0.8C61.3,61.2,61,61.4,60.2,61z"/>
		</g>
	</g>
	<g>
		<path class="st6" d="M125.6,59.8c-0.1-0.8-0.6-1.4-1.2-1.9c-0.1-0.1-0.3-0.2-0.5-0.2c-1.2-0.2-2.7,1-2.6,2c0,0.6,0.2,1,0.6,1.4
			c0.6,0.5,1.3,0.7,2,0.8c0.1,0,0.1,0,0.2,0c0.4-0.2,0.8-0.4,1.1-0.7C125.5,60.8,125.7,60.3,125.6,59.8z M123.4,61
			c-0.6-0.3-1-0.7-1.1-1.3c-0.1-0.5,0.2-0.8,0.5-1c0.3-0.3,0.6-0.2,0.9,0c0.7,0.4,0.9,1,0.8,1.6C124.5,61.2,124.2,61.4,123.4,61z"/>
	</g>
	<path class="st6" d="M137,58.3c-0.4,0-0.8,0.1-1.3,0.2c0.3,0.2,0.4,0.3,0.4,0.6c0.1,0.6,0.1,1.2,0,1.8c0,0.1,0,0.2-0.1,0.2
		s-0.1-0.1-0.2-0.1c-0.9-1-1.6-2-1.9-3.3c0-0.1-0.1-0.2-0.2-0.1c-0.4,0.1-0.8,0.2-1.3,0.4c0.5,0.3,0.6,0.5,0.7,0.8
		c0.1,0.9,0.1,1.8-0.4,2.5c-0.1,0.1,0,0.1,0.1,0.2c0.3,0.1,1,0.1,1.3-0.2c-0.2-0.2-0.6-0.2-0.5-0.5c0-0.4,0-0.9,0-1.3
		c0-0.1,0-0.1,0.1-0.1s0.1,0.1,0.1,0.1c0.2,0.2,0.4,0.5,0.6,0.7c0.6,0.7,1.3,1.4,2,2.1c0.2-0.3,0.2-0.6,0.2-0.9
		c0.2-0.9,0.4-1.8,0.5-2.7C137.2,58.5,137.2,58.3,137,58.3z"/>
	<path class="st5" d="M40.4,60.2c0.1-0.3,0.3-0.2,0.5-0.2c0.8,0,1.6,0,2.5,0c-0.1-0.1-0.3-0.1-0.4-0.1c-0.8-0.1-1.5-0.3-2.2-0.7
		c-0.1-0.1-0.2-0.1-0.2-0.3c0-0.4,0.2-0.6,0.5-0.5c0.5,0.1,0.8,0.5,1,0.9c0.2-0.3,0.3-0.6,0.4-0.9c0.2-0.4,0.1-0.6-0.4-0.6
		c-0.4,0-0.8,0-1.1,0.1s-0.4,0.1-0.3-0.3c0-0.1,0-0.2-0.1-0.2c-0.6,0.2-1.1,0.2-1.7,0.5c0.5-0.1,0.7,0.1,0.8,0.5
		c0.1,0.9,0.2,1.9-0.4,2.8c1.2,0.5,2.4,0.7,3.8,0c-0.9,0-1.6-0.3-2.4-0.6C40.4,60.6,40.3,60.4,40.4,60.2z"/>
	<path class="st5" d="M83,60.2c0.1-0.3,0.3-0.3,0.5-0.3c0.5,0,0.9,0,1.4,0c0.3,0,0.7,0,1,0c-0.1-0.1-0.2-0.1-0.4-0.1
		c-0.8-0.1-1.5-0.3-2.2-0.7C83,59,83,58.7,83.1,58.5s0.3-0.2,0.5-0.2c0.3,0.1,0.6,0.3,0.8,0.6c0.1,0.1,0.1,0.2,0.2,0.4
		c0.2-0.3,0.3-0.6,0.5-0.9c0.2-0.3,0-0.5-0.3-0.5c-0.4,0-0.8,0-1.2,0.2c-0.2,0.1-0.4,0.1-0.3-0.2c0.1-0.2,0-0.3-0.2-0.2
		c-0.3,0.1-0.6,0.2-0.9,0.2c-0.1,0-0.2,0.1-0.3,0.1c-0.1,0-0.2,0-0.3,0.2c0.6,0,0.8,0.2,0.8,0.7c0,0.9,0.1,1.8-0.4,2.6
		c1.4,0.6,2.5,0.6,3.7,0c-0.8,0-1.5-0.3-2.2-0.6C83.1,60.7,82.9,60.5,83,60.2z"/>
	<path class="st5" d="M100.4,59.9c0.8,0,1.6,0,2.4,0c0,0,0,0,0-0.1c-0.1,0-0.2-0.1-0.4-0.1c-0.8-0.1-1.5-0.3-2.2-0.7
		c-0.3-0.1-0.3-0.3-0.2-0.6c0.1-0.3,0.3-0.2,0.5-0.1c0.4,0.2,0.8,0.5,1,1c0.2-0.3,0.3-0.6,0.5-0.9c0.2-0.4,0.1-0.5-0.4-0.5
		c-0.4,0-0.9,0.1-1.3,0.2c-0.2,0.1-0.3,0-0.2-0.2c0.1-0.4-0.1-0.3-0.3-0.2c-0.2,0.1-0.5,0.1-0.8,0.2c-0.2,0.1-0.5,0.1-0.7,0.3
		c0.6,0,0.7,0.1,0.8,0.5c0.1,0.9,0.2,1.8-0.3,2.6c-0.1,0.1-0.1,0.2,0.1,0.2c0.5,0.1,1,0.3,1.6,0.4c0.7,0.1,1.3-0.1,2-0.4
		c-0.8-0.1-1.5-0.3-2.2-0.7c-0.3-0.1-0.4-0.3-0.3-0.6C99.9,59.9,100.2,59.9,100.4,59.9z"/>
	<path class="st6" d="M58.2,61.7c-0.6-0.3-0.6-0.4-0.6-1c0-0.9,0.1-1.8,0.3-2.8c-0.5,0.4-0.9,0.5-1.4,0.7c0.3,0.1,0.4,0.3,0.5,0.6
		c0,0.3-0.1,0.3-0.3,0.3c-0.4-0.1-0.8-0.3-1.2-0.5c-0.2-0.1-0.2-0.2-0.2-0.4c0-0.3,0.1-0.7,0.2-1.1c-0.5,0.2-1,0.4-1.5,0.5
		c0.3,0,0.5,0.3,0.5,0.5c0.2,0.9,0.2,1.7-0.2,2.6c-0.1,0.1-0.1,0.2,0.1,0.2c0.5,0.1,1.1,0.2,1.7,0c-0.2-0.1-0.4-0.2-0.6-0.4
		c-0.2-0.2-0.4-0.9-0.2-1.1c0-0.1,0.1-0.1,0.1-0.1c0.5,0,1,0,1.5-0.1c0.1,0,0.2,0,0.2,0.2c0,0.6,0.2,1.2-0.2,1.8
		c-0.1,0.2,0,0.2,0.1,0.3c0.5,0.3,1.1,0.1,1.7-0.1C58.3,61.8,58.3,61.8,58.2,61.7z"/>
	<path class="st6" d="M64.2,59.3c0.1-0.9,0.1-0.9,1-1c0.4,0,0.9,0,1.3-0.2c-0.6-0.1-1.1-0.1-1.7-0.2c-0.5-0.2-1-0.4-1.6-0.5
		c-1-0.3-0.9-0.3-1.2,0.7v0.1c0.2,0,0.4-0.1,0.6-0.1c0.3,0,0.4,0.1,0.5,0.5c0,0.4,0,0.8,0.1,1.2c0.1,0.6-0.1,1.1-0.7,1.4
		c0,0,0,0,0,0.1c0.7-0.1,1.4,0.1,2.2,0c-0.2-0.1-0.4-0.2-0.6-0.2c-0.2-0.1-0.3-0.2-0.2-0.4C64.1,60.3,64.2,59.8,64.2,59.3z"/>
	<path class="st5" d="M30.2,60.9c-0.3-0.2-0.4-0.4-0.4-0.7c0.1-0.8,0.2-1.6,0.3-2.4c0-0.1,0.1-0.3-0.1-0.2c-0.6,0.1-1.1,0.3-1.8,0.5
		c0.7,0.2,0.8,0.4,0.9,1c0.1,0.5,0.1,1,0,1.5c0,0.2-0.1,0.4-0.2,0.6c-0.2,0.3-0.1,0.3,0.2,0.4c0.7,0.2,1.4,0.4,2.1,0.5
		c0.4,0.1,0.8,0,1.2-0.2C31.5,61.6,30.8,61.3,30.2,60.9z"/>
	<path class="st5" d="M93.4,61.2c-0.3-0.1-0.4-0.3-0.5-0.6c0-0.7,0-1.5,0.1-2.2c0-0.2,0.1-0.5,0.1-0.7c0-0.1,0-0.2-0.2-0.2
		c-0.5,0.2-1,0.4-1.6,0.6c0.4,0.1,0.5,0.3,0.6,0.6c0.2,0.8,0.2,1.7-0.1,2.5c-0.1,0.2,0,0.3,0.2,0.4c0.7,0.3,1.3,0.2,2,0
		C93.9,61.3,93.7,61.3,93.4,61.2z"/>
	<path class="st6" d="M66.9,60.7c-0.2,0-0.4,0-0.5,0.2s0,0.4,0.2,0.6c0.3,0.2,0.4,0.4,0.1,0.6c0,0-0.1,0.1,0,0.1c0,0.1,0.1,0,0.1,0
		c0.3-0.1,0.6-0.6,0.6-0.9C67.4,61.1,67.2,60.8,66.9,60.7z"/>
	<path class="st5" d="M50.1,61.5L50.1,61.5C49,61.4,48,61.4,47,61.6c-0.4,0.1-0.8,0-1.2-0.2c-0.2-0.1-0.2-0.1-0.1-0.3
		c0.3-0.8,0.3-1.6,0.1-2.5c-0.1-0.3-0.2-0.5-0.6-0.6c0.6-0.2,1.1-0.4,1.6-0.6c0.2-0.1,0.2,0.1,0.2,0.2c0,0.2,0,0.4-0.1,0.6
		c-0.2,0.8-0.2,1.6-0.2,2.3c0,0.3,0.1,0.4,0.4,0.5c0.9,0.4,1.5,0,1.5-1c0-0.5-0.1-1-0.1-1.5c0-0.3-0.1-0.4-0.4-0.4H48
		c-0.2,0-0.4,0.1-0.5,0c-0.1-0.2,0.1-0.4,0.1-0.6c0.2-0.5,0.2-0.5,0.8-0.4c0.2,0,0.4,0.1,0.7,0.2c0.9,0.4,1.8,0.6,2.7,0.6
		c0.1,0,0.2,0,0.3,0.1c-0.4,0.2-0.8,0.2-1.1,0.2s-0.6,0.1-0.9,0.1c-0.2,0-0.3,0.1-0.3,0.2c-0.1,0.7-0.2,1.5-0.4,2.2
		c0,0.1,0,0.2,0.1,0.2C49.7,61.2,49.9,61.3,50.1,61.5L50.1,61.5z"/>
	<path class="st5" d="M25.2,59.3c-0.2-0.5-0.6-0.8-1-1c-0.3-0.1-0.5,0-0.5,0.4c0,0.2,0.1,0.3,0.3,0.3c0.7,0.4,1.4,0.5,2.2,0.7
		c0.1,0,0.3,0,0.4,0.1c-0.9,0-1.7,0-2.5,0c-0.4,0-0.5,0.1-0.5,0.5c0,0.2,0.1,0.2,0.2,0.3c0.7,0.4,1.5,0.6,2.4,0.7
		c-0.8,0.6-2.4,0.6-3.7,0c0.6-0.8,0.4-1.8,0.4-2.7c0-0.5-0.2-0.6-0.8-0.6c0.1-0.1,0.3-0.1,0.4-0.2c0.3-0.1,0.6-0.1,1-0.2
		c0.3-0.1,0.5-0.2,0.4,0.3c0,0.2,0.1,0.1,0.2,0.1c0.4-0.1,0.8-0.2,1.3-0.2c0.4,0,0.5,0.2,0.4,0.6C25.5,58.7,25.3,59,25.2,59.3z"/>
	<path class="st5" d="M87.7,58c0.6-0.2,1.2-0.3,1.7-0.5c0.2-0.1,0.2,0.2,0.2,0.3c0,0.7-0.1,1.4-0.2,2.2s-0.1,0.8,0.6,1.1
		c0.6,0.3,1.2,0.5,1.9,0.7c-0.4,0.3-0.7,0.3-1.1,0.3c-0.8-0.1-1.5-0.3-2.3-0.5c-0.2-0.1-0.3-0.1-0.1-0.3c0.2-0.2,0.2-0.5,0.2-0.8
		c0-0.4,0-0.8,0-1.2C88.6,58.4,88.4,58.2,87.7,58z"/>
	<path class="st6" d="M132.5,61.5c-0.7,0.2-1.3,0.2-1.9,0c-0.2-0.1-0.2-0.1-0.1-0.3c0.3-0.8,0.3-1.6,0.1-2.4
		c-0.1-0.3-0.2-0.5-0.5-0.7c0.5-0.2,1-0.3,1.4-0.5c0.2-0.1,0.3,0,0.2,0.2c-0.1,0.4-0.1,0.8-0.2,1.2c-0.1,0.5-0.1,1.1-0.1,1.6
		c0,0.4,0.2,0.6,0.5,0.7C132.1,61.3,132.3,61.3,132.5,61.5z"/>
	<path class="st5" d="M16.2,60.6L16.2,60.6L16.2,60.6z"/>
	<path class="st5" d="M16.2,60.5L16.2,60.5L16.2,60.5z"/>
	<path class="st5" d="M16.2,60.5c0-0.1,0-0.1,0-0.2c0,0,0,0,0-0.1c0,0,0,0,0,0.1C16.2,60.4,16.2,60.4,16.2,60.5z"/>
</g>
<rect y="85.5" class="st7" width="150" height="14.5"/>
<g>
	<path class="st8" d="M148.1,84.4c-0.5,0.8-0.5,1.5-0.1,2.2c0.3,0.5,0.4,1,0.6,1.5c0.3,0.9,0.2,1.4-0.7,1.8c-0.7,0.4-1.4,0.7-2,1.1
		c-0.3,0.2-0.5,0.5-0.6,0.8c-0.2,0.8-0.3,1.5-0.4,2.3c-0.2,0.9-0.6,1.3-1.5,1.2c-0.8-0.1-1.5-0.3-2.3-0.3c-0.3,0-0.7,0.1-0.9,0.3
		c-0.6,0.5-1.1,1.1-1.7,1.6c-0.6,0.6-1.2,0.6-1.9,0c-0.6-0.5-1.1-1.1-1.7-1.6c-0.2-0.2-0.6-0.3-0.9-0.3c-0.7,0.1-1.4,0.2-2.1,0.3
		c-1,0.1-1.6-0.3-1.8-1.3c-0.1-0.5-0.2-1.1-0.2-1.6c0-0.8-0.4-1.3-1.1-1.6c-0.4-0.2-0.8-0.4-1.3-0.6c-1.1-0.6-1.3-1.2-0.8-2.3
		c0.3-0.6,0.6-1.2,0.9-1.9c0.1-0.3,0.1-0.6,0-0.9c-0.3-0.7-0.7-1.3-1-2c-0.5-0.9-0.3-1.6,0.7-2.1c0.6-0.3,1.2-0.6,1.8-0.9
		c0.5-0.2,0.8-0.6,0.8-1.2c0.1-0.7,0.2-1.4,0.3-2.2c0.2-0.8,0.6-1.1,1.5-1.1c0.7,0.1,1.5,0.2,2.3,0.4c0.5,0.1,0.8,0,1.1-0.3
		c0.6-0.6,1.2-1.1,1.8-1.7c0.6-0.5,1.2-0.5,1.8,0c0.6,0.6,1.1,1.2,1.7,1.7c0.2,0.2,0.6,0.3,0.9,0.3c0.7-0.1,1.4-0.2,2.1-0.3
		c1.1-0.2,1.6,0.3,1.8,1.3c0,0.2,0.1,0.4,0.1,0.6c-0.1,1.6,0.7,2.5,2.1,2.9c0.2,0.1,0.5,0.2,0.7,0.4c0.7,0.4,1,1.1,0.6,1.9
		C148.6,83.4,148.4,84,148.1,84.4z"/>
	<path class="st9" d="M139.8,80.4c0-0.4,0.1-0.8,0.3-1c0.2-0.3,0.5-0.4,0.9-0.4s0.7,0.1,0.9,0.4s0.4,0.6,0.4,1.1s-0.1,0.9-0.4,1.1
		S141.4,82,141,82c-0.3,0-0.6-0.1-0.9-0.4S139.8,80.9,139.8,80.4z M141,79.4c-0.2,0-0.3,0.1-0.4,0.2c-0.1,0.2-0.2,0.4-0.2,0.8
		s0.1,0.6,0.2,0.8s0.3,0.2,0.4,0.2c0.2,0,0.3-0.1,0.4-0.2c0.1-0.2,0.2-0.4,0.2-0.8s-0.1-0.6-0.2-0.8S141.2,79.4,141,79.4z M141,84.9
		l3.1-6h0.6l-3.1,6H141z M143.5,83.4c0-0.4,0.1-0.8,0.3-1c0.2-0.3,0.5-0.4,0.9-0.4s0.7,0.1,0.9,0.4s0.4,0.6,0.4,1.1
		s-0.1,0.9-0.4,1.1s-0.5,0.4-0.9,0.4c-0.3,0-0.6-0.1-0.9-0.4S143.5,83.9,143.5,83.4z M144.7,82.4c-0.2,0-0.3,0.1-0.4,0.2
		c-0.1,0.2-0.2,0.4-0.2,0.8s0.1,0.6,0.2,0.8s0.3,0.2,0.4,0.2c0.2,0,0.3-0.1,0.4-0.2c0.1-0.2,0.2-0.4,0.2-0.8s-0.1-0.6-0.2-0.8
		S144.9,82.4,144.7,82.4z"/>
	<path class="st9" d="M130.8,89.9c0-1,0.3-1.7,0.8-2.2s1.2-0.8,2-0.8c0.5,0,1,0.1,1.4,0.4s0.7,0.6,1,1.1s0.3,1,0.3,1.5
		c0,0.6-0.1,1.1-0.4,1.6s-0.6,0.8-1,1s-0.9,0.4-1.4,0.4s-1-0.1-1.4-0.4s-0.7-0.6-1-1.1S130.8,90.4,130.8,89.9z M131.5,90
		c0,0.7,0.2,1.2,0.6,1.6s0.8,0.6,1.4,0.6c0.6,0,1-0.2,1.4-0.6s0.6-1,0.6-1.7c0-0.5-0.1-0.9-0.2-1.2c-0.2-0.3-0.4-0.6-0.7-0.8
		c-0.3-0.2-0.6-0.3-1-0.3c-0.5,0-1,0.2-1.4,0.6S131.5,89.1,131.5,90z"/>
	<path class="st9" d="M136.5,92.7V87h3.9v0.7h-3.1v1.8h2.7v0.7h-2.7v2.6L136.5,92.7L136.5,92.7z"/>
	<path class="st9" d="M140.7,92.7V87h3.9v0.7h-3.1v1.8h2.7v0.7h-2.7v2.6L140.7,92.7L140.7,92.7z"/>
	<g>
		<path class="st9" d="M133.8,84.8h-0.7v-4.5c-0.2,0.2-0.4,0.3-0.7,0.5s-0.5,0.3-0.7,0.4v-0.7c0.4-0.2,0.7-0.4,1-0.7
			s0.5-0.5,0.6-0.8h0.5L133.8,84.8L133.8,84.8z"/>
		<path class="st9" d="M135.6,83.3l0.7-0.1c0.1,0.4,0.2,0.6,0.4,0.8s0.4,0.3,0.7,0.3s0.6-0.1,0.9-0.4s0.4-0.6,0.4-1
			s-0.1-0.7-0.3-0.9s-0.5-0.3-0.9-0.3c-0.2,0-0.4,0.1-0.6,0.2s-0.3,0.2-0.4,0.4l-0.7-0.1l0.6-2.9h2.8V80h-2.3l-0.3,1.5
			c0.3-0.2,0.7-0.4,1.1-0.4c0.5,0,0.9,0.2,1.3,0.5s0.5,0.8,0.5,1.3s-0.2,1-0.5,1.3c-0.4,0.5-0.9,0.7-1.5,0.7c-0.5,0-0.9-0.1-1.3-0.4
			S135.6,83.8,135.6,83.3z"/>
	</g>
</g>
<g class="st10">
	<path class="st5" d="M34,95.9v-5.7h0.8v2.4h3v-2.4h0.8v5.7h-0.8v-2.7h-3v2.7H34z"/>
	<path class="st5" d="M39.1,95.9l2.2-5.7h0.8l2.3,5.7h-0.9l-0.7-1.7h-2.4l-0.6,1.7H39.1z M40.8,93.5h1.9l-0.6-1.6
		c-0.2-0.5-0.3-0.9-0.4-1.2c-0.1,0.4-0.2,0.7-0.3,1.1L40.8,93.5z"/>
	<path class="st5" d="M45.1,95.9v-5.7h0.8l3,4.5v-4.5h0.7v5.7h-0.8l-3-4.5v4.5H45.1z"/>
	<path class="st5" d="M53.5,93.6V93l2.4,0v2.1c-0.4,0.3-0.8,0.5-1.2,0.7C54.4,95.9,54,96,53.6,96c-0.6,0-1.1-0.1-1.5-0.4
		c-0.5-0.2-0.8-0.6-1-1s-0.4-1-0.4-1.5c0-0.6,0.1-1.1,0.3-1.6c0.2-0.5,0.6-0.8,1-1.1s0.9-0.4,1.5-0.4c0.4,0,0.8,0.1,1.1,0.2
		c0.3,0.1,0.6,0.3,0.8,0.6c0.2,0.2,0.3,0.6,0.4,0.9l-0.7,0.2c-0.1-0.3-0.2-0.5-0.3-0.7c-0.1-0.2-0.3-0.3-0.5-0.4
		c-0.2-0.1-0.5-0.2-0.8-0.2c-0.3,0-0.6,0.1-0.9,0.2c-0.3,0.1-0.5,0.2-0.6,0.4c-0.2,0.2-0.3,0.4-0.4,0.6c-0.1,0.4-0.2,0.7-0.2,1.2
		c0,0.5,0.1,0.9,0.3,1.3s0.4,0.6,0.8,0.8s0.7,0.3,1.1,0.3c0.3,0,0.6-0.1,1-0.2s0.5-0.3,0.7-0.4v-1.1H53.5z"/>
	<path class="st5" d="M56.8,93.1c0-1,0.3-1.7,0.8-2.2c0.5-0.5,1.2-0.8,2-0.8c0.5,0,1,0.1,1.4,0.4c0.4,0.3,0.7,0.6,1,1.1
		s0.3,1,0.3,1.5c0,0.6-0.1,1.1-0.4,1.6s-0.6,0.8-1,1S60.1,96,59.6,96c-0.5,0-1-0.1-1.4-0.4c-0.4-0.3-0.7-0.6-1-1.1
		S56.8,93.6,56.8,93.1z M57.6,93.1c0,0.7,0.2,1.2,0.6,1.6s0.8,0.6,1.4,0.6c0.6,0,1-0.2,1.4-0.6c0.4-0.4,0.6-1,0.6-1.7
		c0-0.5-0.1-0.9-0.2-1.2c-0.2-0.3-0.4-0.6-0.7-0.8c-0.3-0.2-0.6-0.3-1-0.3c-0.5,0-1,0.2-1.4,0.6S57.6,92.2,57.6,93.1z"/>
	<path class="st5" d="M67,90.2h0.8v3.3c0,0.6-0.1,1-0.2,1.4c-0.1,0.3-0.4,0.6-0.7,0.8S66.1,96,65.6,96c-0.5,0-1-0.1-1.3-0.3
		c-0.3-0.2-0.6-0.5-0.7-0.8c-0.1-0.4-0.2-0.8-0.2-1.4v-3.3h0.8v3.3c0,0.5,0,0.9,0.1,1.1c0.1,0.2,0.3,0.4,0.5,0.5
		c0.2,0.1,0.5,0.2,0.8,0.2c0.6,0,1-0.1,1.2-0.4c0.2-0.3,0.4-0.7,0.4-1.5V90.2z"/>
	<path class="st5" d="M70.5,95.9v-5.1h-1.9v-0.7h4.5v0.7h-1.9v5.1H70.5z"/>
	<path class="st5" d="M73.2,95.9v-0.8H74v0.8c0,0.3-0.1,0.5-0.2,0.7c-0.1,0.2-0.3,0.3-0.5,0.4l-0.2-0.3c0.1-0.1,0.3-0.2,0.3-0.3
		s0.1-0.3,0.1-0.5H73.2z"/>
	<path class="st5" d="M77.3,94L78,94c0,0.3,0.1,0.5,0.2,0.7c0.1,0.2,0.3,0.3,0.6,0.4c0.3,0.1,0.6,0.2,0.9,0.2c0.3,0,0.5,0,0.8-0.1
		c0.2-0.1,0.4-0.2,0.5-0.4c0.1-0.1,0.2-0.3,0.2-0.5c0-0.2-0.1-0.3-0.2-0.5c-0.1-0.1-0.3-0.2-0.5-0.3c-0.2-0.1-0.5-0.2-1-0.3
		c-0.5-0.1-0.9-0.2-1.1-0.4c-0.3-0.1-0.5-0.3-0.6-0.5c-0.1-0.2-0.2-0.5-0.2-0.7c0-0.3,0.1-0.6,0.2-0.8s0.4-0.4,0.7-0.6
		c0.3-0.1,0.7-0.2,1.1-0.2c0.4,0,0.8,0.1,1.1,0.2s0.6,0.3,0.7,0.6c0.2,0.3,0.3,0.6,0.3,0.9l-0.7,0.1c0-0.4-0.2-0.6-0.4-0.8
		c-0.2-0.2-0.6-0.3-1-0.3c-0.5,0-0.8,0.1-1,0.3c-0.2,0.2-0.3,0.4-0.3,0.6c0,0.2,0.1,0.4,0.2,0.5c0.1,0.1,0.5,0.3,1.1,0.4
		c0.6,0.1,1,0.3,1.3,0.4c0.3,0.2,0.6,0.3,0.7,0.6c0.2,0.2,0.2,0.5,0.2,0.8c0,0.3-0.1,0.6-0.3,0.9c-0.2,0.3-0.4,0.5-0.8,0.6
		c-0.3,0.1-0.7,0.2-1.1,0.2c-0.5,0-1-0.1-1.3-0.2c-0.4-0.2-0.6-0.4-0.8-0.7S77.3,94.4,77.3,94z"/>
	<path class="st5" d="M82.2,95.9l2.2-5.7h0.8l2.3,5.7h-0.9L86,94.1h-2.4L83,95.9H82.2z M83.9,93.5h1.9l-0.6-1.6
		c-0.2-0.5-0.3-0.9-0.4-1.2c-0.1,0.4-0.2,0.7-0.3,1.1L83.9,93.5z"/>
	<path class="st5" d="M88.2,95.9v-5.7h0.8V93l2.8-2.8h1l-2.4,2.3l2.5,3.4h-1l-2-2.9l-0.9,0.9v2H88.2z"/>
	<path class="st5" d="M97.6,93.9l0.8,0.2c-0.2,0.6-0.4,1.1-0.9,1.4C97.1,95.8,96.6,96,96,96c-0.6,0-1.1-0.1-1.5-0.4
		s-0.7-0.6-0.9-1.1c-0.2-0.5-0.3-1-0.3-1.5c0-0.6,0.1-1.1,0.3-1.6c0.2-0.4,0.6-0.8,1-1c0.4-0.2,0.9-0.3,1.4-0.3
		c0.6,0,1.1,0.1,1.4,0.4s0.7,0.7,0.8,1.2l-0.7,0.2c-0.1-0.4-0.3-0.7-0.6-0.9c-0.3-0.2-0.6-0.3-1-0.3c-0.4,0-0.8,0.1-1.1,0.3
		c-0.3,0.2-0.5,0.5-0.6,0.8c-0.1,0.4-0.2,0.7-0.2,1.1c0,0.5,0.1,0.9,0.2,1.3c0.1,0.4,0.4,0.6,0.7,0.8c0.3,0.2,0.6,0.3,1,0.3
		c0.4,0,0.8-0.1,1.1-0.4C97.3,94.7,97.5,94.4,97.6,93.9z"/>
	<path class="st5" d="M99.3,95.9v-5.7h0.8v2.4h3v-2.4h0.8v5.7h-0.8v-2.7h-3v2.7H99.3z"/>
	<path class="st5" d="M105.2,95.9v-5.7h0.8v5.7H105.2z"/>
</g>
</svg>
