<?xml version="1.0" encoding="utf-8"?>
<!-- Generator: Adobe Illustrator 21.0.0, SVG Export Plug-In . SVG Version: 6.00 Build 0)  -->
<svg version="1.1" id="Layer_1" xmlns="http://www.w3.org/2000/svg" xmlns:xlink="http://www.w3.org/1999/xlink" x="0px" y="0px"
	 viewBox="0 0 150 100" style="enable-background:new 0 0 150 100;" xml:space="preserve">
<style type="text/css">
	.st0{fill:#F7F7F5;}
	.st1{fill:#D52A26;}
	.st2{opacity:0.46;fill:#606060;enable-background:new    ;}
	.st3{fill:none;stroke:#000000;stroke-miterlimit:10;}
	.st4{fill:#020202;}
	.st5{enable-background:new    ;}
</style>
<rect class="st0" width="150" height="100"/>
<g>
	<path class="st1" d="M44.7,24c-0.9,0-1.9,0-2.8,0c2.6,0.1,5.2,0.1,7.7,0.4c4.4,0.5,8.8,1.3,12.9,3.2c1.5,0.7,2.8,1.6,4,2.8
		c1.5,1.6,2.2,3.5,1.8,5.8c-0.1,0.7-0.4,1.4-0.7,2c-0.2,0.4-0.1,0.4,0.2,0.4c0.4,0,0.8,0,1.2,0c17.3,0,34.7,0,52.1,0
		c0.5,0,0.6-0.1,0.5,0.6c-0.1,0.4-0.1,0.7-0.2,1c0,0.3-0.2,0.4-0.4,0.4c-0.4,0-0.8,0-1.1,0c-6.6,0-13.2,0-19.8,0
		c-0.4,0-0.6,0.1-0.7,0.6c-0.1,0.8-0.3,1.6-0.5,2.4c0,0.1-0.1,0.3,0,0.4c0.1,0.1,0.3-0.1,0.4-0.1c1.9-0.9,3.7-0.7,5.4,0.5
		c1.3,0.9,1.7,2.5,1.3,4.4c-0.4,1.8-1.3,3.2-2.5,4.5c-0.7,0.8-1.5,1.5-2.4,2.2c-0.1,0.1-0.2,0.1-0.3,0.3c0.1,0.1,0.2,0,0.3,0
		c2.4-0.7,4.6-1.6,6.7-3c0.2-0.1,0.3-0.2,0.4-0.4c0.3-0.3,0.7-0.6,1.1-0.5c0.3,0,0.4-0.1,0.5-0.4c0.8-2,1.7-4.1,2.5-6.1
		c0-0.1,0.2-0.2,0-0.4c-0.1-0.1-0.2,0-0.3,0c-0.2,0.1-0.4,0.1-0.6,0.2c-0.4,0-0.6-0.2-0.5-0.6c0.1-0.4,0.4-0.7,0.7-0.9
		c1.1-0.9,2.4-1.4,3.8-1.2c0.9,0.1,1.1,0.5,0.8,1.4c-1,3.4-2.1,6.8-3.1,10.2c-0.1,0.3-0.2,0.6-0.2,0.9c-0.1,0.6,0.2,0.9,0.7,1.1
		c0.5,0.2,1,0,1.5-0.3c1.2-0.7,2.2-1.5,3.2-2.4c0.3-0.3,0.7-0.6,1-0.9c0.4-0.4,0.8-0.4,1.3-0.2c0.4,0.1,0.4,0.3,0.2,0.6
		c-0.6,0.8-1.3,1.6-2,2.3c-1.6,1.8-3.6,2.9-5.7,3.5c-0.9,0.3-1.9,0.3-2.8,0.2c-2-0.2-2.4-1.8-2.1-3.3c0.1-0.5,0.3-0.9,0.5-1.4
		c-0.2,0-0.3,0.1-0.4,0.2c-3.8,2.7-8,4-12.5,4.4c-2.1,0.1-4.2,0.2-6.3-0.2c-1.5-0.3-2.9-0.8-3.9-2.1c-0.5-0.5-0.9-1.1-1.1-1.8
		c-0.1-0.2-0.1-0.3-0.3-0.1c-2.9,2.5-6.3,3.5-9.8,4c-3.1,0.5-6.3,0.3-9.4-0.4c-1.1-0.3-2.2-0.7-3.1-1.3c-1.1-0.7-1.6-1.9-1.4-3
		c0.2-1.1,0.8-1.8,1.7-2.2c0.7-0.4,1.5-0.6,2.3-0.7c2.5-0.2,4.8,0.1,6.9,1.7c0.7,0.5,1.3,1,1.6,1.9c0.3,0.8,0.3,1.6-0.1,2.3
		c-0.2,0.3-0.1,0.4,0.2,0.4c1,0,1.9,0,2.8-0.4c0.4-0.1,0.8-0.4,1.1-0.7c0.3-0.4,0.4-0.9,0.1-1.4c-0.5-0.8-1.2-1.3-2-1.8
		c-1.6-1-3.4-1.6-5.2-2.2c-1-0.3-2-0.7-2.9-1.2c-0.5-0.3-1-0.7-1.5-1.2c-0.7-0.9-0.8-1.8,0-2.7c0.8-1,1.8-1.5,2.8-1.9
		c2.3-0.9,4.7-1.2,7.2-1c0.8,0.1,1.6,0.3,2.4,0.7c0.3,0.1,0.4,0.1,0.5-0.3c0.1-0.6,0.3-1.3,0.5-1.9c0.1-0.4,0-0.5-0.3-0.5
		c-4.1,0-8.1,0-12.2,0c-0.2,0-0.3,0-0.5,0.2c-2.1,2.3-4.7,3.9-7.4,5.2c-3.6,1.7-7.4,2.8-11.2,3.5c-3.3,0.7-6.6,1-10,1.1
		c-0.1,0-0.3,0-0.4,0c0,0.1,0,0.2,0.1,0.2c4.1,2,8.1,4.1,12.2,6c4.3,2,8.7,3.3,13.2,4.4c8.7,2.1,17.6,2.8,26.5,2.6
		c6.9-0.2,13.8-1.1,20.6-2.8c5.9-1.5,11.6-3.6,16.9-6.7c1.2-0.7,2.4-1.5,3.6-2.3c0.1-0.1,0.3-0.3,0.4-0.2c0.2,0.2,0.1,0.4,0.1,0.6
		c-0.1,0.3-0.3,0.5-0.4,0.7c-1.8,1.8-3.9,3.3-6,4.6c-2.8,1.7-5.8,3.2-8.6,4.8c-8.1,4.5-16.3,5.5-25.4,5.3c-2.8-0.1-5.7-0.2-8.5-0.5
		c-9.4-0.9-18.7-2.8-27.7-5.7c-3.3-1.1-6.6-2.3-9.7-3.7c-1.6-0.7-3.1-1.8-4.5-2.8c-1.8-1.2-3.7-2.5-5.5-3.7c-0.4-0.3-0.4,0-0.6,0.3
		c-1.7,3.1-3.4,6.2-5.1,9.2c-0.2,0.4-0.4,0.7-0.6,1.1c-0.2,0.3-0.4,0.5-0.7,0.6c-0.6,0.1-1.3,0.2-1.9,0.2c-0.3,0-0.3-0.1-0.2-0.4
		c0.4-1.2,0.9-2.3,1.4-3.5c1.9-4.5,3.8-9.1,5.8-13.6c0.2-0.5,0.2-0.5-0.3-0.6c-2.6-0.4-5.2-1-7.6-2.2c-1.4-0.7-2.8-1.6-3.9-2.8
		c-2.4-2.6-2.5-5.7-0.3-8.5c1.4-1.8,3.1-2.9,5-3.9c3.3-1.6,6.8-2.5,10.3-2.9c1.6-0.2,3.3-0.3,4.9-0.4L44.7,24z M45.3,24
		c-0.2,0-0.4,0-0.6,0 M40.5,45.3c-0.4,0.2-0.8,0.2-1.1,0.2c-0.8,0-1.5,0-2.3-0.1c-0.2,0-0.3,0-0.4,0.2c-0.6,1.1-1.2,2.2-1.8,3.3
		c-0.2,0.4-0.2,0.4,0.2,0.4c0.7,0,1.4,0,2.1,0c3.4-0.3,6.8-0.7,10.1-1.6c3.2-0.9,6.3-2,9.2-3.9c1.8-1.2,3.3-2.5,4.4-4.5
		c1.1-2,1.3-4,0.1-6.1c-0.6-1.1-1.5-2-2.5-2.7c-2.2-1.6-4.6-2.5-7.2-3.2c-1.9-0.5-3.9-0.9-5.8-1.1l-0.4,2.2c0,0.1,0,0.4,0.2,0.4
		c0.1,0.1,0.2-0.1,0.3-0.2c0.4-0.5,0.6-1.1,0.9-1.6c0.1-0.2,0.2-0.4,0.4-0.2c0.2,0.2,0.4,0.3,0.2,0.6c-1.6,2.6-3.1,5.3-4.6,7.9
		c-1.3,2.2-2.6,4.4-3.8,6.7c-0.2,0.4-0.2,0.4,0.2,0.4c0.8,0,1.5,0,2.3,0c0.7,0,1.1-0.3,1.4-0.9L40.5,45.3z M38.2,25.6
		c-2.1,0-4,0.2-5.8,0.6c-2.8,0.7-5.5,1.6-8,3.3c-1.3,0.9-2.4,2-3.2,3.5c-0.9,1.8-0.7,3.6,0.6,5c0.8,0.9,1.8,1.6,2.9,2.1
		c2.6,1.2,5.3,1.6,8,2c0.3,0,0.5-0.1,0.6-0.4c0.7-1.6,1.5-3.2,2.2-4.8c1.7-3.6,3.4-7.1,5.2-10.7c0.2-0.5,0.2-0.5-0.3-0.5
		C39.7,25.6,38.9,25.5,38.2,25.6z M80.1,55.4c1.3-0.6,2.6-1.3,3.7-2.2c0.3-0.2,0.4-0.5,0.3-0.8c0-1.8,0.5-3.4,1.7-4.6
		c1.1-1.2,2.4-2.1,3.8-2.8c1.6-0.9,3.3-1.4,5.1-1.9c0.2-0.1,0.4-0.2,0.4-0.5c0.1-0.4,0.2-0.9,0.3-1.3c0.1-0.6,0.1-0.6-0.4-0.6
		c-4,0-8,0-12,0c-0.3,0-0.5,0.1-0.6,0.5c-0.2,1.2-0.5,2.4-0.8,3.7c-0.1,0.3-0.2,0.4-0.4,0.5c-1.1,0.4-2.3,0.8-3.4,1.1
		c-0.3,0.1-0.5,0.1-0.8-0.1c-2.5-1.5-5.2-1.8-8-1.5c-0.4,0.1-0.9,0.2-1.3,0.4c-0.6,0.3-0.6,0.8-0.2,1.3c0.3,0.4,0.7,0.6,1.1,0.9
		c1.2,0.6,2.5,1,3.7,1.4c1.8,0.6,3.6,1.1,5.3,2.1c0.8,0.5,1.6,1.1,2.2,1.9c0.6,0.8,0.6,1.4,0.1,2.3C80.1,55.2,80.1,55.3,80.1,55.4z
		 M95.8,47.5c0.4-0.7,0.9-1.3,1.5-1.9c0.1-0.1,0.2-0.1,0.2-0.3s-0.2-0.1-0.3-0.2c-1.1-0.4-2.2-0.4-3.3-0.1c-2.8,0.6-4.9,2.1-6.2,4.9
		c-1,2.3-0.3,4.3,1.8,5.3c1.2,0.6,2.4,0.8,3.7,0.8c1.1,0,2.1-0.2,3.2-0.4c1-0.2,2-0.4,2.9-0.9c2.3-1.3,3.5-3.7,4.1-6.3
		c0.3-1.4,1-2.3-0.7-2.4c-1.1-0.1-2.1,0-3.2,0.1s-2,0.5-2.9,1.2C96.3,47.6,96.1,47.7,95.8,47.5z M66.1,51.7c-0.9,0-1.7,0.2-2.3,0.8
		c-0.5,0.4-0.5,1-0.2,1.5c0.2,0.3,0.5,0.5,0.7,0.7c1.6,1.1,3.4,1.6,5.2,2c0.3,0.1,0.5,0,0.5-0.4c0.3-1.2,0.1-2.2-0.6-3.1
		C68.6,52.2,67.4,51.7,66.1,51.7z"/>
	<polygon class="st1" points="44.2,28.5 45.7,29.5 47.8,26.1 45.9,25.1 	"/>
	<path class="st1" d="M40.2,45.5c1.5-0.3,2.6-2.1,2.3-3.8"/>
	<ellipse class="st1" cx="116.1" cy="35.3" rx="2" ry="1.5"/>
</g>
<rect y="85.5" class="st2" width="150" height="14.5"/>
<g>
	<path class="st3" d="M148.1,84.4c-0.5,0.8-0.5,1.5-0.1,2.2c0.3,0.5,0.4,1,0.6,1.5c0.3,0.9,0.2,1.4-0.7,1.8c-0.7,0.4-1.4,0.7-2,1.1
		c-0.3,0.2-0.5,0.5-0.6,0.8c-0.2,0.8-0.3,1.5-0.4,2.3c-0.2,0.9-0.6,1.3-1.5,1.2c-0.8-0.1-1.5-0.3-2.3-0.3c-0.3,0-0.7,0.1-0.9,0.3
		c-0.6,0.5-1.1,1.1-1.7,1.6c-0.6,0.6-1.2,0.6-1.9,0c-0.6-0.5-1.1-1.1-1.7-1.6c-0.2-0.2-0.6-0.3-0.9-0.3c-0.7,0.1-1.4,0.2-2.1,0.3
		c-1,0.1-1.6-0.3-1.8-1.3c-0.1-0.5-0.2-1.1-0.2-1.6c0-0.8-0.4-1.3-1.1-1.6c-0.4-0.2-0.8-0.4-1.3-0.6c-1.1-0.6-1.3-1.2-0.8-2.3
		c0.3-0.6,0.6-1.2,0.9-1.9c0.1-0.3,0.1-0.6,0-0.9c-0.3-0.7-0.7-1.3-1-2c-0.5-0.9-0.3-1.6,0.7-2.1c0.6-0.3,1.2-0.6,1.8-0.9
		c0.5-0.2,0.8-0.6,0.8-1.2c0.1-0.7,0.2-1.4,0.3-2.2c0.2-0.8,0.6-1.1,1.5-1.1c0.7,0.1,1.5,0.2,2.3,0.4c0.5,0.1,0.8,0,1.1-0.3
		c0.6-0.6,1.2-1.1,1.8-1.7c0.6-0.5,1.2-0.5,1.8,0c0.6,0.6,1.1,1.2,1.7,1.7c0.2,0.2,0.6,0.3,0.9,0.3c0.7-0.1,1.4-0.2,2.1-0.3
		c1.1-0.2,1.6,0.3,1.8,1.3c0,0.2,0.1,0.4,0.1,0.6c-0.1,1.6,0.7,2.5,2.1,2.9c0.2,0.1,0.5,0.2,0.7,0.4c0.7,0.4,1,1.1,0.6,1.9
		C148.6,83.4,148.4,84,148.1,84.4z"/>
	<path class="st4" d="M139.8,80.4c0-0.4,0.1-0.8,0.3-1c0.2-0.3,0.5-0.4,0.9-0.4s0.7,0.1,0.9,0.4s0.4,0.6,0.4,1.1s-0.1,0.9-0.4,1.1
		S141.4,82,141,82c-0.3,0-0.6-0.1-0.9-0.4S139.8,80.9,139.8,80.4z M141,79.4c-0.2,0-0.3,0.1-0.4,0.2c-0.1,0.2-0.2,0.4-0.2,0.8
		s0.1,0.6,0.2,0.8s0.3,0.2,0.4,0.2c0.2,0,0.3-0.1,0.4-0.2c0.1-0.2,0.2-0.4,0.2-0.8s-0.1-0.6-0.2-0.8S141.2,79.4,141,79.4z M141,84.9
		l3.1-6h0.6l-3.1,6H141z M143.5,83.4c0-0.4,0.1-0.8,0.3-1c0.2-0.3,0.5-0.4,0.9-0.4s0.7,0.1,0.9,0.4s0.4,0.6,0.4,1.1
		s-0.1,0.9-0.4,1.1s-0.5,0.4-0.9,0.4c-0.3,0-0.6-0.1-0.9-0.4S143.5,83.9,143.5,83.4z M144.7,82.4c-0.2,0-0.3,0.1-0.4,0.2
		c-0.1,0.2-0.2,0.4-0.2,0.8s0.1,0.6,0.2,0.8s0.3,0.2,0.4,0.2c0.2,0,0.3-0.1,0.4-0.2c0.1-0.2,0.2-0.4,0.2-0.8s-0.1-0.6-0.2-0.8
		S144.9,82.4,144.7,82.4z"/>
	<path class="st4" d="M130.8,89.9c0-1,0.3-1.7,0.8-2.2s1.2-0.8,2-0.8c0.5,0,1,0.1,1.4,0.4s0.7,0.6,1,1.1s0.3,1,0.3,1.5
		c0,0.6-0.1,1.1-0.4,1.6s-0.6,0.8-1,1s-0.9,0.4-1.4,0.4s-1-0.1-1.4-0.4s-0.7-0.6-1-1.1S130.8,90.4,130.8,89.9z M131.5,90
		c0,0.7,0.2,1.2,0.6,1.6s0.8,0.6,1.4,0.6c0.6,0,1-0.2,1.4-0.6s0.6-1,0.6-1.7c0-0.5-0.1-0.9-0.2-1.2c-0.2-0.3-0.4-0.6-0.7-0.8
		c-0.3-0.2-0.6-0.3-1-0.3c-0.5,0-1,0.2-1.4,0.6S131.5,89.1,131.5,90z"/>
	<path class="st4" d="M136.5,92.7V87h3.9v0.7h-3.1v1.8h2.7v0.7h-2.7v2.6L136.5,92.7L136.5,92.7z"/>
	<path class="st4" d="M140.7,92.7V87h3.9v0.7h-3.1v1.8h2.7v0.7h-2.7v2.6L140.7,92.7L140.7,92.7z"/>
	<g>
		<path class="st4" d="M133.8,84.8h-0.7v-4.5c-0.2,0.2-0.4,0.3-0.7,0.5s-0.5,0.3-0.7,0.4v-0.7c0.4-0.2,0.7-0.4,1-0.7
			s0.5-0.5,0.6-0.8h0.5L133.8,84.8L133.8,84.8z"/>
		<path class="st4" d="M135.6,83.3l0.7-0.1c0.1,0.4,0.2,0.6,0.4,0.8s0.4,0.3,0.7,0.3s0.6-0.1,0.9-0.4s0.4-0.6,0.4-1
			s-0.1-0.7-0.3-0.9s-0.5-0.3-0.9-0.3c-0.2,0-0.4,0.1-0.6,0.2s-0.3,0.2-0.4,0.4l-0.7-0.1l0.6-2.9h2.8V80h-2.3l-0.3,1.5
			c0.3-0.2,0.7-0.4,1.1-0.4c0.5,0,0.9,0.2,1.3,0.5s0.5,0.8,0.5,1.3s-0.2,1-0.5,1.3c-0.4,0.5-0.9,0.7-1.5,0.7c-0.5,0-0.9-0.1-1.3-0.4
			S135.7,83.8,135.6,83.3z"/>
	</g>
</g>
<g class="st5">
	<path d="M26.3,94.4v-5.7h2.5c0.5,0,0.9,0.1,1.2,0.2s0.5,0.3,0.6,0.5s0.2,0.5,0.2,0.9c0,0.4-0.1,0.7-0.4,1s-0.7,0.5-1.2,0.5
		c0.2,0.1,0.4,0.2,0.5,0.3c0.2,0.2,0.4,0.5,0.6,0.8l1,1.6h-1l-0.8-1.2c-0.2-0.3-0.4-0.6-0.5-0.8s-0.3-0.3-0.4-0.4s-0.2-0.1-0.3-0.2
		c-0.1,0-0.2,0-0.4,0h-0.9v2.5H26.3z M27.1,91.2h1.6c0.3,0,0.6,0,0.8-0.1s0.3-0.2,0.4-0.3s0.2-0.3,0.2-0.5c0-0.3-0.1-0.5-0.3-0.7
		s-0.5-0.3-0.9-0.3h-1.8V91.2z"/>
	<path d="M32.1,94.4v-5.7h4.1v0.7h-3.4v1.8H36v0.7h-3.2v1.9h3.5v0.7H32.1z"/>
	<path d="M37.1,92.6l0.7-0.1c0,0.3,0.1,0.5,0.2,0.7s0.3,0.3,0.6,0.4s0.6,0.2,0.9,0.2c0.3,0,0.5,0,0.8-0.1s0.4-0.2,0.5-0.4
		S41,93,41,92.9c0-0.2-0.1-0.3-0.2-0.5s-0.3-0.2-0.5-0.3c-0.2-0.1-0.5-0.2-1-0.3s-0.9-0.2-1.1-0.4c-0.3-0.1-0.5-0.3-0.6-0.5
		s-0.2-0.5-0.2-0.7c0-0.3,0.1-0.6,0.2-0.8s0.4-0.4,0.7-0.6s0.7-0.2,1.1-0.2c0.4,0,0.8,0.1,1.1,0.2s0.6,0.3,0.7,0.6s0.3,0.6,0.3,0.9
		l-0.7,0.1c0-0.4-0.2-0.6-0.4-0.8s-0.6-0.3-1-0.3c-0.5,0-0.8,0.1-1,0.3s-0.3,0.4-0.3,0.6c0,0.2,0.1,0.4,0.2,0.5
		c0.1,0.1,0.5,0.3,1.1,0.4s1,0.3,1.3,0.4c0.3,0.2,0.6,0.3,0.7,0.6s0.2,0.5,0.2,0.8c0,0.3-0.1,0.6-0.3,0.9s-0.4,0.5-0.8,0.6
		s-0.7,0.2-1.1,0.2c-0.5,0-1-0.1-1.3-0.2s-0.6-0.4-0.8-0.7S37.1,93,37.1,92.6z"/>
	<path d="M44.2,94.4v-5.1h-1.9v-0.7h4.5v0.7h-1.9v5.1H44.2z"/>
	<path d="M46.4,94.4l2.2-5.7h0.8l2.3,5.7h-0.9l-0.7-1.7h-2.4l-0.6,1.7H46.4z M48,92.1H50l-0.6-1.6c-0.2-0.5-0.3-0.9-0.4-1.2
		c-0.1,0.4-0.2,0.7-0.3,1.1L48,92.1z"/>
	<path d="M56.1,88.7h0.8V92c0,0.6-0.1,1-0.2,1.4S56.3,94,56,94.2s-0.8,0.3-1.3,0.3c-0.5,0-1-0.1-1.3-0.3s-0.6-0.5-0.7-0.8
		s-0.2-0.8-0.2-1.4v-3.3h0.8V92c0,0.5,0,0.9,0.1,1.1s0.3,0.4,0.5,0.5s0.5,0.2,0.8,0.2c0.6,0,1-0.1,1.2-0.4s0.4-0.7,0.4-1.5V88.7z"/>
	<path d="M58.2,94.4v-5.7h2.5c0.5,0,0.9,0.1,1.2,0.2s0.5,0.3,0.6,0.5s0.2,0.5,0.2,0.9c0,0.4-0.1,0.7-0.4,1s-0.7,0.5-1.2,0.5
		c0.2,0.1,0.4,0.2,0.5,0.3c0.2,0.2,0.4,0.5,0.6,0.8l1,1.6h-1l-0.8-1.2c-0.2-0.3-0.4-0.6-0.5-0.8s-0.3-0.3-0.4-0.4s-0.2-0.1-0.3-0.2
		c-0.1,0-0.2,0-0.4,0h-0.9v2.5H58.2z M58.9,91.2h1.6c0.3,0,0.6,0,0.8-0.1s0.3-0.2,0.4-0.3s0.2-0.3,0.2-0.5c0-0.3-0.1-0.5-0.3-0.7
		s-0.5-0.3-0.9-0.3h-1.8V91.2z"/>
	<path d="M63.3,94.4l2.2-5.7h0.8l2.3,5.7h-0.9l-0.7-1.7h-2.4l-0.6,1.7H63.3z M64.9,92.1h1.9l-0.6-1.6c-0.2-0.5-0.3-0.9-0.4-1.2
		c-0.1,0.4-0.2,0.7-0.3,1.1L64.9,92.1z"/>
	<path d="M69.2,94.4v-5.7H70l3,4.5v-4.5h0.7v5.7H73l-3-4.5v4.5H69.2z"/>
	<path d="M76.5,94.4v-5.1h-1.9v-0.7h4.5v0.7h-1.9v5.1H76.5z"/>
	<path d="M79.1,94.4v-0.8h0.8v0.8c0,0.3-0.1,0.5-0.2,0.7c-0.1,0.2-0.3,0.3-0.5,0.4l-0.2-0.3c0.1-0.1,0.3-0.2,0.3-0.3
		s0.1-0.3,0.1-0.5H79.1z"/>
	<path d="M83.2,92.6l0.7-0.1c0,0.3,0.1,0.5,0.2,0.7c0.1,0.2,0.3,0.3,0.6,0.4c0.3,0.1,0.6,0.2,0.9,0.2c0.3,0,0.5,0,0.8-0.1
		c0.2-0.1,0.4-0.2,0.5-0.4C87,93.2,87,93,87,92.9c0-0.2-0.1-0.3-0.2-0.5c-0.1-0.1-0.3-0.2-0.5-0.3c-0.2-0.1-0.5-0.2-1-0.3
		c-0.5-0.1-0.9-0.2-1.1-0.4c-0.3-0.1-0.5-0.3-0.6-0.5c-0.1-0.2-0.2-0.5-0.2-0.7c0-0.3,0.1-0.6,0.2-0.8s0.4-0.4,0.7-0.6
		c0.3-0.1,0.7-0.2,1.1-0.2c0.4,0,0.8,0.1,1.1,0.2s0.6,0.3,0.7,0.6c0.2,0.3,0.3,0.6,0.3,0.9l-0.7,0.1c0-0.4-0.2-0.6-0.4-0.8
		c-0.2-0.2-0.6-0.3-1-0.3c-0.5,0-0.8,0.1-1,0.3c-0.2,0.2-0.3,0.4-0.3,0.6c0,0.2,0.1,0.4,0.2,0.5c0.1,0.1,0.5,0.3,1.1,0.4
		c0.6,0.1,1,0.3,1.3,0.4c0.3,0.2,0.6,0.3,0.7,0.6c0.2,0.2,0.2,0.5,0.2,0.8c0,0.3-0.1,0.6-0.3,0.9c-0.2,0.3-0.4,0.5-0.8,0.6
		c-0.3,0.1-0.7,0.2-1.1,0.2c-0.5,0-1-0.1-1.3-0.2c-0.3-0.2-0.6-0.4-0.8-0.7S83.2,93,83.2,92.6z"/>
	<path d="M88.2,94.4l2.2-5.7h0.8l2.3,5.7h-0.9L92,92.7h-2.4L89,94.4H88.2z M89.8,92.1h1.9l-0.6-1.6c-0.2-0.5-0.3-0.9-0.4-1.2
		c-0.1,0.4-0.2,0.7-0.3,1.1L89.8,92.1z"/>
	<path d="M94.1,94.4v-5.7h0.8v2.8l2.8-2.8h1L96.3,91l2.5,3.4h-1l-2-2.9l-0.9,0.9v2H94.1z"/>
	<path d="M103.6,92.4l0.8,0.2c-0.2,0.6-0.4,1.1-0.9,1.4c-0.4,0.3-0.9,0.5-1.5,0.5c-0.6,0-1.1-0.1-1.5-0.4s-0.7-0.6-0.9-1.1
		c-0.2-0.5-0.3-1-0.3-1.5c0-0.6,0.1-1.1,0.3-1.6c0.2-0.4,0.6-0.8,1-1c0.4-0.2,0.9-0.3,1.4-0.3c0.6,0,1.1,0.1,1.4,0.4
		s0.7,0.7,0.8,1.2l-0.7,0.2c-0.1-0.4-0.3-0.7-0.6-0.9c-0.3-0.2-0.6-0.3-1-0.3c-0.4,0-0.8,0.1-1.1,0.3c-0.3,0.2-0.5,0.5-0.6,0.8
		c-0.1,0.4-0.2,0.7-0.2,1.1c0,0.5,0.1,0.9,0.2,1.3c0.1,0.4,0.4,0.6,0.7,0.8c0.3,0.2,0.6,0.3,1,0.3c0.4,0,0.8-0.1,1.1-0.4
		C103.3,93.2,103.5,92.9,103.6,92.4z"/>
	<path d="M105.3,94.4v-5.7h0.8V91h3v-2.4h0.8v5.7H109v-2.7h-3v2.7H105.3z"/>
	<path d="M111.2,94.4v-5.7h0.8v5.7H111.2z"/>
</g>
</svg>
