<?xml version="1.0" encoding="utf-8"?>
<!-- Generator: Adobe Illustrator 21.0.0, SVG Export Plug-In . SVG Version: 6.00 Build 0)  -->
<svg version="1.1" id="Layer_1" xmlns="http://www.w3.org/2000/svg" xmlns:xlink="http://www.w3.org/1999/xlink" x="0px" y="0px"
	 viewBox="0 0 150 100" style="enable-background:new 0 0 150 100;" xml:space="preserve">
<style type="text/css">
	.st0{fill:#F54631;}
	.st1{opacity:0.5;enable-background:new    ;}
	.st2{fill:#690609;}
	.st3{fill:#FEFFFF;}
	.st4{fill:#FFFFFF;}
	.st5{fill:none;stroke:#FCFAFB;stroke-miterlimit:10;}
</style>
<rect class="st0" width="150" height="100"/>
<rect y="85.8" class="st1" width="150" height="14.5"/>
<g>
	<rect x="76.3" y="51.6" class="st2" width="24.3" height="4.8"/>
	<path class="st3" d="M16,2.4c1.4,0,2.7,0,4,0c1.8,0,3.7-0.1,5.5,0.2c2.8,0.3,4.5,2.1,5.2,4.7c0.3,1.1,0.5,2.3,0.5,3.4
		c0.1,3.9,0,7.8,0,11.6c0,2.7-0.5,5.1-3.3,6.6c2.7,1.5,3.2,4,3.3,6.6c0,4.3,0,8.6,0,12.8c0,1-0.2,2-0.4,3c-0.7,3-2.9,4.8-5.9,5
		c-0.4,0-0.7,0-1.1,0c-2.6,0-5.1,0-7.8,0C16,38.5,16,20.5,16,2.4z M20.9,31.2c0,6.9,0,13.6,0,20.5c0.8,0,1.5,0,2.2,0
		c2.7,0.2,3.2-1.2,3.3-3.3c0-4.4,0-8.8,0-13.3c0-0.7-0.1-1.5-0.4-2.2c-0.4-1-1.1-1.6-2.2-1.6C22.8,31.1,21.9,31.2,20.9,31.2z
		 M21,7.4c0,6.6,0,13,0,19.4c0.9,0,1.7,0,2.5,0c1.3,0,2.2-0.7,2.6-1.9c0.2-0.5,0.3-1,0.3-1.5c0-4.3,0-8.7,0-13c0-0.6,0-1.3-0.4-1.7
		c-0.4-0.5-1.1-1.1-1.7-1.2C23.2,7.3,22.1,7.4,21,7.4z"/>
	<path class="st3" d="M124.3,45.6c-0.4,3.7-0.8,7.2-1.1,10.9c-1.5,0-2.9,0-4.4,0c0.1-0.7,0.1-1.3,0.2-1.9
		c1.7-15.2,3.4-30.4,5.1-45.6c0.2-1.9,0.4-3.7,0.6-5.6c0.1-0.7,0.3-1,1-0.9c1.1,0.1,2.2,0,3.4,0c0.6,0,0.9,0.1,1,0.8
		c1,9.7,2,19.5,3,29.2c0.8,7.8,1.6,15.5,2.4,23.3c0,0.2,0,0.5,0,0.8c-1.7,0-3.3,0-5,0c-0.2-1.9-0.3-3.8-0.5-5.7
		c-0.1-1.4-0.2-2.9-0.3-4.3c0-0.6-0.2-0.9-0.8-0.9C127.4,45.6,125.9,45.6,124.3,45.6z M127.4,16.9c-0.1,0-0.1,0-0.2,0
		c-0.8,7.9-1.6,15.8-2.4,23.8c1.5,0,2.9,0,4.4,0C128.6,32.7,128,24.8,127.4,16.9z"/>
	<path class="st3" d="M51,56.5c-1.8,0-3.4,0-5.1,0c-0.3-3.6-0.6-7.2-0.9-10.9c-1.6,0-3.2,0-4.7,0c-0.3,0-0.6,0.6-0.7,0.9
		c-0.4,3.1-0.6,6.1-1,9.2c0,0.2-0.1,0.4-0.1,0.7c-1.4,0-2.9,0-4.4,0c2-18,4-36,6.1-54.1c1.6,0,3.1,0,4.6,0c0.2,0,0.5,0.5,0.6,0.8
		c0.4,3.5,0.8,7.1,1.1,10.6C47.7,24.6,48.8,35.3,50,46C50.3,49.5,50.7,52.9,51,56.5z M44.7,40.8c-0.6-8-1.2-15.9-1.8-23.8
		c-0.1,0-0.1,0-0.2,0c-0.8,7.9-1.6,15.8-2.4,23.8C41.8,40.8,43.2,40.8,44.7,40.8z"/>
	<path class="st3" d="M85,35.4c1.8,0,3.3,0,5,0c0,1.3-0.1,2.5,0,3.7c0.1,1,0.2,2,0.6,2.9c0.5,1.2,1.4,1.7,2.6,1.6
		c1.2-0.1,2-0.8,2.3-2c0.6-2.7,0.3-5.4-0.9-7.8c-2-4.2-4.2-8.2-6.4-12.4c-1.6-3-2.9-6.1-2.7-9.6c0.1-2,0.3-4,1.3-5.9
		c1.5-2.8,3.9-3.9,6.9-3.8c3,0.1,4.9,1.8,6,4.4c1,2.3,0.9,4.7,0.8,7.2c-1.6,0-3.1,0-4.8,0c0-1,0-1.9,0-2.7s-0.1-1.5-0.3-2.3
		c-0.2-1-0.8-1.7-1.9-1.8c-1.2-0.1-2.2,0.4-2.6,1.5c-0.2,0.6-0.4,1.2-0.4,1.9c-0.2,2.7,0.4,5.2,1.7,7.5c2.2,4.1,4.3,8.3,6.5,12.4
		c1.9,3.7,2.6,7.5,1.6,11.6c-0.9,4.1-3.8,6.4-7.7,6.2c-3.7-0.1-6.5-2.6-7.2-6.6C85,39.5,85.1,37.5,85,35.4z"/>
	<path class="st3" d="M113.9,56.5c-1.7,0-3.3,0-4.9,0c0-16.4,0-32.8,0-49.3c-1.8,0-3.4,0-5.2,0c0-1.6,0-3.2,0-4.7c5,0,9.9,0,14.8,0
		c0,1.6,0,3.1,0,4.7c-1.6,0-3.1,0-4.7,0C113.9,23.7,113.9,40,113.9,56.5z"/>
	<path class="st3" d="M76.6,2.5c1.7,0,3.2,0,4.8,0c0,15.1,0,30,0,45.1c-1.6,0-3.2,0-4.8,0C76.6,32.5,76.6,17.5,76.6,2.5z"/>
	<path class="st3" d="M71.6,54.8v-0.3l-0.1-0.1c0-0.1-0.1-0.1-0.1-0.2c-1-0.9-0.8-1.9-0.8-2.9c0-4.6,0-9.2,0-13.8
		c0-1.8-0.1-3.6-1.2-5.2c-0.5-0.7-1.2-1.4-1.8-2.1c1.9-1,2.7-2.9,2.8-5.1c0.1-5.2,0.2-10.4,0-15.6c-0.1-4-2.4-6.6-5.9-6.9
		c-3-0.3-6.1-0.1-9.3-0.1c0,18,0,36,0,54c1.6,0,3.2,0,4.8,0c0-8,0-15.8,0-23.9c1.2,0,2.1,0,3.1,0c1.3,0.1,2.2,0.8,2.5,2.1
		c0.2,0.6,0.2,1.3,0.2,1.9c0,5,0,10,0,15c0,1,0.1,2,0.3,2.9c0.2,1.3,1.1,2.1,2.4,2.3c1,0.1,2,0.1,3.2,0.2v-0.9
		C71.6,55.6,71.6,55.2,71.6,54.8z M65.4,24.3c0,0.7-0.2,1.4-0.4,2c-0.4,1-1.2,1.6-2.4,1.6c-0.9,0-1.7,0-2.7,0c0-6.9,0-13.6,0-20.4
		c1.3,0,2.5-0.2,3.7,0.1c0.6,0.1,1.2,0.9,1.6,1.5c0.3,0.4,0.2,1,0.2,1.5C65.4,15.1,65.4,19.7,65.4,24.3z"/>
</g>
<g>
	<path class="st4" d="M19.1,68.3c0,1.7-0.4,3.1-1.1,4.1s-1.7,1.4-3,1.4c-0.6,0-1-0.1-1.4-0.2v-1.7c0.4,0.3,0.8,0.4,1.4,0.4
		c1.5,0,2.3-1.3,2.3-3.9V59H19L19.1,68.3L19.1,68.3z"/>
	<path class="st4" d="M33.1,73.5h-1.9l-1.6-4.1h-6.2L22,73.5h-1.9l5.6-14.7h1.8L33.1,73.5z M29.1,67.9l-2.3-6.3
		c-0.1-0.2-0.2-0.5-0.2-1l0,0c-0.1,0.4-0.1,0.7-0.2,1L24,67.9H29.1z"/>
	<path class="st4" d="M49.5,73.5h-1.7v-9.8c0-0.8,0-1.7,0.1-2.9l0,0c-0.2,0.7-0.3,1.1-0.4,1.4l-5,11.3h-0.8l-5-11.2
		c-0.1-0.3-0.3-0.8-0.4-1.5l0,0c0.1,0.6,0.1,1.5,0.1,2.9v9.8h-1.7V58.8H37L41.5,69c0.3,0.8,0.6,1.4,0.7,1.8h0.1
		c0.3-0.8,0.5-1.4,0.7-1.8l4.6-10.2h2.1L49.5,73.5L49.5,73.5L49.5,73.5z"/>
	<path class="st4" d="M52,72.9v-2c0.2,0.2,0.5,0.4,0.8,0.6s0.7,0.3,1,0.4c0.4,0.1,0.7,0.2,1.1,0.3c0.4,0.1,0.7,0.1,1,0.1
		c1.1,0,1.8-0.2,2.4-0.6c0.5-0.4,0.8-1,0.8-1.7c0-0.4-0.1-0.7-0.3-1s-0.4-0.6-0.7-0.8c-0.3-0.2-0.7-0.5-1.1-0.7
		c-0.4-0.2-0.9-0.5-1.4-0.7c-0.5-0.3-1-0.5-1.4-0.8s-0.8-0.6-1.2-0.9c-0.3-0.3-0.6-0.7-0.8-1.1s-0.3-0.9-0.3-1.4
		c0-0.7,0.1-1.3,0.4-1.7c0.3-0.5,0.7-0.9,1.2-1.2s1-0.6,1.6-0.7c0.6-0.2,1.2-0.2,1.9-0.2c1.4,0,2.5,0.2,3.2,0.5V61
		c-0.9-0.6-2-0.9-3.3-0.9c-0.4,0-0.7,0-1.1,0.1c-0.4,0.1-0.7,0.2-1,0.4s-0.5,0.4-0.7,0.7s-0.3,0.6-0.3,1s0.1,0.7,0.2,1
		c0.1,0.3,0.3,0.5,0.6,0.7c0.3,0.2,0.6,0.4,1,0.7c0.4,0.2,0.8,0.4,1.4,0.7c0.5,0.3,1,0.5,1.5,0.8s0.9,0.6,1.2,1
		c0.4,0.3,0.6,0.7,0.8,1.2c0.2,0.4,0.3,0.9,0.3,1.5c0,0.7-0.1,1.3-0.4,1.8c-0.3,0.5-0.7,0.9-1.1,1.2s-1,0.5-1.7,0.7
		c-0.6,0.1-1.3,0.2-2,0.2c-0.2,0-0.5,0-0.9-0.1c-0.3,0-0.7-0.1-1-0.2c-0.4-0.1-0.7-0.2-1-0.3C52.5,73.2,52.2,73,52,72.9z"/>
	<path class="st4" d="M74.1,73.5h-1.7v-6.7h-7.6v6.7h-1.7V58.8h1.7v6.4h7.6v-6.4h1.7V73.5z"/>
	<path class="st4" d="M85.1,73.5h-7.8V58.8h7.4v1.6H79v4.9h5.3v1.5H79V72h6L85.1,73.5L85.1,73.5z"/>
	<path class="st4" d="M87.2,73.5V58.8h4c5.2,0,7.7,2.4,7.7,7.2c0,2.3-0.7,4.1-2.1,5.5s-3.4,2.1-5.8,2.1L87.2,73.5L87.2,73.5z
		 M88.9,60.4V72h2.2c1.9,0,3.4-0.5,4.5-1.5s1.6-2.5,1.6-4.4c0-3.8-2-5.6-6-5.6L88.9,60.4L88.9,60.4z"/>
	<path class="st4" d="M102.9,68v5.5h-1.7V58.8h4c1.6,0,2.8,0.4,3.6,1.1c0.9,0.8,1.3,1.8,1.3,3.2s-0.5,2.5-1.4,3.4
		c-1,0.9-2.2,1.3-3.9,1.3C104.9,68,102.9,68,102.9,68z M102.9,60.4v6h1.8c1.2,0,2.1-0.3,2.7-0.8s0.9-1.3,0.9-2.3
		c0-1.9-1.1-2.9-3.4-2.9L102.9,60.4L102.9,60.4z"/>
	<path class="st4" d="M123,67.6c0,4.1-1.9,6.2-5.6,6.2c-3.6,0-5.3-2-5.3-5.9v-9h1.7v8.9c0,3,1.3,4.5,3.8,4.5c2.4,0,3.7-1.5,3.7-4.4
		v-9h1.7L123,67.6L123,67.6z"/>
	<path class="st4" d="M136.5,73.5h-2l-2.5-4.1c-0.2-0.4-0.4-0.7-0.7-1c-0.2-0.3-0.4-0.5-0.6-0.7c-0.2-0.2-0.5-0.3-0.7-0.4
		c-0.3-0.1-0.5-0.1-0.9-0.1h-1.4v6.2H126V58.8h4.4c0.6,0,1.2,0.1,1.8,0.2c0.5,0.2,1,0.4,1.4,0.7s0.7,0.7,0.9,1.2s0.3,1.1,0.3,1.7
		c0,0.5-0.1,1-0.2,1.4c-0.2,0.4-0.4,0.8-0.7,1.1c-0.3,0.3-0.6,0.6-1,0.9c-0.4,0.2-0.8,0.4-1.3,0.5l0,0c0.2,0.1,0.5,0.2,0.6,0.4
		c0.2,0.1,0.4,0.3,0.5,0.5c0.2,0.2,0.3,0.4,0.5,0.7c0.2,0.2,0.3,0.5,0.5,0.8L136.5,73.5z M127.7,60.4v5.3h2.3c0.4,0,0.8-0.1,1.2-0.2
		s0.7-0.3,0.9-0.6c0.3-0.2,0.5-0.5,0.6-0.9s0.2-0.7,0.2-1.2c0-0.8-0.3-1.4-0.8-1.8c-0.5-0.4-1.2-0.7-2.2-0.7L127.7,60.4L127.7,60.4z
		"/>
</g>
<g>
	<path class="st5" d="M148.1,85.4c-0.5,0.8-0.5,1.5-0.1,2.2c0.3,0.5,0.4,1,0.6,1.5c0.3,0.9,0.2,1.4-0.7,1.8c-0.7,0.4-1.4,0.7-2,1.1
		c-0.3,0.2-0.5,0.5-0.6,0.8c-0.2,0.8-0.3,1.5-0.4,2.3c-0.2,0.9-0.6,1.3-1.5,1.2c-0.8-0.1-1.5-0.3-2.3-0.3c-0.3,0-0.7,0.1-0.9,0.3
		c-0.6,0.5-1.1,1.1-1.7,1.6c-0.6,0.6-1.2,0.6-1.9,0c-0.6-0.5-1.1-1.1-1.7-1.6c-0.2-0.2-0.6-0.3-0.9-0.3c-0.7,0.1-1.4,0.2-2.1,0.3
		c-1,0.1-1.6-0.3-1.8-1.3c-0.1-0.5-0.2-1.1-0.2-1.6c0-0.8-0.4-1.3-1.1-1.6c-0.4-0.2-0.8-0.4-1.3-0.6c-1.1-0.6-1.3-1.2-0.8-2.3
		c0.3-0.6,0.6-1.2,0.9-1.9c0.1-0.3,0.1-0.6,0-0.9c-0.3-0.7-0.7-1.3-1-2c-0.5-0.9-0.3-1.6,0.7-2.1c0.6-0.3,1.2-0.6,1.8-0.9
		c0.5-0.2,0.8-0.6,0.8-1.2c0.1-0.7,0.2-1.4,0.3-2.2c0.2-0.8,0.6-1.1,1.5-1.1c0.7,0.1,1.5,0.2,2.3,0.4c0.5,0.1,0.8,0,1.1-0.3
		c0.6-0.6,1.2-1.1,1.8-1.7c0.6-0.5,1.2-0.5,1.8,0c0.6,0.6,1.1,1.2,1.7,1.7c0.2,0.2,0.6,0.3,0.9,0.3c0.7-0.1,1.4-0.2,2.1-0.3
		c1.1-0.2,1.6,0.3,1.8,1.3c0,0.2,0.1,0.4,0.1,0.6c-0.1,1.6,0.7,2.5,2.1,2.9c0.2,0.1,0.5,0.2,0.7,0.4c0.7,0.4,1,1.1,0.6,1.9
		C148.6,84.4,148.4,85,148.1,85.4z"/>
	<g>
		<path class="st3" d="M132.6,85.5h-0.7V81c-0.2,0.2-0.4,0.3-0.7,0.5s-0.5,0.3-0.7,0.4v-0.7c0.4-0.2,0.7-0.4,1-0.7
			c0.3-0.3,0.5-0.5,0.6-0.8h0.5L132.6,85.5L132.6,85.5z"/>
		<path class="st3" d="M134.1,84l0.7-0.1c0.1,0.4,0.2,0.6,0.4,0.8s0.4,0.3,0.7,0.3s0.6-0.1,0.9-0.4s0.4-0.6,0.4-1s-0.1-0.7-0.3-0.9
			c-0.2-0.2-0.5-0.3-0.9-0.3c-0.2,0-0.4,0.1-0.6,0.2c-0.2,0.1-0.3,0.2-0.4,0.4l-0.7-0.1l0.4-3h2.8v0.7h-2.3l-0.3,1.5
			c0.3-0.2,0.7-0.4,1.1-0.4c0.5,0,0.9,0.2,1.3,0.5s0.5,0.8,0.5,1.3s-0.2,1-0.5,1.3c-0.4,0.5-0.9,0.7-1.5,0.7c-0.5,0-0.9-0.1-1.3-0.4
			C134.3,84.9,134.1,84.5,134.1,84z"/>
		<path class="st3" d="M138.3,81.2c0-0.4,0.1-0.8,0.3-1c0.2-0.3,0.5-0.4,0.9-0.4s0.7,0.1,0.9,0.4s0.4,0.6,0.4,1.1s-0.1,0.9-0.4,1.1
			s-0.5,0.4-0.9,0.4c-0.3,0-0.6-0.1-0.9-0.4S138.3,81.7,138.3,81.2z M139.5,80.2c-0.2,0-0.3,0.1-0.4,0.2c-0.1,0.2-0.2,0.4-0.2,0.8
			s0.1,0.6,0.2,0.8s0.3,0.2,0.4,0.2c0.2,0,0.3-0.1,0.4-0.2c0.1-0.2,0.2-0.4,0.2-0.8s-0.1-0.6-0.2-0.8S139.7,80.2,139.5,80.2z
			 M139.5,85.7l3.1-6h0.6l-3.1,6H139.5z M142,84.2c0-0.4,0.1-0.8,0.3-1c0.2-0.3,0.5-0.4,0.9-0.4s0.7,0.1,0.9,0.4s0.4,0.6,0.4,1.1
			s-0.1,0.9-0.4,1.1s-0.5,0.4-0.9,0.4c-0.3,0-0.6-0.1-0.9-0.4S142,84.7,142,84.2z M143.2,83.2c-0.2,0-0.3,0.1-0.4,0.2
			c-0.1,0.2-0.2,0.4-0.2,0.8s0.1,0.6,0.2,0.8s0.3,0.2,0.4,0.2c0.2,0,0.3-0.1,0.4-0.2c0.1-0.2,0.2-0.4,0.2-0.8s-0.1-0.6-0.2-0.8
			S143.4,83.2,143.2,83.2z"/>
		<path class="st3" d="M130,89.7c0-1,0.3-1.7,0.8-2.2s1.2-0.8,2-0.8c0.5,0,1,0.1,1.4,0.4s0.7,0.6,1,1.1s0.3,1,0.3,1.5
			c0,0.6-0.1,1.1-0.4,1.6s-0.6,0.8-1,1s-0.9,0.4-1.4,0.4s-1-0.1-1.4-0.4s-0.7-0.6-1-1.1S130,90.2,130,89.7z M130.8,89.7
			c0,0.7,0.2,1.2,0.6,1.6s0.8,0.6,1.4,0.6c0.6,0,1-0.2,1.4-0.6s0.6-1,0.6-1.7c0-0.5-0.1-0.9-0.2-1.2c-0.2-0.3-0.4-0.6-0.7-0.8
			c-0.3-0.2-0.6-0.3-1-0.3c-0.5,0-1,0.2-1.4,0.6S130.8,88.9,130.8,89.7z"/>
		<path class="st3" d="M136.2,92.5v-5.7h3.9v0.7H137v1.8h2.7v0.6H137v2.6H136.2z"/>
		<path class="st3" d="M140.7,92.5v-5.7h3.9v0.7h-3.1v1.8h2.7v0.6h-2.7v2.6H140.7z"/>
	</g>
</g>
<g>
	<path class="st4" d="M31.9,95v-5.7h0.8v2.4h3v-2.4h0.8V95h-0.8v-2.7h-3V95H31.9z"/>
	<path class="st4" d="M37,95l2.2-5.7H40l2.3,5.7h-0.9l-0.7-1.7h-2.4L37.8,95H37z M38.7,92.6h1.9L40,91c-0.2-0.5-0.3-0.9-0.4-1.2
		c-0.1,0.4-0.2,0.7-0.3,1.1L38.7,92.6z"/>
	<path class="st4" d="M43,95v-5.7h0.8l3,4.5v-4.5h0.7V95h-0.8l-3-4.5V95H43z"/>
	<path class="st4" d="M51.4,92.7v-0.7l2.4,0v2.1c-0.4,0.3-0.8,0.5-1.2,0.7c-0.4,0.1-0.8,0.2-1.2,0.2c-0.6,0-1.1-0.1-1.5-0.4
		c-0.5-0.2-0.8-0.6-1-1c-0.2-0.5-0.4-1-0.4-1.5c0-0.6,0.1-1.1,0.3-1.6c0.2-0.5,0.6-0.8,1-1.1s0.9-0.4,1.5-0.4c0.4,0,0.8,0.1,1.1,0.2
		c0.3,0.1,0.6,0.3,0.8,0.6c0.2,0.2,0.3,0.6,0.4,0.9L53.1,91c-0.1-0.3-0.2-0.5-0.3-0.7c-0.1-0.2-0.3-0.3-0.5-0.4
		c-0.2-0.1-0.5-0.2-0.8-0.2c-0.3,0-0.6,0.1-0.9,0.2s-0.5,0.2-0.6,0.4s-0.3,0.4-0.4,0.6c-0.1,0.4-0.2,0.7-0.2,1.2
		c0,0.5,0.1,0.9,0.3,1.3s0.4,0.6,0.8,0.8c0.3,0.2,0.7,0.3,1.1,0.3c0.3,0,0.6-0.1,1-0.2c0.3-0.1,0.5-0.3,0.7-0.4v-1.1H51.4z"/>
	<path class="st4" d="M54.8,92.2c0-1,0.3-1.7,0.8-2.2c0.5-0.5,1.2-0.8,2-0.8c0.5,0,1,0.1,1.4,0.4c0.4,0.3,0.7,0.6,1,1.1
		c0.2,0.5,0.3,1,0.3,1.5c0,0.6-0.1,1.1-0.4,1.6c-0.2,0.5-0.6,0.8-1,1c-0.4,0.2-0.9,0.4-1.4,0.4c-0.5,0-1-0.1-1.4-0.4
		c-0.4-0.3-0.7-0.6-1-1.1C54.9,93.2,54.8,92.7,54.8,92.2z M55.5,92.2c0,0.7,0.2,1.2,0.6,1.6c0.4,0.4,0.8,0.6,1.4,0.6
		c0.6,0,1-0.2,1.4-0.6c0.4-0.4,0.6-1,0.6-1.7c0-0.5-0.1-0.9-0.2-1.2s-0.4-0.6-0.7-0.8s-0.6-0.3-1-0.3c-0.5,0-1,0.2-1.4,0.6
		C55.7,90.7,55.5,91.3,55.5,92.2z"/>
	<path class="st4" d="M65,89.3h0.8v3.3c0,0.6-0.1,1-0.2,1.4c-0.1,0.3-0.4,0.6-0.7,0.8c-0.3,0.2-0.8,0.3-1.3,0.3
		c-0.5,0-1-0.1-1.3-0.3c-0.3-0.2-0.6-0.5-0.7-0.8c-0.1-0.4-0.2-0.8-0.2-1.4v-3.3H62v3.3c0,0.5,0,0.9,0.1,1.1
		c0.1,0.2,0.3,0.4,0.5,0.5c0.2,0.1,0.5,0.2,0.8,0.2c0.6,0,1-0.1,1.2-0.4c0.2-0.3,0.4-0.7,0.4-1.5V89.3z"/>
	<path class="st4" d="M68.4,95v-5.1h-1.9v-0.7h4.5v0.7h-1.9V95H68.4z"/>
	<path class="st4" d="M71.1,95v-0.8h0.8V95c0,0.3-0.1,0.5-0.2,0.7c-0.1,0.2-0.3,0.3-0.5,0.4L71,95.8c0.1-0.1,0.3-0.2,0.3-0.3
		c0.1-0.1,0.1-0.3,0.1-0.5H71.1z"/>
	<path class="st4" d="M75.4,95v-5.7h2.1c0.4,0,0.8,0.1,1.1,0.2c0.3,0.1,0.5,0.3,0.6,0.5c0.1,0.2,0.2,0.5,0.2,0.8
		c0,0.2-0.1,0.5-0.2,0.7c-0.1,0.2-0.3,0.4-0.6,0.5c0.3,0.1,0.6,0.3,0.8,0.5c0.2,0.2,0.3,0.5,0.3,0.9c0,0.3-0.1,0.5-0.2,0.7
		s-0.3,0.4-0.4,0.5s-0.4,0.2-0.6,0.3c-0.3,0.1-0.6,0.1-0.9,0.1H75.4z M76.2,91.7h1.2c0.3,0,0.6,0,0.7-0.1c0.2-0.1,0.3-0.2,0.4-0.3
		s0.1-0.3,0.1-0.5c0-0.2,0-0.4-0.1-0.5s-0.2-0.2-0.4-0.3c-0.2-0.1-0.5-0.1-0.9-0.1h-1.1V91.7z M76.2,94.3h1.4c0.2,0,0.4,0,0.5,0
		c0.2,0,0.3-0.1,0.4-0.2c0.1-0.1,0.2-0.2,0.3-0.3c0.1-0.1,0.1-0.3,0.1-0.5c0-0.2-0.1-0.4-0.2-0.6c-0.1-0.2-0.3-0.3-0.5-0.3
		c-0.2-0.1-0.5-0.1-0.8-0.1h-1.3V94.3z"/>
	<path class="st4" d="M80.9,95v-5.7h0.8V95H80.9z"/>
	<path class="st4" d="M82.7,93.1l0.7-0.1c0,0.3,0.1,0.5,0.2,0.7s0.3,0.3,0.6,0.4s0.6,0.2,0.9,0.2c0.3,0,0.5,0,0.8-0.1
		s0.4-0.2,0.5-0.4c0.1-0.2,0.2-0.3,0.2-0.5c0-0.2-0.1-0.3-0.2-0.5c-0.1-0.1-0.3-0.2-0.5-0.3c-0.2-0.1-0.5-0.2-1-0.3
		c-0.5-0.1-0.9-0.2-1.1-0.4c-0.3-0.1-0.5-0.3-0.6-0.5c-0.1-0.2-0.2-0.5-0.2-0.7c0-0.3,0.1-0.6,0.2-0.8c0.2-0.3,0.4-0.4,0.7-0.6
		c0.3-0.1,0.7-0.2,1.1-0.2c0.4,0,0.8,0.1,1.1,0.2s0.6,0.3,0.7,0.6s0.3,0.6,0.3,0.9l-0.7,0.1c0-0.4-0.2-0.6-0.4-0.8
		c-0.2-0.2-0.6-0.3-1-0.3c-0.5,0-0.8,0.1-1,0.3s-0.3,0.4-0.3,0.6c0,0.2,0.1,0.4,0.2,0.5c0.1,0.1,0.5,0.3,1.1,0.4
		c0.6,0.1,1,0.3,1.3,0.4c0.3,0.2,0.6,0.3,0.7,0.6c0.2,0.2,0.2,0.5,0.2,0.8c0,0.3-0.1,0.6-0.3,0.9s-0.4,0.5-0.8,0.6
		c-0.3,0.1-0.7,0.2-1.1,0.2c-0.5,0-1-0.1-1.3-0.2c-0.4-0.2-0.6-0.4-0.8-0.7C82.8,93.9,82.7,93.5,82.7,93.1z"/>
	<path class="st4" d="M89.8,95v-5.1h-1.9v-0.7h4.5v0.7h-1.9V95H89.8z"/>
	<path class="st4" d="M97,89.3h0.8v3.3c0,0.6-0.1,1-0.2,1.4c-0.1,0.3-0.4,0.6-0.7,0.8c-0.3,0.2-0.8,0.3-1.3,0.3
		c-0.5,0-1-0.1-1.3-0.3c-0.3-0.2-0.6-0.5-0.7-0.8c-0.1-0.4-0.2-0.8-0.2-1.4v-3.3H94v3.3c0,0.5,0,0.9,0.1,1.1
		c0.1,0.2,0.3,0.4,0.5,0.5c0.2,0.1,0.5,0.2,0.8,0.2c0.6,0,1-0.1,1.2-0.4c0.2-0.3,0.4-0.7,0.4-1.5V89.3z"/>
	<path class="st4" d="M99,95v-5.7h2.2c0.4,0,0.7,0,0.9,0.1c0.3,0,0.5,0.1,0.7,0.3c0.2,0.1,0.3,0.3,0.5,0.6c0.1,0.2,0.2,0.5,0.2,0.8
		c0,0.5-0.2,0.9-0.5,1.2c-0.3,0.3-0.9,0.5-1.7,0.5h-1.5V95H99z M99.7,92h1.5c0.5,0,0.8-0.1,1-0.3c0.2-0.2,0.3-0.4,0.3-0.8
		c0-0.2-0.1-0.4-0.2-0.6c-0.1-0.2-0.3-0.3-0.5-0.3c-0.1,0-0.4-0.1-0.7-0.1h-1.5V92z"/>
	<path class="st4" d="M108.1,89.3h0.8v3.3c0,0.6-0.1,1-0.2,1.4c-0.1,0.3-0.4,0.6-0.7,0.8c-0.3,0.2-0.8,0.3-1.3,0.3
		c-0.5,0-1-0.1-1.3-0.3c-0.3-0.2-0.6-0.5-0.7-0.8c-0.1-0.4-0.2-0.8-0.2-1.4v-3.3h0.8v3.3c0,0.5,0,0.9,0.1,1.1
		c0.1,0.2,0.3,0.4,0.5,0.5c0.2,0.1,0.5,0.2,0.8,0.2c0.6,0,1-0.1,1.2-0.4c0.2-0.3,0.4-0.7,0.4-1.5V89.3z"/>
	<path class="st4" d="M110.1,95v-5.7h2.5c0.5,0,0.9,0.1,1.2,0.2c0.3,0.1,0.5,0.3,0.6,0.5c0.2,0.3,0.2,0.5,0.2,0.9
		c0,0.4-0.1,0.7-0.4,1c-0.3,0.3-0.7,0.5-1.2,0.5c0.2,0.1,0.4,0.2,0.5,0.3c0.2,0.2,0.4,0.5,0.6,0.8l1,1.6h-1l-0.8-1.2
		c-0.2-0.3-0.4-0.6-0.5-0.8c-0.1-0.2-0.3-0.3-0.4-0.4c-0.1-0.1-0.2-0.1-0.3-0.2c-0.1,0-0.2,0-0.4,0h-0.9V95H110.1z M110.9,91.8h1.6
		c0.3,0,0.6,0,0.8-0.1c0.2-0.1,0.3-0.2,0.4-0.3c0.1-0.2,0.2-0.3,0.2-0.5c0-0.3-0.1-0.5-0.3-0.7c-0.2-0.2-0.5-0.3-0.9-0.3h-1.8V91.8z
		"/>
</g>
</svg>
