<?xml version="1.0" encoding="utf-8"?>
<!-- Generator: Adobe Illustrator 21.0.0, SVG Export Plug-In . SVG Version: 6.00 Build 0)  -->
<svg version="1.1" id="Layer_1" xmlns="http://www.w3.org/2000/svg" xmlns:xlink="http://www.w3.org/1999/xlink" x="0px" y="0px"
	 viewBox="0 0 150 100" style="enable-background:new 0 0 150 100;" xml:space="preserve">
<style type="text/css">
	.st0{fill:#FCFCFC;}
	.st1{fill:#212938;}
	.st2{fill:#FCBD2C;}
	.st3{fill:#FFFFFF;}
	.st4{fill:#E72B3D;}
	.st5{opacity:0.4;fill:#606060;enable-background:new    ;}
	.st6{fill:none;stroke:#000000;stroke-miterlimit:10;}
	.st7{fill:#020202;}
</style>
<rect class="st0" width="150" height="100"/>
<g>
	<path class="st0" d="M71.5,19.5l2.4,23.4l9.4,0.8V18.5C83.3,18.5,75.1,13.1,71.5,19.5z"/>
	<path class="st0" d="M50.6,19.5l7,23.8l10.2,0.2l-6.3-27.4C61.5,16.1,51.3,14.2,50.6,19.5z"/>
	<polygon class="st0" points="40.7,43.7 53.7,44.2 40.2,22.1 31.2,28.4 	"/>
	<g>
		<path class="st0" d="M21.8,38.4v-5.1"/>
		<path class="st1" d="M54.6,13.3c0,0.5-0.1,0.7-0.3,0.9c-0.2,0.1-0.4,0.2-0.7,0.3c-1,0.3-2.1,0.6-3.1,1.1c-1.4,0.6-1.9,1.8-2,3.2
			c0,0.9,0.2,1.9,0.4,2.8c0.3,1,0.6,1.9,1,2.9c0.5,1.4,0.9,2.8,1.4,4.1c0.7,2,1.5,4,2.1,6c0.7,1.9,1.3,3.9,2,5.8
			c0.2,0.7,0.5,1.3,0.8,2c-0.6,0.1-1.1,0.2-1.4-0.3c-0.9-1.6-1.9-3.2-2.8-4.8c-1.5-2.6-3-5.2-4.5-7.8c-0.9-1.6-1.9-3.1-2.8-4.7
			c-0.8-1.3-1.5-2.6-2.8-3.5c-1.4-1-3.2-1.2-4.6-0.4c-1.9,1.2-3.9,2.4-5.8,3.7c-0.7,0.5-1.4,1.2-1.6,2.2c-0.3,1.5-0.1,3,1,4.3
			c0.3,0.3,0.4,0.7,0.7,1.2c-0.3,0-0.6,0.1-0.8,0.1c-5,0-10.1,0-15.1,0c-1.4,0-2.4,1-2.4,2.3c0,1.9,0,3.9,0,5.8
			c0,0.7,0.3,1.2,0.8,1.7c0.1,0.1,0.2,0.2,0.4,0.4c-0.4,0.1-0.7,0.1-0.9,0.3h123.5c-0.1-0.1-0.2-0.2-0.4-0.2
			c-0.4-0.1-0.8-0.2-1.3-0.2c-11,0-22.1,0-33.1,0c-0.8,0-0.9-0.1-0.6-0.8c0.5-1.2,1-2.3,1.6-3.5c0.6-1.1,1.2-2.2,1.7-3.3
			c0.6-1.2,1.3-2.3,1.8-3.6c0.2-0.5,0-1.2,0-1.8c0-0.3-0.2-0.6-0.2-0.9c0-0.4,0-0.8-0.4-1c-0.3-0.2-0.3-0.5-0.1-0.7
			c0.6-0.7,0.9-1.5,0.9-2.4c0-0.5,0-0.9,0-1.4c0-0.4,0-0.9,0.5-1.1c0.1,0,0.1-0.2,0.1-0.3c-0.1-1-0.3-2-0.4-3.1
			c-0.1-0.4-0.3-0.7-0.5-1c-1.1-1.5-2.6-1.9-4.4-1.5c-0.6,0.1-1.3,0.4-1.7,0.8c-1.1,1.3-2.2,2.6-2,4.5c0,0,0,0,0,0.1
			c0,0.4-0.2,0.5-0.6,0.5c-1,0.1-1.9,0.2-2.9,0.4c-0.9,0.2-0.9,0.3-1.2-0.6c-0.3-1-0.6-2-0.8-3c-0.2-0.6-0.4-1.3-0.3-1.9
			s0.6-1.1,0.6-1.7c0-0.1,0.1-0.1,0.2-0.2c0.8-0.6,1.6-1.1,2.4-1.8c1.3-1.1,2.6-2.2,3.9-3.2c1.1-0.8,1.6-2,1.9-3.2
			c0.2-1,0.1-2.1,0.1-3.2c0-0.5-0.4-0.6-0.7-0.6c-0.3,0-0.6,0.2-0.8,0.4c-0.9,1-1.8,2-2.8,2.9c-1.7,1.7-3.5,3.3-5.2,4.9
			c-0.8,0.7-0.8,0.7-1.7,0.2c-0.8-0.4-1.4-0.1-1.8,0.7c0,0.1-0.1,0.2-0.2,0.3c-0.4,0.3-0.9,0.5-1.3,0.7c-0.5,0.2-0.7,0.5-0.6,1
			c0.1,0.4,0,0.7-0.5,0.8c-0.4,0.1-0.8,0.3-1,0.6c-0.5,0.7-1,1.5-1.5,2.2c-0.1,0.2-0.2,0.3-0.4,0.6c-0.6-2.1-2-3.1-3.4-3.2
			c-2.7-0.2-5.3-0.1-8,0.3c-0.5,0.1-1.1,0.4-1.5,0.7c-1.2,0.8-1.6,2.1-1.7,3.5c0,0.9,0.2,1.8,0.3,2.7c0.2,2.3,0.4,4.5,0.6,6.8
			c0.2,2.4,0.4,4.9,0.6,7.3c0.1,1.8,0.3,3.6,0.4,5.4c0,0.3,0.1,0.7-0.4,0.7S69.2,42.8,69,42c-0.3-1-0.4-1.9-0.6-2.9
			C68.3,38,68,37,67.8,36c-0.2-0.8-0.5-1.6-0.6-2.4c-0.3-1.5-0.6-3.1-1-4.6c-0.3-1.4-0.7-2.8-1.1-4.3c-0.4-1.7-0.8-3.5-1.3-5.2
			c-0.1-0.2-0.1-0.4-0.1-0.6s0.2-0.4,0.4-0.5 M89,22.2c0-0.2,0.4-0.4,0.7-0.5c0.4-0.2,0.5-0.4,0.1-0.7c-0.1-0.1-0.2-0.1-0.2-0.2
			c-0.1-0.2,0.5-1.7,0.8-1.9c0.1,0.5,0.2,0.9,0.3,1.3c0,0.2,0.1,0.4,0.2,0.4c0.6,0.3,0.4,0.7,0.4,1.2c0,0.6,0.1,1.3,0,1.9
			c0,0.2-0.2,0.6-0.4,0.7c-0.6,0.3-1.3,0.5-2,0.7C88.9,24,88.9,23.1,89,22.2z M83.9,41.3c0-2.1,0-4.2,0.1-6.3
			c0.1-4.6,0.2-9.2,0.2-13.8c0-0.7-0.1-1.4-0.1-2.2c0.2,0.1,0.4,0.2,0.4,0.3c0.1,0.7,0.6,0.8,1.2,0.9c1,0.3,1.2,1,0.8,1.9
			c-0.7,1.6-1.2,3.2-1,5c0.1,1.1,0.8,1.8,1.9,1.8c1.2-0.1,2.5-0.3,3.7-0.4c0.7-0.1,1.4-0.3,1.9,0.1c-0.4,1.3-0.7,2.5-1,3.7
			c-0.1,0.5-0.4,0.9-0.6,1.4c-0.2,0.6-0.5,1.2-0.7,1.8c-0.3,1.1-1.2,1.8-2,2.5c-0.9,0.8-1.4,1.8-1.6,2.9c-0.2,0.9-0.9,1.1-1.6,1.4
			c-0.1,0-0.3,0-0.4,0C83.9,42.4,83.9,42.4,83.9,41.3z M73.8,17.9c2-0.1,4-0.1,6.1-0.1c0.6,0,1.3,0.6,1.4,1.2
			c0.1,0.9,0.2,1.9,0.3,2.8c0,1.3,0,2.5,0,3.8l0,0c0,1.8,0,3.6,0,5.5c-0.1,3.5-0.2,7.1-0.2,10.6c0,0.5-0.2,0.7-0.7,0.7c-2,0-4,0-6,0
			c-0.9,0-0.9-0.1-1-0.9c-0.2-1.8-0.4-3.6-0.6-5.5c0-0.1,0-0.2,0-0.2c-0.2-2.6-0.4-5.2-0.6-7.8c-0.1-1.7-0.2-3.4-0.4-5.2
			C72,22,71.9,21,71.9,20.1C71.7,18.3,72.4,18,73.8,17.9z M55.6,32.8c-0.5-1.3-1-2.6-1.4-4c-0.3-0.9-0.6-1.9-0.9-2.8
			c-0.7-1.9-1.5-3.9-2-5.8c-0.4-1.2-0.3-2,1-2.5c0.8-0.3,1.7-0.6,2.5-0.8c0.1,0,0.2,0,0.3,0s0.3,0.1,0.4,0.2
			c0.9,1.4,2.2,2.1,3.9,2.4c0.4,0.1,0.9,0,1.3,0.1c0.1,0,0.3,0.1,0.4,0.2l0.1,0.1c0.4,1.7,0.8,3.3,1.2,5c0.5,1.8,1,3.6,1.4,5.5
			c0.3,1.4,0.6,2.8,1,4.2c0.4,1.8,0.9,3.6,1.4,5.4c0.1,0.6,0.3,1.2,0.4,1.8c0.1,0.4-0.2,0.5-0.6,0.5c-1.1,0-2.1,0-3.2,0l0,0
			c-1,0-2.1,0-3.1,0c-0.4,0-0.6-0.2-0.7-0.6c-0.5-1.5-1-3-1.6-4.5C56.7,35.9,56.2,34.3,55.6,32.8z M33.6,26.4c1.1-0.7,2.1-1.4,3.2-2
			c0.6-0.4,1.2-0.9,1.9-1.2c0.4-0.2,0.9-0.1,1.3,0.1c0.9,0.4,1.4,1.1,1.9,1.9c1.1,1.9,2.2,3.7,3.3,5.6c0.4,0.7,0.8,1.4,1.2,2.1
			c0.8,1.3,1.5,2.6,2.3,4c1,1.7,2,3.5,3.1,5.2c0.1,0.1,0.1,0.3,0.1,0.5h-1l0,0c-2.6,0-5.1,0-7.7,0c-0.4,0-0.6-0.1-0.9-0.5
			c-1.1-1.5-2.2-3-3.3-4.5c-0.8-1.1-1.7-2.2-2.3-3.5c-0.7-1.3-2.1-2.9-3.1-4c-0.3-0.3-0.5-0.6-0.7-1C32.2,28.1,32.4,27.1,33.6,26.4z
			 M30,35.5c0-0.4,0.1-0.9-0.5-1.1c-0.1,0-0.1-0.2-0.1-0.4c1.5,0,2.9,0,4.3,0c0.4,0,0.8,1,0.5,1.8c-0.3-0.3-0.5-0.5-0.7-0.8
			c-0.2-0.2-0.3-0.4-0.5-0.5c-0.4-0.3-0.8,0-0.8,0.5c0,0.7,0,1.3,0,2c0,0.2,0.2,0.5,0.3,0.5c0.3,0.1,0.7,0.1,0.8-0.4
			c0-0.1,0.1-0.2,0.1-0.3c0.1-0.1,0.2-0.2,0.3-0.2s0.2,0.2,0.2,0.3c0,0.6,0,1.1,0,1.7c0,0.1-0.2,0.3-0.3,0.3s-0.2-0.1-0.3-0.2
			c-0.1-0.1-0.1-0.4-0.3-0.5s-0.5-0.1-0.7-0.1c-0.1,0-0.2,0.3-0.2,0.4c0,0.9,0,1.8,0,2.6c0,0.3-0.1,0.7,0.4,0.7
			c0.4,0.1,0.7-0.2,0.9-0.6c0.1-0.3,0.3-0.6,0.5-0.8c0.1-0.1,0.3,0,0.5,0c-0.1,0.5-0.1,1-0.2,1.4c-0.1,0.2-0.4,0.5-0.6,0.5
			c-1.4,0-2.8,0-4.4,0c0.1-0.3,0.2-0.5,0.3-0.7c0.1-0.3,0.4-0.6,0.4-0.9C30,39.1,30,37.3,30,35.5z M22.3,40.6c0-1.7,0-3.3,0-5
			c0-0.5,0.1-0.9-0.5-1.2c-0.1,0-0.1-0.2-0.1-0.4h3c0,0.9-0.1,1.8-0.1,2.6c-0.1,0.6,0.1,1,0.8,0.9c0.1,0,0.2,0,0.5,0.1
			c-0.1-1.2,0.2-2.4-0.3-3.6h3.1c0,0.1,0,0.2,0,0.3c-0.6,0.3-0.5,0.9-0.5,1.5c0,1.7,0,3.5,0,5.2c0,0.3,0.2,0.6,0.4,0.9
			c0.1,0.1,0.1,0.3,0.2,0.4c-0.1,0.1-0.3,0.1-0.4,0.1c-0.9,0-1.8,0-2.8,0c0.2-0.4,0.4-0.7,0.4-1.1c0-1,0-2,0-3
			c0-0.5-0.4-0.3-0.6-0.3c-0.3,0-0.7,0-0.6,0.5c0.1,1.2-0.2,2.5,0.2,3.7c0,0,0,0.1,0,0.2h-3.1c0.1-0.2,0.1-0.5,0.2-0.6
			C22.4,41.6,22.3,41.1,22.3,40.6z M15.3,34.3c0-0.1,0.3-0.3,0.5-0.3c1.5,0,3.1,0,4.6,0c0.2,0,0.5,0.2,0.5,0.4
			c0.1,0.4,0.2,0.8,0.2,1.3c-0.6,0.1-0.9,0.1-0.9-0.5c0-0.1,0-0.3-0.1-0.3c-0.2-0.2-0.4-0.3-0.6-0.5c-0.1,0.2-0.2,0.5-0.2,0.7
			c0,1.9,0,3.9,0,5.8c0,0.3,0.2,0.6,0.3,0.9c0.1,0.2,0.2,0.4,0.1,0.5c0,0.1-0.3,0.2-0.5,0.2c-0.7,0-1.5,0-2.3,0
			c-0.2,0-0.4-0.1-0.5-0.2c-0.1-0.1,0.1-0.3,0.1-0.5c0.1-0.3,0.3-0.5,0.3-0.8c0-2,0-4.1,0-6.1c0-0.2-0.2-0.4-0.3-0.7
			c-0.2,0.2-0.4,0.4-0.5,0.6c-0.1,0.1,0,0.4-0.1,0.5s-0.3,0.3-0.4,0.3c-0.1,0-0.4-0.2-0.4-0.3C15.2,35.1,15.2,34.7,15.3,34.3z"/>
		<path class="st1" d="M135.6,42H14.7c-1.1,0-2,0.9-2,2v18.5c0,1.1,0.9,2,2,2h7.7v18.3c0,1.1,0.7,1.9,1.5,1.9h95.6
			c0.9,0,1.5-0.9,1.5-1.9V64.5h14.5c1.1,0,2-0.9,2-2V44C137.6,42.9,136.7,42,135.6,42z"/>
	</g>
	<path class="st0" d="M68.9,5.9c0,0-4,3.1-1.1,4.8c0.2,0,14.1,1.9,14.1,1.9s3.2-6.5,0.5-6.5C82.6,6.4,68.9,5.9,68.9,5.9z"/>
	<path class="st0" d="M32.6,7.6c0,0-3.9,4.6-1.9,6.1C30.2,13.1,43.3,19,43.3,19s2.8-1.4,3.8-5.3C46.5,13.9,32.6,7.6,32.6,7.6z"/>
	<path class="st2" d="M34.6,50.4c0,0.8,0,1.6,0,2.4c0,0.4-0.1,0.5-0.5,0.5c-0.9,0-1.8,0-2.7,0c-0.2,0-0.4-0.2-0.5-0.4
		c-0.2-0.4-0.3-0.8-0.4-1.2c-0.6-1.3-2.8-1.5-3.7-0.2c-0.9,1.4-1,3-0.8,4.5c0.1,0.6,0.4,1.3,0.7,1.8c1.4,2,3.6,1.6,5,0.1
		c0.9-0.9,0.9-0.9,1.7,0.1c0.3,0.4,0.7,0.8,1.1,1.2c0.4,0.4,0.4,0.7-0.1,1c-1.4,1-2.7,2-4.5,2.3s-3.6,0.1-5.2-0.7
		c-1.1-0.5-2-1.2-2.6-2.4c-0.2-0.4-0.4-0.7-0.6-1.1c-0.2-0.6-0.4-1.2-0.5-1.8c-0.1-0.7,0-1.4-0.1-2.1c0-2.6,1.2-4.5,3.2-6.1
		c1.2-1,2.7-1.3,4.2-1c0.7,0.1,1.5,0.2,1.9,0.9c0.2,0.3,0.7,0.2,0.8-0.2c0.1-0.5,0.3-0.5,0.7-0.5c0.8,0,1.5,0,2.3,0
		c0.5,0,0.6,0.2,0.6,0.6C34.6,48.8,34.6,49.6,34.6,50.4L34.6,50.4z"/>
	<path class="st2" d="M25.4,42.7c0.2-0.4,0.4-0.7,0.4-1.1c0-1,0-2,0-3c0-0.5-0.4-0.3-0.6-0.3c-0.3,0-0.7,0-0.6,0.5
		c0.1,1.2-0.2,2.5,0.2,3.7c0,0,0,0.1,0,0.2c-1,0-2,0-3.1,0c0.1-0.2,0.1-0.5,0.2-0.6c0.5-0.3,0.4-0.8,0.4-1.2c0-1.7,0-3.3,0-5
		c0-0.5,0.1-0.9-0.5-1.2c-0.1,0-0.1-0.2-0.1-0.4c1.1,0,2.1,0,3,0c0,0.9,0,1.8-0.1,2.6c-0.1,0.6,0.1,1,0.8,0.9c0.1,0,0.2,0,0.5,0.1
		c-0.1-1.2,0.2-2.4-0.3-3.6c1,0,2.1,0,3.1,0c0,0.1,0,0.2,0,0.3c-0.6,0.3-0.5,0.9-0.5,1.5c0,1.7,0,3.5,0,5.2c0,0.3,0.2,0.6,0.4,0.9
		c0.1,0.1,0.1,0.3,0.2,0.4c-0.1,0.1-0.3,0.1-0.4,0.1C27.4,42.7,26.5,42.7,25.4,42.7z"/>
	<path class="st2" d="M34.6,40.7c-0.1,0.5-0.1,1-0.2,1.4c-0.1,0.2-0.4,0.5-0.6,0.5c-1.4,0-2.8,0-4.4,0c0.1-0.3,0.2-0.5,0.3-0.7
		c0.1-0.3,0.3-0.6,0.4-0.9c0-1.8,0-3.6,0-5.4c0-0.4,0.1-0.9-0.5-1.1c-0.1,0-0.1-0.2-0.1-0.4c1.5,0,2.9,0,4.3,0c0.4,0,0.8,1,0.5,1.8
		c-0.3-0.3-0.5-0.5-0.7-0.8c-0.2-0.2-0.3-0.4-0.5-0.5c-0.4-0.3-0.8,0-0.8,0.5c0,0.7,0,1.3,0,2c0,0.2,0.2,0.5,0.3,0.5
		c0.3,0.1,0.7,0.1,0.8-0.4c0-0.1,0.1-0.2,0.1-0.3c0.1-0.1,0.2-0.2,0.3-0.2S34,36.9,34,37c0,0.6,0,1.1,0,1.7c0,0.1-0.2,0.3-0.3,0.3
		s-0.2-0.1-0.3-0.2c-0.1-0.1-0.1-0.4-0.3-0.5s-0.5-0.1-0.7-0.1c-0.1,0-0.2,0.3-0.2,0.4c0,0.9,0,1.8,0,2.6c0,0.3-0.1,0.7,0.4,0.7
		c0.4,0.1,0.7-0.2,0.9-0.6c0.1-0.3,0.3-0.6,0.5-0.8C34.1,40.7,34.4,40.7,34.6,40.7z"/>
	<path class="st2" d="M21.1,35.9c-0.6,0.1-0.9,0.1-0.9-0.5c0-0.1,0-0.3-0.1-0.3c-0.2-0.2-0.4-0.4-0.6-0.5c-0.1,0.2-0.2,0.5-0.2,0.7
		c0,1.9,0,3.9,0,5.8c0,0.3,0.2,0.6,0.3,0.9c0.1,0.2,0.2,0.4,0.1,0.5c0,0.1-0.3,0.2-0.5,0.2c-0.8,0-1.5,0-2.3,0
		c-0.2,0-0.4-0.1-0.5-0.2c-0.1-0.1,0.1-0.3,0.1-0.5c0.1-0.3,0.3-0.5,0.3-0.8c0-2,0-4.1,0-6.1c0-0.2-0.2-0.4-0.3-0.7
		c-0.2,0.2-0.4,0.4-0.5,0.6c-0.1,0.1,0,0.4-0.1,0.5s-0.3,0.3-0.4,0.3c-0.1,0-0.4-0.2-0.4-0.3c-0.1-0.3-0.1-0.7,0-1.1
		c0-0.1,0.3-0.3,0.5-0.3c1.5,0,3.1,0,4.6,0c0.2,0,0.5,0.2,0.5,0.4C21,35,21,35.4,21.1,35.9z"/>
	<path class="st1" d="M47.2,13.7C47.1,13.7,47.1,13.7,47.2,13.7c0.1-0.3,0.2-0.5,0.3-0.7c0.3-0.5,0.1-0.8-0.4-1c-2.5-1-4.9-2-7.4-3
		c-0.9-0.4-1.8-0.6-2.7-1c-1.3-0.5-2.7-1.1-4-1.7c-0.6-0.3-0.9,0-1.1,0.5c-0.1,0.4-0.3,0.5-0.7,0.4c-0.3-0.1-0.5,0-0.7,0.4
		c-0.5,1.3-1.1,2.6-1.6,3.9c-0.2,0.4-0.1,0.7,0.4,0.7c0.1,0,0.2,0.1,0.4,0.1c-0.1,0.4-0.3,0.8-0.4,1.1c0,0.1,0,0.4,0.1,0.5
		c0.4,0.2,0.8,0.4,1.2,0.6c1.5,0.6,3,1.2,4.4,1.8c1.8,0.7,3.6,1.4,5.4,2.1c1.2,0.5,2.3,1,3.5,1.4c0.4,0.1,0.7,0.1,0.8-0.4
		c0.1-0.4,0.3-0.7,0.9-0.7c0.2,0,0.5-0.1,0.5-0.3c0.5-1,0.9-2.1,1.3-3.1C47.7,14.9,48.2,14.2,47.2,13.7z M45.2,16
		c-0.1,0.2-0.4,0.5-0.6,0.4c-0.6-0.1-0.9,0.2-1.1,0.8c-0.1,0.4-0.3,0.6-0.7,0.4c-0.3-0.2-0.8-0.3-0.4-0.9c0.2-0.3,0.1-0.6,0.2-0.9
		c-0.1,0-0.2-0.1-0.3-0.1c-0.2,0.4-0.5,0.8-0.7,1.3h-0.1c-0.9-0.4-0.9-0.4-0.5-1.4c0.1-0.1,0-0.3,0-0.5c-0.2,0.1-0.4,0.1-0.5,0.2
		c-0.1,0-0.1,0.1-0.1,0.2c-0.4,1-0.5,1-1.5,0.3c0.1-0.3,0.3-0.5,0.4-0.8c0.2-0.4,0-0.6-0.4-0.8s-0.9-0.3-1.3-0.5
		c-0.7-0.3-1-0.2-1.2,0.5c-0.1,0.2-0.2,0.4-0.3,0.6c-0.2-0.1-0.3-0.1-0.5-0.2c-0.4-0.2-0.6-0.4-0.4-0.9c0.1-0.2,0.6-0.7,0-0.9
		c-0.4-0.1-0.5,0.4-0.6,0.7c-0.1,0.2-0.2,0.4-0.3,0.6C34.2,14,34.1,14,34,13.9c-0.8-0.4-0.8-0.4-0.4-1.2c0.1-0.2,0-0.4,0-0.6
		c-0.2,0.1-0.4,0.1-0.5,0.3c-0.1,0.1-0.2,0.2-0.2,0.4c-0.1,0.4-0.3,0.5-0.7,0.4c-0.3-0.1-0.6-0.3-0.5-0.7c0-0.1,0-0.2,0-0.2
		c0.5-0.7,0.1-1-0.6-1.2c0.1-0.3,0.1-0.5,0.3-0.7c0.2-0.3,0.3-0.6,0.8-0.4c0.2,0,0.6-0.2,0.7-0.4c0.3-0.9,0.7-1,1.5-0.3
		c-0.2,0.4-0.6,0.9-0.1,1.5c0.2-0.4,0.3-0.7,0.4-0.9c0.1-0.4,0.3-0.5,0.7-0.4c0.3,0.1,0.7,0.2,0.5,0.7c-0.1,0.2-0.2,0.4-0.3,0.5
		c0,0.2,0,0.3,0,0.5c0.2,0,0.4,0,0.5-0.1s0.1-0.4,0.2-0.6c0.1-0.2,0.4-0.5,0.5-0.5c0.3,0.1,0.8,0.1,0.7,0.7c0,0.1-0.1,0.3-0.1,0.4
		c-0.3,0.7-0.2,0.9,0.5,1.2c0.4,0.1,0.8,0.3,1.3,0.4c0.6,0.2,0.9,0,1-0.5c0.1-0.6,0.3-0.6,1-0.4c0.5,0.2,0.3,0.5,0.2,0.8
		c-0.1,0.1-0.1,0.2-0.1,0.4s0,0.4,0.1,0.6c0.2-0.1,0.4-0.3,0.6-0.4c0.1-0.1,0-0.3,0.1-0.3c0.2-0.1,0.5-0.4,0.7-0.3
		c0.3,0.1,0.7,0.2,0.5,0.7c-0.1,0.2-0.2,0.3-0.3,0.5c0,0.1,0,0.3,0,0.5c0.2,0,0.4,0,0.5-0.1s0.2-0.3,0.2-0.4
		c0.1-0.6,0.3-0.5,0.8-0.4s0.6,0.4,0.4,0.8c-0.2,0.5-0.4,0.9,0.3,1.1C45.3,15.1,45.3,15.7,45.2,16z"/>
	<path class="st1" d="M84.1,7.1c-0.4-0.1-0.5-0.3-0.3-0.7C84,6,83.9,5.6,83.4,5.6c-1.3-0.2-2.5-0.4-3.8-0.5C78.4,5,77.2,4.9,76,4.8
		c-0.6,0-1.2-0.1-1.8-0.1c-1.5-0.2-3.1-0.3-4.6-0.5c-0.3,0-0.5-0.1-0.8-0.2c-1-0.2-1.7-0.3-1.6,1c0,0.1,0,0.2,0,0.3
		c-0.9,0.1-0.9,0.2-1.1,1c0,0.2,0,0.3-0.1,0.5c-0.1,0.9-0.2,1.8-0.3,2.7c-0.1,0.9,0,1,0.8,1.4c0,0.3,0,0.6,0,0.9
		c0,0.2,0.1,0.4,0.3,0.4c0.3,0.1,0.6,0.2,1,0.2c1.7,0.2,3.3,0.4,5,0.6c1.5,0.2,3,0.4,4.5,0.5c1.7,0.2,3.4,0.3,5.2,0.4
		c0.5,0,0.7-0.1,0.7-0.6c0-0.3,0-0.5,0-0.8c1.1-0.2,1.1-0.2,1.2-1.4c0-0.6,0.1-1.2,0.1-1.8s0.1-1.1,0.1-1.7
		C84.5,7.4,84.3,7.2,84.1,7.1z M82.4,9.7c0,0.2,0,0.4-0.1,0.7c-0.9-0.1-1.2,0.4-1,1.3c-0.4,0-0.8,0-1.2-0.1c0-0.4,0-0.7,0-1.1
		c0-0.1-0.1-0.2-0.2-0.4c-0.1,0.1-0.3,0.2-0.4,0.3c-0.1,0.3-0.1,0.7-0.1,1c-1,0.2-1.2,0.1-1.2-0.9c0-0.3,0.2-0.8-0.6-0.6
		c0,0.3,0,0.6,0,0.8c0,0.6-0.4,0.6-0.7,0.5c-0.4,0-0.6-0.2-0.5-0.7c0.2-0.9,0.1-1-0.9-1.1c-0.5,0-0.9-0.1-1.4-0.2
		c-0.4-0.1-0.6,0-0.6,0.4c-0.1,1.1-0.2,1.1-1.3,0.9c-0.4-0.5,0.5-1.1-0.3-1.6c-0.1,0.3-0.1,0.5-0.2,0.8s-0.2,0.7-0.7,0.7
		s-0.7-0.1-0.6-0.7c0-0.3,0-0.6,0-0.9c-0.6,0.1-0.6,0.5-0.6,0.9c0,0.3,0,0.6-0.5,0.6c-0.4,0-0.7-0.2-0.7-0.7
		c0.1-0.6,0.1-1.2-0.8-1.1c0-0.4,0-0.8,0-1.1c0-0.1,0.2-0.3,0.3-0.3c0.8,0,0.8-0.4,0.8-1c0-0.1,0-0.3,0-0.4c0.1,0,0.2,0,0.3,0
		c0.9,0,0.9,0,0.8,0.9c0,0.5,0,0.5,0.5,0.8c0.1-0.5,0.3-1.1,0.4-1.6C71.2,6,71.3,6,71.5,6.1c0.6,0.1,0.7,0.5,0.5,1
		c0,0.2,0.1,0.4,0.2,0.5c0.1-0.1,0.3-0.3,0.4-0.4c0.1-0.2,0.1-0.4,0.1-0.6c0-0.4,0.3-0.4,0.6-0.4c0.3,0,0.5,0.2,0.5,0.5
		c0,0.4-0.1,0.9,0.1,1.1C74.1,8.1,74.6,7.9,75,8c0.2,0,0.5,0.1,0.7,0.2c0.6,0.2,0.8,0.1,0.9-0.6c0.1-0.4,0.1-0.8,0.7-0.9
		c0.5,0,0.7,0.1,0.6,0.6c0,0.3,0,0.7,0,1.1c0.1,0,0.2,0,0.3,0.1c0.1-0.3,0.3-0.6,0.3-0.9c0-0.5,0.3-0.6,0.7-0.6
		c0.5,0,0.5,0.2,0.5,0.6v0.1C79.9,8,79.9,8.5,80,8.5c0.5,0,0.3-0.4,0.4-0.7c0.1-0.2,0.2-0.6,0.3-0.6c0.3,0,0.6,0,0.9,0.2
		c0.1,0.1,0,0.4,0,0.7c0,0.2,0.1,0.6,0.2,0.7C82.5,8.9,82.4,9.3,82.4,9.7z"/>
	<path class="st3" d="M61.1,20.1c-0.2,0-0.4,0-0.7,0c-2.2,0-4.2-1.2-5.3-3c0.1,0,0.3,0.1,0.4,0.2c0.9,1.4,2.2,2.1,3.9,2.4
		c0.4,0.1,0.9,0,1.3,0.1C60.8,19.9,61,20,61.1,20.1z"/>
	<path class="st2" d="M84.8,50.2c-0.2,0-0.3-0.1-0.4-0.1c-1-0.1-1-0.1-1-1.1c0-1.8-0.2-1.5,1.5-1.5c1.6,0,3.3,0,4.9,0
		c0.5,0,0.7,0.2,0.6,0.7c0,0.2,0,0.5,0,0.7c0,0.4,0.1,0.8-0.1,1.1c-0.2,0.2-0.7,0.1-1,0.2c-0.2,0-0.3,0.1-0.4,0.2
		c-0.8,0.7-1.6,1.4-2.4,2.1c-0.4,0.3-0.4,0.6-0.1,1c1,1.5,2,3.1,2.9,4.6c0.3,0.4,0.5,0.9,0.8,1.3c0.2,0.2,0.6,0.3,0.8,0.3
		c0.4,0,0.6,0.1,0.6,0.6s0,1.1,0,1.6c0,0.4-0.2,0.6-0.6,0.6c-2.3,0-4.6,0-7,0c-0.4,0-0.6-0.1-0.6-0.6s0-1.1,0-1.6
		c0-0.4,0.2-0.6,0.6-0.5c0.2,0,0.5-0.1,0.8-0.1c-0.8-1.2-1.4-2.3-2.1-3.3c-0.1-0.1-0.5-0.1-0.7,0c-0.1,0-0.1,0.2-0.2,0.3
		c-1.2,0.5-1.1,1.6-1.1,2.6c0,0.4,0.2,0.6,0.6,0.6c0.5-0.1,0.7,0.1,0.6,0.6c0,0.5,0,1.1,0,1.6c0,0.4-0.2,0.6-0.6,0.6
		c-1.8,0-3.7,0-5.5,0c-0.5,0-0.6-0.2-0.6-0.7s0-0.9,0-1.4c0-0.4,0.2-0.7,0.7-0.7s0.7-0.3,0.7-0.8c0-2.7,0-5.4,0-8.1
		c0-0.5-0.1-0.8-0.7-0.7c-0.5,0-0.7-0.1-0.6-0.7c0.1-0.5,0-1.1,0.1-1.6c0-0.2,0.3-0.4,0.5-0.4c1.9,0,3.7,0,5.6,0
		c0.4,0,0.5,0.2,0.5,0.5c0,0.5,0,1,0,1.5s-0.2,0.7-0.6,0.6c-0.5-0.1-0.6,0.1-0.6,0.6c0,0.8,0,1.5,0,2.3c0,0.2,0.1,0.4,0.2,0.6
		c0.2-0.1,0.4-0.1,0.5-0.2c1.1-0.9,2.1-1.9,3.2-2.9C84.6,50.4,84.7,50.3,84.8,50.2z"/>
	<path class="st2" d="M50.5,58.1c-0.5,0-0.7,0.2-0.7,0.7c0,0.3,0,0.7-0.5,0.7s-0.5-0.3-0.5-0.7c0-0.9-0.2-1.8-0.8-2.5
		c-0.5-0.5-1.1-1-1.7-1.5c0.2-0.1,0.4-0.2,0.6-0.3c1.9-0.8,2.7-2.9,1.8-4.8c-0.8-1.6-2.3-2.2-3.9-2.3c-2.7-0.1-5.4,0-8.1-0.1
		c-0.4,0-0.5,0.2-0.5,0.5c0,0.5,0,1,0,1.4c0,0.5,0.1,0.7,0.6,0.7c0.5-0.1,0.6,0.1,0.6,0.6c0,2.7,0,5.4,0,8.1c0,0.6-0.1,0.8-0.7,0.7
		c-0.4-0.1-0.5,0.1-0.5,0.5c0,0.6,0,1.2,0,1.8c0,0.2,0.3,0.5,0.5,0.5c1.9,0,3.8,0,5.8,0c0.4,0,0.5-0.2,0.5-0.6c0-0.6,0-1.2,0-1.8
		c0-0.2-0.2-0.4-0.4-0.4c-0.3-0.1-0.6-0.1-1-0.1c0-1,0-1.9,0-2.9c0-0.1,0.1-0.3,0.2-0.3c0.8-0.4,2,0.1,2.1,1
		c0.1,0.6,0.1,1.3,0.1,1.9c0.1,1.8,1.4,3.4,3.5,3.3c0.5,0,0.9,0,1.4,0c0.9-0.1,1.6-0.6,1.9-1.4c0.3-0.7,0.3-1.5,0.4-2.2
		C51.2,58.3,51,58.1,50.5,58.1z M41.8,53.8c-0.2-0.1-0.4-0.3-0.4-0.5c0-0.9,0-1.7,0-2.6c0-0.4,0.1-0.6,0.5-0.6c0.3,0,0.6,0,0.9,0
		c1.3,0,1.9,0.5,1.9,1.9C44.7,53.4,43.1,54.4,41.8,53.8z"/>
	<path class="st2" d="M102.2,50.1c-1.2,0-2.4,0-3.6,0c0,0.9,0,1.8,0,2.7c0,0.2,0.5,0.5,0.7,0.5c0.9,0.1,1.8,0,2.8,0
		c0.5,0,0.7,0.1,0.6,0.6c0,0.6,0,1.3,0,2c-1.2,0-2.3,0-3.4,0c-0.7,0-0.8,0-0.7,0.8c0,0.7,0,1.5,0,2.2c0,0.5,0.2,0.7,0.7,0.7
		c0.8,0,1.7,0,2.5,0c0.4,0,0.5-0.1,0.5-0.5c0-0.5,0-1,0-1.6c1.1,0,2.3,0,3.4,0c0.1,0,0.3,0.3,0.3,0.4c0,1.3,0,2.5,0,3.8
		c0,0.5-0.4,0.6-0.8,0.6c-1.6,0-3.1,0-4.7,0c-2.2,0-4.4,0-6.6,0c-0.6,0-0.8-0.2-0.8-0.8c0-0.5,0-1,0-1.4c0-0.5,0.2-0.7,0.6-0.6
		c0.5,0.1,0.7-0.1,0.7-0.7c0-2.7,0-5.4,0-8.1c0-0.5-0.1-0.8-0.6-0.7c-0.7,0.2-0.8,0-0.8-0.5s0-0.9,0-1.4s0.2-0.6,0.7-0.6
		c3.9,0,7.7,0,11.6,0c0.5,0,0.7,0.2,0.7,0.7c0,1.1,0,2.2,0,3.3c0,0.4-0.1,0.5-0.5,0.6c-0.9,0-1.8,0.1-2.7,0.1
		c-0.2,0-0.4-0.3-0.5-0.6C102.2,51.1,102.2,50.6,102.2,50.1z"/>
	<path class="st2" d="M73.8,50.5c0,0.7,0,1.5,0,2.2c0,0.4-0.2,0.7-0.6,0.6c-0.9,0-1.8,0-2.6,0c-0.3,0-0.4-0.2-0.5-0.5
		c-0.2-0.6-0.5-1.3-0.9-1.7c-1-0.9-2.8-0.7-3.5,1c-0.4,1.1-0.8,2.2-0.6,3.4c0.2,1.2,0.6,2.4,1.6,3.2c0.9,0.7,2.6,0.6,3.7-0.2
		c0.4-0.3,0.7-0.7,1.1-1c0.1-0.1,0.5-0.1,0.6,0c0.6,0.6,1.1,1.3,1.7,1.9c0.3,0.3,0.3,0.6-0.1,0.9c-1.1,1-2.3,1.9-3.7,2.2
		c-1.1,0.2-2.2,0.5-3.3,0.2c-0.9-0.2-1.8-0.2-2.6-0.7c-1.1-0.6-2-1.4-2.7-2.4c-0.8-1.4-1.3-3-1.2-4.6c0-1.3,0.4-2.6,1-3.8
		c0.6-1.4,1.6-2.4,2.8-3.1c1.3-0.8,2.8-1.1,4.3-0.5c0.5,0.2,1,0.4,1.4,0.7s0.6,0.2,0.7-0.2s0.3-0.5,0.7-0.5c0.7,0,1.3,0,2,0
		c0.6,0,0.8,0.3,0.8,0.8C73.8,49,73.8,49.7,73.8,50.5L73.8,50.5z"/>
	<path class="st2" d="M114.2,47.5c2.2,0,4.3,0,6.5,0c0.5,0,0.7,0.2,0.7,0.7c0,1.4,0,2.8,0,4.1c0,0.5-0.3,0.6-0.7,0.6
		c-0.6,0-1.1-0.1-1.7,0c-0.5,0.1-0.6-0.1-0.6-0.5c0-0.6,0-1.2,0-1.8c0-0.4-0.1-0.5-0.5-0.5s-0.8,0-1.2,0c-0.4,0-0.5,0.1-0.5,0.6
		c0.1,0.8,0,1.5,0,2.3c0,1.5,0,3.1,0.1,4.6c0,0.5,0.1,1,0,1.4c-0.1,0.5,0.1,0.6,0.4,0.6c0.1,0,0.1,0,0.2,0c1.2,0,1.2,0,1.2,1.3
		c0,1.4,0.3,1.5-1.5,1.5c-1.9,0-3.7,0-5.6,0c-0.8,0-0.8-0.1-0.8-0.8c0-0.5,0-0.9,0-1.4s0.2-0.6,0.6-0.6c1.1,0,1.1,0,1.1-1.2
		c0-2.5,0-5.1,0-7.6c0-0.5-0.2-0.7-0.7-0.7c-1.7,0-1.4-0.2-1.4,1.4c0,1.5,0.2,1.3-1.3,1.3c-0.3,0-0.6,0-0.9,0
		c-0.7,0.1-0.8,0-0.8-0.7c0-1.3,0-2.6,0-3.9c0-0.6,0.2-0.8,0.7-0.8C109.8,47.5,112,47.5,114.2,47.5L114.2,47.5L114.2,47.5
		L114.2,47.5z"/>
	<path class="st2" d="M53.5,54.8c0-1.3,0-2.6,0-3.9c0-0.6-0.2-0.8-0.8-0.7S51.9,50,52,49.5c0-0.5,0-0.9,0-1.4c0-0.4,0.2-0.5,0.5-0.5
		c2,0,4,0,5.9,0c0.2,0,0.5,0.3,0.5,0.5c0.1,0.6,0,1.2,0,1.7c0,0.4-0.3,0.4-0.6,0.4c-0.6-0.1-0.8,0.2-0.8,0.8c0,2.7,0,5.3,0,8
		c0,0.5,0.1,0.8,0.7,0.7c0.5-0.1,0.7,0.2,0.7,0.7s0,1,0,1.5c0,0.4-0.2,0.6-0.6,0.6c-1.9,0-3.8,0-5.8,0c-0.4,0-0.7-0.2-0.6-0.6
		c0-0.5,0-1.1,0-1.6c0-0.4,0.1-0.6,0.5-0.6c0.9,0,0.9,0,0.9-1C53.5,57.3,53.5,56.1,53.5,54.8z"/>
	<path class="st2" d="M72.7,79.2c-0.1-0.2-0.3-0.3-0.4-0.5c-0.2-0.7-0.3-1.3-0.5-2c-0.2-0.8-0.3-1.6-0.4-2.4c-0.1-0.5-0.2-1-0.3-1.5
		c-0.2-0.9-0.4-1.7-0.6-2.6c-0.2-1-0.4-2-0.6-3c0-0.2-0.4-0.4-0.6-0.4c-1.3,0-2.5,0-3.8,0c-0.2,0-0.5,0.1-0.5,0.2
		c0,0.2,0.1,0.5,0.2,0.7c0.1,0.3,0.3,0.6,0.3,0.8c-0.1,0.9-0.2,1.7-0.4,2.6c-0.4,1.8-0.7,3.7-1.1,5.5c-0.2,1-0.2,2.2-1.1,3
		C63,79.5,63,79.8,63,80c0,0.1,0.3,0.2,0.4,0.2c0.7,0,1.5,0,2.2,0c0.2,0,0.4-0.2,0.5-0.3c0.1-0.1-0.1-0.4-0.2-0.5
		c-0.7-0.4-0.6-1-0.6-1.6c0-0.4,0.2-0.6,0.6-0.6c0.5,0,0.9,0,1.4,0c1,0,1.3,0.3,1.2,1.3c0,0.3-0.4,0.6-0.5,0.9
		c-0.1,0.2-0.2,0.4-0.2,0.6c0,0.1,0.3,0.2,0.5,0.2c0.7,0,1.3,0,2,0s1.3,0,2,0c0.2,0,0.6-0.1,0.6-0.2C72.9,79.7,72.8,79.4,72.7,79.2z
		 M67.5,76.4c-0.4,0-0.9,0-1.3,0s-0.6-0.2-0.5-0.7c0.3-1.5,0.5-3.1,0.8-4.6c0.1-0.3,0.2-0.6,0.3-1c0.1,0,0.1,0,0.2,0.1
		c0.1,0.6,0.3,1.1,0.4,1.7c0.1,0.5,0.2,0.9,0.3,1.4c0.1,0.9,0.2,1.7,0.3,2.6C68.1,76.2,67.9,76.4,67.5,76.4z"/>
	<path class="st2" d="M86.5,80.2c-1.1,0-2.2,0-3.3,0c-0.2,0-0.5-0.2-0.7-0.4c0.1-0.2,0.3-0.5,0.5-0.6c0.5-0.3,0.7-0.6,0.6-1.2
		c0-3.2,0-6.3,0-9.5c0-0.4-0.1-0.7-0.5-1c-0.2-0.1-0.3-0.5-0.5-0.7c0.2-0.1,0.5-0.3,0.7-0.3c2,0,4.1,0,6.1,0c0.6,0,0.8,0.2,0.9,0.7
		s0.3,1,0.3,1.4c0,0.2,0,0.7,0,0.7c-0.4,0.1-0.8,0.2-1.1-0.3c-0.2-0.4-0.5-0.8-0.7-1.3c-0.3-0.5-0.7-0.5-1.2-0.5
		c-0.5,0.1-0.5,0.5-0.5,0.9c0,1.1,0,2.2,0,3.3c0,0.5,0.1,0.8,0.7,0.9c0.7,0,1-0.1,1.1-0.8c0.1-0.4,0.2-0.7,0.7-0.7s0.7,0.2,0.7,0.6
		c0,0.8,0,1.5,0,2.3c0,0.3-0.1,0.6-0.5,0.6s-0.7,0-0.8-0.5c-0.1-0.6-0.4-0.8-1.2-0.7c-0.6,0-0.5,0.4-0.5,0.8c0,1.2,0.1,2.5,0.2,3.7
		c0,0.2,0,0.3,0,0.5c0,0.3-0.3,0.7,0.2,0.8c0.5,0.1,1,0.2,1.4-0.3c0.3-0.4,0.5-0.9,0.7-1.4s0.7-0.8,1.2-0.6c0.1,0,0.2,0.2,0.2,0.3
		c-0.1,0.8-0.3,1.6-0.5,2.4c-0.1,0.2-0.5,0.4-0.7,0.4C88.6,80.2,87.6,80.2,86.5,80.2L86.5,80.2z"/>
	<path class="st2" d="M77.5,66.6c1,0,2.1,0,3.1,0c0.4,0,0.6,0.1,0.7,0.5c0.1,0.6,0.3,1.1,0.5,1.7c0,0.2-0.1,0.5-0.1,0.7
		c-0.3-0.1-0.7,0-0.9-0.2c-0.3-0.3-0.4-0.7-0.6-1.1c-0.3-0.6-1-0.9-1.5-0.7c-0.1,0.1-0.2,0.3-0.2,0.4c0,1.3,0,2.6,0,3.9
		c0,0.2,0.2,0.5,0.3,0.6c0.3,0,0.7,0,0.9-0.2c0.2-0.1,0.4-0.5,0.4-0.7c0.1-0.5,0.4-0.5,0.8-0.5c0.3,0,0.5,0.1,0.5,0.5
		c0,0.8,0,1.5,0,2.3c0,0.3,0.1,0.7-0.4,0.7c-0.4,0-0.8,0.1-0.9-0.5c-0.2-0.7-0.5-0.9-1.2-0.7c-0.2,0-0.4,0.3-0.4,0.4
		c0,1.5,0,3.1,0,4.6c0,0.2,0.3,0.5,0.5,0.6c0.3,0.2,0.7,0.2,0.6,0.7c-0.1,0.4-0.4,0.5-0.8,0.5c-1.4,0-2.9,0-4.3,0
		c-0.3,0-0.6-0.2-0.7-0.4c-0.2-0.3,0-0.6,0.4-0.8c0.2-0.1,0.4-0.4,0.4-0.7c0-3.4,0-6.7,0-10.1c0-0.2-0.3-0.4-0.4-0.7
		c-0.1-0.2-0.3-0.4-0.4-0.6c0.2-0.1,0.4-0.3,0.7-0.3C75.4,66.6,76.4,66.6,77.5,66.6L77.5,66.6z"/>
	<path class="st2" d="M127.5,57.7c0.3,0.1,0.4,0.1,0.5,0.1c0.9,1,2.2,0.9,3.3,0.8c0.9-0.1,1.1-1.1,0.4-1.8c-0.9-0.8-1.7-1.7-2.6-2.5
		c-0.9-0.8-1.4-1.8-1.3-3c0-0.6-0.1-1-0.8-0.9c-0.2,0-0.4-0.1-0.6-0.3c-0.6-0.6-1-1.3-1.3-2.2c0.2,0,0.4-0.1,0.6-0.1
		c2,0,4.1,0,6.1,0c1.3,0,2.1,0.8,2.8,1.7c0.2,0.2,0.1,0.7,0.1,1c0,0.5,0,0.9,0,1.4c-0.6-0.3-1.1-0.7-1.6-0.9
		c-0.7-0.2-1.4-0.2-2.1-0.1c-0.7,0.1-1.1,1-0.6,1.6c0.6,0.8,1.3,1.6,2.1,2.3c0.9,0.8,1.6,1.7,2.1,2.8c0.1,0.1,0.1,0.3,0.1,0.4
		c-0.3,1.2-0.4,2.4-1.6,3.1c-1.4,0.8-2.9,0.9-4.1-0.2c-0.5-0.4-0.8-1.2-1.1-1.8C127.8,58.7,127.7,58.3,127.5,57.7z"/>
	<path class="st2" d="M58.8,73.5c0,1.6,0,3.2,0,4.8c0,0.8,0.2,1,0.7,1.1c0.7,0,0.9-0.2,1.1-0.9c0-0.3,0.1-0.6,0.2-0.9
		c0.2-0.5,0.6-0.6,1.1-0.6c0.5,0.1,0.4,0.5,0.4,0.8c0,1.2-1.1,2.3-2.3,2.4c-2.1,0.2-3.6-0.5-4.5-2.4c-0.4-0.9-0.7-1.8-0.8-2.8
		c-0.1-1.2-0.1-2.5,0-3.7c0-1.3,0.6-2.5,1.3-3.5c1-1.3,2.4-1.8,4-1.2c0.4,0.2,0.7,0,1-0.1c0.7-0.3,1.1-0.2,1.2,0.6
		c0.1,0.9,0.1,1.8,0,2.6c0,0.1-0.2,0.4-0.4,0.4c-0.3,0-0.6-0.1-0.7-0.3c-0.3-0.6-0.5-1.2-0.7-1.8c-0.2-0.5-0.6-0.7-1.1-0.7
		s-0.6,0.4-0.7,0.9C58.8,70,58.9,71.8,58.8,73.5C58.9,73.5,58.8,73.5,58.8,73.5z"/>
	<path class="st2" d="M45.3,69.1c0.3,0.8,0.6,1.6,0.8,2.4c0.1,0.4,0.4,0.6,0.7,0.6c0.8,0,1.6,0,2.5,0c-0.1,0.2-0.3,0.4-0.5,0.6
		c-0.5,0.4-1,0.7-1.5,1s-0.5,0.7-0.3,1.2c0.3,0.7,0.5,1.5,0.8,2.2c-0.1,0-0.1,0.1-0.2,0.1c-0.2-0.2-0.4-0.3-0.6-0.5
		c-0.5-0.3-0.9-0.7-1.4-1c-0.4-0.3-0.7-0.3-1.1,0c-0.5,0.5-1.1,0.9-1.7,1.3c-0.1,0.1-0.2,0.1-0.5,0.3c0.3-0.8,0.5-1.4,0.7-2
		s0.4-1.1-0.2-1.5c-0.4-0.3-0.8-0.7-1.3-0.9c-0.4-0.2-0.5-0.3-0.4-0.7c0.7,0,1.5,0,2.2,0c0.6,0,0.8-0.3,1-0.8
		c0.2-0.7,0.5-1.5,0.7-2.2C45.1,69.1,45.2,69.1,45.3,69.1z"/>
	<path class="st2" d="M95.7,72.1c0.6,0,1.3,0,1.9,0c0.3,0,0.5,0.1,0.7,0s0.5-0.3,0.6-0.5c0.3-0.8,0.5-1.6,0.8-2.6
		c0.1,0.1,0.3,0.2,0.3,0.3c0.2,0.7,0.4,1.5,0.7,2.2c0.1,0.3,0.5,0.5,0.8,0.5c0.6,0,1.3-0.1,1.9-0.1c0.1,0,0.3,0.1,0.4,0.1
		c-0.1,0.1-0.1,0.3-0.3,0.4c-0.6,0.4-1.2,0.9-1.7,1.3c-0.3,0.2-0.4,0.5-0.2,0.9c0.3,0.6,0.5,1.2,0.7,1.8c0.1,0.2,0,0.4,0.1,0.8
		c-0.4-0.3-0.8-0.5-1.1-0.7c-0.4-0.3-0.8-0.6-1.2-0.9c-0.3-0.3-0.6-0.3-0.9,0c-0.7,0.5-1.3,1-2,1.5c-0.1,0-0.1-0.1-0.2-0.1
		c0.1-0.4,0.3-0.9,0.4-1.3c0.1-0.5,0.4-0.9,0.4-1.4c0-0.2-0.2-0.5-0.5-0.7c-0.6-0.5-1.2-0.9-1.8-1.3C95.7,72.3,95.7,72.2,95.7,72.1z
		"/>
	<path class="st2" d="M89.5,63.9c-0.1,0.1-0.3,0.2-0.4,0.3c-1,0.4-2,0.9-2.9,1.3c-0.2,0.1-0.3,0-0.5,0.1c0.1-0.2,0.1-0.3,0.2-0.5
		s0.3-0.5,0.5-0.7c0.5-0.6,1.1-0.8,1.8-0.7c0.4,0,0.9,0,1.3,0C89.5,63.7,89.5,63.8,89.5,63.9z"/>
	<path class="st2" d="M123.6,45c-0.2,0.6-0.4,1.1-0.5,1.5c0,0.1,0.1,0.3,0.3,0.4c0.5,0.2,0.4,0.7,0.3,1c-0.1,0.2-0.5,0.2-0.8,0.2
		c-0.1,0-0.3-0.2-0.3-0.3c0-0.8-0.2-1.6,0.4-2.3C123.1,45.3,123.3,45.2,123.6,45z"/>
	<path class="st4" d="M66.6,14c0,2.2-1.1,4.1-2.8,5.2c-0.8,0.5-1.7,0.8-2.7,1c-0.2,0-0.4,0-0.7,0c-2.2,0-4.2-1.2-5.3-3
		c-0.5-0.8-0.8-1.7-0.8-2.7c0-0.1,0-0.3,0-0.4c0-3.4,2.7-6.1,6.1-6.1C63.8,7.9,66.6,10.6,66.6,14z"/>
	<path class="st1" d="M14.9,42.6"/>
</g>
<rect y="85.5" class="st5" width="150" height="14.5"/>
<g>
	<path class="st6" d="M147,84.4c-0.5,0.8-0.5,1.5-0.1,2.2c0.3,0.5,0.4,1,0.6,1.5c0.3,0.9,0.2,1.4-0.7,1.8c-0.7,0.4-1.4,0.7-2,1.1
		c-0.3,0.2-0.5,0.5-0.6,0.8c-0.2,0.8-0.3,1.5-0.4,2.3c-0.2,0.9-0.6,1.3-1.5,1.2c-0.8-0.1-1.5-0.3-2.3-0.3c-0.3,0-0.7,0.1-0.9,0.3
		c-0.6,0.5-1.1,1.1-1.7,1.6c-0.6,0.6-1.2,0.6-1.9,0c-0.6-0.5-1.1-1.1-1.7-1.6c-0.2-0.2-0.6-0.3-0.9-0.3c-0.7,0.1-1.4,0.2-2.1,0.3
		c-1,0.1-1.6-0.3-1.8-1.3c-0.1-0.5-0.2-1.1-0.2-1.6c0-0.8-0.4-1.3-1.1-1.6c-0.4-0.2-0.8-0.4-1.3-0.6c-1.1-0.6-1.3-1.2-0.8-2.3
		c0.3-0.6,0.6-1.2,0.9-1.9c0.1-0.3,0.1-0.6,0-0.9c-0.3-0.7-0.7-1.3-1-2c-0.5-0.9-0.3-1.6,0.7-2.1c0.6-0.3,1.2-0.6,1.8-0.9
		c0.5-0.2,0.8-0.6,0.8-1.2c0.1-0.7,0.2-1.4,0.3-2.2c0.2-0.8,0.6-1.1,1.5-1.1c0.7,0.1,1.5,0.2,2.3,0.4c0.5,0.1,0.8,0,1.1-0.3
		c0.6-0.6,1.2-1.1,1.8-1.7c0.6-0.5,1.2-0.5,1.8,0c0.6,0.6,1.1,1.2,1.7,1.7c0.2,0.2,0.6,0.3,0.9,0.3c0.7-0.1,1.4-0.2,2.1-0.3
		c1.1-0.2,1.6,0.3,1.8,1.3c0,0.2,0.1,0.4,0.1,0.6c-0.1,1.6,0.7,2.5,2.1,2.9c0.2,0.1,0.5,0.2,0.7,0.4c0.7,0.4,1,1.1,0.6,1.9
		C147.5,83.4,147.3,84,147,84.4z"/>
	<path class="st7" d="M138.7,80.4c0-0.4,0.1-0.8,0.3-1c0.2-0.3,0.5-0.4,0.9-0.4s0.7,0.1,0.9,0.4s0.4,0.6,0.4,1.1s-0.1,0.9-0.4,1.1
		s-0.5,0.4-0.9,0.4c-0.3,0-0.6-0.1-0.9-0.4S138.7,80.9,138.7,80.4z M139.9,79.4c-0.2,0-0.3,0.1-0.4,0.2c-0.1,0.2-0.2,0.4-0.2,0.8
		s0.1,0.6,0.2,0.8s0.3,0.2,0.4,0.2c0.2,0,0.3-0.1,0.4-0.2c0.1-0.2,0.2-0.4,0.2-0.8s-0.1-0.6-0.2-0.8S140.1,79.4,139.9,79.4z
		 M139.9,84.9l3.1-6h0.6l-3.1,6H139.9z M142.4,83.4c0-0.4,0.1-0.8,0.3-1c0.2-0.3,0.5-0.4,0.9-0.4s0.7,0.1,0.9,0.4s0.4,0.6,0.4,1.1
		s-0.1,0.9-0.4,1.1S144,85,143.6,85c-0.3,0-0.6-0.1-0.9-0.4S142.4,83.9,142.4,83.4z M143.6,82.4c-0.2,0-0.3,0.1-0.4,0.2
		c-0.1,0.2-0.2,0.4-0.2,0.8s0.1,0.6,0.2,0.8s0.3,0.2,0.4,0.2c0.2,0,0.3-0.1,0.4-0.2c0.1-0.2,0.2-0.4,0.2-0.8s-0.1-0.6-0.2-0.8
		S143.8,82.4,143.6,82.4z"/>
	<path class="st7" d="M129.7,89.9c0-1,0.3-1.7,0.8-2.2s1.2-0.8,2-0.8c0.5,0,1,0.1,1.4,0.4s0.7,0.6,1,1.1s0.3,1,0.3,1.5
		c0,0.6-0.1,1.1-0.4,1.6s-0.6,0.8-1,1s-0.9,0.4-1.4,0.4s-1-0.1-1.4-0.4s-0.7-0.6-1-1.1S129.7,90.4,129.7,89.9z M130.4,90
		c0,0.7,0.2,1.2,0.6,1.6s0.8,0.6,1.4,0.6c0.6,0,1-0.2,1.4-0.6s0.6-1,0.6-1.7c0-0.5-0.1-0.9-0.2-1.2c-0.2-0.3-0.4-0.6-0.7-0.8
		c-0.3-0.2-0.6-0.3-1-0.3c-0.5,0-1,0.2-1.4,0.6S130.4,89.1,130.4,90z"/>
	<path class="st7" d="M135.4,92.7V87h3.9v0.7h-3.1v1.8h2.7v0.7h-2.7v2.6L135.4,92.7L135.4,92.7z"/>
	<path class="st7" d="M139.6,92.7V87h3.9v0.7h-3.1v1.8h2.7v0.7h-2.7v2.6L139.6,92.7L139.6,92.7z"/>
	<g>
		<path class="st7" d="M132.7,84.8H132v-4.5c-0.2,0.2-0.4,0.3-0.7,0.5s-0.5,0.3-0.7,0.4v-0.7c0.4-0.2,0.7-0.4,1-0.7s0.5-0.5,0.6-0.8
			h0.5L132.7,84.8L132.7,84.8z"/>
		<path class="st7" d="M134.5,83.3l0.7-0.1c0.1,0.4,0.2,0.6,0.4,0.8s0.4,0.3,0.7,0.3s0.6-0.1,0.9-0.4s0.4-0.6,0.4-1
			s-0.1-0.7-0.3-0.9s-0.5-0.3-0.9-0.3c-0.2,0-0.4,0.1-0.6,0.2s-0.3,0.2-0.4,0.4l-0.7-0.1l0.6-2.9h2.8V80h-2.3l-0.3,1.5
			c0.3-0.2,0.7-0.4,1.1-0.4c0.5,0,0.9,0.2,1.3,0.5s0.5,0.8,0.5,1.3s-0.2,1-0.5,1.3c-0.4,0.5-0.9,0.7-1.5,0.7c-0.5,0-0.9-0.1-1.3-0.4
			S134.6,83.8,134.5,83.3z"/>
	</g>
</g>
<g>
	<path d="M21.1,95.2v-5.7h2.5c0.5,0,0.9,0.1,1.2,0.2s0.5,0.3,0.6,0.5s0.2,0.5,0.2,0.9c0,0.4-0.1,0.7-0.4,1s-0.7,0.5-1.2,0.5
		c0.2,0.1,0.4,0.2,0.5,0.3c0.2,0.2,0.4,0.5,0.6,0.8l1,1.6h-1L24.5,94c-0.2-0.3-0.4-0.6-0.5-0.8s-0.3-0.3-0.4-0.4s-0.2-0.1-0.3-0.2
		c-0.1,0-0.2,0-0.4,0h-0.9v2.5H21.1z M21.9,92h1.6c0.3,0,0.6,0,0.8-0.1s0.3-0.2,0.4-0.3s0.2-0.3,0.2-0.5c0-0.3-0.1-0.5-0.3-0.7
		s-0.5-0.3-0.9-0.3h-1.8V92z"/>
	<path d="M26.9,95.2v-5.7h4.1v0.7h-3.4v1.8h3.2v0.7h-3.2v1.9h3.5v0.7H26.9z"/>
	<path d="M32,93.4l0.7-0.1c0,0.3,0.1,0.5,0.2,0.7s0.3,0.3,0.6,0.4s0.6,0.2,0.9,0.2c0.3,0,0.5,0,0.8-0.1s0.4-0.2,0.5-0.4
		s0.2-0.3,0.2-0.5c0-0.2-0.1-0.3-0.2-0.5s-0.3-0.2-0.5-0.3c-0.2-0.1-0.5-0.2-1-0.3s-0.9-0.2-1.1-0.4c-0.3-0.1-0.5-0.3-0.6-0.5
		s-0.2-0.5-0.2-0.7c0-0.3,0.1-0.6,0.2-0.8s0.4-0.4,0.7-0.6s0.7-0.2,1.1-0.2c0.4,0,0.8,0.1,1.1,0.2s0.6,0.3,0.7,0.6s0.3,0.6,0.3,0.9
		l-0.7,0.1c0-0.4-0.2-0.6-0.4-0.8s-0.6-0.3-1-0.3c-0.5,0-0.8,0.1-1,0.3s-0.3,0.4-0.3,0.6c0,0.2,0.1,0.4,0.2,0.5
		c0.1,0.1,0.5,0.3,1.1,0.4s1,0.3,1.3,0.4c0.3,0.2,0.6,0.3,0.7,0.6s0.2,0.5,0.2,0.8c0,0.3-0.1,0.6-0.3,0.9s-0.4,0.5-0.8,0.6
		s-0.7,0.2-1.1,0.2c-0.5,0-1-0.1-1.3-0.2s-0.6-0.4-0.8-0.7S32,93.8,32,93.4z"/>
	<path d="M39,95.2v-5.1h-1.9v-0.7h4.5v0.7h-1.9v5.1H39z"/>
	<path d="M41.2,95.2l2.2-5.7h0.8l2.3,5.7h-0.9l-0.7-1.7h-2.4L42,95.2H41.2z M42.9,92.9h1.9l-0.6-1.6c-0.2-0.5-0.3-0.9-0.4-1.2
		c-0.1,0.4-0.2,0.7-0.3,1.1L42.9,92.9z"/>
	<path d="M51,89.5h0.8v3.3c0,0.6-0.1,1-0.2,1.4s-0.4,0.6-0.7,0.8s-0.8,0.3-1.3,0.3c-0.5,0-1-0.1-1.3-0.3s-0.6-0.5-0.7-0.8
		s-0.2-0.8-0.2-1.4v-3.3H48v3.3c0,0.5,0,0.9,0.1,1.1s0.3,0.4,0.5,0.5s0.5,0.2,0.8,0.2c0.6,0,1-0.1,1.2-0.4s0.4-0.7,0.4-1.5V89.5z"/>
	<path d="M53,95.2v-5.7h2.5c0.5,0,0.9,0.1,1.2,0.2s0.5,0.3,0.6,0.5s0.2,0.5,0.2,0.9c0,0.4-0.1,0.7-0.4,1s-0.7,0.5-1.2,0.5
		c0.2,0.1,0.4,0.2,0.5,0.3c0.2,0.2,0.4,0.5,0.6,0.8l1,1.6h-1L56.3,94c-0.2-0.3-0.4-0.6-0.5-0.8s-0.3-0.3-0.4-0.4s-0.2-0.1-0.3-0.2
		c-0.1,0-0.2,0-0.4,0h-0.9v2.5H53z M53.7,92h1.6c0.3,0,0.6,0,0.8-0.1s0.3-0.2,0.4-0.3s0.2-0.3,0.2-0.5c0-0.3-0.1-0.5-0.3-0.7
		s-0.5-0.3-0.9-0.3h-1.8V92z"/>
	<path d="M58.1,95.2l2.2-5.7h0.8l2.3,5.7h-0.9l-0.7-1.7h-2.4l-0.6,1.7H58.1z M59.8,92.9h1.9l-0.6-1.6c-0.2-0.5-0.3-0.9-0.4-1.2
		c-0.1,0.4-0.2,0.7-0.3,1.1L59.8,92.9z"/>
	<path d="M64.1,95.2v-5.7h0.8l3,4.5v-4.5h0.7v5.7h-0.8l-3-4.5v4.5H64.1z"/>
	<path d="M71.3,95.2v-5.1h-1.9v-0.7H74v0.7h-1.9v5.1H71.3z"/>
	<path d="M74,95.2v-0.8h0.8v0.8c0,0.3-0.1,0.5-0.2,0.7s-0.3,0.3-0.5,0.4l-0.2-0.3c0.1-0.1,0.3-0.2,0.3-0.3s0.1-0.3,0.1-0.5H74z"/>
	<path d="M78.1,93.4l0.7-0.1c0,0.3,0.1,0.5,0.2,0.7s0.3,0.3,0.6,0.4s0.6,0.2,0.9,0.2c0.3,0,0.5,0,0.8-0.1s0.4-0.2,0.5-0.4
		s0.2-0.3,0.2-0.5c0-0.2-0.1-0.3-0.2-0.5s-0.3-0.2-0.5-0.3c-0.2-0.1-0.5-0.2-1-0.3s-0.9-0.2-1.1-0.4c-0.3-0.1-0.5-0.3-0.6-0.5
		s-0.2-0.5-0.2-0.7c0-0.3,0.1-0.6,0.2-0.8s0.4-0.4,0.7-0.6s0.7-0.2,1.1-0.2c0.4,0,0.8,0.1,1.1,0.2s0.6,0.3,0.7,0.6s0.3,0.6,0.3,0.9
		l-0.7,0.1c0-0.4-0.2-0.6-0.4-0.8s-0.6-0.3-1-0.3c-0.5,0-0.8,0.1-1,0.3S79,90.7,79,90.9c0,0.2,0.1,0.4,0.2,0.5
		c0.1,0.1,0.5,0.3,1.1,0.4s1,0.3,1.3,0.4c0.3,0.2,0.6,0.3,0.7,0.6s0.2,0.5,0.2,0.8c0,0.3-0.1,0.6-0.3,0.9s-0.4,0.5-0.8,0.6
		s-0.7,0.2-1.1,0.2c-0.5,0-1-0.1-1.3-0.2s-0.6-0.4-0.8-0.7S78.1,93.8,78.1,93.4z"/>
	<path d="M83,95.2l2.2-5.7H86l2.3,5.7h-0.9l-0.7-1.7h-2.4l-0.6,1.7H83z M84.7,92.9h1.9L86,91.3c-0.2-0.5-0.3-0.9-0.4-1.2
		c-0.1,0.4-0.2,0.7-0.3,1.1L84.7,92.9z"/>
	<path d="M88.9,95.2v-5.7h0.8v2.8l2.8-2.8h1l-2.4,2.3l2.5,3.4h-1l-2-2.9l-0.9,0.9v2H88.9z"/>
	<path d="M98.4,93.2l0.8,0.2c-0.2,0.6-0.4,1.1-0.9,1.4s-0.9,0.5-1.5,0.5c-0.6,0-1.1-0.1-1.5-0.4s-0.7-0.6-0.9-1.1s-0.3-1-0.3-1.5
		c0-0.6,0.1-1.1,0.3-1.6s0.6-0.8,1-1s0.9-0.3,1.4-0.3c0.6,0,1.1,0.1,1.4,0.4s0.7,0.7,0.8,1.2l-0.7,0.2c-0.1-0.4-0.3-0.7-0.6-0.9
		s-0.6-0.3-1-0.3c-0.4,0-0.8,0.1-1.1,0.3s-0.5,0.5-0.6,0.8s-0.2,0.7-0.2,1.1c0,0.5,0.1,0.9,0.2,1.3s0.4,0.6,0.7,0.8s0.6,0.3,1,0.3
		c0.4,0,0.8-0.1,1.1-0.4S98.3,93.7,98.4,93.2z"/>
	<path d="M100.1,95.2v-5.7h0.8v2.4h3v-2.4h0.8v5.7h-0.8v-2.7h-3v2.7H100.1z"/>
	<path d="M106,95.2v-5.7h0.8v5.7H106z"/>
</g>
</svg>
