<svg xmlns="http://www.w3.org/2000/svg" id="Layer_1" x="0" y="0" version="1.1" viewBox="0 0 150 100" xml:space="preserve"><style>.st0{fill:#911a17}.st1{fill:#ffa76c;stroke:#ffa76c;stroke-width:.15;stroke-miterlimit:10}.st4{fill:#020202}</style><path d="M76 58.6c.8.1 1.3-.5 1.8-1.2.2-.2-.2-.5-.4-.2-.3.5-.7 1-1.4.9-.3 0-.3.5 0 .5z"/><path d="M76 58.6c.8.4 1.7.6 2.6.5.3 0 .3-.5 0-.5-.8 0-1.6-.1-2.3-.5-.3 0-.6.4-.3.5z"/><path d="M76.1 60.2c.2-.5.6-.8 1.2-.9.3 0 .2-.5-.1-.4-.7.1-1.2.5-1.5 1.2-.1.2.3.4.4.1zM75.9 61.2h.6c.3 0 .3-.5 0-.5h-.6c-.3.1-.3.5 0 .5z"/><path d="M76.3 61v3.4c0 .3.4.3.4 0V61c.1-.3-.4-.3-.4 0z"/><path d="M76.4 64.3l-.6.3c-.2.2 0 .6.2.4l.6-.3c.3-.2.1-.5-.2-.4z"/><path d="M75.7 64.8v2.5c0 .3.5.3.5 0v-2.5c0-.3-.5-.3-.5 0z"/><path d="M75.8 67.5c.2.1.3.2.5.3.3.1.5-.2.2-.4-.2-.1-.3-.2-.5-.3-.2-.1-.5.3-.2.4z"/><path d="M76.3 67.8s-.5 1-.5 1.1c-.1.4-.1.8-.1 1.2 0 .3.5.3.5 0-.1-.6 0-1.2.4-1.8.2-.3.4-.6.1-.9-.3-.1-.6.2-.4.4z"/><path d="M75.9 70.5h1.4c.3 0 .3-.4 0-.4h-1.4c-.2-.1-.2.4 0 .4z"/><path d="M77.1 70.3c.1.5 0 1-.7 1-.3 0-.3.4 0 .4.9 0 1.2-.7 1.1-1.5.1-.2-.4-.2-.4.1zM76 72.7c.3.1.3.2.1.5-.3.1-.2.5.1.4.8-.3.4-1.6-.4-1.4-.2.1-.1.5.2.5z"/><path d="M76.4 72.8c1.3.1 1.5-1.2 1.9-2.2.1-.3-.3-.4-.4-.1-.3.7-.5 1.9-1.5 1.9-.3 0-.3.4 0 .4zM76 73.2c-.6.9 1 1.6 1.7 1.7.5.1.9.2 1.4-.1.5-.3.8-.9 1.3-1.2.3-.1 0-.5-.2-.4-.5.2-.7.6-1.1.9-.4.4-.8.4-1.4.2-.2-.1-1.6-.6-1.3-1.1.1 0-.3-.2-.4 0z"/><path d="M76.2 73.8c.7 0 1.2.2 1.8-.3.5-.3.8-.9.9-1.4.1-.3-.4-.4-.4-.1-.1.5-.3 1-.8 1.2-.5.3-.9.1-1.4.1-.4.1-.4.5-.1.5zM76 77.2c.2-.2.4-.5.6-.7s.6-.4.8-.6c.5-.3 1-.8 1.6-1.1.3-.1.1-.5-.1-.4-.6.3-1.1.8-1.7 1.1-.3.2-.6.3-.8.5-.3.2-.4.6-.7.8-.2.3.1.6.3.4zM84.3 75.9c.8 0 1.4.2 1.7 1 .3 1-.1 1.9-1 2.3-1.2.5-2.5.7-3.7.6-.3 0-.3.4 0 .4 1.5.1 4.6 0 5.2-1.8.6-1.6-.5-3-2.1-2.9-.4-.1-.4.4-.1.4z"/><path d="M78.9 74.3c-.5 1-.9 2.3-.5 3.5s1.9 2 3 2.4c.3.1.5-.3.2-.4-.9-.4-2.5-1.1-2.8-2.1s.1-2.2.5-3.1c.2-.3-.2-.6-.4-.3z"/><path d="M81.3 73.8c-.8.9-1.4 1.8-1.3 3.1.2 1.2 1.3 1.7 2.3 2.1.3.1.4-.3.1-.4-1.1-.4-2-.9-2-2.2 0-1 .5-1.6 1.1-2.3.3-.2 0-.6-.2-.3zM78.7 75.3c-.7.2-1.6 1.1-1.8 1.8-.2.8.2 2 .7 2.5.2.2.5-.1.3-.3-.5-.5-.8-1.5-.5-2.2.2-.5.9-1.3 1.4-1.4.3 0 .2-.5-.1-.4z"/><path d="M75.7 80.8c.7.6 1.8.6 2.6.3 1-.4 1-1.4 1.1-2.3 0-.3-.4-.4-.4-.1-.1.7-.1 1.6-.8 2-.6.3-1.7.3-2.2-.1-.2-.3-.5 0-.3.2z"/><path d="M75.6 80.7v1.9c0 .3.5.3.5 0-.1-.6-.1-1.3 0-1.9 0-.3-.4-.3-.5 0z"/><path d="M75.6 82.6c.8.9 2.6 1.1 3.7.7 1.3-.6 1.8-2 2.1-3.3.1-.3-.4-.4-.4-.1-.3 1-.6 2.2-1.6 2.8-.9.6-2.7.4-3.4-.4-.3-.2-.6.1-.4.3z"/><path d="M79.6 79.2c.2.7.3 1.4-.1 2-.3.6-.9.8-1.5.9-.3.1-.2.5.1.4.7-.2 1.4-.5 1.8-1.2s.4-1.6.1-2.4c0-.1-.5 0-.4.3zM83.7 81.4c-.2.5-1 2.2-.2 2.5.3.1.4-.3.1-.4-.2-.1.1-1 .2-1.1.1-.3.2-.6.3-.8.1-.3-.3-.4-.4-.2z"/><path d="M80.6 81.5c.2.9.7 1.6 1.4 2.1.4.3 1.4.9 1.8.3.2-.2-.2-.5-.4-.2-.1.1-.8-.2-.8-.2-.3-.1-.5-.3-.7-.5-.4-.4-.7-1-.9-1.6-.1-.3-.5-.2-.4.1zM82.8 80c.2.7.5 1.4 1.2 1.7.4.1 1.2.2 1.3-.4 0-.3-.4-.3-.4 0 0 .2-1-.2-1.1-.3-.3-.3-.4-.7-.5-1.1-.1-.3-.5-.2-.5.1z"/><path d="M84.9 79.7c-.4.4-.2 1.2.1 1.6.1.2.5 0 .4-.2-.2-.3-.4-.8-.1-1.1.1-.2-.2-.5-.4-.3zM83.7 74.1c-.5.3-1.2.9-1.4 1.5-.1.4 0 1.2.3 1.5.6.6 2.9.8 2.8-.4 0-.3-.5-.3-.5 0 0 .5-.8.4-1.1.4-.5-.1-1-.2-1.1-.7-.2-.8.6-1.4 1.2-1.9.3-.2 0-.6-.2-.4z"/><path d="M85.1 80.1c1.8-.2 2.6-1.8 2.4-3.5-.3-1.8-2.1-2.5-3.8-2.5-.3 0-.3.5 0 .5 1.3 0 2.8.4 3.2 1.8.5 1.5-.2 3.2-1.8 3.3-.3 0-.3.5 0 .4zM76.7 70.2c0-1 .8-1.7 1.7-2 .3-.1.2-.5-.1-.4-1 .4-2.1 1.3-2 2.5 0 .2.4.2.4-.1zM76.7 67.9c.7-.4 1.6-.9 2.1-1.6s.5-1.5.4-2.3c0-.3-.5-.3-.4 0 .1.8.1 1.6-.5 2.2-.5.5-1.2 1-1.8 1.3-.3.2-.1.5.2.4z"/><path d="M77.4 66c.6-.6 1-1.6 1-2.5 0-.3-.5-.3-.4 0 0 .7-.3 1.7-.9 2.1-.2.3.1.6.3.4zM76.8 60.9c.1-.2.2-.7.3-.7.5-.2.5.5.5.7 0 .3.5.3.4 0 0-.5-.2-1.1-.7-1.2-.6-.1-.8.7-1 1.1 0 .3.4.4.5.1z"/><path d="M77.6 60.8c0 .7-.1 1.4-.9 1.4-.3 0-.3.5 0 .5.4 0 .8-.2 1.1-.5.3-.4.3-.9.3-1.4 0-.3-.5-.3-.5 0z"/><path d="M76.6 62.7c.7.2 1.2 1 1.9 1.4.4.2.9.3 1.4.2 1.3-.3 2.1-1.3 2.3-2.6 0-.3-.4-.4-.4-.1-.2 1.5-1.7 3-3.2 2-.6-.4-1-1.1-1.7-1.3-.5-.1-.6.3-.3.4zM84.5 73.4c.3 0 .3-.5 0-.5-.3.1-.3.5 0 .5z"/><path d="M81.6 62.1c.9 1.5 2.5 1.6 3.8 2.5s2 2.7 2.3 4.2c.2 1 .3 2.4-.2 3.3-.1.6-.5 1-1.2 1.2-1.1 1.2-2.3 1-3.6-.5-.1-.3-.5-.2-.4.1.6 3.2 5.1 1.2 5.8-1 .6-1.9 0-4-.8-5.7-.3-.6-.6-1.2-1.1-1.6-1.2-1.2-3.2-1.1-4.2-2.7-.1-.3-.5-.1-.4.2z"/><path d="M87.4 70.1c-.7.2-1.4.6-1.7 1.3-.1.3-.2.6-.1.9 0 .1.1.2.1.3 0 .2-.1.3-.3.3-.2.1-.6 0-.8 0-.3 0-.3.5 0 .5.5 0 1.6.2 1.6-.6 0-.6-.4-.9 0-1.4.3-.5.8-.7 1.3-.9.3-.1.2-.5-.1-.4zM82.3 64.4c1.2.3 2.4.9 3.3 1.7 1.3 1 .8 2.4 1 3.8 0 .3.5.2.4-.1-.2-1.5.3-2.8-1-3.9-1-.9-2.3-1.5-3.6-1.9-.3-.1-.4.3-.1.4zM79.2 64.1c.4 1.3 1.4 1.5 2.5 2.1.9.5 1.6 1.3 1.9 2.2.5 1.9-2.7 3.2-2.7.9 0-.3-.5-.3-.4 0 0 .8.2 1.6 1.1 1.7.8.1 2-.3 2.4-1.1.5-.9.1-2-.5-2.7-1-1.4-3.3-1.6-3.8-3.3-.2-.2-.6-.1-.5.2z"/><path d="M78.3 66.9c1-.5 2.6-.5 3.4.3.3.3.6.7.6 1.2 0 .2.1.6 0 .8-.1.4-.4.6-.7.6-.3.1-.5 0-.7-.3 0-.3-.5-.3-.5 0 0 .8.9.9 1.5.7.8-.3 1-1.1.8-1.9-.5-2.1-3-2.6-4.7-1.8-.2.1 0 .5.3.4z"/><path d="M79.3 64.2c.6.9 1.4 1.1 2.5 1.4.8.2 1.9.7 2.5 1.4.5.7.5 1.7.5 2.6 0 .3.5.3.4 0 0-1.2-.1-2.6-1.1-3.4-1.3-1.1-3.5-.8-4.4-2.2-.2-.2-.6 0-.4.2zM81.4 67.7c-2.1-.3-3.7 1.1-3.3 3.3.5 2.2 2.7 3.4 4.8 3 .3-.1.2-.5-.1-.4-1.6.3-3.1-.3-3.9-1.7-1.1-1.9.1-4.1 2.4-3.7.2 0 .4-.4.1-.5z"/><path d="M79.6 68.6c-.1 1.7.4 2.9 2.1 3.3 1.3.4 3.3-.2 3.9-1.4.1-.3-.2-.5-.4-.2-.6 1-2.4 1.5-3.4 1.2-1.4-.4-1.8-1.5-1.7-2.9 0-.3-.5-.3-.5 0zM80.5 54.6c-.5.9-1 2.1-1 3.1-.1 1 .6 1.8 1.3 2.5 1.5 1.4 3.9.7 5.3-.5.2-.2-.1-.5-.3-.3-1.4 1.1-3.5 1.7-4.9.3-.8-.8-1-1.5-.8-2.7.1-.8.4-1.5.8-2.2.1-.2-.3-.5-.4-.2z"/><path d="M82.3 54.2c-.6 1.5-1.3 4.2.8 5 .8.3 1.8.3 2.4-.3.8-.7.9-1.7.9-2.7 0-.3-.4-.3-.4 0 0 .8-.1 1.7-.7 2.3-.7.7-2.1.5-2.7-.2-1-1.1-.4-2.8.1-4 .2-.3-.3-.4-.4-.1z"/><path d="M82.5 54.6c.2-.1.3-.2.5-.3 1.1-.5 2-.5 2.9.3.7.5 1.1 1.3 1.3 2.2.6 2.6-.2 5.8-3.4 6-.3 0-.3.5 0 .5 3.2-.1 4.3-3.1 3.9-5.9-.2-1.5-1-2.9-2.4-3.6-1.4-.6-1.8.1-2.9.5-.3 0-.2.4.1.3z"/><path d="M75.7 51.4c.5.3.8 1.6 1.3 2.1s1.1.9 1.7 1.1c1.4.5 3 .5 4.3-.3.2-.2 0-.5-.2-.4-1.4.9-3.7.7-5-.3-.8-.6-.8-1.3-1.3-2-.2-.4-.2-.4-.5-.6-.3-.2-.5.2-.3.4z"/><path d="M76.1 54.3c.1-.2.1-.5.4-.6.2-.1.6-.1.8-.1.3 0 .3-.5 0-.5-.4 0-.8 0-1.1.1-.3.1-.3.5-.5.7-.2.5.2.7.4.4zM76.1 44c1.1-3.4 5.6-3.9 7.9-1.9 1.3 1.1 2 2.5 2.2 4.2.4 3.3-.9 5.6-3.5 7.5-.2.2.1.5.3.3 1.8-1.4 3.2-2.8 3.6-5.2.3-2.3 0-4.5-1.5-6.4-2.6-3.1-8-3.1-9.5 1.2-.1.5.4.6.5.3z"/><path d="M80.1 46.5c0 1 .1 2.5-1.1 2.9s-2.2-.3-3-1.1c-.2-.2-.5.1-.3.3.9.9 2.2 1.8 3.5 1.2 1.4-.5 1.4-2.1 1.4-3.4 0-.2-.5-.2-.5.1z"/><path d="M80.2 46.7c.7.4.9 1.1.8 1.8-.1 1-.8 1.5-1.8 1.6-1.5.1-2.5-.6-3.1-1.9-.1-.3-.5 0-.4.2.4.9.9 1.6 1.9 2 .9.3 2.1.3 2.9-.1 1.4-.8 1.3-3.2-.1-4-.2-.1-.4.2-.2.4z"/><path d="M78.7 46.3c1.2-.9 2.5-1.2 3.4.2.7 1.1.8 2.7.3 3.9-1.3 2.8-5.3 1.6-6.3-.8-.1-.3-.5-.1-.4.1 1.1 2.7 5.7 4.2 7.1.9.6-1.5.4-3.6-.7-4.9-1.1-1.3-2.6-.6-3.7.2-.2.2 0 .6.3.4z"/><path d="M78.5 45.9c-.2.4-.3.8-.2 1.3.1.3.5.2.4-.1s0-.6.1-.9c.2-.4-.2-.6-.3-.3zM85.9 50c-.3 1.4-.6 3.2 0 4.5.5 1.1 1.5 2 2.4 2.6.2.2.5-.2.2-.4-.9-.6-2-1.5-2.3-2.6-.4-1.2-.1-2.8.1-4 .1-.3-.3-.4-.4-.1z"/><path d="M88.2 57c1 1.1 2.5 1.4 3.8 2.3.8.5 1.8 1.1 2.2 2 .8 1.7-.1 3.8-2.2 3.3-.3-.1-.4.4-.1.4 2 .5 3.5-1 3.1-3-.2-1-1-1.8-1.7-2.4-.8-.6-1.5-1.2-2.3-1.6-.8-.5-1.8-.6-2.5-1.4-.2-.2-.5.2-.3.4z"/><path d="M93.5 63.7c.7-.8.1-1.8-.6-2.3-1.3-.8-2.6-.4-3.6.7-1.8 2.2.1 6.2 2.9 6.4.3 0 .3-.4 0-.5-1.9 0-3.3-2.3-3.2-4 .1-.9.5-1.7 1.3-2.2.9-.5 1.6-.5 2.3 0 .6.4.8 1 .6 1.6-.2.2.1.6.3.3zM90.3 58.1c.1.5.2 1-.2 1.4-.2.2-.6.1-.8 0-.1 0-.3-.2-.3-.2l.1.1c.8.1.8-1 .8-1.5 0-.3-.4-.3-.4 0 0 .2 0 .6-.1.8-.3.5-.3.2-.5.2s-.3.1-.4.2c-.2.4.5.8.8.9.4.1.9.2 1.2-.3.1-.2.3-.6.3-.8 0-.3-.1-.6-.1-.9 0-.3-.5-.2-.4.1z"/><path d="M92.7 59.2c-2.3-.1-4.1.8-4.9 3-.8 2.1-.6 4.3 1.4 5.6.2.2.5-.2.2-.4-1.9-1.2-1.8-3.4-1.1-5.2.8-1.9 2.5-2.6 4.4-2.5.3-.1.3-.5 0-.5z"/><path d="M95 60.2c1.7 1 1.3 4.7-.3 5.5-.8.4-1.7.5-2.5.2-1.1-.3-2.3-2-1-3 .2-.2 0-.6-.2-.4-.9.7-1 2.1-.3 3 .7 1 2.4 1.2 3.5.9 1.3-.3 2.1-1.2 2.3-2.5.2-1.4.1-3.3-1.2-4-.4-.2-.6.2-.3.3zM92.2 71c.6 0 1.1.5 1 1.1-.1.7-.7.8-1.3.8-.3 0-.3.4 0 .4.9.1 1.7-.4 1.8-1.3.1-.8-.6-1.5-1.4-1.5-.4 0-.4.5-.1.5z"/><path d="M92.2 71.7c-.2 0-.5.1-.7 0-.4-.2-.3-.8-.2-1.1.2-.4.7-.8 1.1-1.1.2-.2 0-.6-.2-.4-.7.5-1.5 1.1-1.5 2 0 1 .7 1.1 1.5 1.1.3 0 .3-.5 0-.5z"/><path d="M92.6 69.2c0-.2-.1-.4-.1-.5 0-.4.4-.6.7-.6.3-.1.5.2.5.5 0 .2-.1.4-.3.4-.3 0-.3.4 0 .4.4 0 .7-.1.8-.6.1-.4-.1-.9-.5-1.1-.4-.3-.9 0-1.3.2-.5.4-.4.8-.3 1.4.1.3.6.1.5-.1z"/><path d="M92 68.3c-1.8 0-3.6 2.4-4.1 4-.7 2.1.2 3.2 2.3 3.8.3.1.4-.4.1-.4-1.3-.3-2.4-1-2.1-2.6.1-.6.3-1.1.6-1.7.6-1 2-2.7 3.2-2.7.3 0 .3-.4 0-.4z"/><path d="M90.4 74.1c.9.8-.9 1.9-1.2 2.4-.3.4-.5.9-.4 1.5.1.9 1.1 1.4 2 1.5 2.4.3 4-3.4 3.2-5.3-.1-.3-.5-.2-.4.1.4 1.1-.1 2.8-.7 3.7-.4.6-1.1 1.1-1.8 1.1-1.2-.1-2.2-1.2-1.4-2.3.6-.8 2.4-1.9 1.2-3-.4-.2-.7.1-.5.3z"/><path d="M91.6 74.5c.3.5.5 1 .4 1.5-.1.7-.6 1.1-1.3 1.3-.3.1-.2.5.1.4.7-.2 1.3-.6 1.5-1.3.3-.8 0-1.5-.4-2.1 0-.3-.4-.1-.3.2zM92.3 68.9c-2.5.6-4.7 4.2-1.5 5.4.3.1.4-.3.1-.4-2.9-1.1-.5-4.1 1.5-4.5.3-.1.2-.5-.1-.5z"/><path d="M90.8 74.2c1.4.6 3.1.3 3.9-1.1.1-.3-.3-.5-.4-.2-.7 1.3-2.1 1.4-3.4.9-.2-.1-.3.3-.1.4z"/><path d="M92.2 69.3c.5.4 1.3.6 1.7 1.1.5.6.5 1.9.4 2.6 0 .3.4.3.4 0 .1-.8.1-2-.2-2.7-.1-.3-.2-.4-.5-.5-.5-.3-1-.4-1.5-.8-.2-.2-.5.1-.3.3z"/><path d="M93.9 70.1c.5.1 1 .2 1.3.6s.4 1.1.6 1.6c.1.5.4 1.1.2 1.6-.3 1.2-1.3 1-2.1.9-.3 0-.3.4 0 .5 1.5.2 2.7-.3 2.5-1.9-.1-.9-.3-1.9-.8-2.7-.4-.7-.9-.7-1.6-.9-.2-.2-.3.2-.1.3zM97 60c.9.3 1.1 2.2 1.2 2.9.1.8.2 2.3-.4 2.9-.2.2.1.5.3.3.8-.9.7-2.6.5-3.7-.1-.9-.4-2.6-1.5-2.9-.3 0-.4.4-.1.5z"/><path d="M93.5 69.3c2-.5 3.2-2.4 5.1-3 .3-.1.2-.5-.1-.4-2 .6-3.1 2.5-5.1 3-.3.1-.1.5.1.4zM94 70c1.1.1 2.3 0 3.2-.7 1.1-.8 1.4-2.2 2.5-3 .2-.2 0-.6-.2-.4-.7.6-1.1 1.3-1.7 2.1-.9 1.3-2.3 1.8-3.8 1.6-.3-.1-.3.3 0 .4z"/><path d="M98.4 66.3c.6 0 1.2-.3 1.7-.2.3 0 .4-.4.1-.4-.6-.1-1.2.1-1.9.2-.1 0-.1.4.1.4z"/><path d="M99.5 63.5c-.8 1.4-.2 2.7 1.5 2.8 1.8.1 2.9-1.6 3.2-3.2.1-.3-.4-.4-.4-.1-.2 1-.7 2.2-1.6 2.7-.5.3-1.2.3-1.7.2-1-.3-1-1.2-.5-2 0-.5-.3-.7-.5-.4z"/><path d="M99.8 63.9c.4-.2.8-.2 1.2.1.1.1.3.2.4.2.4 0 .7-.2.8-.6.1-.3-.3-.4-.4-.1-.1.1-.2.2-.3.2-.1 0-.2-.1-.3-.1-.1 0-.1-.1-.1-.1-.1-.1-.3-.1-.4-.1-.4 0-.7 0-1.1.2-.3 0-.1.4.2.3z"/><path d="M96.5 59.1c1.9.7 6.1 1.6 5.3 4.4-.1.3.4.4.4.1.9-3.2-3.4-4.2-5.6-5-.3-.1-.4.4-.1.5z"/><path d="M96.4 59c.8.5 1.8 1 2.3 1.8.5.9.7 1.9.7 2.9 0 .3.5.3.5 0 0-1.1-.2-2.2-.8-3.1-.6-.9-1.6-1.4-2.5-2-.2-.2-.4.2-.2.4z"/><path d="M96.3 56.4c-.5 0-.7.4-.7.9s0 1 .4 1.3c.5.3 1.2.2 1.7-.1.6-.2.7-.7.7-1.2 0-.3-.4-.3-.4 0 0 .4-.1.7-.5.8-.3.1-.7.3-1 .2s-.5-.3-.5-.6c0-.2-.1-.9.2-.8.4 0 .4-.4.1-.5z"/><path d="M87.5 54.9c.6.4.9 1 1.5 1.4.7.4 1.6.7 2.3 1 1.8.7 3.7 1 5.4 1.7.3.1.4-.3.1-.4-1.6-.6-3.3-.9-4.9-1.5-1.1-.4-2.2-.8-3.1-1.5-.4-.4-.7-.8-1.2-1.1-.1-.1-.3.3-.1.4z"/><path d="M91.3 57.2c1.5.1 3 .2 4.5.1.3 0 .3-.5 0-.5-1.5.2-3 .1-4.5-.1-.3.1-.3.5 0 .5z"/><path d="M86.3 49.1c-.2 2.4.6 4.5 2.6 6 .6.4 1.2.6 2 .8 1.8.3 5.8-1.1 6.4 1.3.1.3.5.2.4-.1-.4-1.8-2-1.9-3.5-1.7-2 .2-3.8.4-5.4-1s-2.1-3.1-2-5.2c0-.4-.4-.4-.5-.1z"/><path d="M86.8 49.3c1-1.4 3.5-2.1 4.4-.3.6 1.1.2 2.4-1 2.8-.2.1-.8.2-1.1.2-1.3-.2-1.2-2.2 0-2.5.3-.1.2-.5-.1-.4-1.3.3-1.7 2.3-.6 3.1 1 .7 3.2-.1 3.6-1.2.5-1.3-.3-3-1.6-3.4-1.5-.5-3.1.2-3.9 1.4-.2.3.2.5.3.3z"/><path d="M88.9 52.4c.5.5 1.5.6 2.2.5s1.5-.9 1.9-1.4c.2-.2-.1-.5-.3-.3-.4.5-.9.9-1.4 1.2s-1.6.1-2-.3c-.3-.2-.6.1-.4.3z"/><path d="M87.6 47.3c.5-.5 1-1 1.6-1.3 1.1-.5 2 .1 2.8.8 1.5 1.2 1.7 2.9.7 4.5-.2.2.2.5.4.2 1-1.5 1-3.7-.5-4.9-.8-.6-1.7-1.4-2.8-1.3-1 .1-1.8.9-2.5 1.6-.2.3.1.6.3.4z"/><path d="M92.4 46.6v-2.7c0-.3-.5-.3-.4 0v2.7c0 .3.4.3.4 0z"/><path d="M89.8 44.1c-.1.6.3 1 .7 1.3.2.2.4.4.6.5.2.2.7.4.8.6.1.3.5.2.4-.1-.2-.4-.5-.5-.8-.8-.5-.3-1.4-1-1.3-1.6.1-.2-.3-.2-.4.1zM94.5 43.9c.2 1.2-.5 2.3-.8 3.4-.2 1 0 2.2-.5 3.1-.1.3.3.5.4.2.6-1.1.3-2.5.6-3.7.3-1.1.8-2 .7-3.2 0-.2-.5-.1-.4.2zM95.2 47.8c1.5.9 2.7 2.8 4.7 2.1 1.7-.6 2.1-2.5 1.9-4.1-.2-1.7-1.7-2.6-3.3-2.4-1.2.2-2.9 1.3-2.4 2.8.1.3.5.2.4-.1-.5-1.7 2.1-2.5 3.2-2.1 1.7.5 2 2.5 1.5 3.9-.5 1.7-2.3 2-3.7 1.2-.8-.5-1.3-1.2-2.1-1.6-.2-.3-.5.1-.2.3z"/><path d="M94 49.7v-1.1c0-.3-.4-.3-.4 0v1.1c-.1.3.4.3.4 0zM95.9 46c.1.3.3.6.4 1s.1.8.1 1.2c0 .3.5.3.4 0V47c-.1-.4-.3-.8-.4-1.2-.2-.1-.6 0-.5.2z"/><path d="M96.7 47.2c.5-.5.6-1.1 1.3-1.2.8-.2 1.5.3 1.8 1.1.1.3.5.2.4-.1-.3-.8-.9-1.4-1.7-1.5-.4 0-.9 0-1.2.3-.4.3-.5.8-.9 1.1-.2.2.1.5.3.3z"/><path d="M96.8 47.1c.1-1 .9-2.8 2.3-2.1.9.4 1.3 1.9 1.3 2.8 0 .3.5.3.5 0 0-1.2-.7-3.2-2.1-3.3-1.5-.2-2.2 1.4-2.4 2.7-.1.2.4.2.4-.1zM95.4 44.3c.1 1.1-1 1.7-1.6 2.4-.2.2.1.5.3.3.7-.8 1.9-1.5 1.8-2.7 0-.3-.5-.3-.5 0z"/><path d="M95.4 44.6c0 .4.2.8.6.9.3.1.5-.3.2-.4-.2-.1-.4-.3-.4-.6.1-.1-.4-.1-.4.1zM87.9 54c1.4.6 3.6.6 4.9-.2 1.7-1.1 2.8-3.4 3.7-5.1.1-.3-.2-.5-.4-.2-1.6 2.9-3.9 7-8 5.2-.2-.2-.4.2-.2.3z"/><path d="M95.1 51.1c.9-.4 2.5-.7 3.1.3 1.1 1.9-1.7 2.1-2.5 2.2-1.2.1-2.5.1-3.7.1-.3 0-.3.4 0 .5 1.6 0 3.2.1 4.8-.1.9-.1 1.9-.6 2-1.6.1-.7-.1-1.5-.6-1.8-.9-.5-2.4-.2-3.2.2-.4-.1-.2.3.1.2z"/><path d="M92.4 54c.7-.2 1.2-.4 1.9-.8.8-.5 1.6-.5 2.5-.5.3 0 .3-.4 0-.5-.7 0-1.5 0-2.2.3-.8.3-1.5.8-2.3 1-.3.1-.2.5.1.5zM95.8 54.1c.6.3 1.3.6 1.8 1.1.5.6.5 1.4.4 2.1 0 .3.4.3.4 0 0-.8.1-1.6-.4-2.3-.5-.6-1.4-1-2-1.3-.2-.1-.4.2-.2.4z"/><path d="M96.1 54.1c.5.1 1 .1 1.6.1s1.9-.3 1.8.7c0 .3.4.3.5 0 .1-.5 0-1.2-.7-1.2h-1.1c-.6 0-1.2 0-1.9-.1-.3 0-.5.5-.2.5z"/><path d="M97.8 54.1c-.1.5.2.7.6.9.5.4.8.4 1.4.4.3 0 .3-.4 0-.5-.3 0-.6 0-.9-.1-.2-.1-.7-.4-.6-.6 0-.3-.5-.4-.5-.1zM98.9 54.1c1.2-.2 2-1 2.8-1.8 1.1-1.2 2-3.3 3.8-3.4.3 0 .3-.5 0-.5-3.1.2-3.6 4.9-6.7 5.3-.3 0-.2.4.1.4z"/><path d="M99.7 53.4c-.1.5.1.9.4 1.2.4.3 1.1.2 1.6.3.3 0 .3-.4 0-.5-.6 0-1.8 0-1.6-.9.1-.2-.3-.3-.4-.1z"/><path d="M100.7 52.7c.1.3.2.6.4.9.1.2.2.3.3.5.1.2.1.4.1.6.1.3.5.2.4-.1s0-.6-.2-.9c-.2-.3-.4-.6-.6-1-.1-.4-.5-.3-.4 0z"/><path d="M101 53c.6.2 1.4.2 2 0 .4-.1.7-.4 1-.5.5-.2 1.1-.1 1.6-.3.3-.1.2-.5-.1-.4-.4.1-.7-.1-1.1 0-.2.1-.5.2-.7.3-.9.4-1.6.7-2.6.5-.3-.1-.4.3-.1.4z"/><path d="M102.7 51c.6 0 1.1.4 1.7.7.5.2 1.1.3 1.6.3.3 0 .3-.4 0-.4-.7-.1-1.4-.3-2-.6-.4-.2-.8-.4-1.3-.4-.3-.1-.3.3 0 .4z"/><path d="M103.3 51c.9.1 1.7-.2 2.5-.2.3 0 .3-.5 0-.5-.8 0-1.6.4-2.4.2-.3 0-.4.4-.1.5z"/><path d="M104 48.9c0 .5.3 1 .6 1.4.3.3.9.3 1.3.3.3 0 .3-.4 0-.5-.3 0-.7 0-1-.2-.2-.2-.5-.8-.5-1 .1-.2-.4-.2-.4 0z"/><path d="M106 50.7c.3 0 .3-.5 0-.5s-.3.5 0 .5zM98.6 52.4c1.1-.2 1.7-1.1 2.5-1.9 1.2-1.2 2.3-3 4.1-3.1.3 0 .3-.5 0-.5-1.3 0-2.1.7-3 1.7s-2.4 3-3.8 3.3c-.3.1-.1.5.2.5zM104.1 63.5c-.3-1.8-.4-3.3-1.7-4.6-1.2-1.2-2.5-1.4-4.2-1.3-.3 0-.3.5 0 .5 1.6-.1 2.9.2 4.1 1.4 1.1 1.2 1.1 2.6 1.4 4.2 0 .2.4.1.4-.2z"/><path d="M103.7 62.2c.6.1 1.1-.2 1.3-.8.1-.3-.4-.4-.4-.1-.1.4-.4.6-.8.5-.3-.1-.4.4-.1.4zM103.2 60.4c.3 0 .8.1 1.1-.2.3-.3.3-.9.4-1.4 0-.3-.4-.3-.5 0-.1.6-.1 1.2-.9 1.1-.3.1-.4.5-.1.5zM103.7 63.2c.2 1.1 1.3 2 2.4 2 .4 0 .7-.1.8-.5.1-.4 0-.8 0-1.2v-1.3c0-.3-.4-.3-.4 0v2c0 .4.1.6-.4.6-.9.1-1.7-.9-1.9-1.6-.1-.4-.5-.3-.5 0z"/><path d="M106.6 64.7c.7 1.2 2.4 1.7 3.7 1 .5-.3.7-.8.9-1.4.3-.9.9-1.7 1.1-2.7.1-.3-.4-.4-.4-.1-.2.9-.8 1.7-1.1 2.6-.3.7-.6 1.2-1.4 1.4-1 .3-2-.2-2.5-1-.1-.2-.5 0-.3.2z"/><path d="M104.2 59c.1 1.6 1 2.6 2.4 3.2.9.4 1.9.8 2.9.6.9-.1 1.7-.7 2.6-.9.3-.1.2-.5-.1-.4-1.4.4-2.4 1.2-3.9.8-1.7-.4-3.3-1.3-3.4-3.2 0-.4-.5-.4-.5-.1z"/><path d="M104.7 59c.1-1 .2-2.3.8-3.2.5-.9 2.3-1.5 3.2-.6.2.2.5-.1.3-.3-.8-.9-2.4-.6-3.3 0-1.2.8-1.3 2.8-1.4 4.1-.1.2.4.2.4 0z"/><path d="M107.9 55.5c-1.1 1.3-1.7 3.1.1 4.2 1.7 1 3.9.4 4.8-1.2 1.1-1.9.8-4.6-.5-6.3-.7-.9-1.7-1.6-2.7-1.9-1.3-.5-2.5.3-3.8-.1-.3-.1-.4.4-.1.4.8.2 1.4 0 2.3 0 1.7-.1 3.4.9 4.3 2.3.8 1.3 1 3.1.5 4.6-.5 1.4-2 2.8-3.6 2.2-.6-.4-1.1-.8-1.7-1.2-.2-1.1 0-2 .7-2.7.2-.2-.1-.5-.3-.3z"/><path d="M105.8 52.1c2.1-.5 4.6 0 5.4 2.1.9 2.5-1.1 5.1-3.8 3.9-.3-.1-.5.3-.2.4 2.3 1 5.1-.5 4.8-3.2-.2-1.4-.7-2.6-2.1-3.3-1.3-.6-2.8-.7-4.2-.4-.3.2-.2.6.1.5z"/><path d="M107.5 58.6c1.1.1 1.9 0 2.3-1.1.4-1.2.4-2.8-.6-3.7-1.1-1-2.2-1.2-3.5-.6-.9.4-1.5 1-2.2 1.7-1.4 1.4-2.8 2.3-4.7 2.7-.3.1-.2.5.1.4 2.1-.4 3.4-1.4 4.9-2.9 1.3-1.3 2.9-2.5 4.7-1.4 1.7 1.1 1.4 4.6-1 4.4-.3 0-.3.5 0 .5z"/><path d="M103.4 55c-.8 1.2-1.7 3.3-.9 4.7.1.3.5 0 .4-.2-.7-1.3.1-3.2.9-4.2.1-.3-.3-.6-.4-.3zM101.5 65.8c-1.4 1.8-2.7 5.3-1.6 7.6 1.2 2.3 4.1 3.2 6.5 2.3 2-.8 3.3-3 2.7-5.1-.3-.9-2.8-2.9-3.2-1.3-.1.3.4.4.4.1.5-.3 1-.2 1.5.3.6.4.9.9.9 1.5.2 1.1-.1 2.1-.8 2.9-1.5 1.9-4.2 2-6.1.6-1.5-1.1-2.1-2.5-1.7-4.4.3-1.5.8-3 1.7-4.3.2-.2-.2-.4-.3-.2z"/><path d="M102.4 65.5c.6 1.3-.7 2.7-1 4-.2.7-.2 1.5 0 2.2.4 1.6 1.7 2.5 3.3 2.6 1.3 0 2.6-.3 2.9-1.8.2-1 0-2.7-1.3-2.8-.3 0-.3.4 0 .5 2 .2-.1 3.4-.5 3.6-.8.3-1.8.1-2.5-.3-1.6-.9-1.8-2.7-1.3-4.4.4-1.4 1.4-2.4.8-3.8-.1-.3-.5-.1-.4.2z"/><path d="M103.1 64.8c.8 2-1.7 6.4 1.4 7.2.8.2 1.6 0 2.1-.6.5-.5.7-1.1.1-1.6-.2-.2-.5.1-.3.3.4.3-.2 1.2-.5 1.3-.5.2-1 .2-1.5 0-1.3-.6-1-2.2-.8-3.3.2-1.2.4-2.2 0-3.4-.2-.3-.6-.1-.5.1z"/><path d="M105.4 71.5c-1-.6-1.3-1.9-.4-2.8.6-.6 1.5-.8 2.4-.7 1.7.1 3.1 1 3.3 2.7 0 .3.5.2.4-.1-.3-2.5-3.2-3.7-5.4-2.8-1.9.7-2.4 3-.6 4.1.3.1.5-.3.3-.4z"/><path d="M108.2 69.2c.4 0 .8.4 1.1.7.2.3.3.6.4.9.2.5 1 .3 1.5.3.3 0 .3-.4 0-.4h-.6c-.3-.1-.3-.1-.5-.4-.1-.2-.2-.5-.4-.7-.3-.4-.9-.9-1.4-.9-.4.1-.4.5-.1.5z"/><path d="M111.1 71.2c.4.2.3.8.1 1.1-.2.3-.6.3-.9.4s-.2.5.1.4c.7-.1 1.1-.3 1.4-1 .2-.5.1-1.1-.4-1.4-.3-.1-.5.3-.3.5z"/><path d="M108.7 71.9c.2.6.8.8 1.3 1.1.7.4 1.6.4 1.6 1.5 0 .3.4.3.5 0 0-.6-.3-1.2-.9-1.5-.3-.2-.7-.2-1-.4-.3-.2-.9-.4-1-.8-.2-.3-.6-.1-.5.1z"/><path d="M108.1 73.8c.4.6.8 1.3 1.6 1.4.8.2 1.6 0 2.3-.3.3-.1 0-.5-.2-.4-.6.3-1.3.4-1.9.3-.6-.2-1-.7-1.3-1.2-.3-.3-.7 0-.5.2zM104.5 75.8c.1 1.2.5 2.4 1.6 3.1 1.3.8 2.8.4 4.2.3.3 0 .3-.5 0-.4-1 .1-2.1.3-3.1.1-1.5-.3-2.1-1.6-2.2-3 0-.4-.5-.4-.5-.1z"/><path d="M105.8 76.8c.1.4.1.7.6.9.4.1.9.1 1.2-.2.3-.3.4-.7.4-1.1-.1-.5-.6-.9-1-1.2-.2-.2-.5.1-.3.3.4.3 1.1.8.9 1.4-.2.3-.5.5-.9.3-.3-.1-.3-.3-.4-.6-.2-.2-.6-.1-.5.2z"/><path d="M107.4 74.7c.2.4.5 1.1.6 1.5.1.5.1.9-.3 1.2-.3.2-.5.2-.8.3-.3.1-.2.5.1.4.7-.2 1.4-.4 1.5-1.2.1-.4 0-.8-.2-1.2-.2-.4-.3-.9-.5-1.3-.1-.1-.5.1-.4.3z"/><path d="M108.3 76.9c-.1 0-.2.1-.2.2-.1.4.4.5.7.6.2.1.3.1.4.3.1.1.1.2.2.2.2.2.6.3.7.6 0 .3.5.3.4 0-.1-.5-.5-.6-.8-1-.2-.2-.3-.4-.5-.5s-.6-.1-.9-.4c.1.2.1.2.2.3v-.1l-.2.2h.1c.3 0 .2-.5-.1-.4z"/><path d="M109.5 78h1.3c.3 0 .3-.5 0-.4h-1.3c-.3 0-.3.4 0 .4z"/><path d="M109.5 75.1c.2.3.6.6.8.9.3.5.3 1.1.2 1.7 0 .3.4.3.5 0 0-.6.1-1.2-.2-1.7-.2-.5-.6-.7-.9-1.1-.2-.3-.6 0-.4.2zM110.7 70.6v.2c0 .3.4.3.4 0v-.2c0-.3-.4-.3-.4 0zM111.2 63.2c0 .9-.1 1.9.3 2.8.2.6.7 1.5 1.3 1.8 1.6.8 2.3-1.3 2.9-2.4.1-.3-.3-.5-.4-.2-.3.5-.6 1.1-.9 1.6-.1.2-.3.6-.5.8-.5.3-1.1-.2-1.4-.6-.3-.5-.6-1-.8-1.5-.1-.7-.1-1.5-.1-2.1.1-.5-.4-.5-.4-.2zM117.1 65.5c.1.9.3 2.4-.6 3-.2.2 0 .6.2.4 1.1-.8 1-2.4.8-3.5 0-.3-.5-.2-.4.1z"/><path d="M119.3 64.5c-.1 1.1.2 2-.4 3.1-.6 1-1.5 2-2.7 2-.9 0-2.4-1.2-1.1-1.6.4-.1 1.3-.1 1.1.6-.1.3.3.4.4.1.5-1.7-3.1-1.6-2.5.3.5 1.4 2.5 1.3 3.6.6.8-.5 1.4-1.4 1.7-2.2.4-1 .1-1.9.2-2.9.2-.3-.3-.3-.3 0zM118.5 62.4c-1 .7-2.4.5-2.7-.8-.3-1.1.4-2 1.5-2.3.7-.2 1.8-.3 2.5.1.8.4 1.4 1.5 1.7 2.3.1.3.5.2.4-.1-.4-1.2-1.3-2.6-2.7-2.9-1.2-.2-3 .1-3.7 1.2-.6.8-.4 2.2.2 2.9.7.8 2.1.5 2.9 0 .4-.2.1-.6-.1-.4z"/><path d="M114.1 60.3c0 1.8.5 3.5 2.4 4.1 1.6.5 3.2-.6 3.5-2.2 0-.3-.4-.4-.4-.1-.3 1.7-1.9 2.5-3.4 1.7-1.3-.7-1.5-2.1-1.5-3.4-.2-.3-.6-.3-.6-.1z"/><path d="M113 62c.6 1.2 1.1 2.5 2.3 3.2 1 .6 2.3.6 3.3.1s1.8-1.5 2.1-2.7c.3-1.3-.3-2.1-1.3-2.9-.2-.2-.5.1-.3.3 1 .8 1.5 1.8 1 3.1-.5 1.1-1.5 2-2.7 2-2.2.1-3.1-1.7-4-3.4-.2-.2-.6.1-.4.3z"/><path d="M121.5 61.6c.5.4.3 1.3.1 1.8-.1.2-.2.6-.3.7-.6.6-.9 0-1.1-.4-.1-.3-.5 0-.4.2.5.9 1.4 1.3 2 .2.4-.8.8-2.3-.1-3-.2-.1-.4.3-.2.5zM115.3 53.9c-.4.7-.4 1.5.4 1.8s1.3-.4 1.5-1.1c.1-.3-.3-.4-.4-.1-.1.3-.3.8-.6.8s-.6-.2-.7-.5.1-.6.2-.8c.1-.1-.2-.4-.4-.1z"/><path d="M116 55.7c0 .7.2 1.2 1 1.2.6 0 1.1-.4 1-1.1-.1-.3-.5-.2-.4.1.1.5-.4.6-.8.5-.3-.1-.3-.4-.3-.7 0-.3-.5-.3-.5 0z"/><path d="M118.2 54.5c0 1.2.3 2.8-.6 3.8-.5.5-1.5.7-2 .1s0-1.6.8-1.6c.6.1.8.6.9 1 .1.3.5.2.4-.1-.3-1.1-1-1.8-2.1-1.2-.9.4-.9 1.6-.3 2.2.8.7 1.9.5 2.6-.2 1.1-1.1.7-2.7.8-4.1-.1-.2-.5-.2-.5.1zM107.7 48.7c2 .1 4 0 5.6 1.4 1.2 1 1.2 2.3 1.9 3.5.4.7 1.5 1.2 1.8.2.1-.3-.4-.4-.4-.1-.4 1.2-1.2-1.3-1.2-1.4-.1-.3-.2-.7-.4-1-.4-.7-1-1.4-1.7-1.9-1.6-1.2-3.5-1.1-5.5-1.2-.3 0-.3.5-.1.5zM103.9 47.1c1.4.3 3.6.1 4.3-1.3.1-.3-.2-.5-.4-.2-.7 1.2-2.7 1.3-3.8 1.1-.3-.1-.4.4-.1.4z"/><path d="M104.2 42.8c1.3 1.1 2.9 3 4.6 3.1 1.4.2 2.9-1.2 3.4-2.3.1-.3-.3-.5-.4-.2-.9 1.9-3.1 2.4-4.8 1.2-.9-.6-1.7-1.4-2.6-2.1-.1-.2-.4.1-.2.3z"/><path d="M104.4 42.8c1.3-.8 2-1.7 3.7-1.5 1.5.2 2.7 1.3 3.8 2.2.2.2.5-.1.3-.3-1.1-.9-2.3-2.1-3.8-2.4-.7-.1-1.7 0-2.4.2-.8.3-1.2.9-1.9 1.3-.2.3 0 .7.3.5z"/><path d="M104.3 44.2c.7-.8 2-1 3-.7.8.2 1.4.7 2.2 1 .3.1.4-.4.1-.4-1.2-.3-2-1-3.2-1-.9 0-1.8.1-2.4.9-.2.1.1.4.3.2z"/><path d="M105.9 44.4c.2.1 0 .9 0 1.1 0 .5-.1 1-.4 1.4-.2.2.1.5.3.3.4-.5.5-1.1.5-1.7 0-.4.2-1.2-.2-1.5-.3-.2-.5.2-.2.4zM122.7 54.4c0-.6-.3-.9-.8-1.1-.4-.2-.9-.4-1.4-.2-.9.4-.5 1.8.5 1.7.3 0 .3-.5 0-.5s-.7-.3-.5-.6.5-.2.7-.2c.5.1.9.4.9.9.2.3.6.3.6 0z"/><path d="M106.4 47.1c1.6-.4 5-.2 6.6.6 1.8.9 3 3 4.1 4.6 1 1.5 1.8 3.1 3.6 3.7.3.1.4-.3.1-.4-3.2-1.2-3.8-5.8-6.4-7.7-1.9-1.5-5.8-1.7-8.1-1.2-.3 0-.1.5.1.4z"/><path d="M115.1 49.2c1.3-.2 1.9.2 2.6 1.2.4.6.8 1.3 1.1 2 .4.9.8 2.1 1.9 2.2.3 0 .3-.4 0-.4-.9-.1-1.5-1.8-1.8-2.5-.3-.6-.7-1.3-1.1-1.8-.9-1.2-1.4-1.3-2.9-1.1-.2 0 0 .4.2.4z"/><path d="M117.4 49.6c1.7.5 2.7 2.2 4.5 2.4.3 0 .3-.4 0-.5-1.7-.2-2.8-1.9-4.4-2.4-.3 0-.4.4-.1.5z"/><path d="M118.9 48.7c.3.1.6.1.9.1.4.1.8.3 1.1.6.6.6 1.2 1.4 1 2.3-.1.3.4.4.4.1.2-.9-.2-1.8-.8-2.4-.3-.3-.6-.6-1-.8-.5-.2-1-.2-1.5-.3-.3-.1-.4.4-.1.4zM113.9 48c.8.1 1.4 0 2.2-.3 1.1-.5 2.2-1.4 3.5-.7.3.1.5-.3.2-.4-2-1-3.8 1.2-5.9 1-.2-.1-.2.4 0 .4zM109.9 46.9c1.3 0 2.3-1.3 2.8-2.4.9-2 .8-4.6 2.7-6 .2-.2 0-.6-.2-.4-.9.7-1.5 1.5-1.8 2.6-.6 1.7-.9 5.7-3.4 5.7-.4.1-.4.5-.1.5zM110 41.6c.2-1.1.4-2.1 1.4-2.8.7-.5 1.5-.8 2.3-1.2 1-.6 2-1.2 2.1-2.4 0-.3-.4-.3-.5 0-.2 1.9-3.3 2.5-4.5 3.5-.9.7-1.1 1.7-1.2 2.8-.1.3.4.4.4.1z"/><path d="M115.3 35.2c0 .1.1.2.2.2.3.2.5.3.7.6.4.6.5 1.2.5 1.9 0 .3.4.3.4 0 0-.6-.1-1.2-.3-1.8-.1-.2-.3-.5-.4-.7 0 0-.5-.4-.5-.3-.2-.3-.7-.2-.6.1z"/><path d="M116.6 37.6c-1.4 2.6-2.3 9-5.8 9.2-.3 0-.3.5 0 .5 1.8-.1 2.5-1.1 3.3-2.6 1.1-2.2 1.8-4.6 3-6.8 0-.3-.3-.5-.5-.3zM120.6 39.4c-1.5-.7-2.4.7-3 1.9-.4.9-.7 1.8-1.2 2.6-.5.9-2 3.3-3.2 3.3-.3 0-.3.4 0 .5 3.1.1 4.8-8.9 7.2-7.8.3 0 .5-.4.2-.5zM120.8 41.5c.3 0 .3-.5 0-.5-.2.1-.2.5 0 .5zM118.5 44c.4-.9 1.8-.9 2.6-1 .3 0 .2-.5-.1-.4-1.1.2-2.4.1-2.9 1.3-.1.3.3.4.4.1z"/><path d="M120.8 42.8c.4 1.6-1.1 2.2-2.4 2.4-.3.1-.2.5.1.4.8-.2 1.7-.4 2.2-1s.6-1.3.4-2c.1-.2-.3 0-.3.2z"/><path d="M118.8 45.5c.6.1 1.7.2 2 .9.5.9-.3 1.9-1.2 2-.3 0-.2.5.1.4.9-.1 1.8-1.1 1.7-2.1-.2-1.2-1.4-1.5-2.5-1.7-.2 0-.4.5-.1.5zM122 51.1c.4.5.4 1.2.7 1.7.2.4.6.7 1 .9 1.1.6 2.4.6 3.6.5.3 0 .3-.5 0-.5-1.2.1-2.7.1-3.7-.7-.8-.6-.7-1.6-1.3-2.3-.2-.2-.5.1-.3.4z"/><path d="M122 50.8c.6.6 1.4.6 2.2.7.7.1 1.4.1 2 .4 1 .5.8 1.2 1.1 2.1.1.3.5.2.4-.1-.3-1.1-.1-1.8-1.3-2.4-1.1-.6-3.3 0-4.1-1-.2-.2-.5.1-.3.3z"/><path d="M123.9 51.5c.7.5 1.4 1 2.1 1.3.3.1.5-.3.2-.4-.8-.3-1.4-.9-2.1-1.3-.2-.2-.4.2-.2.4zM124.5 49.2c-.1-.1-.2-.2-.2-.4.1-.8.4-1.1.9-.9.2 0 .3.1.4.2.3.2.5.6.6.9.2.9-.5 1.7-1.3 2-.3.1 0 .5.2.4 1.4-.6 2.1-2.4.9-3.6-.5-.5-1.3-.7-1.9-.2s-.4 1.2 0 1.7c.2.4.6.1.4-.1z"/><path d="M123.8 44.6c-1.8-.3-2.4 1.7-2.3 3.1.1 1.5 1.8 2.6 3.1 1.9.1-.1.2-.3 0-.4-.1 0-.1-.1-.2-.1-.2-.2-.5.1-.3.3.1 0 .1.1.2.1v-.4c-.5.3-1.3 0-1.8-.3-.6-.4-.7-.9-.7-1.5 0-1 .3-2.7 1.7-2.4.4.2.6-.3.3-.3z"/><path d="M124.2 48.9c-.4-.1-.7-.2-.8-.6v-.6c.1-.7.4-1.4 1.2-1.3.3 0 .3-.4 0-.4-.9 0-1.5.7-1.6 1.5-.1 1 .1 1.8 1.1 1.9.2 0 .4-.4.1-.5zM119.2 43.2c.9-.7 1.6-1.7 2.6-2.3 1.2-.7 2.6-1 4-.9.3 0 .3-.4 0-.4-1.2-.1-2.4 0-3.5.5-1.4.6-2.2 1.8-3.4 2.7-.1.2.1.6.3.4z"/><path d="M125.1 39.9c-1.5.9-1.9 3.3-1.4 4.9.3 1 .6 1.6 1.5 2.1s1.8.6 2.8.2c.3-.1.2-.5-.1-.4-1.7.6-3-.2-3.6-1.7-.7-1.5-.5-3.8 1-4.8.3-.1.1-.5-.2-.3z"/><path d="M125.5 43.4c.4.6 1.3.6 1.9.1.7-.6.9-1.8.4-2.6-.2-.2-.6 0-.4.2.4.5.3 1.2-.1 1.7-.3.4-1 .8-1.4.2-.2-.1-.6.1-.4.4z"/><path d="M119.9 39.6c1.6-1.3 4.6-1.6 6.5-.6.8.4 1.5 1.1 1.9 1.9.8 1.7.2 3.7-2.1 3.1-.3-.1-.4.4-.1.4 3.2.8 3.9-2.6 2.1-4.7-2-2.4-6.2-2.3-8.6-.5-.3.2.1.5.3.4z"/><path d="M119.6 37.6c.4-.9 2.1-1.2 2.9-1.4.5-.1.9-.1 1.4 0 1 .3 1.3 1.2 1.3 2.1 0 .3.4.3.4 0 .1-1.6-.5-2.6-2.2-2.6-1.2 0-3.6.4-4.2 1.7-.1.2.3.4.4.2z"/><path d="M117 38c.8-1.3 1.7-2 3.1-2.6.8-.3 1.6-.7 2.5-.9.4-.1.8-.1 1.3-.2 2.2.3 2.8 1.6 1.7 3.7-.2.2 0 .5.2.4 2-1.3.8-4.1-1.3-4.5-2.8-.5-6.3 1.5-7.8 3.8-.3.3.1.5.3.3z"/><path d="M125.1 34.7c1.4-.1 2.4.3 3.2 1.4.5.7 1.6 3.3-.2 3.5-.3 0-.3.5 0 .5 1.7-.2 1.5-2.2 1-3.4-.7-1.8-2.1-2.7-4-2.5-.3.1-.3.6 0 .5z"/><path d="M126.2 36c.6.5 1 1 1.2 1.8.1.6.2 1.3.2 1.9 0 .3.5.2.4-.1-.1-.8-.1-1.7-.4-2.4-.2-.6-.7-1.1-1.2-1.5-.1-.2-.4.1-.2.3zM128.2 46.9c-.1.8-.3 1.7.1 2.5.3.6 1 1 1.7.8.5-.2 1-.7.8-1.3 0-.1-.1-.1-.2-.2s-.3-.2-.4-.3c-.1-.4-.1-.8.2-1.1.3-.5.9-1 1.3-1.5.2-.2-.1-.5-.3-.3-.6.7-1.9 1.7-1.7 2.8 0 .2.2.3.3.5l.2.2c.3.2.1.5-.6.8-.8.1-1.1-.9-1.2-1.4 0-.5.1-.9.1-1.4.1-.3-.3-.4-.3-.1z"/><path d="M128.5 36c2.8 2.3 4 10-.7 10.7-.3 0-.2.5.1.4 2-.3 3.5-1.9 3.6-4 .1-2.3-.9-5.9-2.7-7.5-.2-.1-.6.3-.3.4z"/><path d="M129.5 37.3c1.3.8 1.8 2.2 2.4 3.5.4.9 1 2 .9 3.1-.2 1.8-1.1 1.7-2.3 1.6-.3 0-.3.4 0 .5 2.1.2 3.1-.7 2.7-2.9-.4-2.1-1.6-4.9-3.4-6.1-.3-.3-.5.1-.3.3zM127.7 35.1c1.2-1.3 3.9-.7 5.5-.4.3 0 .4-.4.1-.4-1.8-.3-4.5-1-5.9.5-.2.1.1.5.3.3z"/><path d="M133.1 34.4c.1.4.2 1 0 1.3-.2.4-.9.4-1.3.6-.3.1-.2.5.1.4.5-.2 1.2-.3 1.5-.8s.2-1.1.1-1.7c0-.2-.4-.1-.4.2z"/><path d="M131.9 36.7c.4 0 .7-.1 1.1 0 .4.1.8.3 1.1.6.6.6.5 1.6.6 2.4 0 .3.5.2.4-.1-.1-.9-.1-2.1-.8-2.7-.3-.2-.7-.4-1.1-.5-.5-.2-.9 0-1.4 0-.2-.2-.2.3.1.3z"/><path d="M131 38.7c.3.1.6.4.8.5.3.2.7.3 1.1.4.7.3 1.4.3 2.2.3.2 0 .3-.2.2-.4l-.1-.1c-.2-.2-.5.1-.3.3l.1.1c.1-.1.1-.3.2-.4-.9 0-1.6-.1-2.4-.4-.4-.2-.7-.3-1.1-.6-.2-.1-.3-.2-.5-.2-.4 0-.5.4-.2.5zM128.5 36c.7.5 1.3 1 2.2 1.2.8.2 1.6.3 2.4.3.3 0 .3-.4 0-.5-.8-.1-1.6-.1-2.3-.3-.8-.2-1.4-.7-2.1-1.2-.2 0-.5.4-.2.5z"/><path d="M128.6 36.1c1.1-.4 2.4-.5 3.5-1 .3-.1 0-.5-.2-.4-1.1.5-2.3.6-3.4 1-.3 0-.2.5.1.4zM86.5 45.2c.7-.9 1.5-1.7 2.5-2.2.7-.4.9-.3 1.6.1.5.3.9.7 1.4 1.1.2.2.5-.1.3-.3-.6-.5-1.4-1.4-2.1-1.7-.3-.1-.4 0-.8.1-1.3.5-2.4 1.6-3.2 2.7-.3.2.1.4.3.2z"/><path d="M92.3 44.2c.5-.3.7-.7.9-1.2.3-.8 1.5-1.4 2.4-1.1.3.1.4-.3.1-.4-.6-.2-1.6 0-2.2.4-.8.5-.7 1.6-1.5 2-.2 0 0 .4.3.3z"/><path d="M95.4 41.7c-.1 1-.4 1.9.1 2.8.1.2.5 0 .4-.2-.5-.8-.1-1.7 0-2.6 0-.3-.4-.3-.5 0z"/><path d="M95.9 41.9c.3-.4.5-.9 1-1.2.3-.2.7-.3 1-.5.8-.4 1.5-.4 2.3-.4.3 0 .3-.4 0-.4-.6 0-1.3-.1-1.9.1-.4.1-.6.3-1 .5-.9.5-1.3.9-1.9 1.7 0 .2.3.4.5.2z"/><path d="M100 39.5c0 .3.2.8.1 1.1-.1.6-.6.7-1 .9-.5.3-1.1.5-1.6.8-.8.4-1.8.9-2 1.8-.1.3.4.4.4.1.3-1.2 2.7-2 3.7-2.6 1.1-.6.9-1.1.8-2.3 0 0-.4-.1-.4.2z"/><path d="M102.4 39.9c-.7.8-.5 2 .3 2.7 1.1.8 2-.1 2.5-1.1.4-1-.2-2-1.1-2.5-1.2-.7-2.6-.4-3.8.3-.2.2 0 .5.2.4 1.2-.8 2.8-1 3.9.1.7.7.5 1.5 0 2.2-1 1.3-2.7-.6-1.7-1.7.2-.3-.1-.6-.3-.4zM102.2 44.9c.5.2.5.4.2.7-.1.1-.2.2-.3.2-.3.1 0 .5.2.4.5-.2.9-.7.7-1.3-.2-.4-.7-.6-1.1-.4-.1.2.1.6.3.4z"/><path d="M101.9 40.8c-.9 1.1-2.1 1.5-3.4 2.1-.8.4-1.9.7-2.3 1.6-.1.3.3.5.4.2.5-1 2.3-1.5 3.2-2 .9-.5 1.6-.9 2.3-1.6.3-.2 0-.5-.2-.3z"/><path d="M99.4 43c.8-.1 1.6.1 2.4.2.5 0 1 .1 1.4-.3.2-.2-.1-.5-.3-.3-.4.5-1.4.2-1.9.1s-1-.1-1.6 0c-.3-.2-.3.3 0 .3z"/><path d="M102.2 43.7c.9 0 1.6-.4 2.2-1.1.2-.2-.1-.5-.3-.3-.5.6-1.1 1-1.8.9-.4.1-.4.5-.1.5z"/><path d="M75.2 4c6.9 0 12.8.4 17.3.9 10 1.2 19.6 3.3 28.9 7.4 4.1 1.8 9.2 4.7 9.7 9.6.3 3.1-1.9 6.3-5.4 8.3-2.6 1.5-6.3 3.4-11.1 5.1-3 1-6.1 1.8-10.1 2.6-11.3 2.1-23.7 2.5-29.3 2.6" class="st0"/><path d="M75.7 4c-6.9 0-12.8.4-17.3.9-10 1.2-19.6 3.3-28.9 7.4-4.1 1.8-9.2 4.7-9.7 9.6-.3 3.1 1.9 6.3 5.4 8.3 2.6 1.5 6.3 3.4 11.1 5.1 3 1 6.1 1.8 10.1 2.6 11.3 2.1 23.7 2.5 29.3 2.6" class="st0"/><path d="M91.9 63c-.5.3-.9.7-.8 1.3.1.5.6.8 1.1.7.3-.1.2-.5-.1-.4-.4.2-.6-.4-.4-.7.1-.2.3-.4.5-.5.2-.2-.1-.6-.3-.4zM82.9 73c-.1-.5.5-.7.8-.3.1.2.5 0 .4-.2-.5-.9-1.8-.4-1.6.6 0 .3.4.2.4-.1zM122.2 54.4c-.3.7-.9 1.2-1.7 1.2-.3 0-.3.5 0 .5 1 0 1.8-.6 2.1-1.5.1-.4-.3-.5-.4-.2zM117.5 61.6c.2-.1.4-.1.7-.1.3 0 .8.4.4.6-.3.1 0 .5.2.4.4-.2.5-.7.2-1.1-.4-.5-1.1-.4-1.6-.2-.3.1-.2.5.1.4zM120.3 39.7c.5.2.6.8.2 1.1-.2.2 0 .6.2.4.8-.5.7-1.7-.3-2-.3 0-.4.4-.1.5zM103.3 41.7c.5-.4.9-1.1.5-1.7-.3-.5-1-.6-1.4-.2-.2.2.1.5.3.3.3-.2.7 0 .8.3.1.4-.2.7-.4.9-.3.2-.1.6.2.4zM116.1 52.5c.3.3.5.6.4 1 0 .3.4.4.4.1.1-.6-.1-1.1-.5-1.5-.2-.1-.5.2-.3.4zM95.7 47.6c-.5-.2-1.1-.4-1.6-.2-.4.2-.6.6-.6 1.1 0 .3.5.2.4-.1-.1-.5.4-.6.7-.6.3 0 .5.1.7.2.5.1.7-.3.4-.4zM125.5 40c.8 0 1.6.5 1.9 1.3.1.3.5.2.4-.1-.4-1-1.3-1.6-2.3-1.6-.3 0-.3.4 0 .4zM105 47.5c.7-.1 1.4.2 1.6.9.2.8-.2 1.4-.8 1.8-.2.2 0 .6.2.4.8-.6 1.3-1.5.9-2.5-.3-.9-1.3-1.2-2.1-1-.2.1-.1.5.2.4zM125.4 43.3c-.1.7.5 1.3 1.2 1.3.3 0 .3-.5 0-.5-.5 0-.8-.3-.8-.8 0-.3-.4-.3-.4 0zM75.7 58.2c-.7.1-1-.5-1.4-.9-.2-.2-.6 0-.4.2.4.6.9 1.2 1.8 1.2.3-.1.3-.6 0-.5z"/><path d="M75.5 58.3c-.7.4-1.5.5-2.3.5-.3 0-.3.4 0 .5.9 0 1.8-.1 2.6-.5.2-.3-.1-.7-.3-.5z"/><path d="M76 60.1c-.3-.6-.8-1.1-1.5-1.2-.3 0-.4.4-.1.4.5.1 1 .4 1.2.9.1.3.5.1.4-.1zM75.8 60.8h-.6c-.3 0-.3.5 0 .5h.6c.3-.1.3-.5 0-.5z"/><path d="M74.9 61v3.4c0 .3.4.3.4 0V61c.1-.3-.4-.3-.4 0z"/><path d="M75 64.7l.6.3c.2.2.5-.2.2-.4l-.6-.3c-.2-.1-.4.2-.2.4z"/><path d="M75.5 64.8v2.5c0 .3.4.3.4 0v-2.5c.1-.3-.4-.3-.4 0z"/><path d="M75.7 67.1c-.2.1-.3.2-.5.3-.3.1 0 .5.2.4s.3-.2.5-.3c.3-.1 0-.5-.2-.4z"/><path d="M75.1 67.5c-.3.3-.1.6.1.9.3.5.4 1.2.4 1.8 0 .3.4.3.4 0 0-.4 0-.8-.1-1.2 0-.1-.5-1.1-.5-1.1.2-.3-.1-.6-.3-.4z"/><path d="M75.8 70h-1.4c-.3 0-.3.5 0 .4h1.4c.3.1.3-.4 0-.4z"/><path d="M74.1 70.3c-.1.8.2 1.5 1.1 1.5.3 0 .3-.5 0-.4-.7 0-.8-.5-.7-1 .1-.4-.3-.4-.4-.1zM75.9 72.2c-.8-.2-1.1 1.1-.4 1.4.3.1.4-.3.1-.4-.2-.3-.1-.4.1-.5.3 0 .5-.4.2-.5z"/><path d="M75.3 72.4c-1 .1-1.2-1.1-1.5-1.9-.1-.3-.5-.2-.4.1.4 1 .6 2.3 1.9 2.2.3 0 .3-.4 0-.4zM75.3 73.4c.3.5-1 1-1.3 1.1-.5.2-.9.2-1.4-.2-.4-.3-.6-.7-1.1-.9-.3-.1-.5.3-.2.4.5.3.8.8 1.3 1.1.4.3.9.3 1.4.2.7-.2 2.2-.8 1.7-1.7-.1-.4-.5-.2-.4 0z"/><path d="M75.5 73.4c-.5 0-.9.2-1.4-.1-.5-.3-.7-.7-.8-1.2-.1-.3-.5-.2-.4.1.1.6.4 1.1.9 1.4.6.4 1.1.3 1.8.3.2-.1.2-.5-.1-.5zM76 76.9c-.2-.3-.4-.6-.7-.8-.2-.2-.5-.4-.8-.5-.6-.3-1-.9-1.7-1.1-.3-.1-.4.3-.1.4.6.2 1 .8 1.6 1.1.3.2.6.3.8.5.2.2.4.5.6.8.2.1.5-.2.3-.4zM67.4 75.4c-1.6-.1-2.7 1.3-2.1 2.9.6 1.8 3.7 1.9 5.2 1.8.3 0 .3-.5 0-.4-1.3.1-2.6 0-3.7-.6-.8-.4-1.3-1.1-1-2.1.2-.9.8-1.2 1.7-1.1.2 0 .2-.5-.1-.5z"/><path d="M72.4 74.5c.4.9.8 2.1.5 3.1-.3 1.1-1.8 1.7-2.8 2.1-.3.1 0 .5.2.4 1.1-.5 2.6-1.2 3-2.4.3-1.1-.1-2.5-.5-3.5-.2-.2-.6.1-.4.3z"/><path d="M70.1 74.1c.6.7 1.1 1.3 1.1 2.3 0 1.3-.9 1.8-2 2.2-.3.1-.2.5.1.4 1.1-.4 2.2-.9 2.3-2.1.2-1.3-.4-2.2-1.3-3.1-.1-.3-.4.1-.2.3zM72.9 75.7c.6.2 1.2.9 1.4 1.4.3.7-.1 1.7-.5 2.2-.2.2.1.5.3.3.6-.6 1-1.7.7-2.5-.2-.7-1.1-1.6-1.8-1.8-.2-.1-.4.4-.1.4z"/><path d="M75.7 80.5c-.5.4-1.6.5-2.2.1-.7-.4-.7-1.3-.8-2 0-.3-.5-.2-.4.1.1.9.2 1.9 1.1 2.3.8.3 1.9.3 2.6-.3.2-.1-.1-.4-.3-.2z"/><path d="M75.6 80.7v1.9c0 .3.4.3.4 0 .1-.6.1-1.3 0-1.9 0-.3-.4-.3-.4 0z"/><path d="M75.8 82.3c-.8.8-2.6 1-3.4.4-1-.6-1.3-1.8-1.6-2.8-.1-.3-.5-.2-.4.1.4 1.3.8 2.7 2.1 3.3 1.1.5 2.9.2 3.7-.7.1-.2-.2-.5-.4-.3z"/><path d="M71.6 79.1c-.3.8-.3 1.6.1 2.4.4.7 1.1 1 1.8 1.2.3.1.4-.4.1-.4-.6-.2-1.2-.4-1.5-.9-.4-.6-.3-1.4-.1-2 .2-.5-.3-.6-.4-.3zM67.6 81.6c.1.3.2.5.3.8.1.2.4 1.1.2 1.1-.3.1-.1.5.1.4.8-.3 0-2-.2-2.5-.1-.2-.5-.1-.4.2z"/><path d="M70.7 81.4c-.1.6-.4 1.1-.9 1.6-.2.2-.4.4-.7.5-.1 0-.8.4-.9.3-.2-.2-.6 0-.4.2.4.6 1.4 0 1.8-.3.7-.5 1.2-1.3 1.4-2.1.2-.4-.2-.5-.3-.2zM68.4 79.8c-.1.4-.2.8-.5 1.1-.2.2-.4.3-.7.3h-.4c0-.3-.5-.3-.5 0 .1.6.8.5 1.3.4.7-.2 1-1 1.2-1.7.1-.2-.3-.3-.4-.1z"/><path d="M66.5 80.1c.2.3 0 .8-.1 1.1-.1.2.2.5.4.2.3-.5.5-1.2.1-1.6-.3-.3-.6 0-.4.3zM67.8 74.4c.6.4 1.4 1 1.2 1.9-.1.5-.5.6-.9.7-.3.1-1.3.2-1.2-.4 0-.3-.4-.3-.4 0-.1 1.2 2.2 1 2.8.4.3-.3.4-1 .3-1.5-.2-.6-.9-1.2-1.4-1.5-.4-.1-.7.3-.4.4z"/><path d="M66.6 79.7c-1.6-.1-2.3-1.9-1.8-3.3.4-1.4 2-1.8 3.2-1.8.3 0 .3-.4 0-.5-1.7 0-3.5.7-3.8 2.5-.3 1.7.5 3.3 2.4 3.5.3.1.3-.4 0-.4zM75.5 70.2c0-1.2-1-2.1-2-2.5-.3-.1-.4.3-.1.4.9.3 1.7 1.1 1.7 2-.1.4.3.4.4.1zM75.2 67.5c-.6-.3-1.3-.8-1.8-1.3-.6-.6-.5-1.4-.5-2.2 0-.3-.4-.3-.5 0-.1.8-.1 1.7.4 2.3s1.4 1.2 2.1 1.6c.4.1.6-.2.3-.4z"/><path d="M74.6 65.7c-.5-.5-.9-1.4-.9-2.1 0-.3-.4-.3-.4 0 0 .8.4 1.9 1 2.5.2.1.5-.2.3-.4zM75.4 60.8c-.1-.4-.3-1.2-1-1.1-.5.1-.7.8-.7 1.2 0 .3.4.3.5 0 0-.2.1-.9.5-.7.1.1.2.6.3.7 0 .3.5.2.4-.1z"/><path d="M73.6 60.8c0 .5 0 1 .3 1.4.3.3.7.5 1.1.5.3 0 .3-.4 0-.5-.9 0-.9-.8-.9-1.4 0-.3-.5-.3-.5 0z"/><path d="M75 62.3c-.8.2-1.1.9-1.7 1.3-1.6 1-3-.5-3.2-2 0-.3-.5-.2-.4.1.2 1.3.9 2.3 2.3 2.6.5.1.9 0 1.4-.2.7-.3 1.1-1.2 1.9-1.4.1-.1 0-.5-.3-.4zM67.2 73.4c.3 0 .3-.5 0-.5-.2.1-.2.5 0 .5z"/><path d="M69.7 61.9c-.9 1.5-2.7 1.6-4 2.6-.7.5-1 1.1-1.4 1.9-.8 1.7-1.4 3.8-.8 5.7.7 2.2 5.2 4.2 5.8 1 .1-.3-.4-.4-.4-.1-.9.4-1.7.8-2.6 1.2-.7-.5-1.3-.9-2-1.4-.6-.8-.6-2.1-.5-3.1.2-1.7.9-3.9 2.4-4.9 1.3-.9 3-1 3.8-2.5.2-.5-.2-.7-.3-.4z"/><path d="M64.2 70.5c.5.1 1 .4 1.3.9.4.6 0 .9 0 1.4 0 .8 1.1.6 1.6.6.3 0 .3-.4 0-.5h-.8c-.2.1-.3 0-.3-.3 0-.1.1-.2.1-.3.1-.3.1-.6-.1-.9-.3-.7-1-1.1-1.7-1.3-.3-.1-.4.3-.1.4zM69.3 63.9c-1.3.3-2.6 1-3.6 1.9-1.3 1.1-.8 2.4-1 3.9 0 .3.4.4.4.1.2-1.4-.3-2.8 1-3.8.9-.8 2.1-1.4 3.3-1.7.3 0 .2-.4-.1-.4zM72.1 64c-.5 1.7-2.8 1.8-3.8 3.2-.5.7-1 1.8-.5 2.7.4.7 1.4 1.2 2.2 1.1 1-.1 1.3-.8 1.3-1.8 0-.3-.4-.3-.4 0 0 2-2.9 1.4-2.8-.5.1-1.1 1.1-2 2-2.5 1.1-.6 2.1-.8 2.5-2.1 0-.3-.4-.4-.5-.1z"/><path d="M73.7 66.5c-1.7-.8-4.3-.4-4.7 1.8-.2.8 0 1.6.8 1.9.7.2 1.5.1 1.5-.7 0-.3-.4-.3-.4 0-.2.1-.3.2-.5.3-.3 0-.5-.1-.7-.4-.3-.3-.3-.5-.3-.9 0-.5.3-1 .7-1.4.8-.8 2.4-.8 3.4-.3.2.2.4-.2.2-.3z"/><path d="M72 64c-1 1.4-3.1 1.1-4.4 2.2-1 .8-1.1 2.2-1.1 3.4 0 .3.4.3.5 0 0-.9 0-1.8.5-2.6s1.6-1.2 2.5-1.4c1.1-.3 1.8-.4 2.5-1.4.1-.2-.3-.4-.5-.2zM70.4 68.2c2.3-.4 3.5 1.8 2.4 3.7-.8 1.4-2.4 2-3.9 1.7-.3-.1-.4.4-.1.4 2.2.4 4.4-.7 4.8-3 .5-2.2-1.2-3.6-3.3-3.3-.3.1-.1.5.1.5z"/><path d="M71.6 68.6c.1 1.3-.3 2.6-1.7 2.9-1.1.2-2.9-.2-3.4-1.2-.1-.3-.5 0-.4.2.7 1.2 2.7 1.8 3.9 1.4 1.6-.5 2.2-1.7 2.1-3.3 0-.3-.5-.3-.5 0zM70.8 54.8c.4.6.6 1.3.8 2 .3 1.1.1 2-.8 2.8-1.4 1.4-3.5.9-4.9-.3-.2-.2-.5.1-.3.3 1.4 1.2 3.8 1.9 5.3.5.7-.6 1.3-1.4 1.3-2.3 0-1.1-.5-2.4-1-3.3-.1-.2-.5.1-.4.3z"/><path d="M69 54.3c.5 1.2 1.1 2.8.1 4-.6.7-2 .9-2.7.2-.6-.6-.6-1.5-.7-2.3 0-.3-.5-.3-.5 0 0 .9.1 1.9.8 2.6.6.6 1.7.7 2.5.4 2.1-.8 1.4-3.4.8-5 0-.3-.5-.2-.3.1z"/><path d="M69.3 54.2c-1.1-.4-1.5-1.2-2.9-.5s-2.2 2.1-2.4 3.6c-.4 2.8.7 5.8 3.9 5.9.3 0 .3-.4 0-.5-3-.1-4.2-3.4-3.4-6 .5-1.5 1.7-3.1 3.4-2.6.7.2.8.3 1.3.5.3.1.4-.3.1-.4z"/><path d="M75.7 51c-.9.6-.9 1.9-1.8 2.6-1.4 1-3.5 1.3-5 .3-.2-.2-.5.2-.2.4 1.3.8 2.9.8 4.3.3.6-.2 1.1-.5 1.6-1 .6-.6.8-1.9 1.4-2.3.2-.1 0-.5-.3-.3z"/><path d="M76 54.1c-.1-.3-.1-.6-.5-.7-.3-.1-.8-.1-1.1-.1-.3 0-.3.4 0 .5.2 0 .6 0 .8.1.3.1.3.3.4.6.2.1.6-.1.4-.4zM76.1 43.9c-.7-2.1-2.9-3.3-5.1-3.5-1.9-.1-3.2.9-4.3 2.3-1.5 1.8-1.8 4.1-1.5 6.4.3 2.4 1.7 3.7 3.6 5.2.2.2.5-.1.3-.3-2.5-2-3.9-4.2-3.5-7.5.2-1.7.9-3.1 2.2-4.2 2.3-2 6.8-1.5 7.9 1.9 0 .1.5 0 .4-.3z"/><path d="M71.1 46.5c0 1.2 0 2.8 1.4 3.4 1.3.5 2.6-.3 3.5-1.2.2-.2-.1-.5-.3-.3-.8.8-1.9 1.6-3 1.1-1.2-.5-1.2-1.8-1.1-2.9 0-.4-.5-.4-.5-.1z"/><path d="M71.3 46.3c-1.4.8-1.5 3.2-.1 4 .8.4 1.9.4 2.7.2 1-.3 1.6-1.1 2-2 .1-.3-.3-.5-.4-.2-.7 1.3-1.6 2.1-3.1 1.9-.9-.1-1.5-.5-1.7-1.4-.2-.8 0-1.7.8-2.1.2-.2 0-.5-.2-.4z"/><path d="M73.3 45.9c-1.1-.8-2.7-1.5-3.7-.2-1.1 1.3-1.3 3.4-.7 4.9 1.4 3.3 6 1.9 7.1-.9.1-.3-.3-.4-.4-.1-1 2.4-5 3.7-6.3.8-.5-1.2-.4-2.8.3-3.9 1-1.6 2.3-1.1 3.4-.2.3.2.5-.2.3-.4z"/><path d="M72.9 46.1c.1.3.1.6.1.9-.1.3.4.4.4.1.1-.5 0-.9-.2-1.3-.1-.2-.5 0-.3.3zM65.4 50.1c.2 1.2.5 2.8.1 4-.4 1.1-1.4 2-2.3 2.6-.2.2 0 .6.2.4 1-.7 2-1.5 2.4-2.6.6-1.3.3-3.1 0-4.5-.1-.3-.5-.2-.4.1z"/><path d="M63.2 56.6c-.7.8-1.6.9-2.5 1.4-.7.4-1.4.9-2 1.4-.9.6-1.7 1.4-1.9 2.5-.4 2 1.1 3.5 3.1 3 .3-.1.2-.5-.1-.4-1.7.4-2.8-1.1-2.4-2.7.4-1.3 1.4-1.9 2.4-2.6 1.2-.9 2.7-1.1 3.8-2.3.1-.1-.2-.5-.4-.3z"/><path d="M58.5 63.4c-.3-.6-.1-1.1.6-1.6s1.4-.5 2.3 0c.8.5 1.2 1.3 1.3 2.2.1 1.7-1.3 4-3.1 4.1-.3 0-.3.5 0 .5 2.7-.2 4.7-4.2 2.9-6.4-.9-1.1-2.3-1.5-3.6-.7-.7.5-1.3 1.5-.6 2.3.1.2.4-.2.2-.4zM61 58c0 .3-.2.6-.1.9 0 .2.2.6.3.8.3.4.8.4 1.2.3.3-.1 1-.5.8-.9-.1-.2-.2-.2-.4-.2-.3 0-.3.3-.5-.2-.1-.2-.1-.6-.1-.8 0-.3-.5-.3-.5 0 0 .5.1 1.6.8 1.5h.1s-.2.1-.2.2c-.2.2-.6.3-.8.2-.5-.3-.3-1-.3-1.5.2-.5-.3-.6-.3-.3z"/><path d="M59 59.6c2-.1 3.6.6 4.4 2.5.8 1.8.8 4.1-1.1 5.2-.2.2 0 .5.2.4 2-1.2 2.1-3.5 1.4-5.6-.8-2.2-2.6-3.2-4.9-3-.3.1-.3.5 0 .5z"/><path d="M56.5 59.9c-1.3.7-1.4 2.7-1.2 4 .2 1.3 1 2.2 2.3 2.5 1.1.3 2.8.1 3.5-.9.7-.9.6-2.3-.3-3-.2-.2-.5.2-.2.4 1.2.9.3 2.6-.8 3-.9.3-1.9.3-2.7-.1-1.6-.8-2.1-4.5-.3-5.5.2-.2 0-.6-.3-.4zM59.5 70.5c-.8 0-1.5.7-1.4 1.5.1.9.9 1.4 1.8 1.3.3 0 .3-.5 0-.4-.6 0-1.2-.1-1.3-.8-.1-.6.4-1.1 1-1.1.2 0 .2-.5-.1-.5z"/><path d="M59.5 72.1c.8 0 1.5-.1 1.5-1.1 0-.9-.8-1.5-1.5-2-.2-.2-.5.2-.2.4.4.3.9.7 1.1 1.1.2.3.2.9-.2 1.1-.2.1-.5 0-.7 0-.2.1-.2.6 0 .5z"/><path d="M59.5 69.3c.1-.5.2-1-.2-1.4-.4-.3-.9-.6-1.3-.3-.3.2-.5.7-.5 1.1 0 .5.4.7.8.6.3 0 .3-.5 0-.4-.2 0-.3-.1-.4-.3 0-.1 0-.2.1-.3.1-.3.3-.3.5-.2.3.1.5.2.6.4.1.3.1.5 0 .7-.1.2.4.4.4.1z"/><path d="M59.7 68.7c1.2 0 2.7 1.7 3.2 2.7.3.5.5 1.1.6 1.7.3 1.6-.8 2.2-2.1 2.6-.3.1-.2.5.1.4 2.1-.5 3-1.6 2.3-3.8-.5-1.5-2.3-4-4.1-4-.3 0-.3.4 0 .4z"/><path d="M61 73.8c-1.3 1.1.6 2.2 1.2 3 .4.5.4.6.1 1.3-.3.7-.3.7-1 .9-.9.3-1.6 0-2.2-.7-.8-.9-1.4-2.8-.9-4 .1-.3-.3-.4-.4-.1-.8 1.9.8 5.6 3.2 5.3.8-.1 1.9-.6 2-1.5.1-.5-.1-1-.4-1.5-.4-.5-2.1-1.6-1.2-2.4.1-.2-.2-.5-.4-.3z"/><path d="M59.7 74.2c-.4.7-.7 1.4-.4 2.1s.8 1.1 1.5 1.3c.3.1.4-.4.1-.4-.6-.2-1.1-.6-1.3-1.3-.1-.6.1-1 .4-1.5.2-.2-.2-.4-.3-.2zM59.3 69.4c2 .4 4.3 3.5 1.5 4.5-.3.1-.2.5.1.4 3.2-1.2 1-4.9-1.5-5.4-.3 0-.4.4-.1.5z"/><path d="M60.7 73.8c-1.2.5-2.7.4-3.4-.9-.1-.3-.5 0-.4.2.7 1.5 2.5 1.7 3.9 1.1.3-.1.2-.5-.1-.4z"/><path d="M59.1 69c-.5.4-1 .5-1.5.8-.2.1-.4.2-.5.5-.3.8-.3 1.9-.2 2.7 0 .3.5.3.4 0-.1-.8-.2-2 .4-2.6.4-.5 1.2-.7 1.7-1.1.3-.2 0-.5-.3-.3z"/><path d="M57.7 69.6c-.6.2-1.2.2-1.6.8-.5.8-.7 2-.8 2.9-.2 1.7 1 2.1 2.5 1.9.3 0 .3-.5 0-.5-.8.1-1.8.3-2.1-.9-.1-.5.1-1.1.2-1.6s.3-1.2.6-1.6.8-.5 1.3-.6c.3 0 .1-.4-.1-.4zM54.6 59.6c-1.1.3-1.3 2-1.5 2.9-.2 1.1-.4 2.8.5 3.7.2.2.5-.1.3-.3-.6-.7-.5-2.1-.4-2.9.1-.7.3-2.7 1.2-2.9.3-.2.2-.6-.1-.5z"/><path d="M58.3 68.9c-2-.5-3.2-2.4-5.1-3-.3-.1-.4.4-.1.4 2 .6 3.1 2.5 5.1 3 .2.1.4-.3.1-.4z"/><path d="M57.7 69.5c-1.6.2-2.9-.3-3.8-1.6-.5-.8-.9-1.5-1.7-2.1-.2-.2-.4.2-.2.4 1.1.8 1.4 2.2 2.5 3 .9.7 2.1.9 3.2.7.3 0 .3-.4 0-.4z"/><path d="M53.3 65.8c-.6 0-1.2-.3-1.9-.2-.3 0-.2.5.1.4.6-.1 1.2.1 1.7.2.3.1.3-.3.1-.4z"/><path d="M51.8 63.7c.4.7.5 1.5-.3 1.9-.6.3-1.4.2-2-.1-.9-.5-1.4-1.7-1.6-2.7-.1-.3-.5-.2-.4.1.3 1.6 1.3 3.3 3.2 3.2 1.7-.1 2.3-1.3 1.5-2.8-.2-.1-.5.1-.4.4z"/><path d="M52.2 63.5c-.3-.2-.7-.2-1.1-.2-.3 0-1 .6-1.2.1-.1-.3-.5-.1-.4.1.1.3.4.6.8.6.2 0 .3-.1.4-.2.4-.2.7-.3 1.2-.1.3.2.5-.2.3-.3z"/><path d="M55.1 58.6c-2.2.8-6.5 1.8-5.6 5 .1.3.5.2.4-.1-.8-2.9 3.3-3.8 5.3-4.4.3-.1.2-.6-.1-.5z"/><path d="M55 58.6c-.9.6-1.9 1-2.5 2-.6.9-.8 2-.8 3.1 0 .3.4.3.5 0 0-1 .2-2 .7-2.9.5-.8 1.5-1.3 2.3-1.8.3-.2.1-.6-.2-.4z"/><path d="M55.4 56.9c.3 0 .2.6.2.8 0 .3-.1.6-.5.7-.3.1-.6 0-.9-.1-.4-.2-.6-.4-.6-.9 0-.3-.5-.3-.5 0 0 .6.2 1 .7 1.2s1.2.4 1.7.1c.5-.3.5-.8.4-1.3 0-.4-.1-1-.7-.9-.1 0-.1.4.2.4z"/><path d="M64 54.5c-.3.2-.4.4-.7.7-1 1-2.2 1.4-3.5 1.9-1.6.6-3.3.9-4.9 1.5-.3.1-.2.5.1.4 1.8-.7 3.7-1 5.4-1.7.7-.3 1.5-.5 2.1-.9.7-.4 1-1.1 1.7-1.5.3-.1 0-.5-.2-.4z"/><path d="M60.4 56.8c-1.5.1-3 .2-4.5.1-.3 0-.3.4 0 .5 1.5.2 3 .1 4.5-.1.3-.1.3-.5 0-.5z"/><path d="M64.9 49.1c.1 2-.4 3.8-2 5.2s-3.5 1.2-5.4 1c-1.6-.1-3.1-.1-3.5 1.7-.1.3.4.4.4.1.5-2.4 4.2-1.1 6-1.3.9-.1 1.7-.3 2.4-.8 2-1.5 2.8-3.5 2.6-6-.1-.2-.5-.2-.5.1z"/><path d="M65.2 49.1c-.8-1.2-2.4-1.9-3.9-1.4-1.3.4-2.1 2.1-1.6 3.4.4 1.1 2.6 1.9 3.6 1.2 1.1-.8.7-2.8-.6-3.1-.3-.1-.4.4-.1.4 1.1.2 1.2 1.7.3 2.2-.5.3-.9.2-1.4 0-.8-.2-1.4-.5-1.4-1.5 0-.4.1-.9.3-1.3 1-1.8 3.5-1.2 4.4.3.2.2.6 0 .4-.2z"/><path d="M62.5 52.1c-.4.4-1.5.6-2 .3s-1.1-.7-1.4-1.2c-.2-.2-.5.1-.3.3.4.5 1.2 1.3 1.9 1.4.7.1 1.6-.1 2.2-.5.1-.2-.2-.5-.4-.3z"/><path d="M64.4 47c-.7-.7-1.4-1.4-2.5-1.6-1.1-.1-2 .7-2.8 1.3-1.5 1.2-1.5 3.4-.5 4.9.2.2.5 0 .4-.2-1-1.6-.8-3.4.7-4.5.7-.6 1.5-1.2 2.5-.9.8.2 1.4.8 1.9 1.4.2.1.5-.2.3-.4z"/><path d="M59.8 46.6v-2.7c0-.3-.4-.3-.5 0v2.7c0 .3.5.3.5 0z"/><path d="M61.4 44.1c.1.7-.8 1.3-1.3 1.6-.3.2-.7.4-.8.8-.1.3.3.4.4.1.1-.3.6-.5.8-.6.2-.2.4-.3.6-.5.4-.4.8-.7.7-1.3 0-.4-.4-.4-.4-.1zM56.8 43.8c-.2 1.2.4 2.1.7 3.2.3 1.2 0 2.6.6 3.7.1.3.5 0 .4-.2-.5-.9-.3-2.1-.5-3.1-.2-1.1-.9-2.2-.8-3.4.1-.4-.4-.5-.4-.2zM56.3 47.4c-.8.4-1.3 1.2-2.1 1.6-1.4.9-3.2.5-3.7-1.2-.4-1.5-.1-3.5 1.5-3.9 1.2-.3 3.8.4 3.2 2.1-.1.3.3.4.4.1.5-1.4-1.2-2.6-2.4-2.8-1.6-.2-3.1.7-3.3 2.4-.2 1.6.1 3.5 1.8 4.1 2 .7 3.2-1.2 4.7-2.1.4-.1.1-.5-.1-.3z"/><path d="M58.2 49.7v-1.1c0-.3-.5-.3-.5 0v1.1c0 .3.5.3.5 0zM55.4 45.9c-.2.4-.4.8-.4 1.2-.1.4 0 .8 0 1.2 0 .3.4.3.4 0 0-.4 0-.8.1-1.2.1-.3.3-.7.4-1 0-.3-.4-.4-.5-.2z"/><path d="M55.3 46.9c-.4-.3-.5-.8-.9-1.1-.3-.2-.8-.3-1.2-.3-.9.1-1.5.7-1.7 1.5-.1.3.3.4.4.1.3-.8 1-1.3 1.8-1.1.7.2.8.8 1.3 1.2.2.2.5-.1.3-.3z"/><path d="M55.4 47.1c-.2-1.3-.9-2.8-2.4-2.7-1.4.2-2.1 2.1-2.1 3.3 0 .3.4.3.5 0 0-.9.4-2.3 1.3-2.8 1.4-.7 2.2 1.1 2.3 2.1 0 .4.4.4.4.1zM55.8 44.3c-.1 1.2 1 1.9 1.8 2.7.2.2.5-.1.3-.3-.6-.7-1.7-1.3-1.6-2.4 0-.3-.4-.3-.5 0z"/><path d="M55.8 44.6c0 .3-.2.4-.4.6-.3.1 0 .5.2.4.4-.2.6-.5.6-.9.1-.3-.4-.3-.4-.1zM63.6 53.6c-4.1 1.8-6.4-2.3-8-5.2-.1-.3-.5 0-.4.2 1 1.7 2 4 3.7 5.1 1.3.9 3.5.9 4.9.2.3 0 0-.4-.2-.3z"/><path d="M56.8 50.7c-1.6-.7-4.2-.8-3.9 1.6.1.9.9 1.4 1.8 1.6 1.6.3 3.4.2 5 .2.3 0 .3-.5 0-.5-1.2 0-2.5 0-3.7-.1-.8 0-3.6-.2-2.5-2.2.6-1 2.2-.7 3.1-.3.3.2.5-.2.2-.3z"/><path d="M59.5 53.5c-.9-.2-1.5-.7-2.3-1-.7-.3-1.4-.3-2.2-.3-.3 0-.3.5 0 .5.9 0 1.7 0 2.5.5.6.4 1.2.6 1.9.8.2 0 .3-.4.1-.5zM55.7 53.7c-.7.4-1.6.7-2 1.3-.5.7-.5 1.5-.4 2.3 0 .3.5.3.4 0 0-.7-.1-1.6.4-2.1.4-.5 1.2-.7 1.8-1.1.2-.2 0-.5-.2-.4z"/><path d="M55.5 53.7c-.6.1-1.2.1-1.7.1-.4 0-.9-.1-1.3 0-.6.1-.7.7-.7 1.2 0 .3.5.3.5 0-.1-1 1.2-.7 1.8-.7.5 0 1.1-.1 1.6-.1.2-.1 0-.6-.2-.5z"/><path d="M53.5 54.2c0 .2-.5.5-.6.6-.3.2-.6.2-.9.2s-.3.5 0 .5c.6 0 .9-.1 1.4-.4.3-.3.7-.5.6-.9-.1-.4-.5-.3-.5 0zM52.9 53.6c-3.1-.4-3.6-5-6.7-5.3-.3 0-.3.4 0 .5 1.8.1 2.7 2.3 3.8 3.4.8.8 1.6 1.7 2.8 1.8.3.1.4-.3.1-.4z"/><path d="M51.6 53.6c.2.9-1 .9-1.6.9-.3 0-.3.5 0 .5.5 0 1.1.1 1.6-.3.4-.3.6-.8.4-1.2 0-.3-.5-.2-.4.1z"/><path d="M50.6 52.6c-.1.4-.3.7-.6 1-.2.3-.1.6-.2.9-.1.3.4.4.4.1 0-.1 0-.2.1-.4 0-.3.2-.4.3-.7.2-.3.3-.6.4-.9.1-.1-.3-.3-.4 0z"/><path d="M50.6 52.6c-1 .2-1.7 0-2.6-.5-.2-.1-.5-.3-.7-.3-.4-.1-.7 0-1.1 0-.3-.1-.4.4-.1.4.5.1 1 0 1.5.2.4.2.8.4 1.1.6.6.3 1.4.2 2 0 .3-.1.2-.5-.1-.4z"/><path d="M49 50.5c-.5 0-.8.2-1.3.4-.7.3-1.3.5-2 .6-.3 0-.3.5 0 .4.6 0 1.1-.1 1.6-.3.6-.2 1.1-.7 1.7-.7.3 0 .3-.4 0-.4z"/><path d="M48.3 50.5c-.8.1-1.6-.2-2.4-.2-.3 0-.3.4 0 .5.9 0 1.6.4 2.5.2.3-.1.2-.5-.1-.5z"/><path d="M47.2 48.9c0 .3-.3.8-.5 1s-.6.2-1 .2c-.3 0-.3.5 0 .5.4 0 1 0 1.3-.3s.6-.9.6-1.4c.1-.2-.4-.2-.4 0z"/><path d="M45.7 50.7c.3 0 .3-.5 0-.5s-.3.5 0 .5zM53.3 52c-1.4-.2-2.9-2.3-3.8-3.3-.9-.9-1.6-1.6-3-1.7-.3 0-.3.4 0 .5 1.8.1 2.9 1.9 4.1 3.1.8.7 1.4 1.7 2.5 1.9.3-.1.5-.5.2-.5zM48.1 63.6c.3-1.5.3-3 1.4-4.2 1.1-1.3 2.4-1.5 4.1-1.4.3 0 .3-.4 0-.5-1.7-.1-3 .1-4.2 1.3-1.3 1.3-1.4 2.8-1.7 4.6-.1.4.3.5.4.2z"/><path d="M47.9 61.8c-.4.1-.7-.1-.8-.5-.1-.3-.5-.2-.4.1.2.6.7.9 1.3.8.3 0 .2-.5-.1-.4zM48.4 60c-.8.1-.8-.5-.9-1.1 0-.3-.5-.3-.5 0 0 .4.1 1.1.4 1.4.3.3.7.2 1.1.2.3-.1.2-.5-.1-.5zM47.6 63c-.2.8-1 1.7-1.9 1.6-.4 0-.4-.2-.4-.5v-.7V62c0-.3-.5-.3-.5 0 0 .8-.1 1.6 0 2.4 0 .4.4.6.8.6 1.1.1 2.2-.9 2.4-2 0-.1-.4-.2-.4 0z"/><path d="M44.7 64.5c-.5.8-1.3 1.1-2.2 1s-1.4-.6-1.7-1.4c-.3-.9-.9-1.7-1.1-2.6-.1-.3-.5-.2-.4.1.2.9.8 1.7 1.1 2.6.2.6.4 1.2 1 1.5 1.3.7 2.9.2 3.7-1 .2-.2-.2-.4-.4-.2z"/><path d="M47 59c-.1 1.9-1.8 2.8-3.4 3.2-1.5.4-2.6-.4-3.9-.8-.3-.1-.4.3-.1.4.9.3 1.7.8 2.6.9 1 .1 2-.2 2.9-.6 1.4-.6 2.3-1.6 2.4-3.2 0-.2-.4-.2-.5.1z"/><path d="M47.5 59c-.1-1.3-.2-3.3-1.4-4.1-.9-.6-2.5-.9-3.3 0-.2.2.1.5.3.3.8-.9 2.6-.3 3.2.6.5.9.6 2.1.8 3.2-.1.2.4.2.4 0z"/><path d="M43.5 55.9c1 1.3 1.3 3.5-.9 3.9-1.4.2-2.5-.2-3.2-1.5-.9-1.6-.9-3.7.1-5.3.7-1.1 2.3-2.3 3.7-2.4 1.1 0 1.7.4 2.8.1.3-.1.2-.5-.1-.4-1.3.3-2.5-.4-3.8.1-1 .4-2 1.1-2.7 1.9-1.4 1.7-1.6 4.4-.5 6.4.9 1.6 2.9 2.2 4.6 1.3 2-1 1.5-2.9.4-4.4-.3-.3-.6 0-.4.3z"/><path d="M46 51.7c-1.4-.3-2.9-.2-4.2.4-1.3.6-1.9 1.8-2.1 3.3-.3 2.7 2.5 4.2 4.8 3.2.3-.1 0-.5-.2-.4-1.2.5-2.7.4-3.5-.7-.8-.9-.7-2.1-.3-3.2.8-2.2 3.4-2.6 5.4-2.1.3 0 .4-.4.1-.5z"/><path d="M44.2 58.1c-2.3.2-2.5-2.6-1.4-4.1 1.5-2 3.9-.1 5.1 1.1 1.5 1.5 2.8 2.4 4.9 2.9.3.1.4-.4.1-.4-1.9-.4-3.4-1.4-4.7-2.7-.7-.7-1.3-1.3-2.2-1.7-1.3-.6-2.5-.4-3.6.6-.9.9-1 2.3-.6 3.5s1.2 1.4 2.4 1.3c.3 0 .3-.5 0-.5z"/><path d="M47.9 55.2c.7 1.1 1.6 3 .9 4.2-.1.3.2.5.4.2.8-1.4 0-3.5-.9-4.7-.1-.2-.5.1-.4.3zM49.9 66c.9 1.2 1.3 2.6 1.7 4 .5 2 0 3.4-1.6 4.7-1.7 1.3-4.3 1.3-5.8-.3-.7-.8-1.1-1.8-1.1-2.8-.1-.8.2-1.5.9-2 .5-.4 1-.5 1.5-.3.1.3.5.2.4-.1-.4-1.5-2.8.3-3.1 1.1-.9 2.1.6 4.6 2.6 5.4 2.3.9 5 .1 6.3-2 1.4-2.2 0-6-1.4-7.8-.2-.3-.6-.1-.4.1z"/><path d="M48.9 65.3c-.6 1.4.4 2.5.8 3.8.4 1.3.5 3-.7 4.1-.6.5-2.3 1-3.1.6s-2.4-3.4-.5-3.6c.3 0 .3-.5 0-.5-1.2.1-1.5 1.7-1.3 2.8.3 1.4 1.6 1.8 2.9 1.8 1.6 0 2.8-.8 3.2-2.4.2-.8.2-1.6 0-2.5-.3-1.3-1.6-2.7-1-4 .2-.2-.2-.4-.3-.1z"/><path d="M48.2 64.7c-.5 1.1-.2 2.2 0 3.4.2 1 .5 2.5-.4 3.2-.3.3-1.2.4-1.6.3-.3-.1-1.5-.9-.8-1.5.2-.2-.1-.5-.3-.3-.5.4-.4 1 0 1.5.6.7 1.4.9 2.2.7 3.1-.8.6-5.2 1.4-7.2 0-.2-.4-.4-.5-.1z"/><path d="M46.6 71.9c1.8-1.1 1.3-3.4-.6-4.1-2.2-.8-5.1.4-5.4 2.8 0 .3.4.4.4.1.2-1.7 1.7-2.7 3.3-2.7.8 0 1.7.1 2.4.7.9.9.6 2.2-.4 2.8-.2.1 0 .5.3.4z"/><path d="M43.5 68.7c-.5 0-1.1.5-1.4.9-.2.2-.3.5-.4.7-.3.5-.6.4-1.1.4-.3 0-.3.5 0 .4.5 0 1.2.2 1.5-.3.1-.3.2-.5.4-.8s.7-.9 1.2-.8c.1 0 .1-.4-.2-.5z"/><path d="M40.3 70.8c-.5.3-.6.8-.4 1.4.3.7.6.8 1.4 1 .3.1.4-.4.1-.4-.4-.1-.7-.1-.9-.4-.3-.3-.4-.9.1-1.1.2-.3 0-.7-.3-.5z"/><path d="M42.6 71.8c-.2.4-.7.6-1 .8-.3.2-.7.3-1 .4-.6.3-.9.8-.9 1.5 0 .3.5.3.5 0 0-1 .9-1 1.6-1.5.5-.3 1.1-.6 1.3-1.1 0-.2-.4-.4-.5-.1z"/><path d="M43.2 73.6c-.4.5-.7 1-1.3 1.2s-1.4 0-1.9-.3c-.3-.1-.5.3-.2.4.7.3 1.5.5 2.3.3s1.1-.8 1.6-1.4c.1-.2-.3-.5-.5-.2zM46.7 75.8c-.1 1.4-.8 2.7-2.2 3-1 .2-2.1 0-3.1-.1-.3 0-.3.4 0 .4 1.4.1 3 .4 4.2-.3 1-.6 1.5-1.9 1.6-3.1 0-.2-.5-.2-.5.1z"/><path d="M45.5 76.7c-.1.2-.1.4-.3.6-.3.2-.8 0-1-.3-.2-.6.5-1 .9-1.4.2-.2-.1-.5-.3-.3-.4.3-.9.7-1 1.2-.1.4 0 .8.4 1.1.4.3.8.3 1.2.2.5-.1.5-.5.6-.9 0-.4-.4-.5-.5-.2z"/><path d="M43.9 74.5c-.2.4-.4.9-.5 1.3-.2.4-.3.8-.2 1.2.2.8.8 1 1.5 1.2.3.1.4-.4.1-.4-.2-.1-.4-.1-.5-.2-.7-.3-.8-.7-.6-1.3.1-.4.4-1.2.6-1.5.1-.3-.3-.5-.4-.3z"/><path d="M43.3 77.3s0 .1 0 0c0 0 0-.1 0 0-.1-.1-.1 0 0 0-.1-.1 0-.2 0-.3-.2.2-.6.2-.8.3-.2.1-.3.3-.5.5-.4.3-.8.4-.8 1 0 .3.4.3.5 0 0-.3.5-.4.7-.6.1-.1.1-.2.2-.2.2-.2.2-.2.4-.3.3-.1.8-.2.7-.6 0-.1-.1-.1-.2-.2h-.1c-.3-.1-.4.4-.1.4z"/><path d="M42.2 77.6h-1.3c-.3 0-.3.4 0 .4h1.3c.3 0 .3-.4 0-.4z"/><path d="M41.8 74.9c-.3.4-.7.6-.9 1.1s-.2 1.1-.2 1.7c0 .3.5.3.5 0 0-.6-.1-1.2.2-1.7.2-.3.6-.6.8-.9.2-.2-.2-.5-.4-.2zM40.6 70.6v.2c0 .3.5.3.5 0v-.2c-.1-.3-.5-.3-.5 0zM40 63.2V65c-.1.7-.4 1.3-.8 1.8-.3.4-.6.7-1.1.6-.4-.1-.5-.3-.7-.6-.4-.6-.7-1.1-1-1.7-.1-.3-.5 0-.4.2.6 1.1 1.3 3.3 2.9 2.4.6-.3 1-1.2 1.3-1.7.4-.9.3-1.9.3-2.8 0-.3-.5-.3-.5 0zM34.2 65.4c-.2 1.2-.3 2.8.8 3.5.2.2.5-.2.2-.4-.8-.6-.7-2.1-.6-3 .1-.3-.4-.4-.4-.1z"/><path d="M32 64.5c.1 1-.2 1.8.2 2.8.3.8.9 1.7 1.7 2.3 1 .7 3.2.9 3.7-.6.6-1.8-3-2-2.5-.3.1.3.5.2.4-.1-.2-.7.7-.7 1.1-.6 1.4.5-.1 1.7-1.1 1.6-1.3 0-2.1-1-2.7-2-.6-1.1-.3-2-.4-3.1 0-.3-.4-.3-.4 0zM33 62.8c.8.5 2.2.8 2.9 0 .6-.7.8-2.1.2-2.9-.7-1.1-2.5-1.4-3.7-1.2-1.3.3-2.3 1.7-2.7 2.9-.1.3.3.4.4.1.3-.8.7-1.6 1.5-2.1.8-.6 1.9-.5 2.7-.3 1.1.3 1.7 1.1 1.6 2.2-.1 1.4-1.7 1.6-2.7.9-.2-.2-.4.2-.2.4z"/><path d="M37.2 60.3c0 1.4-.2 2.7-1.5 3.4-1.5.8-3.1-.1-3.4-1.7 0-.3-.5-.2-.4.1.3 1.6 1.9 2.8 3.5 2.2 1.9-.6 2.3-2.3 2.4-4.1-.2-.1-.6-.1-.6.1z"/><path d="M38.4 61.8c-.9 1.7-1.7 3.6-4 3.4-1.1-.1-2-.7-2.5-1.7-.8-1.3-.3-2.5.8-3.4.2-.2-.1-.5-.3-.3-.9.8-1.5 1.4-1.4 2.7.2 1.2 1 2.4 2.1 2.9 1 .5 2.1.5 3.1 0 1.3-.7 1.9-2 2.5-3.3.2-.3-.2-.6-.3-.3z"/><path d="M30 61.2c-.9.7-.5 2.2-.1 3 .5 1.1 1.5.7 2-.2.1-.3-.3-.5-.4-.2-.2.4-.5 1-1.1.4-.2-.2-.2-.5-.3-.7-.2-.5-.4-1.4.1-1.8.2-.3 0-.7-.2-.5zM36 54.1c.1.2.3.5.2.8s-.4.5-.7.5c-.3-.1-.5-.5-.6-.8s-.5-.2-.4.1c.3.7.7 1.4 1.5 1.1.8-.3.8-1.2.4-1.8-.1-.4-.5-.1-.4.1z"/><path d="M35.2 55.7c0 .3 0 .6-.3.7-.3.1-.9-.1-.8-.5.1-.3-.4-.4-.4-.1-.2.7.3 1.1 1 1.1s1-.4 1-1.2c0-.3-.5-.3-.5 0z"/><path d="M33.1 54.5c0 1.3-.3 2.9.7 4 .7.7 1.8 1 2.6.3.6-.6.6-1.7-.1-2.2-.3-.2-1-.3-1.4-.2-.5.2-.7.9-.8 1.3-.1.3.4.4.4.1.1-.5.3-1 .9-1 .7-.1 1.1.6.9 1.2-.4.9-1.5.8-2.1.2-.9-.9-.6-2.6-.6-3.8-.1-.2-.5-.2-.5.1zM44 48.2c-1.9.1-3.8 0-5.5 1.2-.6.5-1.1 1-1.5 1.7-.2.3-.3.6-.4.9-.1.2-.2.5-.2.7 0 .6-.4.9-1.1.9-.1-.3-.5-.2-.4.1.3 1 1.4.5 1.8-.2.7-1.3.6-2.5 1.9-3.5 1.6-1.4 3.6-1.3 5.6-1.4.1.1.1-.4-.2-.4zM47.7 46.7c-1.2.3-3.2.1-3.8-1.1-.1-.3-.5 0-.4.2.8 1.4 3 1.6 4.3 1.3.3 0 .2-.5-.1-.4z"/><path d="M47.2 42.5c-.8.7-1.7 1.5-2.6 2.1-1.7 1.2-3.9.7-4.8-1.2-.1-.3-.5 0-.4.2.5 1.2 2 2.5 3.4 2.3 1.7-.2 3.4-2.1 4.6-3.1.3-.2 0-.5-.2-.3z"/><path d="M47.6 42.4c-.7-.4-1.1-1-1.9-1.3-.7-.2-1.6-.3-2.4-.2-1.4.2-2.7 1.4-3.8 2.4-.2.2.1.5.3.3 1-.9 2.4-2.1 3.8-2.2.7-.1 1.7 0 2.3.4.5.3.9.8 1.4 1.1.3.1.5-.3.3-.5z"/><path d="M47.7 43.9c-.6-.7-1.5-.9-2.4-.9-1.2 0-2 .7-3.2 1-.3.1-.2.5.1.4.8-.2 1.5-.7 2.2-1 1-.3 2.3-.1 3 .7.2.3.5 0 .3-.2z"/><path d="M45.6 44c-.4.3-.3 1-.2 1.5.1.6.1 1.2.5 1.7.2.2.5-.1.3-.3-.3-.4-.4-.9-.4-1.4 0-.2-.2-1 0-1.1.3-.2.1-.6-.2-.4zM29.5 54.4c0-.5.5-.8.9-.9.2-.1.6-.1.7.2.2.3-.2.7-.5.6-.3 0-.3.4 0 .5 1 .1 1.4-1.2.5-1.7-.5-.2-.9-.1-1.4.2s-.7.5-.8 1.1c.1.3.5.3.6 0zM45.4 46.7c-2.3-.5-6.2-.3-8.1 1.2-2.5 2-3.2 6.5-6.4 7.7-.3.1-.2.5.1.4 1.7-.7 2.6-2.2 3.6-3.7.9-1.4 1.8-2.8 3.1-3.8 1.8-1.5 5.4-1.9 7.6-1.4.3.1.4-.4.1-.4z"/><path d="M36.7 48.7c-1.4-.3-2-.1-2.9 1.1-.4.5-.7 1.1-1 1.7-.4.7-1 2.6-1.9 2.7-.3 0-.3.5 0 .4 1.1-.1 1.5-1.3 1.9-2.2.3-.7.7-1.4 1.1-2 .7-1 1.3-1.5 2.6-1.2.3 0 .5-.4.2-.5z"/><path d="M34.2 49.2c-1.6.5-2.7 2.2-4.4 2.4-.3 0-.3.5 0 .5 1.8-.2 2.8-1.9 4.5-2.4.3-.2.2-.6-.1-.5z"/><path d="M32.7 48.3c-.5.1-1 0-1.5.3-.4.2-.7.5-1 .8-.6.7-1 1.5-.8 2.4.1.3.5.2.4-.1-.2-.9.4-1.7 1-2.3.3-.2.5-.5.9-.5.3-.1.7 0 1-.1.4-.1.3-.6 0-.5zM37.8 47.5c-2.1.3-3.8-2-5.9-1-.3.1 0 .5.2.4 1.3-.6 2.4.3 3.5.7.7.3 1.4.4 2.2.3.2.1.2-.4 0-.4zM41.8 46.5c-.9 0-1.8-1.1-2.2-1.7-.2-.4-.4-.9-.6-1.4-.3-.9-.4-1.8-.7-2.6-.4-1.1-.9-1.9-1.8-2.6-.2-.2-.5.2-.2.4 1.9 1.4 1.8 4 2.7 6 .5 1.1 1.4 2.4 2.8 2.4.3-.1.3-.5 0-.5zM42.1 41.5c-.2-1.1-.3-2.1-1.2-2.8-1.3-1-4.4-1.6-4.5-3.5 0-.3-.5-.3-.5 0C36 36.4 37 37 38 37.6c.7.4 1.6.7 2.3 1.2 1 .7 1.2 1.6 1.4 2.8.1.3.5.2.4-.1z"/><path d="M36 35.1l-.5.3c-.2.2-.3.4-.4.7-.3.6-.4 1.2-.3 1.8 0 .3.5.3.5 0 0-.7.1-1.3.5-1.9.2-.3.4-.4.6-.6.1-.1.2-.1.2-.2-.1-.3-.5-.4-.6-.1z"/><path d="M34.7 37.8c1.2 2.2 1.9 4.6 3 6.8.7 1.5 1.5 2.5 3.3 2.6.3 0 .3-.4 0-.5-3.6-.3-4.4-6.6-5.8-9.2-.2-.1-.6.1-.5.3zM31.3 39.8c2.3-1.1 4 7.9 7.2 7.8.3 0 .3-.5 0-.5-1.2 0-2.6-2.2-3.1-3.1-.5-.9-.8-1.9-1.3-2.8-.6-1.2-1.5-2.5-3-1.9-.3.2-.1.6.2.5zM30.9 41.5c.3 0 .3-.5 0-.5-.3.1-.3.5 0 .5zM33.6 43.9c-.5-1.2-1.8-1.1-2.9-1.3-.3 0-.4.4-.1.4.8.1 2.2.1 2.6 1 .1.3.5.2.4-.1z"/><path d="M30.4 42.7c-.2.7-.1 1.4.4 2 .6.6 1.4.8 2.2 1 .3.1.4-.4.1-.4-1.3-.3-2.8-.8-2.4-2.4.3-.3-.2-.5-.3-.2z"/><path d="M32.8 45.1c-1.1.2-2.2.4-2.5 1.7-.2 1 .7 1.9 1.7 2.1.3 0 .4-.4.1-.4-.9-.1-1.7-1.1-1.2-2 .4-.6 1.4-.8 2-.9.3-.1.1-.6-.1-.5zM29.4 50.8c-.6.7-.5 1.7-1.3 2.3-1 .8-2.5.8-3.7.7-.3 0-.3.4 0 .5 1.2.1 2.5 0 3.6-.5.4-.2.7-.5.9-.8.4-.5.4-1.3.8-1.8.2-.4-.1-.7-.3-.4z"/><path d="M29.4 50.5c-.8 1-3 .4-4.1 1s-1 1.3-1.3 2.4c-.1.3.4.4.4.1.2-.7.1-1.5.8-2 .6-.4 1.5-.4 2.3-.5s1.7 0 2.2-.7c.2-.2-.1-.5-.3-.3z"/><path d="M27.6 51.1c-.7.5-1.4 1-2.1 1.3-.3.1 0 .5.2.4.8-.3 1.4-.9 2.1-1.3.2-.2 0-.6-.2-.4zM27.6 49.4c.4-.5.6-1.3 0-1.7s-1.4-.2-1.9.2c-1.3 1.2-.5 3 .9 3.6.3.1.5-.3.2-.4-.8-.3-1.5-1.1-1.3-2 .1-.3.2-.6.5-.9.1-.1.2-.1.3-.2.5-.3.8-.2.9.3.3.5.3.4.1.8-.3.3.1.6.3.3z"/><path d="M28.1 45c1.4-.3 1.7 1.4 1.7 2.4 0 .6-.1 1.1-.7 1.5-.5.3-1.3.6-1.8.3v.4c.1 0 .1-.1.2-.1.2-.2-.1-.5-.3-.3-.1 0-.1.1-.2.1-.1.1-.1.3 0 .4 1.4.7 3.1-.5 3.1-1.9.1-1.4-.5-3.5-2.3-3.1-.2-.1 0 .4.3.3z"/><path d="M27.7 49.3c1.1-.2 1.3-1 1.1-1.9-.1-.8-.7-1.6-1.6-1.5-.3 0-.3.5 0 .4.8 0 1.1.7 1.2 1.3v.6c-.1.5-.4.6-.8.6-.3.2-.2.6.1.5zM32.7 42.9c-1.2-.9-1.9-2.1-3.4-2.7-1.1-.5-2.3-.7-3.5-.5-.3 0-.3.5 0 .4 1.4-.1 2.8.1 4 .9 1 .6 1.7 1.6 2.6 2.3.3.1.6-.3.3-.4z"/><path d="M26.4 40.3c1.5.9 1.7 3.3 1 4.8s-1.9 2.2-3.6 1.7c-.3-.1-.4.3-.1.4.9.3 1.7.3 2.6-.1 1.1-.5 1.3-1 1.7-2.2.5-1.6.1-4-1.4-4.9-.3-.3-.5.1-.2.3z"/><path d="M25.9 43.1c-.4.6-1.1.2-1.4-.2-.3-.5-.5-1.2-.1-1.7.2-.2-.2-.5-.4-.2-.5.8-.3 1.9.4 2.6.5.5 1.4.5 1.9-.1.1-.4-.3-.6-.4-.4z"/><path d="M32.1 39.2c-2.3-1.8-6.6-2-8.6.5-1.7 2.1-1.1 5.5 2.1 4.7.3-.1.2-.5-.1-.4-.8.2-2.1 0-2.5-.9-.2-.4 0-1.3.1-1.7.3-1 1.1-1.9 2.1-2.4 1.9-.9 4.9-.7 6.5.6.3.1.7-.2.4-.4z"/><path d="M32.5 37.3c-.6-1.2-3-1.7-4.2-1.7-1.7 0-2.3 1.1-2.2 2.6 0 .3.5.3.5 0v-.7c.3-.4.6-.9 1-1.3.4-.2 1.2-.1 1.7 0 .8.1 2.5.5 2.9 1.4 0 .2.4 0 .3-.3z"/><path d="M35.1 37.8c-1.5-2.3-4.9-4.2-7.8-3.8-2.1.3-3.3 3.2-1.3 4.5.2.2.5-.2.2-.4-1-1.7-.8-2.8.7-3.2.7-.6 1.4-.7 2.3-.4.8.2 1.7.5 2.5.9 1.4.6 2.2 1.2 3.1 2.6.1.2.5 0 .3-.2z"/><path d="M26.6 34.3c-1.9-.2-3.3.7-4 2.5-.5 1.2-.7 3.2 1 3.4.3 0 .3-.4 0-.5-1.7-.2-.7-2.8-.2-3.5.8-1.2 1.8-1.6 3.2-1.4.3 0 .3-.5 0-.5z"/><path d="M25.2 35.7c-.5.4-1 .8-1.2 1.5-.2.8-.2 1.6-.4 2.4 0 .3.4.4.4.1.1-.6.1-1.3.2-1.9.1-.8.5-1.3 1.2-1.8.3-.2 0-.5-.2-.3zM23.1 47c.1.4.2.9.1 1.4 0 .6-.4 1.5-1.2 1.4-.7-.3-.9-.6-.6-.8.1 0 .1-.1.2-.2.1-.2.2-.3.3-.5.2-1.1-1.1-2.1-1.7-2.8-.2-.2-.5.1-.3.3.4.4.8.9 1.1 1.3.4.3.5.8.4 1.3l-.3.3-.2.2c-.2.5.3 1.1.8 1.3.6.2 1.3-.1 1.7-.7.5-.8.3-1.7.2-2.6-.1-.3-.5-.2-.5.1z"/><path d="M22.9 35.7c-1.8 1.5-2.9 5.2-2.7 7.5.2 2.1 1.5 3.7 3.6 4 .3 0 .4-.4.1-.4-4.7-.7-3.5-8.4-.7-10.7.3-.2-.1-.6-.3-.4z"/><path d="M22 36.9c-1.8 1.2-3.1 4-3.4 6.1-.4 2.2.6 3.1 2.7 2.9.3 0 .3-.5 0-.5-1.2.1-2.2.2-2.3-1.6-.1-1 .5-2.2.9-3.1.6-1.3 1.1-2.7 2.4-3.5.1-.1-.1-.5-.3-.3zM24.3 34.7c-1.4-1.5-4.1-.8-5.9-.5-.3 0-.2.5.1.4 1.5-.2 4.2-.9 5.5.4.2.3.5-.1.3-.3z"/><path d="M18.1 34.3c-.1.6-.2 1.2.1 1.7.3.5 1 .6 1.5.8.3.1.4-.3.1-.4-.4-.1-1-.2-1.3-.6-.3-.4-.1-.9 0-1.3s-.3-.5-.4-.2z"/><path d="M19.8 36.2c-.5.1-.9-.1-1.4 0-.4.1-.8.3-1.1.5-.7.6-.7 1.8-.8 2.7 0 .3.4.4.4.1.1-.7.1-1.8.6-2.4.3-.3.7-.4 1-.5.4-.1.8.1 1.2 0 .4.1.4-.4.1-.4z"/><path d="M20.6 38.2c-.2 0-.3.1-.4.2-.4.3-.7.5-1.2.7-.8.3-1.5.5-2.4.4.1.1.1.3.2.4l.1-.1c.2-.2-.1-.5-.3-.3l-.1.1c-.1.1 0 .4.2.4.8 0 1.5 0 2.2-.3.3-.1.7-.2 1-.4s.6-.5 1-.6c.1-.1 0-.5-.3-.5zM23 35.7c-.7.5-1.3 1-2.1 1.2-.8.2-1.5.3-2.3.3-.3 0-.3.5 0 .5.8-.1 1.7-.1 2.4-.3.9-.2 1.4-.7 2.2-1.2.3-.3 0-.7-.2-.5z"/><path d="M23.3 35.6c-1.1-.4-2.3-.4-3.4-1-.3-.1-.5.3-.2.4 1.1.6 2.4.6 3.5 1 .2.2.3-.3.1-.4zM65.6 45c-.8-1.1-1.9-2.1-3.2-2.7-.3-.1-.5-.2-.8-.1-.7.3-1.5 1.2-2.1 1.7-.2.2.1.5.3.3.4-.4.9-.8 1.4-1.1.6-.4.9-.5 1.6-.1 1 .6 1.8 1.3 2.5 2.2.1.2.5 0 .3-.2z"/><path d="M59.7 43.8c-.7-.4-.7-1.5-1.5-2-.6-.4-1.5-.6-2.2-.4-.3.1-.2.5.1.4.9-.3 2.1.3 2.4 1.1.2.5.4.9.9 1.2.3.2.5-.2.3-.3z"/><path d="M55.8 41.7c.1.8.4 1.8 0 2.6-.1.2.2.5.4.2.5-.9.2-1.8.1-2.8-.1-.3-.5-.3-.5 0z"/><path d="M56.2 41.6c-.3-.4-.5-.9-.9-1.2-.3-.3-.7-.4-1-.5-.3-.2-.6-.4-1-.5-.6-.1-1.3-.1-1.9-.1-.3 0-.3.5 0 .4.9 0 1.5 0 2.3.4.3.1.6.2.9.4.5.3.8.8 1.1 1.3.3.3.6.1.5-.2z"/><path d="M51.2 39.5c-.1 1.2-.3 1.7.8 2.3 1 .5 3.4 1.3 3.7 2.6.1.3.5.2.4-.1-.2-.9-1.2-1.4-2-1.8-.5-.3-1.1-.6-1.6-.8-.4-.2-.8-.4-1-.9-.1-.3.1-.8.1-1.1.1-.5-.3-.4-.4-.2z"/><path d="M49 40.3c1 1.1-.6 3-1.7 1.7-.6-.7-.7-1.5 0-2.2 1.1-1.1 2.7-.9 3.9-.1.2.2.5-.2.2-.4-1.1-.7-2.4-1-3.6-.4-1 .5-1.7 1.5-1.3 2.6.4 1 1.3 1.9 2.3 1.2 1-.6 1.2-1.9.5-2.7-.1-.3-.5 0-.3.3zM49.7 44.6c-.4-.2-.9-.1-1.1.4-.2.6.2 1.1.7 1.3.3.1.5-.3.2-.4-.1-.1-.2-.1-.3-.2-.3-.3-.2-.5.2-.7.3.1.5-.3.3-.4z"/><path d="M49.5 41.1c.7.8 1.4 1.2 2.3 1.6 1 .5 2.8 1 3.2 2 .1.3.5 0 .4-.2-.4-.9-1.4-1.2-2.3-1.6-1.2-.6-2.4-1.1-3.4-2.1-.1-.2-.4.1-.2.3z"/><path d="M52.3 42.5c-.5-.1-1 0-1.6 0-.5.1-1.5.4-1.9-.1-.2-.2-.5.1-.3.3.4.4.9.4 1.4.3.8-.1 1.6-.3 2.4-.2.3.2.3-.3 0-.3z"/><path d="M49.5 43.3c-.8 0-1.3-.4-1.8-.9-.2-.2-.5.1-.3.3.6.7 1.3 1.1 2.2 1.1.2-.1.2-.5-.1-.5zM59.6 63.3c.2.1.4.3.5.5.2.3 0 .8-.4.7-.3-.1-.4.3-.1.4.5.2 1-.2 1.1-.7.1-.6-.4-1-.8-1.3-.3-.1-.6.3-.3.4zM69.3 73.1c.2-1-1.1-1.5-1.6-.6-.1.2.2.5.4.2.3-.4.9-.2.8.3-.1.3.3.4.4.1zM29.1 54.5c.4.9 1.2 1.5 2.1 1.5.3 0 .3-.4 0-.5-.8 0-1.4-.5-1.7-1.2-.1-.2-.5-.1-.4.2zM34.4 61.2c-.5-.2-1.2-.3-1.6.2-.3.4-.2.9.2 1.1.3.1.5-.2.2-.4-.4-.3.1-.6.4-.6.2 0 .4 0 .7.1.2.1.3-.3.1-.4zM31.3 39.2c-.9.3-1.1 1.4-.3 2 .2.2.5-.2.2-.4-.5-.3-.4-1 .2-1.1.3-.1.2-.5-.1-.5zM48.7 41.3c-.3-.2-.5-.5-.4-.9.1-.3.5-.6.8-.3.2.2.5-.1.3-.3-.4-.4-1.1-.3-1.4.2-.4.6 0 1.3.5 1.7.2.2.4-.2.2-.4zM35.3 52.2c-.4.4-.6.9-.5 1.5 0 .3.5.2.4-.1-.1-.4.1-.8.4-1 .3-.3-.1-.6-.3-.4zM56.2 47.9c.2-.1.5-.2.7-.2.3 0 .8.1.7.6 0 .3.4.4.4.1.1-.5-.1-.8-.6-1.1s-1.1 0-1.6.2c-.1.2.1.6.4.4zM26.2 39.6c-1 0-2 .6-2.3 1.6-.1.3.3.4.4.1.3-.8 1.1-1.3 1.9-1.3.3 0 .3-.4 0-.4zM46.8 47.1c-.9-.2-1.8.2-2.1 1-.4 1 .1 1.9.9 2.5.2.2.5-.2.2-.4-.6-.4-1-1.1-.8-1.8s.9-1 1.6-.9c.4.1.5-.3.2-.4zM25.9 43.3c0 .5-.3.9-.8.8-.3 0-.3.4 0 .5.7 0 1.3-.6 1.2-1.3 0-.3-.4-.3-.4 0z"/><g><path d="M38.4 21.1l-1.8 1.8c-1.9 1.9-2.8 3.5-2.8 4.6 0 .5.2 1 .7 1.3.5.4 1.1.6 2 .6 1.2 0 2.4-.3 3.8-.9 1.3-.6 2.3-1.2 3-1.9.7-.7 1-1.4 1-2 0-.4-.2-.7-.5-1-.3-.2-.7-.4-1.2-.4-1.1 0-2.4.4-3.9 1.3s-2.7 2-3.5 3.3h-.1c.8-1.3 2-2.4 3.5-3.3s2.9-1.4 4-1.4c.5 0 1 .1 1.3.4s.5.6.5 1c0 1.2-.9 2.4-2.8 3.4-1.8 1-3.5 1.6-5 1.6-1.1 0-1.9-.2-2.4-.7s-.8-1.1-.8-1.9c0-.5.1-1 .3-1.5s.6-1.3 1.3-2.2c.7-.9 1.3-1.6 1.9-2.1h-.8c-1.5 0-2.6-.3-3.4-1-.8-.7-1.2-1.4-1.2-2.3 0-1.6.8-2.9 2.5-4 1.6-1.1 3.8-1.6 6.6-1.6.5 0 1 0 1.6.1v.1h-1.4c-3 0-5.2.7-6.7 2s-2.3 2.6-2.3 3.8c0 .7.4 1.4 1.1 2 .7.6 1.8.9 3.3.9h.9c2-2.1 4.3-3.9 7.1-5.5 2.7-1.6 5-2.4 6.8-2.4.5 0 .8.1 1.1.3s.4.5.4.8c0 .7-.6 1.6-1.8 2.5s-3 1.8-5.3 2.7c-2.6.9-4.8 1.4-7 1.6zm.2-.1c2.2-.2 4.5-.7 6.8-1.6s4-1.8 5.1-2.7c1.1-1 1.6-1.7 1.6-2.4 0-.2-.1-.5-.4-.6-.3-.2-.6-.3-.9-.3-1.5 0-3.2.5-4.9 1.6s-3.5 2.5-5.3 4.1l-2 1.9zM51 24.6h1.1l-3.5 3.6c-.3.4-.5.6-.5.8 0 .1 0 .2.1.3.1.1.2.1.3.1.2 0 .5-.1 1-.4.4-.3 1.3-1 2.5-2l.1.1c-1.3 1.1-2.2 1.8-2.6 2.1-.4.3-.8.4-1 .4s-.4-.1-.5-.2-.2-.3-.2-.5c0-.3.2-.8.5-1.3-1.7 1.4-2.8 2.1-3.4 2.1-.3 0-.5-.1-.6-.3-.1-.2-.2-.5-.2-.8 0-.9.7-1.8 2-2.6s2.4-1.2 3.3-1.2c.5 0 .7.2.7.6v.3l.9-1.1zm-1.1.6c0-.3-.2-.4-.6-.4-.7 0-1.7.6-3 1.8-1.3 1.2-2 2-2 2.5 0 .1 0 .2.1.3.1.1.2.1.4.1s.6-.2 1.2-.5c.5-.3 1.2-.8 2-1.5s1.3-1.2 1.5-1.5c.3-.2.4-.5.4-.8z" class="st1"/><path d="M52.1 27.1c.3-.5.9-.9 1.6-1.3.2-.4.4-.8.6-1 .2-.3.4-.4.5-.4s.1.1.1.2-.1.3-.4.7l2.2-1.4c.1-.1.4-.3.8-.7 1.6-1.6 2.9-2.9 3.8-3.6.9-.8 1.8-1.5 2.6-2.1s1.5-1 1.8-1.2c.4-.2.7-.3.9-.3.2 0 .3.1.5.2.1.1.2.2.2.4 0 .5-.4 1.2-1.1 2-.8.8-2 1.7-3.7 2.8-1.7 1-3.1 1.7-4.3 2.1l-3.8 4.2c.3.2.6.4 1 .4.5 0 1.1-.3 1.7-.8l.1.1c-.7.6-1.3.9-1.8.9-.4 0-.8-.1-1.1-.4L47 35.4h-1.2l3.7-3.9c1-1.1 2-2.3 2.9-3.5.9-1.3 1.3-1.9 1.3-2-.4.2-.6.4-.7.5-.1.1-.2.1-.2.2l-.7.4zm1.6 0c0-.1-.1-.2-.1-.2l-.1-.4c-.4.7-1 1.6-2 2.8h.1l2.1-2.2zm.1-1.2c-.1.2-.1.4-.1.6 0 .1 0 .3.1.5l2.6-2.7-2.6 1.6zm13.3-9.5c0-.1 0-.2-.1-.3s-.2-.1-.4-.1-.6.1-1 .3c-.5.2-1 .6-1.7 1.2s-1.8 1.6-3.2 3.1c-1.5 1.5-2.2 2.3-2.2 2.4 0 0 .7-.3 2.1-1 1.4-.7 2.6-1.4 3.7-2.3 1.1-.8 1.8-1.5 2.3-2.1.2-.4.5-.9.5-1.2z" class="st1"/><path d="M62 27.1c-.9 1-1.8 1.6-2.6 2s-1.5.6-1.9.6c-.7 0-1-.3-1-1 0-.9.6-1.8 1.9-2.6 1.3-.8 2.3-1.2 3-1.2.1 0 .2 0 .3.1s.1.2.1.3c0 .4-.4.8-1.2 1.3-.8.4-1.7.7-2.7.8-.8.8-1.3 1.4-1.3 1.7 0 .1.1.3.2.4.1.1.3.2.5.2.4 0 1-.2 1.8-.6.9-.5 1.8-1.1 2.9-2zm-3.9 0c.2 0 .7-.1 1.3-.3.6-.2 1.1-.5 1.6-.8.4-.3.6-.6.6-.8 0-.2-.1-.2-.3-.2s-.5.1-.7.2c-.3.1-.7.4-1.2.8-.5.3-.9.7-1.3 1.1zm3.3-3.3s.3-.1.6-.3c.2-.1.3-.2.4-.3.1-.1.3-.2.4-.3.2-.1.3-.3.4-.4l.3-.3c.1-.1.1-.1.2-.1h.2c.2 0 .4.1.4.4v.2c0 .1 0 .1-.1.2 0 0-.1.1-.1.2-.1.1-.2.2-.3.2l-.6.3c-.2.1-.4.2-.5.2-.2.1-.4.1-.5.1-.4-.1-.6-.1-.8-.1zM88.7 27.1c-1.8 1.7-3.4 2.6-4.6 2.6-.4 0-.7-.1-.9-.3-.2-.2-.3-.4-.3-.7 0-.3.1-.6.3-.9l.6-.9c.2-.3.7-.7 1.4-1.4l.8-.7c.5-.4.7-.8.7-1.2 0-.3-.1-.6-.3-1h-.5c-.3 0-.6 0-.8-.1-.2-.1-.3-.2-.3-.4 0-.1 0-.2.1-.2.1-.1.2-.1.3-.1.5 0 .9.2 1.2.7 1.5-.2 2.8-.9 3.9-2.2 1.1-1.3 1.7-2.4 1.7-3.5 0-.9-.3-1.6-1-2.1-1.1.8-2.2 1.7-3.1 2.8-.9 1-2.2 2.6-3.7 4.7L83 23.9c-.5.7-1.2 1.5-2.2 2.3-1 .9-2.2 1.7-3.7 2.4s-3 1-4.4 1c-1.2 0-2.2-.2-3-.7-.7-.5-1.1-1-1.1-1.6 0-.2.1-.4.2-.6.2-.2.4-.3.6-.3s.5.1.6.2c.2.1.2.3.2.5s-.1.4-.2.5-.3.2-.5.2c-.1 0-.3-.1-.4-.2s-.2-.2-.2-.4c0-.1 0-.2-.1-.2s-.2.1-.2.2c0 .5.4 1 1.1 1.5s1.7.7 3 .7c1.7 0 3.2-.5 4.7-1.6s3.1-2.7 4.9-4.9l1.8-2.2c1.8-2.2 4-4.3 6.8-6.3-.7-.6-1.6-1.1-2.9-1.5s-2.7-.6-4.3-.6c-3.4 0-6.3.9-8.7 2.7-2.4 1.8-3.7 3.6-3.7 5.3 0 .8.4 1.5 1.1 2 .7.6 1.6.8 2.6.8 1.1 0 2.4-.3 3.8-.9s2.5-1.3 3.3-2.1c.8-.8 1.2-1.7 1.2-2.5 0-.6-.2-1-.6-1.3-.4-.3-.9-.5-1.6-.5-1.4 0-2.8.4-4.1 1.3-1.4.8-2.4 2-3.3 3.4h-.1c.8-1.4 1.9-2.6 3.3-3.5s2.8-1.3 4.2-1.3c.8 0 1.4.2 1.7.6.4.4.5.8.5 1.4 0 .9-.4 1.8-1.2 2.7-.8.9-1.9 1.6-3.2 2.2-1.3.6-2.6.8-3.7.8s-2-.3-2.9-.9-1.3-1.3-1.3-2.2c0-1.2.6-2.5 1.8-3.8 1.2-1.3 2.7-2.4 4.6-3.2s3.9-1.2 6.2-1.2c3.2 0 5.6.7 7.3 2.1 1.4-.9 2.3-1.4 2.9-1.6v.1c-.7.3-1.6.8-2.7 1.6 1 .9 1.5 2 1.5 3.1s-.5 2.2-1.5 3.1-2.6 1.5-4.7 1.8c.3.4.4.8.4 1.3 0 .4-.1.8-.3 1.2-.2.5-.7 1-1.5 1.8-.8.7-1.3 1.2-1.4 1.5-.2.3-.3.5-.3.7 0 .4.3.6.9.6s1.3-.3 2.3-.8c.9-.5 1.7-1 2.2-1.5zm-2.5-4.7c-.3-.4-.6-.5-1-.5-.3 0-.4.1-.4.2s.1.2.3.3c.2.1.4.1.6.1.2-.1.3-.1.5-.1zM93.7 27.1c-.9 1-1.8 1.6-2.6 2-.8.4-1.5.6-1.9.6-.7 0-1-.3-1-1 0-.9.6-1.8 1.9-2.6 1.3-.8 2.3-1.2 3-1.2.1 0 .2 0 .3.1.1.1.1.2.1.3 0 .4-.4.8-1.2 1.3-.8.4-1.7.7-2.7.8-.8.8-1.3 1.4-1.3 1.7 0 .1.1.3.2.4s.3.2.5.2c.4 0 1-.2 1.8-.6.9-.5 1.9-1.1 2.9-2zm-3.9 0c.2 0 .7-.1 1.3-.3.6-.2 1.1-.5 1.6-.8.4-.3.6-.6.6-.8 0-.2-.1-.2-.3-.2-.2 0-.5.1-.7.2-.3.1-.7.4-1.2.8-.4.3-.9.7-1.3 1.1zM100.5 24.6h1.1l-6 5.9c.7-.2 1.6-.6 2.6-1.2 1.1-.6 1.9-1.1 2.4-1.6l.9-.7.1.1c-1.2 1.1-2.4 1.9-3.5 2.5s-2 .9-2.6 1.1c-2 2-3.4 3.3-4.2 3.9-.9.6-1.7.9-2.4.9-.2 0-.4 0-.5-.1s-.2-.2-.2-.4c0-.6.7-1.3 2.1-2.2 1.4-.9 2.8-1.5 4.1-1.8l2.6-2.7c-1.2.9-2.2 1.4-2.8 1.4-.3 0-.5-.1-.7-.3-.2-.2-.3-.5-.3-.8 0-.6.3-1.2 1-1.8.6-.6 1.4-1.1 2.4-1.5s1.8-.6 2.4-.6c.2 0 .4.1.5.2s.2.2.2.4c0 .1 0 .3-.1.6l.9-1.3zm-6.4 6.5c-1.8.5-3.2 1.2-4.3 2-1.1.8-1.6 1.5-1.6 1.8 0 .2.2.4.6.4s.9-.2 1.4-.5 1.4-1.1 2.7-2.5l1.2-1.2zm-.6-2.1c0 .4.2.5.5.5.7 0 1.8-.6 3.2-1.8 1.4-1.2 2.2-2.1 2.2-2.6 0-.3-.2-.5-.6-.5s-.8.2-1.4.5c-.5.3-1.2.8-1.9 1.5-.7.6-1.3 1.1-1.5 1.5-.3.4-.5.7-.5.9z" class="st1"/><path d="M107.7 24.6h1.1l-3.5 3.6c-.3.4-.5.6-.5.8 0 .1 0 .2.1.3.1.1.2.1.3.1.2 0 .5-.1 1-.4.4-.3 1.3-1 2.5-2l.1.1c-1.3 1.1-2.2 1.8-2.6 2.1-.4.3-.8.4-1 .4s-.4-.1-.5-.2-.2-.3-.2-.5c0-.3.2-.8.5-1.3-1.7 1.4-2.8 2.1-3.4 2.1-.3 0-.5-.1-.6-.3-.1-.2-.2-.5-.2-.8 0-.9.7-1.8 2-2.6s2.4-1.2 3.3-1.2c.5 0 .7.2.7.6v.3l.9-1.1zm-1 .6c0-.3-.2-.4-.6-.4-.7 0-1.7.6-3 1.8-1.3 1.2-2 2-2 2.5 0 .1 0 .2.1.3.1.1.2.1.4.1s.6-.2 1.2-.5c.5-.3 1.2-.8 2-1.5s1.3-1.2 1.5-1.5c.3-.2.4-.5.4-.8zM108.9 27.1c1.7-1.6 2.8-2.5 3.1-2.7.3-.2.6-.4.7-.5.2-.1.3-.2.5-.3 1.4-1.5 2.7-2.8 4-4s2.4-2.1 3.3-2.7 1.7-1 2.3-1c.2 0 .4.1.6.2s.2.3.2.5c0 .5-.5 1.2-1.6 2.1s-2.4 1.9-3.9 2.8c-1.6.9-2.7 1.5-3.6 1.8-.2.2-.5.6-1 1.2l-1 1.1-1.2 1.5c-.9 1-1.3 1.7-1.4 2v.1c0 .3.2.4.5.4.7 0 2-.8 3.8-2.5l.1.1-.8.6c-1.5 1.3-2.6 1.9-3.3 1.9-.2 0-.4-.1-.5-.2-.2-.2-.2-.4-.2-.6 0-.6.5-1.5 1.4-2.6.9-1.2 1.6-1.8 1.8-2v-.1c-.3.1-.7.4-1.3 1l-2.5 1.9zm5.7-4c.7-.2 1.8-.8 3.4-1.7 1.6-.9 2.9-1.9 3.9-2.8s1.5-1.6 1.5-2c0-.1-.1-.2-.2-.4-.1-.1-.3-.2-.5-.2-.5 0-1.1.2-1.8.7-.7.5-1.8 1.5-3.2 3-1.5 1.6-2.5 2.7-3.1 3.4z" class="st1"/></g><path fill="#606060" d="M0 85.8h150v14.5H0z" opacity=".45"/><g><path fill="none" stroke="#000" stroke-miterlimit="10" d="M146.2 85.1c-.5.8-.5 1.5-.1 2.2.3.5.4 1 .6 1.5.3.9.2 1.4-.7 1.8-.7.4-1.4.7-2 1.1-.3.2-.5.5-.6.8-.2.8-.3 1.5-.4 2.3-.2.9-.6 1.3-1.5 1.2-.8-.1-1.5-.3-2.3-.3-.3 0-.7.1-.9.3-.6.5-1.1 1.1-1.7 1.6-.6.6-1.2.6-1.9 0-.6-.5-1.1-1.1-1.7-1.6-.2-.2-.6-.3-.9-.3l-2.1.3c-1 .1-1.6-.3-1.8-1.3-.1-.5-.2-1.1-.2-1.6 0-.8-.4-1.3-1.1-1.6-.4-.2-.8-.4-1.3-.6-1.1-.6-1.3-1.2-.8-2.3.3-.6.6-1.2.9-1.9.1-.3.1-.6 0-.9-.3-.7-.7-1.3-1-2-.5-.9-.3-1.6.7-2.1l1.8-.9c.5-.2.8-.6.8-1.2.1-.7.2-1.4.3-2.2.2-.8.6-1.1 1.5-1.1.7.1 1.5.2 2.3.4.5.1.8 0 1.1-.3.6-.6 1.2-1.1 1.8-1.7.6-.5 1.2-.5 1.8 0 .6.6 1.1 1.2 1.7 1.7.2.2.6.3.9.3l2.1-.3c1.1-.2 1.6.3 1.8 1.3 0 .2.1.4.1.6-.1 1.6.7 2.5 2.1 2.9.2.1.5.2.7.4.7.4 1 1.1.6 1.9-.1.6-.3 1.2-.6 1.6z"/><path d="M137.9 81.1c0-.4.1-.8.3-1 .2-.3.5-.4.9-.4s.7.1.9.4.4.6.4 1.1-.1.9-.4 1.1-.5.4-.9.4c-.3 0-.6-.1-.9-.4s-.3-.7-.3-1.2zm1.2-1c-.2 0-.3.1-.4.2-.1.2-.2.4-.2.8s.1.6.2.8.3.2.4.2c.2 0 .3-.1.4-.2.1-.2.2-.4.2-.8s-.1-.6-.2-.8-.2-.2-.4-.2zm0 5.5l3.1-6h.6l-3.1 6h-.6zm2.5-1.5c0-.4.1-.8.3-1 .2-.3.5-.4.9-.4s.7.1.9.4.4.6.4 1.1-.1.9-.4 1.1-.5.4-.9.4c-.3 0-.6-.1-.9-.4s-.3-.7-.3-1.2zm1.2-1c-.2 0-.3.1-.4.2-.1.2-.2.4-.2.8s.1.6.2.8.3.2.4.2c.2 0 .3-.1.4-.2.1-.2.2-.4.2-.8s-.1-.6-.2-.8-.2-.2-.4-.2zM128.9 90.6c0-1 .3-1.7.8-2.2s1.2-.8 2-.8c.5 0 1 .1 1.4.4s.7.6 1 1.1.3 1 .3 1.5c0 .6-.1 1.1-.4 1.6s-.6.8-1 1-.9.4-1.4.4-1-.1-1.4-.4-.7-.6-1-1.1-.3-1-.3-1.5zm.7.1c0 .7.2 1.2.6 1.6s.8.6 1.4.6c.6 0 1-.2 1.4-.6s.6-1 .6-1.7c0-.5-.1-.9-.2-1.2-.2-.3-.4-.6-.7-.8-.3-.2-.6-.3-1-.3-.5 0-1 .2-1.4.6s-.7.9-.7 1.8zM134.6 93.3v-5.7h3.9v.7h-3.1v1.8h2.7v.7h-2.7v2.6l-.8-.1zM138.8 93.3v-5.7h3.9v.7h-3.1v1.8h2.7v.7h-2.7v2.6l-.8-.1z" class="st4"/><path d="M131.2 84.2h-.7v-4.5c-.2.2-.4.3-.7.5s-.5.3-.7.4v-.7c.4-.2.7-.4 1-.7.3-.3.5-.5.6-.8h.5v5.8zM133 81.3c0-.7.1-1.2.2-1.6.1-.4.3-.7.6-1 .3-.2.6-.3 1-.3.3 0 .6.1.8.2s.4.3.6.5c.2.2.3.5.4.9s.1.8.1 1.4c0 .7-.1 1.2-.2 1.6-.1.4-.3.7-.6 1-.3.2-.6.3-1 .3-.6 0-1-.2-1.3-.6-.4-.5-.6-1.3-.6-2.4zm.8 0c0 .9.1 1.6.3 1.9s.5.5.8.5.6-.2.8-.5.3-.9.3-1.9c0-.9-.1-1.6-.3-1.9s-.5-.5-.8-.5-.6.1-.8.4c-.2.5-.3 1.1-.3 2z"/></g><g><path d="M27.4 95v-5.7h.8v2.4h3v-2.4h.8V95h-.8v-2.7h-3V95h-.8zM32.5 95l2.2-5.7h.8l2.3 5.7H37l-.7-1.7H34l-.7 1.7h-.8zm1.7-2.4h1.9l-.6-1.6c-.2-.5-.3-.9-.4-1.2-.1.4-.2.7-.3 1.1l-.6 1.7zM38.5 95v-5.7h.8l3 4.5v-4.5h.7V95h-.8l-3-4.5V95h-.7zM47 92.7V92h2.4v2.1c-.4.3-.8.5-1.2.7-.4.2-.8.2-1.2.2-.6 0-1.1-.1-1.5-.4-.5-.2-.8-.6-1-1-.2-.5-.4-1-.4-1.5 0-.6.1-1.1.3-1.6.2-.5.6-.8 1-1.1s.9-.4 1.5-.4c.4 0 .8.1 1.1.2.3.1.6.3.8.6.2.2.3.6.4.9l-.6.3c-.1-.3-.2-.5-.3-.7-.1-.2-.3-.3-.5-.4-.2-.1-.5-.2-.8-.2-.3 0-.6.1-.9.2s-.5.2-.6.4-.3.4-.4.6c-.1.4-.2.7-.2 1.2s.1.9.3 1.3.4.6.8.8c.3.2.7.3 1.1.3.3 0 .6-.1 1-.2.3-.1.5-.3.7-.4v-1.1H47zM50.3 92.2c0-1 .3-1.7.8-2.2.5-.5 1.2-.8 2-.8.5 0 1 .1 1.4.4.4.3.7.6 1 1.1.2.5.3 1 .3 1.5 0 .6-.1 1.1-.4 1.6-.2.5-.6.8-1 1-.4.2-.9.3-1.4.3-.5 0-1-.1-1.4-.4-.4-.3-.7-.6-1-1.1-.2-.4-.3-.9-.3-1.4zm.7 0c0 .7.2 1.2.6 1.6.4.4.8.6 1.4.6.6 0 1-.2 1.4-.6.4-.4.6-1 .6-1.7 0-.5-.1-.9-.2-1.2s-.4-.6-.7-.8-.6-.3-1-.3c-.5 0-1 .2-1.4.6-.5.3-.7.9-.7 1.8zM60.5 89.3h.8v3.3c0 .6-.1 1-.2 1.4-.1.3-.4.6-.7.8-.4.2-.9.3-1.4.3-.5 0-1-.1-1.3-.3-.3-.2-.6-.5-.7-.8-.1-.3-.2-.8-.2-1.4v-3.3h.8v3.3c0 .5 0 .9.1 1.1.1.2.3.4.5.5.2.1.5.2.8.2.6 0 1-.1 1.2-.4.2-.3.4-.7.4-1.5v-3.2zM64 95v-5.1h-1.9v-.7h4.5v.7h-1.9V95H64zM66.6 95v-.8h.8v.8c0 .3-.1.5-.2.7-.1.2-.3.3-.5.4l-.2-.3c.1-.1.3-.2.3-.3.1-.1.1-.3.1-.5h-.3zM70.9 95v-5.7H73c.4 0 .8.1 1.1.2.3.1.5.3.6.5.1.2.2.5.2.8 0 .2-.1.5-.2.7-.1.2-.3.4-.6.5.3.1.6.3.8.5.2.2.3.5.3.9 0 .3-.1.5-.2.7s-.3.4-.4.5-.4.2-.6.3c-.2.1-.5.1-.9.1h-2.2zm.8-3.3h1.2c.3 0 .6 0 .7-.1.2-.1.3-.2.4-.3s.1-.3.1-.5 0-.4-.1-.5-.2-.2-.4-.3c-.2-.1-.5-.1-.9-.1h-1.1v1.8zm0 2.6h1.9c.2 0 .3-.1.4-.2l.3-.3c.1-.1.1-.3.1-.5s-.1-.4-.2-.6c-.1-.2-.3-.3-.5-.3-.2-.1-.5-.1-.8-.1h-1.3v2zM76.4 95v-5.7h.8V95h-.8zM78.2 93.1l.7-.1c0 .3.1.5.2.7s.3.3.6.4.6.2.9.2c.3 0 .5 0 .8-.1s.4-.2.5-.4c.1-.1.2-.3.2-.5s-.1-.3-.2-.5c-.1-.1-.3-.2-.5-.3-.2-.1-.5-.2-1-.3-.5-.1-.9-.2-1.1-.4-.3-.1-.5-.3-.6-.5-.1-.2-.2-.4-.2-.7 0-.3.1-.6.2-.8.2-.3.4-.4.7-.6.3-.1.7-.2 1.1-.2.4 0 .8.1 1.1.2s.6.3.7.6.3.6.3.9l-.7.1c0-.4-.2-.6-.4-.8-.2-.2-.6-.3-1-.3-.5 0-.8.1-1 .3s-.3.4-.3.6c0 .2.1.4.2.5.1.1.5.3 1.1.4.6.1 1 .3 1.3.4.3.2.6.3.7.6.2.2.2.5.2.8 0 .3-.1.6-.3.9s-.4.5-.8.6c-.3.2-.7.2-1.1.2-.5 0-1-.1-1.3-.2-.4-.2-.6-.4-.8-.7 0-.2-.1-.6-.2-1zM85.3 95v-5.1h-1.9v-.7h4.5v.7H86V95h-.7zM92.5 89.3h.8v3.3c0 .6-.1 1-.2 1.4-.1.3-.4.6-.7.8-.4.2-.8.3-1.4.3-.5 0-1-.1-1.3-.3-.3-.2-.6-.5-.7-.8-.1-.3-.2-.8-.2-1.4v-3.3h.8v3.3c0 .5 0 .9.1 1.1.1.2.3.4.5.5.2.1.5.2.8.2.6 0 1-.1 1.2-.4.2-.3.4-.7.4-1.5v-3.2zM94.5 95v-5.7h2.2c.4 0 .7 0 .9.1.3 0 .5.1.7.3.2.1.3.3.5.6.1.2.2.5.2.8 0 .5-.2.9-.5 1.2-.3.3-.9.5-1.7.5h-1.5V95h-.8zm.8-3h1.5c.5 0 .8-.1 1-.3.2-.2.3-.4.3-.8 0-.2-.1-.4-.2-.6-.1-.2-.3-.3-.5-.3-.1 0-.4-.1-.7-.1h-1.5V92zM103.6 89.3h.8v3.3c0 .6-.1 1-.2 1.4-.1.3-.4.6-.7.8-.3.2-.8.3-1.3.3s-1-.1-1.3-.3c-.3-.2-.6-.5-.7-.8-.1-.3-.2-.8-.2-1.4v-3.3h.8v3.3c0 .5 0 .9.1 1.1.1.2.3.4.5.5.2.1.5.2.8.2.6 0 1-.1 1.2-.4.2-.3.4-.7.4-1.5v-3.2zM105.6 95v-5.7h2.5c.5 0 .9.1 1.2.2.3.1.5.3.6.5.2.3.2.5.2.9s-.1.7-.4 1c-.3.3-.7.5-1.2.5.2.1.4.2.5.3.2.2.4.5.6.8l1 1.6h-1l-.8-1.2c-.2-.3-.4-.6-.5-.8-.1-.2-.3-.3-.4-.4-.1-.1-.2-.1-.3-.2h-1.3V95h-.7zm.8-3.2h1.6c.3 0 .6 0 .8-.1.2-.1.3-.2.4-.3.1-.2.2-.3.2-.5 0-.3-.1-.5-.3-.7-.2-.2-.5-.3-.9-.3h-1.8v1.9z"/></g></svg>