<?xml version="1.0" encoding="utf-8"?>
<!-- Generator: Adobe Illustrator 21.0.0, SVG Export Plug-In . SVG Version: 6.00 Build 0)  -->
<svg version="1.1" id="Layer_1" xmlns="http://www.w3.org/2000/svg" xmlns:xlink="http://www.w3.org/1999/xlink" x="0px" y="0px"
	 viewBox="0 0 150 100" style="enable-background:new 0 0 150 100;" xml:space="preserve">
<style type="text/css">
	.st0{fill:#FFFFFF;}
	.st1{fill:#1A1C18;}
	.st2{fill:#6D170A;}
	.st3{fill:#F0B166;}
	.st4{fill:url(#SVGID_1_);stroke:url(#SVGID_2_);stroke-width:0.25;stroke-miterlimit:10;}
	.st5{fill:none;stroke:url(#SVGID_3_);stroke-width:0.25;stroke-miterlimit:10;}
	.st6{fill:url(#SVGID_4_);stroke:url(#SVGID_5_);stroke-width:0.25;stroke-miterlimit:10;}
	.st7{fill:none;}
	.st8{font-family:'TwCenMT-Condensed';}
	.st9{font-size:6.9529px;}
	.st10{fill:url(#SVGID_6_);}
	.st11{fill:#606060;}
	.st12{fill:none;stroke:#FCFAFB;stroke-miterlimit:10;}
	.st13{fill:#FCFAFB;}
	.st14{enable-background:new    ;}
</style>
<rect y="-0.5" width="150.3" height="100.8"/>
<g>
	<path class="st0" d="M39.5,25.6c0.3,5.3-3.9,10-9.2,10.4c-5.5,0.4-10.3-3.8-10.7-9.2c-0.4-5.8,3.8-10.5,9.7-10.7
		C34.8,15.8,39.3,20.3,39.5,25.6z M29.4,17.8c-4.6,0-8.4,3.7-8.5,8.2c0,4.6,3.7,8.3,8.4,8.3c4.6,0,8.4-3.6,8.5-8.1
		C38,21.6,34.2,17.9,29.4,17.8z"/>
	<path class="st0" d="M40.7,25.8c0-5.5,4.5-10,10.1-10c5.5,0,9.9,4.5,10,9.9c0,5.5-4.5,10.1-10,10.1C45.2,35.8,40.7,31.3,40.7,25.8z
		"/>
	<path class="st0" d="M103.1,27.8c-1.6,2.7-3,5.2-4.6,8c-1.5-2.7-3-5.2-4.6-8c0.9,0,1.7,0,2.5,0c0.6,0,0.7-0.2,0.7-0.7
		c0-1.6-0.1-3.1,0-4.7c0.1-2.1,0.9-4,2.5-5.4c2.9-2.6,9.2-2.4,11,3.2c0.3,1,0.5,2.1,0.5,3.1c0.1,3.8,0,7.6,0,11.4c0,0.3,0,0.5,0,0.8
		c-1,0-1.9,0-2.8,0c0-0.3,0-0.5,0-0.8c0-3.8,0-7.6,0-11.4c0-0.9-0.2-1.9-0.5-2.7c-0.7-1.7-2-2.4-4-2.3c-1.7,0.1-2.9,1-3.4,2.7
		c-0.2,0.8-0.4,1.7-0.4,2.6c-0.1,1.1,0.1,2.2,0,3.3c-0.1,0.8,0.3,1,1,0.9C101.5,27.7,102.2,27.8,103.1,27.8z"/>
	<path class="st0" d="M8.5,28.2c0,0.3,0,0.5,0,0.8c0,2,0,3.9,0,5.9c0,0.5-0.1,0.7-0.6,0.7c-2.2,0.1-2.2,0.1-2.2-2.1
		c0-5.8,0-11.5,0-17.3c0-0.7,0.2-1,0.9-0.9c2.1,0.1,4.2,0,6.3,0.2c3,0.2,5.2,2.1,5.7,4.8c0.6,3.1-0.8,6-3.6,7.2
		c-1.2,0.5-2.6,0.6-3.9,0.8C10.2,28.3,9.4,28.2,8.5,28.2z M8.5,25.8c1.5-0.1,2.9-0.1,4.2-0.3c1.6-0.2,2.7-1.6,2.9-3.1
		c0.2-2-0.4-3.5-1.8-4.1c-1.7-0.8-3.5-0.5-5.3-0.5c0,0.3,0,0.5,0,0.7C8.5,20.8,8.5,23.2,8.5,25.8z"/>
	<path class="st0" d="M116.3,35.7c-1,0-1.9,0-2.8,0c0-0.3,0-0.5,0-0.7c0-6.3,0-12.6,0-18.9c0-0.6,0.1-0.8,0.8-0.8
		c3.6,0,7.2,0.1,10.8,0c0.6,0,0.8,0.2,0.8,0.8c0,1.8,0,1.8-1.8,1.8c-2.4,0-4.7,0-7.1,0c-0.5,0-0.6,0.1-0.6,0.6c0,1.4,0,2.9,0,4.3
		c0,0.6,0.1,0.8,0.7,0.8c2.5,0,5,0,7.5,0c0.6,0,0.8,0.2,0.8,0.8c0,1.8,0,1.8-1.8,1.8c-2.2,0-4.4,0-6.6,0c-0.6,0-0.7,0.1-0.7,0.7
		c0,2.7,0,5.3,0,8C116.3,35,116.3,35.3,116.3,35.7z"/>
	<path class="st0" d="M93.5,20.2c-0.4-0.3-0.8-0.7-1.3-1c-1.7-1.2-3.5-1.9-5.6-1.5c-2.2,0.4-3.7,1.7-4.4,3.8
		c-0.9,2.4-0.9,4.9-0.2,7.4c1.1,3.7,4.3,5.2,7.9,4c1-0.3,1.9-1,2.8-1.6c0.3-0.2,0.5-0.4,0.9-0.7c0,1.1,0,2.1,0,3.1
		c0,0.1-0.2,0.3-0.3,0.3c-2.6,1.4-5.3,2-8.2,1.3c-3.1-0.8-5-2.8-5.8-5.8c-0.9-3.6-0.9-7.1,1.2-10.3c1.9-3,4.9-4,8.3-3.6
		c1.5,0.2,3,0.8,4.4,1.4c0.2,0.1,0.5,0.5,0.5,0.8c0.1,0.8,0,1.6,0,2.4C93.7,20.1,93.6,20.2,93.5,20.2z"/>
	<path class="st0" d="M46,65.1c-0.7,0-1.4,0-2.1,0c-0.4-2.2-0.8-4.5-1.2-7c-0.2,0.4-0.3,0.6-0.3,0.8c-0.6,1.8-1.3,3.6-1.8,5.5
		c-0.3,0.9-0.9,0.7-1.5,0.7c-0.6,0.1-0.9-0.2-1-0.8c-0.6-2-1.3-4-2.2-6c-0.4,2.2-0.8,4.5-1.2,6.7c-0.7,0-1.4,0-2.1,0
		c0.7-3.8,1.3-7.6,2-11.4c0.5,0,1,0,1.5,0s0.7,0.2,0.8,0.6c0.7,2.2,1.5,4.4,2.2,6.6c0,0.1,0.1,0.3,0.2,0.6c0.2-0.5,0.3-0.8,0.4-1.2
		c0.7-2,1.4-4,2-6c0.2-0.5,0.4-0.6,0.9-0.6c1.4,0,1.4,0,1.7,1.4c0.5,3.1,1,6.1,1.6,9.2C45.9,64.5,45.9,64.7,46,65.1z"/>
	<path class="st0" d="M73.9,33.6c0,0.8,0,1.6,0,2.3c-3.9,0-7.8,0-11.7,0c0-6.8,0-13.6,0-20.4c0.8,0,1.6,0,2.4,0
		c0.1,0,0.4,0.4,0.4,0.6c0,1.7,0,3.4,0,5.2c0,3.8,0,7.7,0,11.5c0,0.6,0.1,0.8,0.8,0.8c2.4,0,4.9,0,7.3,0
		C73.2,33.6,73.5,33.6,73.9,33.6z"/>
	<path class="st0" d="M90.8,53.6c1.8,0.1,3.5,0.1,5.2,0.4c1.5,0.2,2.6,1.3,3.2,2.7c0.8,1.8,0.9,3.8,0,5.6c-0.7,1.6-2,2.6-3.8,2.8
		c-1.5,0.1-3.1,0-4.7,0C90.8,61.3,90.8,57.5,90.8,53.6z M93,55.8c0,2.4,0,4.8,0,7.2c3.1,0.3,4.5-0.7,4.6-3.3
		C97.6,56.8,96.2,55.6,93,55.8z"/>
	<path class="st0" d="M63.8,53.7c0.7,0,1.4,0,2.1,0c0,1.4,0,2.8,0,4.2c1.3,0,2.5,0,3.8,0c0-1.4,0-2.7,0-4.2c0.8,0,1.4,0,2.2,0
		c0,3.7,0,7.5,0,11.3c-0.7,0-1.4,0-2.1,0c0-1.6,0-3.3,0-5c-1.3,0-2.5,0-3.8,0c0,1.6,0,3.3,0,5c-0.8,0-1.4,0-2.2,0
		C63.8,61.3,63.8,57.5,63.8,53.7z"/>
	<path class="st0" d="M135.2,60.3c0,1.6,0,3.1,0,4.8c-0.7,0-1.4,0-2.2,0c0-3.8,0-7.5,0-11.3c1.4,0,2.8-0.1,4.2,0s2.3,1.1,2.5,2.5
		c0.2,1.5-0.3,2.6-1.6,3.3c-0.2,0.1-0.3,0.2-0.5,0.3c0.9,1.7,1.8,3.3,2.7,5.1c-0.8,0-1.5,0-2.1,0c-0.2,0-0.5-0.3-0.6-0.5
		C136.8,63.1,136.1,61.7,135.2,60.3C135.3,60.3,135.3,60.3,135.2,60.3z M135.2,58.1c0.8,0,1.7,0.2,2.2-0.6c0.2-0.3,0.2-0.9,0-1.2
		c-0.5-0.8-1.4-0.5-2.2-0.5C135.2,56.5,135.2,57.3,135.2,58.1z"/>
	<path class="st0" d="M27.7,65c-0.1,0-0.1,0.1-0.2,0.1c-2,0.5-2.6-0.7-2.9-2.4c-1.5,0-2.9,0-4.3,0c-0.2,0-0.4,0.2-0.5,0.4
		c-0.3,0.6-0.5,1.3-0.8,1.9c-0.7,0-1.5,0-2.3,0c0.4-1.1,0.8-2.1,1.2-3.1c1-2.5,2-5.1,2.9-7.6c0.2-0.5,0.4-0.7,1-0.7
		c1.6,0,1.6,0,2.1,1.4c1.2,3.1,2.4,6.2,3.6,9.3C27.6,64.6,27.6,64.8,27.7,65z M20.8,60.6c1,0,2,0,3,0c-0.5-1.3-1-2.4-1.5-3.8
		C21.7,58.2,21.3,59.3,20.8,60.6z"/>
	<path class="st0" d="M118.7,53.7c0.7,0,1.4,0,2.1,0c0,0.3,0,0.6,0,0.9c0,2.4,0,4.7,0,7.1c0,1.1,0.6,1.7,1.5,1.7
		c1,0,1.7-0.6,1.7-1.7c0-2.2,0-4.5,0-6.7c0-0.4,0-0.8,0-1.2c0.8,0,1.5,0,2.2,0c0,0.1,0.1,0.2,0.1,0.3c0,2.7,0,5.4-0.1,8.1
		c-0.1,1.9-1.6,3.3-3.6,3.3c-2.3,0-3.9-1.2-4-3.2C118.6,59.4,118.7,56.6,118.7,53.7z"/>
	<path class="st0" d="M84.8,63c0,0.7,0,1.4,0,2.1c-1,0-2.1,0-3.1,0s-2,0-3.1,0c0-3.8,0-7.6,0-11.4c2,0,4.1,0,6.2,0c0,0.6,0,1.3,0,2
		c-1.3,0-2.6,0-4,0c0,0.8,0,1.5,0,2.3c1.3,0,2.6,0,4,0c0,0.7,0,1.3,0,2c-1.3,0-2.6,0-4,0c0,1,0,2,0,3C82.1,63,83.4,63,84.8,63z"/>
	<path class="st0" d="M108,60.3c0,1.6,0,3.2,0,4.8c-0.7,0-1.4,0-2.2,0c0-3.8,0-7.5,0-11.3c1.6,0,3.3-0.3,4.9,0.3
		c1.3,0.4,1.9,1.7,1.9,3.3c-0.1,1.4-1,2.4-2.3,2.8C109.6,60.2,108.8,60.2,108,60.3z M108,55.8c0,0.4,0,0.8,0,1.2s0,0.8,0,1.1
		c1.9,0.1,2.4-0.2,2.4-1.2C110.5,56,109.7,55.6,108,55.8z"/>
	<path class="st0" d="M57.9,55c-0.7,0.6-1.2,1.1-1.7,1.5c-0.5-0.3-0.9-0.7-1.3-0.9c-0.5-0.3-0.9-0.2-1.3,0.2
		c-0.4,0.5-0.1,0.9,0.3,1.2c0.9,0.8,1.7,1.5,2.6,2.3c0.8,0.8,1.5,1.7,1.4,2.9c0,1.4-0.8,2.5-2,3c-1.5,0.6-3.3,0.2-4.2-0.9
		c-0.3-0.4-0.6-0.9-1-1.3c0.7-0.4,1.2-0.8,1.8-1.1c0.4,0.5,0.8,0.9,1.2,1.2c0.6,0.5,1.4,0.4,1.8-0.2c0.5-0.6,0.2-1.2-0.2-1.6
		c-0.6-0.6-1.2-1-1.8-1.6c-0.5-0.4-1-0.9-1.4-1.4c-1-1.2-1.1-2.5-0.4-3.6c0.8-1.1,2.3-1.7,3.6-1.2C56.2,53.8,56.9,54.4,57.9,55z"/>
	<path class="st0" d="M139.8,35.8c-0.3,0-0.6,0-0.8,0c-3.6,0-7.1,0-10.7,0c-0.6,0-0.8-0.2-0.8-0.8c0-2.1,0-2.1,2.1-2.1
		c3.2,0,6.3,0,9.5,0c0.6,0,0.8,0.2,0.8,0.8C139.8,34.3,139.8,35,139.8,35.8z"/>
	<path class="st0" d="M133.7,18.4c-1.8,0-3.6,0-5.5,0c-0.6,0-0.7-0.2-0.7-0.7c0-2.2,0-2.2,2.2-2.2c3.1,0,6.2,0,9.4,0
		c0.6,0,0.8,0.1,0.8,0.8c0,2.1,0,2.1-2.1,2.1C136.4,18.4,135,18.4,133.7,18.4z"/>
	<path class="st0" d="M139.8,23.8c0,0.9,0,1.7,0,2.5c0,0.2-0.3,0.4-0.5,0.4c-3.8,0-7.5,0-11.3,0c-0.5,0-0.6-0.2-0.6-0.6
		c0-0.6,0-1.2,0-1.7c0-0.2,0.3-0.5,0.5-0.5C131.9,23.8,135.8,23.8,139.8,23.8z"/>
	<path class="st0" d="M4.9,63.9c0.7-0.6,1.2-1.1,1.7-1.5C7,62.7,7.3,63,7.7,63.2c0.6,0.3,1,0.2,1.1-0.5c0.1-0.3,0.1-0.6,0.1-0.9
		c0-2.6,0-5.2,0-7.8c0-0.1,0-0.1,0-0.2c0.7,0,1.4,0,2.2,0c0,0.5,0,1,0,1.5c0,2.1,0,4.2,0,6.3c0,0.3,0,0.5,0,0.8
		c-0.1,1.2-0.3,2.4-1.6,2.9c-1.4,0.5-2.6,0.2-3.8-0.7C5.5,64.3,5.3,64.1,4.9,63.9z"/>
	<path class="st0" d="M143.3,19.8c-1.3,0-2.4-1-2.4-2.3s1-2.4,2.3-2.4s2.4,1,2.5,2.4C145.7,18.7,144.6,19.8,143.3,19.8z"/>
	<g>
		<path class="st0" d="M139.4,40c0-0.7,0-1.3,0-1.8c0.5,0.1,0.6,0.1,0.6,0.8C140,39.3,140.2,39.9,139.4,40z"/>
		<path class="st1" d="M7.9,40.2l-2,0.2c-0.5,0-1-0.4-1-1v-1.6c0-0.5,0.4-1,1-1h2c0.5,0,1,0.4,1,1v1.6C8.9,40,8.5,40.2,7.9,40.2z"/>
		<polygon class="st2" points="139.5,39.9 7,40.3 7,36.9 139.4,38.2 		"/>
		<path class="st3" d="M42,39.9c4.1-0.1,4.8-0.4,8.9-0.5s8.3-0.2,12.4-0.3c0-0.1,0-0.3,0-0.4c-6.6-0.3-16.5-1-23.1-1.3
			c0-0.1,3.2,0,3.2,0c0.4,0,0.8-0.1,1.2-0.1c15.2,0,30.4,0.3,45.5,0.3c15.2,0,30.4,0.5,45.6,0.5c0.8,0,1.3,0,1.2,0.7
			c0,0.6,0.1,1.2-0.9,1.2c-23,0-46.4,0.1-69.3,0.1c-7.7,0-15.3,0-23,0c-1.5,0-3.2,0.1-4.7,0.1"/>
	</g>
	<g>
		<path d="M46.8,20.1v0.1c0,1.5-0.2,3.1,0,4.7c0,0.4,0.2,0.6,0.3,0.9c0.1,0.4,0.1,1,0.1,1.5c0,1.4-0.4,2.8-0.7,4.2
			c0,0.2-0.1,0.4,0,0.7c0.1,0.5,0.3,1.1,0.9,1.2c0.6,0.1,1.1-0.1,1.4-0.7c0.5-0.9-0.1-2.3-0.2-3.2c-0.1-0.8-0.2-1.6-0.2-2.4
			c0-0.3-0.1-0.9,0-1.2s0.4-0.4,0.6-0.6c0.2-0.2,0.3-0.5,0.4-0.8c0.1-0.5,0.2-1,0.2-1.5c0-0.9-0.1-1.9-0.2-2.8
			c-0.1-0.7-0.4-2.3-1.4-2.3C47,18.2,46.8,19.3,46.8,20.1z"/>
		<path d="M51.4,17.9L51.3,23l1.3,1.2c-0.1,2.3-0.7,4.6-0.7,6.9c0,0.6,0,1,0,1.2c0,0.6,0.4,1.1,1,1.2c0.6,0.1,1.3-0.4,1.4-1.1
			c0.1-0.8-0.1-1.6-0.2-2.4c-0.1-0.9-0.3-1.8-0.4-2.7c-0.1-0.6-0.1-1.2-0.2-1.8c0-0.3-0.2-1.2,0.1-1.4c0.5-0.5,0.8-0.9,1.2-1.4
			L54.6,18h-0.3l-0.1,3.2h-0.6V18l-0.2-0.1l-0.1,3.4h-0.5L52.7,18h-0.3l-0.2,3.3h-0.3L51.8,18h-0.4C51.4,18,51.4,17.9,51.4,17.9z"/>
	</g>
	<g>
		<path class="st0" d="M42.7,43.8V46h-0.3l-0.1-0.5C42,45.8,41.6,46,41,46s-1-0.2-1.3-0.6c-0.3-0.4-0.5-0.9-0.5-1.5s0.2-1.2,0.5-1.6
			c0.3-0.4,0.8-0.6,1.3-0.6c0.8,0,1.3,0.4,1.5,1.2L42,43c-0.1-0.3-0.2-0.5-0.4-0.7c-0.2-0.1-0.4-0.2-0.7-0.2c-0.4,0-0.7,0.2-0.9,0.5
			s-0.3,0.8-0.3,1.3s0.1,1,0.3,1.3s0.5,0.5,0.9,0.5c0.3,0,0.5-0.1,0.7-0.3s0.3-0.5,0.3-0.8c0-0.1,0-0.1,0-0.2h-1V44h1.8
			C42.7,44,42.7,43.8,42.7,43.8z"/>
		<path class="st0" d="M46.1,45.9h-0.5c0-0.1,0-0.3-0.1-0.6c-0.2,0.4-0.6,0.7-1.1,0.7c-0.4,0-0.6-0.1-0.8-0.3s-0.3-0.4-0.3-0.7
			s0.1-0.6,0.4-0.8s0.7-0.3,1.4-0.3c0.1,0,0.2,0,0.4,0c0-0.2,0-0.4-0.1-0.5c0-0.1-0.1-0.2-0.2-0.3S44.9,43,44.7,43
			c-0.5,0-0.8,0.2-0.9,0.6l-0.4-0.1c0.1-0.6,0.6-0.9,1.4-0.9c0.4,0,0.7,0.1,0.9,0.3s0.3,0.5,0.3,1v1.3C46,45.5,46,45.7,46.1,45.9z
			 M45.5,44.3c-0.2,0-0.3,0-0.5,0c-0.4,0-0.7,0.1-0.9,0.2c-0.2,0.1-0.3,0.3-0.3,0.6c0,0.2,0.1,0.3,0.2,0.4s0.3,0.2,0.5,0.2
			c0.3,0,0.5-0.1,0.7-0.3s0.3-0.5,0.3-0.8C45.5,44.5,45.5,44.4,45.5,44.3z"/>
		<path class="st0" d="M51.2,45.9h-0.5V44c0-0.2,0-0.4,0-0.5s-0.1-0.2-0.2-0.3c-0.1-0.1-0.2-0.1-0.4-0.1s-0.4,0.1-0.5,0.3
			c-0.2,0.2-0.3,0.4-0.3,0.8V46h-0.5v-2.1c0-0.3-0.1-0.5-0.2-0.6c-0.1-0.1-0.3-0.2-0.4-0.2c-0.2,0-0.4,0.1-0.5,0.3
			c-0.2,0.2-0.2,0.4-0.2,0.7V46H47v-3.1h0.4v0.6c0.2-0.5,0.6-0.7,1-0.7c0.2,0,0.4,0.1,0.6,0.2c0.2,0.1,0.3,0.3,0.3,0.5
			c0.2-0.5,0.5-0.8,1-0.8c0.2,0,0.4,0.1,0.6,0.2c0.2,0.1,0.3,0.3,0.3,0.4c0,0.2,0.1,0.4,0.1,0.7L51.2,45.9L51.2,45.9z"/>
		<path class="st0" d="M54.2,45l0.5,0.1c-0.1,0.3-0.2,0.5-0.5,0.7c-0.2,0.2-0.5,0.3-0.8,0.3c-0.4,0-0.8-0.2-1-0.5
			c-0.3-0.3-0.4-0.7-0.4-1.2s0.1-0.9,0.4-1.2c0.3-0.3,0.6-0.5,1-0.5s0.7,0.1,1,0.4c0.2,0.3,0.4,0.7,0.4,1.3h-2.3
			c0,0.5,0.1,0.8,0.3,1s0.4,0.2,0.6,0.2C53.8,45.6,54,45.4,54.2,45z M54.2,44c0-0.2,0-0.3-0.1-0.5s-0.1-0.3-0.3-0.3
			c-0.1-0.1-0.3-0.1-0.5-0.1s-0.4,0.1-0.6,0.3s-0.3,0.4-0.3,0.7h1.8C54.2,44.1,54.2,44,54.2,44z"/>
		<path class="st0" d="M55,45.1l0.5-0.1c0.1,0.4,0.4,0.6,1,0.6c0.2,0,0.4,0,0.5-0.1s0.2-0.2,0.2-0.4s-0.2-0.4-0.5-0.5L56,44.5
			c-0.3,0-0.5-0.1-0.6-0.3s-0.2-0.3-0.2-0.6s0.1-0.5,0.3-0.7s0.5-0.3,0.8-0.3c0.7,0,1.1,0.3,1.3,0.8l-0.4,0.1
			c-0.1-0.3-0.4-0.5-0.8-0.5c-0.2,0-0.4,0-0.5,0.1s-0.2,0.2-0.2,0.3c0,0.2,0.2,0.4,0.5,0.4l0.6,0.1c0.6,0.1,1,0.4,1,0.9
			c0,0.3-0.1,0.5-0.4,0.7c-0.2,0.2-0.6,0.3-0.9,0.3C55.7,46,55.2,45.7,55,45.1z"/>
		<path class="st0" d="M63.5,45.5v0.4c-0.2,0-0.3,0-0.5,0c-0.1,0-0.2,0-0.3,0s-0.2-0.1-0.4-0.3C62,45.9,61.6,46,61.2,46
			c-0.4,0-0.8-0.1-1-0.4c-0.3-0.2-0.4-0.5-0.4-0.9c0-0.3,0.1-0.5,0.3-0.8s0.5-0.4,0.8-0.5c-0.3-0.4-0.4-0.7-0.4-1
			c0-0.2,0.1-0.4,0.3-0.6s0.4-0.3,0.7-0.3s0.5,0.1,0.7,0.2s0.3,0.4,0.3,0.7c0,0.5-0.3,0.8-0.9,1.1l0.9,1.4c0.3-0.4,0.5-0.8,0.6-1.4
			l0.5,0.1c-0.1,0.6-0.4,1.1-0.8,1.6c0.1,0.1,0.3,0.2,0.5,0.2C63.2,45.5,63.3,45.5,63.5,45.5z M61.1,43.8c-0.3,0.1-0.5,0.3-0.6,0.4
			s-0.2,0.3-0.2,0.5c0,0.3,0.1,0.5,0.3,0.7s0.4,0.2,0.7,0.2s0.6-0.1,0.8-0.3L61.1,43.8z M61.3,43.3c0.3-0.2,0.5-0.3,0.6-0.4
			c0.1-0.1,0.1-0.2,0.1-0.3s-0.1-0.3-0.2-0.4C61.7,42,61.6,42,61.4,42c-0.1,0-0.3,0-0.4,0.1c-0.1,0.1-0.1,0.2-0.1,0.3
			C60.9,42.6,61,42.9,61.3,43.3z"/>
		<path class="st0" d="M66.4,45.9h-0.5v-4.2h2.6v0.5h-2.1v1.3h1.7v0.4h-1.7V45.9z"/>
		<path class="st0" d="M70,46c-0.4,0-0.8-0.2-1-0.5s-0.4-0.7-0.4-1.2s0.1-0.9,0.4-1.2s0.6-0.4,1-0.4s0.8,0.2,1,0.5s0.4,0.7,0.4,1.2
			s-0.1,0.9-0.4,1.2C70.8,45.8,70.5,46,70,46z M70.1,45.6c0.2,0,0.5-0.1,0.6-0.3c0.2-0.2,0.3-0.5,0.3-1c0-0.4-0.1-0.7-0.3-0.9
			s-0.4-0.3-0.6-0.3s-0.4,0.1-0.6,0.3s-0.3,0.5-0.3,0.9c0,0.5,0.1,0.8,0.3,1S69.8,45.6,70.1,45.6z"/>
		<path class="st0" d="M73.3,46c-0.4,0-0.8-0.2-1-0.5s-0.4-0.7-0.4-1.2s0.1-0.9,0.4-1.2s0.6-0.4,1-0.4s0.8,0.2,1,0.5
			c0.3,0.3,0.4,0.7,0.4,1.2s-0.1,0.9-0.4,1.2C74.1,45.8,73.8,46,73.3,46z M73.4,45.6c0.2,0,0.5-0.1,0.6-0.3c0.2-0.2,0.3-0.5,0.3-1
			c0-0.4-0.1-0.7-0.3-0.9s-0.4-0.3-0.6-0.3s-0.4,0.1-0.6,0.3s-0.3,0.5-0.3,0.9c0,0.5,0.1,0.8,0.3,1S73.1,45.6,73.4,45.6z"/>
		<path class="st0" d="M78,41.7v4.2h-0.4v-0.5c-0.2,0.4-0.5,0.6-1,0.6c-0.4,0-0.7-0.2-0.9-0.5c-0.2-0.3-0.4-0.7-0.4-1.2
			s0.1-0.9,0.4-1.2s0.5-0.5,0.9-0.5s0.7,0.2,0.9,0.5v-1.5H78V41.7z M77.5,44c0-0.3-0.1-0.5-0.3-0.7c-0.2-0.2-0.4-0.2-0.6-0.2
			s-0.4,0.1-0.6,0.3s-0.2,0.5-0.2,0.9s0.1,0.7,0.2,1c0.1,0.2,0.3,0.3,0.6,0.3c0.2,0,0.4-0.1,0.6-0.3s0.3-0.4,0.3-0.7V44z"/>
		<path class="st0" d="M87.8,45.9h-0.5v-3.7l-1.4,3.7h-0.4l-1.4-3.7v3.7h-0.5v-4.2h0.8l1.3,3.4l1.2-3.4h0.8L87.8,45.9L87.8,45.9z"/>
		<path class="st0" d="M91.3,45.9h-0.5c0-0.1,0-0.3-0.1-0.6c-0.2,0.4-0.6,0.7-1.1,0.7c-0.4,0-0.6-0.1-0.8-0.3
			c-0.2-0.2-0.3-0.4-0.3-0.7s0.1-0.6,0.4-0.8s0.7-0.3,1.4-0.3c0.1,0,0.2,0,0.4,0c0-0.2,0-0.4-0.1-0.5c0-0.1-0.1-0.2-0.2-0.3
			S90.1,43,89.9,43c-0.5,0-0.8,0.2-0.9,0.6l-0.5-0.1c0.1-0.6,0.6-0.9,1.4-0.9c0.4,0,0.7,0.1,0.9,0.3c0.2,0.2,0.3,0.5,0.3,1v1.3
			C91.2,45.5,91.3,45.7,91.3,45.9z M90.8,44.3c-0.2,0-0.3,0-0.5,0c-0.4,0-0.7,0.1-0.9,0.2c-0.2,0.1-0.3,0.3-0.3,0.6
			c0,0.2,0.1,0.3,0.2,0.4s0.3,0.2,0.5,0.2c0.3,0,0.5-0.1,0.7-0.3s0.3-0.5,0.3-0.8C90.8,44.5,90.8,44.4,90.8,44.3z"/>
		<path class="st0" d="M94.8,45.9h-0.5l-0.9-1.7L92.7,45v1h-0.5v-4.2h0.5v2.7l1.5-1.6h0.5l-1,1.1L94.8,45.9z"/>
		<path class="st0" d="M97.3,45l0.5,0.1c-0.1,0.3-0.2,0.5-0.5,0.7C97,45.9,96.8,46,96.4,46s-0.8-0.2-1-0.5c-0.3-0.3-0.4-0.7-0.4-1.2
			s0.1-0.9,0.4-1.2s0.6-0.5,1-0.5s0.7,0.1,1,0.4c0.2,0.3,0.4,0.7,0.4,1.3h-2.3c0,0.5,0.1,0.8,0.3,1c0.2,0.2,0.4,0.2,0.6,0.2
			C96.9,45.6,97.2,45.4,97.3,45z M97.3,44c0-0.2,0-0.3-0.1-0.5s-0.1-0.3-0.3-0.3c-0.1-0.1-0.3-0.1-0.5-0.1s-0.4,0.1-0.6,0.3
			s-0.3,0.4-0.3,0.7h1.8V44z"/>
		<path class="st0" d="M98.1,45.1l0.5-0.1c0.1,0.4,0.4,0.6,1,0.6c0.2,0,0.4,0,0.5-0.1s0.2-0.2,0.2-0.4s-0.2-0.4-0.5-0.5l-0.7-0.1
			c-0.3,0-0.5-0.1-0.6-0.3s-0.2-0.3-0.2-0.6s0.1-0.5,0.3-0.7s0.5-0.3,0.8-0.3c0.7,0,1.1,0.3,1.3,0.8l-0.4,0.1
			c-0.1-0.3-0.4-0.5-0.8-0.5c-0.2,0-0.4,0-0.5,0.1s-0.2,0.2-0.2,0.3c0,0.2,0.2,0.4,0.5,0.4l0.6,0.1c0.6,0.1,1,0.4,1,0.9
			c0,0.3-0.1,0.5-0.4,0.7c-0.2,0.2-0.6,0.3-0.9,0.3C98.8,46,98.3,45.7,98.1,45.1z"/>
		<path class="st0" d="M105.9,41.7l-1.4,2.5V46H104v-1.8l-1.4-2.5h0.6l1.1,1.9l1.1-1.9H105.9z"/>
		<path class="st0" d="M107.1,46c-0.4,0-0.8-0.2-1-0.5s-0.4-0.7-0.4-1.2s0.1-0.9,0.4-1.2s0.6-0.4,1-0.4s0.8,0.2,1,0.5
			s0.4,0.7,0.4,1.2s-0.1,0.9-0.4,1.2S107.5,46,107.1,46z M107.1,45.6c0.2,0,0.5-0.1,0.6-0.3c0.2-0.2,0.3-0.5,0.3-1
			c0-0.4-0.1-0.7-0.3-0.9s-0.4-0.3-0.6-0.3s-0.4,0.1-0.6,0.3s-0.3,0.5-0.3,0.9c0,0.5,0.1,0.8,0.3,1
			C106.7,45.5,106.9,45.6,107.1,45.6z"/>
		<path class="st0" d="M111.7,45.9h-0.4v-0.6c-0.2,0.5-0.6,0.7-1,0.7c-0.3,0-0.6-0.1-0.8-0.3c-0.2-0.2-0.3-0.5-0.3-0.9v-2h0.5v2
			c0,0.3,0.1,0.5,0.2,0.6s0.3,0.2,0.4,0.2c0.2,0,0.3,0,0.4-0.1s0.2-0.2,0.3-0.4c0.1-0.2,0.1-0.3,0.1-0.5v-1.8h0.5v3.1H111.7z"/>
		<path class="st0" d="M114.9,45.9h-0.5v-4.2h2.6v0.5h-2.1v1.3h1.7v0.4h-1.7V45.9z"/>
		<path class="st0" d="M119.5,45l0.5,0.1c-0.1,0.3-0.2,0.5-0.5,0.7c-0.2,0.2-0.5,0.3-0.8,0.3c-0.4,0-0.8-0.2-1-0.5
			c-0.3-0.3-0.4-0.7-0.4-1.2s0.1-0.9,0.4-1.2s0.6-0.5,1-0.5s0.7,0.1,1,0.4c0.2,0.3,0.4,0.7,0.4,1.3h-2.3c0,0.5,0.1,0.8,0.3,1
			c0.2,0.2,0.4,0.2,0.6,0.2C119,45.6,119.3,45.4,119.5,45z M119.4,44c0-0.2,0-0.3-0.1-0.5s-0.1-0.3-0.3-0.3
			c-0.1-0.1-0.3-0.1-0.5-0.1s-0.4,0.1-0.6,0.3s-0.3,0.4-0.3,0.7h1.8V44z"/>
		<path class="st0" d="M122.8,45l0.5,0.1c-0.1,0.3-0.2,0.5-0.5,0.7c-0.2,0.2-0.5,0.3-0.8,0.3c-0.4,0-0.8-0.2-1-0.5
			c-0.3-0.3-0.4-0.7-0.4-1.2s0.1-0.9,0.4-1.2s0.6-0.5,1-0.5s0.7,0.1,1,0.4c0.2,0.3,0.4,0.7,0.4,1.3H121c0,0.5,0.1,0.8,0.3,1
			c0.2,0.2,0.4,0.2,0.6,0.2C122.3,45.6,122.6,45.4,122.8,45z M122.7,44c0-0.2,0-0.3-0.1-0.5s-0.1-0.3-0.3-0.3
			c-0.1-0.1-0.3-0.1-0.5-0.1s-0.4,0.1-0.6,0.3s-0.3,0.4-0.3,0.7h1.8V44z"/>
		<path class="st0" d="M124.5,45.9H124v-4.2h0.5V45.9z"/>
		<path class="st0" d="M130.2,43.8V46h-0.3l-0.1-0.5c-0.3,0.4-0.6,0.6-1.2,0.6c-0.6,0-1-0.2-1.3-0.6c-0.3-0.4-0.5-0.9-0.5-1.5
			s0.2-1.2,0.5-1.6c0.3-0.4,0.8-0.6,1.3-0.6c0.8,0,1.3,0.4,1.5,1.2l-0.5,0.1c-0.1-0.3-0.2-0.5-0.4-0.7c-0.2-0.1-0.4-0.2-0.7-0.2
			c-0.4,0-0.7,0.2-0.9,0.5c-0.2,0.3-0.3,0.8-0.3,1.3s0.1,1,0.3,1.3c0.2,0.3,0.5,0.5,0.9,0.5c0.3,0,0.5-0.1,0.7-0.3s0.3-0.5,0.3-0.8
			c0-0.1,0-0.1,0-0.2h-1v-0.4h1.7V43.8z"/>
		<path class="st0" d="M132.3,46c-0.4,0-0.8-0.2-1-0.5s-0.4-0.7-0.4-1.2s0.1-0.9,0.4-1.2c0.3-0.3,0.6-0.4,1-0.4s0.8,0.2,1,0.5
			s0.4,0.7,0.4,1.2s-0.1,0.9-0.4,1.2S132.7,46,132.3,46z M132.3,45.6c0.2,0,0.5-0.1,0.6-0.3c0.2-0.2,0.3-0.5,0.3-1
			c0-0.4-0.1-0.7-0.3-0.9s-0.4-0.3-0.6-0.3c-0.2,0-0.4,0.1-0.6,0.3c-0.2,0.2-0.3,0.5-0.3,0.9c0,0.5,0.1,0.8,0.3,1
			S132.1,45.6,132.3,45.6z"/>
		<path class="st0" d="M135.6,46c-0.4,0-0.8-0.2-1-0.5s-0.4-0.7-0.4-1.2s0.1-0.9,0.4-1.2c0.3-0.3,0.6-0.4,1-0.4s0.8,0.2,1,0.5
			s0.4,0.7,0.4,1.2s-0.1,0.9-0.4,1.2S136,46,135.6,46z M135.6,45.6c0.2,0,0.5-0.1,0.6-0.3c0.2-0.2,0.3-0.5,0.3-1
			c0-0.4-0.1-0.7-0.3-0.9s-0.4-0.3-0.6-0.3c-0.2,0-0.4,0.1-0.6,0.3c-0.2,0.2-0.3,0.5-0.3,0.9c0,0.5,0.1,0.8,0.3,1
			S135.4,45.6,135.6,45.6z"/>
		<path class="st0" d="M140.2,41.7v4.2h-0.4v-0.5c-0.2,0.4-0.5,0.6-1,0.6c-0.4,0-0.7-0.2-0.9-0.5s-0.4-0.7-0.4-1.2s0.1-0.9,0.4-1.2
			s0.5-0.5,0.9-0.5s0.7,0.2,0.9,0.5v-1.5h0.5V41.7z M139.7,44c0-0.3-0.1-0.5-0.3-0.7s-0.4-0.2-0.6-0.2c-0.2,0-0.4,0.1-0.6,0.3
			s-0.2,0.5-0.2,0.9s0.1,0.7,0.2,1c0.1,0.2,0.3,0.3,0.6,0.3c0.2,0,0.4-0.1,0.6-0.3c0.2-0.2,0.3-0.4,0.3-0.7V44z"/>
	</g>
	<g>
		<path d="M142.1,18.3v-0.1v-1.5h-0.5c-0.1,0-0.2-0.1-0.2-0.2s0.1-0.2,0.2-0.2h1.2c0.1,0,0.2,0.1,0.2,0.2s-0.1,0.2-0.2,0.2h-0.5v1.5
			c0,0.1,0,0.1,0,0.1l-0.1,0.1C142.1,18.4,142.1,18.3,142.1,18.3z"/>
		<path d="M144.9,16.4v0.1v1.7c0,0.1,0,0.1,0,0.1h-0.1h-0.1v-0.1V17l-0.4,0.9c0,0,0,0.1-0.1,0.1h-0.1H144c0,0,0-0.1-0.1-0.1
			l-0.4-0.9v1.2c0,0.1,0,0.1,0,0.1h-0.1h-0.1v-0.1v-1.7c0-0.1,0-0.1,0-0.1l0.1-0.1c0.1,0,0.1,0,0.2,0.1l0.6,1.2L144.9,16.4
			c-0.1-0.1,0-0.1,0-0.1C144.8,16.3,144.8,16.3,144.9,16.4z"/>
	</g>
	<g>
		<path d="M38.1,26.4c-0.1,4.6-4,8.3-8.7,8.3c-4.8,0-8.6-3.8-8.6-8.5c0-4.6,4-8.4,8.7-8.3C34.3,17.8,38.1,21.6,38.1,26.4z"/>
		
			<linearGradient id="SVGID_1_" gradientUnits="userSpaceOnUse" x1="-3117.7573" y1="1515.447" x2="-3117.7573" y2="1525.2012" gradientTransform="matrix(-1 0 0 1 -3088.2573 -1498)">
			<stop  offset="0" style="stop-color:#FFFFFF"/>
			<stop  offset="0.8748" style="stop-color:#000000;stop-opacity:0.2"/>
		</linearGradient>
		
			<linearGradient id="SVGID_2_" gradientUnits="userSpaceOnUse" x1="29.5" y1="1515.9926" x2="29.5" y2="1524.9401" gradientTransform="matrix(1 0 0 1 0 -1498)">
			<stop  offset="0" style="stop-color:#FFFFFF"/>
			<stop  offset="3.518632e-02" style="stop-color:#FBFBFB;stop-opacity:0.9837"/>
			<stop  offset="6.802838e-02" style="stop-color:#F0F0F0;stop-opacity:0.9684"/>
			<stop  offset="9.993252e-02" style="stop-color:#DDDDDD;stop-opacity:0.9536"/>
			<stop  offset="0.1313" style="stop-color:#C3C3C3;stop-opacity:0.9391"/>
			<stop  offset="0.1622" style="stop-color:#A0A0A0;stop-opacity:0.9247"/>
			<stop  offset="0.1929" style="stop-color:#767676;stop-opacity:0.9105"/>
			<stop  offset="0.2233" style="stop-color:#444444;stop-opacity:0.8964"/>
			<stop  offset="0.2527" style="stop-color:#0C0C0C;stop-opacity:0.8827"/>
			<stop  offset="0.2586" style="stop-color:#000000;stop-opacity:0.88"/>
			<stop  offset="1" style="stop-color:#000000;stop-opacity:0"/>
		</linearGradient>
		<ellipse class="st4" cx="29.5" cy="22.5" rx="6.7" ry="4.3"/>
		
			<linearGradient id="SVGID_3_" gradientUnits="userSpaceOnUse" x1="29.4997" y1="-1152.3562" x2="29.4997" y2="-1148.2827" gradientTransform="matrix(1 0 0 -1.0355 0 -1158.8879)">
			<stop  offset="1.082549e-07" style="stop-color:#FFFFFF;stop-opacity:0.7"/>
			<stop  offset="2.125751e-02" style="stop-color:#FFFFFF;stop-opacity:0.6851"/>
			<stop  offset="1" style="stop-color:#FFFFFF;stop-opacity:0"/>
		</linearGradient>
		<path class="st5" d="M36,30.4c-0.2,2.1-3.1,3.8-6.5,3.8c-3.6,0-6.5-1.8-6.5-4.1"/>
		
			<radialGradient id="SVGID_4_" cx="29.5476" cy="1523.8535" r="7.8846" gradientTransform="matrix(1 0 0 1 0 -1498)" gradientUnits="userSpaceOnUse">
			<stop  offset="0" style="stop-color:#FFFFFF"/>
			<stop  offset="0.8748" style="stop-color:#949494"/>
		</radialGradient>
		
			<linearGradient id="SVGID_5_" gradientUnits="userSpaceOnUse" x1="24.7893" y1="1524.1" x2="34.2245" y2="1524.1" gradientTransform="matrix(1 0 0 1 0 -1498)">
			<stop  offset="2.702703e-03" style="stop-color:#343031;stop-opacity:0.9918"/>
			<stop  offset="0.2261" style="stop-color:#F3F3F3;stop-opacity:0.9046"/>
		</linearGradient>
		<ellipse class="st6" cx="29.5" cy="26.1" rx="4.6" ry="4.4"/>
		<rect x="27.8" y="23.8" class="st7" width="2.6" height="4.7"/>
		<text transform="matrix(1 0 0 1 27.8412 28.3145)" class="st8 st9">8</text>
		<g>
			
				<linearGradient id="SVGID_6_" gradientUnits="userSpaceOnUse" x1="21.069" y1="1526.7711" x2="37.9248" y2="1521.8224" gradientTransform="matrix(1 0 0 1 0 -1498)">
				<stop  offset="0" style="stop-color:#000000;stop-opacity:0.6"/>
				<stop  offset="1" style="stop-color:#FFFFFF;stop-opacity:0.4"/>
			</linearGradient>
			<path class="st10" d="M27.1,18.1c1.6-0.5,3.4-0.5,5-0.1c0.8,0.2,1.6,0.6,2.3,1.1s1.3,1,1.9,1.7c0.5,0.7,1,1.4,1.3,2.2
				s0.5,1.6,0.6,2.5c0.1,0.8,0,1.7-0.2,2.5s-0.5,1.6-0.9,2.4c-1.7,3-5.2,4.8-8.6,4.4c-1.7-0.2-3.3-0.8-4.6-1.9
				c-0.6-0.6-1.2-1.2-1.7-1.9s-0.8-1.5-1-2.3c1,3.3,4,5.7,7.4,5.9c3.3,0.3,6.8-1.4,8.4-4.4c0.4-0.7,0.7-1.5,0.9-2.3s0.2-1.6,0.2-2.5
				c-0.1-0.8-0.3-1.6-0.6-2.4s-0.7-1.5-1.3-2.1C34.1,18.3,30.3,17.2,27.1,18.1z"/>
		</g>
	</g>
</g>
<rect x="-0.1" y="86.3" class="st11" width="150.4" height="14.5"/>
<g>
	<path class="st12" d="M146.4,85.4c-0.5,0.8-0.5,1.5-0.1,2.2c0.3,0.5,0.4,1,0.6,1.5c0.3,0.9,0.2,1.4-0.7,1.8c-0.7,0.4-1.4,0.7-2,1.1
		c-0.3,0.2-0.5,0.5-0.6,0.8c-0.2,0.8-0.3,1.5-0.4,2.3c-0.2,0.9-0.6,1.3-1.5,1.2c-0.8-0.1-1.5-0.3-2.3-0.3c-0.3,0-0.7,0.1-0.9,0.3
		c-0.6,0.5-1.1,1.1-1.7,1.6c-0.6,0.6-1.2,0.6-1.9,0c-0.6-0.5-1.1-1.1-1.7-1.6c-0.2-0.2-0.6-0.3-0.9-0.3c-0.7,0.1-1.4,0.2-2.1,0.3
		c-1,0.1-1.6-0.3-1.8-1.3c-0.1-0.5-0.2-1.1-0.2-1.6c0-0.8-0.4-1.3-1.1-1.6c-0.4-0.2-0.8-0.4-1.3-0.6c-1.1-0.6-1.3-1.2-0.8-2.3
		c0.3-0.6,0.6-1.2,0.9-1.9c0.1-0.3,0.1-0.6,0-0.9c-0.3-0.7-0.7-1.3-1-2c-0.5-0.9-0.3-1.6,0.7-2.1c0.6-0.3,1.2-0.6,1.8-0.9
		c0.5-0.2,0.8-0.6,0.8-1.2c0.1-0.7,0.2-1.4,0.3-2.2c0.2-0.8,0.6-1.1,1.5-1.1c0.7,0.1,1.5,0.2,2.3,0.4c0.5,0.1,0.8,0,1.1-0.3
		c0.6-0.6,1.2-1.1,1.8-1.7c0.6-0.5,1.2-0.5,1.8,0c0.6,0.6,1.1,1.2,1.7,1.7c0.2,0.2,0.6,0.3,0.9,0.3c0.7-0.1,1.4-0.2,2.1-0.3
		c1.1-0.2,1.6,0.3,1.8,1.3c0,0.2,0.1,0.4,0.1,0.6c-0.1,1.6,0.7,2.5,2.1,2.9c0.2,0.1,0.5,0.2,0.7,0.4c0.7,0.4,1,1.1,0.6,1.9
		C147,84.4,146.8,85,146.4,85.4z"/>
	<g>
		<path class="st13" d="M133.1,84.6v0.7h-3.8c0-0.2,0-0.3,0.1-0.5c0.1-0.3,0.3-0.5,0.5-0.8c0.2-0.3,0.5-0.5,0.9-0.9
			c0.6-0.5,1-0.9,1.3-1.2s0.3-0.6,0.3-0.8c0-0.3-0.1-0.5-0.3-0.7s-0.5-0.3-0.8-0.3s-0.6,0.1-0.8,0.3s-0.3,0.5-0.3,0.8l-0.7-0.1
			c0-0.5,0.2-1,0.6-1.2c0.4-0.2,0.8-0.4,1.3-0.4s1,0.2,1.3,0.5s0.5,0.7,0.5,1.1c0,0.2,0,0.5-0.1,0.7s-0.2,0.5-0.5,0.7
			s-0.6,0.6-1.1,1c-0.4,0.4-0.7,0.6-0.8,0.7s-0.2,0.3-0.3,0.4C130.4,84.6,133.1,84.6,133.1,84.6z"/>
		<path class="st13" d="M133.5,82.4c0-0.7,0.1-1.2,0.2-1.6s0.3-0.7,0.6-1s0.6-0.3,1-0.3c0.3,0,0.6,0.1,0.8,0.2s0.4,0.3,0.6,0.5
			s0.3,0.5,0.4,0.9s0.1,0.8,0.1,1.4c0,0.7-0.1,1.2-0.2,1.6s-0.3,0.7-0.6,1s-0.6,0.3-1,0.3c-0.6,0-1-0.2-1.3-0.6
			C133.7,84.3,133.5,83.5,133.5,82.4z M134.3,82.4c0,0.9,0.1,1.6,0.3,1.9s0.5,0.5,0.8,0.5s0.6-0.2,0.8-0.5s0.3-0.9,0.3-1.9
			c0-0.9-0.1-1.6-0.3-1.9s-0.5-0.5-0.8-0.5s-0.6,0.1-0.8,0.4C134.4,80.8,134.3,81.5,134.3,82.4z"/>
		<path class="st13" d="M137.8,80.9c0-0.4,0.1-0.8,0.3-1s0.5-0.4,0.9-0.4s0.7,0.1,0.9,0.4s0.4,0.6,0.4,1.1s-0.1,0.9-0.4,1.1
			s-0.5,0.4-0.9,0.4c-0.3,0-0.6-0.1-0.9-0.4S137.8,81.4,137.8,80.9z M139,79.9c-0.2,0-0.3,0.1-0.4,0.2s-0.2,0.4-0.2,0.8
			s0.1,0.6,0.2,0.8s0.3,0.2,0.4,0.2c0.2,0,0.3-0.1,0.4-0.2s0.2-0.4,0.2-0.8s-0.1-0.6-0.2-0.8S139.2,79.9,139,79.9z M139,85.5l3.1-6
			h0.6l-3.1,6H139z M141.5,83.9c0-0.4,0.1-0.8,0.3-1s0.5-0.4,0.9-0.4s0.7,0.1,0.9,0.4s0.4,0.6,0.4,1.1s-0.1,0.9-0.4,1.1
			s-0.5,0.4-0.9,0.4c-0.3,0-0.6-0.1-0.9-0.4S141.5,84.4,141.5,83.9z M142.7,82.9c-0.2,0-0.3,0.1-0.4,0.2s-0.2,0.4-0.2,0.8
			s0.1,0.6,0.2,0.8s0.3,0.2,0.4,0.2c0.2,0,0.3-0.1,0.4-0.2s0.2-0.4,0.2-0.8s-0.1-0.6-0.2-0.8S142.9,82.9,142.7,82.9z"/>
		<path class="st13" d="M129.5,89.5c0-1,0.3-1.7,0.8-2.2s1.2-0.8,2-0.8c0.5,0,1,0.1,1.4,0.4s0.7,0.6,1,1.1s0.3,1,0.3,1.5
			c0,0.6-0.1,1.1-0.4,1.6s-0.6,0.8-1,1s-0.9,0.4-1.4,0.4s-1-0.1-1.4-0.4s-0.7-0.6-1-1.1C129.5,90.5,129.5,90,129.5,89.5z
			 M130.2,89.5c0,0.7,0.2,1.2,0.6,1.6s0.8,0.6,1.4,0.6c0.6,0,1-0.2,1.4-0.6s0.6-1,0.6-1.7c0-0.5-0.1-0.9-0.2-1.2s-0.4-0.6-0.7-0.8
			s-0.6-0.3-1-0.3c-0.5,0-1,0.2-1.4,0.6S130.2,88.6,130.2,89.5z"/>
		<path class="st13" d="M135.6,92.2v-5.7h3.9v0.7h-3.1V89h2.7v0.7h-2.7v2.6L135.6,92.2L135.6,92.2z"/>
		<path class="st13" d="M140.2,92.2v-5.7h3.9v0.7H141V89h2.7v0.7H141v2.6L140.2,92.2L140.2,92.2z"/>
	</g>
</g>
<g class="st14">
	<path class="st0" d="M33.7,95.6v-5.7h0.8v2.4h3v-2.4h0.8v5.7h-0.8v-2.7h-3v2.7H33.7z"/>
	<path class="st0" d="M38.9,95.6l2.2-5.7h0.8l2.3,5.7h-0.9l-0.7-1.7h-2.4l-0.6,1.7H38.9z M40.5,93.3h1.9l-0.6-1.6
		c-0.2-0.5-0.3-0.9-0.4-1.2c-0.1,0.4-0.2,0.7-0.3,1.1L40.5,93.3z"/>
	<path class="st0" d="M44.8,95.6v-5.7h0.8l3,4.5v-4.5h0.7v5.7h-0.8l-3-4.5v4.5H44.8z"/>
	<path class="st0" d="M53.3,93.4v-0.7l2.4,0v2.1c-0.4,0.3-0.8,0.5-1.2,0.7s-0.8,0.2-1.2,0.2c-0.6,0-1.1-0.1-1.5-0.4s-0.8-0.6-1-1
		s-0.4-1-0.4-1.5c0-0.6,0.1-1.1,0.3-1.6s0.6-0.8,1-1.1s0.9-0.4,1.5-0.4c0.4,0,0.8,0.1,1.1,0.2s0.6,0.3,0.8,0.6s0.3,0.6,0.4,0.9
		l-0.7,0.2c-0.1-0.3-0.2-0.5-0.3-0.7s-0.3-0.3-0.5-0.4s-0.5-0.2-0.8-0.2c-0.3,0-0.6,0.1-0.9,0.2s-0.5,0.2-0.6,0.4s-0.3,0.4-0.4,0.6
		c-0.1,0.4-0.2,0.7-0.2,1.2c0,0.5,0.1,0.9,0.3,1.3s0.4,0.6,0.8,0.8s0.7,0.3,1.1,0.3c0.3,0,0.6-0.1,1-0.2s0.5-0.3,0.7-0.4v-1.1H53.3z
		"/>
	<path class="st0" d="M56.6,92.8c0-1,0.3-1.7,0.8-2.2s1.2-0.8,2-0.8c0.5,0,1,0.1,1.4,0.4s0.7,0.6,1,1.1s0.3,1,0.3,1.5
		c0,0.6-0.1,1.1-0.4,1.6s-0.6,0.8-1,1s-0.9,0.4-1.4,0.4c-0.5,0-1-0.1-1.4-0.4s-0.7-0.6-1-1.1S56.6,93.3,56.6,92.8z M57.4,92.8
		c0,0.7,0.2,1.2,0.6,1.6s0.8,0.6,1.4,0.6c0.6,0,1-0.2,1.4-0.6s0.6-1,0.6-1.7c0-0.5-0.1-0.9-0.2-1.2s-0.4-0.6-0.7-0.8s-0.6-0.3-1-0.3
		c-0.5,0-1,0.2-1.4,0.6S57.4,92,57.4,92.8z"/>
	<path class="st0" d="M66.8,89.9h0.8v3.3c0,0.6-0.1,1-0.2,1.4s-0.4,0.6-0.7,0.8s-0.8,0.3-1.3,0.3c-0.5,0-1-0.1-1.3-0.3
		s-0.6-0.5-0.7-0.8s-0.2-0.8-0.2-1.4v-3.3h0.8v3.3c0,0.5,0,0.9,0.1,1.1s0.3,0.4,0.5,0.5s0.5,0.2,0.8,0.2c0.6,0,1-0.1,1.2-0.4
		s0.4-0.7,0.4-1.5V89.9z"/>
	<path class="st0" d="M70.3,95.6v-5.1h-1.9v-0.7h4.5v0.7H71v5.1H70.3z"/>
	<path class="st0" d="M72.9,95.6v-0.8h0.8v0.8c0,0.3-0.1,0.5-0.2,0.7c-0.1,0.2-0.3,0.3-0.5,0.4l-0.2-0.3c0.1-0.1,0.3-0.2,0.3-0.3
		s0.1-0.3,0.1-0.5H72.9z"/>
	<path class="st0" d="M77.3,95.6v-5.7h2.2c0.4,0,0.7,0,0.9,0.1c0.3,0,0.5,0.1,0.7,0.3c0.2,0.1,0.3,0.3,0.5,0.6
		c0.1,0.2,0.2,0.5,0.2,0.8c0,0.5-0.2,0.9-0.5,1.2c-0.3,0.3-0.9,0.5-1.7,0.5H78v2.3H77.3z M78,92.6h1.5c0.5,0,0.8-0.1,1-0.3
		c0.2-0.2,0.3-0.4,0.3-0.8c0-0.2-0.1-0.4-0.2-0.6s-0.3-0.3-0.5-0.3c-0.1,0-0.4-0.1-0.7-0.1H78V92.6z"/>
	<path class="st0" d="M81.4,95.6l2.2-5.7h0.8l2.3,5.7h-0.9l-0.7-1.7h-2.4l-0.6,1.7H81.4z M83,93.3H85l-0.6-1.6
		c-0.2-0.5-0.3-0.9-0.4-1.2c-0.1,0.4-0.2,0.7-0.3,1.1L83,93.3z"/>
	<path class="st0" d="M87.4,95.6v-5.7h2.5c0.5,0,0.9,0.1,1.2,0.2s0.5,0.3,0.6,0.5c0.2,0.3,0.2,0.5,0.2,0.9c0,0.4-0.1,0.7-0.4,1
		c-0.3,0.3-0.7,0.5-1.2,0.5c0.2,0.1,0.4,0.2,0.5,0.3c0.2,0.2,0.4,0.5,0.6,0.8l1,1.6h-1l-0.8-1.2c-0.2-0.3-0.4-0.6-0.5-0.8
		c-0.1-0.2-0.3-0.3-0.4-0.4s-0.2-0.1-0.3-0.2c-0.1,0-0.2,0-0.4,0h-0.9v2.5H87.4z M88.1,92.4h1.6c0.3,0,0.6,0,0.8-0.1
		s0.3-0.2,0.4-0.3s0.2-0.3,0.2-0.5c0-0.3-0.1-0.5-0.3-0.7c-0.2-0.2-0.5-0.3-0.9-0.3h-1.8V92.4z"/>
	<path class="st0" d="M93.1,95.6v-5.7h2c0.4,0,0.8,0,1,0.1c0.3,0.1,0.6,0.2,0.8,0.4c0.3,0.3,0.5,0.6,0.7,1c0.1,0.4,0.2,0.9,0.2,1.4
		c0,0.4-0.1,0.8-0.2,1.2s-0.2,0.6-0.4,0.8c-0.2,0.2-0.3,0.4-0.5,0.5c-0.2,0.1-0.4,0.2-0.7,0.3c-0.3,0.1-0.6,0.1-0.9,0.1H93.1z
		 M93.9,94.9h1.2c0.4,0,0.7,0,0.9-0.1s0.4-0.2,0.5-0.3c0.2-0.2,0.3-0.4,0.4-0.7c0.1-0.3,0.2-0.7,0.2-1.1c0-0.6-0.1-1.1-0.3-1.4
		c-0.2-0.3-0.4-0.5-0.7-0.6c-0.2-0.1-0.5-0.1-1-0.1h-1.2V94.9z"/>
	<path class="st0" d="M99,95.6v-5.7h0.8v5.7H99z"/>
	<path class="st0" d="M101.2,95.6v-5.7h0.8v2.4h3v-2.4h0.8v5.7h-0.8v-2.7h-3v2.7H101.2z"/>
</g>
</svg>
