<?xml version="1.0" encoding="utf-8"?>
<!-- Generator: Adobe Illustrator 21.0.0, SVG Export Plug-In . SVG Version: 6.00 Build 0)  -->
<svg version="1.1" id="Layer_1" xmlns="http://www.w3.org/2000/svg" xmlns:xlink="http://www.w3.org/1999/xlink" x="0px" y="0px"
	 viewBox="0 0 150 100" style="enable-background:new 0 0 150 100;" xml:space="preserve">
<style type="text/css">
	.st0{fill:url(#SVGID_1_);}
	.st1{fill:url(#SVGID_2_);}
	.st2{fill:#FFFFFF;}
	.st3{fill:#FFFE01;}
	.st4{fill:#FDFC12;}
	.st5{fill:url(#SVGID_3_);}
	.st6{fill:url(#SVGID_4_);}
	.st7{fill:url(#SVGID_5_);}
	.st8{fill:#FEF912;}
	.st9{fill:none;stroke:#FEF912;stroke-miterlimit:10;}
	.st10{opacity:0.4;fill:#606060;enable-background:new    ;}
	.st11{fill:none;stroke:#000000;stroke-miterlimit:10;}
	.st12{fill:#020202;}
</style>
<g>
	
		<linearGradient id="SVGID_1_" gradientUnits="userSpaceOnUse" x1="31.7246" y1="58.9973" x2="121.7348" y2="58.9973" gradientTransform="matrix(1 0 0 -1 0 102)">
		<stop  offset="9.909913e-03" style="stop-color:#AB0120"/>
		<stop  offset="0.291" style="stop-color:#EF0028"/>
		<stop  offset="0.5189" style="stop-color:#AB0120"/>
		<stop  offset="0.7631" style="stop-color:#E50027"/>
		<stop  offset="0.9874" style="stop-color:#C10023"/>
	</linearGradient>
	<path class="st0" d="M44.7,2.4c-2,2.1-14.6,15.8-12.8,35.2c0.9,10.2,6,19.3,12.5,27c6.5,7.8,15.2,15.3,25.2,18
		c1.5,0.4,3.1,0.7,4.6,0.9c6.5,0.6,11.5-1.5,14.7-2.8c4.6-2,7.6-4.3,11.6-7.6c2.1-1.7,6.9-5.6,10.7-10.1c11.7-14.4,10.5-32,10.5-32
		c-1.1-15.8-10.5-25.9-13.3-28.6c-7.1,2.5-18.2,5.4-32.1,5.4C62.7,7.8,51.8,4.8,44.7,2.4z"/>
	
		<linearGradient id="SVGID_2_" gradientUnits="userSpaceOnUse" x1="76.6343" y1="89.2366" x2="76.1559" y2="26.8871" gradientTransform="matrix(1 0 0 -1 0 102)">
		<stop  offset="0" style="stop-color:#EF0028"/>
		<stop  offset="1" style="stop-color:#8F011D"/>
	</linearGradient>
	<path class="st1" d="M47.1,6.2c-2,2.4-12.3,13.3-11.6,28c0.3,7.6,2.6,15.1,7,21.3c2.3,3.2,4.6,7.2,7.5,9.9c2.7,2.7,6.3,5.9,9.3,8.2
		c6,4.6,15,7,22.5,5.6c4.6-0.9,9.6-3.6,13.2-6.5c3.5-2.9,7.4-6.1,10.6-9.3c7.4-7.3,10.8-17.7,11.4-28.2c0.1-1.7,0.6-3.3,0.5-5.1
		c-1-11.6-7.9-19.6-10.8-22.8c-6.9,2-16.1,3.9-27.1,4.3C65.5,12.1,55,8.5,47.1,6.2z"/>
	<g>
		<g>
			<path class="st2" d="M49.4,39.6c-3,0-6,0-9,0l-0.1-0.1c0.1,0,0.1,0,0.2-0.1c0.6-0.4,0.9-0.9,1.2-1.5c0.4-0.8,0.5-1.7,0.5-2.6
				c0-1,0-1.9,0-2.9c0-0.5-0.3-1-0.7-1.4c-0.2-0.2-0.4-0.4-0.7-0.6c-0.2-0.2-0.2-0.3,0-0.5c0.6-0.5,1-1,1.1-1.7
				c0.1-0.4,0.2-0.9,0.2-1.3c0-0.8,0-1.7,0-2.5c-0.1-1.1-0.4-2.2-1.2-3c-0.2-0.2-0.4-0.3-0.6-0.5c0.2,0,0.3-0.1,0.4-0.1
				c1.7,0,3.4,0,5.1,0c1.6,0,3.1,0,4.7,0c0.9,0,1.8,0.1,2.6,0.4c1.1,0.4,2,1.1,2.4,2.2c0.2,0.6,0.5,1.1,1,1.5
				c0.2,0.2,0.2,0.3-0.1,0.5c-0.4,0.3-0.7,0.8-0.9,1.3c-0.4,1.2-1.2,2-2.2,2.5c-0.2,0.1-0.4,0.2-0.7,0.4c0.4,0.1,0.6,0.3,0.9,0.3
				c0.8,0.2,1.6,0.6,2.3,1.1c0.9,0.6,1.7,1.4,2.3,2.4c0.8,1.3,1.3,2.6,1.4,4.1c0.2,1.4,0.1,2.7-0.3,4c-0.4,1.5-1,2.9-2,4.2
				c-1.2,1.6-2.8,2.7-4.6,3.3c-2.2,0.7-4.5,0.7-6.7-0.1c-1.1-0.4-2.2-1-3-1.9c-1.1-1.3-1.6-2.8-1.2-4.5c0.2-0.9,0.7-1.6,1.5-2.1
				c0.9-0.6,2.4-0.5,3.3,0.2c0.6,0.5,1,1.1,1.2,1.9c0,0.1,0,0.2,0,0.3c0,0.2-0.1,0.3-0.3,0.3c-0.5,0-0.9,0.1-1.3,0.4
				c-0.5,0.5-0.5,1.4-0.1,1.9c0.5,0.7,1.2,1.1,2.1,1.3c0.8,0.2,1.6,0.1,2.3-0.1c1.4-0.4,2.4-1.2,3.3-2.4c0.6-0.8,1-1.6,1.2-2.5
				c0.4-1.5,0.4-3,0.1-4.5c-0.2-1-0.6-1.9-1.1-2.8c-0.5-0.9-1.2-1.7-2-2.3c-1.1-0.8-2.4-1.2-3.8-1.2c-0.4,0-0.4,0.1-0.4,0.5
				c0,1.4,0,2.9,0,4.3c0,0.7,0.2,1.3,0.4,2s0.7,1.2,1.3,1.6C49.3,39.4,49.4,39.5,49.4,39.6L49.4,39.6z M47.5,26.1L47.5,26.1
				c0,0.2,0,0.4,0,0.6c0,0.5,0,1.1,0,1.6c0,0.2,0.1,0.4,0.4,0.4c0.4,0,0.8,0,1.2-0.1c0.7-0.1,1.2-0.5,1.4-1.2c0.2-0.8,0.2-1.7,0-2.5
				c-0.1-0.4-0.4-0.8-0.8-0.9c-0.5-0.2-1.1-0.3-1.6-0.3c-0.4,0-0.5,0.1-0.5,0.5C47.5,24.7,47.5,25.4,47.5,26.1z"/>
		</g>
		<g>
			<path class="st2" d="M107.6,39.8c-0.1,0-0.2,0-0.3,0c-1.4,0-2.9,0-4.3,0c-0.1,0-0.2-0.1-0.3-0.1c0-0.1,0-0.2,0.1-0.2
				c0.6-0.7,0.9-1.5,1-2.4c0-0.6,0-1.1,0-1.7c0-0.7-0.2-1.2-0.7-1.6c-0.2-0.2-0.2-0.3,0-0.5c0.5-0.5,0.7-1.2,0.7-1.9
				c0-0.7,0-1.3-0.1-2c-0.1-0.6-0.2-1.1-0.6-1.5c-0.1-0.1-0.2-0.2-0.3-0.3c0.2,0,0.2-0.1,0.3-0.1c1.4,0,2.8,0,4.3,0
				c0.1,0,0.2,0,0.2,0.1s-0.1,0.2-0.1,0.2c-0.3,0.4-0.5,0.7-0.5,1.2c0,1.1,0,2.1-0.1,3.2c0,0.2,0.1,0.3,0.3,0.3c0.7,0,1.3,0,2,0
				c0.2,0,0.3-0.1,0.3-0.3c0-0.9,0-1.8-0.1-2.8c0-0.5-0.3-1-0.4-1.5c0-0.1-0.1-0.2-0.2-0.3c1.6,0,3.2,0,4.8,0
				c-0.1,0.1-0.1,0.2-0.2,0.3c-0.5,0.5-0.7,1.1-0.8,1.8c0,0.8-0.1,1.6,0,2.3c0,0.6,0.3,1.1,0.7,1.5c0.1,0.1,0.2,0.2,0,0.3
				c-0.6,0.5-0.7,1.1-0.7,1.9c0,0.8,0,1.5,0,2.3c0,0.6,0.3,1.2,0.7,1.7c0.1,0.1,0.1,0.1,0.1,0.2c-0.1,0-0.2,0.1-0.2,0.1
				c-1.4,0-2.8,0-4.1,0c-0.3,0-0.3-0.1-0.2-0.3c0.4-0.6,0.5-1.2,0.5-1.9c0-1,0-1.9,0-2.9c0-0.4,0-0.4-0.4-0.4c-0.6,0-1.2,0-1.8,0
				c-0.3,0-0.4,0.1-0.4,0.4c0,0.6,0,1.3,0,1.9c0,0.6,0,1.1,0.1,1.7c0,0.5,0.2,0.9,0.5,1.3C107.6,39.6,107.6,39.6,107.6,39.8z"/>
		</g>
		<g>
			<path class="st2" d="M67.7,33.3c0.1,0,0.2,0,0.3,0c0.5,0,1,0,1.4-0.2c0.3-0.1,0.3-0.1,0.3,0.2c0,1.5,0.5,2.9,1.2,4.2
				c0.4,0.8,0.9,1.4,1.7,1.9l0.1,0.1c-0.1,0-0.1,0.1-0.2,0.1c-0.4,0-0.8,0-1.2,0c-0.7,0-1.3,0-2,0c-1,0.1-1.6-0.7-1.8-1.4
				c-0.2-0.8-0.3-1.6-0.4-2.4c-0.1-0.5-0.3-0.9-0.6-1.3c-0.2-0.3-0.5-0.4-0.8-0.4s-0.5,0-0.8,0c-0.2,0-0.3,0.1-0.3,0.3
				c0,1.2-0.1,2.5,0.1,3.7c0.1,0.6,0.3,1.1,0.8,1.4c0.1,0,0.1,0.1,0.1,0.2c-1.8,0-3.5,0-5.3,0c0.1-0.2,0.2-0.2,0.2-0.3
				c0.5-0.6,0.8-1.2,0.8-2c0.1-0.8,0-1.7,0-2.5c0-0.4-0.2-0.8-0.5-1.1s-0.3-0.3,0-0.6c0.5-0.5,0.6-1.1,0.6-1.7c0-0.8,0-1.6-0.1-2.4
				c0-0.5-0.3-1-0.7-1.4c-0.1-0.1-0.1-0.1-0.2-0.2c0.1,0,0.2,0,0.3,0c2.1,0,4.2,0,6.3,0c0.7,0,1.3,0.2,1.9,0.5
				c0.4,0.3,0.7,0.6,0.9,1.1c0.2,0.5,0.4,1,0.7,1.3c0.1,0.1,0.1,0.2,0,0.3c-0.3,0.5-0.7,1-1.1,1.5C69,32.7,68.3,33,67.7,33.3
				C67.8,33.2,67.8,33.2,67.7,33.3C67.7,33.2,67.7,33.3,67.7,33.3z M64.3,30.9L64.3,30.9c0,0.4,0,0.9,0,1.3c0,0.2,0.1,0.3,0.3,0.3
				c0.3,0,0.6,0,1,0c0.4-0.1,0.8-0.2,1-0.6c0.2-0.5,0.2-1.1,0.1-1.6c-0.2-0.7-0.6-1-1.3-1c-0.2,0-0.4,0-0.6,0s-0.3,0.1-0.3,0.3
				C64.3,30,64.3,30.5,64.3,30.9z"/>
		</g>
		<g>
			<path class="st2" d="M84.4,31.3c0,0.1,0,0.2,0,0.2c0,1.9,0,3.7,0,5.6c0,0.7,0.1,1.3,0.5,1.9c0.1,0.1,0.2,0.3,0.3,0.4
				c0.1,0.1,0.1,0.2,0.1,0.2c-0.1,0-0.2,0.1-0.3,0.1c-0.8,0-1.6,0-2.4,0c-0.2,0-0.4,0-0.6,0c-0.1,0-0.2,0-0.3-0.1c0,0,0-0.1-0.1-0.1
				c0.1-0.1,0.2-0.1,0.3-0.2c0.3-0.3,0.5-0.8,0.5-1.2c0-1.1,0.1-2.2,0.1-3.3c0-0.4-0.2-0.8-0.6-1c-0.2-0.1-0.2-0.2,0-0.4
				c0.5-0.5,0.6-1.1,0.6-1.7c0-0.8,0-1.6-0.1-2.4c0-0.6-0.2-1.1-0.6-1.6c0,0-0.1-0.1-0.1-0.2c0.1,0,0.2,0,0.2,0c1.3,0,2.5,0,3.8,0
				c0.2,0,0.3,0.2,0.4,0.3c0.2,0.5,0.4,1,0.7,1.6c0.6,1.3,1.1,2.7,1.7,4c0.2,0.6,0.5,1.1,0.7,1.7c0,0.1,0.1,0.2,0.2,0.3
				c0-0.1,0-0.2,0-0.2c0-1.8,0-3.5,0-5.3c0-0.6-0.1-1.3-0.5-1.8c-0.1-0.2-0.3-0.3-0.5-0.6c1.2-0.1,2.4,0,3.6,0
				c-0.1,0.1-0.1,0.2-0.1,0.2c-0.4,0.5-0.6,1.1-0.6,1.8c0,0.8,0,1.6,0,2.3c0,0.6,0.2,1.1,0.6,1.5c0.1,0.1,0.2,0.2,0,0.3
				c-0.6,0.5-0.7,1.2-0.7,1.9c0,0.9,0,1.9,0,2.8c0,0.4,0.1,0.7,0.3,1c0.1,0.1,0.1,0.2,0.1,0.3c-0.1,0-0.2,0.1-0.3,0.1
				c-0.9,0-1.9,0-2.8,0c-0.8,0-0.7-0.1-0.9-0.6c-0.7-1.6-1.3-3.1-1.9-4.7c-0.4-0.9-0.8-1.9-1.2-2.8C84.6,31.6,84.5,31.4,84.4,31.3
				L84.4,31.3z"/>
		</g>
		<g>
			<path class="st2" d="M76.3,27.5c0,0.1,0,0.1-0.1,0.1c-0.6,0.6-0.9,1.4-0.9,2.2c0,2.1,0,4.2,0,6.3c0,0.3,0.1,0.7,0.2,1
				c0.1,0.5,0.6,0.8,1.2,0.9c0.6,0,1.1-0.2,1.6-0.4c0.2-0.1,0.3-0.3,0.3-0.5c0-0.3,0-0.7,0-1c0-1.9,0-3.8,0-5.8c0-0.5-0.1-1-0.2-1.5
				c-0.1-0.4-0.3-0.8-0.6-1.1c-0.1-0.1-0.1-0.1-0.1-0.2c1.2-0.1,2.4-0.1,3.6,0v0.1c-0.1,0.1-0.2,0.2-0.3,0.2
				c-0.3,0.2-0.5,0.5-0.5,0.9c0,1.1,0,2.2,0,3.2c0,0.5,0.3,0.9,0.6,1.2c0.2,0.3,0.2,0.3,0,0.6c-0.5,0.4-0.6,1-0.6,1.6
				c0,1.2,0,2.3,0,3.5c0,0.1,0,0.2,0,0.3C80.3,39,80.2,39,80.2,39c-0.2-0.2-0.4-0.3-0.7-0.1c-0.2,0.1-0.4,0.3-0.6,0.4
				c-1.2,0.7-2.5,0.8-3.8,0.6c-0.8-0.1-1.5-0.5-2-1.1c-0.4-0.5-0.7-1.1-0.8-1.8c0-0.5-0.1-1.1-0.1-1.6c0-0.7-0.2-1.3-0.7-1.8
				c-0.1-0.1-0.1-0.2,0-0.4c0.6-0.6,0.8-1.4,0.7-2.2c0-0.7,0-1.5-0.2-2.2c-0.1-0.4-0.3-0.8-0.7-1.1c-0.1,0-0.1-0.1-0.1-0.2
				c0.1,0,0.1-0.1,0.2-0.1c0.4,0,0.7,0,1.1,0c1.1,0,2.3,0,3.4,0C76,27.5,76.1,27.5,76.3,27.5z"/>
		</g>
		<g>
			<path class="st2" d="M102.5,30.5c0,0.3,0,0.6,0,0.9c0,0.1-0.1,0.1-0.1,0.2c-0.1-0.1-0.1-0.1-0.2-0.2c-0.2-0.4-0.5-0.9-0.7-1.3
				c-0.3-0.5-0.7-0.8-1.3-1c-0.9-0.3-1.7-0.3-2.5,0.4c-0.4,0.3-0.6,0.8-0.7,1.3c0,0.3-0.1,0.6-0.1,0.8c-0.1,0.7,0.1,1.3,0.6,1.7
				c0.2,0.2,0.1,0.3,0,0.4c-0.4,0.4-0.6,0.8-0.6,1.4c0,0.9,0.2,1.7,0.6,2.5c0.4,0.7,1.5,1,2.2,0.8c0.5-0.2,1-0.4,1.4-0.7
				c0.3-0.2,0.5-0.6,0.7-0.9c0.2-0.3,0.3-0.7,0.5-1c0-0.1,0.1-0.1,0.1-0.2c0,0.1,0.1,0.1,0.1,0.2c0.2,0.5-0.1,1-0.3,1.4
				c-0.4,1-1.1,1.7-2.1,2.2S98,40,96.9,39.8c-0.5-0.1-1-0.2-1.5-0.5c-0.6-0.4-1.1-0.9-1.5-1.5c-0.5-0.8-0.7-1.6-0.8-2.5
				c-0.1-0.6-0.3-1.2-0.7-1.6c-0.1-0.2-0.1-0.3,0-0.5c0.6-0.7,0.7-1.5,0.9-2.4c0.3-1.1,0.8-2.1,1.7-2.8c0.4-0.3,0.9-0.6,1.5-0.7
				c0.8-0.2,1.5-0.3,2.3-0.1c0.4,0.1,0.8,0.3,1.2,0.3c0.6,0.1,1.3,0.2,1.9-0.1c0.2-0.1,0.3-0.1,0.3,0.2
				C102.4,28.6,102.5,29.6,102.5,30.5L102.5,30.5z"/>
		</g>
	</g>
	<g>
		<path class="st3" d="M60.5,44.3c0.1,0,0.1-0.1,0.2-0.1c0.7-0.1,1.3-0.3,2-0.4c0.8-0.1,1.6-0.3,2.4-0.3c1.6-0.1,3.2-0.2,4.8,0
			c1.2,0.1,2.5,0.3,3.7,0.5c1,0.2,1.9,0.4,2.9,0.6c0.1,0,0.2,0,0.3,0.1c0.7,0.2,1.4,0.3,2.1,0.5c0.8,0.2,1.6,0.4,2.4,0.6
			c1.1,0.3,2.2,0.6,3.3,0.9c0.6,0.1,1.2,0.3,1.8,0.4c0.5,0.1,1,0.2,1.6,0.3c0.7,0.1,1.3,0.2,2,0.3c1.1,0.1,2.1,0.3,3.2,0.3
			c1.2,0.1,2.4,0,3.6-0.1c0.5-0.1,1-0.1,1.5-0.2c1.1-0.2,2.2-0.4,3.3-0.7c1-0.3,2-0.6,3-1c1.1-0.5,2.1-1,3.2-1.5
			c1.2-0.7,2.3-1.4,3.4-2.1c0.1,0,0.1-0.1,0.2-0.1c0,0,0,0,0.1,0.1c-0.2,0.2-0.4,0.4-0.7,0.7c-0.6,0.6-1.3,1.2-2,1.7
			c-0.9,0.7-1.9,1.4-2.9,2s-2.1,1.2-3.2,1.8c-1.2,0.6-2.6,1.1-3.9,1.4c-1.4,0.3-2.8,0.6-4.3,0.7c-1.7,0.1-3.3,0-5-0.2
			c-1.9-0.3-3.9-0.7-5.7-1.2c-1-0.3-2.1-0.6-3.1-0.9c-1.2-0.4-2.4-0.8-3.7-1.1c-0.7-0.2-1.4-0.5-2.1-0.7c-1.4-0.4-2.7-0.8-4.1-1.1
			c-1.6-0.4-3.2-0.7-4.9-0.8c-1.2,0-2.4-0.1-3.7-0.1c-0.5,0-1,0.1-1.4,0.1C60.7,44.4,60.6,44.4,60.5,44.3L60.5,44.3z"/>
		<path class="st3" d="M62.9,44.7c0.1,0,0.2-0.1,0.3-0.1c1.3-0.1,2.6,0.1,3.8,0.4c0.6,0.2,1.2,0.4,1.8,0.6c0.5,0.2,1,0.5,1.5,0.7
			c0.5,0.3,1.1,0.5,1.6,0.8c0.7,0.4,1.4,0.8,2.1,1.2c0.5,0.3,1.1,0.5,1.6,0.8c0.3,0.1,0.5,0.2,0.8,0.4v0.1c-0.1,0-0.2,0-0.4,0
			c-1-0.1-2-0.3-3-0.7c-1.5-0.5-2.8-1.4-4.2-2.1c-0.8-0.4-1.6-0.8-2.5-1.1c-0.8-0.3-1.7-0.5-2.6-0.8c-0.2-0.1-0.5-0.1-0.7-0.2
			C63,44.9,63,44.8,62.9,44.7C62.9,44.8,62.9,44.8,62.9,44.7z"/>
	</g>
	<g>
		<path class="st4" d="M47.7,8.5c9.3,3.1,18.9,4.6,28.7,4.7h0.4c9.8,0,19.5-1.5,28.8-4.6c3.6,3.9,9.5,12.1,10.3,23.5
			c0,0.2,0.9,15.5-9.1,27.8c-3.3,4-7.7,7.6-9.5,9.1c-3.7,3-6.2,5-10.2,6.7c-3.6,1.5-7.2,2.3-10.6,2.3c-3.5,0-6.9-0.8-10.2-2.4
			c-13-6.2-27-21.2-28.5-37.8C36.5,23.6,43.9,12.9,47.7,8.5 M46.8,5c-1.9,2-13.7,14.8-12,33C36.3,54.9,50,71,65,78.2
			c3.8,1.8,7.7,2.7,11.5,2.7c3.9,0,7.8-0.9,11.7-2.5c4.3-1.8,7.1-4.1,10.9-7.1c2-1.6,6.5-5.2,10-9.5c10.9-13.4,9.8-29.9,9.8-29.9
			c-1-14.8-9.9-24.2-12.4-26.8c-6.6,2.3-16.9,5-29.7,5c-0.1,0-0.3,0-0.4,0C63.7,10.1,53.4,7.4,46.8,5L46.8,5z"/>
	</g>
	
		<linearGradient id="SVGID_3_" gradientUnits="userSpaceOnUse" x1="22.0496" y1="31.75" x2="46.0526" y2="31.75" gradientTransform="matrix(1 0 0 -1 0 102)">
		<stop  offset="0" style="stop-color:#B60502"/>
		<stop  offset="0.1178" style="stop-color:#BA0602"/>
		<stop  offset="0.2421" style="stop-color:#C70901"/>
		<stop  offset="0.3378" style="stop-color:#D60D01"/>
		<stop  offset="0.4489" style="stop-color:#C70B02"/>
		<stop  offset="0.6603" style="stop-color:#A10503"/>
		<stop  offset="0.6766" style="stop-color:#9E0503"/>
		<stop  offset="0.8534" style="stop-color:#AB0503"/>
		<stop  offset="1" style="stop-color:#B90502"/>
	</linearGradient>
	<path class="st5" d="M24.3,79.3c2.9-2.2,5.6-3.1,7.2-3.5c0.9-0.2,2.5-0.6,4.6-0.6c1.4,0,2.3,0.2,4.7,0.3c1.2,0.1,2.2,0.1,2.8,0.1
		c0.1,0,1.4,0.1,2.1-0.8c0.3-0.4,0.4-0.8,0.4-1c-0.3-2-0.5-4-0.8-6l-2.5-6.6l-10,1.8c-1.5,0.4-2.7,0.8-3.7,1.1c-0.7,0.3-2.6,1-5,2.4
		c-0.9,0.5-1.6,1-2.1,1.3c0.8,0.2,1.8,0.4,2.7,0.8c1.4,0.6,2.6,1.2,3.6,1.8c-0.3,0.4-0.7,1-1.1,1.8c-1,1.7-1.6,3.2-1.8,3.7
		C25.1,76.9,24.7,78,24.3,79.3z"/>
	
		<linearGradient id="SVGID_4_" gradientUnits="userSpaceOnUse" x1="35.6416" y1="31.8583" x2="46.0457" y2="31.8583" gradientTransform="matrix(1 0 0 -1 0 102)">
		<stop  offset="0" style="stop-color:#870502"/>
		<stop  offset="0.1458" style="stop-color:#930502"/>
		<stop  offset="0.4102" style="stop-color:#B40503"/>
		<stop  offset="0.4351" style="stop-color:#B70503"/>
		<stop  offset="0.5243" style="stop-color:#BA0605"/>
		<stop  offset="0.5987" style="stop-color:#C50B0C"/>
		<stop  offset="0.6676" style="stop-color:#D61217"/>
		<stop  offset="0.7234" style="stop-color:#EA1A24"/>
		<stop  offset="0.7873" style="stop-color:#E4171F"/>
		<stop  offset="0.8766" style="stop-color:#D10F13"/>
		<stop  offset="0.964" style="stop-color:#B90502"/>
	</linearGradient>
	<path class="st6" d="M46.1,72.9c-0.5-0.3-1.2-0.7-1.9-0.9c-3.1-0.9-5.8,0.6-6.5,1.1s-1.6,0.3-1.9-0.3c-0.2-0.4-0.1-0.9,0.2-1.3
		c0.7-0.8,1.9-1.9,3.7-2.7c2.4-1.1,4.4-1.9,5.6-1.9C45.5,68.7,45.8,71.1,46.1,72.9z"/>
	
		<linearGradient id="SVGID_5_" gradientUnits="userSpaceOnUse" x1="34.3" y1="40.1533" x2="127.0196" y2="40.1533" gradientTransform="matrix(1 0 0 -1 0 102)">
		<stop  offset="0" style="stop-color:#8E0502"/>
		<stop  offset="5.141178e-02" style="stop-color:#920602"/>
		<stop  offset="0.1057" style="stop-color:#9F0702"/>
		<stop  offset="0.1614" style="stop-color:#B40A01"/>
		<stop  offset="0.2177" style="stop-color:#D10E00"/>
		<stop  offset="0.2333" style="stop-color:#DB0F00"/>
		<stop  offset="0.2627" style="stop-color:#D20D00"/>
		<stop  offset="0.3655" style="stop-color:#B50902"/>
		<stop  offset="0.4552" style="stop-color:#A40603"/>
		<stop  offset="0.5216" style="stop-color:#9E0503"/>
		<stop  offset="0.5884" style="stop-color:#AB0703"/>
		<stop  offset="0.7111" style="stop-color:#CD0C01"/>
		<stop  offset="0.7414" style="stop-color:#D60D01"/>
		<stop  offset="0.7548" style="stop-color:#CF0C01"/>
		<stop  offset="0.8119" style="stop-color:#B50901"/>
		<stop  offset="0.8709" style="stop-color:#A30702"/>
		<stop  offset="0.9323" style="stop-color:#980502"/>
		<stop  offset="1" style="stop-color:#940502"/>
	</linearGradient>
	<path class="st7" d="M34.3,59.5l1.4,13.4c0.4-0.7,1.2-1.8,2.3-2.8c1.1-0.9,3.2-2.4,10.5-3.2c2.3-0.2,5.5-0.4,9.3-0.3
		c4.8,0.1,10.2,0.5,16,1.4c6.8,1,12.8,2.5,17.9,4c3.4,1,5.2,1.1,6.4,1.3c4.8,0.7,10.6,1.6,17.4,0c4.6-1.1,7.3-2.8,8.1-3.3
		c1.5-1,2.6-1.9,3.3-2.6c-0.1,0-1.2-0.7-1.2-0.7c-2-1.2-2.3-1.3-2.6-1.6c-0.6-0.3-1.4-0.9-2.3-1.6c0.6-1,1.3-2.3,2.1-3.7
		c1.1-2,1.6-3,2-4.3c0.2-0.7,0.3-1.4,0.4-1.8c-1.9,1.3-5,3.1-9.1,4c-2.2,0.5-4.3,0.6-7.5,0.5c-3.9-0.1-9.6-0.7-16.7-2.5
		c-4.7-1.6-11.7-3.6-20.3-5c-4.9-0.8-8.7-1.2-12.9-1.2c-3.5,0-6.8,0.4-10.2,1.1c-1.1,0.2-4.1,0.9-7.6,2.5c-2.5,1.1-3.7,2-4.7,3.1
		C35.2,57.5,34.6,58.7,34.3,59.5z"/>
	<g>
		<g>
			<path class="st8" d="M43.4,61.4c0.1,0.3,0,0.6-0.3,0.8c-0.4,0.4-1,0.4-1.4,0.2c-0.5-0.4-0.8-1-0.6-1.6c0.1-0.3,0.3-0.6,0.6-0.8
				c0.5-0.3,0.9-0.2,1.4,0.1c0.3,0.2,0.5,0.4,0.8,0.6c0.3,0.2,0.9,0.2,1.1-0.1c0.2-0.2,0.1-0.4-0.1-0.7c-0.1-0.1-0.5-0.2-0.6,0
				c-0.1,0.1-0.2,0.3-0.4,0.1c0,0,0.1-0.3,0.2-0.4c0.3-0.2,0.8-0.1,1.1,0.2s0.2,0.7,0,1.1c-0.3,0.4-1,0.5-1.4,0.2
				c-0.3-0.2-0.5-0.4-0.8-0.6c-0.4-0.3-1-0.3-1.3,0c-0.4,0.4-0.5,0.9-0.2,1.4c0.2,0.3,0.5,0.5,0.9,0.5s0.7-0.2,0.8-0.6
				C43.3,61.6,43.4,61.5,43.4,61.4z"/>
			<path class="st8" d="M39.3,63.4c0.1,0,0.2,0,0.3,0c0.6,0.1,1-0.2,1.2-0.7c0.1-0.5-0.1-1.2-0.8-1.3c-0.5-0.1-1,0.1-1.2,0.6
				c-0.1,0.3-0.1,0.6-0.2,0.9c0,0.2-0.1,0.5-0.2,0.7c-0.1,0.4-0.4,0.6-0.8,0.6c-0.4,0.1-0.8-0.1-0.9-0.5c-0.1-0.4,0.1-0.9,0.4-1
				c0.1,0,0.1-0.1,0.2-0.1c0.1,0,0.2,0.1,0.3,0.1c-0.1,0.1-0.1,0.1-0.2,0.2c-0.4,0.2-0.5,0.3-0.5,0.7c0.1,0.4,0.4,0.6,0.8,0.4
				c0.3-0.2,0.5-0.5,0.6-0.8c0.1-0.4,0.1-0.8,0.2-1.1c0.1-0.6,0.5-0.9,1.1-1c0.5,0,1.1,0.3,1.3,0.8c0.3,0.5,0.2,1-0.2,1.5
				c-0.3,0.3-1.1,0.5-1.4,0.2C39.4,63.5,39.4,63.4,39.3,63.4z"/>
		</g>
		<g>
			<path class="st8" d="M113.8,65.4c0,0.9-0.8,1.4-1.6,1.2c-0.1,0-0.3-0.2-0.4-0.3c0,0,0-0.1,0-0.2c0.1,0,0.1,0,0.2,0
				c0,0,0.1,0,0.1,0.1c0.4,0.2,0.8,0.2,1.1,0c0.4-0.2,0.4-0.6,0.3-1c-0.2-0.8-0.8-1-1.5-0.8c-0.2,0.1-0.4,0.3-0.5,0.6
				c-0.2,0.4-0.3,0.8-0.5,1.2c-0.3,0.6-1,0.7-1.5,0.3c-0.5-0.4-0.3-1.1,0.1-1.3c0.2-0.1,0.5-0.2,0.7,0c0,0,0.1,0.1,0.1,0.2l-0.1,0.1
				c-0.1,0-0.1,0-0.2,0c-0.3,0-0.5,0.2-0.5,0.5s0.2,0.5,0.5,0.5c0.4,0,0.6-0.1,0.7-0.4s0.3-0.7,0.4-1c0.3-0.9,1.4-1.1,2.1-0.5
				C113.6,64.6,113.8,64.9,113.8,65.4z"/>
			<path class="st8" d="M116.2,65.4c0,0.3-0.2,0.6-0.5,0.7c-0.6,0.2-1.1,0-1.5-0.4c-0.4-0.5-0.3-1.4,0.2-1.9
				c0.4-0.4,1.4-0.4,1.8,0.1c0.2,0.3,0.4,0.5,0.7,0.7c0.2,0.2,0.5,0.4,0.8,0.4s0.5-0.1,0.5-0.4c0-0.2,0-0.4-0.1-0.5
				c-0.1-0.2-0.4-0.2-0.6-0.2c-0.1,0-0.2,0-0.3,0c0.1-0.1,0.2-0.2,0.3-0.3c0.3-0.1,0.6-0.1,0.8,0.2c0.3,0.2,0.3,0.5,0.2,0.9
				c-0.1,0.3-0.4,0.5-0.7,0.6c-0.4,0.1-0.7-0.1-0.9-0.3c-0.3-0.3-0.5-0.6-0.8-0.8c-0.4-0.4-0.9-0.5-1.3-0.2
				c-0.5,0.3-0.6,0.8-0.4,1.4c0.3,0.7,1.2,0.8,1.7,0.3C116.1,65.5,116.1,65.4,116.2,65.4z"/>
			<path class="st8" d="M113.7,64.4c-0.2-0.2-0.3-0.4-0.2-0.7c0-0.1,0.1-0.1,0.1-0.1s0.1,0,0.1,0.1
				C113.9,63.8,113.9,64.1,113.7,64.4z"/>
		</g>
	</g>
	<g>
		<g>
			<path class="st8" d="M125.9,67c-3.1,2.5-6.8,4.1-10.7,5c-1.9,0.5-3.9,0.8-5.9,0.9c-1,0.1-2,0.1-3,0.1s-2,0-3-0.1
				c-7.9-0.5-15.5-2.7-23.2-4.5c-3.8-0.9-7.6-1.7-11.5-2.1c-1.9-0.2-3.9-0.4-5.8-0.5c-1.9-0.1-3.9-0.1-5.9-0.1
				c-3.9,0-7.8,0.3-11.7,0.9c-1.9,0.3-3.8,0.8-5.6,1.5c-0.9,0.3-1.7,0.8-2.5,1.4c-0.4,0.3-0.7,0.6-1,0.9s-0.5,0.8-0.6,1.1h-0.6
				c0.1-0.6,0.4-1.1,0.7-1.5s0.7-0.8,1.1-1.1c0.8-0.6,1.7-1.1,2.6-1.5c1.8-0.8,3.8-1.3,5.7-1.7c3.9-0.7,7.9-0.9,11.8-1
				c2,0,3.9,0,5.9,0.1c2,0.1,3.9,0.3,5.9,0.5c3.9,0.5,7.8,1.2,11.6,2.1c7.6,1.9,15.2,4.2,23,4.7c1,0.1,1.9,0.1,2.9,0.1s1.9,0,2.9,0
				c1.9-0.1,3.9-0.4,5.8-0.9c3.8-0.9,7.5-2.3,10.6-4.7L125.9,67z"/>
		</g>
		<g>
			<path class="st8" d="M34.5,60.6c0.3-1,0.8-1.9,1.5-2.6c0.2-0.2,0.3-0.4,0.5-0.6l0.6-0.5c0.4-0.4,0.8-0.6,1.2-0.9
				c1.6-1.1,3.5-2,5.4-2.7c3.8-1.3,7.8-1.8,11.7-2.1c2-0.2,4-0.1,6-0.2c2,0,4,0.3,6,0.5c2,0.3,3.9,0.6,5.9,0.9
				c2,0.3,3.9,0.7,5.9,1.1c3.9,0.9,7.7,2.2,11.5,3.2c3.8,1.1,7.7,1.8,11.6,2.2c3.9,0.3,7.9,0.5,11.8,0s7.8-1.6,10.9-3.9l0.4,0.5
				c-3.3,2.4-7.2,3.6-11.2,4.2c-2,0.3-4,0.4-6,0.4s-4-0.1-6-0.3c-4-0.4-7.9-1.1-11.7-2.2c-3.8-1.1-7.6-2.3-11.4-3.2
				c-1.9-0.5-3.8-0.9-5.8-1.2s-3.9-0.6-5.9-0.9c-2-0.3-3.9-0.6-5.8-0.6c-2,0-3.9-0.1-5.9,0.1c-3.9,0.2-7.9,0.7-11.6,1.9
				c-1.9,0.6-3.7,1.4-5.3,2.5c-0.4,0.3-0.8,0.5-1.2,0.9L37,57.6c-0.2,0.2-0.3,0.4-0.5,0.5c-0.6,0.7-1.2,1.5-1.5,2.5L34.5,60.6z"/>
		</g>
	</g>
	<path class="st9" d="M23.3,68c1.9-1.1,7-3.8,11.1-4.2"/>
	<g>
		<path class="st8" d="M25.3,77.7c0.7-0.6,1.4-1.2,2.2-1.7c0.8-0.5,1.6-0.9,2.5-1.2c1.7-0.7,3.5-1.1,5.3-1.4
			c0.9-0.1,1.9-0.1,2.8-0.1c1,0.1,1.8,0.2,2.7,0.2s1.8,0.1,2.7,0.1s1.8,0,2.6-0.4c-0.7,0.6-1.7,0.7-2.6,0.9
			c-0.9,0.1-1.8,0.1-2.7,0.2s-1.9,0-2.7-0.1c-0.9,0-1.8,0-2.6,0.1c-1.7,0.2-3.5,0.6-5.2,1.1C28.5,76.1,26.8,76.8,25.3,77.7z"/>
	</g>
	<g>
		<path class="st2" d="M56.5,54.9c-0.6,0-1.2,0-1.8,0c-0.7,0-1.3,0.1-2,0.2c-0.3,0-0.7,0.2-1,0.3s-0.3,0.5,0,0.7
			c0.3,0.3,0.6,0.2,0.9,0.3c0.3,0.1,0.3,0.1,0.2,0.4c-0.3,0.7-1.4,0.9-1.9,0.3c-0.3-0.3-0.4-0.7-0.3-1.2c0.2-0.7,0.5-1.3,1.2-1.6
			c0.4-0.2,0.8-0.3,1.2-0.3c1.1,0,2.3,0,3.4,0c0.4,0,0.7-0.1,1-0.3s0.6-0.3,0.9-0.4c0.4-0.1,0.7,0.2,0.6,0.6
			c-0.1,0.3-0.3,0.6-0.6,0.7c-0.4,0.1-0.6,0.3-0.7,0.7c-0.2,0.9-0.4,1.7-0.6,2.6c-0.1,0.5-0.2,1-0.4,1.4c-0.2,0.6-0.3,1.2-0.5,1.7
			c-0.4,1-1.1,1.8-2,2.4c-0.4,0.2-0.9,0.3-1.3,0.5c-0.6,0.3-1.2,0.2-1.8,0.2c-0.6-0.1-1.1-0.5-1-1.1s0.7-0.8,1.3-0.7
			c0.1,0,0.1,0.1,0.1,0.2c0.1,0.6,0.3,0.7,0.9,0.7c0.7,0,1.2-0.4,1.7-0.9c0.5-0.7,0.7-1.4,0.9-2.2s0.3-1.6,0.6-2.4
			C55.9,56.9,56.2,56,56.5,54.9C56.5,55,56.5,55,56.5,54.9z"/>
		<path class="st2" d="M90.7,65c0.3-0.2,0.5-0.5,0.8-0.7c0.7-0.6,1.4-1,2.3-1.1c0.4,0,0.8,0,1.1,0.3c0.4,0.3,0.4,0.8,0.1,1.4
			c-0.4,0.7-0.8,1.5-1.2,2.2c-0.1,0.3-0.2,0.6-0.3,0.8c-0.1,0.2,0,0.4,0.2,0.3c0.3-0.1,0.6-0.3,0.9-0.4c0.1-0.1,0.3-0.1,0.4-0.1
			c0.3,0.1,0.3,0.3,0,0.5c-0.5,0.3-1,0.6-1.6,0.7c-0.3,0-0.6,0-0.9,0c-0.4-0.1-0.7-0.4-0.5-0.9s0.4-1,0.7-1.6
			c0.3-0.6,0.6-1.1,0.8-1.6c0.1-0.2,0.2-0.4,0.2-0.6c0.1-0.2,0-0.3-0.2-0.3c-0.4,0-0.7,0.1-1.1,0.3c-0.9,0.5-1.6,1.2-2.2,2.1
			c-0.3,0.5-0.6,1-0.9,1.5C89.2,67.9,89.1,68,89,68c-0.2,0-0.5,0-0.7-0.1c-0.3,0-0.3-0.2-0.2-0.4c0.1-0.4,0.3-0.7,0.5-1.1
			c0.3-0.9,0.7-1.7,1-2.6c0.1-0.2,0-0.5-0.1-0.6c-0.2-0.2-0.4,0-0.6,0.1c-0.1,0.1-0.3,0.2-0.4,0.3s-0.3,0.1-0.4,0
			c-0.1,0-0.2-0.2-0.1-0.3c0.6-0.6,1.2-1,2.1-1c0.6,0,0.9,0.6,0.8,1.2c-0.1,0.4-0.3,0.8-0.4,1.2C90.7,64.8,90.7,64.9,90.7,65
			L90.7,65z"/>
		<path class="st2" d="M70.7,62.4c-0.4,0.3-0.7,0.5-1.1,0.8c-0.6,0.4-1.3,0.7-2.1,0.7c-0.4,0-0.8-0.3-0.9-0.7
			c-0.2-0.7,0-1.3,0.3-1.9c0.3-0.5,0.7-1,1.1-1.4c1-0.9,2.1-1.3,3.4-1c0.3,0.1,0.5,0.2,0.7-0.2c0-0.1,0.2-0.1,0.2-0.1
			c0.2,0,0.5,0,0.7,0.1c0.2,0,0.2,0.1,0.2,0.3c-0.3,0.8-0.6,1.5-0.8,2.3c-0.2,0.6-0.3,1.2-0.5,1.9c-0.1,0.4,0.2,0.6,0.6,0.5
			c0.3-0.1,0.5-0.3,0.8-0.4c0.1,0,0.2-0.1,0.3-0.1c0.1,0,0.2,0.1,0.3,0.2c0,0,0,0.2-0.1,0.2c-0.3,0.2-0.6,0.4-0.9,0.6
			c-0.4,0.2-0.8,0.4-1.3,0.4s-0.9-0.3-0.9-0.8c0-0.3,0-0.6,0-0.9C70.7,62.7,70.7,62.6,70.7,62.4z M70.6,59.3c-0.5,0-1.3,0.4-1.6,0.8
			c-0.3,0.3-0.5,0.7-0.7,1c-0.3,0.4-0.5,0.9-0.4,1.4c0,0.4,0.2,0.6,0.6,0.5s0.7-0.3,1-0.5c0.9-0.6,1.6-1.3,1.9-2.4
			c0.1-0.4,0-0.7-0.4-0.9C70.9,59.3,70.8,59.3,70.6,59.3z"/>
		<path class="st2" d="M104.4,66.9c-0.1,1.3-0.5,2.3-1.3,3c-0.6,0.5-1.3,0.7-2.1,0.7c-1-0.1-1.8-0.5-2.4-1.4
			c-0.4-0.7-0.4-1.5-0.2-2.3c0.2-0.7,0.5-1.3,1.1-1.8c0.9-0.8,1.9-1,3-0.7c0.8,0.2,1.3,0.7,1.7,1.5
			C104.4,66.3,104.4,66.7,104.4,66.9z M103,66.8c0-0.6,0-0.8-0.2-1.3s-0.8-0.7-1.3-0.5c-0.6,0.2-0.9,0.6-1.2,1.1
			c-0.4,0.8-0.6,1.6-0.6,2.5c0,0.4,0.1,0.8,0.3,1.1c0.1,0.1,0.3,0.3,0.5,0.4c0.5,0.2,1,0,1.4-0.4C102.7,68.9,103,67.9,103,66.8z"/>
		<path class="st2" d="M77.3,65.4c-0.1,0-0.2,0-0.3,0c-0.5,0-0.8-0.3-0.7-0.8c0.1-0.5,0.2-1,0.3-1.5c0.4-1.3,0.7-2.6,1.1-3.9
			c0.1-0.4,0.2-0.8,0.3-1.1c0-0.1,0-0.1,0-0.2c0.1-0.7,0-0.9-0.7-1.1c-0.1,0-0.2,0-0.3-0.1c-0.1,0-0.1-0.1-0.2-0.2
			c0.1,0,0.2-0.1,0.2-0.1c0.2,0,0.5,0,0.7,0c0.6,0,1.1,0,1.7,0c0.3,0,0.4,0.1,0.3,0.4c-0.2,0.7-0.5,1.4-0.7,2
			c-0.2,0.8-0.5,1.6-0.7,2.3c-0.2,0.6-0.4,1.2-0.6,1.9c-0.1,0.3-0.2,0.7-0.3,1.1c-0.1,0.5,0.2,0.7,0.6,0.5c0.3-0.1,0.5-0.3,0.8-0.4
			c0.1,0,0.3,0,0.4,0.1c0,0,0,0.2,0,0.3c-0.5,0.4-1,0.6-1.6,0.8C77.6,65.5,77.4,65.4,77.3,65.4L77.3,65.4z"/>
		<path class="st2" d="M63.6,58.3c-0.8,0-0.8,0-1,0.7c-0.2,0.8-0.4,1.6-0.6,2.4c-0.1,0.3-0.1,0.6-0.1,0.9c0,0.2,0.1,0.3,0.3,0.3
			c0.3-0.1,0.5-0.2,0.7-0.3s0.3-0.2,0.4-0.3c0.1,0,0.2,0,0.3,0c0.1,0.1,0.1,0.2,0,0.3c-0.4,0.3-0.8,0.6-1.2,0.8s-0.8,0.3-1.2,0.3
			s-0.6-0.2-0.7-0.6c0-0.3,0-0.7,0.1-1c0.1-0.7,0.3-1.4,0.5-2.2c0.1-0.3,0.2-0.7,0.2-1c0.1-0.4,0-0.5-0.4-0.5c-0.1,0-0.3,0-0.3-0.2
			s0.1-0.2,0.3-0.2c0.6,0,0.6,0,0.7-0.6c0-0.1,0-0.2,0.1-0.3c0.1-0.4,0.1-0.4,0.5-0.4c0.2,0,0.4,0,0.7,0c0.2,0,0.3,0.1,0.2,0.4
			c-0.1,0.3-0.1,0.5-0.2,0.8c-0.1,0.2,0,0.3,0.2,0.3s0.5,0,0.7,0.1c0.1,0,0.1,0.1,0.2,0.2c-0.1,0.1-0.1,0.2-0.2,0.3
			C63.8,58.3,63.7,58.3,63.6,58.3z"/>
		<path class="st2" d="M85.4,65.9L85.4,65.9c-0.8,0.6-1.5,0.9-2.4,0.8c-0.6-0.1-0.9-0.5-0.7-1.1c0.2-0.5,0.4-1,0.6-1.6
			s0.5-1.1,0.7-1.7c0.1-0.1,0-0.3,0-0.5c-0.2,0-0.4,0-0.5,0S82.8,62,82.7,62s-0.3,0-0.4,0c-0.1-0.1-0.2-0.2,0-0.3
			c0.7-0.4,1.4-0.7,2.3-0.6c0.6,0.1,0.8,0.5,0.5,1c-0.2,0.6-0.5,1.1-0.7,1.7c-0.2,0.6-0.5,1.2-0.7,1.8c-0.2,0.4,0,0.6,0.3,0.4
			c0.3-0.1,0.5-0.2,0.8-0.3C85.1,65.6,85.2,65.6,85.4,65.9z"/>
		<path class="st2" d="M85,59.1c-0.4,0-0.7-0.2-0.9-0.5c-0.3-0.4,0-0.8,0.4-0.9c0.4,0,0.7,0.1,0.9,0.4c0.2,0.2,0.2,0.4,0.1,0.7
			C85.4,59,85.2,59.1,85,59.1z"/>
	</g>
</g>
<rect y="85.5" class="st10" width="150" height="14.5"/>
<g>
	<path class="st11" d="M146.2,85.1c-0.5,0.8-0.5,1.5-0.1,2.2c0.3,0.5,0.4,1,0.6,1.5c0.3,0.9,0.2,1.4-0.7,1.8c-0.7,0.4-1.4,0.7-2,1.1
		c-0.3,0.2-0.5,0.5-0.6,0.8c-0.2,0.8-0.3,1.5-0.4,2.3c-0.2,0.9-0.6,1.3-1.5,1.2c-0.8-0.1-1.5-0.3-2.3-0.3c-0.3,0-0.7,0.1-0.9,0.3
		c-0.6,0.5-1.1,1.1-1.7,1.6c-0.6,0.6-1.2,0.6-1.9,0c-0.6-0.5-1.1-1.1-1.7-1.6c-0.2-0.2-0.6-0.3-0.9-0.3c-0.7,0.1-1.4,0.2-2.1,0.3
		c-1,0.1-1.6-0.3-1.8-1.3c-0.1-0.5-0.2-1.1-0.2-1.6c0-0.8-0.4-1.3-1.1-1.6c-0.4-0.2-0.8-0.4-1.3-0.6c-1.1-0.6-1.3-1.2-0.8-2.3
		c0.3-0.6,0.6-1.2,0.9-1.9c0.1-0.3,0.1-0.6,0-0.9c-0.3-0.7-0.7-1.3-1-2c-0.5-0.9-0.3-1.6,0.7-2.1c0.6-0.3,1.2-0.6,1.8-0.9
		c0.5-0.2,0.8-0.6,0.8-1.2c0.1-0.7,0.2-1.4,0.3-2.2c0.2-0.8,0.6-1.1,1.5-1.1c0.7,0.1,1.5,0.2,2.3,0.4c0.5,0.1,0.8,0,1.1-0.3
		c0.6-0.6,1.2-1.1,1.8-1.7c0.6-0.5,1.2-0.5,1.8,0c0.6,0.6,1.1,1.2,1.7,1.7c0.2,0.2,0.6,0.3,0.9,0.3c0.7-0.1,1.4-0.2,2.1-0.3
		c1.1-0.2,1.6,0.3,1.8,1.3c0,0.2,0.1,0.4,0.1,0.6c-0.1,1.6,0.7,2.5,2.1,2.9c0.2,0.1,0.5,0.2,0.7,0.4c0.7,0.4,1,1.1,0.6,1.9
		C146.7,84.1,146.5,84.7,146.2,85.1z"/>
	<path class="st12" d="M137.9,81.1c0-0.4,0.1-0.8,0.3-1c0.2-0.3,0.5-0.4,0.9-0.4s0.7,0.1,0.9,0.4s0.4,0.6,0.4,1.1s-0.1,0.9-0.4,1.1
		s-0.5,0.4-0.9,0.4c-0.3,0-0.6-0.1-0.9-0.4S137.9,81.6,137.9,81.1z M139.1,80.1c-0.2,0-0.3,0.1-0.4,0.2c-0.1,0.2-0.2,0.4-0.2,0.8
		s0.1,0.6,0.2,0.8s0.3,0.2,0.4,0.2c0.2,0,0.3-0.1,0.4-0.2c0.1-0.2,0.2-0.4,0.2-0.8s-0.1-0.6-0.2-0.8S139.3,80.1,139.1,80.1z
		 M139.1,85.6l3.1-6h0.6l-3.1,6H139.1z M141.6,84.1c0-0.4,0.1-0.8,0.3-1c0.2-0.3,0.5-0.4,0.9-0.4s0.7,0.1,0.9,0.4s0.4,0.6,0.4,1.1
		s-0.1,0.9-0.4,1.1s-0.5,0.4-0.9,0.4c-0.3,0-0.6-0.1-0.9-0.4S141.6,84.6,141.6,84.1z M142.8,83.1c-0.2,0-0.3,0.1-0.4,0.2
		c-0.1,0.2-0.2,0.4-0.2,0.8s0.1,0.6,0.2,0.8s0.3,0.2,0.4,0.2c0.2,0,0.3-0.1,0.4-0.2c0.1-0.2,0.2-0.4,0.2-0.8s-0.1-0.6-0.2-0.8
		S143,83.1,142.8,83.1z"/>
	<path class="st12" d="M128.9,90.6c0-1,0.3-1.7,0.8-2.2s1.2-0.8,2-0.8c0.5,0,1,0.1,1.4,0.4s0.7,0.6,1,1.1s0.3,1,0.3,1.5
		c0,0.6-0.1,1.1-0.4,1.6s-0.6,0.8-1,1s-0.9,0.4-1.4,0.4s-1-0.1-1.4-0.4s-0.7-0.6-1-1.1S128.9,91.1,128.9,90.6z M129.6,90.7
		c0,0.7,0.2,1.2,0.6,1.6s0.8,0.6,1.4,0.6c0.6,0,1-0.2,1.4-0.6s0.6-1,0.6-1.7c0-0.5-0.1-0.9-0.2-1.2c-0.2-0.3-0.4-0.6-0.7-0.8
		c-0.3-0.2-0.6-0.3-1-0.3c-0.5,0-1,0.2-1.4,0.6S129.6,89.8,129.6,90.7z"/>
	<path class="st12" d="M134.6,93.3v-5.7h3.9v0.7h-3.1v1.8h2.7v0.7h-2.7v2.6L134.6,93.3L134.6,93.3z"/>
	<path class="st12" d="M138.8,93.3v-5.7h3.9v0.7h-3.1v1.8h2.7v0.7h-2.7v2.6L138.8,93.3L138.8,93.3z"/>
	<g>
		<path d="M131.2,84.2h-0.7v-4.5c-0.2,0.2-0.4,0.3-0.7,0.5s-0.5,0.3-0.7,0.4v-0.7c0.4-0.2,0.7-0.4,1-0.7c0.3-0.3,0.5-0.5,0.6-0.8
			h0.5L131.2,84.2L131.2,84.2z"/>
		<path d="M133,81.3c0-0.7,0.1-1.2,0.2-1.6c0.1-0.4,0.3-0.7,0.6-1c0.3-0.2,0.6-0.3,1-0.3c0.3,0,0.6,0.1,0.8,0.2s0.4,0.3,0.6,0.5
			c0.2,0.2,0.3,0.5,0.4,0.9s0.1,0.8,0.1,1.4c0,0.7-0.1,1.2-0.2,1.6c-0.1,0.4-0.3,0.7-0.6,1c-0.3,0.2-0.6,0.3-1,0.3
			c-0.6,0-1-0.2-1.3-0.6C133.2,83.2,133,82.4,133,81.3z M133.8,81.3c0,0.9,0.1,1.6,0.3,1.9s0.5,0.5,0.8,0.5s0.6-0.2,0.8-0.5
			s0.3-0.9,0.3-1.9c0-0.9-0.1-1.6-0.3-1.9s-0.5-0.5-0.8-0.5s-0.6,0.1-0.8,0.4C133.9,79.8,133.8,80.4,133.8,81.3z"/>
	</g>
</g>
<g>
	<path d="M32.3,95.5v-5.7h0.8v2.4h3v-2.4h0.8v5.7h-0.8v-2.7h-3v2.7H32.3z"/>
	<path d="M37.5,95.5l2.2-5.7h0.8l2.3,5.7H42l-0.7-1.7h-2.4l-0.6,1.7H37.5z M39.1,93.2h1.9l-0.6-1.6c-0.2-0.5-0.3-0.9-0.4-1.2
		c-0.1,0.4-0.2,0.7-0.3,1.1L39.1,93.2z"/>
	<path d="M43.4,95.5v-5.7h0.8l3,4.5v-4.5h0.7v5.7h-0.8l-3-4.5v4.5H43.4z"/>
	<path d="M51.9,93.3v-0.7l2.4,0v2.1c-0.4,0.3-0.8,0.5-1.2,0.7c-0.4,0.1-0.8,0.2-1.2,0.2c-0.6,0-1.1-0.1-1.5-0.4
		c-0.5-0.2-0.8-0.6-1-1c-0.2-0.5-0.4-1-0.4-1.5c0-0.6,0.1-1.1,0.3-1.6c0.2-0.5,0.6-0.8,1-1.1s0.9-0.4,1.5-0.4c0.4,0,0.8,0.1,1.1,0.2
		c0.3,0.1,0.6,0.3,0.8,0.6c0.2,0.2,0.3,0.6,0.4,0.9l-0.7,0.2c-0.1-0.3-0.2-0.5-0.3-0.7c-0.1-0.2-0.3-0.3-0.5-0.4
		c-0.2-0.1-0.5-0.2-0.8-0.2c-0.3,0-0.6,0.1-0.9,0.2s-0.5,0.2-0.6,0.4s-0.3,0.4-0.4,0.6c-0.1,0.4-0.2,0.7-0.2,1.2
		c0,0.5,0.1,0.9,0.3,1.3s0.4,0.6,0.8,0.8c0.3,0.2,0.7,0.3,1.1,0.3c0.3,0,0.6-0.1,1-0.2c0.3-0.1,0.5-0.3,0.7-0.4v-1.1H51.9z"/>
	<path d="M55.2,92.7c0-1,0.3-1.7,0.8-2.2c0.5-0.5,1.2-0.8,2-0.8c0.5,0,1,0.1,1.4,0.4c0.4,0.3,0.7,0.6,1,1.1c0.2,0.5,0.3,1,0.3,1.5
		c0,0.6-0.1,1.1-0.4,1.6c-0.2,0.5-0.6,0.8-1,1c-0.4,0.2-0.9,0.4-1.4,0.4c-0.5,0-1-0.1-1.4-0.4c-0.4-0.3-0.7-0.6-1-1.1
		C55.3,93.7,55.2,93.2,55.2,92.7z M56,92.7c0,0.7,0.2,1.2,0.6,1.6c0.4,0.4,0.8,0.6,1.4,0.6c0.6,0,1-0.2,1.4-0.6
		c0.4-0.4,0.6-1,0.6-1.7c0-0.5-0.1-0.9-0.2-1.2s-0.4-0.6-0.7-0.8s-0.6-0.3-1-0.3c-0.5,0-1,0.2-1.4,0.6C56.2,91.3,56,91.9,56,92.7z"
		/>
	<path d="M65.4,89.8h0.8v3.3c0,0.6-0.1,1-0.2,1.4c-0.1,0.3-0.4,0.6-0.7,0.8c-0.3,0.2-0.8,0.3-1.3,0.3c-0.5,0-1-0.1-1.3-0.3
		c-0.3-0.2-0.6-0.5-0.7-0.8c-0.1-0.4-0.2-0.8-0.2-1.4v-3.3h0.8v3.3c0,0.5,0,0.9,0.1,1.1c0.1,0.2,0.3,0.4,0.5,0.5
		c0.2,0.1,0.5,0.2,0.8,0.2c0.6,0,1-0.1,1.2-0.4c0.2-0.3,0.4-0.7,0.4-1.5V89.8z"/>
	<path d="M68.9,95.5v-5.1H67v-0.7h4.5v0.7h-1.9v5.1H68.9z"/>
	<path d="M71.5,95.5v-0.8h0.8v0.8c0,0.3-0.1,0.5-0.2,0.7c-0.1,0.2-0.3,0.3-0.5,0.4l-0.2-0.3c0.1-0.1,0.3-0.2,0.3-0.3
		c0.1-0.1,0.1-0.3,0.1-0.5H71.5z"/>
	<path d="M75.9,95.5v-5.7h0.8v2.8l2.8-2.8h1l-2.4,2.3l2.5,3.4h-1l-2-2.9l-0.9,0.9v2H75.9z"/>
	<path d="M80.6,95.5l2.2-5.7h0.8l2.3,5.7h-0.9l-0.7-1.7H82l-0.6,1.7H80.6z M82.2,93.2h1.9l-0.6-1.6c-0.2-0.5-0.3-0.9-0.4-1.2
		c-0.1,0.4-0.2,0.7-0.3,1.1L82.2,93.2z"/>
	<path d="M86.6,95.5v-5.7h2c0.4,0,0.8,0,1,0.1c0.3,0.1,0.6,0.2,0.8,0.4c0.3,0.3,0.5,0.6,0.7,1c0.1,0.4,0.2,0.9,0.2,1.4
		c0,0.4-0.1,0.8-0.2,1.2s-0.2,0.6-0.4,0.8c-0.2,0.2-0.3,0.4-0.5,0.5c-0.2,0.1-0.4,0.2-0.7,0.3c-0.3,0.1-0.6,0.1-0.9,0.1H86.6z
		 M87.3,94.8h1.2c0.4,0,0.7,0,0.9-0.1s0.4-0.2,0.5-0.3c0.2-0.2,0.3-0.4,0.4-0.7c0.1-0.3,0.2-0.7,0.2-1.1c0-0.6-0.1-1.1-0.3-1.4
		c-0.2-0.3-0.4-0.5-0.7-0.6c-0.2-0.1-0.5-0.1-1-0.1h-1.2V94.8z"/>
	<path d="M92.3,95.5v-5.7h1.1l1.4,4.1c0.1,0.4,0.2,0.7,0.3,0.8c0.1-0.2,0.2-0.5,0.3-0.9l1.4-4h1v5.7H97v-4.8l-1.7,4.8h-0.7L93,90.6
		v4.9H92.3z"/>
	<path d="M98.4,95.5l2.2-5.7h0.8l2.3,5.7h-0.9l-0.7-1.7h-2.4l-0.6,1.7H98.4z M100,93.2h1.9l-0.6-1.6c-0.2-0.5-0.3-0.9-0.4-1.2
		c-0.1,0.4-0.2,0.7-0.3,1.1L100,93.2z"/>
</g>
</svg>
