<?xml version="1.0" encoding="utf-8"?>
<!-- Generator: Adobe Illustrator 21.0.0, SVG Export Plug-In . SVG Version: 6.00 Build 0)  -->
<svg version="1.1" id="Layer_1" xmlns="http://www.w3.org/2000/svg" xmlns:xlink="http://www.w3.org/1999/xlink" x="0px" y="0px"
	 viewBox="0 0 150 100" style="enable-background:new 0 0 150 100;" xml:space="preserve">
<style type="text/css">
	.st0{fill:#F7F7F5;}
	.st1{opacity:0.4;fill:#606060;enable-background:new    ;}
	.st2{fill:#A90B14;}
	.st3{fill:none;stroke:#000000;stroke-miterlimit:10;}
	.st4{fill:#020202;}
	.st5{enable-background:new    ;}
</style>
<rect class="st0" width="150" height="100"/>
<rect y="85.5" class="st1" width="150" height="14.5"/>
<g>
	<path class="st2" d="M100,22v16.2c-1,0-0.3,0-0.3-0.1c-0.3-0.2-0.5-0.5-0.7-0.7c-0.1-0.2-0.2-0.3-0.3-0.5c-1.8-4.7-3.7-9.3-5.3-14
		c-0.2-0.4-0.4-0.7-0.6-1c-0.3-0.4-0.7-0.6-1.2-0.6c-0.1,0-0.3,0-0.4,0c-0.3,0-0.6,0.1-1,0.2c0.1,2.3,0.1,4.6,0.2,6.9
		c0.1,3.8,0.2,7.7,0.5,11.5c0.1,1.8,1,3.6,1.9,5.2c0.6,1,1.2,1.6,1.8,1.8c0.1,0,0.2,0,0.3,0.1c0.9,0.2,1.9-0.3,3.1-1.5
		c0.5-0.5,0.9-1.1,1.5-1.8c0,0,0,0,0.1-0.1c0,0.7,0.1,1.2,0.1,1.7c0,4.5,0.2,9.1,0,13.7c0,0.4,0,0.7,0.1,1l0,0
		c0.3,1.3,1.2,2.2,2.1,3.1l0.1,0.1V22H100z M97.7,44.1c0,0.1-0.1,0.2-0.2,0.3s-0.1,0.2-0.2,0.2c-0.1,0.2-0.2,0.3-0.4,0.4
		c-0.3,0.2-0.5,0.4-0.8,0.5c-0.2,0.1-0.3,0.1-0.5,0.1c-0.1,0-0.1,0-0.2,0c-0.5-0.2-1.2-0.6-1.4-1.1c-0.6-1.5-1.1-3.2-1.2-4.8
		c-0.2-3.7-0.1-7.4-0.1-11.1c0.1,0,0.2,0,0.2,0c0.7,1.8,1.4,3.7,2.1,5.6c0.5,1.2,0.9,2.5,1.4,3.7c0,0,0,0,0,0.1
		c0.5,1.5,1.1,2.9,1.6,4.3c0.1,0.3,0.1,0.8-0.1,1.2c0,0.1-0.1,0.2-0.1,0.3C97.9,43.7,97.9,43.9,97.7,44.1C97.8,44,97.8,44,97.7,44.1
		z M45.4,35c0-0.9-0.1-1.9-0.3-2.6c-0.2-0.6-0.8-1.8-1.1-2.6c-0.1-0.3-0.3-0.7-0.4-1c-0.3-1-0.7-2-1.1-2.9c-0.1-0.3-0.3-0.6-0.4-1
		c-0.7-1.7-2.3-1.7-3.5-0.3c-0.9,1.1-1.5,2.5-2.2,3.8c-0.1,0.2-0.2,0.4-0.3,0.7l0,0c-0.1,0.2-0.1,0.3-0.2,0.5
		c-0.2,0.5-0.4,1-0.6,1.5C35.1,31,35,31,35,31v-6h-2v40c0,0.2,0,0.3,0,0.5c0.1,0.4,0.2,0.7,0.5,1c0.4,0.4,0.9,0.7,1.5,1.1V41.8
		c1,2.4,2.3,4.4,3.5,6.4c0.2,0.2,0.5,0.4,0.5,0.6c1,1,1.8,1,2.6-0.1c0-0.1,0.1-0.2,0.2-0.3c0.1-0.1,0.1-0.2,0.2-0.3
		c0.1-0.2,0.3-0.4,0.4-0.7c0.4-0.7,0.7-1.3,1-2c0.1-0.2,0.2-0.5,0.3-0.7c0.2-0.4,0.4-0.9,0.5-1.3c0.1-0.4,0.3-0.9,0.4-1.4
		c0.2-0.7,0.3-1.4,0.4-2.1c0.1-0.5,0.1-0.9,0.2-1.4C45.2,37.5,45.4,36.2,45.4,35z M41.3,41.6c-1.1,1.9-2.4,2.7-3.5,2.4
		c-1.3-0.4-2.7-2.4-2.7-4.1c0-0.9,0.1-1.9,0.3-2.8c0.8-3,2-5.9,4-8.4c1.6-2,3-1.8,3.8,0.7c0.4,1.1,0.5,2.3,0.7,3.4
		C43.6,36.1,42.9,39,41.3,41.6z M25.6,67.2c-0.3-1.9-0.6-3.9-0.6-5.9V21.4c0-0.4,0.1-0.9,0-1.3c0,0,0,0,0-0.1v-0.1
		c-0.2-0.5-0.5-1-0.8-1.5c-1.1-2-2.2-3.9-3-5.8C21.1,12.4,21,12.2,21,12v0.1c0,0.1,0,0.2,0,0.3c0.1,2.2,0.6,4.4,0.9,6.6l0,0
		c0.1,0.5,0.1,1.1,0.1,1.6c0,4.5,0.1,8.9,0.1,13.4c0,9,0,18.1,0,27.1v0.2c0,0.3-0.1,0.7-0.1,1c0,0.1,0,0.2,0,0.3s0,0.2,0.1,0.3
		c0.5,1,1,2,1.5,3c0.9,1.6,1.7,3.2,2.4,4.5v0.1C25.9,69.5,25.7,68.4,25.6,67.2z M127.3,12c0-0.2,0-0.4,0-0.7
		c-0.4,0.7-0.7,1.4-1.1,2.1c-0.4,0.9-0.9,1.7-1.3,2.5c-0.4,0.9-0.9,1.7-1.3,2.6c-0.3,0.7-0.5,1.5-0.5,2.3
		c0.1,12.8,0.2,25.5,0.4,38.3c0,3-0.1,5.9-0.9,8.8c-0.2,0.6-0.4,1.3-0.5,1.9l-0.1-0.1l0,0c2-2.2,2.8-4.5,3.9-6.8
		c0.3-0.7,0.6-1.5,0.6-2.3c-0.1-10.8-0.2-21.7-0.2-32.5c0-5.3-0.6-10.6,0.9-15.8C127.2,12.1,127.3,12.1,127.3,12z M132.6,29.5
		c0-0.9-0.1-1.9-0.1-2.8c-0.1-3.4-0.3-6.7,0-10.1c0-0.4,0.1-0.9,0.2-1.3c0-0.4,0.1-0.7,0.2-1.1c0.1-0.9,0.4-1.9,0.6-2.9
		c-0.4,0.8-0.8,1.5-1.1,2.3c-0.8,1.5-1.5,3-2.2,4.5c-0.4,0.9-0.7,1.9-0.7,2.8c0.1,11.3,0.2,22.6,0.4,33.8c0.1,5,0.5,10-1.1,14.8v0.1
		c0.1,0.1,0.2,0.2,0.2,0.4c0-0.6,0.4-1.2,0.8-1.8c0.1-0.2,0.1-0.4,0.2-0.5c0.7-1.4,1.4-2.7,2.1-4.1c0.1-0.3,0.3-0.5,0.4-0.8
		c0.4-0.7,0.6-1.6,0.6-2.4c-0.1-9.3-0.3-18.6-0.2-27.9C132.7,31.6,132.7,30.5,132.6,29.5z M113,22v11.6c-1,0-1.7,0-2.6,0
		c-0.2,0-0.3,0-0.5,0l0,0c-0.7-0.1-0.9-0.6-0.9-1.4c0-2.9-0.1-5.7-0.1-8.6v-2.2c-0.5,0-0.8,0.6-1,0.6h-1v1c0,3.1,0,6.2-0.1,9.2
		c0,0.4-0.1,0.8-0.3,1.1c0,0,0,0-0.1,0.1c0,0.1-0.1,0.1-0.2,0.1c-0.5,0.3-0.8,0.6-1,0.9c0,0-0.1,0.1-0.1,0.2s-0.1,0.2-0.1,0.3
		c-0.2,0.7,0,1.4,0.2,2.1c0.6,2,1.5,3.9,2.3,5.8c0.2,0.4,0.6,0.7,0.8,1c0.2,0,0.5,0,0.5,0l0,0c0-0.3,0-0.5,0-0.7
		c0.1-1.2,0.3-2.2,0.4-3v0.1h4c0,1,0,2.4,0.1,3.7c0.1,1.9,0.1,3.7,0.1,5.6c0,1.6,1.1,2.3,2.1,3.4c0.1,0.1,0.2,0.2,0.3,0.3V22H113z
		 M85,26c0,5,0.7,11.4-0.8,16.9c-0.1,0.4-0.3,0.8-0.4,1.2c-0.1,0.3-0.3,0.6-0.4,0.9c-0.2,0.4-0.5,0.8-0.8,1.2
		c-0.1,0.1-0.1,0.2-0.2,0.3c0,0,0,0,0,0.1s-0.1,0.1-0.1,0.1s0,0-0.1,0C82,46.9,82,47,81.9,47l0,0c-0.1,0.1-0.3,0.2-0.4,0.3
		c0,0,0,0-0.1,0s-0.1,0.1-0.2,0.1s-0.1,0-0.2,0c-0.8,0.1-1.5-0.4-1.9-1.6c-0.1-0.4-0.2-0.7-0.3-1.1c-0.1-0.4-0.2-0.8-0.3-1.1
		c-0.2-0.8-0.3-1.6-0.4-2.4c0-0.3,0-0.6,0-0.9c0-0.4,0-0.9,0-1.3v-0.2c0-0.6,0-1.1,0-1.7c-0.1-4.7,0-9.5,0-14.2v-1.7
		c-1,0-2,0.1-3,0.1l0,0c0,3.3,0.3,6.6,0.4,9.9c0.1,1.8,0.2,3.5,0.2,5.3c0,1.4,0.1,2.9,0.2,4.3c0,0.1,0,0.2,0,0.3
		c0,0.6,0.1,1.2,0.2,1.7s0.2,1,0.4,1.5c0,0.1,0.1,0.2,0.1,0.3c0.1,0.2,0.2,0.4,0.3,0.6s0.2,0.3,0.3,0.5c0.1,0.2,0.2,0.3,0.3,0.5
		s0.2,0.3,0.3,0.5c0.1,0.2,0.2,0.3,0.3,0.5c0.1,0.2,0.2,0.3,0.4,0.4c1.3,1.5,2.6,1.7,4.1,0.3c0.1-0.1,0.3-0.2,0.4-0.3
		c0.2-0.2,0.3-0.3,0.5-0.5c0.3-0.3,0.5-0.5,0.7-0.8c0.1-0.2,0.3-0.3,0.4-0.5c0.7,1.2,1.4,2.3,2.1,3.3c0.1,0.2,0.1,0.4,0.2,0.5
		c0,0,0,0,0.1-0.1c0.1,0,0.1-0.1,0.1-0.1V26H85z M57,26c0,1-0.1,2.3,0,3.5c0,2.3,0,4.5-0.1,6.8c-0.1,1.3-0.3,2.7-0.5,4
		c-0.1,0.6-0.2,1.2-0.3,1.8c0,0.1,0,0.1,0,0.2c-0.1,0.6-0.2,1.2-0.4,1.7c-0.2,1-0.9,2-1.5,2.9c-1,1.3-2.4,1-3.1-0.4
		c-0.4-0.7-0.7-1.6-0.8-2.4c-0.2-2.1-0.4-4.3-0.5-6.4c0-0.7-0.1-1.3-0.1-2c-0.1-4.6,0-9.1,0-13.9c-0.2,0-0.3,0-0.5,0
		c-0.1,0-0.2,0-0.2,0c-0.1,0-0.1,0-0.1,0c-0.2,0-0.4,0-0.5,0c0,0,0,0-0.1,0c-0.6-0.1-1.3,0-1.3,1v0.1c0,5.9,0.2,11.8,0.4,17.7
		c0,0.1,0.1,0.3,0.1,0.4c0,0.3,0.1,0.6,0.1,0.9c0,0.1,0.1,0.3,0.1,0.4c0.1,0.5,0.2,1,0.3,1.4c0,0.1,0.1,0.3,0.1,0.4
		c0.4,1.4,1.1,2.8,2.1,4c1.3,1.5,2.5,1.6,4,0.3c0.8-0.8,1.6-1.6,2.1-2.2c0.8,1.3,1.6,2.6,2.4,3.9C58.8,50,59,50,59,49.9V26H57z
		 M73,28.5c0-0.4-0.1-0.8-0.2-1.2l0,0c0-0.2-0.1-0.4-0.2-0.6s-0.1-0.4-0.2-0.6s-0.2-0.4-0.3-0.5S72,25.2,71.9,25s-0.2-0.3-0.3-0.5
		c-1.4-2-2.9-2.1-4.9-0.5c-0.6,0.5-1.1,1-1.8,1.6l0,0c-0.1-0.6-0.1-1.1-0.2-1.5c0,0,0,0,0-0.1c-2.4-0.4-2.5-0.4-2.5,1.9
		c0,6.4,0.1,12.9,0,19.3c0,0.7,0.1,1.3,0.4,1.9c0,0.1,0.2,0.2,0.2,0.3c0.5,0.9,1.1,1.6,2,2.5c0,0.1,0.1,0.1,0.1,0.2v-2
		c0-3.7-0.1-7.4-0.1-11c0-2.1,0.2-4.1,0.7-6V31c0.5-2,1.2-3.9,2.4-5.7c0.4-0.6,1.3-0.9,2-1.3v0.1c0,0.1,0.1,0.2,0.2,0.3
		s0.1,0.2,0.2,0.3c0.1,0.2,0.3,0.4,0.4,0.7c0.2,0.3,0.3,0.5,0.3,0.8c0.3,2-0.4,3.7-1.8,5.1c-0.3,0.4-0.7,1.1-0.5,1.4
		c0.1,0.4,0.3,0.7,0.4,1c0.1,0.1,0.1,0.3,0.2,0.4c0.1,0.2,0.2,0.5,0.3,0.7c0.3,0.6,0.6,1.3,0.9,1.9c0.5-0.5,0.8-1.1,1.2-1.7
		c0.2-0.4,0.4-0.8,0.6-1.2c0.1-0.3,0.2-0.6,0.3-0.9c0.1-0.4,0.2-0.8,0.3-1.3c0.1-0.4,0.1-0.8,0.1-1.1c0-0.1,0-0.2,0-0.3
		C73.1,29.7,73.1,29.1,73,28.5z M118.3,64.9c-0.9-3.1-1.8-6.1-2.9-9.1c0-0.1-0.2-0.2-0.5-0.2c-0.2,0-0.5,0-0.8,0
		c-0.2,0-0.4,0.1-0.5,0.1c-0.6,0.3-1.3,0.9-1.3,1.4c0,1.1,0.5,2.1,0.7,3.3l0,0c0.8-0.7,1.5-1.3,2.4-2.1c0.4,0.9,0.6,1.8,1,2.7
		c0.2,0.6,0.6,1.1,0.6,1.7l0,0c0,0.9,0.6,1.7,1,2.5c0,0,0,0,0.1-0.1C118.2,65.1,118.3,65,118.3,64.9z"/>
	<path class="st2" d="M31.6,19.2c0-1.2,0-2.8,0-4.2c28.7-0.2,57.4,0.2,86,0c0.2,0.4,0.3,0.5,0.3,0.7c0.3,3.1,0.3,3.1-2.8,3.1
		c-19.8,0.1-39.6,0.1-59.4,0.2c-7.4,0-14.8,0.2-22.1,0.3C32.9,19.2,32.3,19.2,31.6,19.2z"/>
	<path class="st2" d="M14.5,12.1c1.4,2.7,2.7,5.3,4,7.8c0.2,0.4,0.2,0.9,0.2,1.4c-0.1,13.2-0.3,26.4-0.2,39.6c0,3.3,0.7,6.6,1.1,9.7
		c-1.3-2.4-2.7-5.1-4.1-7.9c-0.2-0.5-0.2-1.1-0.1-1.6c0.1-13.8,0.2-27.7,0.2-41.5C15.5,17.3,14.9,14.9,14.5,12.1z"/>
</g>
<g>
	<path class="st3" d="M147.2,85.1c-0.5,0.8-0.5,1.5-0.1,2.2c0.3,0.5,0.4,1,0.6,1.5c0.3,0.9,0.2,1.4-0.7,1.8c-0.7,0.4-1.4,0.7-2,1.1
		c-0.3,0.2-0.5,0.5-0.6,0.8c-0.2,0.8-0.3,1.5-0.4,2.3c-0.2,0.9-0.6,1.3-1.5,1.2c-0.8-0.1-1.5-0.3-2.3-0.3c-0.3,0-0.7,0.1-0.9,0.3
		c-0.6,0.5-1.1,1.1-1.7,1.6c-0.6,0.6-1.2,0.6-1.9,0c-0.6-0.5-1.1-1.1-1.7-1.6c-0.2-0.2-0.6-0.3-0.9-0.3c-0.7,0.1-1.4,0.2-2.1,0.3
		c-1,0.1-1.6-0.3-1.8-1.3c-0.1-0.5-0.2-1.1-0.2-1.6c0-0.8-0.4-1.3-1.1-1.6c-0.4-0.2-0.8-0.4-1.3-0.6c-1.1-0.6-1.3-1.2-0.8-2.3
		c0.3-0.6,0.6-1.2,0.9-1.9c0.1-0.3,0.1-0.6,0-0.9c-0.3-0.7-0.7-1.3-1-2c-0.5-0.9-0.3-1.6,0.7-2.1c0.6-0.3,1.2-0.6,1.8-0.9
		c0.5-0.2,0.8-0.6,0.8-1.2c0.1-0.7,0.2-1.4,0.3-2.2c0.2-0.8,0.6-1.1,1.5-1.1c0.7,0.1,1.5,0.2,2.3,0.4c0.5,0.1,0.8,0,1.1-0.3
		c0.6-0.6,1.2-1.1,1.8-1.7c0.6-0.5,1.2-0.5,1.8,0c0.6,0.6,1.1,1.2,1.7,1.7c0.2,0.2,0.6,0.3,0.9,0.3c0.7-0.1,1.4-0.2,2.1-0.3
		c1.1-0.2,1.6,0.3,1.8,1.3c0,0.2,0.1,0.4,0.1,0.6c-0.1,1.6,0.7,2.5,2.1,2.9c0.2,0.1,0.5,0.2,0.7,0.4c0.7,0.4,1,1.1,0.6,1.9
		C147.7,84.1,147.5,84.7,147.2,85.1z"/>
	<path class="st4" d="M138.9,81.1c0-0.4,0.1-0.8,0.3-1c0.2-0.3,0.5-0.4,0.9-0.4s0.7,0.1,0.9,0.4s0.4,0.6,0.4,1.1s-0.1,0.9-0.4,1.1
		s-0.5,0.4-0.9,0.4c-0.3,0-0.6-0.1-0.9-0.4S138.9,81.6,138.9,81.1z M140.1,80.1c-0.2,0-0.3,0.1-0.4,0.2c-0.1,0.2-0.2,0.4-0.2,0.8
		s0.1,0.6,0.2,0.8s0.3,0.2,0.4,0.2c0.2,0,0.3-0.1,0.4-0.2c0.1-0.2,0.2-0.4,0.2-0.8s-0.1-0.6-0.2-0.8S140.3,80.1,140.1,80.1z
		 M140.1,85.6l3.1-6h0.6l-3.1,6H140.1z M142.6,84.1c0-0.4,0.1-0.8,0.3-1c0.2-0.3,0.5-0.4,0.9-0.4s0.7,0.1,0.9,0.4s0.4,0.6,0.4,1.1
		s-0.1,0.9-0.4,1.1s-0.5,0.4-0.9,0.4c-0.3,0-0.6-0.1-0.9-0.4S142.6,84.6,142.6,84.1z M143.8,83.1c-0.2,0-0.3,0.1-0.4,0.2
		c-0.1,0.2-0.2,0.4-0.2,0.8s0.1,0.6,0.2,0.8s0.3,0.2,0.4,0.2c0.2,0,0.3-0.1,0.4-0.2c0.1-0.2,0.2-0.4,0.2-0.8s-0.1-0.6-0.2-0.8
		S144,83.1,143.8,83.1z"/>
	<path class="st4" d="M129.9,90.6c0-1,0.3-1.7,0.8-2.2s1.2-0.8,2-0.8c0.5,0,1,0.1,1.4,0.4s0.7,0.6,1,1.1s0.3,1,0.3,1.5
		c0,0.6-0.1,1.1-0.4,1.6s-0.6,0.8-1,1s-0.9,0.4-1.4,0.4s-1-0.1-1.4-0.4s-0.7-0.6-1-1.1S129.9,91.1,129.9,90.6z M130.6,90.7
		c0,0.7,0.2,1.2,0.6,1.6s0.8,0.6,1.4,0.6c0.6,0,1-0.2,1.4-0.6s0.6-1,0.6-1.7c0-0.5-0.1-0.9-0.2-1.2c-0.2-0.3-0.4-0.6-0.7-0.8
		c-0.3-0.2-0.6-0.3-1-0.3c-0.5,0-1,0.2-1.4,0.6S130.6,89.8,130.6,90.7z"/>
	<path class="st4" d="M135.6,93.3v-5.7h3.9v0.7h-3.1v1.8h2.7v0.7h-2.7v2.6L135.6,93.3L135.6,93.3z"/>
	<path class="st4" d="M139.8,93.3v-5.7h3.9v0.7h-3.1v1.8h2.7v0.7h-2.7v2.6L139.8,93.3L139.8,93.3z"/>
	<g>
		<path d="M132.2,84.2h-0.7v-4.5c-0.2,0.2-0.4,0.3-0.7,0.5s-0.5,0.3-0.7,0.4v-0.7c0.4-0.2,0.7-0.4,1-0.7c0.3-0.3,0.5-0.5,0.6-0.8
			h0.5L132.2,84.2L132.2,84.2z"/>
		<path d="M134,81.3c0-0.7,0.1-1.2,0.2-1.6c0.1-0.4,0.3-0.7,0.6-1c0.3-0.2,0.6-0.3,1-0.3c0.3,0,0.6,0.1,0.8,0.2s0.4,0.3,0.6,0.5
			c0.2,0.2,0.3,0.5,0.4,0.9s0.1,0.8,0.1,1.4c0,0.7-0.1,1.2-0.2,1.6c-0.1,0.4-0.3,0.7-0.6,1c-0.3,0.2-0.6,0.3-1,0.3
			c-0.6,0-1-0.2-1.3-0.6C134.2,83.2,134,82.4,134,81.3z M134.8,81.3c0,0.9,0.1,1.6,0.3,1.9s0.5,0.5,0.8,0.5s0.6-0.2,0.8-0.5
			s0.3-0.9,0.3-1.9c0-0.9-0.1-1.6-0.3-1.9s-0.5-0.5-0.8-0.5s-0.6,0.1-0.8,0.4C134.9,79.8,134.8,80.4,134.8,81.3z"/>
	</g>
</g>
<g class="st5">
	<path d="M29.8,95.9v-5.7h3.9v0.7h-3.1v1.8h2.7v0.7h-2.7v2.6H29.8z"/>
	<path d="M33.5,95.9l2.2-5.7h0.8l2.3,5.7H38l-0.7-1.7H35l-0.6,1.7H33.5z M35.2,93.6h1.9L36.5,92c-0.2-0.5-0.3-0.9-0.4-1.2
		c-0.1,0.4-0.2,0.7-0.3,1.1L35.2,93.6z"/>
	<path d="M39.2,94.1L40,94c0,0.3,0.1,0.5,0.2,0.7s0.3,0.3,0.6,0.4s0.6,0.2,0.9,0.2c0.3,0,0.5,0,0.8-0.1s0.4-0.2,0.5-0.4
		s0.2-0.3,0.2-0.5c0-0.2-0.1-0.3-0.2-0.5s-0.3-0.2-0.5-0.3c-0.2-0.1-0.5-0.2-1-0.3s-0.9-0.2-1.1-0.4c-0.3-0.1-0.5-0.3-0.6-0.5
		s-0.2-0.5-0.2-0.7c0-0.3,0.1-0.6,0.2-0.8s0.4-0.4,0.7-0.6s0.7-0.2,1.1-0.2c0.4,0,0.8,0.1,1.1,0.2s0.6,0.3,0.7,0.6s0.3,0.6,0.3,0.9
		l-0.7,0.1c0-0.4-0.2-0.6-0.4-0.8s-0.6-0.3-1-0.3c-0.5,0-0.8,0.1-1,0.3s-0.3,0.4-0.3,0.6c0,0.2,0.1,0.4,0.2,0.5
		c0.1,0.1,0.5,0.3,1.1,0.4s1,0.3,1.3,0.4c0.3,0.2,0.6,0.3,0.7,0.6s0.2,0.5,0.2,0.8c0,0.3-0.1,0.6-0.3,0.9s-0.4,0.5-0.8,0.6
		S42.1,96,41.7,96c-0.5,0-1-0.1-1.3-0.2s-0.6-0.4-0.8-0.7S39.3,94.5,39.2,94.1z"/>
	<path d="M44.9,95.9v-5.7h0.8v2.4h3v-2.4h0.8v5.7h-0.8v-2.7h-3v2.7H44.9z"/>
	<path d="M50.7,95.9v-5.7h0.8v5.7H50.7z"/>
	<path d="M52.6,93.2c0-1,0.3-1.7,0.8-2.2s1.2-0.8,2-0.8c0.5,0,1,0.1,1.4,0.4s0.7,0.6,1,1.1s0.3,1,0.3,1.5c0,0.6-0.1,1.1-0.4,1.6
		s-0.6,0.8-1,1S55.8,96,55.3,96c-0.5,0-1-0.1-1.4-0.4s-0.7-0.6-1-1.1S52.6,93.7,52.6,93.2z M53.4,93.2c0,0.7,0.2,1.2,0.6,1.6
		s0.8,0.6,1.4,0.6c0.6,0,1-0.2,1.4-0.6s0.6-1,0.6-1.7c0-0.5-0.1-0.9-0.2-1.2s-0.4-0.6-0.7-0.8s-0.6-0.3-1-0.3c-0.5,0-1,0.2-1.4,0.6
		S53.4,92.3,53.4,93.2z"/>
	<path d="M59,95.9v-5.7h0.8l3,4.5v-4.5h0.7v5.7h-0.8l-3-4.5v4.5H59z"/>
	<path d="M64.9,95.9v-0.8h0.8v0.8c0,0.3-0.1,0.5-0.2,0.7s-0.3,0.3-0.5,0.4l-0.2-0.3c0.1-0.1,0.3-0.2,0.3-0.3s0.1-0.3,0.1-0.5H64.9z"
		/>
	<path d="M69.2,95.9v-5.7h2.1c0.4,0,0.8,0.1,1.1,0.2c0.3,0.1,0.5,0.3,0.6,0.5c0.1,0.2,0.2,0.5,0.2,0.8c0,0.2-0.1,0.5-0.2,0.7
		s-0.3,0.4-0.6,0.5c0.3,0.1,0.6,0.3,0.8,0.5c0.2,0.2,0.3,0.5,0.3,0.9c0,0.3-0.1,0.5-0.2,0.7s-0.3,0.4-0.4,0.5
		c-0.2,0.1-0.4,0.2-0.6,0.3c-0.3,0.1-0.6,0.1-0.9,0.1H69.2z M70,92.6h1.2c0.3,0,0.6,0,0.7-0.1c0.2-0.1,0.3-0.2,0.4-0.3
		s0.1-0.3,0.1-0.5c0-0.2,0-0.4-0.1-0.5C72.3,91.1,72.2,91,72,91c-0.2-0.1-0.5-0.1-0.9-0.1H70V92.6z M70,95.3h1.4c0.2,0,0.4,0,0.5,0
		c0.2,0,0.3-0.1,0.4-0.2s0.2-0.2,0.3-0.3c0.1-0.1,0.1-0.3,0.1-0.5c0-0.2-0.1-0.4-0.2-0.6s-0.3-0.3-0.5-0.3c-0.2-0.1-0.5-0.1-0.8-0.1
		H70V95.3z"/>
	<path d="M74.7,95.9v-5.7h0.8v5.7H74.7z"/>
	<path d="M76.6,94.1l0.7-0.1c0,0.3,0.1,0.5,0.2,0.7c0.1,0.2,0.3,0.3,0.6,0.4c0.3,0.1,0.6,0.2,0.9,0.2c0.3,0,0.5,0,0.8-0.1
		c0.2-0.1,0.4-0.2,0.5-0.4c0.1-0.1,0.2-0.3,0.2-0.5c0-0.2-0.1-0.3-0.2-0.5c-0.1-0.1-0.3-0.2-0.5-0.3c-0.2-0.1-0.5-0.2-1-0.3
		c-0.5-0.1-0.9-0.2-1.1-0.4c-0.3-0.1-0.5-0.3-0.6-0.5c-0.1-0.2-0.2-0.5-0.2-0.7c0-0.3,0.1-0.6,0.2-0.8s0.4-0.4,0.7-0.6
		c0.3-0.1,0.7-0.2,1.1-0.2c0.4,0,0.8,0.1,1.1,0.2s0.6,0.3,0.7,0.6c0.2,0.3,0.3,0.6,0.3,0.9l-0.7,0.1c0-0.4-0.2-0.6-0.4-0.8
		c-0.2-0.2-0.6-0.3-1-0.3c-0.5,0-0.8,0.1-1,0.3c-0.2,0.2-0.3,0.4-0.3,0.6c0,0.2,0.1,0.4,0.2,0.5c0.1,0.1,0.5,0.3,1.1,0.4
		c0.6,0.1,1,0.3,1.3,0.4c0.3,0.2,0.6,0.3,0.7,0.6c0.2,0.2,0.2,0.5,0.2,0.8c0,0.3-0.1,0.6-0.3,0.9c-0.2,0.3-0.4,0.5-0.8,0.6
		C79.8,96,79.4,96,79,96c-0.5,0-1-0.1-1.3-0.2c-0.4-0.2-0.6-0.4-0.8-0.7S76.6,94.5,76.6,94.1z"/>
	<path d="M83.6,95.9v-5.1h-1.9v-0.7h4.5v0.7h-1.9v5.1H83.6z"/>
	<path d="M90.8,90.2h0.8v3.3c0,0.6-0.1,1-0.2,1.4c-0.1,0.3-0.4,0.6-0.7,0.8S89.9,96,89.3,96c-0.5,0-1-0.1-1.3-0.3
		c-0.3-0.2-0.6-0.5-0.7-0.8c-0.1-0.4-0.2-0.8-0.2-1.4v-3.3h0.8v3.3c0,0.5,0,0.9,0.1,1.1c0.1,0.2,0.3,0.4,0.5,0.5
		c0.2,0.1,0.5,0.2,0.8,0.2c0.6,0,1-0.1,1.2-0.4c0.2-0.3,0.4-0.7,0.4-1.5V90.2z"/>
	<path d="M92.8,95.9v-5.7H95c0.4,0,0.7,0,0.9,0.1c0.3,0,0.5,0.1,0.7,0.3c0.2,0.1,0.3,0.3,0.5,0.6c0.1,0.2,0.2,0.5,0.2,0.8
		c0,0.5-0.2,0.9-0.5,1.2c-0.3,0.3-0.9,0.5-1.7,0.5h-1.5v2.3H92.8z M93.6,92.9h1.5c0.5,0,0.8-0.1,1-0.3c0.2-0.2,0.3-0.4,0.3-0.8
		c0-0.2-0.1-0.4-0.2-0.6S96,91,95.8,90.9c-0.1,0-0.4-0.1-0.7-0.1h-1.5V92.9z"/>
	<path d="M101.9,90.2h0.8v3.3c0,0.6-0.1,1-0.2,1.4c-0.1,0.3-0.4,0.6-0.7,0.8S101,96,100.5,96c-0.5,0-1-0.1-1.3-0.3
		c-0.3-0.2-0.6-0.5-0.7-0.8c-0.1-0.4-0.2-0.8-0.2-1.4v-3.3h0.8v3.3c0,0.5,0,0.9,0.1,1.1c0.1,0.2,0.3,0.4,0.5,0.5
		c0.2,0.1,0.5,0.2,0.8,0.2c0.6,0,1-0.1,1.2-0.4c0.2-0.3,0.4-0.7,0.4-1.5V90.2z"/>
	<path d="M104,95.9v-5.7h2.5c0.5,0,0.9,0.1,1.2,0.2s0.5,0.3,0.6,0.5c0.2,0.3,0.2,0.5,0.2,0.9c0,0.4-0.1,0.7-0.4,1
		c-0.3,0.3-0.7,0.5-1.2,0.5c0.2,0.1,0.4,0.2,0.5,0.3c0.2,0.2,0.4,0.5,0.6,0.8l1,1.6h-1l-0.8-1.2c-0.2-0.3-0.4-0.6-0.5-0.8
		c-0.1-0.2-0.3-0.3-0.4-0.4s-0.2-0.1-0.3-0.2c-0.1,0-0.2,0-0.4,0h-0.9v2.5H104z M104.7,92.7h1.6c0.3,0,0.6,0,0.8-0.1
		s0.3-0.2,0.4-0.3s0.2-0.3,0.2-0.5c0-0.3-0.1-0.5-0.3-0.7c-0.2-0.2-0.5-0.3-0.9-0.3h-1.8V92.7z"/>
</g>
</svg>
