<?xml version="1.0" encoding="utf-8"?>
<!-- Generator: Adobe Illustrator 21.0.0, SVG Export Plug-In . SVG Version: 6.00 Build 0)  -->
<svg version="1.1" id="Layer_1" xmlns="http://www.w3.org/2000/svg" xmlns:xlink="http://www.w3.org/1999/xlink" x="0px" y="0px"
	 viewBox="0 0 150 100" style="enable-background:new 0 0 150 100;" xml:space="preserve">
<style type="text/css">
	.st0{fill:#F3E9A4;stroke:#7D533D;stroke-miterlimit:10;}
	.st1{fill:#F3D262;}
	.st2{fill:none;stroke:#F3D262;stroke-miterlimit:10;}
	.st3{fill:none;stroke:#E79E40;stroke-miterlimit:10;}
	.st4{fill:#EC3B2C;}
	.st5{fill:#1FA244;}
	.st6{fill:url(#SVGID_1_);}
	.st7{fill:#DC1927;}
	.st8{opacity:0.52;}
	.st9{fill:#FBFCF8;}
	.st10{fill:none;stroke:#FFFFFF;stroke-width:5.2512;stroke-miterlimit:10;}
	.st11{fill:none;stroke:#DEBF02;stroke-width:4;stroke-miterlimit:10;}
	.st12{fill:none;stroke:#020000;stroke-miterlimit:10;}
	.st13{fill:url(#SVGID_2_);}
	.st14{fill:none;stroke:#F9E606;stroke-miterlimit:10;}
	.st15{fill:none;stroke:#020202;stroke-linecap:round;stroke-linejoin:round;stroke-miterlimit:10;}
	.st16{fill:none;stroke:#020202;stroke-miterlimit:10;}
	.st17{fill:none;}
	.st18{fill:none;stroke:#020202;stroke-width:5;stroke-linecap:round;stroke-linejoin:round;stroke-miterlimit:10;}
	.st19{fill:none;stroke:#B1E57F;stroke-miterlimit:10;}
	.st20{fill:url(#SVGID_3_);}
	.st21{fill:url(#SVGID_4_);}
	.st22{fill:url(#SVGID_5_);}
	.st23{fill:none;stroke:#B1E57F;stroke-linecap:round;stroke-miterlimit:10;}
	.st24{fill:url(#SVGID_6_);}
	.st25{opacity:0.4;fill:#606060;enable-background:new    ;}
	.st26{fill:none;stroke:#000000;stroke-miterlimit:10;}
	.st27{fill:#020202;}
	.st28{fill:#050505;}
	.st29{fill:url(#SVGID_7_);}
	.st30{fill:#991B1F;}
	.st31{fill:url(#SVGID_8_);}
	.st32{fill:#DEBF02;}
	.st33{fill:url(#SVGID_9_);}
	.st34{fill:#F9E606;}
	.st35{fill:none;stroke:#DEBF02;stroke-miterlimit:10;}
</style>
<g>
	<circle class="st0" cx="61" cy="63.2" r="15.3"/>
	<g>
		<path class="st1" d="M65.8,65.5L65.8,65.5c-0.4,0.5-1.1,0.6-1.5,0.3l-4.4-3.4c-0.4-0.3-0.5-1-0.2-1.4l0.1-0.1
			c0.3-0.4,1-0.5,1.4-0.2l4.4,3.4C66.1,64.4,66.2,65,65.8,65.5z"/>
		<path class="st1" d="M56.5,68.6L56.5,68.6c0.4-0.5,1.1-0.6,1.5-0.3l4.4,3.4c0.4,0.3,0.5,1,0.2,1.4l-0.1,0.1
			c-0.3,0.4-1,0.5-1.4,0.2"/>
		<path class="st1" d="M61.5,66.5L61.5,66.5c-0.4,0.5-1.1,0.6-1.5,0.3l-4.4-3.4c-0.4-0.3-0.5-1-0.2-1.4l0.1-0.1
			c0.3-0.4,1-0.5,1.4-0.2l4.4,3.4C61.7,65.5,61.8,66.1,61.5,66.5z"/>
		<path class="st2" d="M64.9,70.1c0.2,0,0.5,0,0.7-0.1c0.2-0.2,0.3-0.5,0.3-0.8c0.3-3.7,0.5-7.5,0.8-11.2"/>
		<path class="st2" d="M54.6,65.6c-0.5-2.9-0.6-5.8-0.4-8.7c0-0.3,0-0.5-0.1-0.7c-0.4-0.6-1.4,0-1.8,0.6c-1.2,1.9-1.8,4-1.9,6.2
			c0,0.5,0,0.9,0.2,1.3"/>
		<path class="st2" d="M57.4,62.5c0.6,0.1,1.1-0.4,1.3-1s0.1-1.1,0.2-1.7c0.1-1.4,0.8-2.7,1.8-3.7c0.8-0.7,1.9-1.2,2.9-0.7
			c0.9,0.5,1.3,1.7,1.2,2.7c0,1-0.2,2.1,0,3.1c0.3,1.2,1.4,2.2,2.6,2.4c0.9,0.1,2.1-0.1,2.6,0.6c0.2,0.3,0.2,0.6,0.3,0.9
			c0.3,1.9,0.1,4.3-1.5,5.4c-1.8,1.2-4.4,0-5.5-1.9c-1.1-1.8-1.3-4.1-1.7-6.2c-0.4-2.1-1.2-4.4-3-5.6c-0.5-0.3-1-0.5-1.6-0.4
			c-0.9,0.1-1.6,0.9-2,1.8c-1.3,2.7-0.2,6.4,2.5,7.6c0.4,0.2,0.9,0.3,1.4,0.2c1.2-0.2,1.7-1.6,2.1-2.8c0.9-3,2.1-5.9,3.6-8.6
			c0.4-0.7,0.8-1.4,1.5-1.5c0.7-0.2,1.5,0.3,1.9,0.9s0.5,1.4,0.7,2.1c0.4,2.1,0.8,4.4-0.2,6.3c-0.4,0.9-1.1,1.6-1.8,2.3
			c-1,1.1-2,2.1-2.9,3.2c-0.3,0.3-0.5,0.6-0.9,0.8c-0.4,0.2-1,0.3-1.5,0.3"/>
		<path class="st3" d="M57.9,68.5c-0.7-4.1-1-8.3-1.1-12.5c0-0.3,0-0.7,0.4-0.8c0.2-0.1,0.4-0.1,0.6,0c2,0.4,2.3,2.7,3.6,4.1
			c1.6,1.7,4.4,1.8,6.9,1.7c0.6,0,1.3-0.1,1.5-0.6c0.1-0.3-0.2-0.7-0.5-0.9c-1.1-0.8-2.7-0.8-4-0.4c-1.3,0.5-2.4,1.3-3.4,2.1
			c-0.8,0.6-1.6,1.3-2.3,1.9c-1.8,1.4-3.9,3-6.3,2.6c-0.2,0-0.4-0.1-0.5-0.2c-0.2-0.1-0.2-0.4-0.2-0.6c-0.2-1.4-0.3-3.1,0.8-4.1
			c0.7-0.7,1.8-1,2.7-1.4c1.8-0.9,3.1-2.6,3.5-4.4c0.2,3.5,1.1,7,1.9,10.5c0.3,1.2,0.8,2.5,2.1,2.8c1,0.2,2.1-0.4,2.6-1.2
			c0.5-0.8,0.7-1.8,0.8-2.7c0-0.3,0.1-0.6-0.1-0.8c-0.1-0.2-0.4-0.4-0.7-0.5c-2.6-1.1-5.7-1-8.5-1.3c-2.9-0.3-6.1-1.5-6.9-3.9
			c-0.1-0.2-0.1-0.4,0-0.5c0.1-0.2,0.4-0.2,0.6-0.2c2.5-0.2,5,0.6,7.5,1.1c3.4,0.7,7,1,10.5,0.8c0.7,0,1.5-0.2,1.7-0.7
			c0.4-0.7-0.4-1.4-1.2-1.8c-2-0.9-4.4-0.9-6.6-0.3C61,56.9,59,58,57.1,59"/>
		<ellipse transform="matrix(0.7071 -0.7071 0.7071 0.7071 -20.8426 58.8849)" class="st4" cx="60.7" cy="54.6" rx="1.8" ry="1.8"/>
		
			<ellipse transform="matrix(0.1961 -0.9806 0.9806 0.1961 -17.0128 112.7781)" class="st4" cx="60.3" cy="66.8" rx="1.8" ry="1.8"/>
		<ellipse transform="matrix(0.7071 -0.7071 0.7071 0.7071 -23.3107 64.7555)" class="st4" cx="66.5" cy="60.5" rx="1.8" ry="1.8"/>
		<path class="st1" d="M56.1,62.2L56.1,62.2c-0.4,0.5-1.1,0.6-1.5,0.3l-4.4-3.4c-0.4-0.3-0.5-1-0.2-1.4l0.1-0.1
			c0.3-0.4,1-0.5,1.4-0.2l4.4,3.4C56.3,61.1,56.4,61.8,56.1,62.2z"/>
		<path class="st1" d="M59,64.4v0.2c0,0.5-0.4,1-1,1l-5.6,0.2c-0.5,0-1-0.4-1-1v-0.2c0-0.5,0.4-1,1-1l5.6-0.2
			C58.6,63.4,59,63.8,59,64.4z"/>
		<path class="st1" d="M70,64.4v0.2c0,0.5-0.4,1-1,1l-5.6,0.2c-0.5,0-1-0.4-1-1v-0.2c0-0.5,0.4-1,1-1l5.6-0.2
			C69.6,63.4,70,63.8,70,64.4z"/>
		<path class="st1" d="M63.3,66.5L63.3,66.5c0,0.5-0.3,0.9-0.7,0.9l-3.4,0.2c-0.4,0-0.8-0.3-0.8-0.7v-0.1c0-0.4,0.3-0.8,0.7-0.8
			l3.4-0.2C62.9,65.8,63.3,66.1,63.3,66.5z"/>
		<path class="st1" d="M54.6,61.1L54.6,61.1c0,0.5-0.3,0.9-0.7,0.9l-3.4,0.2c-0.4,0-0.8-0.3-0.8-0.7v-0.1c0-0.4,0.3-0.8,0.7-0.8
			l3.4-0.2C54.3,60.3,54.6,60.7,54.6,61.1z"/>
		<path class="st1" d="M66.6,58.9L66.6,58.9c0,0.5-0.3,0.9-0.7,0.9L62.5,60c-0.4,0-0.8-0.3-0.8-0.7v-0.1c0-0.4,0.3-0.8,0.7-0.8
			l3.4-0.2C66.2,58.2,66.6,58.5,66.6,58.9z"/>
		<path class="st1" d="M62.2,58.9L62.2,58.9c0,0.5-0.3,0.9-0.7,0.9L58.2,60c-0.4,0-0.8-0.3-0.8-0.7v-0.1c0-0.4,0.3-0.8,0.7-0.8
			l3.4-0.2C61.9,58.2,62.2,58.5,62.2,58.9z"/>
		<path class="st5" d="M64.2,66.3c-0.1,0.2-0.2,0.5-0.3,0.7c-0.4,0.2-0.8,0.3-1.2,0.3c-0.5,0-0.8-0.2-1.2-0.4
			c-0.3-0.4-0.2-0.8,0.3-1.1c0.7,0,1.3-0.1,2-0.1C64,65.8,64.1,66,64.2,66.3z"/>
		<path class="st5" d="M64.2,60.8c-0.1,0.2-0.2,0.5-0.3,0.7c-0.4,0.2-0.8,0.3-1.2,0.3c-0.5,0-0.8-0.2-1.2-0.4
			c-0.3-0.4-0.2-0.8,0.3-1.1c0.7,0,1.3-0.1,2-0.1C64,60.4,64.1,60.6,64.2,60.8z"/>
		<path class="st5" d="M55.5,56.5c-0.1,0.2-0.2,0.5-0.3,0.7c-0.4,0.2-0.8,0.3-1.2,0.3c-0.5,0-0.8-0.2-1.2-0.4
			c-0.3-0.4-0.2-0.8,0.3-1.1c0.7,0,1.3-0.1,2-0.1C55.3,56.1,55.4,56.3,55.5,56.5z"/>
		<path class="st5" d="M59.9,60.8c-0.1,0.2-0.2,0.5-0.3,0.7c-0.4,0.2-0.8,0.3-1.2,0.3c-0.5,0-0.8-0.2-1.2-0.4
			c-0.3-0.4-0.2-0.8,0.3-1.1c0.7,0,1.3-0.1,2-0.1C59.6,60.4,59.8,60.6,59.9,60.8z"/>
		<path class="st5" d="M52.3,58.7c-0.1,0.2-0.2,0.5-0.3,0.7c-0.4,0.2-0.8,0.3-1.2,0.3c-0.5,0-0.8-0.2-1.2-0.4
			c-0.3-0.4-0.2-0.8,0.3-1.1c0.7,0,1.3-0.1,2-0.1C52,58.2,52.2,58.4,52.3,58.7z"/>
		<path class="st5" d="M69.6,67.3c-0.1,0.2-0.2,0.5-0.3,0.7c-0.4,0.2-0.8,0.3-1.2,0.3c-0.5,0-0.8-0.2-1.2-0.4
			c-0.3-0.4-0.2-0.8,0.3-1.1c0.7,0,1.3-0.1,2-0.1C69.4,66.9,69.5,67.1,69.6,67.3z"/>
		
			<ellipse transform="matrix(0.1961 -0.9806 0.9806 0.1961 -18.2271 104.5676)" class="st4" cx="54.7" cy="63.4" rx="1.8" ry="1.8"/>
	</g>
</g>
<g>
	
		<linearGradient id="SVGID_1_" gradientUnits="userSpaceOnUse" x1="76.5116" y1="93.3135" x2="83.7242" y2="93.3135" gradientTransform="matrix(1 0 0 -1 0 102)">
		<stop  offset="0.1912" style="stop-color:#8BB537"/>
		<stop  offset="0.8558" style="stop-color:#029B49"/>
	</linearGradient>
	<path class="st6" d="M76.5,13.1c0.5-1.5,1.1-3.6,2-6.4c1.2-3.2,3.2-3,5.2-2.3v0.4c0-0.2-2.5,0.2-2.8,0.3c-0.8,0.5-1.3,2.2-1.5,3.1
		C79,9.8,79,11.8,79,13.4L76.5,13.1z"/>
	<path class="st7" d="M75.9,12.8c-0.6,0-1.2,0.3-1.7,0.6c-1.7,1-1.8,3.4-1.8,5.2c-0.1,3.2-1,7-3.3,9.4c-1.4,1.5-2.8,3.1-4.1,4.8
		c-1.4,1.8-4,5-1.5,6.9c0.6,0.5,0.6-0.1,0.9-0.6c0.8-1.1,0.5-1.8,1.8-2.4c1.6-0.8,3.9-1.6,5.4-2.5c2.1-1.4,4.1-2.9,5.6-5
		c1.5-2.2,2.3-5,3.2-7.5c0.7-2.1,1.7-4.7,0.4-6.8C79.8,13.2,77.7,12.7,75.9,12.8z"/>
	<g class="st8">
		<g>
			<g>
				<g>
					<path class="st9" d="M66.4,33.7L66.4,33.7L66.4,33.7L66.4,33.7z"/>
					<path class="st9" d="M66.6,33.8c0,0,0-0.1,0-0.2C66.6,33.7,66.6,33.6,66.6,33.8C66.6,33.7,66.5,33.7,66.6,33.8
						C66.5,33.8,66.5,33.7,66.6,33.8L66.6,33.8C66.6,33.7,66.6,33.7,66.6,33.8z"/>
					<path class="st9" d="M68.7,32.4L68.7,32.4L68.7,32.4z"/>
					<path class="st9" d="M70.2,31.8C70.2,31.8,70.2,31.9,70.2,31.8C70.2,31.9,70.2,31.8,70.2,31.8z"/>
					<path class="st9" d="M70.6,31.8L70.6,31.8L70.6,31.8z"/>
					<path class="st9" d="M68.7,32.4L68.7,32.4C68.8,32.3,68.8,32.4,68.7,32.4z"/>
					<path class="st9" d="M66.8,33.4L66.8,33.4L66.8,33.4L66.8,33.4z"/>
					<path class="st9" d="M68.3,32.9L68.3,32.9L68.3,32.9L68.3,32.9z"/>
					<path class="st9" d="M67.9,33.3L67.9,33.3C67.9,33.2,67.9,33.2,67.9,33.3C67.9,33.2,67.9,33.2,67.9,33.3z"/>
					<path class="st9" d="M67.1,33.6L67.1,33.6L67.1,33.6z"/>
					<path class="st9" d="M68.6,32.7L68.6,32.7L68.6,32.7z"/>
					<path class="st9" d="M74.5,19.9L74.5,19.9L74.5,19.9z"/>
					<polygon class="st9" points="75.8,19.4 75.8,19.4 76,19.3 					"/>
					<path class="st9" d="M71.2,31.4L71.2,31.4C71.2,31.5,71.2,31.5,71.2,31.4z"/>
					<path class="st9" d="M73.5,27.5c-0.2,0-0.1-0.2-0.3-0.2C73.2,27.3,73.4,27.5,73.5,27.5z"/>
					<path class="st9" d="M66.9,33.4L66.9,33.4L66.9,33.4z"/>
					<path class="st9" d="M73.1,27.3L73.1,27.3L73.1,27.3z"/>
					<path class="st9" d="M71.8,30.4C71.8,30.4,71.7,30.4,71.8,30.4C71.7,30.4,71.7,30.4,71.8,30.4z"/>
					<path class="st9" d="M71.1,31L71.1,31L71.1,31z"/>
					<path class="st9" d="M71.8,29.9L71.8,29.9C71.8,29.8,71.8,29.8,71.8,29.9L71.8,29.9z"/>
					<path class="st9" d="M72,29.5L72,29.5L72,29.5z"/>
					<path class="st9" d="M74.4,20.8c0.1,0,0.1,0.1,0.2,0.1C74.4,20.8,74.4,20.8,74.4,20.8z"/>
					<path class="st9" d="M66.9,33.5C66.9,33.4,66.8,33.4,66.9,33.5C66.9,33.4,66.8,33.4,66.9,33.5C66.8,33.4,66.9,33.5,66.9,33.5z"
						/>
					<path class="st9" d="M70.5,29.1L70.5,29.1L70.5,29.1z"/>
					<path class="st9" d="M73.6,24.1L73.6,24.1C73.5,24.1,73.5,24.1,73.6,24.1z"/>
					<path class="st9" d="M70.6,28.9C70.7,28.9,70.7,28.9,70.6,28.9C70.8,28.9,70.8,28.9,70.6,28.9L70.6,28.9z"/>
					<path class="st9" d="M74.6,20.9L74.6,20.9L74.6,20.9z"/>
					<path class="st9" d="M74.2,20.3c0,0,0.3,0.2,0.5,0.2c0.1,0.1-0.2-0.1-0.4-0.1c0.1,0.1,0.3,0.2,0.3,0.3c-0.1,0-0.1,0-0.1-0.1
						c0.2,0.2,0,0.1,0.2,0.3h-0.1c0.2,0.1,0.3,0.1,0.4,0.2c0,0,0.2,0.1,0,0.1l-0.1-0.1l0.1,0.1c-0.3-0.1-0.1-0.1-0.3-0.2
						c0.1,0.1,0.3,0.3,0.2,0.3c-0.3-0.1,0-0.1-0.3-0.2h0.1c-0.4-0.2,0,0-0.4-0.2c-0.1,0,0.1,0.2,0,0.2c0.1,0.1,0.2,0.1,0.4,0.2
						c0.2,0.3-0.7-0.2-0.4,0c0.2,0.1,0.5,0.3,0.3,0.3l-0.3-0.2c-0.1,0.1,0.4,0.3,0.2,0.3c-0.1-0.1-0.1-0.1-0.1-0.1
						c-0.3-0.1,0.1,0.1,0.1,0.2L74,21.6c0,0.1,0.1,0.3,0.1,0.5C74,22.1,74,22,73.9,22c0.1,0.2-0.2,0.3-0.4,0.5l0.2,0.1
						c0,0-0.1,0-0.2,0s0.1,0,0.2,0.1c0,0-0.1,0-0.2,0c0.2,0.2,0.3,0.4,0.1,0.5h-0.1c-0.1,0.1,0.5,0.2,0.2,0.2l0,0
						c-0.1,0.2,0.1,0.4-0.3,0.5c0.3,0.1-0.2,0.1,0.3,0.2c-0.2,0-0.3,0-0.5,0l0.3,0.1V24l0.2,0.1L73.4,24l0,0c0,0,0.1,0,0.2,0
						c0.1,0.1-0.2,0.1-0.3,0c0,0.1,0.1,0.1,0.1,0.2c-0.1,0-0.1-0.1-0.2-0.1c0.2,0.2-0.2-0.1,0,0c0,0,0.1,0.1,0.2,0.1
						c-0.1,0-0.2,0-0.1,0.1l-0.1-0.1c-0.1,0.1,0,0.2-0.1,0.3c0.1,0,0.3,0.1,0.3,0.2l-0.2-0.1c0.1,0.1,0.1,0,0.2,0.1
						c0,0-0.2-0.1-0.3-0.2v0.1c-0.1,0-0.1-0.1-0.2-0.1c0.1,0.1-0.2,0,0,0.1h-0.1c-0.1,0.1,0,0.2-0.1,0.3c0.2,0.1,0.1,0.1,0.2,0.2
						c-0.1,0-0.3,0-0.3,0.1s0.1,0.1,0.2,0.2c-0.2-0.1-0.2,0-0.3-0.1c0,0.1,0,0.1,0,0.3c0.1,0,0.1,0,0.2,0.1c0,0-0.1,0-0.2,0l0,0
						c0.1,0.3-0.6,0-0.4,0.4l0,0l0.1,0.2c-0.1,0-0.1-0.1-0.2-0.1c0.2,0.3-0.1,0.2,0,0.4c-0.5-0.2-0.1,0.3-0.5,0.2l0.1,0.1
						c0.1,0.1-0.1,0-0.1,0c0.1,0,0.1,0,0.2,0.1c0,0.3-0.4,0.4-0.7,0.6c-0.1,0.1,0.5,0.4,0.2,0.3L71,27.8c0.1,0.3-0.2,0.3-0.1,0.6
						l-0.1-0.1c-0.2,0-0.1,0.1,0,0.2c0,0-0.1-0.1-0.2-0.1s0.1,0.2,0,0.1l0,0c0.1,0.1-0.1,0.1,0.1,0.2c-0.1,0,0,0.2-0.1,0.2
						c0.2,0.1-0.1,0.1,0.1,0.2c-0.3-0.2-0.3,0-0.2,0.1c-0.1-0.1-0.1,0-0.2-0.1c0,0,0,0.1,0.1,0.2c-0.4-0.1,0.2,0.3-0.3,0.1
						c0.1,0.2,0.1,0.4,0.1,0.6c-0.3-0.2,0.1-0.2-0.2-0.3c0,0.2,0.2,0.4,0.1,0.5c-0.1,0-0.1-0.1-0.1-0.1c0,0.2-0.1,0.2-0.1,0.4
						c0,0,0,0-0.1-0.1c0,0-0.1,0,0.1,0.1l0,0c0.2,0.1,0.3,0.3,0.4,0.3c-0.3-0.2-0.1,0-0.5-0.3l0.1,0.1c0,0-0.1,0-0.2-0.1
						c0,0.1,0.2,0.2,0.1,0.2s-0.1-0.1-0.1-0.1c0.1,0.1,0.2,0.2,0.1,0.2l-0.1-0.1c0,0.1,0.2,0.3,0,0.3c-0.2-0.2-0.1,0-0.2-0.2v0.1
						l0.1,0.1c0,0,0,0.2,0,0.1V31v0.1l0.1,0.1c0,0.1,0.2,0.2,0.1,0.2c0,0,0,0-0.1-0.1l0,0c0,0.1,0,0.2,0,0.1s-0.1-0.2-0.1-0.3
						c0,0.2-0.1,0.1-0.1,0.3c0,0,0-0.2-0.1-0.2v0.1c0,0,0-0.1-0.1-0.1s0.1,0.3,0,0.2c0,0,0,0,0-0.1c-0.1,0-0.2,0.2-0.3,0.1
						c-0.1-0.2,0.1-0.1,0-0.2c-0.1,0.1-0.2,0.4-0.3,0.4l0,0c0.1,0.3-0.2-0.1-0.1,0.1l-0.1-0.1c-0.1,0-0.1,0.2-0.2,0.3v-0.1
						c-0.1,0-0.1,0.1-0.2,0.1c0,0.1,0,0.1,0.1,0.1c-0.4-0.2-0.1,0.4-0.4,0.3v-0.1v0.1c0.1,0.1,0.1,0,0.1,0.1s0,0.1,0,0.1
						c0-0.1-0.1-0.1-0.2-0.1c0,0,0,0,0.1,0.1c-0.2-0.1,0.1,0.2,0,0.1l0,0v0.1c-0.1-0.1,0-0.1-0.1-0.1c0,0,0.1,0.2,0,0.2v-0.1
						c-0.1-0.1-0.1,0-0.1,0l0,0h-0.1l0,0c0.2,0.2,0,0.1,0,0.3c-0.1-0.2-0.1-0.1-0.1-0.2h-0.1c0,0.1-0.1,0,0,0.1c0,0,0,0-0.1,0
						c0,0.1,0,0,0.1,0.1c0,0.1-0.2,0-0.2,0.2c0,0.1,0,0.2,0,0.3v-0.1c-0.1,0-0.1,0-0.1,0.1c0,0,0,0,0-0.1v0.1v-0.1
						c0,0,0,0.1-0.1,0.1v-0.1c0,0-0.1,0.1-0.1,0.2l0,0c0,0,0,0,0-0.1s0.1,0,0.1,0l0,0c0.1,0.1,0.1-0.1,0.2-0.1v0.1v-0.1
						c0,0,0.1,0.1,0,0.1c0.1,0,0-0.1,0.1,0l0,0v-0.1c0,0,0.1,0.1,0,0.1c0.1,0,0.1-0.2,0.2-0.1l0,0c0.1-0.1,0-0.1,0-0.2l0.2,0.2
						l-0.1-0.1c0,0,0,0,0.1,0c0-0.1,0,0-0.1-0.1c0.1,0,0.1-0.1,0.2,0c0-0.1-0.1,0-0.1-0.1c0.1,0.1,0-0.1,0.1,0s0,0.1,0.1,0.1
						c-0.1-0.1,0.1,0,0.1-0.1c-0.1-0.1,0-0.1,0.1-0.2c0,0,0.2,0,0.3,0l0,0c-0.1-0.1,0-0.1,0-0.2c0.1,0.1,0.1,0.1,0.1,0.2l0,0v-0.1
						l0.1,0.1c0,0,0-0.2,0.1-0.2c-0.1-0.1-0.3-0.2-0.3-0.3c0,0,0.1,0.1,0.1,0.2c0,0,0-0.1,0,0l0.1,0.1c0.1,0,0-0.1,0-0.1
						c0.1,0.1,0.1,0,0.1,0.1l0,0c0,0,0.1,0,0.2,0l-0.1-0.1c0,0,0.1,0.1,0.2,0.1c0-0.1,0,0-0.1-0.1c0,0,0.1,0,0.1,0.1
						c0-0.1,0.1-0.1,0-0.2l0,0l0,0l0,0l0,0c0-0.2,0.2-0.1,0.3-0.2l0,0c0-0.1,0.1-0.1,0.1-0.2l0.1,0.1c0-0.1,0-0.1,0.1-0.1
						c0,0.1,0,0.1,0,0.1c0.1,0,0.1,0.1,0.1-0.1c0,0.1,0.1,0.2,0.1,0.1l-0.1-0.1c0,0,0,0,0.1,0v0.2c0.2,0.2,0.1-0.4,0.3-0.1
						c0-0.1-0.1-0.1-0.1-0.2c0.1,0,0.2,0.2,0.3,0.2c0.2,0.1,0-0.3,0.1-0.3c0-0.1-0.1-0.2-0.1-0.3c0.1,0,0.2,0.2,0.2,0.3l0,0V32v-0.1
						c0.1,0,0.2,0,0.2,0.1c0-0.1,0-0.1-0.1-0.1c0.2,0,0.1-0.1,0.3-0.1l-0.1-0.1c0.2,0,0-0.1,0-0.2c0.1,0,0.2,0.2,0.2,0.1
						c0.1,0,0.2,0.1,0.2,0.2c0-0.2,0.2-0.1,0.3-0.1v0.1v-0.1L71,31.5h0.1c-0.1-0.1-0.2-0.1-0.3-0.3c0.1,0,0-0.1,0.2,0
						c-0.1,0.1,0.2,0.1,0.1,0.2c0,0,0,0,0-0.1l0,0c0.2,0-0.2-0.2-0.1-0.3c0.1,0.1,0.2,0.1,0.2,0.1S71,31,71,30.9c0.1,0,0-0.1,0-0.1
						h-0.1c0.1,0.1,0.1,0.1,0.1,0c0.1,0,0,0.1,0.1,0.1c-0.1-0.1,0.2,0,0.2-0.1c0.1,0,0.2,0.1,0.2,0.1c-0.1-0.1,0.2,0,0.1-0.1
						s-0.1,0-0.2-0.2v0.2l-0.2-0.2v0.1c-0.1-0.1-0.1-0.1-0.2-0.1c0.2,0.1-0.1-0.2,0.1-0.1l0.3,0.2c0.2,0-0.1-0.2,0.1-0.3h-0.1
						c-0.1-0.1,0-0.1,0-0.1c0.1,0.1,0.2,0.1,0.2,0.1c-0.1,0,0.1-0.1-0.2-0.2h0.2c0.1,0-0.3-0.3-0.2-0.3c0.1,0.1,0.2,0.1,0.3,0.2
						c0,0,0.1,0,0-0.1c0.1,0-0.1-0.2,0-0.1c0,0-0.2-0.1-0.1-0.1h0.1c-0.1,0,0-0.1-0.2-0.1c0.4,0.1,0.1-0.2,0.5-0.1
						c0-0.1,0-0.2,0-0.2s0.1,0,0,0c0.1,0-0.3-0.2-0.1-0.2c0.2,0.1,0.1,0.1,0.2,0.1c0.4,0.2,0-0.1,0.3-0.1l0,0c0.2,0-0.1-0.2,0-0.2
						c0,0,0,0,0.1,0c-0.2-0.2-0.2-0.3-0.2-0.4c0.1,0.1,0.1,0.1,0.2,0.2c0,0-0.2-0.1-0.3-0.2c0.1,0,0.2,0,0.4,0.1v0.1
						c0.2,0.1,0-0.1,0.1-0.1l0.1,0.1c0-0.1-0.2-0.2-0.1-0.3h-0.1c-0.2-0.2,0.2,0,0-0.1l0.2,0.1c0-0.1-0.2-0.2-0.2-0.3
						c0.1,0.1,0.2,0.3,0.3,0.4c0,0,0.1-0.1-0.1-0.2c0,0,0.1,0.1,0,0.1c-0.2-0.1-0.2-0.3-0.2-0.3c0.4,0.3,0.2-0.1,0.6,0.1
						c-0.1-0.2,0.2-0.2,0.3-0.3c-0.4-0.2,0,0-0.3-0.3c0,0,0-0.1,0,0h0.3c0.1,0,0.1,0.1,0.1,0.1c0.1-0.1,0.2,0.1,0.3,0.1
						c-0.1-0.1-0.2-0.1-0.1-0.1h-0.2c-0.1-0.2,0.3,0.1,0.2-0.1l0.1,0.1c0-0.1,0.1-0.2-0.1-0.4l0.2,0.1c0.1-0.1-0.1-0.4,0.1-0.4
						l0.1,0.1c0,0-0.1-0.1,0-0.1l0.1,0.1c0,0-0.1-0.2,0-0.2l0.1,0.1c0.2,0-0.1-0.3-0.1-0.5c0.3,0.2,0.4,0.1,0.5,0.1l0,0
						c0.1-0.1-0.1-0.4-0.1-0.6c0.3,0.1,0.3-0.2,0.6-0.3c-0.1,0-0.2-0.1-0.2-0.2c0.1,0-0.1-0.2,0.1-0.1l0,0c0.3,0.1,0.2,0,0.3-0.1
						l-0.3-0.2c0.6,0.1,0-0.5,0.5-0.4c-0.1-0.1-0.1-0.1-0.2-0.2h0.2c0.1-0.1,0.1-0.2,0.1-0.4l0.1,0.1c0-0.1-0.6-0.2-0.6-0.2h0.3
						c0-0.1,0.3-0.2,0-0.4c0,0,0.1,0,0.2,0c0-0.1,0.3-0.1-0.2-0.2c0.3,0,0-0.1-0.1-0.1h0.2c-0.3-0.1-0.3-0.1-0.4-0.2
						c0,0,0.2,0,0.1,0c0.1,0-0.2-0.1-0.1-0.1l0.1,0.1c0,0,0-0.1-0.2-0.1c-0.1-0.1,0.1-0.1,0.3,0c-0.1,0-0.3-0.1-0.2-0.1
						c0.1,0,0.1,0.1,0.1,0.1c0.2,0-0.2-0.2,0-0.2c0.1,0,0.1,0,0.1,0c0,0.1-0.1,0.1-0.1,0.1c0.2,0.1,0.3,0,0.5,0.2
						c-0.1-0.1-0.4-0.3-0.3-0.3c0,0,0,0,0.1,0l0,0l0,0h0.1c0.2,0.1,0.1,0,0.1,0c-0.2-0.1-0.2-0.1-0.4-0.2l0,0l0,0l0,0c0,0,0,0,0,0.1
						c-0.1-0.1-0.2-0.1,0-0.1c-0.1-0.1-0.3-0.2-0.3-0.2c0.3,0.1,0.5,0.1,0.7,0.2c-0.1-0.1,0-0.2-0.3-0.5c0-0.1,0.1,0,0.2,0.1
						c0,0,0,0,0.1,0.1c-0.1-0.1,0-0.2-0.2-0.3c0.2,0,0.2,0.2,0.2,0.1l0.1,0.1c0.6,0.1-0.6-0.7,0.1-0.6H76c0.4-0.1,0-0.6,0.5-0.7
						c0.1-0.1-0.1-0.1-0.2-0.2h0.3l-0.3-0.1c-0.2-0.1,0.7-0.1,0.3-0.3h-0.2c0-0.1-0.1-0.2,0.1-0.2c0,0-0.2,0-0.1,0h0.2
						c-0.1,0-0.2-0.1-0.3-0.1c0.1-0.1,0.6-0.1,0.6-0.3c-0.1-0.1-0.5-0.1-0.6,0c0,0-0.1,0.1-0.2,0.1H76c-0.5,0.1-0.9,0.2-1.2,0.3
						c0.1,0,0.2,0,0.3,0h-0.2l0,0c-0.2,0.1,0,0,0.1,0c-0.1,0-0.2,0-0.2,0c0.2,0,0.3,0,0.4,0c-0.2,0-0.4,0-0.4,0c0.2,0,0.4,0,0.5,0
						c-0.2,0-0.4,0-0.2,0c-0.1,0-0.2,0-0.2,0c0.1,0,0.1,0,0.3,0c-0.3,0,0.1,0.1-0.4,0c0.1,0,0.3,0.1,0.3,0.1c-0.5-0.1,0,0.1-0.6,0
						c0.4,0.1,0.2,0.1,0.4,0.2h-0.1c0,0-0.2,0-0.3,0c0.3,0.1,0.4,0.2,0.6,0.3c-0.3-0.1-0.4-0.2-0.7-0.3c0.3,0.1,0.3,0.2,0.5,0.2
						c-0.2,0-0.1,0-0.4-0.1c0.4,0.2,0.1,0.1,0.3,0.2c-0.2,0-0.4-0.2-0.3,0C74.3,20.4,74.2,20.3,74.2,20.3z M74.2,22.1L74.2,22.1
						C74.2,22,74.2,22,74.2,22.1C74.2,22,74.2,22,74.2,22.1z M74.2,22.2L74.2,22.2c0.1,0,0.2,0,0.2,0C74.3,22.2,74.3,22.2,74.2,22.2
						z M75.8,22.6L75.8,22.6C75.7,22.6,75.7,22.6,75.8,22.6l-0.1-0.1C75.7,22.6,75.8,22.6,75.8,22.6z"/>
					<path class="st9" d="M75.5,22.4L75.5,22.4L75.5,22.4L75.5,22.4L75.5,22.4z"/>
					<path class="st9" d="M68.7,32.4L68.7,32.4L68.7,32.4L68.7,32.4z"/>
					<path class="st9" d="M73.5,24L73.5,24L73.5,24z"/>
					<path class="st9" d="M67.9,32.5C67.9,32.5,67.8,32.5,67.9,32.5C67.8,32.5,67.8,32.5,67.9,32.5z"/>
					<path class="st9" d="M67.6,32.8L67.6,32.8L67.6,32.8z"/>
					<path class="st9" d="M67.4,32.9C67.4,32.9,67.5,32.9,67.4,32.9L67.4,32.9L67.4,32.9z"/>
					<path class="st9" d="M70.1,30.4L70.1,30.4C70,30.3,70,30.3,70.1,30.4z"/>
					<path class="st9" d="M69.8,31.3C69.8,31.3,69.7,31.3,69.8,31.3C69.7,31.2,69.7,31.2,69.8,31.3z"/>
					<path class="st9" d="M70.5,29.1L70.5,29.1L70.5,29.1z"/>
					<path class="st9" d="M69.8,31.2C69.8,31.2,69.7,31.2,69.8,31.2C69.8,31.2,69.8,31.3,69.8,31.2z"/>
					<path class="st9" d="M66.7,33.5L66.7,33.5L66.7,33.5z"/>
					<path class="st9" d="M66.7,33.5L66.7,33.5L66.7,33.5z"/>
					<path class="st9" d="M66.6,33.6L66.6,33.6L66.6,33.6z"/>
					<path class="st9" d="M66.9,33.4L66.9,33.4L66.9,33.4z"/>
					<path class="st9" d="M67,33.3C67,33.3,66.9,33.3,67,33.3L67,33.3C66.9,33.3,67,33.4,67,33.3z"/>
					<path class="st9" d="M67.6,33.4L67.6,33.4C67.5,33.5,67.6,33.5,67.6,33.4C67.7,33.5,67.5,33.5,67.6,33.4z"/>
					<path class="st9" d="M67.8,33.3C67.8,33.3,67.9,33.3,67.8,33.3C67.9,33.3,67.9,33.3,67.8,33.3z"/>
					<path class="st9" d="M69.2,32.2L69.2,32.2C69.3,32.3,69.3,32.3,69.2,32.2z"/>
					<polygon class="st9" points="69.3,31.4 69.2,31.3 69.2,31.4 					"/>
					<path class="st9" d="M69.8,32.3L69.8,32.3L69.8,32.3z"/>
					<path class="st9" d="M72.1,29.6l-0.2-0.1C71.9,29.6,72.1,29.7,72.1,29.6z"/>
					<path class="st9" d="M72.6,28.3C72.7,28.4,72.8,28.4,72.6,28.3C72.7,28.3,72.6,28.3,72.6,28.3z"/>
					<polygon class="st9" points="75.1,25 75.2,25 75.2,25 					"/>
				</g>
			</g>
		</g>
	</g>
</g>
<g class="st8">
	<path class="st10" d="M77.4,13.4"/>
</g>
<g class="st8">
	<g>
		<g>
			<g>
				<g>
					<path class="st9" d="M77.1,13.6c0.1,0,0.2,0.1,0.2,0.1L77.1,13.6L77.1,13.6z"/>
					<path class="st9" d="M77.6,13.9c-0.1-0.1-0.4-0.2-0.7-0.3c0.3,0.1,0.2,0.1,0.5,0.3c0,0-0.1,0-0.2-0.1c0.1,0,0,0,0.1,0.1
						c0.2,0.1,0.2,0.1,0.1,0C77.5,13.8,77.6,13.9,77.6,13.9z"/>
					<path class="st9" d="M78.1,14L78.1,14L78.1,14z"/>
					<path class="st9" d="M78.3,14C78.3,14,78.4,14,78.3,14C78.4,14,78.4,14,78.3,14z"/>
					<path class="st9" d="M78.7,14.1L78.7,14.1L78.7,14.1z"/>
					<path class="st9" d="M78.1,14L78.1,14C78.1,14,78.2,14,78.1,14z"/>
					<path class="st9" d="M76.9,13.5C76.9,13.5,77,13.6,76.9,13.5C77,13.6,77,13.6,76.9,13.5L76.9,13.5z"/>
					<path class="st9" d="M78.4,14.2L78.4,14.2c0,0,0.1,0,0.1,0.1L78.4,14.2z"/>
					<path class="st9" d="M78.4,14.2c0,0-0.2-0.1-0.4-0.2c0.1,0.1,0.2,0.1,0.2,0.1C78.3,14.1,78.3,14.2,78.4,14.2z"/>
					<path class="st9" d="M77.9,14L77.9,14C78,14,78,14,77.9,14z"/>
					<path class="st9" d="M78.4,14.2C78.5,14.2,78.5,14.2,78.4,14.2L78.4,14.2z"/>
					<path class="st9" d="M76.6,13L76.6,13L76.6,13z"/>
					<polygon class="st9" points="78,13.2 78,13.2 78.1,13.2 					"/>
					<path class="st9" d="M79,14.2L79,14.2C79.1,14.2,79.1,14.2,79,14.2z"/>
					<path class="st9" d="M78.9,13.9c-0.2-0.1-0.3-0.1-0.6-0.2C78.5,13.7,78.8,13.8,78.9,13.9z"/>
					<path class="st9" d="M76.9,13.6L76.9,13.6C76.9,13.5,76.9,13.5,76.9,13.6z"/>
					<path class="st9" d="M78.4,13.7L78.4,13.7L78.4,13.7C78.3,13.7,78.3,13.7,78.4,13.7z"/>
					<path class="st9" d="M78.9,14.1L78.9,14.1C78.8,14.1,78.8,14.1,78.9,14.1z"/>
					<path class="st9" d="M78.5,14L78.5,14L78.5,14z"/>
					<path class="st9" d="M78.5,13.9C78.6,13.9,78.6,14,78.5,13.9L78.5,13.9C78.6,13.9,78.6,13.9,78.5,13.9z"/>
					<path class="st9" d="M78.5,13.9L78.5,13.9L78.5,13.9L78.5,13.9z"/>
					<path class="st9" d="M76.7,13c0.1,0,0.2,0,0.2,0C76.8,13,76.7,13,76.7,13z"/>
					<path class="st9" d="M77.1,13.6c-0.1,0-0.1,0-0.1-0.1C76.9,13.6,77,13.6,77.1,13.6C77,13.6,77,13.6,77.1,13.6z"/>
					<path class="st9" d="M76.4,13.2L76.4,13.2C76.5,13.2,76.4,13.2,76.4,13.2z"/>
					<path class="st9" d="M76.7,13.1L76.7,13.1L76.7,13.1z"/>
					<path class="st9" d="M76.5,13.2c0.1,0,0.1,0.1,0.2,0.1c0,0,0,0-0.1,0L76.5,13.2z"/>
					<path class="st9" d="M77,13.1L77,13.1L77,13.1z"/>
					<path class="st9" d="M76.3,12.9c0,0,0.4,0.1,0.6,0.1C77,13,76.6,12.9,76.3,12.9c0.2,0,0.5,0.1,0.5,0.1c-0.1,0-0.1,0-0.2,0
						c0.3,0.1,0,0,0.4,0.1h-0.1c0.2,0,0.4,0.1,0.5,0.1c0,0,0.2,0,0,0c0,0-0.1,0-0.2,0h0.1c-0.3-0.1-0.1,0-0.4-0.1
						c0.1,0,0.4,0.1,0.3,0.1c-0.3-0.1-0.1,0-0.4-0.1h0.1c-0.5-0.1,0,0-0.5-0.1c-0.1,0,0.2,0,0.1,0c0.2,0,0.3,0.1,0.5,0.1
						c0.3,0.1-0.8-0.2-0.4-0.1c0.2,0,0.6,0.1,0.4,0.1L76.7,13c0,0,0.5,0.1,0.3,0.1c-0.1,0-0.1,0-0.2,0c-0.3-0.1,0.2,0,0.2,0L76.7,13
						c0.1,0,0.3,0.1,0.4,0.1c-0.1,0-0.2,0-0.3-0.1c0.2,0,0,0-0.2,0l0.3,0.1c0,0-0.1,0-0.2,0s0.2,0,0.3,0.1c0,0-0.2,0-0.3-0.1
						c0.2,0.1,0.5,0.1,0.2,0.1h-0.1c-0.1,0,0.6,0.1,0.3,0.1H77c-0.1,0,0.1,0-0.3-0.1c0.4,0.1-0.1,0,0.4,0.1
						c-0.3-0.1-0.4-0.1-0.6-0.1l0.4,0.1l-0.3-0.1l0.3,0.1l-0.4-0.1h0.1c0,0,0.1,0,0.2,0.1c0.1,0-0.2,0-0.4-0.1l0.3,0.1
						c-0.1,0-0.2,0-0.2-0.1c0.3,0.1-0.3-0.1,0,0c0.1,0,0.2,0,0.2,0.1c-0.2,0-0.2,0-0.1,0l-0.2-0.1c-0.1,0,0.1,0,0.1,0
						c0.1,0,0.5,0.1,0.5,0.1l-0.3-0.1c0.2,0.1,0.1,0,0.4,0.1c0,0-0.4-0.1-0.5-0.1h0.1c-0.1,0-0.1,0-0.3-0.1c0.2,0.1-0.3-0.1,0,0
						h-0.1h0.1c0.3,0.1,0.2,0.1,0.4,0.1c-0.1,0-0.3-0.1-0.3-0.1c0.1,0,0.2,0.1,0.4,0.1c-0.2-0.1-0.2-0.1-0.4-0.1c0,0,0,0,0.2,0.1
						c0.1,0,0.1,0,0.2,0.1c0,0-0.1,0-0.2-0.1l0,0c0.4,0.1-0.7-0.2-0.2,0l0,0l0.3,0.1c0,0-0.2-0.1-0.3-0.1c0.4,0.1-0.1,0,0.2,0.1
						c-0.7-0.2,0,0-0.4-0.1l0.2,0.1c0.2,0.1-0.1,0-0.1,0c0.1,0,0.2,0,0.2,0.1c0.2,0.1-0.3-0.1-0.4-0.1c0,0,0.9,0.3,0.5,0.2l-0.3-0.1
						c0.4,0.1,0,0,0.3,0.1c-0.1,0-0.2-0.1-0.2-0.1c-0.2-0.1,0,0,0.2,0.1c0,0-0.2-0.1-0.3-0.1c-0.1,0,0.3,0.1,0.1,0h-0.1
						c0.1,0,0,0,0.2,0.1c-0.1,0,0.1,0,0,0c0.2,0.1-0.1,0,0.3,0.1c-0.4-0.1-0.3-0.1-0.1,0c-0.1,0-0.1,0-0.3-0.1c0,0,0.1,0,0.3,0.1
						c-0.5-0.2,0.4,0.2-0.2-0.1c0.2,0.1,0.4,0.1,0.5,0.2c-0.4-0.2,0,0-0.5-0.2c0.2,0.1,0.5,0.2,0.4,0.2s-0.2-0.1-0.3-0.1
						c0.2,0.1,0,0,0.2,0.1h-0.1c0,0-0.1,0,0.1,0.1h-0.1c0.3,0.1,0.6,0.2,0.7,0.3c-0.5-0.2-0.1-0.1-0.8-0.3c0,0,0.1,0,0.3,0.1
						c0,0-0.1,0-0.3-0.1c0.1,0,0.3,0.1,0.3,0.1c-0.1,0-0.1-0.1-0.2-0.1c0.2,0.1,0.4,0.1,0.3,0.1S77,13.8,77,13.8s0.5,0.2,0.3,0.1
						c-0.4-0.2-0.1-0.1-0.5-0.2h0.1l0.2,0.1c0,0,0.2,0.1,0.1,0.1L77,13.5h0.1l0.1,0.1c0.2,0.1,0.4,0.2,0.3,0.1c0,0,0,0-0.2-0.1l0,0
						c0.1,0,0.2,0.1,0.1,0.1s-0.4-0.2-0.5-0.2c0.3,0.1,0.1,0,0.4,0.2c-0.1,0-0.3-0.1-0.3-0.1l0.2,0.1c-0.1,0-0.1,0-0.3-0.1
						c0,0,0.4,0.2,0.2,0.1H77c-0.1,0,0.1,0.1,0,0c-0.3-0.1-0.1,0-0.4-0.2c0.1,0,0.4,0.2,0.3,0.2l0,0c0.5,0.2-0.2-0.1,0,0l-0.2-0.1
						c-0.1,0,0.1,0.1,0.3,0.1l-0.1-0.1c-0.1,0-0.1,0-0.1,0c0.1,0.1,0.1,0,0.3,0.1c-0.7-0.3,0.4,0.2-0.2-0.1l0.1-0.1l0.1,0.1
						c0.2,0.1,0.1,0.1,0.3,0.1c0.1,0.1,0.2,0.1,0.2,0.1c-0.1-0.1-0.3-0.2-0.5-0.2c0.1,0,0.1,0.1,0.2,0.1c-0.4-0.2,0.4,0.2,0.2,0.1
						l-0.1-0.1c0.1,0,0.2,0.1,0.2,0.1c-0.2-0.1-0.1-0.1-0.3-0.1c0,0,0.5,0.2,0.2,0.1c-0.1,0-0.1,0-0.1-0.1c-0.3-0.1-0.2-0.1-0.3-0.1
						l0,0l-0.1,0h0.1c0.6,0.3,0.1,0.1,0.5,0.3c-0.4-0.2-0.2-0.1-0.5-0.2c-0.1,0-0.2-0.1-0.2-0.1c0.2,0.1-0.2-0.1,0.1,0.1
						c-0.1,0,0,0-0.2-0.1c0.1,0,0.2,0.1,0.3,0.1c0.3,0.1-0.4-0.2,0,0c0.2,0.1,0.5,0.2,0.6,0.3c-0.1-0.1-0.3-0.2-0.3-0.2
						c-0.1-0.1-0.1,0,0,0c-0.1,0-0.1-0.1-0.2-0.1c0,0,0.3,0.2,0.2,0.1c-0.1,0-0.3-0.1-0.3-0.2c0.1,0,0.2,0.1,0.3,0.2
						c-0.2-0.1-0.2-0.1-0.3-0.2c0.1,0,0.1,0.1,0.4,0.2h0.1c0,0-0.2-0.1-0.3-0.1c-0.2-0.1,0.1,0,0.2,0.1h0.1c0.5,0.3-0.1,0,0,0L78,14
						l-0.3-0.2c0.1,0,0.3,0.2,0.4,0.2c0.2,0.1-0.1-0.1,0.1,0c0,0,0,0,0.1,0l-0.5,0c0.1,0,0.3,0.1,0.2,0.1c0.2,0.1-0.3-0.1,0,0l0,0
						c-0.1-0.1-0.3-0.1-0.6-0.3l0.7,0.3L77.9,14c0,0,0,0,0.1,0.1C77.8,14,77.9,14,77.7,14c0.3,0.1-0.1-0.1,0.3,0.1
						C77.8,14,77.8,14,77.7,14c0.5,0.2-0.1,0,0.1,0.1s0.1,0.1,0.3,0.2c-0.4-0.2,0.1,0,0,0c-0.2-0.3,0-0.2-0.1-0.3
						c0.1,0,0.2,0.1,0.3,0.1h0.1C78,14,78.1,14,78,14c0.2,0.1,0.3,0.1,0.4,0.2l0,0c-0.1-0.1-0.2-0.1-0.2-0.1l0.2,0.1
						c0,0-0.3-0.1-0.1-0.1c-0.2-0.1-0.6-0.3-0.8-0.4c0.1,0.1,0.3,0.2,0.4,0.2h-0.1L78,14c0.1,0-0.2-0.1-0.2-0.1
						C78.1,14,78,14,78.2,14c0,0-0.1,0,0,0c0,0,0.1,0.1,0.3,0.1c-0.1,0-0.2-0.1-0.3-0.1c0,0,0.2,0.1,0.3,0.1c-0.1-0.1,0,0-0.3-0.1
						c0,0,0.1,0.1,0.2,0.1c-0.1-0.1,0,0-0.3-0.1l0,0l0,0l0,0l0,0c-0.3-0.1,0.2,0.1,0,0h0.1c-0.1,0-0.1,0-0.3-0.1
						c0,0,0.2,0.1,0.3,0.1c-0.1,0-0.2-0.1,0,0s0.1,0.1,0.1,0.1c0.1,0,0.2,0.1,0,0c0.2,0.1,0.3,0.1,0.2,0.1l-0.2-0.1l0,0l0.3,0.1
						c0.4,0.1-0.6-0.3,0,0c-0.2-0.1-0.2-0.1-0.4-0.2l0.5,0.2c0.2,0.1-0.4-0.2-0.3-0.1c-0.1,0-0.4-0.2-0.5-0.2c0,0,0.5,0.2,0.6,0.2
						c0,0,0,0-0.1,0c0,0,0.1,0,0.2,0.1h-0.1c0.1,0,0.1,0,0.3,0.1c-0.1,0-0.2-0.1-0.2-0.1c0.2,0.1,0,0,0.1,0c-0.1,0-0.2-0.1-0.2-0.1
						c0.1,0-0.2-0.1-0.3-0.1c0.2,0.1,0.4,0.2,0.3,0.1c0.1,0,0.3,0.1,0.4,0.2c-0.2-0.1,0.1,0,0.2,0.1h0.1c-0.1,0,0,0,0,0L79,14.3
						c0,0,0,0,0.1,0c-0.1-0.1-0.4-0.1-0.6-0.2c0.1,0-0.1-0.1,0.2,0.1c-0.1,0,0.3,0.1,0.3,0.1l0,0h0.1c0.3,0.1-0.3-0.1-0.3-0.1
						c0.2,0.1,0.3,0.1,0.3,0.1s-0.3-0.1-0.4-0.2c0.1,0-0.1,0-0.1,0h-0.1C78.3,14,78.4,14,78.3,14c0.1,0.1,0.1,0,0.1,0.1
						c-0.3-0.1,0.3,0.1,0.1,0c0.1,0,0.3,0.1,0.4,0.1c-0.2-0.1,0.2,0.1,0.1,0c-0.2-0.1-0.2-0.1-0.4-0.1l0.2,0.1l-0.3-0.1
						c0,0,0.1,0.1,0.1,0c-0.2-0.1-0.1,0-0.3-0.1c0.3,0.1-0.2-0.1,0,0l0.6,0.2c0.2,0.1-0.3-0.1-0.1-0.1h-0.1c-0.2-0.1,0,0-0.1,0
						c0.2,0.1,0.3,0.1,0.4,0.1c-0.1-0.1,0,0-0.4-0.1l0.2,0.1c0.1,0-0.5-0.2-0.5-0.2c0.2,0.1,0.3,0.1,0.5,0.2c0,0,0,0-0.1,0
						c0.1,0-0.2-0.1-0.1,0c-0.1,0-0.2-0.1-0.3-0.1h0.1c-0.1,0-0.1,0-0.3-0.1c0.6,0.2,0,0,0.5,0.1c-0.1,0-0.1-0.1-0.1-0.1
						c0.1,0,0.1,0,0.1,0c0.2,0.1-0.5-0.2-0.3-0.1c0.3,0.1,0.2,0.1,0.3,0.1c0.6,0.2-0.1,0,0.3,0.1l0,0c0.2,0.1-0.2-0.1-0.2-0.1h0.1
						c-0.3-0.1-0.4-0.1-0.5-0.2c0.2,0.1,0.1,0,0.4,0.1c0,0-0.4-0.1-0.5-0.2c0.1,0,0.2,0.1,0.5,0.2l0,0c0.3,0.1,0,0,0,0h0.1l-0.4-0.1
						h-0.1c-0.4-0.1,0.2,0.1-0.1,0l0.4,0.1c-0.1,0-0.4-0.1-0.4-0.1c0.3,0.1,0.4,0.1,0.6,0.2c0,0,0,0-0.2-0.1h0.1
						c-0.3-0.1-0.4-0.1-0.4-0.1c0.7,0.2,0.2,0,0.8,0.2c-0.3-0.1,0.1,0,0.1,0c-0.6-0.2,0,0-0.6-0.2l0,0l0.4,0.1
						c0.2,0.1,0.1,0,0.3,0.1c0,0,0.2,0.1,0.4,0.1C79.5,14,79.4,14,79.5,14l-0.3-0.1c-0.3-0.1,0.5,0.1,0.2,0l0.2,0.1
						c-0.1,0,0,0-0.5-0.2c0.1,0,0.2,0.1,0.3,0.1c0.1,0-0.5-0.2-0.2-0.1h0.1c0,0-0.3-0.1-0.1,0c0.1,0,0.1,0,0.2,0
						c0,0-0.3-0.1-0.2-0.1h0.2c0.2,0-0.4-0.1-0.5-0.2c0.4,0.1,0.6,0.1,0.6,0.2h0.1c0.1,0-0.3-0.1-0.5-0.2c0.5,0.1,0.2,0,0.5,0.1
						c-0.1,0-0.3-0.1-0.4-0.1c0.1,0-0.3-0.1,0.1,0l0,0c0.4,0.1,0.3,0.1,0.3,0.1l-0.5-0.1c0.7,0.2-0.3-0.1,0.4,0.1
						c-0.1,0-0.1,0-0.3-0.1l0.3,0.1c0.1,0,0.1,0,0,0h0.2l-0.8-0.2l0.4,0.1c0,0,0.4,0.1,0,0c0.1,0,0.2,0,0.2,0s0.3,0.1-0.3-0.1
						c0.4,0.1,0,0-0.1,0l0.3,0.1c-0.3-0.1-0.4-0.1-0.5-0.1c0,0,0.2,0,0.1,0c0.1,0-0.3-0.1-0.1,0h0.2c0,0-0.1,0-0.3-0.1
						c-0.1,0,0.1,0,0.3,0.1c-0.1,0-0.3-0.1-0.3-0.1c0.1,0,0.2,0,0.2,0c0.2,0-0.3-0.1,0,0c0.1,0,0.1,0,0.2,0l0,0
						c0.3,0.1,0.3,0.1,0.6,0.1c-0.2,0-0.6-0.1-0.5-0.1c0,0,0,0,0.1,0l0,0l0,0h0.1c0.2,0,0.1,0,0.1,0c-0.3-0.1-0.2-0.1-0.5-0.1l0,0
						l0,0l0,0l0,0c-0.1,0-0.3-0.1-0.1,0c-0.2,0-0.4-0.1-0.4-0.1c0.4,0.1,0.6,0.1,0.8,0.2c-0.2,0-0.1,0-0.6-0.1c-0.1,0,0.1,0,0.2,0
						s0,0,0.1,0c-0.1,0,0,0-0.4-0.1c0.2,0,0.3,0.1,0.3,0.1h0.1c0.6,0.1-0.9-0.2-0.2-0.1h-0.1c0.3,0.1-0.3-0.1,0.2,0
						c0.1,0-0.1,0-0.3-0.1l0.3,0.1L78.7,13c-0.2-0.1,0.7,0.1,0.3,0h-0.2c0,0-0.1,0,0.1,0c0,0-0.2,0-0.1,0H79l-0.3-0.1
						c0.1,0,0.6,0.1,0.6,0.1c-0.1,0-0.5-0.1-0.6-0.1c0,0-0.1,0-0.3,0h-0.1c-0.5-0.1-0.9-0.2-1.2-0.2L77,13h-0.2l0,0
						c-0.2,0,0,0,0.1,0c-0.1,0-0.2,0-0.2,0l0.4,0.1c-0.2,0-0.4-0.1-0.5-0.1c0.2,0,0.4,0.1,0.5,0.1C77,13,76.8,13,77,13
						c-0.1,0-0.2,0-0.2,0c0.1,0,0.1,0,0.3,0.1c-0.3,0,0.1,0-0.4-0.1c0.1,0,0.3,0,0.3,0C76.5,13,77,13,76.3,12.9
						c0.6,0.1,0.3,0,0.6,0.1h-0.1c0,0-0.2,0-0.3,0c0.4,0.1,0.5,0.1,0.7,0.1C76.9,13,76.8,13,76.4,13c0.3,0.1,0.3,0.1,0.6,0.1
						c-0.2,0-0.1,0-0.4-0.1c0.5,0.1,0.1,0,0.4,0.1c-0.2,0-0.5-0.1-0.3-0.1C76.5,13,76.3,12.9,76.3,12.9z M77.1,13.2L77.1,13.2
						L77.1,13.2L77.1,13.2z M77.2,13.2L77.2,13.2c0.1,0,0.2,0,0.2,0C77.3,13.2,77.2,13.2,77.2,13.2z M79.1,13.6
						C79.1,13.6,79,13.6,79.1,13.6C79,13.6,79,13.6,79.1,13.6L79.1,13.6C79,13.5,79,13.6,79.1,13.6z"/>
					<path class="st9" d="M78.7,13.5L78.7,13.5C78.7,13.5,78.6,13.5,78.7,13.5L78.7,13.5L78.7,13.5z"/>
					<path class="st9" d="M78.1,14L78.1,14L78.1,14L78.1,14z"/>
					<path class="st9" d="M76.6,13.1L76.6,13.1L76.6,13.1z"/>
					<path class="st9" d="M77.2,13.6L77.2,13.6L77.2,13.6z"/>
					<path class="st9" d="M77.1,13.6L77.1,13.6L77.1,13.6z"/>
					<path class="st9" d="M77,13.6c0,0,0.1,0,0.1,0.1l0,0L77,13.6z"/>
					<path class="st9" d="M76.8,13.3C76.8,13.3,76.7,13.3,76.8,13.3C76.7,13.3,76.7,13.3,76.8,13.3z"/>
					<path class="st9" d="M77.3,13.6c0,0-0.1,0-0.1-0.1C77.2,13.5,77.2,13.5,77.3,13.6z"/>
					<path class="st9" d="M76.4,13.2L76.4,13.2L76.4,13.2z"/>
					<path class="st9" d="M77.2,13.6C77.2,13.5,77.2,13.5,77.2,13.6C77.2,13.6,77.3,13.6,77.2,13.6z"/>
					<path class="st9" d="M76.9,13.5L76.9,13.5L76.9,13.5L76.9,13.5z"/>
					<path class="st9" d="M76.9,13.5L76.9,13.5C76.9,13.6,76.9,13.6,76.9,13.5z"/>
					<path class="st9" d="M77,13.6L77,13.6C76.9,13.6,76.9,13.6,77,13.6z"/>
					<path class="st9" d="M77,13.6L77,13.6C76.9,13.5,77,13.6,77,13.6z"/>
					<path class="st9" d="M77,13.6c0,0-0.2-0.1-0.1-0.1L77,13.6C76.8,13.5,77.1,13.6,77,13.6z"/>
					<path class="st9" d="M78.1,14.1L78.1,14.1l0.2,0.1C78.6,14.3,78.1,14.1,78.1,14.1z"/>
					<path class="st9" d="M78.3,14.2c0,0,0.1,0.1,0.2,0.1C78.4,14.2,78.4,14.2,78.3,14.2z"/>
					<path class="st9" d="M78.3,14.1l0.2,0.1C78.5,14.1,78.5,14.1,78.3,14.1z"/>
					<polygon class="st9" points="77.1,13.5 77,13.5 77.2,13.6 					"/>
					<polygon class="st9" points="78.8,14.2 78.8,14.2 78.7,14.2 					"/>
					<path class="st9" d="M78.8,14l-0.3-0.1C78.5,13.9,78.9,14,78.8,14z"/>
					<path class="st9" d="M78.5,13.8C78.7,13.8,78.7,13.9,78.5,13.8L78.5,13.8z"/>
					<path class="st9" d="M79.1,13.7l0.1,0.1L79.1,13.7z"/>
				</g>
			</g>
		</g>
	</g>
</g>
<path class="st11" d="M120.6,106.2"/>
<g>
	<path class="st12" d="M132.2,50.3c0.2,0.6-0.3,1.2-0.8,1c-1-0.2-2.3,0-2.9,0.1c-2.2,0.2-4.4,0.3-6.6,0.3c-0.2,0-0.4,0-0.6,0.1
		c-0.7,0.2-1,1.2-0.7,1.9s0.9,1.1,1.6,1.4c0.7,0.2,1.4,0.3,2.1,0.6c1.2,0.4,2.3,1.2,3,2.3c0.2,0.3,0.3,0.6,0.3,0.9
		c0.1,1.2-1,1.7-1.9,1.8c-1.8,0.3-3.6-0.3-5.3-1.1c-0.7-0.3-1.6-0.7-2.2-0.1c-0.2,0.2-0.3,0.5-0.3,0.8c-0.5,1.9-1,3.7-1.5,5.6
		c2.8-0.8,5.7-1,8.6-0.6c1,0.1,2,0.4,2.7,1c0.7,0.7,1,1.9,0.4,2.7c-0.3,0.4-0.7,0.6-1.1,0.8c-2.8,1.3-8.5,3.5-11.5,2"/>
	
		<linearGradient id="SVGID_2_" gradientUnits="userSpaceOnUse" x1="124.9486" y1="53.1539" x2="115.3549" y2="36.4156" gradientTransform="matrix(1 0 0 -1 0 102)">
		<stop  offset="0.344" style="stop-color:#9F141B"/>
		<stop  offset="1" style="stop-color:#D12926"/>
	</linearGradient>
	<path class="st13" d="M111.8,45.6c0.5-0.7,1.6-1,2.9-1.1c4.3-0.3,8.7,0.1,12.9,1.2c2.5,0.7,4.2,2.2,5,4.4c0.2,0.6-0.3,1.2-0.9,1
		c-1-0.2-2.4,0-3.1,0.1c-2.3,0.2-4.6,0.3-6.9,0.3c-0.2,0-0.4,0-0.6,0.1c-0.7,0.2-1,1.2-0.7,1.9s1,1.1,1.7,1.4
		c0.7,0.2,1.5,0.3,2.2,0.6c1.3,0.4,2.4,1.2,3.2,2.3c0.2,0.3,0.3,0.6,0.4,0.9c0.1,1.2-1,1.7-2,1.8c-1.9,0.3-3.8-0.3-5.5-1.1
		c-0.7-0.3-1.7-0.7-2.2-0.1c-0.2,0.2-0.3,0.5-0.3,0.8c-0.5,1.9-1,3.8-1.5,5.6c2.9-0.8,6-1,8.9-0.6c1,0.1,2,0.4,2.8,1
		s1.1,1.9,0.4,2.7c-0.3,0.4-0.7,0.6-1.2,0.8c-3,1.3-6,2.5-9.3,2.8c-1.8,0.1-3.7-0.1-5.2-1.2c-1.2-0.9-1.9-2.4-2.2-3.9
		c-0.3-1.5-0.2-3.1-0.1-4.6c0.1-2.1,1.5-4,1.6-6.1c0-0.7-1.1-1.6-0.7-2.2c0.8-1,2.7-0.9,3-2.4c0.1-0.4,0-0.9-0.1-1.3
		c-0.4-1-1.3-1.7-1.9-2.6C111.5,46.9,111.4,46.1,111.8,45.6z"/>
	<path class="st14" d="M111.7,69.2c-0.3-1.5-0.3-5-0.2-6.5c0.1-2,1.5-3.9,1.6-5.9c0-0.7-1.1-1.6-0.7-2.1c0.8-1,2.7-0.8,3-2.4
		c0.1-0.4,0-0.9-0.1-1.3c-0.4-1-1.3-1.7-1.9-2.5c-0.8-1-0.9-1.8-0.5-2.4c0.5-0.7,1.6-1,2.9-1.1c4.3-0.3,11.4,0.7,15.3,2.6"/>
</g>
<g>
	<path class="st15" d="M35.5,36.5c4.1,1,10.9-0.5,13.8-3.3c1.2-1.2,2.4-2.5,2.9-4.1c1-3.1-0.4-6.6-2.8-8.8s-5.7-3.2-8.9-3.6
		s-6.5-0.3-9.7-0.5c-0.7,0-1.5-0.3-1.6-0.9c-0.1-0.8,0.8-1.2,1.5-1.4c6.1-1.6,12.5-2.5,18.8-2.6c1.3,0,3.1-0.6,2.9-1.9
		c-0.1-0.4-0.3-0.7-0.7-0.9c-0.3-0.2-6.9-1-7.2-1.2"/>
	<path class="st16" d="M24.6,19.7c1.5,0.9,3.3,1.2,5,1.2c4.2,0.2,8.4,0.9,12.4,1.9c1.7,0.4,3.6,1.1,4.1,2.8c0.4,1.3-0.2,2.7-1.2,3.5
		c-1,0.9-2.3,1.3-3.6,1.5c-3.8,0.8-7.8,0.5-11.5-0.8c-0.9-0.3-1.9-1.1-1.5-2c0.2-0.5,0.8-0.6,1.3-0.7c1.7-0.3,3.5-0.3,5.2,0.1
		c2.8,0.5,5.7,1.8,8.1,0.4c0.2-0.1,0.5-0.2,0.5-0.4c0.2-0.4-0.3-0.9-0.7-1.2"/>
	<path class="st17" d="M29.1,29.3c-1.2-0.6,2.3-3,2.3-2.4"/>
	<path class="st18" d="M26,32.5"/>
	<path class="st19" d="M43.6,26.9c-3.7-2.6-8.3-3.7-12.7-3.2c-2.8,0.3-6,1.8-6.4,4.7c-0.2,1.8,0.9,3.2,2.2,4.5"/>
	
		<linearGradient id="SVGID_3_" gradientUnits="userSpaceOnUse" x1="28.7655" y1="87.2616" x2="50.8197" y2="73.8929" gradientTransform="matrix(1 0 0 -1 0 102)">
		<stop  offset="0.1912" style="stop-color:#8BB537"/>
		<stop  offset="0.8558" style="stop-color:#029B49"/>
	</linearGradient>
	<path class="st20" d="M51.7,8.7c-0.3-0.2-0.6-0.3-0.9-0.4c-5.1-1.9-10.7-2.5-16.1-1.6C30.4,7.3,23.6,8.9,22.4,14
		c-0.5,2.1,0.3,4.6,2.2,5.8c1.5,0.9,3.3,0.9,5,1C33.8,21,38,21.5,42,22.6c1.7,0.4,3.6,1.1,4.1,2.8c0.4,1.3-0.2,2.7-1.2,3.5
		c-1,0.9-2.3,1.3-3.6,1.5c-3.8,0.8-7.8,0.5-11.5-0.8c-0.9-0.3-1.9-1.1-1.5-2c0.2-0.5,0.8-0.6,1.3-0.7c1.7-0.3,3.5-0.3,5.2,0.1
		c2.8,0.5,5.8,1.8,8.3,0.4c0.2-0.1,0.3-0.2,0.4-0.4c0.2-0.4-0.2-0.9-0.6-1.2c-3.7-2.6-8.3-3.7-12.7-3.2c-2.8,0.3-6,1.8-6.4,4.7
		c-0.2,1.8,0.8,3.5,2,4.8c2.9,3.2,7.1,5.2,11.5,5.4c4.3,0.2,8.7-1.3,11.9-4.2c1.3-1.1,2.4-2.5,2.9-4.1c1-3.1-0.4-6.6-2.8-8.8
		s-5.7-3.2-8.9-3.6c-3.2-0.4-6.5-0.3-9.7-0.5c-0.7,0-1.5-0.2-1.6-0.9C29,14.7,30,14.2,30.7,14c6.1-1.6,12.5-2.5,18.8-2.6
		c1.3,0,3.1-0.6,2.9-1.9C52.3,9.2,52.1,8.9,51.7,8.7z"/>
	<path class="st17" d="M51.8,8.5c-13.3-3-23.7-2.5-29.1,4.1"/>
	<path class="st17" d="M22.8,12.6c-1,3.4-0.8,6.3,3.2,7.9"/>
	<path class="st19" d="M52.5,9.7c-0.3-0.2-0.6-0.3-0.9-0.4c-5.1-1.9-10.7-2.5-16.1-1.6c-4.4,0.7-11.2,2.3-12.4,7.4
		c-0.5,2.1,0.3,4,2.2,5.2"/>
</g>
<g>
	<path class="st12" d="M114.5,15c0.3,0.4,0.1,1-0.4,1.1c-0.9,0.1-1.9,0.6-2.4,0.8c-1.8,0.7-3.5,1.3-5.4,1.9
		c-0.2,0.1-0.3,0.1-0.5,0.2c-0.5,0.4-0.5,1.2-0.1,1.7s1.1,0.7,1.7,0.7s1.3-0.1,1.9-0.1c1.1,0,2.2,0.4,3.1,1.1
		c0.2,0.2,0.4,0.4,0.5,0.7c0.4,0.9-0.4,1.6-1.1,2c-1.4,0.7-3.1,0.7-4.6,0.5c-0.7-0.1-1.5-0.1-1.8,0.5c-0.1,0.2-0.1,0.5-0.1,0.7
		c0.1,1.7,0.2,3.3,0.2,5c2.1-1.3,4.5-2.3,6.9-2.7c0.8-0.1,1.7-0.2,2.5,0.2c0.8,0.4,1.3,1.3,1,2.1c-0.1,0.4-0.4,0.7-0.7,0.9
		c-2,1.8-6.1,5.1-8.9,4.6"/>
	
		<linearGradient id="SVGID_4_" gradientUnits="userSpaceOnUse" x1="108.384" y1="87.2702" x2="103.7837" y2="67.9107" gradientTransform="matrix(1 0 0 -1 0 102)">
		<stop  offset="0.2643" style="stop-color:#8BB537"/>
		<stop  offset="1" style="stop-color:#029B49"/>
	</linearGradient>
	<path class="st21" d="M96.5,16.4c0.2-0.7,1.1-1.3,2.1-1.7c3.5-1.4,7.2-2.2,10.9-2.3c2.2-0.1,4,0.7,5.2,2.3c0.3,0.4,0.1,1-0.4,1.1
		c-0.9,0.1-1.9,0.6-2.5,0.8c-1.8,0.7-3.7,1.4-5.6,2c-0.2,0.1-0.4,0.1-0.5,0.2c-0.5,0.4-0.5,1.2-0.1,1.7s1.1,0.7,1.8,0.7
		c0.6,0,1.3-0.1,1.9-0.1c1.1,0,2.3,0.4,3.2,1.1c0.2,0.2,0.4,0.4,0.5,0.7c0.4,0.9-0.4,1.7-1.2,2c-1.5,0.7-3.2,0.7-4.8,0.5
		c-0.7-0.1-1.6-0.1-1.9,0.5c-0.1,0.2-0.1,0.5-0.1,0.7c0.1,1.7,0.1,3.3,0.2,5c2.2-1.4,4.6-2.3,7.2-2.8c0.9-0.1,1.8-0.2,2.5,0.1
		c0.8,0.4,1.4,1.3,1.1,2.1c-0.1,0.4-0.5,0.7-0.8,1c-2.1,1.9-4.3,3.6-6.9,4.7c-1.4,0.6-3.1,0.9-4.6,0.4c-1.2-0.5-2.2-1.5-2.8-2.7
		c-0.6-1.2-0.9-2.5-1.3-3.8c-0.4-1.8,0.2-3.7-0.3-5.5c-0.1-0.6-1.3-1-1.1-1.6c0.4-1.1,2-1.4,1.8-2.8c0-0.4-0.2-0.8-0.5-1.1
		c-0.6-0.7-1.5-1.1-2.3-1.6C96.6,17.6,96.3,17,96.5,16.4z"/>
	<path class="st19" d="M102.5,35.8c-0.6-1.1-1.6-4.1-1.9-5.3c-0.4-1.7,0.2-3.6-0.2-5.3c-0.1-0.6-1.3-1-1.1-1.5c0.4-1,2-1.4,1.9-2.7
		c0-0.4-0.2-0.7-0.4-1c-0.6-0.7-1.5-1-2.2-1.6c-0.9-0.6-1.2-1.3-1-1.8c0.2-0.7,1.1-1.2,2.1-1.6c3.5-1.4,9.6-2.4,13.3-1.8"/>
</g>
<g>
	<path class="st16" d="M93.2,41.5c1.3-0.4,1.7-2.4,1.6-3.6c-0.1-1.6-0.4-1-1.7-1c-2.2,0.1-7.5,1.1-9.2-0.7c-1.7-1.9-2.4-5.9-1-8.2
		c1-1.6,2.7-3,4.5-3.8c1.1-0.5,2.3-0.8,3.5-0.7c0.6,0,1,0.2,1.5,0.6s0.5,1,0.8,1.5c0.3,0.4,2.7,0.5,3.1,0.1c0.6-0.6,0.2-2.7-0.1-3.5
		"/>
	
		<linearGradient id="SVGID_5_" gradientUnits="userSpaceOnUse" x1="75.5087" y1="71.37" x2="92.7237" y2="71.37" gradientTransform="matrix(1 0 0 -1 0 102)">
		<stop  offset="0.1487" style="stop-color:#8BB537"/>
		<stop  offset="1" style="stop-color:#029B49"/>
	</linearGradient>
	<path class="st22" d="M96.5,21.8c-0.7-1.9-2.4-2.5-4.2-2.9c-2-0.4-4.5-0.7-6.4,0.1c-2,0.9-3.9,2.6-5.1,4.3
		c-1.2,1.7-1.9,3.7-2.2,5.8c-0.2,1.1-0.2,2.2-0.2,3.3c0,1.7,0.2,3.3,1.1,4.9c1.3,2,2.9,4,5.2,5c2.2,1,5.9,0.2,8.9-0.7
		c1.3-0.4,1.3-2.7,1.2-3.9c-0.2-1.5-0.4-1-1.8-1c-2.3,0.1-7.7,1.1-9.4-0.7c-1.7-1.9-2.4-5.8-1-8.1c1-1.6,2.8-3,4.6-3.7
		c1.1-0.5,2.4-0.8,3.6-0.7c0.6,0,1,0.2,1.5,0.6c0.4,0.3,0.9,1.2,0.9,1.6c0.9,0.1,2.4,0.6,3.1-0.1C96.9,25.1,96.8,22.6,96.5,21.8z"/>
	<path class="st23" d="M94.3,20c-2.2-0.5-4.2-1.4-6.4-0.6c-2.3,0.8-4.4,2.4-5.9,4C80.6,25,79.8,27,79.4,29c-0.2,1-0.3,2.1-0.3,3.2
		c0,1.7,0.1,3.3,1.1,4.8c1.3,2,3.1,4,5.6,5.1"/>
</g>
<g>
	<g>
		<path class="st16" d="M58.4,39.9c0.9,1.5,3.3-0.2,3.3-1.5c0-0.7-1.5-8.2-1-8.3c4.1-0.8,7.2-3.1,9.2-5.9c1.6-2.2,1.4-4.3,0.8-6.5
			c-0.1-0.2-0.1-0.5-0.2-0.7c-2.1-3.6-3.9-3.1-6.1-3.6 M59.3,25.2v-7.4c0-0.3,2.7-0.8,3.1-0.8c0.8-0.1,1.8-0.3,2.5,0"/>
	</g>
	<g>
		
			<linearGradient id="SVGID_6_" gradientUnits="userSpaceOnUse" x1="60.6004" y1="68.1037" x2="60.7689" y2="88.1654" gradientTransform="matrix(1 0 0 -1 0 102)">
			<stop  offset="0.1912" style="stop-color:#8BB537"/>
			<stop  offset="0.8558" style="stop-color:#029B49"/>
		</linearGradient>
		<path class="st24" d="M70.8,17.7c-0.1-0.2-0.1-0.5-0.2-0.7c-0.7-2.2-2.5-3.5-4.7-3.9c-2-0.4-4.2-0.3-6.2,0c-2.3,0.3-4.8,0.9-6.9,2
			c-1,0.5-2,0.9-2.4,2.1c-0.2,0.6-0.3,1.3,0,1.9s0.9,1.1,1.6,1.1c0.2,0,2.3-0.2,2.3-0.3c-1,10.4,1.5,15.7,4.1,20.1
			c0.9,1.5,3.3-0.2,3.3-1.5c0-0.7-1.5-8.2-1-8.3c4.1-0.8,6.8-3.5,9.2-5.9C71.6,22.5,71.4,19.9,70.8,17.7z M65.1,22.3
			c-0.3,0.6-0.7,1.1-1.2,1.6c-0.5,0.5-1.2,0.9-1.9,1.1c-0.3,0.1-2.8,0.4-2.8,0.1v-7.4c0-0.3,2.7-0.8,3.1-0.8c0.8-0.1,1.8-0.3,2.5,0
			c0.6,0.2,0.7,0.9,0.7,1.5c0.1,1.1,0,2.4-0.3,3.5C65.2,22.1,65.2,22.2,65.1,22.3z"/>
	</g>
	<g>
		<path class="st19" d="M61.1,39c0-0.7-1.3-8.9-0.8-9c4.1-0.8,6.6-2.8,9-5.2c1.7-1.7,1.4-4.3,0.8-6.5c-0.1-0.2-0.1-0.5-0.2-0.7
			c-0.7-2.2-2.5-3.5-4.7-3.9c-2-0.4-4.2-0.3-6.2,0c-2.3,0.3-4.8,0.9-6.9,2c-1,0.5-1.7,0.9-2,2.1 M58.7,25c0-0.5,0-6.8,0-6.5"/>
	</g>
</g>
<rect y="85.5" class="st25" width="150" height="14.5"/>
<g>
	<path class="st26" d="M147.1,84.4c-0.5,0.8-0.5,1.5-0.1,2.2c0.3,0.5,0.4,1,0.6,1.5c0.3,0.9,0.2,1.4-0.7,1.8c-0.7,0.4-1.4,0.7-2,1.1
		c-0.3,0.2-0.5,0.5-0.6,0.8c-0.2,0.8-0.3,1.5-0.4,2.3c-0.2,0.9-0.6,1.3-1.5,1.2c-0.8-0.1-1.5-0.3-2.3-0.3c-0.3,0-0.7,0.1-0.9,0.3
		c-0.6,0.5-1.1,1.1-1.7,1.6c-0.6,0.6-1.2,0.6-1.9,0c-0.6-0.5-1.1-1.1-1.7-1.6c-0.2-0.2-0.6-0.3-0.9-0.3c-0.7,0.1-1.4,0.2-2.1,0.3
		c-1,0.1-1.6-0.3-1.8-1.3c-0.1-0.5-0.2-1.1-0.2-1.6c0-0.8-0.4-1.3-1.1-1.6c-0.4-0.2-0.8-0.4-1.3-0.6c-1.1-0.6-1.3-1.2-0.8-2.3
		c0.3-0.6,0.6-1.2,0.9-1.9c0.1-0.3,0.1-0.6,0-0.9c-0.3-0.7-0.7-1.3-1-2c-0.5-0.9-0.3-1.6,0.7-2.1c0.6-0.3,1.2-0.6,1.8-0.9
		c0.5-0.2,0.8-0.6,0.8-1.2c0.1-0.7,0.2-1.4,0.3-2.2c0.2-0.8,0.6-1.1,1.5-1.1c0.7,0.1,1.5,0.2,2.3,0.4c0.5,0.1,0.8,0,1.1-0.3
		c0.6-0.6,1.2-1.1,1.8-1.7c0.6-0.5,1.2-0.5,1.8,0c0.6,0.6,1.1,1.2,1.7,1.7c0.2,0.2,0.6,0.3,0.9,0.3c0.7-0.1,1.4-0.2,2.1-0.3
		c1.1-0.2,1.6,0.3,1.8,1.3c0,0.2,0.1,0.4,0.1,0.6c-0.1,1.6,0.7,2.5,2.1,2.9c0.2,0.1,0.5,0.2,0.7,0.4c0.7,0.4,1,1.1,0.6,1.9
		C147.6,83.4,147.4,84,147.1,84.4z"/>
	<path class="st27" d="M138.8,80.4c0-0.4,0.1-0.8,0.3-1c0.2-0.3,0.5-0.4,0.9-0.4s0.7,0.1,0.9,0.4s0.4,0.6,0.4,1.1s-0.1,0.9-0.4,1.1
		S140.4,82,140,82c-0.3,0-0.6-0.1-0.9-0.4S138.8,80.9,138.8,80.4z M140,79.4c-0.2,0-0.3,0.1-0.4,0.2c-0.1,0.2-0.2,0.4-0.2,0.8
		s0.1,0.6,0.2,0.8s0.3,0.2,0.4,0.2c0.2,0,0.3-0.1,0.4-0.2c0.1-0.2,0.2-0.4,0.2-0.8s-0.1-0.6-0.2-0.8S140.2,79.4,140,79.4z M140,84.9
		l3.1-6h0.6l-3.1,6H140z M142.5,83.4c0-0.4,0.1-0.8,0.3-1c0.2-0.3,0.5-0.4,0.9-0.4s0.7,0.1,0.9,0.4s0.4,0.6,0.4,1.1
		s-0.1,0.9-0.4,1.1s-0.5,0.4-0.9,0.4c-0.3,0-0.6-0.1-0.9-0.4S142.5,83.9,142.5,83.4z M143.7,82.4c-0.2,0-0.3,0.1-0.4,0.2
		c-0.1,0.2-0.2,0.4-0.2,0.8s0.1,0.6,0.2,0.8s0.3,0.2,0.4,0.2c0.2,0,0.3-0.1,0.4-0.2c0.1-0.2,0.2-0.4,0.2-0.8s-0.1-0.6-0.2-0.8
		S143.9,82.4,143.7,82.4z"/>
	<path class="st27" d="M129.8,89.9c0-1,0.3-1.7,0.8-2.2s1.2-0.8,2-0.8c0.5,0,1,0.1,1.4,0.4s0.7,0.6,1,1.1s0.3,1,0.3,1.5
		c0,0.6-0.1,1.1-0.4,1.6s-0.6,0.8-1,1s-0.9,0.4-1.4,0.4s-1-0.1-1.4-0.4s-0.7-0.6-1-1.1S129.8,90.4,129.8,89.9z M130.5,90
		c0,0.7,0.2,1.2,0.6,1.6s0.8,0.6,1.4,0.6c0.6,0,1-0.2,1.4-0.6s0.6-1,0.6-1.7c0-0.5-0.1-0.9-0.2-1.2c-0.2-0.3-0.4-0.6-0.7-0.8
		c-0.3-0.2-0.6-0.3-1-0.3c-0.5,0-1,0.2-1.4,0.6S130.5,89.1,130.5,90z"/>
	<path class="st27" d="M135.5,92.7V87h3.9v0.7h-3.1v1.8h2.7v0.7h-2.7v2.6L135.5,92.7L135.5,92.7z"/>
	<path class="st27" d="M139.7,92.7V87h3.9v0.7h-3.1v1.8h2.7v0.7h-2.7v2.6L139.7,92.7L139.7,92.7z"/>
	<g>
		<path class="st27" d="M132.8,84.8h-0.7v-4.5c-0.2,0.2-0.4,0.3-0.7,0.5s-0.5,0.3-0.7,0.4v-0.7c0.4-0.2,0.7-0.4,1-0.7
			s0.5-0.5,0.6-0.8h0.5L132.8,84.8L132.8,84.8z"/>
		<path class="st27" d="M134.6,83.3l0.7-0.1c0.1,0.4,0.2,0.6,0.4,0.8s0.4,0.3,0.7,0.3s0.6-0.1,0.9-0.4s0.4-0.6,0.4-1
			s-0.1-0.7-0.3-0.9s-0.5-0.3-0.9-0.3c-0.2,0-0.4,0.1-0.6,0.2s-0.3,0.2-0.4,0.4l-0.7-0.1l0.6-2.9h2.8V80h-2.3l-0.3,1.5
			c0.3-0.2,0.7-0.4,1.1-0.4c0.5,0,0.9,0.2,1.3,0.5s0.5,0.8,0.5,1.3s-0.2,1-0.5,1.3c-0.4,0.5-0.9,0.7-1.5,0.7c-0.5,0-0.9-0.1-1.3-0.4
			S134.6,83.8,134.6,83.3z"/>
	</g>
</g>
<g>
	<g>
		<path class="st28" d="M64.1,70.6c-0.5,0.4-1.2,0.9-2.2,1.3c-0.2,0.1-0.3,0.1-0.5,0.2c0-0.1,0-0.2,0-0.3c0.1-1.3,1.4-2.7,0-3.4
			c-0.8-0.4-2.4-0.6-4.9-0.7c-4-0.2-10.3-0.2-19.6-0.3c-0.2,0-0.4,0-0.6,0H37l25.4-1.2C62.4,66.2,66.6,68.3,64.1,70.6z"/>
		<path class="st26" d="M61.5,69.9c0.2,0.3,0.2,0.6,0.4,0.9l0,0c0.4,0.5-2.1,1.3-2.4,1.4c-1.6,0.3-3.4,0-5,0
			c-4.1,0.2-8.1,0.8-12.2,1.3c-3.6,0.5-9.2,1.3-12.9,1.9c-1.6,0.3-1.4-0.6-3-1"/>
		<path class="st26" d="M47,42.6c2.3,2.1,2.5,4.9,1.3,7.3c-2.3,4.4-5.1,8.6-7.9,12.7c-1,1.4-2.4,2.6-4,4c-0.2,0.2-0.3,0.3-0.5,0.5
			c0,0,0,0-0.1,0.1s-0.2,0.2-0.3,0.3v0.1h1.1"/>
		<path class="st26" d="M39.1,51.2C39.1,51.2,39.1,51.1,39.1,51.2c-8.2,0.6-14.5-1.3-18.7-8c-0.5-0.8-0.6-1.9-1-3.6"/>
	</g>
	
		<linearGradient id="SVGID_7_" gradientUnits="userSpaceOnUse" x1="35.9432" y1="33.35" x2="64.5375" y2="33.35" gradientTransform="matrix(1 0 0 -1 0 102)">
		<stop  offset="5.152395e-02" style="stop-color:#D12926"/>
		<stop  offset="0.5605" style="stop-color:#9F141B"/>
	</linearGradient>
	<path class="st29" d="M63.7,70.1c-0.5,0.4-1.2,0.9-2.2,1.3c-0.2,0.1-0.3,0.1-0.5,0.2c0-0.1,0-0.2,0-0.3c0.1-1.3,1.4-2.7,0-3.4
		c-0.8-0.4-2.4-0.6-4.9-0.7c-4-0.2-10.3-0.2-19.6-0.3c-0.2,0-0.4,0-0.6,0h0.7L62,65.7C62,65.7,66.2,67.8,63.7,70.1z"/>
	<path class="st30" d="M64.1,70.2c-0.1,0.1-0.1,0.1-0.2,0.2c-0.7,0.6-1.6,1-2.5,1.3c-0.1-0.6,0.2-1.1,0.4-1.6s0.4-1.2,0-1.6
		c-0.2-0.3-0.6-0.4-0.9-0.5c-1.1-0.3-2.3-0.4-3.5-0.5c-2.5-0.1-5.1-0.2-7.6-0.2c-4.5-0.1-9.1-0.1-13.6-0.2c4.3-0.2,8.5-0.4,12.8-0.6
		c2.5-0.1,5-0.3,7.5-0.4c1.7-0.1,3.5-0.5,5.2-0.2c1.4,0.2,3.4,1.4,3.2,3.1C64.8,69.4,64.5,69.8,64.1,70.2z"/>
	
		<linearGradient id="SVGID_8_" gradientUnits="userSpaceOnUse" x1="46.3779" y1="54.5286" x2="28.2333" y2="29.7998" gradientTransform="matrix(1 0 0 -1 0 102)">
		<stop  offset="5.152395e-02" style="stop-color:#D12926"/>
		<stop  offset="0.5605" style="stop-color:#9F141B"/>
	</linearGradient>
	<path class="st31" d="M63.2,70.4c0.4,0.5-2.2,1.3-2.5,1.4c-1.6,0.3-3.5,0-5.2,0c-4.2,0.2-8.5,0.8-12.7,1.3
		c-3.8,0.5-7.5,1.6-11.2,2.2c-1.7,0.3-3.5,0.3-5.2-0.1c-3.8-1-5-4.4-2.5-7.4c3.1-3.7,6.6-7.2,9.9-10.8c1.7-1.8,3.3-3.8,5.6-6.5
		c0,0,0-0.1-0.1-0.1c-8.4,0.7-15-1.2-19.3-7.9c-0.5-0.8-0.6-1.9-1.1-3.6c0-0.1,0-0.1,0.1-0.1c3.9,1.7,8,3,12.3,3.7
		c2.8,0.4,5.8,0.9,8.6,0.2c2.7-0.6,5-3.2,7.7-0.9c2.4,2.1,2.6,4.9,1.3,7.3c-2.4,4.4-5.3,8.6-8.2,12.7c-1,1.4-2.5,2.6-4.2,4.1
		c-0.2,0.2-0.4,0.3-0.5,0.5c0,0,0,0-0.1,0.1s-0.2,0.2-0.3,0.3v0.1h1.1c6.6,0,12.7,0,18.7,0c0.9,0,1.8,0,2.7,0c1.2,0,2.3,0.4,3.2,1.1
		c0.5,0.4,0.9,0.8,1.2,1.3C62.9,69.7,63,70,63.2,70.4C63.2,70.3,63.2,70.3,63.2,70.4z"/>
	<g>
		<path class="st32" d="M27.8,43.1c1.9,0.4,3.8,0.6,5.7,0.7c1.9,0.1,3.8,0.2,5.7,0.1c0.9-0.1,1.8-0.2,2.7-0.4
			c0.4-0.1,0.9-0.3,1.3-0.4c0.4-0.2,0.9-0.4,1.5-0.5c0.6-0.2,1.4,0,2,0.3c0.5,0.3,1,0.8,1.3,1.3c0.3,0.6,0.4,1.2,0.4,1.7
			c0,0.6-0.1,1.1-0.2,1.6c-0.2,1-0.6,1.9-1,2.8c-0.4,0.9-0.8,1.7-1.2,2.6c-1,1.7-2,3.4-3,5.1c-1.1,1.6-2.3,3.2-3.5,4.7
			c-0.6,0.8-1.3,1.5-2,2.2c-0.3,0.4-0.7,0.7-1.1,1l-0.5,0.5c-0.2,0.1-0.3,0.4-0.7,0.3L34.6,66c0-0.4,0.2-0.4,0.4-0.6l0.5-0.5
			c0.3-0.3,0.7-0.6,1-1c0.7-0.7,1.3-1.4,1.9-2.1c1.2-1.5,2.4-3,3.5-4.5c1.1-1.6,2.1-3.2,3-4.9c0.8-1.7,1.9-3.4,2.3-5.2
			c0.3-0.9,0-1.9-0.5-2.3c-0.3-0.2-0.6-0.4-1-0.5c-0.3-0.1-0.5-0.1-0.8,0c-0.6,0.2-1.8,0.6-2.8,0.8s-2,0.3-3.1,0.3
			c-2,0-4-0.3-5.9-0.7C31.4,44.5,29.6,43.9,27.8,43.1z"/>
	</g>
	<path class="st32" d="M22.9,72.6c4.4,1.5,9.4,0.7,13.9,0c1.6-0.2,3.2-0.5,4.8-0.9c0.1,0.1,4.4-0.8,9.1-0.7
		c-5.8,1.3-11.5,2.7-17.3,4C29.8,75.8,25,77.6,22.9,72.6z"/>
	<path class="st32" d="M63.3,70.1c-0.5,0.4-1.2,0.8-2.2,1.2c-0.2,0.1-0.3,0.1-0.5,0.2c0-0.1,0-0.2,0-0.3c0.1-1.2,1.4-2.6,0-3.2
		c-0.8-0.4-2.4-0.6-4.9-0.7c-4-0.2-10.3-0.2-19.6-0.3c-0.2,0-0.4,0-0.6,0h0.7l25.4-1C61.6,66,65.8,67.9,63.3,70.1z"/>
</g>
<g>
	<path class="st16" d="M88.9,61.2C88.7,61,88.5,61,88.3,61s-0.3,0.2-0.4,0.4c0,0.2,0,0.5,0,0.7c0.9,3.8,1.8,7.7,2.7,11.5
		c0.2,1,0.5,2.1,0.3,3.1s-0.9,2-1.9,2.2c-1.3,0.1-2.8-4.2-3.5-5.5"/>
	<path class="st16" d="M91,44c1.5,0.2,3,1,4.2,2c5,3.6,9.1,8.6,10.9,14.3c0.7,2.3,1.3,5.1,0.8,7.6c-0.6,3.3-3.4,5.7-6.4,3.7"/>
	
		<linearGradient id="SVGID_9_" gradientUnits="userSpaceOnUse" x1="82.4189" y1="49.5317" x2="101.3259" y2="31.0271" gradientTransform="matrix(1 0 0 -1 0 102)">
		<stop  offset="0.6139" style="stop-color:#9F141B"/>
		<stop  offset="0.9307" style="stop-color:#D12926"/>
	</linearGradient>
	<path class="st33" d="M88.2,61.9c0,0.2,0,0.5,0,0.7c0.9,3.7,1.7,7.3,2.6,11c0.2,1,0.5,2,0.3,3s-0.9,1.9-1.9,2.1
		c-1.3,0.1-2.3-1.2-2.9-2.4c-3.2-6.1-4.6-13.1-4.2-20.1c0.1-1.9,0.3-5.1,3.2-3.8c0.4,0.2,0.8,0.5,1.2,0.8c4.6,3.9,9.3,7.6,14.2,11
		c-0.2-4-2.1-7.7-4.3-11c-2-3.1-4.2-6-5.8-9.3c-0.2-0.5,0.1-1,0.6-0.9c1.5,0.2,2.9,1.1,4.2,2c4.9,3.7,8.9,8.8,10.7,14.7
		c1,3.3,1.3,7-0.1,10.1c-0.6,1.4-1.7,2.8-3.3,3c-1.7,0.2-3.3-1.1-4.5-2.3l-9.1-8.8c-0.1-0.1-0.3-0.2-0.5-0.2
		C88.4,61.6,88.2,61.7,88.2,61.9z"/>
	<g>
		<path class="st34" d="M90.9,74.2c0.1,0.6,0,1.1-0.1,1.5c-0.1,0.5-0.4,0.9-0.7,1.4c-0.3,0.4-1,0.8-1.6,0.7c-0.6-0.1-1-0.5-1.4-0.9
			c-0.1-0.1-0.1-0.3,0-0.4s0.2-0.1,0.4,0l0,0c0.4,0.2,0.7,0.4,1,0.4s0.5-0.1,0.8-0.4s0.5-0.6,0.6-1c0.2-0.4,0.3-0.8,0.3-1.1v-0.1
			c0-0.2,0.2-0.3,0.3-0.3C90.8,74,90.9,74.1,90.9,74.2z"/>
	</g>
	<path class="st35" d="M90.5,44c1.4,0.2,2.8,1,3.9,1.8c4.6,3.3,8.5,7.9,10.2,13.2c1,3,1.2,6.3-0.1,9.1c-0.6,1.3-1.7,2.5-3.1,2.7
		c-1.6,0.2-3.1-1-4.3-2.1l-8.6-7.9c-0.1-0.1-0.3-0.2-0.5-0.2s-0.3,0.2-0.4,0.4c0,0.2,0,0.4,0,0.6"/>
</g>
<g>
	<path d="M19.1,96.3v-5.7h2.5c0.5,0,0.9,0.1,1.2,0.2s0.5,0.3,0.6,0.5s0.2,0.5,0.2,0.9c0,0.4-0.1,0.7-0.4,1s-0.7,0.5-1.2,0.5
		c0.2,0.1,0.4,0.2,0.5,0.3c0.2,0.2,0.4,0.5,0.6,0.8l1,1.6h-1l-0.8-1.2c-0.2-0.3-0.4-0.6-0.5-0.8S21.6,94,21.5,94s-0.2-0.1-0.3-0.2
		c-0.1,0-0.2,0-0.4,0h-0.9v2.5H19.1z M19.9,93.1h1.6c0.3,0,0.6,0,0.8-0.1s0.3-0.2,0.4-0.3s0.2-0.3,0.2-0.5c0-0.3-0.1-0.5-0.3-0.7
		s-0.5-0.3-0.9-0.3h-1.8V93.1z"/>
	<path d="M24.9,96.3v-5.7h4.1v0.7h-3.4V93h3.2v0.7h-3.2v1.9h3.5v0.7H24.9z"/>
	<path d="M30,94.5l0.7-0.1c0,0.3,0.1,0.5,0.2,0.7s0.3,0.3,0.6,0.4s0.6,0.2,0.9,0.2c0.3,0,0.5,0,0.8-0.1s0.4-0.2,0.5-0.4
		s0.2-0.3,0.2-0.5c0-0.2-0.1-0.3-0.2-0.5s-0.3-0.2-0.5-0.3c-0.2-0.1-0.5-0.2-1-0.3s-0.9-0.2-1.1-0.4c-0.3-0.1-0.5-0.3-0.6-0.5
		s-0.2-0.5-0.2-0.7c0-0.3,0.1-0.6,0.2-0.8s0.4-0.4,0.7-0.6s0.7-0.2,1.1-0.2c0.4,0,0.8,0.1,1.1,0.2s0.6,0.3,0.7,0.6s0.3,0.6,0.3,0.9
		l-0.7,0.1c0-0.4-0.2-0.6-0.4-0.8s-0.6-0.3-1-0.3c-0.5,0-0.8,0.1-1,0.3s-0.3,0.4-0.3,0.6c0,0.2,0.1,0.4,0.2,0.5
		c0.1,0.1,0.5,0.3,1.1,0.4s1,0.3,1.3,0.4c0.3,0.2,0.6,0.3,0.7,0.6s0.2,0.5,0.2,0.8c0,0.3-0.1,0.6-0.3,0.9s-0.4,0.5-0.8,0.6
		s-0.7,0.2-1.1,0.2c-0.5,0-1-0.1-1.3-0.2s-0.6-0.4-0.8-0.7S30,94.9,30,94.5z"/>
	<path d="M37,96.3v-5.1h-1.9v-0.7h4.5v0.7h-1.9v5.1H37z"/>
	<path d="M39.2,96.3l2.2-5.7h0.8l2.3,5.7h-0.9l-0.7-1.7h-2.4L40,96.3H39.2z M40.9,94h1.9l-0.6-1.6c-0.2-0.5-0.3-0.9-0.4-1.2
		c-0.1,0.4-0.2,0.7-0.3,1.1L40.9,94z"/>
	<path d="M49,90.6h0.8v3.3c0,0.6-0.1,1-0.2,1.4s-0.4,0.6-0.7,0.8s-0.8,0.3-1.3,0.3c-0.5,0-1-0.1-1.3-0.3s-0.6-0.5-0.7-0.8
		s-0.2-0.8-0.2-1.4v-3.3H46v3.3c0,0.5,0,0.9,0.1,1.1s0.3,0.4,0.5,0.5s0.5,0.2,0.8,0.2c0.6,0,1-0.1,1.2-0.4s0.4-0.7,0.4-1.5V90.6z"/>
	<path d="M51,96.3v-5.7h2.5c0.5,0,0.9,0.1,1.2,0.2s0.5,0.3,0.6,0.5s0.2,0.5,0.2,0.9c0,0.4-0.1,0.7-0.4,1s-0.7,0.5-1.2,0.5
		c0.2,0.1,0.4,0.2,0.5,0.3c0.2,0.2,0.4,0.5,0.6,0.8l1,1.6h-1l-0.8-1.2c-0.2-0.3-0.4-0.6-0.5-0.8S53.5,94,53.4,94s-0.2-0.1-0.3-0.2
		c-0.1,0-0.2,0-0.4,0h-0.9v2.5H51z M51.7,93.1h1.6c0.3,0,0.6,0,0.8-0.1s0.3-0.2,0.4-0.3s0.2-0.3,0.2-0.5c0-0.3-0.1-0.5-0.3-0.7
		s-0.5-0.3-0.9-0.3h-1.8V93.1z"/>
	<path d="M56.1,96.3l2.2-5.7h0.8l2.3,5.7h-0.9l-0.7-1.7h-2.4l-0.6,1.7H56.1z M57.8,94h1.9l-0.6-1.6c-0.2-0.5-0.3-0.9-0.4-1.2
		c-0.1,0.4-0.2,0.7-0.3,1.1L57.8,94z"/>
	<path d="M62.1,96.3v-5.7h0.8l3,4.5v-4.5h0.7v5.7h-0.8l-3-4.5v4.5H62.1z"/>
	<path d="M69.3,96.3v-5.1h-1.9v-0.7H72v0.7h-1.9v5.1H69.3z"/>
	<path d="M72,96.3v-0.8h0.8v0.8c0,0.3-0.1,0.5-0.2,0.7s-0.3,0.3-0.5,0.4l-0.2-0.3c0.1-0.1,0.3-0.2,0.3-0.3s0.1-0.3,0.1-0.5H72z"/>
	<path d="M76.3,96.3v-5.7h2.1c0.4,0,0.8,0.1,1.1,0.2s0.5,0.3,0.6,0.5s0.2,0.5,0.2,0.8c0,0.2-0.1,0.5-0.2,0.7s-0.3,0.4-0.6,0.5
		c0.3,0.1,0.6,0.3,0.8,0.5s0.3,0.5,0.3,0.9c0,0.3-0.1,0.5-0.2,0.7s-0.3,0.4-0.4,0.5s-0.4,0.2-0.6,0.3s-0.6,0.1-0.9,0.1H76.3z M77,93
		h1.2c0.3,0,0.6,0,0.7-0.1c0.2-0.1,0.3-0.2,0.4-0.3s0.1-0.3,0.1-0.5c0-0.2,0-0.4-0.1-0.5s-0.2-0.2-0.4-0.3s-0.5-0.1-0.9-0.1H77V93z
		 M77,95.7h1.4c0.2,0,0.4,0,0.5,0c0.2,0,0.3-0.1,0.4-0.2s0.2-0.2,0.3-0.3s0.1-0.3,0.1-0.5c0-0.2-0.1-0.4-0.2-0.6s-0.3-0.3-0.5-0.3
		s-0.5-0.1-0.8-0.1H77V95.7z"/>
	<path d="M81.8,96.3v-5.7h0.8v5.7H81.8z"/>
	<path d="M83.6,94.5l0.7-0.1c0,0.3,0.1,0.5,0.2,0.7s0.3,0.3,0.6,0.4s0.6,0.2,0.9,0.2c0.3,0,0.5,0,0.8-0.1s0.4-0.2,0.5-0.4
		s0.2-0.3,0.2-0.5c0-0.2-0.1-0.3-0.2-0.5S87,94.1,86.8,94c-0.2-0.1-0.5-0.2-1-0.3s-0.9-0.2-1.1-0.4c-0.3-0.1-0.5-0.3-0.6-0.5
		s-0.2-0.5-0.2-0.7c0-0.3,0.1-0.6,0.2-0.8s0.4-0.4,0.7-0.6s0.7-0.2,1.1-0.2c0.4,0,0.8,0.1,1.1,0.2s0.6,0.3,0.7,0.6s0.3,0.6,0.3,0.9
		l-0.7,0.1c0-0.4-0.2-0.6-0.4-0.8s-0.6-0.3-1-0.3c-0.5,0-0.8,0.1-1,0.3s-0.3,0.4-0.3,0.6c0,0.2,0.1,0.4,0.2,0.5
		c0.1,0.1,0.5,0.3,1.1,0.4s1,0.3,1.3,0.4c0.3,0.2,0.6,0.3,0.7,0.6s0.2,0.5,0.2,0.8c0,0.3-0.1,0.6-0.3,0.9s-0.4,0.5-0.8,0.6
		s-0.7,0.2-1.1,0.2c-0.5,0-1-0.1-1.3-0.2s-0.6-0.4-0.8-0.7S83.6,94.9,83.6,94.5z"/>
	<path d="M90.7,96.3v-5.1h-1.9v-0.7h4.5v0.7h-1.9v5.1H90.7z"/>
	<path d="M97.8,90.6h0.8v3.3c0,0.6-0.1,1-0.2,1.4s-0.4,0.6-0.7,0.8s-0.8,0.3-1.3,0.3c-0.5,0-1-0.1-1.3-0.3s-0.6-0.5-0.7-0.8
		s-0.2-0.8-0.2-1.4v-3.3h0.8v3.3c0,0.5,0,0.9,0.1,1.1s0.3,0.4,0.5,0.5s0.5,0.2,0.8,0.2c0.6,0,1-0.1,1.2-0.4s0.4-0.7,0.4-1.5V90.6z"
		/>
	<path d="M99.9,96.3v-5.7h2.2c0.4,0,0.7,0,0.9,0.1c0.3,0,0.5,0.1,0.7,0.3s0.3,0.3,0.5,0.6s0.2,0.5,0.2,0.8c0,0.5-0.2,0.9-0.5,1.2
		s-0.9,0.5-1.7,0.5h-1.5v2.3H99.9z M100.6,93.3h1.5c0.5,0,0.8-0.1,1-0.3s0.3-0.4,0.3-0.8c0-0.2-0.1-0.4-0.2-0.6s-0.3-0.3-0.5-0.3
		c-0.1,0-0.4-0.1-0.7-0.1h-1.5V93.3z"/>
	<path d="M109,90.6h0.8v3.3c0,0.6-0.1,1-0.2,1.4s-0.4,0.6-0.7,0.8s-0.8,0.3-1.3,0.3c-0.5,0-1-0.1-1.3-0.3s-0.6-0.5-0.7-0.8
		s-0.2-0.8-0.2-1.4v-3.3h0.8v3.3c0,0.5,0,0.9,0.1,1.1s0.3,0.4,0.5,0.5s0.5,0.2,0.8,0.2c0.6,0,1-0.1,1.2-0.4s0.4-0.7,0.4-1.5V90.6z"
		/>
	<path d="M111,96.3v-5.7h2.5c0.5,0,0.9,0.1,1.2,0.2s0.5,0.3,0.6,0.5s0.2,0.5,0.2,0.9c0,0.4-0.1,0.7-0.4,1s-0.7,0.5-1.2,0.5
		c0.2,0.1,0.4,0.2,0.5,0.3c0.2,0.2,0.4,0.5,0.6,0.8l1,1.6h-1l-0.8-1.2c-0.2-0.3-0.4-0.6-0.5-0.8s-0.3-0.3-0.4-0.4s-0.2-0.1-0.3-0.2
		c-0.1,0-0.2,0-0.4,0h-0.9v2.5H111z M111.8,93.1h1.6c0.3,0,0.6,0,0.8-0.1s0.3-0.2,0.4-0.3s0.2-0.3,0.2-0.5c0-0.3-0.1-0.5-0.3-0.7
		s-0.5-0.3-0.9-0.3h-1.8V93.1z"/>
</g>
</svg>
