<?xml version="1.0" encoding="utf-8"?>
<!-- Generator: Adobe Illustrator 21.0.0, SVG Export Plug-In . SVG Version: 6.00 Build 0)  -->
<svg version="1.1" id="Layer_1" xmlns="http://www.w3.org/2000/svg" xmlns:xlink="http://www.w3.org/1999/xlink" x="0px" y="0px"
	 viewBox="0 0 150 100" style="enable-background:new 0 0 150 100;" xml:space="preserve">
<style type="text/css">
	.st0{fill:#F7F7F7;}
	.st1{opacity:0.4;fill:#606060;enable-background:new    ;}
	.st2{fill:#7CC246;}
	.st3{fill:#7CC24E;}
	.st4{fill:#2D523D;}
	.st5{fill:#58A150;}
	.st6{fill:#E12E2C;}
	.st7{fill:#66AF59;}
	.st8{fill:#3C3C3C;stroke:#3C3C3C;stroke-width:0.5;stroke-miterlimit:10;}
	.st9{fill:#E6353A;}
	.st10{fill:#6CB058;}
	.st11{fill:#FFFFFF;}
	.st12{fill:#88BC49;}
	.st13{fill:#DCF24E;}
	.st14{fill:#56B63C;}
	.st15{fill:#F4DE11;}
	.st16{fill:none;stroke:#000000;stroke-miterlimit:10;}
	.st17{fill:#020202;}
</style>
<rect class="st0" width="150" height="100"/>
<rect y="85.5" class="st1" width="150" height="14.5"/>
<g>
	<path class="st2" d="M66.8,12.4c-5.2,3-10.3,6.3-15,10.1c-3.9,3.1-6.9,7.1-9.7,11.2c-2.9,4.3-5.6,8.8-7.3,13.7
		c-0.9,2.5-1.1,4.9-1.1,7.5c0,0.2,0.6,2.2,3.4,3.7c0,0.1,3.6-16.7,11.5-28.2C48.6,30.3,52.9,23.2,66.8,12.4z"/>
	<path class="st3" d="M52.3,40.8c-1-2-4.2-2.9-6-1.5c-0.7,0.5-1.3,1.3-1.7,2.1c-0.2,0.6-0.3,1.2-0.3,1.8c0,1.7,0.8,3.7,2.5,4.2
		c1.9,0.6,3.3-0.6,4.9-1.4c-0.2,0.1-5.1,1.8-5.4-2.9c0,0,5.3-1.3,5.9-0.7C52.4,42.6,52.4,41,52.3,40.8z M50.3,41.9l-3.8,0.4
		C46.3,39.4,50.8,39,50.3,41.9z"/>
	<path class="st3" d="M60.3,38.7c-0.8-0.5-1.9-0.5-3.2,0c-1.8,0.7-2.5,2.2-2.9,4C54.1,43.2,54,43.5,54,44c0.2,4.9,6.3,3.5,6.3,3.5
		c-0.4,1.9-0.5,3.8-0.4,5.7c0.1,1.5,0.3,3.2-0.7,4.5c-2,2.5-5.8,1-5.8-2.2c-0.3-2.3,4.5-4.1,4.5-4.1s-0.1-0.7-0.1-0.6
		c-1.9-0.2-3.5,0.4-4.5,2.1c-0.9,1.7-0.5,3.7,0.6,5.2c1.5,2.1,3.8,1.7,5.8,0.3c2.8-1.9,0.8-6.5,1.5-9.2c0.6-2.4,1.1-5,0.9-7.5
		C61.7,40.2,61.2,39.2,60.3,38.7z M60,46.3c0,0.2-2,0.2-2.2,0.1c-4.3-0.9-0.6-9.1,2.3-6.2c0.1,0.1,0.2,0.3,0.4,0.4v0.1
		C60.6,41.6,60.6,43.2,60,46.3z"/>
	<path class="st4" d="M86,53.4l-1.5-1.9c-0.7-0.9-3.2-0.1-4.1,0.2c-4.4,1.4-7.3,7.5-4.6,11.6c2.9,4.5,6.9,5.4,12,4
		c-1.1,0.3-2.1,1-3.2,1.3c-2.8,0.7-5.8,0.1-8.2-1.5c-6.6-4.5-3.5-14.8,3.9-16.3c0.6-0.1,4.3-0.7,4.5-0.2L86,53.4z"/>
	<path class="st4" d="M103.9,59.5v9.2h1.8l-0.9-0.3v-7.7c0,0,2.8-2.8,3.8-0.8c0-0.1,0.6,0,0.6,0s0.7-2.5-4.1-0.4
		C105.1,59.5,103.9,59.5,103.9,59.5z"/>
	<path class="st4" d="M112.7,59.3c3.8-2.4,5.5,0.8,5.5,0.8l0.2,8.5l0.5,0.4h-1.4c0,0,0.1-8.7,0-8.8c-3.2-2.8-5,0.6-5,0.6v7.5
		l0.9,0.8l-1.9-0.4v-8.8v-0.4l1.1-0.7L112.7,59.3z"/>
	<path d="M129.9,65C130,65,130,65,129.9,65C130,65,130,65.1,129.9,65"/>
	<path class="st5" d="M7.9,20c0,0,20.6,3.6,25.3,31.1c0,0.2,0.9-10.9-3.8-19.3c-0.1,0,4.6,4.1,4.7,13.8C34.2,45.6,38.2,19.1,7.9,20z
		"/>
	<path class="st3" d="M86,41.7c-1-2-4.2-2.9-6-1.5c-0.7,0.5-1.3,1.3-1.7,2.1c-0.3,0.6-0.4,1.2-0.4,1.8c0,1.7,0.8,3.7,2.5,4.2
		c1.9,0.6,3.3-0.6,4.9-1.4c-0.2,0.1-5.1,1.8-5.4-2.9c0,0,5.3-1.3,5.9-0.7C86.1,43.5,86.1,41.9,86,41.7z M84,42.8l-3.8,0.4
		C80.1,40.3,84.6,39.9,84,42.8z"/>
	<path class="st3" d="M70.3,38.7c-0.8-0.5-1.9-0.5-3.2,0c-1.8,0.7-2.5,2.2-2.9,4C64.1,43.2,64,43.5,64,44c0.2,4.9,6.3,3.5,6.3,3.5
		c-0.4,1.9-0.5,3.8-0.4,5.7c0.1,1.5,0.3,3.2-0.7,4.5c-2,2.5-5.8,1-5.8-2.2c-0.3-2.3,4.5-4.1,4.5-4.1s-0.1-0.7-0.1-0.6
		c-1.9-0.2-3.5,0.4-4.5,2.1c-0.9,1.7-0.5,3.7,0.6,5.2c1.5,2.1,3.8,1.7,5.8,0.3c2.8-1.9,0.8-6.5,1.5-9.2c0.6-2.4,1.1-5,0.9-7.5
		C71.8,40.2,71.2,39.2,70.3,38.7z M70.1,46.3c0,0.2-2,0.2-2.2,0.1c-4.3-0.9-0.6-9.1,2.3-6.2c0.1,0.1,0.2,0.3,0.4,0.4v0.1
		C70.7,41.6,70.7,43.2,70.1,46.3z"/>
	<path class="st4" d="M135.4,59.5v9.2h1.8l-0.9-0.3v-7.7c0,0,2.8-2.8,3.8-0.8c0-0.1,0.6,0,0.6,0s0.7-2.5-4.1-0.4
		C136.6,59.5,135.4,59.5,135.4,59.5z"/>
	<path class="st6" d="M73.6,36.9c0,0-0.3,0.7,0,1.7c0-0.1,2.5,1.3,2.5,1.3s-0.2,1.4-2.6,0c0.1,0,0,1.2,0,1.2s1.8,0.6,1.5,1.1
		c0,0.1-1.5,0-1.5,0V43l0.6,0.9h-0.6l0.6,4.5c0,0,3.2-5.1,3.9-11.1C78,37.6,75.1,37,73.6,36.9z"/>
	<path class="st7" d="M75.8,35.5c0,0-1.9-4.5-2.2-1.1c0.1,0.1,0.6,2.2,2.6,2.2c0,0,2.9,0.4,3-1.1c0,0,0.1-1.5-2.3,0
		c-0.1,0,0.1-2.4,0.1-2.4s-0.5-2.3-1.2,0C75.7,33.2,75.8,35.5,75.8,35.5z"/>
	<path class="st8" d="M95.2,59.8c0,0,4.5,0.3,4.1,3.3c0.1,0-0.6-3.1,1-1.6c0.1,0-1.1-1.4-0.4-1.9h-1.4v-0.9c0,0-0.1,0.5-0.8,0.5
		c-0.6,0-1.4-0.5-1.4-0.5S98.5,59.8,95.2,59.8z"/>
	<g>
		<path class="st9" d="M95.4,59.1c-0.7,0.4-2.4,0.3-3.2,0.6c-1.8,0.6-3.2,2.1-2.9,4.1c0.3,1.8,1.6,3.6,3.2,4.3
			c2.2,1,4.6,1.2,6.6-0.3c1.8-1.4,2.7-3.6,1.2-5.5c0.1-0.2-0.1,1.6-1.1,2.1c0.1,0.2-0.5-4.9-5.1-3.3C94,61,93.2,60.4,95.4,59.1z"/>
	</g>
	<path class="st10" d="M35,57.1c0,0,4.9-27.6,31.7-44.7c0,0-24.3,15.3-29.7,46.2L35,57.1z"/>
	<path class="st11" d="M90.2,62.6c0,0,0.6,2.8,2.4,3.6C92.7,66.3,89.8,66.2,90.2,62.6z"/>
	<g>
		<path d="M137.6,63.4L137.6,63.4L137.6,63.4L137.6,63.4z"/>
		<g>
			<path class="st12" d="M132.3,63.8c0-0.1,0-0.3,0-0.4l0,0c-0.2-3-2.7-5.4-5.8-5.4c-3.2,0-5.8,2.6-5.8,5.8c0,3.2,2.6,5.8,5.8,5.8
				c1.5,0,2.9-0.6,4-1.6l-0.4-0.5l-2.8-3.4c0,0,3-0.2,4.4-0.4"/>
			<path class="st13" d="M127.3,64.1l2.8,3.4c-0.9,0.9-2.2,1.4-3.5,1.4c-2.8,0-5.1-2.3-5.1-5.1s2.3-5.1,5.1-5.1c2.8,0,5,2.2,5.1,5
				C130.3,63.9,127.3,64.1,127.3,64.1z"/>
		</g>
		<path class="st14" d="M126,64.8v3.1c0,0-2,0.6-2.3-0.9C123.8,67.1,126,64.8,126,64.8z"/>
		<path class="st14" d="M125.5,63.4l-3.1,0.2c0,0-0.7-2,0.7-2.3C123,61.3,125.5,63.4,125.5,63.4z"/>
		<path class="st14" d="M126,62.9l-2.1-2.4c0,0,1.2-1.8,2.3-0.9C126.1,59.6,126,62.9,126,62.9z"/>
		<path class="st14" d="M125.6,64.3l-2.4,2.1c0,0-1.8-1.2-0.9-2.3C122.4,64.2,125.6,64.3,125.6,64.3z"/>
		<path class="st14" d="M127,62.8v-3.1c0,0,2-0.6,2.3,0.8C129.2,60.4,127,62.8,127,62.8z"/>
		<path class="st14" d="M126.9,64.8l2.3,2.1c0,0-1,1.9-2.2,1.1C127.2,68,126.9,64.8,126.9,64.8z"/>
		<path class="st14" d="M127.5,63.6l2.2-2.3c0,0,1.9,1,1.1,2.2C130.8,63.4,127.5,63.6,127.5,63.6z"/>
		<circle class="st15" cx="126.5" cy="63.8" r="0.7"/>
	</g>
</g>
<g>
	<path class="st16" d="M148.1,84.4c-0.5,0.8-0.5,1.5-0.1,2.2c0.3,0.5,0.4,1,0.6,1.5c0.3,0.9,0.2,1.4-0.7,1.8c-0.7,0.4-1.4,0.7-2,1.1
		c-0.3,0.2-0.5,0.5-0.6,0.8c-0.2,0.8-0.3,1.5-0.4,2.3c-0.2,0.9-0.6,1.3-1.5,1.2c-0.8-0.1-1.5-0.3-2.3-0.3c-0.3,0-0.7,0.1-0.9,0.3
		c-0.6,0.5-1.1,1.1-1.7,1.6c-0.6,0.6-1.2,0.6-1.9,0c-0.6-0.5-1.1-1.1-1.7-1.6c-0.2-0.2-0.6-0.3-0.9-0.3c-0.7,0.1-1.4,0.2-2.1,0.3
		c-1,0.1-1.6-0.3-1.8-1.3c-0.1-0.5-0.2-1.1-0.2-1.6c0-0.8-0.4-1.3-1.1-1.6c-0.4-0.2-0.8-0.4-1.3-0.6c-1.1-0.6-1.3-1.2-0.8-2.3
		c0.3-0.6,0.6-1.2,0.9-1.9c0.1-0.3,0.1-0.6,0-0.9c-0.3-0.7-0.7-1.3-1-2c-0.5-0.9-0.3-1.6,0.7-2.1c0.6-0.3,1.2-0.6,1.8-0.9
		c0.5-0.2,0.8-0.6,0.8-1.2c0.1-0.7,0.2-1.4,0.3-2.2c0.2-0.8,0.6-1.1,1.5-1.1c0.7,0.1,1.5,0.2,2.3,0.4c0.5,0.1,0.8,0,1.1-0.3
		c0.6-0.6,1.2-1.1,1.8-1.7c0.6-0.5,1.2-0.5,1.8,0c0.6,0.6,1.1,1.2,1.7,1.7c0.2,0.2,0.6,0.3,0.9,0.3c0.7-0.1,1.4-0.2,2.1-0.3
		c1.1-0.2,1.6,0.3,1.8,1.3c0,0.2,0.1,0.4,0.1,0.6c-0.1,1.6,0.7,2.5,2.1,2.9c0.2,0.1,0.5,0.2,0.7,0.4c0.7,0.4,1,1.1,0.6,1.9
		C148.6,83.4,148.4,84,148.1,84.4z"/>
	<path class="st17" d="M139.8,80.4c0-0.4,0.1-0.8,0.3-1c0.2-0.3,0.5-0.4,0.9-0.4s0.7,0.1,0.9,0.4s0.4,0.6,0.4,1.1s-0.1,0.9-0.4,1.1
		S141.4,82,141,82c-0.3,0-0.6-0.1-0.9-0.4S139.8,80.9,139.8,80.4z M141,79.4c-0.2,0-0.3,0.1-0.4,0.2c-0.1,0.2-0.2,0.4-0.2,0.8
		s0.1,0.6,0.2,0.8s0.3,0.2,0.4,0.2c0.2,0,0.3-0.1,0.4-0.2c0.1-0.2,0.2-0.4,0.2-0.8s-0.1-0.6-0.2-0.8S141.2,79.4,141,79.4z M141,84.9
		l3.1-6h0.6l-3.1,6H141z M143.5,83.4c0-0.4,0.1-0.8,0.3-1c0.2-0.3,0.5-0.4,0.9-0.4s0.7,0.1,0.9,0.4s0.4,0.6,0.4,1.1
		s-0.1,0.9-0.4,1.1s-0.5,0.4-0.9,0.4c-0.3,0-0.6-0.1-0.9-0.4S143.5,83.9,143.5,83.4z M144.7,82.4c-0.2,0-0.3,0.1-0.4,0.2
		c-0.1,0.2-0.2,0.4-0.2,0.8s0.1,0.6,0.2,0.8s0.3,0.2,0.4,0.2c0.2,0,0.3-0.1,0.4-0.2c0.1-0.2,0.2-0.4,0.2-0.8s-0.1-0.6-0.2-0.8
		S144.9,82.4,144.7,82.4z"/>
	<path class="st17" d="M130.8,89.9c0-1,0.3-1.7,0.8-2.2s1.2-0.8,2-0.8c0.5,0,1,0.1,1.4,0.4s0.7,0.6,1,1.1s0.3,1,0.3,1.5
		c0,0.6-0.1,1.1-0.4,1.6s-0.6,0.8-1,1s-0.9,0.4-1.4,0.4s-1-0.1-1.4-0.4s-0.7-0.6-1-1.1S130.8,90.4,130.8,89.9z M131.5,90
		c0,0.7,0.2,1.2,0.6,1.6s0.8,0.6,1.4,0.6c0.6,0,1-0.2,1.4-0.6s0.6-1,0.6-1.7c0-0.5-0.1-0.9-0.2-1.2c-0.2-0.3-0.4-0.6-0.7-0.8
		c-0.3-0.2-0.6-0.3-1-0.3c-0.5,0-1,0.2-1.4,0.6S131.5,89.1,131.5,90z"/>
	<path class="st17" d="M136.5,92.7V87h3.9v0.7h-3.1v1.8h2.7v0.7h-2.7v2.6L136.5,92.7L136.5,92.7z"/>
	<path class="st17" d="M140.7,92.7V87h3.9v0.7h-3.1v1.8h2.7v0.7h-2.7v2.6L140.7,92.7L140.7,92.7z"/>
	<g>
		<path class="st17" d="M133.8,84.8h-0.7v-4.5c-0.2,0.2-0.4,0.3-0.7,0.5s-0.5,0.3-0.7,0.4v-0.7c0.4-0.2,0.7-0.4,1-0.7
			s0.5-0.5,0.6-0.8h0.5L133.8,84.8L133.8,84.8z"/>
		<path class="st17" d="M135.6,83.3l0.7-0.1c0.1,0.4,0.2,0.6,0.4,0.8s0.4,0.3,0.7,0.3s0.6-0.1,0.9-0.4s0.4-0.6,0.4-1
			s-0.1-0.7-0.3-0.9s-0.5-0.3-0.9-0.3c-0.2,0-0.4,0.1-0.6,0.2s-0.3,0.2-0.4,0.4l-0.7-0.1l0.6-2.9h2.8V80h-2.3l-0.3,1.5
			c0.3-0.2,0.7-0.4,1.1-0.4c0.5,0,0.9,0.2,1.3,0.5s0.5,0.8,0.5,1.3s-0.2,1-0.5,1.3c-0.4,0.5-0.9,0.7-1.5,0.7c-0.5,0-0.9-0.1-1.3-0.4
			S135.6,83.8,135.6,83.3z"/>
	</g>
</g>
<g>
	<path d="M21,95.2v-5.7h2.5c0.5,0,0.9,0.1,1.2,0.2s0.5,0.3,0.6,0.5s0.2,0.5,0.2,0.9c0,0.4-0.1,0.7-0.4,1s-0.7,0.5-1.2,0.5
		c0.2,0.1,0.4,0.2,0.5,0.3c0.2,0.2,0.4,0.5,0.6,0.8l1,1.6h-1L24.3,94c-0.2-0.3-0.4-0.6-0.5-0.8s-0.3-0.3-0.4-0.4s-0.2-0.1-0.3-0.2
		c-0.1,0-0.2,0-0.4,0h-0.9v2.5H21z M21.7,92h1.6c0.3,0,0.6,0,0.8-0.1s0.3-0.2,0.4-0.3s0.2-0.3,0.2-0.5c0-0.3-0.1-0.5-0.3-0.7
		s-0.5-0.3-0.9-0.3h-1.8V92z"/>
	<path d="M26.7,95.2v-5.7h4.1v0.7h-3.4v1.8h3.2v0.7h-3.2v1.9H31v0.7H26.7z"/>
	<path d="M31.8,93.4l0.7-0.1c0,0.3,0.1,0.5,0.2,0.7s0.3,0.3,0.6,0.4s0.6,0.2,0.9,0.2c0.3,0,0.5,0,0.8-0.1s0.4-0.2,0.5-0.4
		s0.2-0.3,0.2-0.5c0-0.2-0.1-0.3-0.2-0.5S35.2,93,35,92.9c-0.2-0.1-0.5-0.2-1-0.3s-0.9-0.2-1.1-0.4c-0.3-0.1-0.5-0.3-0.6-0.5
		S32,91.2,32,91c0-0.3,0.1-0.6,0.2-0.8s0.4-0.4,0.7-0.6s0.7-0.2,1.1-0.2c0.4,0,0.8,0.1,1.1,0.2s0.6,0.3,0.7,0.6s0.3,0.6,0.3,0.9
		l-0.7,0.1c0-0.4-0.2-0.6-0.4-0.8s-0.6-0.3-1-0.3c-0.5,0-0.8,0.1-1,0.3s-0.3,0.4-0.3,0.6c0,0.2,0.1,0.4,0.2,0.5
		c0.1,0.1,0.5,0.3,1.1,0.4s1,0.3,1.3,0.4c0.3,0.2,0.6,0.3,0.7,0.6s0.2,0.5,0.2,0.8c0,0.3-0.1,0.6-0.3,0.9s-0.4,0.5-0.8,0.6
		s-0.7,0.2-1.1,0.2c-0.5,0-1-0.1-1.3-0.2s-0.6-0.4-0.8-0.7S31.8,93.8,31.8,93.4z"/>
	<path d="M38.9,95.2v-5.1H37v-0.7h4.5v0.7h-1.9v5.1H38.9z"/>
	<path d="M41.1,95.2l2.2-5.7h0.8l2.3,5.7h-0.9l-0.7-1.7h-2.4l-0.6,1.7H41.1z M42.7,92.9h1.9l-0.6-1.6c-0.2-0.5-0.3-0.9-0.4-1.2
		c-0.1,0.4-0.2,0.7-0.3,1.1L42.7,92.9z"/>
	<path d="M50.8,89.5h0.8v3.3c0,0.6-0.1,1-0.2,1.4S51,94.8,50.6,95s-0.8,0.3-1.3,0.3c-0.5,0-1-0.1-1.3-0.3s-0.6-0.5-0.7-0.8
		S47,93.4,47,92.8v-3.3h0.8v3.3c0,0.5,0,0.9,0.1,1.1s0.3,0.4,0.5,0.5s0.5,0.2,0.8,0.2c0.6,0,1-0.1,1.2-0.4s0.4-0.7,0.4-1.5V89.5z"/>
	<path d="M52.8,95.2v-5.7h2.5c0.5,0,0.9,0.1,1.2,0.2s0.5,0.3,0.6,0.5s0.2,0.5,0.2,0.9c0,0.4-0.1,0.7-0.4,1s-0.7,0.5-1.2,0.5
		c0.2,0.1,0.4,0.2,0.5,0.3c0.2,0.2,0.4,0.5,0.6,0.8l1,1.6h-1L56.2,94c-0.2-0.3-0.4-0.6-0.5-0.8s-0.3-0.3-0.4-0.4s-0.2-0.1-0.3-0.2
		c-0.1,0-0.2,0-0.4,0h-0.9v2.5H52.8z M53.6,92h1.6c0.3,0,0.6,0,0.8-0.1s0.3-0.2,0.4-0.3s0.2-0.3,0.2-0.5c0-0.3-0.1-0.5-0.3-0.7
		s-0.5-0.3-0.9-0.3h-1.8V92z"/>
	<path d="M58,95.2l2.2-5.7H61l2.3,5.7h-0.9l-0.7-1.7h-2.4l-0.6,1.7H58z M59.6,92.9h1.9L61,91.3c-0.2-0.5-0.3-0.9-0.4-1.2
		c-0.1,0.4-0.2,0.7-0.3,1.1L59.6,92.9z"/>
	<path d="M63.9,95.2v-5.7h0.8l3,4.5v-4.5h0.7v5.7h-0.8l-3-4.5v4.5H63.9z"/>
	<path d="M71.2,95.2v-5.1h-1.9v-0.7h4.5v0.7h-1.9v5.1H71.2z"/>
	<path d="M73.8,95.2v-0.8h0.8v0.8c0,0.3-0.1,0.5-0.2,0.7s-0.3,0.3-0.5,0.4l-0.2-0.3c0.1-0.1,0.3-0.2,0.3-0.3s0.1-0.3,0.1-0.5H73.8z"
		/>
	<path d="M78.1,95.2v-5.7h2.1c0.4,0,0.8,0.1,1.1,0.2s0.5,0.3,0.6,0.5s0.2,0.5,0.2,0.8c0,0.2-0.1,0.5-0.2,0.7s-0.3,0.4-0.6,0.5
		c0.3,0.1,0.6,0.3,0.8,0.5s0.3,0.5,0.3,0.9c0,0.3-0.1,0.5-0.2,0.7s-0.3,0.4-0.4,0.5s-0.4,0.2-0.6,0.3s-0.6,0.1-0.9,0.1H78.1z
		 M78.9,91.9h1.2c0.3,0,0.6,0,0.7-0.1c0.2-0.1,0.3-0.2,0.4-0.3s0.1-0.3,0.1-0.5c0-0.2,0-0.4-0.1-0.5s-0.2-0.2-0.4-0.3
		s-0.5-0.1-0.9-0.1h-1.1V91.9z M78.9,94.6h1.4c0.2,0,0.4,0,0.5,0c0.2,0,0.3-0.1,0.4-0.2s0.2-0.2,0.3-0.3s0.1-0.3,0.1-0.5
		c0-0.2-0.1-0.4-0.2-0.6s-0.3-0.3-0.5-0.3s-0.5-0.1-0.8-0.1h-1.3V94.6z"/>
	<path d="M83.6,95.2v-5.7h0.8v5.7H83.6z"/>
	<path d="M85.4,93.4l0.7-0.1c0,0.3,0.1,0.5,0.2,0.7s0.3,0.3,0.6,0.4s0.6,0.2,0.9,0.2c0.3,0,0.5,0,0.8-0.1s0.4-0.2,0.5-0.4
		s0.2-0.3,0.2-0.5c0-0.2-0.1-0.3-0.2-0.5s-0.3-0.2-0.5-0.3c-0.2-0.1-0.5-0.2-1-0.3s-0.9-0.2-1.1-0.4c-0.3-0.1-0.5-0.3-0.6-0.5
		s-0.2-0.5-0.2-0.7c0-0.3,0.1-0.6,0.2-0.8s0.4-0.4,0.7-0.6s0.7-0.2,1.1-0.2c0.4,0,0.8,0.1,1.1,0.2s0.6,0.3,0.7,0.6s0.3,0.6,0.3,0.9
		l-0.7,0.1c0-0.4-0.2-0.6-0.4-0.8s-0.6-0.3-1-0.3c-0.5,0-0.8,0.1-1,0.3s-0.3,0.4-0.3,0.6c0,0.2,0.1,0.4,0.2,0.5
		c0.1,0.1,0.5,0.3,1.1,0.4s1,0.3,1.3,0.4c0.3,0.2,0.6,0.3,0.7,0.6s0.2,0.5,0.2,0.8c0,0.3-0.1,0.6-0.3,0.9S89.3,95,89,95.1
		s-0.7,0.2-1.1,0.2c-0.5,0-1-0.1-1.3-0.2s-0.6-0.4-0.8-0.7S85.5,93.8,85.4,93.4z"/>
	<path d="M92.5,95.2v-5.1h-1.9v-0.7h4.5v0.7h-1.9v5.1H92.5z"/>
	<path d="M99.7,89.5h0.8v3.3c0,0.6-0.1,1-0.2,1.4s-0.4,0.6-0.7,0.8s-0.8,0.3-1.3,0.3c-0.5,0-1-0.1-1.3-0.3s-0.6-0.5-0.7-0.8
		s-0.2-0.8-0.2-1.4v-3.3h0.8v3.3c0,0.5,0,0.9,0.1,1.1s0.3,0.4,0.5,0.5s0.5,0.2,0.8,0.2c0.6,0,1-0.1,1.2-0.4s0.4-0.7,0.4-1.5V89.5z"
		/>
	<path d="M101.7,95.2v-5.7h2.2c0.4,0,0.7,0,0.9,0.1c0.3,0,0.5,0.1,0.7,0.3s0.3,0.3,0.5,0.6s0.2,0.5,0.2,0.8c0,0.5-0.2,0.9-0.5,1.2
		s-0.9,0.5-1.7,0.5h-1.5v2.3H101.7z M102.5,92.2h1.5c0.5,0,0.8-0.1,1-0.3s0.3-0.4,0.3-0.8c0-0.2-0.1-0.4-0.2-0.6s-0.3-0.3-0.5-0.3
		c-0.1,0-0.4-0.1-0.7-0.1h-1.5V92.2z"/>
	<path d="M110.8,89.5h0.8v3.3c0,0.6-0.1,1-0.2,1.4s-0.4,0.6-0.7,0.8s-0.8,0.3-1.3,0.3c-0.5,0-1-0.1-1.3-0.3s-0.6-0.5-0.7-0.8
		s-0.2-0.8-0.2-1.4v-3.3h0.8v3.3c0,0.5,0,0.9,0.1,1.1s0.3,0.4,0.5,0.5s0.5,0.2,0.8,0.2c0.6,0,1-0.1,1.2-0.4s0.4-0.7,0.4-1.5V89.5z"
		/>
	<path d="M112.8,95.2v-5.7h2.5c0.5,0,0.9,0.1,1.2,0.2s0.5,0.3,0.6,0.5s0.2,0.5,0.2,0.9c0,0.4-0.1,0.7-0.4,1s-0.7,0.5-1.2,0.5
		c0.2,0.1,0.4,0.2,0.5,0.3c0.2,0.2,0.4,0.5,0.6,0.8l1,1.6h-1l-0.8-1.2c-0.2-0.3-0.4-0.6-0.5-0.8s-0.3-0.3-0.4-0.4s-0.2-0.1-0.3-0.2
		c-0.1,0-0.2,0-0.4,0h-0.9v2.5H112.8z M113.6,92h1.6c0.3,0,0.6,0,0.8-0.1s0.3-0.2,0.4-0.3s0.2-0.3,0.2-0.5c0-0.3-0.1-0.5-0.3-0.7
		s-0.5-0.3-0.9-0.3h-1.8V92z"/>
</g>
</svg>
