<?xml version="1.0" encoding="utf-8"?>
<!-- Generator: Adobe Illustrator 21.0.0, SVG Export Plug-In . SVG Version: 6.00 Build 0)  -->
<svg version="1.1" id="Layer_1" xmlns="http://www.w3.org/2000/svg" xmlns:xlink="http://www.w3.org/1999/xlink" x="0px" y="0px"
	 viewBox="0 0 150 100" style="enable-background:new 0 0 150 100;" xml:space="preserve">
<style type="text/css">
	.st0{fill:#B30606;}
	.st1{fill:#FFFFFF;}
	.st2{fill:#FCF5F5;}
	.st3{fill:#F9F7F7;}
	.st4{opacity:0.4;fill:#050505;enable-background:new    ;}
	.st5{fill:none;stroke:#FFFFFF;stroke-miterlimit:10;}
	.st6{enable-background:new    ;}
</style>
<rect class="st0" width="150" height="100"/>
<g>
	<path class="st1" d="M48,29.6c2,0,4-0.4,6,0.5c3.4,1.6,4.4,6,1.9,9.8c-0.7,1.1-1,1.6,0.1,2.4c1.4,1,1.8,2.8,2.1,4.7
		c0.2,1,0.2,2,0.9,2.7c1.9,1.7,0.6,2.8-0.5,3.6c-2.9,1.9-5.7,0-6.7-4.3c-0.3-1.5-0.6-3.1-1.1-4.5c-0.2-0.7-0.8-1.3-1.4-1
		c-0.5,0.3-0.6,1.1-0.6,1.8c0.1,1.6-0.1,3.2,0.8,4.5c1.4,2.1,0.5,2.9-0.9,3.4s-2.9,0.5-4.3,0.2c-2.8-0.5-3-1.3-1.6-4.6
		c0.5-1,0.6-2.2,0.5-3.3c-0.5-4.5,1.2-9.4-1.5-13.6c-0.7-1.1,0.9-2.1,1.8-2.2C44.9,29.5,46.5,29.6,48,29.6z M48.6,36.8
		c0.3,1-0.6,2.8,0.9,2.9c1.2,0,1.5-1.4,1.5-2.9c0-1.3,0.1-3.1-1.3-3.1C48.3,33.7,48.8,35.6,48.6,36.8z"/>
	<path class="st2" d="M88.7,29.9c1.4,0.2,3.5-0.4,5.6,0.5c3.8,1.5,5.7,5.5,5.7,11.6c-0.1,5.8-2.3,10.2-6,11.3
		c-3.6,1.1-7.3-0.2-11,0.3c-0.6,0.1-1.3-0.3-1.5-1.3c-0.2-0.9,0.1-1.5,0.6-1.9c1-0.6,1-1.9,1-3.2c0.1-3.5,0.2-7,0.3-10.5
		c0-1.3,0-2.5-0.9-3.3c-0.5-0.4-1-1-0.7-1.9c0.3-1,0.8-1.4,1.5-1.4C84.9,29.9,86.5,29.9,88.7,29.9z M89,41.4c0,1.7,0,3.4,0,5.1
		c0,1.3-0.3,3,1.1,3.3c1.2,0.3,2.2-0.3,2.9-1.9c1.1-2.7,1-10-0.3-12.5c-0.3-0.6-0.8-1.1-1.3-1.5c-1.4-0.8-2.4-0.6-2.4,2
		C89,37.8,89,39.6,89,41.4z"/>
	<path class="st1" d="M117.6,54c-1.3-0.3-2.7-0.5-4-1c-2-0.7-3.4-3.8-3.2-6.8c0.1-0.8,0.3-1.6,0.9-1.9c0.6-0.3,1.1,0.5,1.4,1.1
		c0.9,2,1.9,3.7,3.7,4c0.9,0.2,1.9,0.2,2.2-1.3c0.3-1.5-0.7-1.8-1.5-2.2c-1.3-0.7-2.6-1.3-3.7-2.4c-1.6-1.8-2.8-3.9-2.5-7
		s1.7-5,3.7-6.3c2.8-1.8,5.5-0.3,8.3,0.2c1.5,0.3,2.3,2.9,2,5.2s-1.4,2.3-2.5,1.1c-0.9-0.9-1.6-2.3-2.7-2.8
		c-0.8-0.3-1.7-0.5-2.1,0.8c-0.5,1.5,0.4,2,1.1,2.4c1,0.5,2,0.8,2.9,1.4c2.1,1.3,3.7,3.3,3.7,6.8c0,3.2-1.7,6.2-4.1,7.3
		C120,53.5,118.8,53.9,117.6,54z"/>
	<path class="st1" d="M133.6,53.4c-2,0-4,0-6,0c-0.9,0-1.9-0.9-1.1-2c2.3-3.2,1.6-7.3,1.6-10.9c0-2.6,0.3-5.5-1.6-7.8
		c-1.1-1.2,0.3-2.3,1.3-2.4c1.8-0.2,3.6,0,5.3-0.1c1.9-0.1,3.9-0.1,5.8-0.4c1-0.2,1.7,0.2,2.1,1.5c0.5,1.5,0.8,3.1,0.2,4.6
		s-1.6,1-2.1-0.3c-0.8-1.6-1.9-1.9-3.2-2c-2.3-0.2-3.4,2.2-2.5,5.1c0.2,0.8,0.6,1,1.1,1c0.6,0,1-0.5,1.2-1.3c0.2-0.9,0.2-2.3,1.3-2
		c0.8,0.2,1,1.4,1.1,2.4c0.3,1.9,0.2,3.9-0.1,5.8c-0.2,0.9-0.4,1.8-1.1,1.9c-0.8,0.2-0.9-0.8-1-1.5c-0.3-1.1-0.7-1.9-1.6-1.6
		c-0.8,0.3-0.8,1.4-0.7,2.3c0.1,1.5-0.5,3.7,1,4.1c1.7,0.4,3.6,0.7,4.9-1.5c0.6-1.1,0.9-3.7,2.4-2.4c1.3,1.2,0.5,3.2,0.2,5
		c-0.5,2.4-1.5,3.4-3.4,2.9c-1.6-0.4-3.2-0.1-4.8-0.1C133.6,53.5,133.6,53.4,133.6,53.4z"/>
	<path class="st1" d="M14.3,29.7c1.4,0,2.8-0.1,4.1,0c3.2,0.3,5.4,3.4,5.4,7.5c0,4.2-2.1,7.2-5.4,7.6c-3.7,0.5-3.9,1.2-1.8,5.4
		c0.7,1.4,0.2,2.2-0.6,2.6c-2.3,1.1-4.6,1.1-6.8,0c-0.7-0.4-1.4-1.5-0.6-2.3C10.1,49,9.8,47,9.9,45c0-2.5,0-5,0-7.5
		c0-1.8,0.2-3.7-1.5-4.5c-0.5-0.2-0.8-0.9-0.6-1.7c0.2-0.9,0.8-1.2,1.3-1.2C10.9,30,12.5,29.9,14.3,29.7
		C14.3,29.8,14.3,29.7,14.3,29.7z M15.3,37.4c0.4,1.2-0.6,3.3,1.1,3.4c1.6,0.1,1.9-1.7,1.9-3.5s-0.5-3.6-2-3.4
		C14.7,34.1,15.8,36.2,15.3,37.4z"/>
	<path class="st1" d="M35.9,53.8c-1-0.1-1.9-0.1-2.9-0.4c-1.3-0.5-2.8-1-0.9-3.3c0.4-0.5,0.6-1,0.1-1.7c-0.6-0.7-4.6-0.8-5.2-0.2
		s-0.6,1.3,0,1.9c1.8,2,0.5,2.8-0.8,3.2c-1,0.3-2.1,0.3-3.1,0.2c-0.8-0.1-1.9-0.1-2.2-1.6c-0.3-1.5,1-1.6,1.4-2.4
		c2.4-4.8,4.1-10,4.8-15.8c0.2-1.8,0.4-3.4,1.8-4s2.5-0.1,3.5,1.3c1.6,2.3,2.4,5.3,3.6,8.1c1.6,3.7,2,8.4,4.7,11.3
		c0.8,0.9,0,2.1-0.8,2.5C38.7,53.8,37.3,53.8,35.9,53.8z M29.7,43.6c0.5-0.3,1.6,0.5,1.4-1c-0.1-1.3-0.5-3.3-1.6-3.3
		c-0.9,0-1,1.8-1.2,3C28,44.2,29.1,43.2,29.7,43.6z"/>
	<path class="st3" d="M75.6,53.8c-1-0.2-2.1-0.2-3.1-0.5c-1.3-0.4-2.3-1.2-0.8-3.1c1-1.4,0.5-2-0.5-2.2c-1.1-0.2-2.3-0.3-3.4-0.2
		c-1.4,0.1-2.1,0.8-0.7,2.6c1,1.3,0.5,2.3-0.5,2.8c-1.6,0.8-3.3,0.8-5,0c-1.1-0.5-1.5-1.5-0.5-2.8c3.6-4.3,4.7-10.3,5.7-16.4
		c0.3-1.9,0.4-3.7,1.9-4.3c1.5-0.6,2.7,0,3.7,1.6c2.6,4.4,3.8,9.9,5.7,14.9c0.5,1.2,0.6,2.6,1.6,3.4c0.5,0.4,1.3,0.7,1,2
		c-0.2,1-0.8,1.3-1.5,1.6C78,53.8,76.8,53.7,75.6,53.8z M69.5,43.5c0.5-0.3,1.5,0.5,1.3-1.1c-0.2-1.3-0.5-3.1-1.5-3.1
		c-1.1,0-1.2,1.9-1.3,3.1C67.8,44.1,68.9,43.2,69.5,43.5z"/>
	<path class="st1" d="M104.9,29.6c1,0.2,1.9,0.2,2.8,0.6c1.3,0.6,2,1.7,0.6,3.3c-0.8,0.9-0.9,2.1-0.9,3.4c0,3.2,0,6.4,0,9.6
		c0,1.2,0.2,2.4,1,3.3c1.2,1.3,0.8,2.7-0.5,3.2c-2.2,0.9-4.4,1.2-6.6,0.2c-1.1-0.5-1.6-1.3-0.7-3c1.8-3.5,1.6-13.3-0.3-16.7
		c-0.8-1.5-0.3-2.3,0.6-2.9C102.2,29.9,103.6,29.7,104.9,29.6z"/>
</g>
<rect y="85.5" class="st4" width="150" height="14.5"/>
<g>
	<path class="st5" d="M147.2,85.1c-0.5,0.8-0.5,1.5-0.1,2.2c0.3,0.5,0.4,1,0.6,1.5c0.3,0.9,0.2,1.4-0.7,1.8c-0.7,0.4-1.4,0.7-2,1.1
		c-0.3,0.2-0.5,0.5-0.6,0.8c-0.2,0.8-0.3,1.5-0.4,2.3c-0.2,0.9-0.6,1.3-1.5,1.2c-0.8-0.1-1.5-0.3-2.3-0.3c-0.3,0-0.7,0.1-0.9,0.3
		c-0.6,0.5-1.1,1.1-1.7,1.6c-0.6,0.6-1.2,0.6-1.9,0c-0.6-0.5-1.1-1.1-1.7-1.6c-0.2-0.2-0.6-0.3-0.9-0.3c-0.7,0.1-1.4,0.2-2.1,0.3
		c-1,0.1-1.6-0.3-1.8-1.3c-0.1-0.5-0.2-1.1-0.2-1.6c0-0.8-0.4-1.3-1.1-1.6c-0.4-0.2-0.8-0.4-1.3-0.6c-1.1-0.6-1.3-1.2-0.8-2.3
		c0.3-0.6,0.6-1.2,0.9-1.9c0.1-0.3,0.1-0.6,0-0.9c-0.3-0.7-0.7-1.3-1-2c-0.5-0.9-0.3-1.6,0.7-2.1c0.6-0.3,1.2-0.6,1.8-0.9
		c0.5-0.2,0.8-0.6,0.8-1.2c0.1-0.7,0.2-1.4,0.3-2.2c0.2-0.8,0.6-1.1,1.5-1.1c0.7,0.1,1.5,0.2,2.3,0.4c0.5,0.1,0.8,0,1.1-0.3
		c0.6-0.6,1.2-1.1,1.8-1.7c0.6-0.5,1.2-0.5,1.8,0c0.6,0.6,1.1,1.2,1.7,1.7c0.2,0.2,0.6,0.3,0.9,0.3c0.7-0.1,1.4-0.2,2.1-0.3
		c1.1-0.2,1.6,0.3,1.8,1.3c0,0.2,0.1,0.4,0.1,0.6c-0.1,1.6,0.7,2.5,2.1,2.9c0.2,0.1,0.5,0.2,0.7,0.4c0.7,0.4,1,1.1,0.6,1.9
		C147.7,84.1,147.5,84.7,147.2,85.1z"/>
	<path class="st1" d="M138.9,81.1c0-0.4,0.1-0.8,0.3-1c0.2-0.3,0.5-0.4,0.9-0.4s0.7,0.1,0.9,0.4s0.4,0.6,0.4,1.1s-0.1,0.9-0.4,1.1
		s-0.5,0.4-0.9,0.4c-0.3,0-0.6-0.1-0.9-0.4S138.9,81.6,138.9,81.1z M140.1,80.1c-0.2,0-0.3,0.1-0.4,0.2c-0.1,0.2-0.2,0.4-0.2,0.8
		s0.1,0.6,0.2,0.8s0.3,0.2,0.4,0.2c0.2,0,0.3-0.1,0.4-0.2c0.1-0.2,0.2-0.4,0.2-0.8s-0.1-0.6-0.2-0.8S140.3,80.1,140.1,80.1z
		 M140.1,85.6l3.1-6h0.6l-3.1,6H140.1z M142.6,84.1c0-0.4,0.1-0.8,0.3-1c0.2-0.3,0.5-0.4,0.9-0.4s0.7,0.1,0.9,0.4s0.4,0.6,0.4,1.1
		s-0.1,0.9-0.4,1.1s-0.5,0.4-0.9,0.4c-0.3,0-0.6-0.1-0.9-0.4S142.6,84.6,142.6,84.1z M143.8,83.1c-0.2,0-0.3,0.1-0.4,0.2
		c-0.1,0.2-0.2,0.4-0.2,0.8s0.1,0.6,0.2,0.8s0.3,0.2,0.4,0.2c0.2,0,0.3-0.1,0.4-0.2c0.1-0.2,0.2-0.4,0.2-0.8s-0.1-0.6-0.2-0.8
		S144,83.1,143.8,83.1z"/>
	<path class="st1" d="M129.9,90.6c0-1,0.3-1.7,0.8-2.2s1.2-0.8,2-0.8c0.5,0,1,0.1,1.4,0.4s0.7,0.6,1,1.1s0.3,1,0.3,1.5
		c0,0.6-0.1,1.1-0.4,1.6s-0.6,0.8-1,1s-0.9,0.4-1.4,0.4s-1-0.1-1.4-0.4s-0.7-0.6-1-1.1S129.9,91.1,129.9,90.6z M130.6,90.7
		c0,0.7,0.2,1.2,0.6,1.6s0.8,0.6,1.4,0.6c0.6,0,1-0.2,1.4-0.6s0.6-1,0.6-1.7c0-0.5-0.1-0.9-0.2-1.2c-0.2-0.3-0.4-0.6-0.7-0.8
		c-0.3-0.2-0.6-0.3-1-0.3c-0.5,0-1,0.2-1.4,0.6S130.6,89.8,130.6,90.7z"/>
	<path class="st1" d="M135.6,93.3v-5.7h3.9v0.7h-3.1v1.8h2.7v0.7h-2.7v2.6L135.6,93.3L135.6,93.3z"/>
	<path class="st1" d="M139.8,93.3v-5.7h3.9v0.7h-3.1v1.8h2.7v0.7h-2.7v2.6L139.8,93.3L139.8,93.3z"/>
	<g>
		<path class="st1" d="M133,84.2l0.7-0.1c0.1,0.4,0.2,0.6,0.4,0.8s0.4,0.3,0.7,0.3s0.6-0.1,0.9-0.4s0.4-0.6,0.4-1s-0.1-0.7-0.3-0.9
			s-0.5-0.3-0.9-0.3c-0.2,0-0.4,0.1-0.6,0.2s-0.3,0.2-0.4,0.4l-0.7-0.1l0.6-2.9h2.8v0.7h-2.3l-0.3,1.5c0.3-0.2,0.7-0.4,1.1-0.4
			c0.5,0,0.9,0.2,1.3,0.5s0.5,0.8,0.5,1.3s-0.2,1-0.5,1.3c-0.4,0.5-0.9,0.7-1.5,0.7c-0.5,0-0.9-0.1-1.3-0.4S133,84.7,133,84.2z"/>
	</g>
</g>
<g class="st6">
	<path class="st1" d="M30.6,95.5v-5.7h3.9v0.7h-3.1v1.8H34v0.7h-2.7v2.6H30.6z"/>
	<path class="st1" d="M34.3,95.5l2.2-5.7h0.8l2.3,5.7h-0.9l-0.7-1.7h-2.4l-0.6,1.7H34.3z M36,93.2h1.9l-0.6-1.6
		c-0.2-0.5-0.3-0.9-0.4-1.2c-0.1,0.4-0.2,0.7-0.3,1.1L36,93.2z"/>
	<path class="st1" d="M40,93.7l0.7-0.1c0,0.3,0.1,0.5,0.2,0.7s0.3,0.3,0.6,0.4s0.6,0.2,0.9,0.2c0.3,0,0.5,0,0.8-0.1s0.4-0.2,0.5-0.4
		s0.2-0.3,0.2-0.5c0-0.2-0.1-0.3-0.2-0.5s-0.3-0.2-0.5-0.3c-0.2-0.1-0.5-0.2-1-0.3s-0.9-0.2-1.1-0.4c-0.3-0.1-0.5-0.3-0.6-0.5
		s-0.2-0.5-0.2-0.7c0-0.3,0.1-0.6,0.2-0.8s0.4-0.4,0.7-0.6s0.7-0.2,1.1-0.2c0.4,0,0.8,0.1,1.1,0.2s0.6,0.3,0.7,0.6s0.3,0.6,0.3,0.9
		l-0.7,0.1c0-0.4-0.2-0.6-0.4-0.8s-0.6-0.3-1-0.3c-0.5,0-0.8,0.1-1,0.3S41,91,41,91.2c0,0.2,0.1,0.4,0.2,0.5
		c0.1,0.1,0.5,0.3,1.1,0.4s1,0.3,1.3,0.4c0.3,0.2,0.6,0.3,0.7,0.6s0.2,0.5,0.2,0.8c0,0.3-0.1,0.6-0.3,0.9s-0.4,0.5-0.8,0.6
		s-0.7,0.2-1.1,0.2c-0.5,0-1-0.1-1.3-0.2s-0.6-0.4-0.8-0.7S40.1,94.1,40,93.7z"/>
	<path class="st1" d="M45.7,95.5v-5.7h0.8v2.4h3v-2.4h0.8v5.7h-0.8v-2.7h-3v2.7H45.7z"/>
	<path class="st1" d="M51.5,95.5v-5.7h0.8v5.7H51.5z"/>
	<path class="st1" d="M53.4,92.8c0-1,0.3-1.7,0.8-2.2s1.2-0.8,2-0.8c0.5,0,1,0.1,1.4,0.4s0.7,0.6,1,1.1s0.3,1,0.3,1.5
		c0,0.6-0.1,1.1-0.4,1.6s-0.6,0.8-1,1s-0.9,0.4-1.4,0.4c-0.5,0-1-0.1-1.4-0.4s-0.7-0.6-1-1.1S53.4,93.3,53.4,92.8z M54.2,92.8
		c0,0.7,0.2,1.2,0.6,1.6s0.8,0.6,1.4,0.6c0.6,0,1-0.2,1.4-0.6s0.6-1,0.6-1.7c0-0.5-0.1-0.9-0.2-1.2s-0.4-0.6-0.7-0.8s-0.6-0.3-1-0.3
		c-0.5,0-1,0.2-1.4,0.6S54.2,91.9,54.2,92.8z"/>
	<path class="st1" d="M59.8,95.5v-5.7h0.8l3,4.5v-4.5h0.7v5.7h-0.8l-3-4.5v4.5H59.8z"/>
	<path class="st1" d="M65.7,95.5v-0.8h0.8v0.8c0,0.3-0.1,0.5-0.2,0.7s-0.3,0.3-0.5,0.4l-0.2-0.3c0.1-0.1,0.3-0.2,0.3-0.3
		s0.1-0.3,0.1-0.5H65.7z"/>
	<path class="st1" d="M70,95.5v-5.7h2.1c0.4,0,0.8,0.1,1.1,0.2c0.3,0.1,0.5,0.3,0.6,0.5c0.2,0.2,0.2,0.5,0.2,0.8
		c0,0.2-0.1,0.5-0.2,0.7s-0.3,0.4-0.6,0.5c0.3,0.1,0.6,0.3,0.8,0.5c0.2,0.2,0.3,0.5,0.3,0.9c0,0.3-0.1,0.5-0.2,0.7S74,95,73.8,95.2
		c-0.2,0.1-0.4,0.2-0.6,0.3c-0.3,0.1-0.6,0.1-0.9,0.1H70z M70.8,92.2H72c0.3,0,0.6,0,0.7-0.1c0.2-0.1,0.3-0.2,0.4-0.3
		s0.1-0.3,0.1-0.5c0-0.2,0-0.4-0.1-0.5c-0.1-0.1-0.2-0.2-0.4-0.3c-0.2-0.1-0.5-0.1-0.9-0.1h-1.1V92.2z M70.8,94.9h1.4
		c0.2,0,0.4,0,0.5,0c0.2,0,0.3-0.1,0.4-0.2s0.2-0.2,0.3-0.3c0.1-0.1,0.1-0.3,0.1-0.5c0-0.2-0.1-0.4-0.2-0.6S73.2,93.1,73,93
		c-0.2-0.1-0.5-0.1-0.8-0.1h-1.3V94.9z"/>
	<path class="st1" d="M75.5,95.5v-5.7h0.8v5.7H75.5z"/>
	<path class="st1" d="M77.4,93.7l0.7-0.1c0,0.3,0.1,0.5,0.2,0.7c0.1,0.2,0.3,0.3,0.6,0.4c0.3,0.1,0.6,0.2,0.9,0.2
		c0.3,0,0.5,0,0.8-0.1c0.2-0.1,0.4-0.2,0.5-0.4c0.1-0.1,0.2-0.3,0.2-0.5c0-0.2-0.1-0.3-0.2-0.5c-0.1-0.1-0.3-0.2-0.5-0.3
		c-0.2-0.1-0.5-0.2-1-0.3c-0.5-0.1-0.9-0.2-1.1-0.4c-0.3-0.1-0.5-0.3-0.6-0.5c-0.1-0.2-0.2-0.5-0.2-0.7c0-0.3,0.1-0.6,0.2-0.8
		s0.4-0.4,0.7-0.6c0.3-0.1,0.7-0.2,1.1-0.2c0.4,0,0.8,0.1,1.1,0.2s0.6,0.3,0.7,0.6c0.2,0.3,0.3,0.6,0.3,0.9L81,91.5
		c0-0.4-0.2-0.6-0.4-0.8c-0.2-0.2-0.6-0.3-1-0.3c-0.5,0-0.8,0.1-1,0.3c-0.2,0.2-0.3,0.4-0.3,0.6c0,0.2,0.1,0.4,0.2,0.5
		c0.1,0.1,0.5,0.3,1.1,0.4c0.6,0.1,1,0.3,1.3,0.4c0.3,0.2,0.6,0.3,0.7,0.6c0.2,0.2,0.2,0.5,0.2,0.8c0,0.3-0.1,0.6-0.3,0.9
		c-0.2,0.3-0.4,0.5-0.8,0.6c-0.3,0.1-0.7,0.2-1.1,0.2c-0.5,0-1-0.1-1.3-0.2c-0.3-0.2-0.6-0.4-0.8-0.7S77.4,94.1,77.4,93.7z"/>
	<path class="st1" d="M84.4,95.5v-5.1h-1.9v-0.7h4.5v0.7h-1.9v5.1H84.4z"/>
	<path class="st1" d="M91.6,89.8h0.8v3.3c0,0.6-0.1,1-0.2,1.4c-0.1,0.3-0.4,0.6-0.7,0.8s-0.8,0.3-1.3,0.3c-0.5,0-1-0.1-1.3-0.3
		c-0.3-0.2-0.6-0.5-0.7-0.8c-0.1-0.4-0.2-0.8-0.2-1.4v-3.3h0.8v3.3c0,0.5,0,0.9,0.1,1.1c0.1,0.2,0.3,0.4,0.5,0.5
		c0.2,0.1,0.5,0.2,0.8,0.2c0.6,0,1-0.1,1.2-0.4c0.2-0.3,0.4-0.7,0.4-1.5V89.8z"/>
	<path class="st1" d="M93.6,95.5v-5.7h2.2c0.4,0,0.7,0,0.9,0.1c0.3,0,0.5,0.1,0.7,0.3c0.2,0.1,0.3,0.3,0.5,0.6
		c0.1,0.2,0.2,0.5,0.2,0.8c0,0.5-0.2,0.9-0.5,1.2c-0.3,0.3-0.9,0.5-1.7,0.5h-1.5v2.3H93.6z M94.4,92.5h1.5c0.5,0,0.8-0.1,1-0.3
		c0.2-0.2,0.3-0.4,0.3-0.8c0-0.2-0.1-0.4-0.2-0.6s-0.3-0.3-0.5-0.3c-0.1,0-0.4-0.1-0.7-0.1h-1.5V92.5z"/>
	<path class="st1" d="M102.7,89.8h0.8v3.3c0,0.6-0.1,1-0.2,1.4c-0.1,0.3-0.4,0.6-0.7,0.8s-0.8,0.3-1.3,0.3c-0.5,0-1-0.1-1.3-0.3
		c-0.3-0.2-0.6-0.5-0.7-0.8c-0.1-0.4-0.2-0.8-0.2-1.4v-3.3h0.8v3.3c0,0.5,0,0.9,0.1,1.1c0.1,0.2,0.3,0.4,0.5,0.5
		c0.2,0.1,0.5,0.2,0.8,0.2c0.6,0,1-0.1,1.2-0.4c0.2-0.3,0.4-0.7,0.4-1.5V89.8z"/>
	<path class="st1" d="M104.8,95.5v-5.7h2.5c0.5,0,0.9,0.1,1.2,0.2s0.5,0.3,0.6,0.5c0.2,0.3,0.2,0.5,0.2,0.9c0,0.4-0.1,0.7-0.4,1
		c-0.3,0.3-0.7,0.5-1.2,0.5c0.2,0.1,0.4,0.2,0.5,0.3c0.2,0.2,0.4,0.5,0.6,0.8l1,1.6h-1l-0.8-1.2c-0.2-0.3-0.4-0.6-0.5-0.8
		c-0.1-0.2-0.3-0.3-0.4-0.4s-0.2-0.1-0.3-0.2c-0.1,0-0.2,0-0.4,0h-0.9v2.5H104.8z M105.5,92.3h1.6c0.3,0,0.6,0,0.8-0.1
		s0.3-0.2,0.4-0.3s0.2-0.3,0.2-0.5c0-0.3-0.1-0.5-0.3-0.7c-0.2-0.2-0.5-0.3-0.9-0.3h-1.8V92.3z"/>
</g>
</svg>
