<?xml version="1.0" encoding="utf-8"?>
<!-- Generator: Adobe Illustrator 21.0.0, SVG Export Plug-In . SVG Version: 6.00 Build 0)  -->
<svg version="1.1" id="Layer_1" xmlns="http://www.w3.org/2000/svg" xmlns:xlink="http://www.w3.org/1999/xlink" x="0px" y="0px"
	 viewBox="0 0 150 100" style="enable-background:new 0 0 150 100;" xml:space="preserve">
<style type="text/css">
	.st0{fill:#050505;}
	.st1{fill:none;}
	.st2{fill:#9F2E67;}
	.st3{fill:#FCFAFB;}
	.st4{fill:#FCFAFA;}
	.st5{fill:#FFFFFF;}
	.st6{opacity:0.4;fill:#050505;enable-background:new    ;}
	.st7{fill:none;stroke:#FCFAFB;stroke-miterlimit:10;}
</style>
<path class="st0" d="M-31.2,42.6"/>
<polyline class="st1" points="-80,92 -80,92 -80,92.8 -80,93 "/>
<rect class="st2" width="150" height="100"/>
<g>
	<path class="st0" d="M33.2,46.2c-0.1-0.2-0.3-0.4-0.4-0.6c-0.7-1.2-1.7-2.1-2.9-2.7c0,0,0,0-0.1,0c-1-0.5-2.1-0.8-3.2-0.9
		c-0.3,0-0.5,0-0.8-0.1c-0.1,0-0.2-0.1-0.3,0.1c-0.1,0.1,0.1,0.2,0.1,0.3s0.1,0.2,0.2,0.2c0.7,0.7,1,1.7,1.1,2.6
		c0,0.6,0.2,1.2,0.4,1.7c0.3,0.8,0.7,1.5,1.5,1.8c0.4,0.2,0.4,0.3,0.2,0.7c-0.4,0.5-0.6,1.1-0.5,1.8c0.1,1.4,1,2.6,2.5,2.6
		c0.1,0,0.2,0,0.4,0c0.1,0,0.2,0,0.3,0c0,0.1,0,0.2,0,0.2c-5.4,7.8-3.8,4.8-3.9,4.7v-0.1c-0.3-1.3-1-4.4-2.7-4.2
		c-0.6,0.1-1.1,0.2-1.7,0.4c-2.5,0.3-1.8-2.5-1.8-2.5c-1.1-0.3-0.2-1.1-0.3-1.2c-0.8-0.2-0.5-1.2-0.5-1.2s-0.8-0.5-1-0.5
		c-0.6-0.2,1.1-3.4,1.1-3.4c0.1-0.2-0.4-1.5-0.4-1.5c-0.5-0.9,0.8-2.2,0.8-2.3c-3.2-3.2-1.6-6.9-1.6-6.9c0.3,3.1,1.3,3.2,1.4,3.2
		c-1.1-6.2,2.8-7.8,3.1-7.9c-1.7,2.2-1,4.5-0.9,4.8c-0.3-2.5,1.4-3.8,1.4-3.8c-0.8,2,2.3,3.5,5,4.5c2,0.7,3.8,1.1,3.8,1.1
		C33.9,39.5,33.7,43,33.2,46.2z"/>
	<path class="st3" d="M32,53L32,53L32,53C31.9,53,31.9,53,32,53z"/>
	<path class="st3" d="M32,53L32,53L32,53L32,53z"/>
	<path class="st3" d="M31.7,53.7c0.8-0.2,1.1-0.7,1.4-1.5c0.1-0.3,0.1-0.6,0.1-1c0-0.6,0-1.2,0.1-1.8c0-0.1,0-0.2,0-0.3
		c0,0,0-0.1,0-0.2c0-0.1,0-0.1,0.1-0.2v0.1v0.1c0.1,0.5,0.1,1,0.2,1.5c0,0.2,0,0.3,0.1,0.5c0.2-0.8,0.3-1.5,0.4-2.3
		c0.3,0.3,0.3,0.6,0.3,0.8c0,0.5,0,1.1,0,1.6c0,0.3,0.1,0.6,0.1,0.9c0.2,0.9,0.8,1.4,1.7,1.4c1.6,0.2,2.5-0.9,2.6-2.3
		c0-0.6-0.1-1.1-0.5-1.6c-0.3-0.3-0.2-0.4,0.1-0.6c0.8-0.3,1.1-0.9,1.4-1.7c0.2-0.5,0.3-1,0.3-1.6c0.1-0.9,0.4-1.7,1-2.4
		c0.1-0.1,0.1-0.1,0.2-0.2c0-0.1,0.1-0.2,0.1-0.3c-0.1-0.1-0.2-0.1-0.3-0.1c-0.2,0-0.5,0-0.7,0.1c-1,0.1-2.1,0.4-3,0.8
		c-1.1,0.5-2,1.3-2.7,2.4c-0.2,0.3-0.4,0.6-0.6,0.9c0,0.1-0.1,0.1-0.2,0.1s-0.1-0.1-0.1-0.2c0-0.1,0.1-0.2,0.1-0.3
		c0-0.2,0-0.3-0.2-0.3s-0.2,0.1-0.3,0.3c0,0.1,0.1,0.2,0.1,0.3c0,0,0,0,0,0.1c0.1,0.1,0.1,0.1,0.1,0.2l0,0c0,0-0.3,0-0.3,0.1
		c0,0,0,0-0.1,0c-0.2-0.1-0.6-0.3-0.6-0.5l0,0c0,0,0,0,0-0.1h0.1l0,0c-0.4-0.7-0.8-1.3-1.4-1.8c-0.5-0.5-1-0.8-1.5-1.1
		c-0.4-0.2-0.4-0.2-0.3-0.5c0,0,0-0.1,0.1-0.2c0.2-0.6,0.2-0.6-0.4-0.8c-0.4-0.1-0.7-0.3-1.1-0.4c-1-0.4-1.5-1-1.1-2.4
		c0.2-0.8,0.8-1.4,1.5-1.8c0.1-0.1,0.3-0.2,0.4-0.2c0.1-0.1,0.2-0.2,0.2-0.3c0-0.2,0-0.5,0-0.7c0.1-0.5,0.3-0.9,0.6-1.3
		c0.3-0.4,0.6-0.7,0.9-1.1c0.3-0.3,0.7-0.4,1.1-0.4c0.2,0,0.4,0.1,0.6,0.1c0.1,0.1,0.2,0.1,0.4,0.1c0-0.2,0-0.3,0-0.4
		c0-0.6,0.5-1,1-1c0.2,0,0.4,0,0.5,0c0.2,0,0.3,0,0.5-0.1c0.5-0.3,1-0.4,1.5-0.3c0.4,0.1,0.7,0.3,0.9,0.7c0.1,0.2,0.2,0.4,0.3,0.6
		C37.8,33,38,33,38.2,33s0.4-0.1,0.7-0.2c0.8-0.2,1.6-0.4,2.4-0.1c1.2,0.4,2.3,0.7,3.5,1c0.5,0.2,1,0.5,1.4,0.8
		c0.2,0.2,0.4,0.3,0.5,0.5c0.2,0.4,0.5,0.6,0.9,0.8c0.5,0.2,0.9,0.4,1.3,0.7c0.5,0.5,0.7,1,0.8,1.7c0,0.2,0,0.3,0.2,0.4
		c0.7,0.3,1,1,1.2,1.7c0.1,0.7,0.1,1.4-0.2,2c-0.2,0.5-0.6,0.7-1.1,0.6c-0.4,0-0.5,0-0.6,0.4c-0.2,0.5-0.4,0.9-0.6,1.3
		c-0.1,0.1-0.2,0.2-0.1,0.4c0.1,0.1,0.2,0.1,0.4,0c0.1,0,0.2-0.1,0.3,0c0,0.2-0.1,0.3-0.3,0.3c-0.1,0-0.1,0-0.2,0.1
		c-0.6,0.1-0.6,0.2-0.6,0.8c0,0.4,0.2,0.8,0.3,1.2c0.1,0.3,0.3,0.6,0.4,0.9c0.3,0.6,0.1,1-0.6,1.1c-0.2,0-0.5,0-0.6,0.1
		c-0.2,0.2,0,0.4,0,0.6c0,0.4-0.1,0.6-0.5,0.7c-0.1,0-0.1,0-0.2,0.1c0,0.1,0,0.2,0.1,0.3c0.1,0.3,0.1,0.7-0.2,0.9
		c-0.2,0.2-0.3,0.4-0.3,0.7c0,0.2,0,0.4-0.1,0.6c-0.2,0.7-0.7,1-1.4,0.9c-0.3-0.1-0.7-0.2-1-0.3c-0.6-0.3-1.1-0.6-1.8-0.7
		c-0.6-0.1-0.9,0-1.2,0.5c-0.7,1.3-1.7,2.2-2.7,3.3c-0.5,0.5-1,1-1.4,1.5c0.1,0.2,0.2,0.1,0.3,0.1c0.9,0,1.8,0,2.7,0.1
		c2.4,0,4.8,0.1,7.2,0.1c2,0,4.1,0,6.1,0.1c2,0,3.9,0.1,5.9,0.1c3.6,0.1,7.2,0.1,10.8,0.1c2.3,0,4.6,0.1,6.8,0.1c2,0,4,0,6,0.1
		c2.7,0,5.4,0.1,8.1,0.1c3,0,5.9,0.1,8.9,0.1c3.2,0.1,6.5,0.1,9.7,0.2c3.7,0.1,7.4,0.1,11.1,0.2c0.8,0,1.7-0.1,2.5,0
		c0.5,0,1-0.1,1.4-0.1l0,0c0.2,0,0.4,0.2,0.4,0.4s-0.2,0.3-0.4,0.4c-0.1,0-0.3,0.1-0.4,0.1c-2.5,0-5.1,0-7.6,0
		c-3.3,0-6.7-0.1-10-0.1c-3.7,0-7.3-0.1-11-0.2c-2.1,0-4.2-0.1-6.4-0.1c-4-0.1-8.1-0.1-12.1-0.2c-4,0-8-0.1-12-0.2
		c-2.8,0.1-5.9,0-9.1,0c-4.4-0.1-8.7-0.1-13.1-0.2c-3.1-0.1-6.2-0.1-9.3-0.1c-1.6,0-3.2,0-4.8-0.1c-1.1,0-2.2-0.1-3.3-0.1
		c-0.1,0-0.3,0-0.2-0.2s-0.2-0.4,0.2-0.5c0.5-0.1,0.9,0,1.4,0c0.1,0,0.3,0,0.4,0s0.3-0.1,0.4-0.2c0-0.1,0.1-0.1,0.1-0.2
		c1.1-1.5,2.1-3,3.3-4.5c0,0,0.1-0.1,0.1-0.2v-0.1"/>
	<path class="st4" d="M67.7,54.8c-2.9,0-5.4-0.9-7.7-2.5c-2.4-1.7-4-4-4.7-6.8c-1-3.8-0.5-7.5,1.5-10.9c1-1.7,2.4-3,4.1-4.1
		c1.4-0.9,2.9-1.4,4.6-1.7c1.6-0.3,3.2-0.2,4.9,0.1c1.9,0.4,3.7,1.2,5.2,2.4c1.9,1.4,3.2,3.1,4.1,5.3c0.1,0.3,0.2,0.7,0.3,1.1
		c0.1,0.3,0,0.3-0.2,0.3c-0.6,0-1.2,0-1.8,0c-0.3,0-0.3-0.2-0.4-0.4c-0.4-1-0.9-2-1.6-2.8c-1.3-1.6-3-2.7-5-3.3
		c-1.7-0.5-3.5-0.6-5.3-0.2c-2.6,0.5-4.9,1.8-6.5,4c-1.1,1.4-1.7,3-1.9,4.8c-0.3,2-0.1,3.9,0.7,5.8c1.1,2.8,3.1,4.7,5.8,5.8
		c1.7,0.7,3.4,1,5.3,0.8c1.2-0.1,2.3-0.5,3.4-1c0.9-0.4,1.8-1,2.5-1.7c0.4-0.3,0.7-0.7,1-1.1c0.3-0.4,0.8-0.6,1.2-0.6
		c0.5-0.1,0.9,0,1.4,0.1c0.3,0,0.4,0.1,0.3,0.4c-0.2,0.6-0.5,1.2-1,1.6c-1.2,1.4-2.7,2.5-4.4,3.3c-1.1,0.5-2.3,0.9-3.5,1.1
		C69.1,54.7,68.4,54.8,67.7,54.8z"/>
	<path class="st4" d="M115.9,55.5c-1.5,0-3-0.2-4.4-0.7c-1.6-0.6-3.1-1.4-4.3-2.6c-1.2-1-2.1-2.3-2.8-3.6c-0.6-1.1-1-2.3-1.2-3.6
		c-0.5-2.9-0.2-5.8,1-8.5c1-2.3,2.7-4,4.8-5.3c1.1-0.7,2.3-1.1,3.5-1.4c2.2-0.5,4.4-0.4,6.6,0.2c2.5,0.8,4.6,2.1,6.4,4.1
		c1,1.2,1.8,2.5,2.3,4c0,0.1,0.1,0.2,0.1,0.3c0.1,0.4,0,0.4-0.3,0.4c-0.5,0-1,0-1.6,0c-0.3,0-0.4-0.1-0.5-0.4
		c-0.4-1.2-1.1-2.2-1.9-3.2c-0.9-1-1.9-1.8-3.2-2.4c-2.1-1-4.3-1.3-6.5-0.9c-2,0.3-3.8,1.1-5.4,2.4c-1.2,1-2.1,2.3-2.7,3.8
		c-0.9,2.2-1,4.5-0.4,6.9c0.7,2.9,2.4,5.1,4.9,6.6c1.7,1.1,3.6,1.6,5.6,1.6c1.5,0,2.9-0.3,4.2-0.9c1-0.5,2-1.1,2.8-1.8
		c0.3-0.3,0.5-0.5,0.7-0.8c0.4-0.6,0.9-0.8,1.6-0.9c0.4,0,0.9,0,1.3,0.1c0.3,0,0.3,0.1,0.2,0.3c-0.1,0.3-0.2,0.5-0.3,0.7
		c-0.6,1.1-1.5,2-2.5,2.8c-1.5,1.2-3.3,1.9-5.1,2.4C117.9,55.4,116.9,55.5,115.9,55.5z"/>
	<path class="st4" d="M125.5,20.9c-0.4,0.2-0.9,0.2-1.3,0.2c-2.1,0-4.2,0-6.3,0c-2.3,0-4.6-0.1-7-0.1c-3.2-0.1-6.3-0.1-9.5-0.2
		c-5-0.1-10-0.1-15-0.2c-4.2-0.1-8.3-0.1-12.5-0.2c-4-0.1-8-0.1-12-0.2c-2.8,0-5.6-0.1-8.4-0.1c-3.4,0-6.9-0.1-10.3-0.2
		c-3.1,0-6.1-0.1-9.2-0.1c-2.4,0-4.8-0.1-7.2-0.2c-0.4,0-0.8-0.1-1.2-0.1c-0.1,0-0.2,0-0.3-0.2c-0.1-0.3,0-0.5,0.3-0.5
		c0.7,0,1.3-0.1,2-0.1c3.7,0,7.4,0.1,11.1,0.1c2.5,0,5.1,0.1,7.6,0.1c1.6,0,3.3,0,4.9,0.1c2.2,0,4.3,0.1,6.5,0.1
		c2.1,0,4.2,0,6.3,0.1c3,0,6,0.1,9,0.1c1.5,0,3,0,4.5,0c2.1,0,4.3,0.1,6.4,0.1c4.2,0.1,8.4,0.1,12.6,0.2c3.4,0,6.7,0.1,10.1,0.2
		c4.1,0.1,8.2,0.1,12.3,0.2c1.9,0,3.8,0.1,5.7,0.1C125.2,20.4,125.4,20.5,125.5,20.9z"/>
	<path class="st4" d="M61.8,11.3c-0.2,0-0.2,0.2-0.2,0.3c-0.4,1.5-0.8,3.1-1.3,4.6c0,0.1-0.1,0.2-0.1,0.3c0,0.2-0.2,0.3-0.4,0.3
		c-0.8,0.1-0.9,0-0.7-0.8c0.3-1.1,0.6-2.1,0.9-3.2c0.5-1.7,0.9-3.3,1.4-5c0-0.1,0-0.2,0.2-0.3c0.9,2.1,1.7,4.3,2.7,6.4
		c0.6-1,1-2.1,1.4-3.1s0.9-2.1,1.3-3.1c0.2,0,0.2,0.2,0.2,0.2c0.7,2.8,1.4,5.7,2.1,8.5v0.1c0,0.2,0,0.3-0.2,0.3c-0.1,0-0.2,0-0.3,0
		c-0.6,0-0.6,0-0.7-0.6c-0.4-1.5-0.8-3-1.1-4.6c0-0.1,0-0.2-0.2-0.4C66,13.1,65.2,15,64.3,17c-0.4-0.7-0.6-1.4-0.9-2
		c-0.3-0.6-0.5-1.3-0.8-1.9"/>
	<path d="M37.3,48.8c0,0.2,0.2,0.3,0.3,0.4c1,0.7,1,2,0.5,2.8c-0.5,0.9-1.9,1.2-2.7,0.5c-0.2-0.2-0.3-0.4-0.4-0.7
		c-0.2-0.6-0.2-1.3-0.3-1.9c0-0.6-0.1-1.1-0.4-1.6c-0.3-0.5-0.2-1,0.2-1.5c0.7-1.1,1.6-2,2.8-2.6c0.9-0.5,1.8-0.7,2.8-0.8
		c0.1,0,0.1,0,0.2,0c0.1,0,0.2,0.1,0.1,0.2c0,0.1-0.1,0.1-0.1,0.2c-0.4,0.6-0.5,1.3-0.6,2c-0.1,0.4-0.1,0.9-0.2,1.3
		c-0.2,0.8-0.6,1.4-1.4,1.6C37.9,48.6,37.6,48.7,37.3,48.8z"/>
	<path class="st4" d="M121.4,12.1c-0.4-2-2.5-3.9-4.9-3.8c-1,0-1.9,0.3-2.8,0.8c-0.7,0.5-1.3,1-1.6,1.8c-0.7,1.4-0.7,2.9,0.1,4.3
		c1.4,2.7,4.7,3.5,7.1,2C121.1,16.1,121.9,14.2,121.4,12.1z M118.4,16.2c-0.5,0.3-1,0.4-1.6,0.4c-1.5-0.1-2.6-0.6-3.4-1.9
		c-0.7-1.2-0.6-2.4,0.1-3.5c1.4-2.3,4.6-2,6-0.3C120.6,12.3,120.7,14.8,118.4,16.2z"/>
	<path class="st4" d="M67.9,63.2c0.2,0.1,0.2,0.3,0.2,0.4c0.6,2.7,1.3,5.3,1.9,8c0,0.1,0,0.1,0,0.2c0,0.2,0,0.3-0.3,0.3
		c-0.1,0-0.1,0-0.2,0c-0.6,0-0.6,0-0.7-0.6c-0.4-1.4-0.7-2.9-1.1-4.3c0-0.2-0.1-0.3-0.2-0.5c-0.8,1.9-1.6,3.7-2.4,5.6
		c-0.5-1-0.8-1.9-1.2-2.9c-0.4-0.9-0.7-1.9-1.1-2.8c-0.2,0.1-0.2,0.2-0.2,0.3c-0.4,1.4-0.8,2.8-1.2,4.2v0.1c-0.2,0.7-0.1,0.7-1,0.7
		c-0.3,0-0.3-0.1-0.3-0.4c0.2-0.6,0.3-1.2,0.5-1.8c0.6-2.1,1.1-4.2,1.7-6.3c0-0.2,0-0.3,0.3-0.4c0.4,0.7,0.6,1.4,0.8,2
		c0.3,0.7,0.5,1.4,0.8,2.1c0.3,0.7,0.5,1.4,0.9,2.1c0.4-0.7,0.6-1.5,0.9-2.1c0.3-0.7,0.6-1.4,0.9-2C67.3,64.6,67.5,63.9,67.9,63.2z"
		/>
	<path class="st4" d="M129.7,15c0.1-0.2,0.1-0.3,0.1-0.4c0-1.7,0-3.5,0-5.2c0-0.6,0-0.6,0.6-0.6c0.7,0,0.6,0,0.6,0.6
		c0,2.7,0,5.4,0.1,8.2c0,0.2,0,0.3-0.1,0.6c-0.3-0.2-0.5-0.5-0.7-0.7c-1.8-1.9-3.6-3.8-5.5-5.7c-0.1-0.1-0.2-0.3-0.4-0.2
		c-0.2,0.1-0.1,0.3-0.1,0.5c0,1.7,0,3.5,0,5.2c0,0.5,0,0.5-0.5,0.5c-0.7,0-0.7,0-0.7-0.7c-0.1-2.7,0-5.4-0.1-8c0-0.2,0-0.3,0-0.5
		c0.2-0.1,0.2,0,0.3,0.1c1.3,1.4,2.7,2.8,4,4.2c0.7,0.7,1.4,1.4,2,2.1C129.5,15,129.6,15,129.7,15z"/>
	<path class="st4" d="M32.7,11.9c0,1,0,2,0,2.9c0,0.4,0,0.8-0.1,1.2c0,0.3-0.1,0.3-0.4,0.3c-1.1,0-0.9,0.1-0.9-0.9s0-2,0.1-3
		c0-0.4,0-0.4-0.4-0.4c-1.1,0-2.3,0-3.4,0c-0.4,0-0.4,0-0.4,0.4c0,1.1-0.1,2.2-0.1,3.2c0,0.6,0,0.6-0.6,0.6c-0.7,0-0.7,0-0.6-0.7
		c0-0.4,0-0.9,0-1.3C26,12,26,9.8,26.1,7.7c0-0.1,0-0.2,0-0.3c0-0.2,0.1-0.2,0.3-0.2c0.2,0,0.4,0,0.7,0c0.2,0,0.3,0.1,0.3,0.3
		c0,0.5,0,1.1,0,1.6c0,0.3,0,0.7,0,1c0,0.4,0.1,0.5,0.4,0.5c1.1,0,2.3,0,3.4,0c0.3,0,0.4,0,0.4-0.4c0-0.9,0.1-1.7,0.1-2.6
		c0-0.4,0-0.4,0.4-0.4c0.9,0,0.9-0.1,0.8,0.9C32.8,9.4,32.8,10.6,32.7,11.9C32.8,11.9,32.7,11.9,32.7,11.9z"/>
	<path class="st4" d="M34.6,11.4c0-0.8,0.1-2.2,0.1-3.5c0-0.5,0.1-0.5,0.5-0.5c1.4,0,2.8,0,4.1,0.1c0.3,0,0.4,0.1,0.4,0.4
		c0,0.9,0,0.9-0.8,0.9c-0.7,0-1.5,0-2.2,0c-0.1,0-0.3,0-0.4,0C36.1,8.8,36,8.9,36,9c0,0.6,0,1.2,0,1.7c0,0.2,0.1,0.2,0.3,0.2
		c0.3,0,0.6,0,0.9,0c0.7,0,1.4,0,2.2,0c0.3,0,0.4,0.1,0.4,0.4c0,0.8,0,0.9-0.8,0.9s-1.7,0-2.5,0c-0.5,0-0.5,0-0.5,0.4
		c0,0.7,0,1.5,0,2.2c0,0.4,0,0.4,0.4,0.4c0.9,0,1.8,0,2.8,0c0.1,0,0.2,0,0.3,0c0.2,0,0.2,0.1,0.2,0.3v0.1c-0.1,1.1,0.1,0.9-0.9,0.9
		c-1.2,0-2.3,0-3.5,0c-0.1,0-0.1,0-0.2,0c-0.5,0-0.5,0-0.5-0.5C34.5,14.6,34.6,13.2,34.6,11.4z"/>
	<path class="st4" d="M49.2,70.4c-0.4-0.7-0.8-1.3-1.3-2c-0.1-0.2-0.1-0.3,0.1-0.4s0.5-0.2,0.7-0.3c1.4-0.7,1.8-2.5,0.8-3.7
		c-0.4-0.5-0.9-0.7-1.5-0.9C47.2,63,46.4,63,45.6,63c-0.5,0-0.5,0.3-0.5,0.8c0,1.3,0,2.2-0.1,4.2l0,0c0,0,0,1,0,1.6
		s-0.1,1.1-0.1,1.7c0,0.7,0,0.6,0.7,0.6c0.5,0,0.5-0.1,0.5-0.5c0-0.8,0-1.7,0-2.6c0-0.2-0.1-0.4,0.1-0.4c0.2-0.1,0.3,0.2,0.4,0.3
		c0.6,0.9,1.2,1.7,1.6,2.6c0.3,0.6,0.8,0.7,1.3,0.7l0,0c0.3,0,0.3-0.2,0.2-0.4C49.7,71.2,49.4,70.8,49.2,70.4z M46.1,64.7
		c0-0.4,0.1-0.5,0.5-0.5s0.8,0,1.2,0.1c0.1,0,0.2,0,0.2,0.1c0.1,0.1,0.3,0.1,0.3,0.2c0.1,0,0.1,0.1,0.2,0.2c0.2,0.2,0.3,0.5,0.3,0.8
		c0,0.2,0,0.3-0.1,0.4c0,0.1,0,0.1-0.1,0.2s-0.1,0.2-0.2,0.3c-0.2,0.1-0.3,0.3-0.5,0.3c-0.4,0.2-0.8,0.2-1.2,0.3
		c-0.4,0-0.5,0-0.5-0.3c0-0.1,0-0.1,0-0.2c0-0.3,0-0.8,0-0.8H46"/>
	<path class="st4" d="M93.5,7.9c0.8,0,1.6,0.3,2.3,0.8C95.9,8.8,96,8.9,96.1,9s0.1,0.3,0,0.4L96,9.5c-0.6,0.5-0.6,0.5-1.1,0
		c-0.5-0.4-1.6-0.5-2.2-0.1c-0.4,0.3-0.5,0.9-0.2,1.3c0.2,0.2,0.4,0.4,0.7,0.5c0.6,0.3,1.2,0.6,1.8,0.9c1,0.6,1.6,1.5,1.5,2.7
		c0,1-0.5,1.7-1.3,2.2c-1.1,0.7-2.8,0.4-3.7-0.5c-0.4-0.4-0.7-0.8-0.9-1.3c-0.1-0.3-0.1-0.4,0.2-0.5c0.8-0.3,0.8-0.3,1.2,0.4
		c0.5,0.7,1.2,1,2.1,0.9c0.9-0.2,1.4-1.2,0.9-2c-0.2-0.4-0.5-0.7-0.9-0.9s-0.9-0.4-1.3-0.6c-0.6-0.3-1.2-0.7-1.6-1.3
		c-0.7-1.1-0.3-2.5,0.9-3.1C92.5,8,92.9,7.9,93.5,7.9z"/>
	<path class="st4" d="M58.3,16.4v-0.1c-0.7-1.7-1.4-3.3-2.2-5c-0.5-1.1-1-2.3-1.5-3.5c-0.1-0.1-0.1-0.3-0.2-0.3s-0.2,0.1-0.2,0.2
		c-0.3,0.7-0.7,1.5-1,2.2c-0.7,1.6-1.5,3.1-2.2,4.7c-0.3,0.5-0.5,1.1-0.8,1.6c-0.1,0.3-0.1,0.3,0.2,0.3c0.1,0,0.3,0,0.4,0
		c0.4,0.1,0.7-0.1,0.8-0.5c0.2-0.5,0.5-1,0.7-1.5c0.1-0.2,0.2-0.3,0.4-0.3c1,0,2.1,0,3.1,0c0.3,0,0.4,0.1,0.5,0.4
		c0.2,0.5,0.5,1.1,0.7,1.6c0.1,0.3,0.3,0.5,0.6,0.5c0.1,0,0.1,0.1,0.2,0.1H58C58.5,17,58.5,16.8,58.3,16.4z M55.4,13.3
		c-0.7,0-1.4,0-2.1,0c-0.3,0-0.3-0.1-0.2-0.3c0.4-0.8,0.8-1.6,1.1-2.4c0-0.1,0.1-0.1,0.2-0.2c0.2,0.4,0.4,0.8,0.6,1.3
		s0.4,0.9,0.6,1.4C55.7,13.2,55.6,13.3,55.4,13.3z"/>
	<path class="st4" d="M37.6,66.1c0,0.8,0,1.7,0,2.5c0,0.4,0.1,0.8,0.3,1.2c0.3,0.7,0.8,1,1.5,1.1c0.3,0,0.6,0,1,0
		c0.8-0.2,1.4-0.9,1.5-1.8c0-0.3,0-0.5,0-0.8c0-1.5,0.1-3,0.1-4.5c0-0.7,0-0.7,0.7-0.7c0.5,0,0.6,0.1,0.5,0.6c0,1.4-0.1,2.9-0.1,4.3
		c0,0.4,0,0.8-0.1,1.2c-0.1,1-0.5,1.8-1.3,2.4C40.9,72,40,72.2,39,72c-1.5-0.3-2.3-1.5-2.5-2.7c-0.1-0.5-0.1-0.9-0.1-1.4
		c0-1.3,0.1-2.5,0.1-3.8c0-0.3,0-0.6,0-0.8s0.1-0.3,0.3-0.3c0.9,0,0.9-0.1,0.9,0.8C37.7,64.5,37.7,65.3,37.6,66.1
		C37.7,66.1,37.7,66.1,37.6,66.1z"/>
	<path class="st4" d="M105.3,17c-0.3-0.6-0.5-1.2-0.8-1.8c-0.9-2.1-1.9-4.3-2.8-6.4c-0.1-0.3-0.2-0.5-0.4-0.8
		c-0.2,0.1-0.2,0.3-0.3,0.4c-0.4,0.8-0.8,1.7-1.1,2.5c-0.8,1.8-1.6,3.6-2.5,5.4c-0.4,0.9-0.5,0.8,0.6,0.8c0.3,0,0.4-0.1,0.5-0.3
		c0.2-0.5,0.5-1,0.7-1.5c0.1-0.3,0.3-0.4,0.6-0.4c1,0,2,0,3,0c0.3,0,0.4,0.1,0.5,0.3c0.2,0.4,0.4,0.8,0.5,1.2
		c0.4,0.9,0.2,0.8,1.3,0.8C105.5,17.4,105.5,17.3,105.3,17z M102.3,14c-0.7,0-1.4,0-2.1,0c-0.3,0-0.3-0.1-0.2-0.3
		c0.4-0.9,0.8-1.8,1.2-2.7c0.2,0,0.2,0.1,0.2,0.2c0.4,0.8,0.8,1.6,1.1,2.5C102.7,13.9,102.6,14,102.3,14z"/>
	<path class="st4" d="M32.6,70.7c0.7,0,1.3-0.2,1.9-0.5C35,70,35,70,35,70.5c0,0.9,0,0.9-0.8,1.2c-1.6,0.5-3.2,0.4-4.6-0.6
		c-2.4-1.7-2.3-4.8-1-6.5c0.7-0.9,1.5-1.5,2.6-1.8c1-0.3,1.9-0.2,2.9,0c0.3,0.1,0.5,0.2,0.8,0.3c0.2,0.1,0.3,0.2,0.3,0.4
		c0,0.3,0,0.5,0,0.8c0,0.2-0.1,0.3-0.3,0.2c-0.3-0.1-0.7-0.3-1-0.4c-0.8-0.3-1.7-0.3-2.5,0c-2.5,1-2.8,3.6-1.7,5.2
		C30.4,70.2,31.4,70.7,32.6,70.7z"/>
	<path class="st4" d="M71.4,67.9c0-1.3,0-2.6,0-3.9c0-0.5,0-0.5,0.5-0.5c1.2,0,2.5,0,3.7,0.1c0.5,0,0.5,0,0.5,0.5
		c0,0.7,0,0.7-0.7,0.7c-0.8,0-1.5,0-2.3,0c-0.1,0-0.2,0-0.3,0c-0.2,0-0.3,0.1-0.3,0.2c0,0.5,0,1.1,0,1.6c0,0.2,0.1,0.3,0.3,0.3
		c0.4,0,0.9,0,1.3,0c0.5,0,1,0,1.5,0c0.4,0,0.4,0.1,0.5,0.4v0.1c0,0.7,0,0.7-0.7,0.7c-0.8,0-1.6,0-2.4,0c-0.4,0-0.4,0-0.4,0.4
		c0,0.7,0,1.4,0,2.1c0,0.5,0,0.5,0.5,0.5c0.9,0,1.7,0,2.6,0.1c0.4,0,0.4,0,0.4,0.4c0,0.7,0,0.7-0.7,0.7c-1.2,0-2.4,0-3.6,0
		c-0.4,0-0.5,0-0.5-0.5C71.3,70.4,71.3,69.2,71.4,67.9C71.3,67.9,71.4,67.9,71.4,67.9z"/>
	<path class="st4" d="M88.1,65.3c-0.6-0.2-1.1-0.4-1.6-0.6c-1.6-0.4-3.4,0.4-4.1,1.9c-0.8,1.7,0,3.8,1.8,4.5
		c1.2,0.5,2.3,0.4,3.5-0.1l0,0c0.4-0.2,0.4-0.1,0.4,0.2c0,0.1,0,0.2,0,0.3c0,0.6-0.1,0.7-0.6,0.9c-1.4,0.5-2.8,0.5-4.1-0.3
		c-2.8-1.5-3.1-4.8-1.7-6.7c1.1-1.5,2.6-2.2,4.5-2c0.6,0.1,1.2,0.2,1.7,0.5c0.2,0.1,0.3,0.2,0.3,0.5C88.1,64.6,88.2,64.9,88.1,65.3z
		"/>
	<path class="st4" d="M103.4,72.4c0-0.1,0-0.2-0.1-0.2c-0.6-1.4-1.2-2.8-1.8-4.2c-0.5-1.3-1.1-2.6-1.7-3.8c-0.1-0.1-0.1-0.3-0.3-0.4
		c-0.2,0.2-0.3,0.5-0.4,0.7c-1.1,2.5-2.2,4.9-3.3,7.4c-0.3,0.7-0.5,0.7,0.5,0.7c0.3,0,0.4-0.1,0.5-0.4c0.2-0.5,0.5-1,0.7-1.5
		c0.1-0.3,0.3-0.4,0.5-0.3c1,0,1.9,0,2.9,0c0.3,0,0.4,0.1,0.5,0.4c0.2,0.5,0.4,1.1,0.6,1.5c0.3,0.6,0.3,0.7,0.9,0.7l0,0
		C103.5,73,103.5,72.8,103.4,72.4z M100.5,69.4c-0.6,0-1.2,0-1.9,0c-0.4,0-0.4-0.1-0.3-0.4c0.3-0.8,0.7-1.5,1-2.3
		c0-0.1,0.1-0.2,0.2-0.2c0.2,0.3,0.3,0.6,0.4,0.9c0.3,0.6,0.5,1.1,0.8,1.7C100.9,69.4,100.9,69.4,100.5,69.4z"/>
	<path class="st4" d="M44.9,12c0-1.3,0.1-2.7,0.1-4c0-0.1,0-0.1,0-0.2c0-0.2,0.1-0.3,0.3-0.3c0.4,0,0.8,0,1.2,0c1,0,2,0,3.1,0
		c0.5,0,0.5,0,0.5,0.5c0,0.8,0.1,0.7-0.8,0.7c-0.9,0-1.7,0-2.6,0c-0.4,0-0.4,0-0.4,0.4s0,0.9,0,1.3c0,0.5,0,0.5,0.5,0.5
		c0.9,0,1.7,0,2.6,0c0.6,0,0.6,0,0.6,0.6c0,0.1,0,0.1,0,0.2c0,0.4,0,0.4-0.4,0.4c-0.9,0-1.9,0-2.8,0c-0.1,0-0.2,0-0.3,0
		s-0.2,0.1-0.2,0.2c0,0.2,0,0.4,0,0.5c0,1,0,1.9-0.1,2.9c0,0.7,0,0.7-0.7,0.6h-0.1c-0.5,0-0.5,0-0.5-0.5
		C44.9,14.7,44.9,13.4,44.9,12L44.9,12z"/>
	<path class="st4" d="M110.1,64.1c-0.2,0.5-0.4,0.9-0.7,1.4c-1,1.8-2,3.7-3,5.5c-0.3,0.5-0.3,0.6,0.4,0.6c0.9,0,1.9,0,2.8,0.1
		c0.4,0,0.5,0,0.5,0.5c0,0.7,0,0.7-0.7,0.7c-1.6,0-3.1,0-4.7-0.1h-0.1c-0.3,0-0.3-0.1-0.2-0.3c0.3-0.5,0.6-1,0.8-1.5
		c0.9-1.7,1.9-3.4,2.8-5.1c0.3-0.5,0.2-0.5-0.3-0.5c-0.8,0-1.7,0-2.5-0.1c-0.1,0-0.3,0-0.4,0c-0.2,0-0.3-0.1-0.3-0.3s0-0.4,0-0.5
		c0-0.4,0.1-0.4,0.4-0.4c0.6,0,1.1,0,1.7,0c1,0,2,0,2.9,0C109.7,64,109.9,64,110.1,64.1z"/>
	<path class="st4" d="M82.4,16.6c0,0.5,0,0.5-0.5,0.5c-0.9,0-0.8,0.1-0.8-0.8c0-0.5,0-0.9,0-1.4l0,0c0-0.5,0-1.1,0-1.6
		c0-0.3-0.1-0.5-0.2-0.8c-0.8-1.4-1.6-2.7-2.4-4.1c-0.1-0.1-0.2-0.3-0.2-0.4c0.1-0.2,0.3-0.1,0.5-0.1c0.9,0,0.7-0.1,1.2,0.7
		s0.9,1.6,1.4,2.4c0.1,0.1,0.1,0.2,0.2,0.3c0.1,0.2,0.2,0.2,0.3,0c0.1-0.1,0.2-0.2,0.2-0.4c0.5-0.8,1-1.7,1.5-2.5
		C83.8,8.1,84,7.9,84.3,8c0.2,0,0.4,0,0.6,0s0.2,0.1,0.2,0.3C85,8.4,85,8.5,84.9,8.6c-0.8,1.3-1.6,2.6-2.4,3.9
		c-0.1,0.2-0.2,0.5-0.2,0.8"/>
	<path class="st4" d="M21.1,12.6c0-1.5,0.1-2.6,0.1-3.7c0-0.5,0-0.5-0.5-0.5c-0.4,0-0.8,0-1.2,0s-0.4,0-0.4-0.5c0-0.1,0-0.2,0-0.3
		c0-0.5,0-0.5,0.5-0.5c1.5,0,3,0,4.4,0.1c0.1,0,0.1,0,0.2,0c0.5,0,0.5,0,0.5,0.5c0,0.7,0,0.7-0.8,0.7c-0.3,0-0.7,0-1,0
		c-0.4,0-0.4,0-0.4,0.4c0,1.1-0.1,2.2-0.1,3.3c0,1.2-0.1,2.4-0.1,3.6c0,0.4,0,0.5-0.5,0.5c-0.9,0-0.8,0.1-0.8-0.8
		C21.1,14.4,21.1,13.3,21.1,12.6z"/>
	<path class="st4" d="M115,70.8c0,0.5,0,1.1,0,1.6c0,0.3,0,0.4-0.4,0.4l0,0c-0.7,0-0.7,0-0.7-0.7c0-0.9,0-1.9,0-2.8
		c0-0.3-0.1-0.6-0.2-0.9c-0.7-1.3-1.5-2.5-2.2-3.8c-0.1-0.2-0.3-0.3-0.2-0.5c0.1-0.2,0.3-0.1,0.5-0.1c0.1,0,0.1,0,0.2,0
		c0.3,0,0.4,0.1,0.6,0.3c0.5,0.9,1,1.7,1.5,2.6c0,0.1,0.1,0.2,0.1,0.2c0.2,0.3,0.3,0.3,0.5,0c0.3-0.4,0.5-0.8,0.8-1.3
		s0.5-0.9,0.8-1.4c0.2-0.3,0.4-0.5,0.9-0.5c0.2,0,0.4-0.1,0.5,0.1s-0.1,0.4-0.2,0.5c-0.7,1.2-1.4,2.4-2.1,3.6
		c-0.2,0.4-0.3,0.7-0.3,1.1C115,69.9,115,70.4,115,70.8z"/>
	<path class="st4" d="M75.4,15.1C75.4,15.2,75.4,15.2,75.4,15.1c0,0.6,0,0.6,0.5,0.6c0.7,0,1.4,0,2,0c0.4,0,0.4,0,0.4,0.4
		c0,0.1,0,0.3,0,0.4c0,0.4,0,0.4-0.4,0.4c-0.9,0-1.9,0-2.8,0c-0.2,0-0.4,0-0.6,0c-0.3,0-0.4-0.1-0.4-0.4c0-0.6,0-1.2,0-1.7
		c0-0.8,0-1.6,0-2.4c0,0,0,0,0.1,0c0-1.3,0-2.6,0-3.9c0-0.1,0-0.2,0-0.4s0.1-0.2,0.3-0.3c0.9-0.1,1-0.1,1,0.8"/>
	<path class="st4" d="M106.8,12.9c0-1.3,0-2.5,0-3.8c0-0.1,0-0.3,0-0.4c0-0.2,0.1-0.3,0.3-0.3c1,0,0.9-0.1,0.9,0.8
		c0,2.1,0,4.3,0,6.4c0,0.1,0,0.2,0,0.3c0,0.2,0.1,0.3,0.3,0.3c0.1,0,0.3,0,0.4,0c0.6,0,1.2,0,1.8,0c0.4,0,0.4,0,0.4,0.4
		c0,0.8,0,0.8-0.8,0.8c-0.9,0-1.8,0-2.8,0c-0.6,0-0.6,0-0.6-0.6C106.8,15.5,106.8,14.2,106.8,12.9L106.8,12.9z"/>
	<path class="st4" d="M52,67.5c0-1.2,0-2.5,0-3.7c0-0.9,0-0.7,0.7-0.7c0.4,0,0.4,0,0.4,0.4c0,1.1,0,2.2-0.1,3.3c0,1.1,0,2.3-0.1,3.4
		c0,0.4,0,0.4,0.4,0.4c0.7,0,1.3,0,2,0c0.4,0,0.4,0.1,0.4,0.4c0,0.9,0,0.8-0.8,0.8c-0.9,0-1.8,0-2.8-0.1c-0.4,0-0.5,0-0.5-0.5
		C51.9,70.2,51.9,68.8,52,67.5C51.9,67.5,52,67.5,52,67.5z"/>
	<path class="st4" d="M70.8,12.4c0-1.3,0-2.5,0-3.8c0-0.1,0-0.3,0-0.4c0-0.2,0.1-0.3,0.3-0.3c0.2,0,0.4,0,0.6,0
		c0.3,0,0.4,0.1,0.4,0.4c0,0.5,0,1,0,1.5c0,2.2,0,4.4-0.1,6.5c0,0.6,0.1,0.6-0.6,0.6c-0.6,0-0.6,0-0.6-0.6
		C70.7,15,70.7,13.7,70.8,12.4C70.7,12.4,70.8,12.4,70.8,12.4z"/>
	<path class="st4" d="M91.6,30.3c-0.9,0-1.6-0.3-2.2-0.8c-0.2-0.2-0.4-0.4-0.4-0.6c0-0.1,0-0.1-0.1-0.2c-0.5-0.5-0.6-1.1-0.6-1.8
		c0-1.5,0.8-2.6,2.2-3.1c0.8-0.3,1.7-0.3,2.5,0c0.7,0.3,1.2,0.9,1.5,1.6c0.4,0.9,0.5,1.8,0.2,2.8c-0.3,0.9-0.9,1.5-1.8,1.8
		C92.4,30.2,92,30.3,91.6,30.3z"/>
	<g>
		<path class="st0" d="M92.8,43c0,0-0.9,1.2-2,0c0,0,0.2-8.8-6.1-10.3V40h-2.3V30c0,0,5.6-1.4,9.4,6.6c-0.1,0,3.9-7.7,8.8-6.3
			c0,0.1,0,9.9,0,9.9h-2.4l0.1-7.1c0,0-5.1,0.2-5.7,9.8"/>
		<path class="st0" d="M82.4,46.1v7.4c0,0,0.9,0.1,2.2,0c-0.1,0.1,0-7.4,0-7.4s0-0.9-2.2-0.3"/>
		<path class="st0" d="M98.5,46.3v7.4c0,0,0.9,0.1,2.2,0c-0.1,0.1,0-7.4,0-7.4s0-0.9-2.2-0.3"/>
	</g>
	<path class="st5" d="M33.4,48.7C33.4,48.7,33.4,48.8,33.4,48.7c0,0.1,0,0.2,0,0.2L33.3,49c0,0,0-0.1,0-0.2
		C33.3,48.8,33.4,48.8,33.4,48.7z"/>
	<path class="st4" d="M94.1,71c-0.4-0.7-0.8-1.3-1.3-2c-0.1-0.2-0.1-0.3,0.1-0.4s0.4-0.2,0.7-0.3c1.4-0.7,1.8-2.5,0.8-3.7
		c-0.4-0.5-0.9-0.7-1.5-0.9c-0.8-0.2-1.6-0.1-2.4-0.1c-0.5,0-0.5,0.5-0.5,1c0,1.3,0,2.4-0.1,4.4l0,0c0,0,0,0.7,0,1.4
		c0,0.6-0.1,1-0.1,1.6c0,0.7,0,0.5,0.7,0.5c0.5,0,0.5-0.1,0.5-0.6c0-0.8,0-1.7,0-2.6c0-0.2-0.1-0.4,0.1-0.4c0.2-0.1,0.3,0.2,0.4,0.3
		c0.6,0.8,1.2,2,1.7,2.9c0.3,0.6,0.8,0.9,1.3,0.9l0,0c0.3,0,0.3-0.4,0.2-0.6C94.5,72,94.3,71.3,94.1,71z M91.1,65.5
		c0-0.4,0.1-0.6,0.5-0.6s0.8,0,1.2,0.1c0.1,0,0.2,0,0.2,0c0.1,0.1,0.3,0.1,0.3,0.2c0.1,0,0.1,0.1,0.2,0.2c0.2,0.2,0.3,0.5,0.3,0.8
		c0,0.2,0,0.3-0.1,0.4c0,0.1,0,0.1-0.1,0.2s-0.1,0.2-0.2,0.3c-0.2,0.1-0.3,0.3-0.5,0.3c-0.4,0.2-0.8,0.2-1.2,0.3
		c-0.4,0-0.5,0-0.5-0.3c0-0.1,0,0.2,0,0.1c0-0.3,0-0.6,0-0.6H91"/>
	<path d="M33.3,48.1c-0.3,0.5-0.4,1.1-0.4,1.8s0,1.4-0.3,2.1c-0.1,0.3-0.2,0.5-0.5,0.7C32,52.8,31.8,53,31.6,53l0,0l0,0h-0.1
		c-0.8,0.2-1.7-0.1-2.1-0.9c-0.5-0.9-0.5-2.3,0.6-3.1c0.1-0.1,0.3-0.2,0.3-0.4c-0.3-0.1-0.6-0.2-0.9-0.3c-0.9-0.3-1.4-0.9-1.5-1.8
		c-0.1-0.5-0.2-1-0.2-1.5c-0.1-0.8-0.2-1.5-0.7-2.2c0-0.1-0.1-0.1-0.1-0.2c0-0.1,0-0.2,0.1-0.3c0.1,0,0.2,0,0.2,0
		c1.1,0.1,2.1,0.4,3,0.9c1.3,0.7,2.2,1.7,3,2.9l0,0C33.5,46.9,33.6,47.5,33.3,48.1z"/>
</g>
<rect y="85.5" class="st6" width="150" height="14.5"/>
<g>
	<path class="st7" d="M144.7,85.4c-0.5,0.8-0.5,1.5-0.1,2.2c0.3,0.5,0.4,1,0.6,1.5c0.3,0.9,0.2,1.4-0.7,1.8c-0.7,0.4-1.4,0.7-2,1.1
		c-0.3,0.2-0.5,0.5-0.6,0.8c-0.2,0.8-0.3,1.5-0.4,2.3c-0.2,0.9-0.6,1.3-1.5,1.2c-0.8-0.1-1.5-0.3-2.3-0.3c-0.3,0-0.7,0.1-0.9,0.3
		c-0.6,0.5-1.1,1.1-1.7,1.6c-0.6,0.6-1.2,0.6-1.9,0c-0.6-0.5-1.1-1.1-1.7-1.6c-0.2-0.2-0.6-0.3-0.9-0.3c-0.7,0.1-1.4,0.2-2.1,0.3
		c-1,0.1-1.6-0.3-1.8-1.3c-0.1-0.5-0.2-1.1-0.2-1.6c0-0.8-0.4-1.3-1.1-1.6c-0.4-0.2-0.8-0.4-1.3-0.6c-1.1-0.6-1.3-1.2-0.8-2.3
		c0.3-0.6,0.6-1.2,0.9-1.9c0.1-0.3,0.1-0.6,0-0.9c-0.3-0.7-0.7-1.3-1-2c-0.5-0.9-0.3-1.6,0.7-2.1c0.6-0.3,1.2-0.6,1.8-0.9
		c0.5-0.2,0.8-0.6,0.8-1.2c0.1-0.7,0.2-1.4,0.3-2.2c0.2-0.8,0.6-1.1,1.5-1.1c0.7,0.1,1.5,0.2,2.3,0.4c0.5,0.1,0.8,0,1.1-0.3
		c0.6-0.6,1.2-1.1,1.8-1.7c0.6-0.5,1.2-0.5,1.8,0c0.6,0.6,1.1,1.2,1.7,1.7c0.2,0.2,0.6,0.3,0.9,0.3c0.7-0.1,1.4-0.2,2.1-0.3
		c1.1-0.2,1.6,0.3,1.8,1.3c0,0.2,0.1,0.4,0.1,0.6c-0.1,1.6,0.7,2.5,2.1,2.9c0.2,0.1,0.5,0.2,0.7,0.4c0.7,0.4,1,1.1,0.6,1.9
		C145.2,84.4,145,85,144.7,85.4z"/>
	<g>
		<path class="st3" d="M131.3,84.6v0.7h-3.8c0-0.2,0-0.3,0.1-0.5c0.1-0.3,0.3-0.5,0.5-0.8c0.2-0.3,0.5-0.5,0.9-0.9
			c0.6-0.5,1-0.9,1.3-1.2s0.3-0.6,0.3-0.8c0-0.3-0.1-0.5-0.3-0.7s-0.5-0.3-0.8-0.3s-0.6,0.1-0.8,0.3s-0.3,0.5-0.3,0.8l-0.7-0.1
			c0-0.5,0.2-1,0.6-1.2s0.8-0.4,1.3-0.4s1,0.2,1.3,0.5s0.5,0.7,0.5,1.1c0,0.2,0,0.5-0.1,0.7s-0.2,0.5-0.5,0.7s-0.6,0.6-1.1,1
			c-0.4,0.4-0.7,0.6-0.8,0.7s-0.2,0.3-0.3,0.4C128.6,84.6,131.3,84.6,131.3,84.6z"/>
		<path class="st3" d="M131.8,82.4c0-0.7,0.1-1.2,0.2-1.6s0.3-0.7,0.6-1s0.6-0.3,1-0.3c0.3,0,0.6,0.1,0.8,0.2s0.4,0.3,0.6,0.5
			s0.3,0.5,0.4,0.9s0.1,0.8,0.1,1.4c0,0.7-0.1,1.2-0.2,1.6s-0.3,0.7-0.6,1s-0.6,0.3-1,0.3c-0.6,0-1-0.2-1.3-0.6
			C132,84.3,131.8,83.5,131.8,82.4z M132.5,82.4c0,0.9,0.1,1.6,0.3,1.9s0.5,0.5,0.8,0.5s0.6-0.2,0.8-0.5s0.3-0.9,0.3-1.9
			c0-0.9-0.1-1.6-0.3-1.9s-0.5-0.5-0.8-0.5s-0.6,0.1-0.8,0.4C132.6,80.8,132.5,81.5,132.5,82.4z"/>
		<path class="st3" d="M136,80.9c0-0.4,0.1-0.8,0.3-1s0.5-0.4,0.9-0.4s0.7,0.1,0.9,0.4s0.4,0.6,0.4,1.1s-0.1,0.9-0.4,1.1
			s-0.5,0.4-0.9,0.4c-0.3,0-0.6-0.1-0.9-0.4S136,81.4,136,80.9z M137.3,79.9c-0.2,0-0.3,0.1-0.4,0.2s-0.2,0.4-0.2,0.8
			s0.1,0.6,0.2,0.8s0.3,0.2,0.4,0.2c0.2,0,0.3-0.1,0.4-0.2s0.2-0.4,0.2-0.8s-0.1-0.6-0.2-0.8S137.4,79.9,137.3,79.9z M137.3,85.5
			l3.1-6h0.6l-3.1,6H137.3z M139.7,83.9c0-0.4,0.1-0.8,0.3-1s0.5-0.4,0.9-0.4s0.7,0.1,0.9,0.4s0.4,0.6,0.4,1.1s-0.1,0.9-0.4,1.1
			s-0.5,0.4-0.9,0.4c-0.3,0-0.6-0.1-0.9-0.4S139.7,84.4,139.7,83.9z M141,82.9c-0.2,0-0.3,0.1-0.4,0.2s-0.2,0.4-0.2,0.8
			s0.1,0.6,0.2,0.8s0.3,0.2,0.4,0.2c0.2,0,0.3-0.1,0.4-0.2s0.2-0.4,0.2-0.8s-0.1-0.6-0.2-0.8S141.1,82.9,141,82.9z"/>
		<path class="st3" d="M127.7,89.5c0-1,0.3-1.7,0.8-2.2s1.2-0.8,2-0.8c0.5,0,1,0.1,1.4,0.4s0.7,0.6,1,1.1s0.3,1,0.3,1.5
			c0,0.6-0.1,1.1-0.4,1.6s-0.6,0.8-1,1s-0.9,0.4-1.4,0.4s-1-0.1-1.4-0.4s-0.7-0.6-1-1.1S127.7,90,127.7,89.5z M128.5,89.5
			c0,0.7,0.2,1.2,0.6,1.6s0.8,0.6,1.4,0.6c0.6,0,1-0.2,1.4-0.6s0.6-1,0.6-1.7c0-0.5-0.1-0.9-0.2-1.2s-0.4-0.6-0.7-0.8
			s-0.6-0.3-1-0.3c-0.5,0-1,0.2-1.4,0.6S128.5,88.6,128.5,89.5z"/>
		<path class="st3" d="M133.9,92.2v-5.7h3.9v0.7h-3.1V89h2.7v0.7h-2.7v2.6L133.9,92.2L133.9,92.2z"/>
		<path class="st3" d="M138.4,92.2v-5.7h3.9v0.7h-3.1V89h2.7v0.7h-2.7v2.6L138.4,92.2L138.4,92.2z"/>
	</g>
</g>
<g>
	<path class="st5" d="M30.5,93.7l0.7-0.1c0,0.3,0.1,0.5,0.2,0.7s0.3,0.3,0.6,0.4s0.6,0.2,0.9,0.2c0.3,0,0.5,0,0.8-0.1
		s0.4-0.2,0.5-0.4c0.1-0.1,0.2-0.3,0.2-0.5c0-0.2-0.1-0.3-0.2-0.5c-0.1-0.1-0.3-0.2-0.5-0.3c-0.2-0.1-0.5-0.2-1-0.3
		c-0.5-0.1-0.9-0.2-1.1-0.4c-0.3-0.1-0.5-0.3-0.6-0.5c-0.1-0.2-0.2-0.4-0.2-0.7c0-0.3,0.1-0.6,0.2-0.8c0.2-0.3,0.4-0.4,0.7-0.6
		c0.3-0.1,0.7-0.2,1.1-0.2c0.4,0,0.8,0.1,1.1,0.2s0.6,0.3,0.7,0.6s0.3,0.6,0.3,0.9l-0.7,0.1c0-0.4-0.2-0.6-0.4-0.8
		c-0.2-0.2-0.6-0.3-1-0.3c-0.5,0-0.8,0.1-1,0.3s-0.3,0.4-0.3,0.6c0,0.2,0.1,0.4,0.2,0.5c0.1,0.1,0.5,0.3,1.1,0.4
		c0.6,0.1,1,0.3,1.3,0.4c0.3,0.2,0.6,0.3,0.7,0.6c0.2,0.2,0.2,0.5,0.2,0.8c0,0.3-0.1,0.6-0.3,0.9s-0.4,0.5-0.8,0.6
		c-0.3,0.2-0.7,0.2-1.1,0.2c-0.5,0-1-0.1-1.3-0.2c-0.4-0.2-0.6-0.4-0.8-0.7C30.6,94.5,30.5,94.1,30.5,93.7z"/>
	<path class="st5" d="M35.4,95.6l2.2-5.7h0.8l2.3,5.7h-0.9l-0.7-1.7h-2.4l-0.6,1.7H35.4z M37.1,93.2H39l-0.6-1.6
		c-0.2-0.5-0.3-0.9-0.4-1.2c-0.1,0.4-0.2,0.7-0.3,1.1L37.1,93.2z"/>
	<path class="st5" d="M41.4,95.6v-5.7h0.8v5.1h2.8v0.7H41.4z"/>
	<path class="st5" d="M45.6,92.8c0-1,0.3-1.7,0.8-2.2c0.5-0.5,1.2-0.8,2-0.8c0.5,0,1,0.1,1.4,0.4c0.4,0.3,0.7,0.6,1,1.1
		c0.2,0.5,0.3,1,0.3,1.5c0,0.6-0.1,1.1-0.4,1.6c-0.2,0.5-0.6,0.8-1,1c-0.4,0.2-0.9,0.4-1.4,0.4c-0.5,0-1-0.1-1.4-0.4
		c-0.4-0.3-0.7-0.6-1-1.1C45.7,93.8,45.6,93.3,45.6,92.8z M46.4,92.8c0,0.7,0.2,1.2,0.6,1.6c0.4,0.4,0.8,0.6,1.4,0.6
		c0.6,0,1-0.2,1.4-0.6c0.4-0.4,0.6-1,0.6-1.7c0-0.5-0.1-0.9-0.2-1.2s-0.4-0.6-0.7-0.8s-0.6-0.3-1-0.3c-0.5,0-1,0.2-1.4,0.6
		C46.6,91.3,46.4,91.9,46.4,92.8z"/>
	<path class="st5" d="M52.1,95.6v-5.7h0.8l3,4.5v-4.5h0.7v5.7h-0.8l-3-4.5v4.5H52.1z"/>
	<path class="st5" d="M57.9,95.6v-0.8h0.8v0.8c0,0.3-0.1,0.5-0.2,0.7c-0.1,0.2-0.3,0.3-0.5,0.4l-0.2-0.3c0.1-0.1,0.3-0.2,0.3-0.3
		c0.1-0.1,0.1-0.3,0.1-0.5H57.9z"/>
	<path class="st5" d="M62.3,95.6v-5.7h2.1c0.4,0,0.8,0.1,1.1,0.2c0.3,0.1,0.5,0.3,0.6,0.5c0.1,0.2,0.2,0.5,0.2,0.8
		c0,0.2-0.1,0.5-0.2,0.7c-0.1,0.2-0.3,0.4-0.6,0.5c0.3,0.1,0.6,0.3,0.8,0.5c0.2,0.2,0.3,0.5,0.3,0.9c0,0.3-0.1,0.5-0.2,0.7
		s-0.3,0.4-0.4,0.5s-0.4,0.2-0.6,0.3c-0.3,0.1-0.6,0.1-0.9,0.1H62.3z M63,92.3h1.2c0.3,0,0.6,0,0.7-0.1c0.2-0.1,0.3-0.2,0.4-0.3
		s0.1-0.3,0.1-0.5c0-0.2,0-0.4-0.1-0.5s-0.2-0.2-0.4-0.3c-0.2-0.1-0.5-0.1-0.9-0.1H63V92.3z M63,94.9h1.4c0.2,0,0.4,0,0.5,0
		c0.2,0,0.3-0.1,0.4-0.2c0.1-0.1,0.2-0.2,0.3-0.3c0.1-0.1,0.1-0.3,0.1-0.5c0-0.2-0.1-0.4-0.2-0.6c-0.1-0.2-0.3-0.3-0.5-0.3
		c-0.2-0.1-0.5-0.1-0.8-0.1H63V94.9z"/>
	<path class="st5" d="M67.7,95.6v-5.7h0.8v2.4h3v-2.4h0.8v5.7h-0.8v-2.7h-3v2.7H67.7z"/>
	<path class="st5" d="M72.8,95.6l2.2-5.7h0.8l2.3,5.7h-0.9l-0.7-1.7h-2.4l-0.6,1.7H72.8z M74.4,93.2h1.9l-0.6-1.6
		c-0.2-0.5-0.3-0.9-0.4-1.2c-0.1,0.4-0.2,0.7-0.3,1.1L74.4,93.2z"/>
	<path class="st5" d="M78.7,95.6v-5.7h0.8v5.1h2.8v0.7H78.7z"/>
	<path class="st5" d="M86.9,89.9h0.8v3.3c0,0.6-0.1,1-0.2,1.4c-0.1,0.3-0.4,0.6-0.7,0.8c-0.3,0.2-0.8,0.3-1.3,0.3
		c-0.5,0-1-0.1-1.3-0.3c-0.3-0.2-0.6-0.5-0.7-0.8c-0.1-0.3-0.2-0.8-0.2-1.4v-3.3H84v3.3c0,0.5,0,0.9,0.1,1.1
		c0.1,0.2,0.3,0.4,0.5,0.5c0.2,0.1,0.5,0.2,0.8,0.2c0.6,0,1-0.1,1.2-0.4c0.2-0.3,0.4-0.7,0.4-1.5V89.9z"/>
	<path class="st5" d="M88.9,95.6v-5.7h2.1c0.4,0,0.8,0.1,1.1,0.2c0.3,0.1,0.5,0.3,0.6,0.5c0.1,0.2,0.2,0.5,0.2,0.8
		c0,0.2-0.1,0.5-0.2,0.7c-0.1,0.2-0.3,0.4-0.6,0.5c0.3,0.1,0.6,0.3,0.8,0.5c0.2,0.2,0.3,0.5,0.3,0.9c0,0.3-0.1,0.5-0.2,0.7
		s-0.3,0.4-0.4,0.5s-0.4,0.2-0.6,0.3c-0.3,0.1-0.6,0.1-0.9,0.1H88.9z M89.7,92.3h1.2c0.3,0,0.6,0,0.7-0.1c0.2-0.1,0.3-0.2,0.4-0.3
		s0.1-0.3,0.1-0.5c0-0.2,0-0.4-0.1-0.5s-0.2-0.2-0.4-0.3c-0.2-0.1-0.5-0.1-0.9-0.1h-1.1V92.3z M89.7,94.9h1.4c0.2,0,0.4,0,0.5,0
		c0.2,0,0.3-0.1,0.4-0.2c0.1-0.1,0.2-0.2,0.3-0.3c0.1-0.1,0.1-0.3,0.1-0.5c0-0.2-0.1-0.4-0.2-0.6c-0.1-0.2-0.3-0.3-0.5-0.3
		c-0.2-0.1-0.5-0.1-0.8-0.1h-1.3V94.9z"/>
	<path class="st5" d="M93.7,95.6l2.2-5.7h0.8l2.3,5.7h-0.9l-0.7-1.7h-2.4l-0.6,1.7H93.7z M95.3,93.2h1.9l-0.6-1.6
		c-0.2-0.5-0.3-0.9-0.4-1.2c-0.1,0.4-0.2,0.7-0.3,1.1L95.3,93.2z"/>
	<path class="st5" d="M99.4,93.7l0.7-0.1c0,0.3,0.1,0.5,0.2,0.7s0.3,0.3,0.6,0.4s0.6,0.2,0.9,0.2c0.3,0,0.5,0,0.8-0.1
		s0.4-0.2,0.5-0.4c0.1-0.1,0.2-0.3,0.2-0.5c0-0.2-0.1-0.3-0.2-0.5c-0.1-0.1-0.3-0.2-0.5-0.3c-0.2-0.1-0.5-0.2-1-0.3
		c-0.5-0.1-0.9-0.2-1.1-0.4c-0.3-0.1-0.5-0.3-0.6-0.5c-0.1-0.2-0.2-0.4-0.2-0.7c0-0.3,0.1-0.6,0.2-0.8c0.2-0.3,0.4-0.4,0.7-0.6
		c0.3-0.1,0.7-0.2,1.1-0.2c0.4,0,0.8,0.1,1.1,0.2s0.6,0.3,0.7,0.6s0.3,0.6,0.3,0.9l-0.7,0.1c0-0.4-0.2-0.6-0.4-0.8
		c-0.2-0.2-0.6-0.3-1-0.3c-0.5,0-0.8,0.1-1,0.3s-0.3,0.4-0.3,0.6c0,0.2,0.1,0.4,0.2,0.5c0.1,0.1,0.5,0.3,1.1,0.4
		c0.6,0.1,1,0.3,1.3,0.4c0.3,0.2,0.6,0.3,0.7,0.6c0.2,0.2,0.2,0.5,0.2,0.8c0,0.3-0.1,0.6-0.3,0.9s-0.4,0.5-0.8,0.6
		c-0.3,0.2-0.7,0.2-1.1,0.2c-0.5,0-1-0.1-1.3-0.2c-0.4-0.2-0.6-0.4-0.8-0.7C99.5,94.5,99.4,94.1,99.4,93.7z"/>
	<path class="st5" d="M104.3,95.6l2.2-5.7h0.8l2.3,5.7h-0.9l-0.7-1.7h-2.4l-0.6,1.7H104.3z M106,93.2h1.9l-0.6-1.6
		c-0.2-0.5-0.3-0.9-0.4-1.2c-0.1,0.4-0.2,0.7-0.3,1.1L106,93.2z"/>
</g>
</svg>
